<!-- Header -->
<svg
    version="1.1"
    baseProfile="full"
    xmlns="http://www.w3.org/2000/svg"
    xmlns:xlink="http://www.w3.org/1999/xlink"
    xmlns:ev="http://www.w3.org/2001/xml-events"
    width="400.0"
    height="20.0"
    viewBox="-0.5 -8.0 401.0 21.0"
    preserveAspectRatio="none"
>
<!-- Body -->
<!-- Path -->
<path d="M0.0,0.0 L1.0,0.2355806930859622 L2.0,0.4709288964698503 L3.0,0.7058123498888573 L4.0,0.9399992517322819 L5.0,1.1732584878017316 L6.0,1.4053598593929344 L7.0,1.636074310474069 L8.0,1.865174153736411 L9.0,2.0924332952942195 L10.0,2.3176274578121054 L11.0,2.540534401839685 L12.0,2.760934145135084 L13.0,2.9786091797608547 L14.0,3.193344686738045 L15.0,3.4049287480466006 L16.0,3.613152555762865 L17.0,3.817810618127785 L18.0,4.018700962342475 L19.0,4.215625333890979 L20.0,4.408389392193548 L21.0,4.596802902397323 L22.0,4.780679923115172 L23.0,4.9598389899273885 L24.0,5.134103294465165 L25.0,5.303300858899106 L26.0,5.467264705660587 L27.0,5.625833022228446 L28.0,5.778849320818419 L29.0,5.926162592817678 L30.0,6.067627457812105 L31.0,6.203104307059213 L32.0,6.332459441265113 L33.0,6.455565202529577 L34.0,6.572300100328977 L35.0,6.682548931412758 L36.0,6.786202893495147 L37.0,6.883159692629858 L38.0,6.973323644161885 L39.0,7.056605767156691 L40.0,7.132923872213651 L41.0,7.202202642577072 L42.0,7.264373708464733 L43.0,7.319375714540605 L44.0,7.3671543804651645 L45.0,7.407662554463533 L46.0,7.440860259858583 L47.0,7.4667147345231 L48.0,7.485200463212037 L49.0,7.496299202742987 L50.0,7.5 L51.0,7.496299202742987 L52.0,7.485200463212037 L53.0,7.4667147345231 L54.0,7.440860259858584 L55.0,7.407662554463533 L56.0,7.367154380465165 L57.0,7.319375714540605 L58.0,7.264373708464733 L59.0,7.202202642577073 L60.0,7.132923872213652 L61.0,7.056605767156691 L62.0,6.973323644161886 L63.0,6.883159692629858 L64.0,6.786202893495146 L65.0,6.682548931412759 L66.0,6.572300100328976 L67.0,6.455565202529577 L68.0,6.3324594412651125 L69.0,6.203104307059213 L70.0,6.067627457812106 L71.0,5.926162592817677 L72.0,5.778849320818419 L73.0,5.625833022228447 L74.0,5.467264705660586 L75.0,5.303300858899107 L76.0,5.134103294465167 L77.0,4.9598389899273885 L78.0,4.780679923115174 L79.0,4.5968029023973225 L80.0,4.408389392193549 L81.0,4.215625333890981 L82.0,4.018700962342478 L83.0,3.8178106181277833 L84.0,3.613152555762864 L85.0,3.4049287480466015 L86.0,3.1933446867380466 L87.0,2.978609179760858 L88.0,2.760934145135086 L89.0,2.5405344018396847 L90.0,2.3176274578121063 L91.0,2.0924332952942217 L92.0,1.8651741537364144 L93.0,1.6360743104740707 L94.0,1.4053598593929344 L95.0,1.1732584878017323 L96.0,0.939999251732284 L97.0,0.7058123498888577 L98.0,0.47092889646985187 L99.0,0.23558069308596177 L100.0,9.18485099360515e-16 L101.0,-0.23558069308595994 L102.0,-0.4709288964698501 L103.0,-0.7058123498888558 L104.0,-0.9399992517322822 L105.0,-1.1732584878017305 L106.0,-1.4053598593929357 L107.0,-1.636074310474069 L108.0,-1.8651741537364093 L109.0,-2.092433295294217 L110.0,-2.3176274578121046 L111.0,-2.540534401839686 L112.0,-2.760934145135084 L113.0,-2.978609179760853 L114.0,-3.193344686738042 L115.0,-3.4049287480466033 L116.0,-3.6131525557628654 L117.0,-3.817810618127784 L118.0,-4.018700962342473 L119.0,-4.215625333890977 L120.0,-4.408389392193545 L121.0,-4.596802902397324 L122.0,-4.780679923115172 L123.0,-4.959838989927388 L124.0,-5.134103294465163 L125.0,-5.303300858899103 L126.0,-5.467264705660587 L127.0,-5.625833022228446 L128.0,-5.77884932081842 L129.0,-5.926162592817678 L130.0,-6.067627457812105 L131.0,-6.2031043070592125 L132.0,-6.332459441265115 L133.0,-6.455565202529578 L134.0,-6.5723001003289765 L135.0,-6.682548931412758 L136.0,-6.786202893495148 L137.0,-6.883159692629859 L138.0,-6.973323644161886 L139.0,-7.056605767156691 L140.0,-7.132923872213651 L141.0,-7.202202642577072 L142.0,-7.264373708464734 L143.0,-7.319375714540605 L144.0,-7.367154380465165 L145.0,-7.407662554463532 L146.0,-7.440860259858583 L147.0,-7.4667147345231 L148.0,-7.485200463212037 L149.0,-7.496299202742987 L150.0,-7.5 L151.0,-7.496299202742987 L152.0,-7.485200463212037 L153.0,-7.4667147345231 L154.0,-7.440860259858584 L155.0,-7.407662554463533 L156.0,-7.367154380465165 L157.0,-7.319375714540606 L158.0,-7.264373708464733 L159.0,-7.202202642577073 L160.0,-7.132923872213652 L161.0,-7.056605767156691 L162.0,-6.973323644161887 L163.0,-6.883159692629861 L164.0,-6.786202893495149 L165.0,-6.682548931412763 L166.0,-6.572300100328976 L167.0,-6.455565202529575 L168.0,-6.3324594412651125 L169.0,-6.203104307059213 L170.0,-6.067627457812106 L171.0,-5.92616259281768 L172.0,-5.778849320818422 L173.0,-5.62583302222845 L174.0,-5.4672647056605905 L175.0,-5.303300858899113 L176.0,-5.1341032944651674 L177.0,-4.959838989927387 L178.0,-4.780679923115172 L179.0,-4.596802902397323 L180.0,-4.40838939219355 L181.0,-4.215625333890982 L182.0,-4.0187009623424785 L183.0,-3.81781061812779 L184.0,-3.6131525557628708 L185.0,-3.4049287480466024 L186.0,-3.1933446867380475 L187.0,-2.9786091797608525 L188.0,-2.760934145135084 L189.0,-2.5405344018396856 L190.0,-2.317627457812107 L191.0,-2.0924332952942226 L192.0,-1.865174153736415 L193.0,-1.636074310474075 L194.0,-1.405359859392935 L195.0,-1.1732584878017334 L196.0,-0.9399992517322848 L197.0,-0.7058123498888618 L198.0,-0.4709288964698495 L199.0,-0.23558069308596272 L200.0,-1.83697019872103e-15 L201.0,0.23558069308595903 L202.0,0.4709288964698458 L203.0,0.7058123498888582 L204.0,0.9399992517322813 L205.0,1.1732584878017296 L206.0,1.4053598593929315 L207.0,1.6360743104740647 L208.0,1.8651741537364115 L209.0,2.0924332952942186 L210.0,2.3176274578121037 L211.0,2.5405344018396825 L212.0,2.7609341451350864 L213.0,2.978609179760855 L214.0,3.193344686738044 L215.0,3.4049287480465993 L216.0,3.6131525557628614 L217.0,3.8178106181277807 L218.0,4.01870096234247 L219.0,4.215625333890979 L220.0,4.408389392193547 L221.0,4.596802902397326 L222.0,4.780679923115175 L223.0,4.959838989927389 L224.0,5.134103294465165 L225.0,5.303300858899105 L226.0,5.467264705660584 L227.0,5.625833022228443 L228.0,5.7788493208184155 L229.0,5.926162592817673 L230.0,6.067627457812108 L231.0,6.203104307059215 L232.0,6.332459441265114 L233.0,6.455565202529577 L234.0,6.5723001003289765 L235.0,6.682548931412758 L236.0,6.786202893495145 L237.0,6.883159692629857 L238.0,6.9733236441618835 L239.0,7.056605767156689 L240.0,7.132923872213649 L241.0,7.202202642577074 L242.0,7.264373708464734 L243.0,7.319375714540605 L244.0,7.3671543804651645 L245.0,7.407662554463532 L246.0,7.440860259858583 L247.0,7.4667147345231 L248.0,7.485200463212037 L249.0,7.4962992027429864 L250.0,7.5 L251.0,7.4962992027429864 L252.0,7.485200463212037 L253.0,7.4667147345231 L254.0,7.440860259858584 L255.0,7.407662554463532 L256.0,7.3671543804651645 L257.0,7.319375714540605 L258.0,7.264373708464733 L259.0,7.202202642577073 L260.0,7.132923872213652 L261.0,7.056605767156692 L262.0,6.973323644161888 L263.0,6.883159692629856 L264.0,6.786202893495144 L265.0,6.682548931412756 L266.0,6.572300100328976 L267.0,6.455565202529576 L268.0,6.332459441265113 L269.0,6.203104307059214 L270.0,6.067627457812106 L271.0,5.92616259281768 L272.0,5.778849320818415 L273.0,5.625833022228442 L274.0,5.4672647056605825 L275.0,5.303300858899103 L276.0,5.134103294465163 L277.0,4.959838989927388 L278.0,4.780679923115173 L279.0,4.596802902397324 L280.0,4.40838939219355 L281.0,4.215625333890983 L282.0,4.018700962342479 L283.0,3.817810618127779 L284.0,3.61315255576286 L285.0,3.404928748046597 L286.0,3.1933446867380426 L287.0,2.9786091797608534 L288.0,2.7609341451350846 L289.0,2.5405344018396865 L290.0,2.3176274578121085 L291.0,2.0924332952942235 L292.0,1.8651741537364162 L293.0,1.6360743104740756 L294.0,1.4053598593929295 L295.0,1.1732584878017276 L296.0,0.9399992517322793 L297.0,0.7058123498888561 L298.0,0.4709288964698504 L299.0,0.2355806930859636 L300.0,2.7554552980815444e-15 L301.0,-0.23558069308595814 L302.0,-0.47092889646984487 L303.0,-0.7058123498888507 L304.0,-0.9399992517322738 L305.0,-1.1732584878017354 L306.0,-1.4053598593929373 L307.0,-1.6360743104740703 L308.0,-1.8651741537364108 L309.0,-2.0924332952942177 L310.0,-2.3176274578121028 L311.0,-2.5405344018396816 L312.0,-2.7609341451350793 L313.0,-2.9786091797608485 L314.0,-3.1933446867380373 L315.0,-3.404928748046604 L316.0,-3.6131525557628668 L317.0,-3.8178106181277855 L318.0,-4.018700962342474 L319.0,-4.215625333890978 L320.0,-4.408389392193546 L321.0,-4.596802902397321 L322.0,-4.780679923115168 L323.0,-4.959838989927384 L324.0,-5.134103294465159 L325.0,-5.3033008588990995 L326.0,-5.467264705660579 L327.0,-5.625833022228447 L328.0,-5.77884932081841 L329.0,-5.926162592817676 L330.0,-6.067627457812096 L331.0,-6.203104307059212 L332.0,-6.332459441265117 L333.0,-6.4555652025295736 L334.0,-6.572300100328979 L335.0,-6.682548931412755 L336.0,-6.7862028934951475 L337.0,-6.883159692629854 L338.0,-6.973323644161885 L339.0,-7.056605767156686 L340.0,-7.1329238722136505 L341.0,-7.202202642577068 L342.0,-7.264373708464732 L343.0,-7.319375714540606 L344.0,-7.367154380465164 L345.0,-7.407662554463533 L346.0,-7.4408602598585825 L347.0,-7.4667147345231 L348.0,-7.485200463212036 L349.0,-7.496299202742987 L350.0,-7.5 L351.0,-7.496299202742987 L352.0,-7.485200463212037 L353.0,-7.466714734523101 L354.0,-7.440860259858583 L355.0,-7.407662554463534 L356.0,-7.3671543804651645 L357.0,-7.319375714540608 L358.0,-7.264373708464734 L359.0,-7.2022026425770775 L360.0,-7.132923872213653 L361.0,-7.056605767156692 L362.0,-6.973323644161888 L363.0,-6.883159692629856 L364.0,-6.78620289349515 L365.0,-6.682548931412757 L366.0,-6.572300100328983 L367.0,-6.455565202529577 L368.0,-6.3324594412651205 L369.0,-6.203104307059214 L370.0,-6.067627457812107 L371.0,-5.926162592817681 L372.0,-5.7788493208184235 L373.0,-5.625833022228451 L374.0,-5.467264705660583 L375.0,-5.303300858899114 L376.0,-5.134103294465164 L377.0,-4.959838989927398 L378.0,-4.780679923115173 L379.0,-4.596802902397325 L380.0,-4.408389392193551 L381.0,-4.2156253338909835 L382.0,-4.01870096234248 L383.0,-3.8178106181277913 L384.0,-3.6131525557628725 L385.0,-3.404928748046598 L386.0,-3.1933446867380555 L387.0,-2.9786091797608543 L388.0,-2.7609341451350855 L389.0,-2.5405344018396874 L390.0,-2.317627457812109 L391.0,-2.092433295294224 L392.0,-1.865174153736417 L393.0,-1.6360743104740765 L394.0,-1.4053598593929435 L395.0,-1.1732584878017418 L396.0,-0.93999925173228 L397.0,-0.705812349888857 L398.0,-0.47092889646985137 L399.0,-0.23558069308596452 L400.0,-3.67394039744206e-15 L400.0,4.9999999999999964 L399.0,4.764419306914036 L398.0,4.529071103530149 L397.0,4.294187650111143 L396.0,4.06000074826772 L395.0,3.826741512198258 L394.0,3.5946401406070567 L393.0,3.3639256895259235 L392.0,3.134825846263583 L391.0,2.907566704705776 L390.0,2.682372542187891 L389.0,2.4594655981603126 L388.0,2.2390658548649145 L387.0,2.0213908202391457 L386.0,1.8066553132619445 L385.0,1.595071251953402 L384.0,1.3868474442371275 L383.0,1.1821893818722087 L382.0,0.9812990376575197 L381.0,0.7843746661090165 L380.0,0.5916106078064489 L379.0,0.40319709760267486 L378.0,0.21932007688482713 L377.0,0.040161010072601755 L376.0,-0.1341032944651639 L375.0,-0.30330085889911373 L374.0,-0.4672647056605834 L373.0,-0.6258330222284512 L372.0,-0.7788493208184235 L371.0,-0.9261625928176809 L370.0,-1.0676274578121072 L369.0,-1.2031043070592142 L368.0,-1.3324594412651205 L367.0,-1.455565202529577 L366.0,-1.5723001003289827 L365.0,-1.6825489314127573 L364.0,-1.7862028934951502 L363.0,-1.8831596926298557 L362.0,-1.973323644161888 L361.0,-2.056605767156692 L360.0,-2.132923872213653 L359.0,-2.2022026425770775 L358.0,-2.264373708464734 L357.0,-2.319375714540608 L356.0,-2.3671543804651645 L355.0,-2.407662554463534 L354.0,-2.4408602598585833 L353.0,-2.4667147345231006 L352.0,-2.4852004632120366 L351.0,-2.4962992027429873 L350.0,-2.5 L349.0,-2.4962992027429873 L348.0,-2.4852004632120357 L347.0,-2.4667147345230998 L346.0,-2.4408602598585825 L345.0,-2.407662554463533 L344.0,-2.3671543804651636 L343.0,-2.319375714540606 L342.0,-2.264373708464732 L341.0,-2.2022026425770678 L340.0,-2.1329238722136505 L339.0,-2.056605767156686 L338.0,-1.9733236441618853 L337.0,-1.883159692629854 L336.0,-1.7862028934951475 L335.0,-1.6825489314127546 L334.0,-1.5723001003289792 L333.0,-1.4555652025295736 L332.0,-1.332459441265117 L331.0,-1.2031043070592116 L330.0,-1.0676274578120957 L329.0,-0.9261625928176764 L328.0,-0.7788493208184102 L327.0,-0.6258330222284467 L326.0,-0.467264705660579 L325.0,-0.3033008588990995 L324.0,-0.13410329446515856 L323.0,0.040161010072615966 L322.0,0.21932007688483157 L321.0,0.4031970976026793 L320.0,0.5916106078064542 L319.0,0.7843746661090218 L318.0,0.9812990376575259 L317.0,1.1821893818722145 L316.0,1.3868474442371332 L315.0,1.5950712519533958 L314.0,1.8066553132619627 L313.0,2.0213908202391515 L312.0,2.2390658548649207 L311.0,2.4594655981603184 L310.0,2.6823725421878972 L309.0,2.9075667047057823 L308.0,3.134825846263589 L307.0,3.3639256895259297 L306.0,3.594640140607063 L305.0,3.8267415121982644 L304.0,4.0600007482677265 L303.0,4.29418765011115 L302.0,4.529071103530155 L301.0,4.764419306914042 L300.0,5.000000000000003 L299.0,5.235580693085963 L298.0,5.47092889646985 L297.0,5.705812349888856 L296.0,5.93999925173228 L295.0,6.173258487801728 L294.0,6.405359859392929 L293.0,6.636074310474076 L292.0,6.865174153736416 L291.0,7.0924332952942235 L290.0,7.317627457812108 L289.0,7.540534401839686 L288.0,7.760934145135085 L287.0,7.978609179760854 L286.0,8.193344686738042 L285.0,8.404928748046597 L284.0,8.61315255576286 L283.0,8.81781061812778 L282.0,9.018700962342479 L281.0,9.215625333890983 L280.0,9.40838939219355 L279.0,9.596802902397325 L278.0,9.780679923115173 L277.0,9.959838989927388 L276.0,10.134103294465163 L275.0,10.303300858899103 L274.0,10.467264705660583 L273.0,10.625833022228441 L272.0,10.778849320818415 L271.0,10.926162592817679 L270.0,11.067627457812106 L269.0,11.203104307059213 L268.0,11.332459441265113 L267.0,11.455565202529577 L266.0,11.572300100328976 L265.0,11.682548931412757 L264.0,11.786202893495144 L263.0,11.883159692629857 L262.0,11.973323644161887 L261.0,12.056605767156693 L260.0,12.132923872213652 L259.0,12.202202642577074 L258.0,12.264373708464733 L257.0,12.319375714540605 L256.0,12.367154380465164 L255.0,12.407662554463531 L254.0,12.440860259858585 L253.0,12.4667147345231 L252.0,12.485200463212037 L251.0,12.496299202742986 L250.0,12.5 L249.0,12.496299202742986 L248.0,12.485200463212037 L247.0,12.4667147345231 L246.0,12.440860259858583 L245.0,12.407662554463531 L244.0,12.367154380465164 L243.0,12.319375714540605 L242.0,12.264373708464735 L241.0,12.202202642577074 L240.0,12.132923872213649 L239.0,12.05660576715669 L238.0,11.973323644161884 L237.0,11.883159692629857 L236.0,11.786202893495144 L235.0,11.682548931412757 L234.0,11.572300100328977 L233.0,11.455565202529577 L232.0,11.332459441265115 L231.0,11.203104307059215 L230.0,11.067627457812108 L229.0,10.926162592817672 L228.0,10.778849320818416 L227.0,10.625833022228443 L226.0,10.467264705660584 L225.0,10.303300858899105 L224.0,10.134103294465165 L223.0,9.95983898992739 L222.0,9.780679923115175 L221.0,9.596802902397325 L220.0,9.408389392193547 L219.0,9.21562533389098 L218.0,9.01870096234247 L217.0,8.81781061812778 L216.0,8.613152555762861 L215.0,8.404928748046599 L214.0,8.193344686738044 L213.0,7.978609179760856 L212.0,7.760934145135087 L211.0,7.5405344018396825 L210.0,7.317627457812104 L209.0,7.092433295294219 L208.0,6.865174153736412 L207.0,6.636074310474065 L206.0,6.405359859392932 L205.0,6.173258487801729 L204.0,5.9399992517322815 L203.0,5.705812349888858 L202.0,5.470928896469846 L201.0,5.235580693085959 L200.0,4.999999999999998 L199.0,4.7644193069140375 L198.0,4.529071103530151 L197.0,4.294187650111138 L196.0,4.060000748267715 L195.0,3.8267415121982666 L194.0,3.5946401406070647 L193.0,3.3639256895259253 L192.0,3.1348258462635847 L191.0,2.9075667047057774 L190.0,2.682372542187893 L189.0,2.4594655981603144 L188.0,2.239065854864916 L187.0,2.0213908202391475 L186.0,1.8066553132619525 L185.0,1.5950712519533976 L184.0,1.3868474442371292 L183.0,1.18218938187221 L182.0,0.9812990376575215 L181.0,0.7843746661090183 L180.0,0.5916106078064498 L179.0,0.40319709760267664 L178.0,0.21932007688482802 L177.0,0.0401610100726133 L176.0,-0.13410329446516744 L175.0,-0.30330085889911285 L174.0,-0.46726470566059053 L173.0,-0.6258330222284503 L172.0,-0.7788493208184217 L171.0,-0.92616259281768 L170.0,-1.0676274578121063 L169.0,-1.2031043070592133 L168.0,-1.3324594412651125 L167.0,-1.4555652025295753 L166.0,-1.5723001003289756 L165.0,-1.6825489314127626 L164.0,-1.7862028934951493 L163.0,-1.883159692629861 L162.0,-1.973323644161887 L161.0,-2.0566057671566913 L160.0,-2.1329238722136523 L159.0,-2.202202642577073 L158.0,-2.264373708464733 L157.0,-2.319375714540606 L156.0,-2.3671543804651654 L155.0,-2.407662554463533 L154.0,-2.4408602598585842 L153.0,-2.4667147345230998 L152.0,-2.4852004632120366 L151.0,-2.4962992027429873 L150.0,-2.5 L149.0,-2.4962992027429873 L148.0,-2.4852004632120366 L147.0,-2.4667147345230998 L146.0,-2.4408602598585833 L145.0,-2.407662554463532 L144.0,-2.3671543804651654 L143.0,-2.3193757145406053 L142.0,-2.264373708464734 L141.0,-2.202202642577072 L140.0,-2.1329238722136514 L139.0,-2.0566057671566913 L138.0,-1.9733236441618862 L137.0,-1.8831596926298593 L136.0,-1.7862028934951484 L135.0,-1.6825489314127582 L134.0,-1.5723001003289765 L133.0,-1.455565202529578 L132.0,-1.3324594412651152 L131.0,-1.2031043070592125 L130.0,-1.0676274578121054 L129.0,-0.9261625928176782 L128.0,-0.77884932081842 L127.0,-0.6258330222284458 L126.0,-0.467264705660587 L125.0,-0.3033008588991031 L124.0,-0.134103294465163 L123.0,0.04016101007261241 L122.0,0.21932007688482802 L121.0,0.40319709760267575 L120.0,0.5916106078064551 L119.0,0.7843746661090227 L118.0,0.9812990376575268 L117.0,1.1821893818722158 L116.0,1.3868474442371346 L115.0,1.5950712519533967 L114.0,1.8066553132619578 L113.0,2.021390820239147 L112.0,2.239065854864916 L111.0,2.459465598160314 L110.0,2.6823725421878954 L109.0,2.907566704705783 L108.0,3.134825846263591 L107.0,3.363925689525931 L106.0,3.5946401406070643 L105.0,3.8267415121982697 L104.0,4.060000748267718 L103.0,4.2941876501111444 L102.0,4.52907110353015 L101.0,4.76441930691404 L100.0,5.000000000000001 L99.0,5.235580693085962 L98.0,5.470928896469852 L97.0,5.705812349888857 L96.0,5.939999251732284 L95.0,6.173258487801732 L94.0,6.405359859392934 L93.0,6.63607431047407 L92.0,6.865174153736414 L91.0,7.092433295294222 L90.0,7.317627457812106 L89.0,7.540534401839684 L88.0,7.760934145135086 L87.0,7.978609179760857 L86.0,8.193344686738047 L85.0,8.4049287480466 L84.0,8.613152555762865 L83.0,8.817810618127783 L82.0,9.018700962342479 L81.0,9.21562533389098 L80.0,9.408389392193548 L79.0,9.596802902397322 L78.0,9.780679923115173 L77.0,9.959838989927388 L76.0,10.134103294465167 L75.0,10.303300858899107 L74.0,10.467264705660586 L73.0,10.625833022228447 L72.0,10.77884932081842 L71.0,10.926162592817677 L70.0,11.067627457812106 L69.0,11.203104307059213 L68.0,11.332459441265112 L67.0,11.455565202529577 L66.0,11.572300100328976 L65.0,11.682548931412759 L64.0,11.786202893495146 L63.0,11.883159692629858 L62.0,11.973323644161887 L61.0,12.056605767156691 L60.0,12.132923872213652 L59.0,12.202202642577074 L58.0,12.264373708464733 L57.0,12.319375714540605 L56.0,12.367154380465166 L55.0,12.407662554463533 L54.0,12.440860259858585 L53.0,12.4667147345231 L52.0,12.485200463212037 L51.0,12.496299202742987 L50.0,12.5 L49.0,12.496299202742987 L48.0,12.485200463212037 L47.0,12.4667147345231 L46.0,12.440860259858583 L45.0,12.407662554463533 L44.0,12.367154380465164 L43.0,12.319375714540605 L42.0,12.264373708464733 L41.0,12.202202642577072 L40.0,12.132923872213652 L39.0,12.056605767156691 L38.0,11.973323644161885 L37.0,11.883159692629858 L36.0,11.786202893495147 L35.0,11.682548931412757 L34.0,11.572300100328977 L33.0,11.455565202529577 L32.0,11.332459441265113 L31.0,11.203104307059213 L30.0,11.067627457812105 L29.0,10.926162592817679 L28.0,10.77884932081842 L27.0,10.625833022228445 L26.0,10.467264705660586 L25.0,10.303300858899107 L24.0,10.134103294465165 L23.0,9.959838989927388 L22.0,9.780679923115173 L21.0,9.596802902397323 L20.0,9.408389392193548 L19.0,9.21562533389098 L18.0,9.018700962342475 L17.0,8.817810618127785 L16.0,8.613152555762865 L15.0,8.4049287480466 L14.0,8.193344686738044 L13.0,7.978609179760855 L12.0,7.760934145135084 L11.0,7.540534401839685 L10.0,7.317627457812105 L9.0,7.092433295294219 L8.0,6.865174153736411 L7.0,6.6360743104740685 L6.0,6.405359859392934 L5.0,6.173258487801732 L4.0,5.9399992517322815 L3.0,5.705812349888857 L2.0,5.47092889646985 L1.0,5.2355806930859625 L0.0,5.0" fill="#FFFFFF"  />
<!-- Path -->
<path d="M0.0,0.0 L1.0,0.2355806930859622 L2.0,0.4709288964698503 L3.0,0.7058123498888573 L4.0,0.9399992517322819 L5.0,1.1732584878017316 L6.0,1.4053598593929344 L7.0,1.636074310474069 L8.0,1.865174153736411 L9.0,2.0924332952942195 L10.0,2.3176274578121054 L11.0,2.540534401839685 L12.0,2.760934145135084 L13.0,2.9786091797608547 L14.0,3.193344686738045 L15.0,3.4049287480466006 L16.0,3.613152555762865 L17.0,3.817810618127785 L18.0,4.018700962342475 L19.0,4.215625333890979 L20.0,4.408389392193548 L21.0,4.596802902397323 L22.0,4.780679923115172 L23.0,4.9598389899273885 L24.0,5.134103294465165 L25.0,5.303300858899106 L26.0,5.467264705660587 L27.0,5.625833022228446 L28.0,5.778849320818419 L29.0,5.926162592817678 L30.0,6.067627457812105 L31.0,6.203104307059213 L32.0,6.332459441265113 L33.0,6.455565202529577 L34.0,6.572300100328977 L35.0,6.682548931412758 L36.0,6.786202893495147 L37.0,6.883159692629858 L38.0,6.973323644161885 L39.0,7.056605767156691 L40.0,7.132923872213651 L41.0,7.202202642577072 L42.0,7.264373708464733 L43.0,7.319375714540605 L44.0,7.3671543804651645 L45.0,7.407662554463533 L46.0,7.440860259858583 L47.0,7.4667147345231 L48.0,7.485200463212037 L49.0,7.496299202742987 L50.0,7.5 L51.0,7.496299202742987 L52.0,7.485200463212037 L53.0,7.4667147345231 L54.0,7.440860259858584 L55.0,7.407662554463533 L56.0,7.367154380465165 L57.0,7.319375714540605 L58.0,7.264373708464733 L59.0,7.202202642577073 L60.0,7.132923872213652 L61.0,7.056605767156691 L62.0,6.973323644161886 L63.0,6.883159692629858 L64.0,6.786202893495146 L65.0,6.682548931412759 L66.0,6.572300100328976 L67.0,6.455565202529577 L68.0,6.3324594412651125 L69.0,6.203104307059213 L70.0,6.067627457812106 L71.0,5.926162592817677 L72.0,5.778849320818419 L73.0,5.625833022228447 L74.0,5.467264705660586 L75.0,5.303300858899107 L76.0,5.134103294465167 L77.0,4.9598389899273885 L78.0,4.780679923115174 L79.0,4.5968029023973225 L80.0,4.408389392193549 L81.0,4.215625333890981 L82.0,4.018700962342478 L83.0,3.8178106181277833 L84.0,3.613152555762864 L85.0,3.4049287480466015 L86.0,3.1933446867380466 L87.0,2.978609179760858 L88.0,2.760934145135086 L89.0,2.5405344018396847 L90.0,2.3176274578121063 L91.0,2.0924332952942217 L92.0,1.8651741537364144 L93.0,1.6360743104740707 L94.0,1.4053598593929344 L95.0,1.1732584878017323 L96.0,0.939999251732284 L97.0,0.7058123498888577 L98.0,0.47092889646985187 L99.0,0.23558069308596177 L100.0,9.18485099360515e-16 L101.0,-0.23558069308595994 L102.0,-0.4709288964698501 L103.0,-0.7058123498888558 L104.0,-0.9399992517322822 L105.0,-1.1732584878017305 L106.0,-1.4053598593929357 L107.0,-1.636074310474069 L108.0,-1.8651741537364093 L109.0,-2.092433295294217 L110.0,-2.3176274578121046 L111.0,-2.540534401839686 L112.0,-2.760934145135084 L113.0,-2.978609179760853 L114.0,-3.193344686738042 L115.0,-3.4049287480466033 L116.0,-3.6131525557628654 L117.0,-3.817810618127784 L118.0,-4.018700962342473 L119.0,-4.215625333890977 L120.0,-4.408389392193545 L121.0,-4.596802902397324 L122.0,-4.780679923115172 L123.0,-4.959838989927388 L124.0,-5.134103294465163 L125.0,-5.303300858899103 L126.0,-5.467264705660587 L127.0,-5.625833022228446 L128.0,-5.77884932081842 L129.0,-5.926162592817678 L130.0,-6.067627457812105 L131.0,-6.2031043070592125 L132.0,-6.332459441265115 L133.0,-6.455565202529578 L134.0,-6.5723001003289765 L135.0,-6.682548931412758 L136.0,-6.786202893495148 L137.0,-6.883159692629859 L138.0,-6.973323644161886 L139.0,-7.056605767156691 L140.0,-7.132923872213651 L141.0,-7.202202642577072 L142.0,-7.264373708464734 L143.0,-7.319375714540605 L144.0,-7.367154380465165 L145.0,-7.407662554463532 L146.0,-7.440860259858583 L147.0,-7.4667147345231 L148.0,-7.485200463212037 L149.0,-7.496299202742987 L150.0,-7.5 L151.0,-7.496299202742987 L152.0,-7.485200463212037 L153.0,-7.4667147345231 L154.0,-7.440860259858584 L155.0,-7.407662554463533 L156.0,-7.367154380465165 L157.0,-7.319375714540606 L158.0,-7.264373708464733 L159.0,-7.202202642577073 L160.0,-7.132923872213652 L161.0,-7.056605767156691 L162.0,-6.973323644161887 L163.0,-6.883159692629861 L164.0,-6.786202893495149 L165.0,-6.682548931412763 L166.0,-6.572300100328976 L167.0,-6.455565202529575 L168.0,-6.3324594412651125 L169.0,-6.203104307059213 L170.0,-6.067627457812106 L171.0,-5.92616259281768 L172.0,-5.778849320818422 L173.0,-5.62583302222845 L174.0,-5.4672647056605905 L175.0,-5.303300858899113 L176.0,-5.1341032944651674 L177.0,-4.959838989927387 L178.0,-4.780679923115172 L179.0,-4.596802902397323 L180.0,-4.40838939219355 L181.0,-4.215625333890982 L182.0,-4.0187009623424785 L183.0,-3.81781061812779 L184.0,-3.6131525557628708 L185.0,-3.4049287480466024 L186.0,-3.1933446867380475 L187.0,-2.9786091797608525 L188.0,-2.760934145135084 L189.0,-2.5405344018396856 L190.0,-2.317627457812107 L191.0,-2.0924332952942226 L192.0,-1.865174153736415 L193.0,-1.636074310474075 L194.0,-1.405359859392935 L195.0,-1.1732584878017334 L196.0,-0.9399992517322848 L197.0,-0.7058123498888618 L198.0,-0.4709288964698495 L199.0,-0.23558069308596272 L200.0,-1.83697019872103e-15 L201.0,0.23558069308595903 L202.0,0.4709288964698458 L203.0,0.7058123498888582 L204.0,0.9399992517322813 L205.0,1.1732584878017296 L206.0,1.4053598593929315 L207.0,1.6360743104740647 L208.0,1.8651741537364115 L209.0,2.0924332952942186 L210.0,2.3176274578121037 L211.0,2.5405344018396825 L212.0,2.7609341451350864 L213.0,2.978609179760855 L214.0,3.193344686738044 L215.0,3.4049287480465993 L216.0,3.6131525557628614 L217.0,3.8178106181277807 L218.0,4.01870096234247 L219.0,4.215625333890979 L220.0,4.408389392193547 L221.0,4.596802902397326 L222.0,4.780679923115175 L223.0,4.959838989927389 L224.0,5.134103294465165 L225.0,5.303300858899105 L226.0,5.467264705660584 L227.0,5.625833022228443 L228.0,5.7788493208184155 L229.0,5.926162592817673 L230.0,6.067627457812108 L231.0,6.203104307059215 L232.0,6.332459441265114 L233.0,6.455565202529577 L234.0,6.5723001003289765 L235.0,6.682548931412758 L236.0,6.786202893495145 L237.0,6.883159692629857 L238.0,6.9733236441618835 L239.0,7.056605767156689 L240.0,7.132923872213649 L241.0,7.202202642577074 L242.0,7.264373708464734 L243.0,7.319375714540605 L244.0,7.3671543804651645 L245.0,7.407662554463532 L246.0,7.440860259858583 L247.0,7.4667147345231 L248.0,7.485200463212037 L249.0,7.4962992027429864 L250.0,7.5 L251.0,7.4962992027429864 L252.0,7.485200463212037 L253.0,7.4667147345231 L254.0,7.440860259858584 L255.0,7.407662554463532 L256.0,7.3671543804651645 L257.0,7.319375714540605 L258.0,7.264373708464733 L259.0,7.202202642577073 L260.0,7.132923872213652 L261.0,7.056605767156692 L262.0,6.973323644161888 L263.0,6.883159692629856 L264.0,6.786202893495144 L265.0,6.682548931412756 L266.0,6.572300100328976 L267.0,6.455565202529576 L268.0,6.332459441265113 L269.0,6.203104307059214 L270.0,6.067627457812106 L271.0,5.92616259281768 L272.0,5.778849320818415 L273.0,5.625833022228442 L274.0,5.4672647056605825 L275.0,5.303300858899103 L276.0,5.134103294465163 L277.0,4.959838989927388 L278.0,4.780679923115173 L279.0,4.596802902397324 L280.0,4.40838939219355 L281.0,4.215625333890983 L282.0,4.018700962342479 L283.0,3.817810618127779 L284.0,3.61315255576286 L285.0,3.404928748046597 L286.0,3.1933446867380426 L287.0,2.9786091797608534 L288.0,2.7609341451350846 L289.0,2.5405344018396865 L290.0,2.3176274578121085 L291.0,2.0924332952942235 L292.0,1.8651741537364162 L293.0,1.6360743104740756 L294.0,1.4053598593929295 L295.0,1.1732584878017276 L296.0,0.9399992517322793 L297.0,0.7058123498888561 L298.0,0.4709288964698504 L299.0,0.2355806930859636 L300.0,2.7554552980815444e-15 L301.0,-0.23558069308595814 L302.0,-0.47092889646984487 L303.0,-0.7058123498888507 L304.0,-0.9399992517322738 L305.0,-1.1732584878017354 L306.0,-1.4053598593929373 L307.0,-1.6360743104740703 L308.0,-1.8651741537364108 L309.0,-2.0924332952942177 L310.0,-2.3176274578121028 L311.0,-2.5405344018396816 L312.0,-2.7609341451350793 L313.0,-2.9786091797608485 L314.0,-3.1933446867380373 L315.0,-3.404928748046604 L316.0,-3.6131525557628668 L317.0,-3.8178106181277855 L318.0,-4.018700962342474 L319.0,-4.215625333890978 L320.0,-4.408389392193546 L321.0,-4.596802902397321 L322.0,-4.780679923115168 L323.0,-4.959838989927384 L324.0,-5.134103294465159 L325.0,-5.3033008588990995 L326.0,-5.467264705660579 L327.0,-5.625833022228447 L328.0,-5.77884932081841 L329.0,-5.926162592817676 L330.0,-6.067627457812096 L331.0,-6.203104307059212 L332.0,-6.332459441265117 L333.0,-6.4555652025295736 L334.0,-6.572300100328979 L335.0,-6.682548931412755 L336.0,-6.7862028934951475 L337.0,-6.883159692629854 L338.0,-6.973323644161885 L339.0,-7.056605767156686 L340.0,-7.1329238722136505 L341.0,-7.202202642577068 L342.0,-7.264373708464732 L343.0,-7.319375714540606 L344.0,-7.367154380465164 L345.0,-7.407662554463533 L346.0,-7.4408602598585825 L347.0,-7.4667147345231 L348.0,-7.485200463212036 L349.0,-7.496299202742987 L350.0,-7.5 L351.0,-7.496299202742987 L352.0,-7.485200463212037 L353.0,-7.466714734523101 L354.0,-7.440860259858583 L355.0,-7.407662554463534 L356.0,-7.3671543804651645 L357.0,-7.319375714540608 L358.0,-7.264373708464734 L359.0,-7.2022026425770775 L360.0,-7.132923872213653 L361.0,-7.056605767156692 L362.0,-6.973323644161888 L363.0,-6.883159692629856 L364.0,-6.78620289349515 L365.0,-6.682548931412757 L366.0,-6.572300100328983 L367.0,-6.455565202529577 L368.0,-6.3324594412651205 L369.0,-6.203104307059214 L370.0,-6.067627457812107 L371.0,-5.926162592817681 L372.0,-5.7788493208184235 L373.0,-5.625833022228451 L374.0,-5.467264705660583 L375.0,-5.303300858899114 L376.0,-5.134103294465164 L377.0,-4.959838989927398 L378.0,-4.780679923115173 L379.0,-4.596802902397325 L380.0,-4.408389392193551 L381.0,-4.2156253338909835 L382.0,-4.01870096234248 L383.0,-3.8178106181277913 L384.0,-3.6131525557628725 L385.0,-3.404928748046598 L386.0,-3.1933446867380555 L387.0,-2.9786091797608543 L388.0,-2.7609341451350855 L389.0,-2.5405344018396874 L390.0,-2.317627457812109 L391.0,-2.092433295294224 L392.0,-1.865174153736417 L393.0,-1.6360743104740765 L394.0,-1.4053598593929435 L395.0,-1.1732584878017418 L396.0,-0.93999925173228 L397.0,-0.705812349888857 L398.0,-0.47092889646985137 L399.0,-0.23558069308596452 L400.0,-3.67394039744206e-15" stroke-width="1" stroke-linecap="round" stroke="#000000" fill="none"  />
<!-- Path -->
<path d="M400.0,4.9999999999999964 L399.0,4.764419306914036 L398.0,4.529071103530149 L397.0,4.294187650111143 L396.0,4.06000074826772 L395.0,3.826741512198258 L394.0,3.5946401406070567 L393.0,3.3639256895259235 L392.0,3.134825846263583 L391.0,2.907566704705776 L390.0,2.682372542187891 L389.0,2.4594655981603126 L388.0,2.2390658548649145 L387.0,2.0213908202391457 L386.0,1.8066553132619445 L385.0,1.595071251953402 L384.0,1.3868474442371275 L383.0,1.1821893818722087 L382.0,0.9812990376575197 L381.0,0.7843746661090165 L380.0,0.5916106078064489 L379.0,0.40319709760267486 L378.0,0.21932007688482713 L377.0,0.040161010072601755 L376.0,-0.1341032944651639 L375.0,-0.30330085889911373 L374.0,-0.4672647056605834 L373.0,-0.6258330222284512 L372.0,-0.7788493208184235 L371.0,-0.9261625928176809 L370.0,-1.0676274578121072 L369.0,-1.2031043070592142 L368.0,-1.3324594412651205 L367.0,-1.455565202529577 L366.0,-1.5723001003289827 L365.0,-1.6825489314127573 L364.0,-1.7862028934951502 L363.0,-1.8831596926298557 L362.0,-1.973323644161888 L361.0,-2.056605767156692 L360.0,-2.132923872213653 L359.0,-2.2022026425770775 L358.0,-2.264373708464734 L357.0,-2.319375714540608 L356.0,-2.3671543804651645 L355.0,-2.407662554463534 L354.0,-2.4408602598585833 L353.0,-2.4667147345231006 L352.0,-2.4852004632120366 L351.0,-2.4962992027429873 L350.0,-2.5 L349.0,-2.4962992027429873 L348.0,-2.4852004632120357 L347.0,-2.4667147345230998 L346.0,-2.4408602598585825 L345.0,-2.407662554463533 L344.0,-2.3671543804651636 L343.0,-2.319375714540606 L342.0,-2.264373708464732 L341.0,-2.2022026425770678 L340.0,-2.1329238722136505 L339.0,-2.056605767156686 L338.0,-1.9733236441618853 L337.0,-1.883159692629854 L336.0,-1.7862028934951475 L335.0,-1.6825489314127546 L334.0,-1.5723001003289792 L333.0,-1.4555652025295736 L332.0,-1.332459441265117 L331.0,-1.2031043070592116 L330.0,-1.0676274578120957 L329.0,-0.9261625928176764 L328.0,-0.7788493208184102 L327.0,-0.6258330222284467 L326.0,-0.467264705660579 L325.0,-0.3033008588990995 L324.0,-0.13410329446515856 L323.0,0.040161010072615966 L322.0,0.21932007688483157 L321.0,0.4031970976026793 L320.0,0.5916106078064542 L319.0,0.7843746661090218 L318.0,0.9812990376575259 L317.0,1.1821893818722145 L316.0,1.3868474442371332 L315.0,1.5950712519533958 L314.0,1.8066553132619627 L313.0,2.0213908202391515 L312.0,2.2390658548649207 L311.0,2.4594655981603184 L310.0,2.6823725421878972 L309.0,2.9075667047057823 L308.0,3.134825846263589 L307.0,3.3639256895259297 L306.0,3.594640140607063 L305.0,3.8267415121982644 L304.0,4.0600007482677265 L303.0,4.29418765011115 L302.0,4.529071103530155 L301.0,4.764419306914042 L300.0,5.000000000000003 L299.0,5.235580693085963 L298.0,5.47092889646985 L297.0,5.705812349888856 L296.0,5.93999925173228 L295.0,6.173258487801728 L294.0,6.405359859392929 L293.0,6.636074310474076 L292.0,6.865174153736416 L291.0,7.0924332952942235 L290.0,7.317627457812108 L289.0,7.540534401839686 L288.0,7.760934145135085 L287.0,7.978609179760854 L286.0,8.193344686738042 L285.0,8.404928748046597 L284.0,8.61315255576286 L283.0,8.81781061812778 L282.0,9.018700962342479 L281.0,9.215625333890983 L280.0,9.40838939219355 L279.0,9.596802902397325 L278.0,9.780679923115173 L277.0,9.959838989927388 L276.0,10.134103294465163 L275.0,10.303300858899103 L274.0,10.467264705660583 L273.0,10.625833022228441 L272.0,10.778849320818415 L271.0,10.926162592817679 L270.0,11.067627457812106 L269.0,11.203104307059213 L268.0,11.332459441265113 L267.0,11.455565202529577 L266.0,11.572300100328976 L265.0,11.682548931412757 L264.0,11.786202893495144 L263.0,11.883159692629857 L262.0,11.973323644161887 L261.0,12.056605767156693 L260.0,12.132923872213652 L259.0,12.202202642577074 L258.0,12.264373708464733 L257.0,12.319375714540605 L256.0,12.367154380465164 L255.0,12.407662554463531 L254.0,12.440860259858585 L253.0,12.4667147345231 L252.0,12.485200463212037 L251.0,12.496299202742986 L250.0,12.5 L249.0,12.496299202742986 L248.0,12.485200463212037 L247.0,12.4667147345231 L246.0,12.440860259858583 L245.0,12.407662554463531 L244.0,12.367154380465164 L243.0,12.319375714540605 L242.0,12.264373708464735 L241.0,12.202202642577074 L240.0,12.132923872213649 L239.0,12.05660576715669 L238.0,11.973323644161884 L237.0,11.883159692629857 L236.0,11.786202893495144 L235.0,11.682548931412757 L234.0,11.572300100328977 L233.0,11.455565202529577 L232.0,11.332459441265115 L231.0,11.203104307059215 L230.0,11.067627457812108 L229.0,10.926162592817672 L228.0,10.778849320818416 L227.0,10.625833022228443 L226.0,10.467264705660584 L225.0,10.303300858899105 L224.0,10.134103294465165 L223.0,9.95983898992739 L222.0,9.780679923115175 L221.0,9.596802902397325 L220.0,9.408389392193547 L219.0,9.21562533389098 L218.0,9.01870096234247 L217.0,8.81781061812778 L216.0,8.613152555762861 L215.0,8.404928748046599 L214.0,8.193344686738044 L213.0,7.978609179760856 L212.0,7.760934145135087 L211.0,7.5405344018396825 L210.0,7.317627457812104 L209.0,7.092433295294219 L208.0,6.865174153736412 L207.0,6.636074310474065 L206.0,6.405359859392932 L205.0,6.173258487801729 L204.0,5.9399992517322815 L203.0,5.705812349888858 L202.0,5.470928896469846 L201.0,5.235580693085959 L200.0,4.999999999999998 L199.0,4.7644193069140375 L198.0,4.529071103530151 L197.0,4.294187650111138 L196.0,4.060000748267715 L195.0,3.8267415121982666 L194.0,3.5946401406070647 L193.0,3.3639256895259253 L192.0,3.1348258462635847 L191.0,2.9075667047057774 L190.0,2.682372542187893 L189.0,2.4594655981603144 L188.0,2.239065854864916 L187.0,2.0213908202391475 L186.0,1.8066553132619525 L185.0,1.5950712519533976 L184.0,1.3868474442371292 L183.0,1.18218938187221 L182.0,0.9812990376575215 L181.0,0.7843746661090183 L180.0,0.5916106078064498 L179.0,0.40319709760267664 L178.0,0.21932007688482802 L177.0,0.0401610100726133 L176.0,-0.13410329446516744 L175.0,-0.30330085889911285 L174.0,-0.46726470566059053 L173.0,-0.6258330222284503 L172.0,-0.7788493208184217 L171.0,-0.92616259281768 L170.0,-1.0676274578121063 L169.0,-1.2031043070592133 L168.0,-1.3324594412651125 L167.0,-1.4555652025295753 L166.0,-1.5723001003289756 L165.0,-1.6825489314127626 L164.0,-1.7862028934951493 L163.0,-1.883159692629861 L162.0,-1.973323644161887 L161.0,-2.0566057671566913 L160.0,-2.1329238722136523 L159.0,-2.202202642577073 L158.0,-2.264373708464733 L157.0,-2.319375714540606 L156.0,-2.3671543804651654 L155.0,-2.407662554463533 L154.0,-2.4408602598585842 L153.0,-2.4667147345230998 L152.0,-2.4852004632120366 L151.0,-2.4962992027429873 L150.0,-2.5 L149.0,-2.4962992027429873 L148.0,-2.4852004632120366 L147.0,-2.4667147345230998 L146.0,-2.4408602598585833 L145.0,-2.407662554463532 L144.0,-2.3671543804651654 L143.0,-2.3193757145406053 L142.0,-2.264373708464734 L141.0,-2.202202642577072 L140.0,-2.1329238722136514 L139.0,-2.0566057671566913 L138.0,-1.9733236441618862 L137.0,-1.8831596926298593 L136.0,-1.7862028934951484 L135.0,-1.6825489314127582 L134.0,-1.5723001003289765 L133.0,-1.455565202529578 L132.0,-1.3324594412651152 L131.0,-1.2031043070592125 L130.0,-1.0676274578121054 L129.0,-0.9261625928176782 L128.0,-0.77884932081842 L127.0,-0.6258330222284458 L126.0,-0.467264705660587 L125.0,-0.3033008588991031 L124.0,-0.134103294465163 L123.0,0.04016101007261241 L122.0,0.21932007688482802 L121.0,0.40319709760267575 L120.0,0.5916106078064551 L119.0,0.7843746661090227 L118.0,0.9812990376575268 L117.0,1.1821893818722158 L116.0,1.3868474442371346 L115.0,1.5950712519533967 L114.0,1.8066553132619578 L113.0,2.021390820239147 L112.0,2.239065854864916 L111.0,2.459465598160314 L110.0,2.6823725421878954 L109.0,2.907566704705783 L108.0,3.134825846263591 L107.0,3.363925689525931 L106.0,3.5946401406070643 L105.0,3.8267415121982697 L104.0,4.060000748267718 L103.0,4.2941876501111444 L102.0,4.52907110353015 L101.0,4.76441930691404 L100.0,5.000000000000001 L99.0,5.235580693085962 L98.0,5.470928896469852 L97.0,5.705812349888857 L96.0,5.939999251732284 L95.0,6.173258487801732 L94.0,6.405359859392934 L93.0,6.63607431047407 L92.0,6.865174153736414 L91.0,7.092433295294222 L90.0,7.317627457812106 L89.0,7.540534401839684 L88.0,7.760934145135086 L87.0,7.978609179760857 L86.0,8.193344686738047 L85.0,8.4049287480466 L84.0,8.613152555762865 L83.0,8.817810618127783 L82.0,9.018700962342479 L81.0,9.21562533389098 L80.0,9.408389392193548 L79.0,9.596802902397322 L78.0,9.780679923115173 L77.0,9.959838989927388 L76.0,10.134103294465167 L75.0,10.303300858899107 L74.0,10.467264705660586 L73.0,10.625833022228447 L72.0,10.77884932081842 L71.0,10.926162592817677 L70.0,11.067627457812106 L69.0,11.203104307059213 L68.0,11.332459441265112 L67.0,11.455565202529577 L66.0,11.572300100328976 L65.0,11.682548931412759 L64.0,11.786202893495146 L63.0,11.883159692629858 L62.0,11.973323644161887 L61.0,12.056605767156691 L60.0,12.132923872213652 L59.0,12.202202642577074 L58.0,12.264373708464733 L57.0,12.319375714540605 L56.0,12.367154380465166 L55.0,12.407662554463533 L54.0,12.440860259858585 L53.0,12.4667147345231 L52.0,12.485200463212037 L51.0,12.496299202742987 L50.0,12.5 L49.0,12.496299202742987 L48.0,12.485200463212037 L47.0,12.4667147345231 L46.0,12.440860259858583 L45.0,12.407662554463533 L44.0,12.367154380465164 L43.0,12.319375714540605 L42.0,12.264373708464733 L41.0,12.202202642577072 L40.0,12.132923872213652 L39.0,12.056605767156691 L38.0,11.973323644161885 L37.0,11.883159692629858 L36.0,11.786202893495147 L35.0,11.682548931412757 L34.0,11.572300100328977 L33.0,11.455565202529577 L32.0,11.332459441265113 L31.0,11.203104307059213 L30.0,11.067627457812105 L29.0,10.926162592817679 L28.0,10.77884932081842 L27.0,10.625833022228445 L26.0,10.467264705660586 L25.0,10.303300858899107 L24.0,10.134103294465165 L23.0,9.959838989927388 L22.0,9.780679923115173 L21.0,9.596802902397323 L20.0,9.408389392193548 L19.0,9.21562533389098 L18.0,9.018700962342475 L17.0,8.817810618127785 L16.0,8.613152555762865 L15.0,8.4049287480466 L14.0,8.193344686738044 L13.0,7.978609179760855 L12.0,7.760934145135084 L11.0,7.540534401839685 L10.0,7.317627457812105 L9.0,7.092433295294219 L8.0,6.865174153736411 L7.0,6.6360743104740685 L6.0,6.405359859392934 L5.0,6.173258487801732 L4.0,5.9399992517322815 L3.0,5.705812349888857 L2.0,5.47092889646985 L1.0,5.2355806930859625 L0.0,5.0" stroke-width="1" stroke-linecap="round" stroke="#000000" fill="none"  />
<!-- Footer -->
</svg>
