<!-- Header -->
<svg
    version="1.1"
    baseProfile="full"
    xmlns="http://www.w3.org/2000/svg"
    xmlns:xlink="http://www.w3.org/1999/xlink"
    xmlns:ev="http://www.w3.org/2001/xml-events"
    width="400.0"
    height="20.0"
    viewBox="-1.0 -6.0 402.0 22.0"
    preserveAspectRatio="none"
>
<!-- Body -->
<!-- Path -->
<path d="M0.0,0.0 L1.0,0.3922954786392247 L2.0,0.7821723252011543 L3.0,1.167226819279527 L4.0,1.545084971874737 L5.0,1.913417161825449 L6.0,2.2699524986977337 L7.0,2.612492823579744 L8.0,2.938926261462366 L9.0,3.2472402416509185 L10.0,3.5355339059327373 L11.0,3.8020298280001548 L12.0,4.045084971874737 L13.0,4.263200821770461 L14.0,4.455032620941839 L15.0,4.619397662556433 L16.0,4.755282581475767 L17.0,4.861849601988383 L18.0,4.938441702975689 L19.0,4.9845866686656395 L20.0,5.0 L21.0,4.9845866686656395 L22.0,4.938441702975689 L23.0,4.861849601988383 L24.0,4.755282581475768 L25.0,4.619397662556434 L26.0,4.455032620941839 L27.0,4.263200821770462 L28.0,4.045084971874737 L29.0,3.8020298280001548 L30.0,3.5355339059327395 L31.0,3.247240241650919 L32.0,2.9389262614623664 L33.0,2.6124928235797427 L34.0,2.2699524986977324 L35.0,1.9134171618254494 L36.0,1.5450849718747375 L37.0,1.1672268192795254 L38.0,0.7821723252011549 L39.0,0.3922954786392253 L40.0,6.123233995736766e-16 L41.0,-0.3922954786392219 L42.0,-0.7821723252011537 L43.0,-1.1672268192795243 L44.0,-1.5450849718747364 L45.0,-1.9134171618254483 L46.0,-2.269952498697731 L47.0,-2.6124928235797458 L48.0,-2.938926261462365 L49.0,-3.2472402416509176 L50.0,-3.5355339059327373 L51.0,-3.8020298280001557 L52.0,-4.045084971874736 L53.0,-4.263200821770462 L54.0,-4.455032620941839 L55.0,-4.619397662556432 L56.0,-4.755282581475767 L57.0,-4.861849601988382 L58.0,-4.938441702975688 L59.0,-4.9845866686656395 L60.0,-5.0 L61.0,-4.9845866686656395 L62.0,-4.938441702975689 L63.0,-4.861849601988383 L64.0,-4.755282581475768 L65.0,-4.619397662556433 L66.0,-4.455032620941838 L67.0,-4.26320082177046 L68.0,-4.045084971874735 L69.0,-3.802029828000154 L70.0,-3.5355339059327386 L71.0,-3.247240241650917 L72.0,-2.938926261462367 L73.0,-2.612492823579747 L74.0,-2.269952498697731 L75.0,-1.913417161825452 L76.0,-1.5450849718747381 L77.0,-1.1672268192795259 L78.0,-0.7821723252011556 L79.0,-0.39229547863922376 L80.0,-1.2246467991473533e-15 L81.0,0.39229547863922126 L82.0,0.7821723252011487 L83.0,1.1672268192795323 L84.0,1.545084971874736 L85.0,1.9134171618254499 L86.0,2.269952498697729 L87.0,2.6124928235797413 L88.0,2.9389262614623646 L89.0,3.247240241650919 L90.0,3.535533905932737 L91.0,3.8020298280001525 L92.0,4.045084971874734 L93.0,4.263200821770459 L94.0,4.45503262094184 L95.0,4.619397662556432 L96.0,4.755282581475767 L97.0,4.861849601988383 L98.0,4.938441702975688 L99.0,4.9845866686656395 L100.0,5.0 L101.0,4.98458666866564 L102.0,4.938441702975688 L103.0,4.861849601988384 L104.0,4.755282581475768 L105.0,4.619397662556434 L106.0,4.455032620941838 L107.0,4.263200821770463 L108.0,4.045084971874738 L109.0,3.80202982800016 L110.0,3.5355339059327417 L111.0,3.2472402416509145 L112.0,2.938926261462367 L113.0,2.612492823579744 L114.0,2.2699524986977395 L115.0,1.913417161825444 L116.0,1.545084971874739 L117.0,1.1672268192795268 L118.0,0.7821723252011604 L119.0,0.39229547863922876 L120.0,1.0718754395722281e-14 L121.0,-0.3922954786392251 L122.0,-0.7821723252011569 L123.0,-1.167226819279523 L124.0,-1.5450849718747353 L125.0,-1.913417161825441 L126.0,-2.2699524986977364 L127.0,-2.612492823579741 L128.0,-2.938926261462364 L129.0,-3.2472402416509185 L130.0,-3.5355339059327395 L131.0,-3.802029828000152 L132.0,-4.045084971874741 L133.0,-4.263200821770462 L134.0,-4.45503262094184 L135.0,-4.619397662556432 L136.0,-4.75528258147577 L137.0,-4.861849601988383 L138.0,-4.938441702975689 L139.0,-4.98458666866564 L140.0,-5.0 L141.0,-4.98458666866564 L142.0,-4.938441702975688 L143.0,-4.861849601988382 L144.0,-4.755282581475769 L145.0,-4.619397662556434 L146.0,-4.455032620941842 L147.0,-4.263200821770459 L148.0,-4.045084971874734 L149.0,-3.8020298280001548 L150.0,-3.535533905932742 L151.0,-3.2472402416509216 L152.0,-2.9389262614623672 L153.0,-2.6124928235797444 L154.0,-2.269952498697732 L155.0,-1.913417161825453 L156.0,-1.5450849718747395 L157.0,-1.1672268192795359 L158.0,-0.7821723252011524 L159.0,-0.39229547863922937 L160.0,-2.4492935982947065e-15 L161.0,0.39229547863922454 L162.0,0.7821723252011475 L163.0,1.1672268192795139 L164.0,1.5450849718747262 L165.0,1.9134171618254403 L166.0,2.2699524986977435 L167.0,2.612492823579748 L168.0,2.9389262614623632 L169.0,3.2472402416509176 L170.0,3.535533905932739 L171.0,3.802029828000151 L172.0,4.045084971874731 L173.0,4.2632008217704565 L174.0,4.455032620941836 L175.0,4.619397662556429 L176.0,4.755282581475767 L177.0,4.861849601988383 L178.0,4.938441702975689 L179.0,4.98458666866564 L180.0,5.0 L181.0,4.98458666866564 L182.0,4.93844170297569 L183.0,4.861849601988385 L184.0,4.755282581475772 L185.0,4.619397662556434 L186.0,4.455032620941843 L187.0,4.263200821770459 L188.0,4.045084971874734 L189.0,3.802029828000155 L190.0,3.535533905932743 L191.0,3.247240241650922 L192.0,2.9389262614623677 L193.0,2.6124928235797524 L194.0,2.269952498697733 L195.0,1.9134171618254536 L196.0,1.54508497187474 L197.0,1.1672268192795365 L198.0,0.782172325201153 L199.0,0.39229547863923 L200.0,3.061616997868383e-15 L201.0,-0.39229547863922387 L202.0,-0.7821723252011469 L203.0,-1.1672268192795305 L204.0,-1.5450849718747426 L205.0,-1.9134171618254396 L206.0,-2.269952498697727 L207.0,-2.6124928235797396 L208.0,-2.938926261462363 L209.0,-3.2472402416509176 L210.0,-3.5355339059327386 L211.0,-3.802029828000145 L212.0,-4.045084971874741 L213.0,-4.263200821770465 L214.0,-4.455032620941836 L215.0,-4.619397662556431 L216.0,-4.755282581475767 L217.0,-4.861849601988383 L218.0,-4.938441702975686 L219.0,-4.98458666866564 L220.0,-5.0 L221.0,-4.9845866686656395 L222.0,-4.9384417029756875 L223.0,-4.861849601988385 L224.0,-4.755282581475769 L225.0,-4.619397662556434 L226.0,-4.455032620941839 L227.0,-4.263200821770469 L228.0,-4.045084971874744 L229.0,-3.8020298280001614 L230.0,-3.5355339059327306 L231.0,-3.2472402416509096 L232.0,-2.9389262614623686 L233.0,-2.6124928235797458 L234.0,-2.2699524986977333 L235.0,-1.913417161825446 L236.0,-1.5450849718747488 L237.0,-1.167226819279537 L238.0,-0.7821723252011624 L239.0,-0.39229547863923064 L240.0,-2.1437508791444562e-14 L241.0,0.39229547863922326 L242.0,0.782172325201155 L243.0,1.1672268192795299 L244.0,1.545084971874742 L245.0,1.9134171618254392 L246.0,2.2699524986977266 L247.0,2.612492823579739 L248.0,2.9389262614623624 L249.0,3.2472402416509034 L250.0,3.5355339059327258 L251.0,3.8020298280001565 L252.0,4.04508497187474 L253.0,4.263200821770464 L254.0,4.455032620941836 L255.0,4.619397662556438 L256.0,4.755282581475766 L257.0,4.861849601988383 L258.0,4.938441702975689 L259.0,4.9845866686656395 L260.0,5.0 L261.0,4.984586668665641 L262.0,4.93844170297569 L263.0,4.86184960198838 L264.0,4.755282581475764 L265.0,4.619397662556434 L266.0,4.455032620941839 L267.0,4.26320082177046 L268.0,4.045084971874735 L269.0,3.8020298280001503 L270.0,3.535533905932744 L271.0,3.2472402416509234 L272.0,2.9389262614623544 L273.0,2.6124928235797307 L274.0,2.2699524986977337 L275.0,1.9134171618254467 L276.0,1.5450849718747328 L277.0,1.1672268192795205 L278.0,0.7821723252011453 L279.0,0.3922954786392312 L280.0,4.2862637970157365e-15 L281.0,-0.39229547863922265 L282.0,-0.7821723252011369 L283.0,-1.1672268192795294 L284.0,-1.5450849718747415 L285.0,-1.913417161825455 L286.0,-2.269952498697742 L287.0,-2.612492823579754 L288.0,-2.9389262614623624 L289.0,-3.2472402416509167 L290.0,-3.5355339059327378 L291.0,-3.8020298280001446 L292.0,-4.045084971874729 L293.0,-4.263200821770456 L294.0,-4.455032620941843 L295.0,-4.619397662556438 L296.0,-4.755282581475772 L297.0,-4.861849601988382 L298.0,-4.938441702975689 L299.0,-4.9845866686656395 L300.0,-5.0 L301.0,-4.984586668665641 L302.0,-4.93844170297569 L303.0,-4.861849601988385 L304.0,-4.755282581475769 L305.0,-4.619397662556429 L306.0,-4.455032620941839 L307.0,-4.26320082177046 L308.0,-4.045084971874735 L309.0,-3.802029828000162 L310.0,-3.535533905932744 L311.0,-3.247240241650924 L312.0,-2.9389262614623695 L313.0,-2.6124928235797467 L314.0,-2.26995249869775 L315.0,-1.9134171618254472 L316.0,-1.5450849718747333 L317.0,-1.167226819279521 L318.0,-0.7821723252011635 L319.0,-0.3922954786392318 L320.0,-4.898587196589413e-15 L321.0,0.392295478639222 L322.0,0.7821723252011539 L323.0,1.1672268192795114 L324.0,1.545084971874724 L325.0,1.913417161825438 L326.0,2.2699524986977098 L327.0,2.612492823579738 L328.0,2.9389262614623473 L329.0,3.247240241650916 L330.0,3.5355339059327244 L331.0,3.8020298280001557 L332.0,4.04508497187475 L333.0,4.263200821770455 L334.0,4.455032620941843 L335.0,4.619397662556424 L336.0,4.755282581475766 L337.0,4.861849601988379 L338.0,4.938441702975688 L339.0,4.984586668665639 L340.0,5.0 L341.0,4.984586668665642 L342.0,4.93844170297569 L343.0,4.86184960198838 L344.0,4.755282581475775 L345.0,4.619397662556435 L346.0,4.455032620941848 L347.0,4.26320082177046 L348.0,4.045084971874745 L349.0,3.8020298280001508 L350.0,3.5355339059327573 L351.0,3.247240241650924 L352.0,2.9389262614623703 L353.0,2.612492823579762 L354.0,2.2699524986977346 L355.0,1.913417161825464 L356.0,1.545084971874734 L357.0,1.167226819279539 L358.0,0.7821723252011465 L359.0,0.39229547863925013 L360.0,5.5109105961630896e-15 L361.0,-0.39229547863922143 L362.0,-0.7821723252011358 L363.0,-1.167226819279528 L364.0,-1.5450849718747235 L365.0,-1.9134171618254538 L366.0,-2.2699524986977253 L367.0,-2.612492823579753 L368.0,-2.938926261462347 L369.0,-3.2472402416509154 L370.0,-3.535533905932737 L371.0,-3.8020298280001437 L372.0,-4.045084971874728 L373.0,-4.263200821770455 L374.0,-4.455032620941843 L375.0,-4.619397662556431 L376.0,-4.755282581475772 L377.0,-4.861849601988378 L378.0,-4.938441702975688 L379.0,-4.9845866686656395 L380.0,-5.0 L381.0,-4.984586668665641 L382.0,-4.93844170297569 L383.0,-4.861849601988385 L384.0,-4.75528258147577 L385.0,-4.619397662556429 L386.0,-4.455032620941848 L387.0,-4.263200821770461 L388.0,-4.0450849718747355 L389.0,-3.8020298280001628 L390.0,-3.535533905932745 L391.0,-3.2472402416509243 L392.0,-2.938926261462371 L393.0,-2.612492823579747 L394.0,-2.269952498697751 L395.0,-1.9134171618254647 L396.0,-1.5450849718747346 L397.0,-1.1672268192795223 L398.0,-0.7821723252011648 L399.0,-0.39229547863923303 L400.0,-6.123233995736766e-15 L400.0,9.999999999999995 L399.0,9.607704521360766 L398.0,9.217827674798835 L397.0,8.832773180720478 L396.0,8.454915028125265 L395.0,8.086582838174536 L394.0,7.7300475013022485 L393.0,7.387507176420253 L392.0,7.06107373853763 L391.0,6.752759758349075 L390.0,6.464466094067255 L389.0,6.197970171999837 L388.0,5.9549150281252645 L387.0,5.736799178229539 L386.0,5.544967379058152 L385.0,5.380602337443571 L384.0,5.24471741852423 L383.0,5.138150398011615 L382.0,5.06155829702431 L381.0,5.015413331334359 L380.0,5.0 L379.0,5.0154133313343605 L378.0,5.061558297024312 L377.0,5.138150398011622 L376.0,5.244717418524228 L375.0,5.380602337443569 L374.0,5.544967379058157 L373.0,5.736799178229545 L372.0,5.954915028125272 L371.0,6.197970171999856 L370.0,6.464466094067263 L369.0,6.752759758349084 L368.0,7.061073738537653 L367.0,7.387507176420247 L366.0,7.730047501302275 L365.0,8.086582838174547 L364.0,8.454915028125276 L363.0,8.832773180720473 L362.0,9.217827674798864 L361.0,9.607704521360779 L360.0,10.000000000000005 L359.0,10.39229547863925 L358.0,10.782172325201147 L357.0,11.16722681927954 L356.0,11.545084971874735 L355.0,11.913417161825464 L354.0,12.269952498697734 L353.0,12.612492823579762 L352.0,12.93892626146237 L351.0,13.247240241650925 L350.0,13.535533905932757 L349.0,13.802029828000151 L348.0,14.045084971874745 L347.0,14.263200821770461 L346.0,14.455032620941848 L345.0,14.619397662556434 L344.0,14.755282581475775 L343.0,14.86184960198838 L342.0,14.938441702975691 L341.0,14.984586668665642 L340.0,15.0 L339.0,14.984586668665639 L338.0,14.938441702975688 L337.0,14.861849601988379 L336.0,14.755282581475766 L335.0,14.619397662556423 L334.0,14.455032620941843 L333.0,14.263200821770454 L332.0,14.04508497187475 L331.0,13.802029828000155 L330.0,13.535533905932724 L329.0,13.247240241650916 L328.0,12.938926261462347 L327.0,12.612492823579739 L326.0,12.269952498697709 L325.0,11.913417161825437 L324.0,11.545084971874724 L323.0,11.167226819279511 L322.0,10.782172325201154 L321.0,10.392295478639221 L320.0,9.999999999999995 L319.0,9.607704521360768 L318.0,9.217827674798837 L317.0,8.83277318072048 L316.0,8.454915028125267 L315.0,8.086582838174554 L314.0,7.73004750130225 L313.0,7.387507176420254 L312.0,7.0610737385376305 L311.0,6.752759758349076 L310.0,6.464466094067256 L309.0,6.197970171999838 L308.0,5.954915028125265 L307.0,5.73679917822954 L306.0,5.544967379058161 L305.0,5.380602337443571 L304.0,5.244717418524231 L303.0,5.138150398011615 L302.0,5.06155829702431 L301.0,5.015413331334359 L300.0,5.0 L299.0,5.0154133313343605 L298.0,5.061558297024311 L297.0,5.138150398011618 L296.0,5.244717418524228 L295.0,5.380602337443562 L294.0,5.544967379058157 L293.0,5.736799178229544 L292.0,5.954915028125271 L291.0,6.197970171999856 L290.0,6.464466094067262 L289.0,6.752759758349083 L288.0,7.061073738537638 L287.0,7.387507176420246 L286.0,7.730047501302257 L285.0,8.086582838174545 L284.0,8.454915028125258 L283.0,8.832773180720471 L282.0,9.217827674798864 L281.0,9.607704521360777 L280.0,10.000000000000004 L279.0,10.39229547863923 L278.0,10.782172325201145 L277.0,11.16722681927952 L276.0,11.545084971874733 L275.0,11.913417161825446 L274.0,12.269952498697734 L273.0,12.61249282357973 L272.0,12.938926261462354 L271.0,13.247240241650923 L270.0,13.535533905932745 L269.0,13.802029828000151 L268.0,14.045084971874735 L267.0,14.263200821770461 L266.0,14.45503262094184 L265.0,14.619397662556434 L264.0,14.755282581475765 L263.0,14.86184960198838 L262.0,14.938441702975691 L261.0,14.984586668665642 L260.0,15.0 L259.0,14.984586668665639 L258.0,14.93844170297569 L257.0,14.861849601988382 L256.0,14.755282581475766 L255.0,14.619397662556437 L254.0,14.455032620941836 L253.0,14.263200821770464 L252.0,14.04508497187474 L251.0,13.802029828000157 L250.0,13.535533905932725 L249.0,13.247240241650903 L248.0,12.938926261462363 L247.0,12.612492823579739 L246.0,12.269952498697727 L245.0,11.91341716182544 L244.0,11.545084971874742 L243.0,11.16722681927953 L242.0,10.782172325201156 L241.0,10.392295478639223 L240.0,9.999999999999979 L239.0,9.60770452136077 L238.0,9.217827674798837 L237.0,8.832773180720462 L236.0,8.454915028125251 L235.0,8.086582838174554 L234.0,7.730047501302266 L233.0,7.387507176420254 L232.0,7.061073738537631 L231.0,6.75275975834909 L230.0,6.464466094067269 L229.0,6.197970171999838 L228.0,5.954915028125256 L227.0,5.736799178229531 L226.0,5.544967379058161 L225.0,5.380602337443566 L224.0,5.244717418524231 L223.0,5.138150398011615 L222.0,5.0615582970243125 L221.0,5.0154133313343605 L220.0,5.0 L219.0,5.01541333133436 L218.0,5.061558297024314 L217.0,5.138150398011617 L216.0,5.244717418524233 L215.0,5.380602337443569 L214.0,5.544967379058164 L213.0,5.736799178229535 L212.0,5.954915028125259 L211.0,6.197970171999855 L210.0,6.464466094067261 L209.0,6.752759758349082 L208.0,7.061073738537637 L207.0,7.387507176420261 L206.0,7.730047501302273 L205.0,8.08658283817456 L204.0,8.454915028125257 L203.0,8.83277318072047 L202.0,9.217827674798853 L201.0,9.607704521360777 L200.0,10.000000000000004 L199.0,10.39229547863923 L198.0,10.782172325201152 L197.0,11.167226819279536 L196.0,11.54508497187474 L195.0,11.913417161825453 L194.0,12.269952498697734 L193.0,12.612492823579753 L192.0,12.938926261462367 L191.0,13.247240241650921 L190.0,13.535533905932743 L189.0,13.802029828000155 L188.0,14.045084971874733 L187.0,14.26320082177046 L186.0,14.455032620941843 L185.0,14.619397662556434 L184.0,14.755282581475772 L183.0,14.861849601988386 L182.0,14.938441702975691 L181.0,14.98458666866564 L180.0,15.0 L179.0,14.98458666866564 L178.0,14.93844170297569 L177.0,14.861849601988382 L176.0,14.755282581475768 L175.0,14.619397662556429 L174.0,14.455032620941836 L173.0,14.263200821770457 L172.0,14.045084971874731 L171.0,13.802029828000151 L170.0,13.53553390593274 L169.0,13.247240241650918 L168.0,12.938926261462363 L167.0,12.612492823579748 L166.0,12.269952498697744 L165.0,11.913417161825441 L164.0,11.545084971874726 L163.0,11.167226819279513 L162.0,10.782172325201147 L161.0,10.392295478639225 L160.0,9.999999999999998 L159.0,9.607704521360771 L158.0,9.217827674798848 L157.0,8.832773180720464 L156.0,8.45491502812526 L155.0,8.086582838174547 L154.0,7.730047501302268 L153.0,7.387507176420256 L152.0,7.061073738537633 L151.0,6.752759758349079 L150.0,6.464466094067258 L149.0,6.197970171999845 L148.0,5.954915028125266 L147.0,5.736799178229541 L146.0,5.544967379058158 L145.0,5.380602337443566 L144.0,5.244717418524231 L143.0,5.138150398011618 L142.0,5.061558297024312 L141.0,5.01541333133436 L140.0,5.0 L139.0,5.01541333133436 L138.0,5.061558297024311 L137.0,5.138150398011617 L136.0,5.24471741852423 L135.0,5.380602337443568 L134.0,5.54496737905816 L133.0,5.736799178229538 L132.0,5.954915028125259 L131.0,6.197970171999848 L130.0,6.4644660940672605 L129.0,6.7527597583490815 L128.0,7.061073738537636 L127.0,7.387507176420259 L126.0,7.730047501302264 L125.0,8.086582838174559 L124.0,8.454915028125265 L123.0,8.832773180720476 L122.0,9.217827674798842 L121.0,9.607704521360775 L120.0,10.00000000000001 L119.0,10.392295478639229 L118.0,10.782172325201161 L117.0,11.167226819279527 L116.0,11.54508497187474 L115.0,11.913417161825445 L114.0,12.269952498697739 L113.0,12.612492823579744 L112.0,12.938926261462367 L111.0,13.247240241650914 L110.0,13.535533905932741 L109.0,13.80202982800016 L108.0,14.045084971874738 L107.0,14.263200821770463 L106.0,14.455032620941838 L105.0,14.619397662556434 L104.0,14.755282581475768 L103.0,14.861849601988384 L102.0,14.938441702975688 L101.0,14.98458666866564 L100.0,15.0 L99.0,14.984586668665639 L98.0,14.938441702975688 L97.0,14.861849601988382 L96.0,14.755282581475768 L95.0,14.619397662556432 L94.0,14.45503262094184 L93.0,14.26320082177046 L92.0,14.045084971874733 L91.0,13.802029828000153 L90.0,13.535533905932738 L89.0,13.24724024165092 L88.0,12.938926261462365 L87.0,12.61249282357974 L86.0,12.269952498697728 L85.0,11.91341716182545 L84.0,11.545084971874736 L83.0,11.167226819279533 L82.0,10.782172325201149 L81.0,10.392295478639221 L80.0,9.999999999999998 L79.0,9.607704521360777 L78.0,9.217827674798844 L77.0,8.832773180720475 L76.0,8.454915028125262 L75.0,8.086582838174548 L74.0,7.730047501302269 L73.0,7.387507176420253 L72.0,7.061073738537633 L71.0,6.752759758349082 L70.0,6.464466094067261 L69.0,6.197970171999846 L68.0,5.954915028125265 L67.0,5.73679917822954 L66.0,5.544967379058162 L65.0,5.380602337443567 L64.0,5.244717418524232 L63.0,5.138150398011617 L62.0,5.061558297024311 L61.0,5.0154133313343605 L60.0,5.0 L59.0,5.0154133313343605 L58.0,5.061558297024312 L57.0,5.138150398011618 L56.0,5.244717418524233 L55.0,5.380602337443568 L54.0,5.544967379058161 L53.0,5.736799178229538 L52.0,5.954915028125264 L51.0,6.197970171999844 L50.0,6.464466094067262 L49.0,6.752759758349082 L48.0,7.061073738537635 L47.0,7.387507176420254 L46.0,7.730047501302269 L45.0,8.086582838174552 L44.0,8.454915028125264 L43.0,8.832773180720476 L42.0,9.217827674798846 L41.0,9.607704521360779 L40.0,10.0 L39.0,10.392295478639225 L38.0,10.782172325201154 L37.0,11.167226819279525 L36.0,11.545084971874738 L35.0,11.91341716182545 L34.0,12.269952498697732 L33.0,12.612492823579743 L32.0,12.938926261462367 L31.0,13.24724024165092 L30.0,13.53553390593274 L29.0,13.802029828000155 L28.0,14.045084971874736 L27.0,14.263200821770461 L26.0,14.45503262094184 L25.0,14.619397662556434 L24.0,14.755282581475768 L23.0,14.861849601988382 L22.0,14.93844170297569 L21.0,14.984586668665639 L20.0,15.0 L19.0,14.984586668665639 L18.0,14.93844170297569 L17.0,14.861849601988382 L16.0,14.755282581475768 L15.0,14.619397662556434 L14.0,14.45503262094184 L13.0,14.263200821770461 L12.0,14.045084971874736 L11.0,13.802029828000155 L10.0,13.535533905932738 L9.0,13.247240241650918 L8.0,12.938926261462367 L7.0,12.612492823579744 L6.0,12.269952498697734 L5.0,11.91341716182545 L4.0,11.545084971874736 L3.0,11.167226819279527 L2.0,10.782172325201154 L1.0,10.392295478639225 L0.0,10.0" fill="#FFFFFF"  />
<!-- Path -->
<path d="M0.0,0.0 L1.0,0.3922954786392247 L2.0,0.7821723252011543 L3.0,1.167226819279527 L4.0,1.545084971874737 L5.0,1.913417161825449 L6.0,2.2699524986977337 L7.0,2.612492823579744 L8.0,2.938926261462366 L9.0,3.2472402416509185 L10.0,3.5355339059327373 L11.0,3.8020298280001548 L12.0,4.045084971874737 L13.0,4.263200821770461 L14.0,4.455032620941839 L15.0,4.619397662556433 L16.0,4.755282581475767 L17.0,4.861849601988383 L18.0,4.938441702975689 L19.0,4.9845866686656395 L20.0,5.0 L21.0,4.9845866686656395 L22.0,4.938441702975689 L23.0,4.861849601988383 L24.0,4.755282581475768 L25.0,4.619397662556434 L26.0,4.455032620941839 L27.0,4.263200821770462 L28.0,4.045084971874737 L29.0,3.8020298280001548 L30.0,3.5355339059327395 L31.0,3.247240241650919 L32.0,2.9389262614623664 L33.0,2.6124928235797427 L34.0,2.2699524986977324 L35.0,1.9134171618254494 L36.0,1.5450849718747375 L37.0,1.1672268192795254 L38.0,0.7821723252011549 L39.0,0.3922954786392253 L40.0,6.123233995736766e-16 L41.0,-0.3922954786392219 L42.0,-0.7821723252011537 L43.0,-1.1672268192795243 L44.0,-1.5450849718747364 L45.0,-1.9134171618254483 L46.0,-2.269952498697731 L47.0,-2.6124928235797458 L48.0,-2.938926261462365 L49.0,-3.2472402416509176 L50.0,-3.5355339059327373 L51.0,-3.8020298280001557 L52.0,-4.045084971874736 L53.0,-4.263200821770462 L54.0,-4.455032620941839 L55.0,-4.619397662556432 L56.0,-4.755282581475767 L57.0,-4.861849601988382 L58.0,-4.938441702975688 L59.0,-4.9845866686656395 L60.0,-5.0 L61.0,-4.9845866686656395 L62.0,-4.938441702975689 L63.0,-4.861849601988383 L64.0,-4.755282581475768 L65.0,-4.619397662556433 L66.0,-4.455032620941838 L67.0,-4.26320082177046 L68.0,-4.045084971874735 L69.0,-3.802029828000154 L70.0,-3.5355339059327386 L71.0,-3.247240241650917 L72.0,-2.938926261462367 L73.0,-2.612492823579747 L74.0,-2.269952498697731 L75.0,-1.913417161825452 L76.0,-1.5450849718747381 L77.0,-1.1672268192795259 L78.0,-0.7821723252011556 L79.0,-0.39229547863922376 L80.0,-1.2246467991473533e-15 L81.0,0.39229547863922126 L82.0,0.7821723252011487 L83.0,1.1672268192795323 L84.0,1.545084971874736 L85.0,1.9134171618254499 L86.0,2.269952498697729 L87.0,2.6124928235797413 L88.0,2.9389262614623646 L89.0,3.247240241650919 L90.0,3.535533905932737 L91.0,3.8020298280001525 L92.0,4.045084971874734 L93.0,4.263200821770459 L94.0,4.45503262094184 L95.0,4.619397662556432 L96.0,4.755282581475767 L97.0,4.861849601988383 L98.0,4.938441702975688 L99.0,4.9845866686656395 L100.0,5.0 L101.0,4.98458666866564 L102.0,4.938441702975688 L103.0,4.861849601988384 L104.0,4.755282581475768 L105.0,4.619397662556434 L106.0,4.455032620941838 L107.0,4.263200821770463 L108.0,4.045084971874738 L109.0,3.80202982800016 L110.0,3.5355339059327417 L111.0,3.2472402416509145 L112.0,2.938926261462367 L113.0,2.612492823579744 L114.0,2.2699524986977395 L115.0,1.913417161825444 L116.0,1.545084971874739 L117.0,1.1672268192795268 L118.0,0.7821723252011604 L119.0,0.39229547863922876 L120.0,1.0718754395722281e-14 L121.0,-0.3922954786392251 L122.0,-0.7821723252011569 L123.0,-1.167226819279523 L124.0,-1.5450849718747353 L125.0,-1.913417161825441 L126.0,-2.2699524986977364 L127.0,-2.612492823579741 L128.0,-2.938926261462364 L129.0,-3.2472402416509185 L130.0,-3.5355339059327395 L131.0,-3.802029828000152 L132.0,-4.045084971874741 L133.0,-4.263200821770462 L134.0,-4.45503262094184 L135.0,-4.619397662556432 L136.0,-4.75528258147577 L137.0,-4.861849601988383 L138.0,-4.938441702975689 L139.0,-4.98458666866564 L140.0,-5.0 L141.0,-4.98458666866564 L142.0,-4.938441702975688 L143.0,-4.861849601988382 L144.0,-4.755282581475769 L145.0,-4.619397662556434 L146.0,-4.455032620941842 L147.0,-4.263200821770459 L148.0,-4.045084971874734 L149.0,-3.8020298280001548 L150.0,-3.535533905932742 L151.0,-3.2472402416509216 L152.0,-2.9389262614623672 L153.0,-2.6124928235797444 L154.0,-2.269952498697732 L155.0,-1.913417161825453 L156.0,-1.5450849718747395 L157.0,-1.1672268192795359 L158.0,-0.7821723252011524 L159.0,-0.39229547863922937 L160.0,-2.4492935982947065e-15 L161.0,0.39229547863922454 L162.0,0.7821723252011475 L163.0,1.1672268192795139 L164.0,1.5450849718747262 L165.0,1.9134171618254403 L166.0,2.2699524986977435 L167.0,2.612492823579748 L168.0,2.9389262614623632 L169.0,3.2472402416509176 L170.0,3.535533905932739 L171.0,3.802029828000151 L172.0,4.045084971874731 L173.0,4.2632008217704565 L174.0,4.455032620941836 L175.0,4.619397662556429 L176.0,4.755282581475767 L177.0,4.861849601988383 L178.0,4.938441702975689 L179.0,4.98458666866564 L180.0,5.0 L181.0,4.98458666866564 L182.0,4.93844170297569 L183.0,4.861849601988385 L184.0,4.755282581475772 L185.0,4.619397662556434 L186.0,4.455032620941843 L187.0,4.263200821770459 L188.0,4.045084971874734 L189.0,3.802029828000155 L190.0,3.535533905932743 L191.0,3.247240241650922 L192.0,2.9389262614623677 L193.0,2.6124928235797524 L194.0,2.269952498697733 L195.0,1.9134171618254536 L196.0,1.54508497187474 L197.0,1.1672268192795365 L198.0,0.782172325201153 L199.0,0.39229547863923 L200.0,3.061616997868383e-15 L201.0,-0.39229547863922387 L202.0,-0.7821723252011469 L203.0,-1.1672268192795305 L204.0,-1.5450849718747426 L205.0,-1.9134171618254396 L206.0,-2.269952498697727 L207.0,-2.6124928235797396 L208.0,-2.938926261462363 L209.0,-3.2472402416509176 L210.0,-3.5355339059327386 L211.0,-3.802029828000145 L212.0,-4.045084971874741 L213.0,-4.263200821770465 L214.0,-4.455032620941836 L215.0,-4.619397662556431 L216.0,-4.755282581475767 L217.0,-4.861849601988383 L218.0,-4.938441702975686 L219.0,-4.98458666866564 L220.0,-5.0 L221.0,-4.9845866686656395 L222.0,-4.9384417029756875 L223.0,-4.861849601988385 L224.0,-4.755282581475769 L225.0,-4.619397662556434 L226.0,-4.455032620941839 L227.0,-4.263200821770469 L228.0,-4.045084971874744 L229.0,-3.8020298280001614 L230.0,-3.5355339059327306 L231.0,-3.2472402416509096 L232.0,-2.9389262614623686 L233.0,-2.6124928235797458 L234.0,-2.2699524986977333 L235.0,-1.913417161825446 L236.0,-1.5450849718747488 L237.0,-1.167226819279537 L238.0,-0.7821723252011624 L239.0,-0.39229547863923064 L240.0,-2.1437508791444562e-14 L241.0,0.39229547863922326 L242.0,0.782172325201155 L243.0,1.1672268192795299 L244.0,1.545084971874742 L245.0,1.9134171618254392 L246.0,2.2699524986977266 L247.0,2.612492823579739 L248.0,2.9389262614623624 L249.0,3.2472402416509034 L250.0,3.5355339059327258 L251.0,3.8020298280001565 L252.0,4.04508497187474 L253.0,4.263200821770464 L254.0,4.455032620941836 L255.0,4.619397662556438 L256.0,4.755282581475766 L257.0,4.861849601988383 L258.0,4.938441702975689 L259.0,4.9845866686656395 L260.0,5.0 L261.0,4.984586668665641 L262.0,4.93844170297569 L263.0,4.86184960198838 L264.0,4.755282581475764 L265.0,4.619397662556434 L266.0,4.455032620941839 L267.0,4.26320082177046 L268.0,4.045084971874735 L269.0,3.8020298280001503 L270.0,3.535533905932744 L271.0,3.2472402416509234 L272.0,2.9389262614623544 L273.0,2.6124928235797307 L274.0,2.2699524986977337 L275.0,1.9134171618254467 L276.0,1.5450849718747328 L277.0,1.1672268192795205 L278.0,0.7821723252011453 L279.0,0.3922954786392312 L280.0,4.2862637970157365e-15 L281.0,-0.39229547863922265 L282.0,-0.7821723252011369 L283.0,-1.1672268192795294 L284.0,-1.5450849718747415 L285.0,-1.913417161825455 L286.0,-2.269952498697742 L287.0,-2.612492823579754 L288.0,-2.9389262614623624 L289.0,-3.2472402416509167 L290.0,-3.5355339059327378 L291.0,-3.8020298280001446 L292.0,-4.045084971874729 L293.0,-4.263200821770456 L294.0,-4.455032620941843 L295.0,-4.619397662556438 L296.0,-4.755282581475772 L297.0,-4.861849601988382 L298.0,-4.938441702975689 L299.0,-4.9845866686656395 L300.0,-5.0 L301.0,-4.984586668665641 L302.0,-4.93844170297569 L303.0,-4.861849601988385 L304.0,-4.755282581475769 L305.0,-4.619397662556429 L306.0,-4.455032620941839 L307.0,-4.26320082177046 L308.0,-4.045084971874735 L309.0,-3.802029828000162 L310.0,-3.535533905932744 L311.0,-3.247240241650924 L312.0,-2.9389262614623695 L313.0,-2.6124928235797467 L314.0,-2.26995249869775 L315.0,-1.9134171618254472 L316.0,-1.5450849718747333 L317.0,-1.167226819279521 L318.0,-0.7821723252011635 L319.0,-0.3922954786392318 L320.0,-4.898587196589413e-15 L321.0,0.392295478639222 L322.0,0.7821723252011539 L323.0,1.1672268192795114 L324.0,1.545084971874724 L325.0,1.913417161825438 L326.0,2.2699524986977098 L327.0,2.612492823579738 L328.0,2.9389262614623473 L329.0,3.247240241650916 L330.0,3.5355339059327244 L331.0,3.8020298280001557 L332.0,4.04508497187475 L333.0,4.263200821770455 L334.0,4.455032620941843 L335.0,4.619397662556424 L336.0,4.755282581475766 L337.0,4.861849601988379 L338.0,4.938441702975688 L339.0,4.984586668665639 L340.0,5.0 L341.0,4.984586668665642 L342.0,4.93844170297569 L343.0,4.86184960198838 L344.0,4.755282581475775 L345.0,4.619397662556435 L346.0,4.455032620941848 L347.0,4.26320082177046 L348.0,4.045084971874745 L349.0,3.8020298280001508 L350.0,3.5355339059327573 L351.0,3.247240241650924 L352.0,2.9389262614623703 L353.0,2.612492823579762 L354.0,2.2699524986977346 L355.0,1.913417161825464 L356.0,1.545084971874734 L357.0,1.167226819279539 L358.0,0.7821723252011465 L359.0,0.39229547863925013 L360.0,5.5109105961630896e-15 L361.0,-0.39229547863922143 L362.0,-0.7821723252011358 L363.0,-1.167226819279528 L364.0,-1.5450849718747235 L365.0,-1.9134171618254538 L366.0,-2.2699524986977253 L367.0,-2.612492823579753 L368.0,-2.938926261462347 L369.0,-3.2472402416509154 L370.0,-3.535533905932737 L371.0,-3.8020298280001437 L372.0,-4.045084971874728 L373.0,-4.263200821770455 L374.0,-4.455032620941843 L375.0,-4.619397662556431 L376.0,-4.755282581475772 L377.0,-4.861849601988378 L378.0,-4.938441702975688 L379.0,-4.9845866686656395 L380.0,-5.0 L381.0,-4.984586668665641 L382.0,-4.93844170297569 L383.0,-4.861849601988385 L384.0,-4.75528258147577 L385.0,-4.619397662556429 L386.0,-4.455032620941848 L387.0,-4.263200821770461 L388.0,-4.0450849718747355 L389.0,-3.8020298280001628 L390.0,-3.535533905932745 L391.0,-3.2472402416509243 L392.0,-2.938926261462371 L393.0,-2.612492823579747 L394.0,-2.269952498697751 L395.0,-1.9134171618254647 L396.0,-1.5450849718747346 L397.0,-1.1672268192795223 L398.0,-0.7821723252011648 L399.0,-0.39229547863923303 L400.0,-6.123233995736766e-15" stroke-width="2" stroke-linecap="round" stroke="#000000" fill="none"  />
<!-- Path -->
<path d="M400.0,9.999999999999995 L399.0,9.607704521360766 L398.0,9.217827674798835 L397.0,8.832773180720478 L396.0,8.454915028125265 L395.0,8.086582838174536 L394.0,7.7300475013022485 L393.0,7.387507176420253 L392.0,7.06107373853763 L391.0,6.752759758349075 L390.0,6.464466094067255 L389.0,6.197970171999837 L388.0,5.9549150281252645 L387.0,5.736799178229539 L386.0,5.544967379058152 L385.0,5.380602337443571 L384.0,5.24471741852423 L383.0,5.138150398011615 L382.0,5.06155829702431 L381.0,5.015413331334359 L380.0,5.0 L379.0,5.0154133313343605 L378.0,5.061558297024312 L377.0,5.138150398011622 L376.0,5.244717418524228 L375.0,5.380602337443569 L374.0,5.544967379058157 L373.0,5.736799178229545 L372.0,5.954915028125272 L371.0,6.197970171999856 L370.0,6.464466094067263 L369.0,6.752759758349084 L368.0,7.061073738537653 L367.0,7.387507176420247 L366.0,7.730047501302275 L365.0,8.086582838174547 L364.0,8.454915028125276 L363.0,8.832773180720473 L362.0,9.217827674798864 L361.0,9.607704521360779 L360.0,10.000000000000005 L359.0,10.39229547863925 L358.0,10.782172325201147 L357.0,11.16722681927954 L356.0,11.545084971874735 L355.0,11.913417161825464 L354.0,12.269952498697734 L353.0,12.612492823579762 L352.0,12.93892626146237 L351.0,13.247240241650925 L350.0,13.535533905932757 L349.0,13.802029828000151 L348.0,14.045084971874745 L347.0,14.263200821770461 L346.0,14.455032620941848 L345.0,14.619397662556434 L344.0,14.755282581475775 L343.0,14.86184960198838 L342.0,14.938441702975691 L341.0,14.984586668665642 L340.0,15.0 L339.0,14.984586668665639 L338.0,14.938441702975688 L337.0,14.861849601988379 L336.0,14.755282581475766 L335.0,14.619397662556423 L334.0,14.455032620941843 L333.0,14.263200821770454 L332.0,14.04508497187475 L331.0,13.802029828000155 L330.0,13.535533905932724 L329.0,13.247240241650916 L328.0,12.938926261462347 L327.0,12.612492823579739 L326.0,12.269952498697709 L325.0,11.913417161825437 L324.0,11.545084971874724 L323.0,11.167226819279511 L322.0,10.782172325201154 L321.0,10.392295478639221 L320.0,9.999999999999995 L319.0,9.607704521360768 L318.0,9.217827674798837 L317.0,8.83277318072048 L316.0,8.454915028125267 L315.0,8.086582838174554 L314.0,7.73004750130225 L313.0,7.387507176420254 L312.0,7.0610737385376305 L311.0,6.752759758349076 L310.0,6.464466094067256 L309.0,6.197970171999838 L308.0,5.954915028125265 L307.0,5.73679917822954 L306.0,5.544967379058161 L305.0,5.380602337443571 L304.0,5.244717418524231 L303.0,5.138150398011615 L302.0,5.06155829702431 L301.0,5.015413331334359 L300.0,5.0 L299.0,5.0154133313343605 L298.0,5.061558297024311 L297.0,5.138150398011618 L296.0,5.244717418524228 L295.0,5.380602337443562 L294.0,5.544967379058157 L293.0,5.736799178229544 L292.0,5.954915028125271 L291.0,6.197970171999856 L290.0,6.464466094067262 L289.0,6.752759758349083 L288.0,7.061073738537638 L287.0,7.387507176420246 L286.0,7.730047501302257 L285.0,8.086582838174545 L284.0,8.454915028125258 L283.0,8.832773180720471 L282.0,9.217827674798864 L281.0,9.607704521360777 L280.0,10.000000000000004 L279.0,10.39229547863923 L278.0,10.782172325201145 L277.0,11.16722681927952 L276.0,11.545084971874733 L275.0,11.913417161825446 L274.0,12.269952498697734 L273.0,12.61249282357973 L272.0,12.938926261462354 L271.0,13.247240241650923 L270.0,13.535533905932745 L269.0,13.802029828000151 L268.0,14.045084971874735 L267.0,14.263200821770461 L266.0,14.45503262094184 L265.0,14.619397662556434 L264.0,14.755282581475765 L263.0,14.86184960198838 L262.0,14.938441702975691 L261.0,14.984586668665642 L260.0,15.0 L259.0,14.984586668665639 L258.0,14.93844170297569 L257.0,14.861849601988382 L256.0,14.755282581475766 L255.0,14.619397662556437 L254.0,14.455032620941836 L253.0,14.263200821770464 L252.0,14.04508497187474 L251.0,13.802029828000157 L250.0,13.535533905932725 L249.0,13.247240241650903 L248.0,12.938926261462363 L247.0,12.612492823579739 L246.0,12.269952498697727 L245.0,11.91341716182544 L244.0,11.545084971874742 L243.0,11.16722681927953 L242.0,10.782172325201156 L241.0,10.392295478639223 L240.0,9.999999999999979 L239.0,9.60770452136077 L238.0,9.217827674798837 L237.0,8.832773180720462 L236.0,8.454915028125251 L235.0,8.086582838174554 L234.0,7.730047501302266 L233.0,7.387507176420254 L232.0,7.061073738537631 L231.0,6.75275975834909 L230.0,6.464466094067269 L229.0,6.197970171999838 L228.0,5.954915028125256 L227.0,5.736799178229531 L226.0,5.544967379058161 L225.0,5.380602337443566 L224.0,5.244717418524231 L223.0,5.138150398011615 L222.0,5.0615582970243125 L221.0,5.0154133313343605 L220.0,5.0 L219.0,5.01541333133436 L218.0,5.061558297024314 L217.0,5.138150398011617 L216.0,5.244717418524233 L215.0,5.380602337443569 L214.0,5.544967379058164 L213.0,5.736799178229535 L212.0,5.954915028125259 L211.0,6.197970171999855 L210.0,6.464466094067261 L209.0,6.752759758349082 L208.0,7.061073738537637 L207.0,7.387507176420261 L206.0,7.730047501302273 L205.0,8.08658283817456 L204.0,8.454915028125257 L203.0,8.83277318072047 L202.0,9.217827674798853 L201.0,9.607704521360777 L200.0,10.000000000000004 L199.0,10.39229547863923 L198.0,10.782172325201152 L197.0,11.167226819279536 L196.0,11.54508497187474 L195.0,11.913417161825453 L194.0,12.269952498697734 L193.0,12.612492823579753 L192.0,12.938926261462367 L191.0,13.247240241650921 L190.0,13.535533905932743 L189.0,13.802029828000155 L188.0,14.045084971874733 L187.0,14.26320082177046 L186.0,14.455032620941843 L185.0,14.619397662556434 L184.0,14.755282581475772 L183.0,14.861849601988386 L182.0,14.938441702975691 L181.0,14.98458666866564 L180.0,15.0 L179.0,14.98458666866564 L178.0,14.93844170297569 L177.0,14.861849601988382 L176.0,14.755282581475768 L175.0,14.619397662556429 L174.0,14.455032620941836 L173.0,14.263200821770457 L172.0,14.045084971874731 L171.0,13.802029828000151 L170.0,13.53553390593274 L169.0,13.247240241650918 L168.0,12.938926261462363 L167.0,12.612492823579748 L166.0,12.269952498697744 L165.0,11.913417161825441 L164.0,11.545084971874726 L163.0,11.167226819279513 L162.0,10.782172325201147 L161.0,10.392295478639225 L160.0,9.999999999999998 L159.0,9.607704521360771 L158.0,9.217827674798848 L157.0,8.832773180720464 L156.0,8.45491502812526 L155.0,8.086582838174547 L154.0,7.730047501302268 L153.0,7.387507176420256 L152.0,7.061073738537633 L151.0,6.752759758349079 L150.0,6.464466094067258 L149.0,6.197970171999845 L148.0,5.954915028125266 L147.0,5.736799178229541 L146.0,5.544967379058158 L145.0,5.380602337443566 L144.0,5.244717418524231 L143.0,5.138150398011618 L142.0,5.061558297024312 L141.0,5.01541333133436 L140.0,5.0 L139.0,5.01541333133436 L138.0,5.061558297024311 L137.0,5.138150398011617 L136.0,5.24471741852423 L135.0,5.380602337443568 L134.0,5.54496737905816 L133.0,5.736799178229538 L132.0,5.954915028125259 L131.0,6.197970171999848 L130.0,6.4644660940672605 L129.0,6.7527597583490815 L128.0,7.061073738537636 L127.0,7.387507176420259 L126.0,7.730047501302264 L125.0,8.086582838174559 L124.0,8.454915028125265 L123.0,8.832773180720476 L122.0,9.217827674798842 L121.0,9.607704521360775 L120.0,10.00000000000001 L119.0,10.392295478639229 L118.0,10.782172325201161 L117.0,11.167226819279527 L116.0,11.54508497187474 L115.0,11.913417161825445 L114.0,12.269952498697739 L113.0,12.612492823579744 L112.0,12.938926261462367 L111.0,13.247240241650914 L110.0,13.535533905932741 L109.0,13.80202982800016 L108.0,14.045084971874738 L107.0,14.263200821770463 L106.0,14.455032620941838 L105.0,14.619397662556434 L104.0,14.755282581475768 L103.0,14.861849601988384 L102.0,14.938441702975688 L101.0,14.98458666866564 L100.0,15.0 L99.0,14.984586668665639 L98.0,14.938441702975688 L97.0,14.861849601988382 L96.0,14.755282581475768 L95.0,14.619397662556432 L94.0,14.45503262094184 L93.0,14.26320082177046 L92.0,14.045084971874733 L91.0,13.802029828000153 L90.0,13.535533905932738 L89.0,13.24724024165092 L88.0,12.938926261462365 L87.0,12.61249282357974 L86.0,12.269952498697728 L85.0,11.91341716182545 L84.0,11.545084971874736 L83.0,11.167226819279533 L82.0,10.782172325201149 L81.0,10.392295478639221 L80.0,9.999999999999998 L79.0,9.607704521360777 L78.0,9.217827674798844 L77.0,8.832773180720475 L76.0,8.454915028125262 L75.0,8.086582838174548 L74.0,7.730047501302269 L73.0,7.387507176420253 L72.0,7.061073738537633 L71.0,6.752759758349082 L70.0,6.464466094067261 L69.0,6.197970171999846 L68.0,5.954915028125265 L67.0,5.73679917822954 L66.0,5.544967379058162 L65.0,5.380602337443567 L64.0,5.244717418524232 L63.0,5.138150398011617 L62.0,5.061558297024311 L61.0,5.0154133313343605 L60.0,5.0 L59.0,5.0154133313343605 L58.0,5.061558297024312 L57.0,5.138150398011618 L56.0,5.244717418524233 L55.0,5.380602337443568 L54.0,5.544967379058161 L53.0,5.736799178229538 L52.0,5.954915028125264 L51.0,6.197970171999844 L50.0,6.464466094067262 L49.0,6.752759758349082 L48.0,7.061073738537635 L47.0,7.387507176420254 L46.0,7.730047501302269 L45.0,8.086582838174552 L44.0,8.454915028125264 L43.0,8.832773180720476 L42.0,9.217827674798846 L41.0,9.607704521360779 L40.0,10.0 L39.0,10.392295478639225 L38.0,10.782172325201154 L37.0,11.167226819279525 L36.0,11.545084971874738 L35.0,11.91341716182545 L34.0,12.269952498697732 L33.0,12.612492823579743 L32.0,12.938926261462367 L31.0,13.24724024165092 L30.0,13.53553390593274 L29.0,13.802029828000155 L28.0,14.045084971874736 L27.0,14.263200821770461 L26.0,14.45503262094184 L25.0,14.619397662556434 L24.0,14.755282581475768 L23.0,14.861849601988382 L22.0,14.93844170297569 L21.0,14.984586668665639 L20.0,15.0 L19.0,14.984586668665639 L18.0,14.93844170297569 L17.0,14.861849601988382 L16.0,14.755282581475768 L15.0,14.619397662556434 L14.0,14.45503262094184 L13.0,14.263200821770461 L12.0,14.045084971874736 L11.0,13.802029828000155 L10.0,13.535533905932738 L9.0,13.247240241650918 L8.0,12.938926261462367 L7.0,12.612492823579744 L6.0,12.269952498697734 L5.0,11.91341716182545 L4.0,11.545084971874736 L3.0,11.167226819279527 L2.0,10.782172325201154 L1.0,10.392295478639225 L0.0,10.0" stroke-width="2" stroke-linecap="round" stroke="#000000" fill="none"  />
<!-- Footer -->
</svg>
