<!-- Header -->
<svg
    version="1.1"
    baseProfile="full"
    xmlns="http://www.w3.org/2000/svg"
    xmlns:xlink="http://www.w3.org/1999/xlink"
    xmlns:ev="http://www.w3.org/2001/xml-events"
    width="400.0"
    height="20.0"
    viewBox="-1.0 -8.5 402.0 22.0"
    preserveAspectRatio="none"
>
<!-- Body -->
<!-- Path -->
<path d="M0.0,0.0 L1.0,2.3176274578121054 L2.0,4.408389392193548 L3.0,6.067627457812106 L4.0,7.132923872213651 L5.0,7.5 L6.0,7.132923872213652 L7.0,6.067627457812106 L8.0,4.408389392193549 L9.0,2.3176274578121063 L10.0,9.18485099360515e-16 L11.0,-2.3176274578121046 L12.0,-4.4083893921935475 L13.0,-6.067627457812105 L14.0,-7.132923872213651 L15.0,-7.5 L16.0,-7.132923872213652 L17.0,-6.067627457812103 L18.0,-4.40838939219355 L19.0,-2.317627457812107 L20.0,-1.83697019872103e-15 L21.0,2.3176274578121037 L22.0,4.408389392193547 L23.0,6.067627457812101 L24.0,7.132923872213651 L25.0,7.5 L26.0,7.132923872213652 L27.0,6.067627457812106 L28.0,4.40838939219355 L29.0,2.3176274578121085 L30.0,1.6078131593583422e-14 L31.0,-2.3176274578121028 L32.0,-4.408389392193546 L33.0,-6.067627457812112 L34.0,-7.132923872213655 L35.0,-7.5 L36.0,-7.132923872213653 L37.0,-6.0676274578121 L38.0,-4.408389392193551 L39.0,-2.317627457812109 L40.0,-3.67394039744206e-15 L41.0,2.3176274578120895 L42.0,4.408389392193545 L43.0,6.067627457812096 L44.0,7.1329238722136505 L45.0,7.5 L46.0,7.132923872213658 L47.0,6.0676274578121 L48.0,4.408389392193552 L49.0,2.31762745781211 L50.0,4.592425496802574e-15 L51.0,-2.317627457812114 L52.0,-4.408389392193544 L53.0,-6.067627457812111 L54.0,-7.1329238722136505 L55.0,-7.5 L56.0,-7.132923872213653 L57.0,-6.067627457812117 L58.0,-4.408389392193553 L59.0,-2.317627457812123 L60.0,-3.2156263187166845e-14 L61.0,2.317627457812113 L62.0,4.408389392193543 L63.0,6.06762745781211 L64.0,7.13292387221365 L65.0,7.5 L66.0,7.132923872213645 L67.0,6.067627457812102 L68.0,4.4083893921935315 L69.0,2.3176274578120992 L70.0,6.429395695523604e-15 L71.0,-2.317627457812112 L72.0,-4.408389392193543 L73.0,-6.067627457812094 L74.0,-7.1329238722136585 L75.0,-7.5 L76.0,-7.132923872213654 L77.0,-6.067627457812102 L78.0,-4.408389392193555 L79.0,-2.3176274578121 L80.0,-7.34788079488412e-15 L81.0,2.317627457812086 L82.0,4.408389392193521 L83.0,6.067627457812125 L84.0,7.13292387221365 L85.0,7.5 L86.0,7.132923872213662 L87.0,6.067627457812119 L88.0,4.4083893921935555 L89.0,2.317627457812101 L90.0,8.266365894244635e-15 L91.0,-2.317627457812085 L92.0,-4.40838939219352 L93.0,-6.067627457812092 L94.0,-7.132923872213658 L95.0,-7.5 L96.0,-7.132923872213655 L97.0,-6.067627457812104 L98.0,-4.408389392193556 L99.0,-2.317627457812102 L100.0,-9.184850993605149e-15 L101.0,2.317627457812084 L102.0,4.408389392193563 L103.0,6.067627457812092 L104.0,7.132923872213649 L105.0,7.5 L106.0,7.132923872213646 L107.0,6.067627457812119 L108.0,4.408389392193557 L109.0,2.3176274578121534 L110.0,3.674868868396942e-14 L111.0,-2.3176274578121343 L112.0,-4.40838939219354 L113.0,-6.067627457812107 L114.0,-7.132923872213641 L115.0,-7.5 L116.0,-7.132923872213655 L117.0,-6.0676274578121046 L118.0,-4.408389392193579 L119.0,-2.317627457812129 L120.0,-6.431252637433369e-14 L121.0,2.317627457812108 L122.0,4.408389392193561 L123.0,6.067627457812091 L124.0,7.132923872213648 L125.0,7.5 L126.0,7.132923872213647 L127.0,6.06762745781212 L128.0,4.408389392193557 L129.0,2.317627457812104 L130.0,-1.470504629931706e-14 L131.0,-2.317627457812082 L132.0,-4.408389392193582 L133.0,-6.067627457812106 L134.0,-7.132923872213657 L135.0,-7.5 L136.0,-7.132923872213639 L137.0,-6.067627457812105 L138.0,-4.408389392193537 L139.0,-2.3176274578120797 L140.0,-1.2858791391047208e-14 L141.0,2.3176274578120557 L142.0,4.408389392193559 L143.0,6.067627457812121 L144.0,7.132923872213647 L145.0,7.5 L146.0,7.132923872213664 L147.0,6.06762745781209 L148.0,4.408389392193516 L149.0,2.317627457812106 L150.0,4.042262908141148e-14 L151.0,-2.3176274578120797 L152.0,-4.408389392193537 L153.0,-6.067627457812105 L154.0,-7.132923872213656 L155.0,-7.5 L156.0,-7.132923872213657 L157.0,-6.067627457812137 L158.0,-4.408389392193539 L159.0,-2.317627457812132 L160.0,-1.469576158976824e-14 L161.0,2.317627457812104 L162.0,4.4083893921935156 L163.0,6.0676274578120575 L164.0,7.132923872213631 L165.0,7.5 L166.0,7.132923872213632 L167.0,6.067627457812091 L168.0,4.408389392193561 L169.0,2.317627457812108 L170.0,-1.1031105901875003e-14 L171.0,-2.317627457812078 L172.0,-4.4083893921934925 L173.0,-6.067627457812073 L174.0,-7.132923872213639 L175.0,-7.5 L176.0,-7.132923872213657 L177.0,-6.067627457812107 L178.0,-4.40838939219354 L179.0,-2.3176274578120832 L180.0,-1.653273178848927e-14 L181.0,2.3176274578120517 L182.0,4.408389392193514 L183.0,6.067627457812088 L184.0,7.13292387221363 L185.0,7.5 L186.0,7.132923872213666 L187.0,6.067627457812092 L188.0,4.408389392193519 L189.0,2.3176274578121094 L190.0,4.409656947885354e-14 L191.0,-2.317627457812076 L192.0,-4.408389392193534 L193.0,-6.067627457812072 L194.0,-7.132923872213655 L195.0,-7.5 L196.0,-7.132923872213658 L197.0,-6.06762745781214 L198.0,-4.408389392193542 L199.0,-2.3176274578121356 L200.0,-1.8369701987210297e-14 L201.0,2.317627457812101 L202.0,4.408389392193512 L203.0,6.067627457812119 L204.0,7.132923872213662 L205.0,7.5 L206.0,7.132923872213666 L207.0,6.067627457812125 L208.0,4.4083893921935635 L209.0,2.317627457812111 L210.0,-7.357165504432944e-15 L211.0,-2.3176274578120237 L212.0,-4.408389392193576 L213.0,-6.067627457812133 L214.0,-7.132923872213637 L215.0,-7.5 L216.0,-7.1329238722136585 L217.0,-6.067627457812109 L218.0,-4.408389392193629 L219.0,-2.317627457812087 L220.0,-7.349737736793884e-14 L221.0,2.3176274578121494 L222.0,4.408389392193596 L223.0,6.067627457812086 L224.0,7.132923872213645 L225.0,7.5 L226.0,7.13292387221365 L227.0,6.067627457812158 L228.0,4.408389392193609 L229.0,2.3176274578121636 L230.0,-5.881090048771943e-14 L231.0,-2.3176274578121743 L232.0,-4.408389392193531 L233.0,-6.067627457812101 L234.0,-7.132923872213653 L235.0,-7.5 L236.0,-7.1329238722136745 L237.0,-6.067627457812142 L238.0,-4.4083893921935875 L239.0,-2.317627457812139 L240.0,-1.2862505274866738e-13 L241.0,2.317627457812097 L242.0,4.408389392193552 L243.0,6.067627457812116 L244.0,7.132923872213661 L245.0,7.5 L246.0,7.132923872213667 L247.0,6.067627457812127 L248.0,4.408389392193567 L249.0,2.317627457812216 L250.0,1.0289818525702415e-13 L251.0,-2.317627457812122 L252.0,-4.408389392193572 L253.0,-6.067627457812131 L254.0,-7.132923872213636 L255.0,-7.5 L256.0,-7.132923872213659 L257.0,-6.067627457812112 L258.0,-4.408389392193546 L259.0,-2.3176274578120903 L260.0,2.941009259863412e-14 L261.0,2.3176274578120446 L262.0,4.408389392193508 L263.0,6.067627457812145 L264.0,7.132923872213677 L265.0,7.5 L266.0,7.132923872213651 L267.0,6.067627457812097 L268.0,4.408389392193525 L269.0,2.317627457812066 L270.0,5.144445027373766e-14 L271.0,-2.317627457812069 L272.0,-4.408389392193614 L273.0,-6.067627457812161 L274.0,-7.132923872213652 L275.0,-7.5 L276.0,-7.132923872213643 L277.0,-6.0676274578120815 L278.0,-4.408389392193504 L279.0,-2.3176274578121427 L280.0,-2.5717582782094416e-14 L281.0,2.317627457812094 L282.0,4.408389392193463 L283.0,6.067627457812114 L284.0,7.132923872213659 L285.0,7.5 L286.0,7.1329238722136346 L287.0,6.067627457812066 L288.0,4.40838939219357 L289.0,2.3176274578121183 L290.0,-9.284709548825366e-18 L291.0,-2.3176274578120166 L292.0,-4.408389392193484 L293.0,-6.067627457812066 L294.0,-7.132923872213668 L295.0,-7.5 L296.0,-7.1329238722136274 L297.0,-6.067627457812113 L298.0,-4.408389392193549 L299.0,-2.317627457812094 L300.0,-8.084525816282296e-14 L301.0,2.3176274578120415 L302.0,4.408389392193504 L303.0,6.0676274578120815 L304.0,7.132923872213643 L305.0,7.5 L306.0,7.132923872213652 L307.0,6.067627457812099 L308.0,4.408389392193529 L309.0,2.3176274578121707 L310.0,5.5118390671179717e-14 L311.0,-2.317627457812066 L312.0,-4.408389392193525 L313.0,-6.067627457812097 L314.0,-7.132923872213619 L315.0,-7.5 L316.0,-7.132923872213644 L317.0,-6.067627457812083 L318.0,-4.408389392193594 L319.0,-2.3176274578121463 L320.0,-2.939152317953648e-14 L321.0,2.3176274578120903 L322.0,4.408389392193546 L323.0,6.0676274578120495 L324.0,7.132923872213627 L325.0,7.5 L326.0,7.132923872213702 L327.0,6.067627457812131 L328.0,4.408389392193659 L329.0,2.317627457812122 L330.0,1.1024606605190827e-13 L331.0,-2.3176274578121148 L332.0,-4.408389392193653 L333.0,-6.067627457812065 L334.0,-7.132923872213667 L335.0,-7.5 L336.0,-7.132923872213661 L337.0,-6.067627457812178 L338.0,-4.408389392193552 L339.0,-2.3176274578121987 L340.0,2.2062211803750007e-14 L341.0,2.3176274578119362 L342.0,4.408389392193502 L343.0,6.067627457812142 L344.0,7.132923872213609 L345.0,7.5 L346.0,7.132923872213686 L347.0,6.067627457812101 L348.0,4.408389392193618 L349.0,2.317627457812073 L350.0,1.653737414326368e-13 L351.0,-2.3176274578120624 L352.0,-4.408389392193522 L353.0,-6.067627457812032 L354.0,-7.13292387221365 L355.0,-7.5 L356.0,-7.132923872213645 L357.0,-6.067627457812148 L358.0,-4.40838939219351 L359.0,-2.317627457812251 L360.0,-3.306546357697854e-14 L361.0,2.317627457812087 L362.0,4.408389392193457 L363.0,6.067627457812109 L364.0,7.132923872213625 L365.0,7.5 L366.0,7.132923872213671 L367.0,6.067627457812071 L368.0,4.408389392193662 L369.0,2.317627457812125 L370.0,7.338596085335294e-15 L371.0,-2.3176274578120095 L372.0,-4.408389392193477 L373.0,-6.067627457812062 L374.0,-7.132923872213666 L375.0,-7.5 L376.0,-7.13292387221363 L377.0,-6.067627457812181 L378.0,-4.4083893921935555 L379.0,-2.317627457812101 L380.0,-8.819313895770708e-14 L381.0,2.3176274578120344 L382.0,4.408389392193499 L383.0,6.067627457812078 L384.0,7.132923872213641 L385.0,7.5 L386.0,7.132923872213687 L387.0,6.067627457812104 L388.0,4.408389392193534 L389.0,2.3176274578121774 L390.0,6.246627146606384e-14 L391.0,-2.317627457812059 L392.0,-4.408389392193519 L393.0,-6.067627457812092 L394.0,-7.132923872213616 L395.0,-7.5 L396.0,-7.132923872213646 L397.0,-6.067627457812088 L398.0,-4.408389392193599 L399.0,-2.3176274578121534 L400.0,-3.6739403974420595e-14 L400.0,4.999999999999964 L399.0,2.6823725421878466 L398.0,0.591610607806401 L397.0,-1.0676274578120877 L396.0,-2.132923872213646 L395.0,-2.5 L394.0,-2.132923872213616 L393.0,-1.0676274578120921 L392.0,0.5916106078064809 L391.0,2.682372542187941 L390.0,5.000000000000062 L389.0,7.317627457812177 L388.0,9.408389392193534 L387.0,11.067627457812105 L386.0,12.132923872213688 L385.0,12.5 L384.0,12.132923872213642 L383.0,11.067627457812078 L382.0,9.408389392193499 L381.0,7.317627457812034 L380.0,4.999999999999912 L379.0,2.682372542187899 L378.0,0.5916106078064445 L377.0,-1.067627457812181 L376.0,-2.13292387221363 L375.0,-2.5 L374.0,-2.1329238722136656 L373.0,-1.067627457812062 L372.0,0.5916106078065226 L371.0,2.6823725421879905 L370.0,5.000000000000007 L369.0,7.317627457812125 L368.0,9.408389392193662 L367.0,11.06762745781207 L366.0,12.13292387221367 L365.0,12.5 L364.0,12.132923872213624 L363.0,11.067627457812108 L362.0,9.408389392193456 L361.0,7.317627457812087 L360.0,4.999999999999967 L359.0,2.682372542187749 L358.0,0.5916106078064898 L357.0,-1.067627457812148 L356.0,-2.132923872213645 L355.0,-2.5 L354.0,-2.1329238722136497 L353.0,-1.0676274578120317 L352.0,0.5916106078064782 L351.0,2.6823725421879376 L350.0,5.000000000000165 L349.0,7.317627457812073 L348.0,9.408389392193618 L347.0,11.067627457812101 L346.0,12.132923872213686 L345.0,12.5 L344.0,12.13292387221361 L343.0,11.067627457812142 L342.0,9.408389392193502 L341.0,7.317627457811936 L340.0,5.000000000000022 L339.0,2.6823725421878013 L338.0,0.591610607806448 L337.0,-1.0676274578121783 L336.0,-2.132923872213661 L335.0,-2.5 L334.0,-2.1329238722136674 L333.0,-1.0676274578120646 L332.0,0.5916106078063468 L331.0,2.6823725421878852 L330.0,5.00000000000011 L329.0,7.317627457812122 L328.0,9.408389392193659 L327.0,11.067627457812131 L326.0,12.132923872213702 L325.0,12.5 L324.0,12.132923872213627 L323.0,11.06762745781205 L322.0,9.408389392193545 L321.0,7.31762745781209 L320.0,4.999999999999971 L319.0,2.6823725421878537 L318.0,0.5916106078064063 L317.0,-1.0676274578120832 L316.0,-2.1329238722136443 L315.0,-2.5 L314.0,-2.1329238722136186 L313.0,-1.0676274578120966 L312.0,0.5916106078064747 L311.0,2.682372542187934 L310.0,5.000000000000055 L309.0,7.31762745781217 L308.0,9.408389392193529 L307.0,11.0676274578121 L306.0,12.132923872213652 L305.0,12.5 L304.0,12.132923872213643 L303.0,11.067627457812081 L302.0,9.408389392193504 L301.0,7.3176274578120415 L300.0,4.999999999999919 L299.0,2.682372542187906 L298.0,0.5916106078064507 L297.0,-1.0676274578121134 L296.0,-2.1329238722136274 L295.0,-2.5 L294.0,-2.1329238722136683 L293.0,-1.0676274578120664 L292.0,0.5916106078065164 L291.0,2.6823725421879834 L290.0,5.0 L289.0,7.317627457812119 L288.0,9.40838939219357 L287.0,11.067627457812065 L286.0,12.132923872213635 L285.0,12.5 L284.0,12.13292387221366 L283.0,11.067627457812115 L282.0,9.408389392193463 L281.0,7.317627457812094 L280.0,4.999999999999974 L279.0,2.6823725421878573 L278.0,0.591610607806496 L277.0,-1.0676274578120815 L276.0,-2.1329238722136434 L275.0,-2.5 L274.0,-2.1329238722136523 L273.0,-1.0676274578121614 L272.0,0.5916106078063859 L271.0,2.682372542187931 L270.0,5.0000000000000515 L269.0,7.3176274578120655 L268.0,9.408389392193525 L267.0,11.067627457812097 L266.0,12.132923872213652 L265.0,12.5 L264.0,12.132923872213677 L263.0,11.067627457812145 L262.0,9.408389392193508 L261.0,7.317627457812044 L260.0,5.000000000000029 L259.0,2.6823725421879097 L258.0,0.5916106078064542 L257.0,-1.0676274578121117 L256.0,-2.1329238722136594 L255.0,-2.5 L254.0,-2.1329238722136363 L253.0,-1.0676274578121312 L252.0,0.5916106078064276 L251.0,2.682372542187878 L250.0,5.000000000000103 L249.0,7.3176274578122165 L248.0,9.408389392193566 L247.0,11.067627457812126 L246.0,12.132923872213667 L245.0,12.5 L244.0,12.132923872213661 L243.0,11.067627457812115 L242.0,9.408389392193552 L241.0,7.3176274578120974 L240.0,4.999999999999871 L239.0,2.682372542187861 L238.0,0.5916106078064125 L237.0,-1.0676274578121419 L236.0,-2.1329238722136745 L235.0,-2.5 L234.0,-2.132923872213653 L233.0,-1.067627457812101 L232.0,0.5916106078064693 L231.0,2.6823725421878257 L230.0,4.999999999999941 L229.0,7.317627457812163 L228.0,9.408389392193609 L227.0,11.067627457812158 L226.0,12.132923872213649 L225.0,12.5 L224.0,12.132923872213645 L223.0,11.067627457812087 L222.0,9.408389392193596 L221.0,7.317627457812149 L220.0,4.999999999999926 L219.0,2.682372542187913 L218.0,0.5916106078063708 L217.0,-1.067627457812109 L216.0,-2.1329238722136585 L215.0,-2.5 L214.0,-2.132923872213637 L213.0,-1.067627457812133 L212.0,0.591610607806424 L211.0,2.6823725421879763 L210.0,4.999999999999993 L209.0,7.317627457812112 L208.0,9.408389392193563 L207.0,11.067627457812126 L206.0,12.132923872213667 L205.0,12.5 L204.0,12.132923872213663 L203.0,11.067627457812119 L202.0,9.408389392193513 L201.0,7.317627457812101 L200.0,4.999999999999981 L199.0,2.6823725421878644 L198.0,0.5916106078064578 L197.0,-1.06762745781214 L196.0,-2.1329238722136576 L195.0,-2.5 L194.0,-2.132923872213655 L193.0,-1.0676274578120717 L192.0,0.5916106078064658 L191.0,2.682372542187924 L190.0,5.000000000000044 L189.0,7.31762745781211 L188.0,9.40838939219352 L187.0,11.067627457812092 L186.0,12.132923872213667 L185.0,12.5 L184.0,12.132923872213631 L183.0,11.067627457812087 L182.0,9.408389392193513 L181.0,7.317627457812051 L180.0,4.999999999999983 L179.0,2.6823725421879168 L178.0,0.5916106078064596 L177.0,-1.0676274578121072 L176.0,-2.1329238722136568 L175.0,-2.5 L174.0,-2.132923872213639 L173.0,-1.0676274578120726 L172.0,0.5916106078065075 L171.0,2.682372542187922 L170.0,4.999999999999989 L169.0,7.317627457812108 L168.0,9.40838939219356 L167.0,11.06762745781209 L166.0,12.132923872213631 L165.0,12.5 L164.0,12.132923872213631 L163.0,11.067627457812058 L162.0,9.408389392193516 L161.0,7.3176274578121046 L160.0,4.999999999999985 L159.0,2.682372542187868 L158.0,0.5916106078064614 L157.0,-1.0676274578121374 L156.0,-2.1329238722136568 L155.0,-2.5 L154.0,-2.132923872213656 L153.0,-1.0676274578121054 L152.0,0.5916106078064631 L151.0,2.6823725421879203 L150.0,5.000000000000041 L149.0,7.317627457812106 L148.0,9.408389392193516 L147.0,11.06762745781209 L146.0,12.132923872213663 L145.0,12.5 L144.0,12.132923872213647 L143.0,11.067627457812122 L142.0,9.408389392193559 L141.0,7.317627457812056 L140.0,4.999999999999988 L139.0,2.6823725421879203 L138.0,0.5916106078064631 L137.0,-1.0676274578121054 L136.0,-2.132923872213639 L135.0,-2.5 L134.0,-2.1329238722136568 L133.0,-1.0676274578121063 L132.0,0.5916106078064178 L131.0,2.682372542187918 L130.0,4.999999999999985 L129.0,7.3176274578121046 L128.0,9.408389392193557 L127.0,11.067627457812119 L126.0,12.132923872213647 L125.0,12.5 L124.0,12.132923872213649 L123.0,11.06762745781209 L122.0,9.40838939219356 L121.0,7.317627457812108 L120.0,4.999999999999936 L119.0,2.682372542187871 L118.0,0.5916106078064214 L117.0,-1.0676274578121046 L116.0,-2.132923872213655 L115.0,-2.5 L114.0,-2.1329238722136408 L113.0,-1.0676274578121072 L112.0,0.5916106078064596 L111.0,2.6823725421878657 L110.0,5.000000000000036 L109.0,7.317627457812153 L108.0,9.408389392193557 L107.0,11.067627457812119 L106.0,12.132923872213645 L105.0,12.5 L104.0,12.132923872213649 L103.0,11.067627457812092 L102.0,9.408389392193563 L101.0,7.317627457812084 L100.0,4.999999999999991 L99.0,2.682372542187898 L98.0,0.5916106078064436 L97.0,-1.0676274578121037 L96.0,-2.132923872213655 L95.0,-2.5 L94.0,-2.1329238722136576 L93.0,-1.0676274578120921 L92.0,0.59161060780648 L91.0,2.682372542187915 L90.0,5.000000000000008 L89.0,7.317627457812101 L88.0,9.408389392193556 L87.0,11.067627457812119 L86.0,12.132923872213663 L85.0,12.5 L84.0,12.132923872213649 L83.0,11.067627457812126 L82.0,9.40838939219352 L81.0,7.317627457812086 L80.0,4.999999999999993 L79.0,2.6823725421879 L78.0,0.5916106078064454 L77.0,-1.0676274578121019 L76.0,-2.132923872213654 L75.0,-2.5 L74.0,-2.1329238722136585 L73.0,-1.067627457812094 L72.0,0.5916106078064569 L71.0,2.682372542187888 L70.0,5.000000000000006 L69.0,7.317627457812099 L68.0,9.40838939219353 L67.0,11.067627457812101 L66.0,12.132923872213645 L65.0,12.5 L64.0,12.132923872213649 L63.0,11.06762745781211 L62.0,9.408389392193543 L61.0,7.317627457812113 L60.0,4.999999999999968 L59.0,2.682372542187877 L58.0,0.5916106078064471 L57.0,-1.067627457812117 L56.0,-2.132923872213653 L55.0,-2.5 L54.0,-2.1329238722136505 L53.0,-1.0676274578121108 L52.0,0.591610607806456 L51.0,2.682372542187886 L50.0,5.000000000000004 L49.0,7.31762745781211 L48.0,9.408389392193552 L47.0,11.067627457812101 L46.0,12.132923872213658 L45.0,12.5 L44.0,12.13292387221365 L43.0,11.067627457812096 L42.0,9.408389392193545 L41.0,7.3176274578120895 L40.0,4.9999999999999964 L39.0,2.682372542187891 L38.0,0.5916106078064489 L37.0,-1.0676274578121001 L36.0,-2.132923872213653 L35.0,-2.5 L34.0,-2.132923872213655 L33.0,-1.0676274578121117 L32.0,0.5916106078064542 L31.0,2.6823725421878972 L30.0,5.000000000000016 L29.0,7.317627457812108 L28.0,9.40838939219355 L27.0,11.067627457812106 L26.0,12.132923872213652 L25.0,12.5 L24.0,12.132923872213652 L23.0,11.067627457812101 L22.0,9.408389392193547 L21.0,7.317627457812104 L20.0,4.999999999999998 L19.0,2.682372542187893 L18.0,0.5916106078064498 L17.0,-1.0676274578121028 L16.0,-2.1329238722136523 L15.0,-2.5 L14.0,-2.1329238722136514 L13.0,-1.0676274578121054 L12.0,0.5916106078064525 L11.0,2.6823725421878954 L10.0,5.000000000000001 L9.0,7.317627457812106 L8.0,9.408389392193548 L7.0,11.067627457812106 L6.0,12.132923872213652 L5.0,12.5 L4.0,12.132923872213652 L3.0,11.067627457812106 L2.0,9.408389392193548 L1.0,7.317627457812105 L0.0,5.0" fill="#FFFFFF"  />
<!-- Path -->
<path d="M0.0,0.0 L1.0,2.3176274578121054 L2.0,4.408389392193548 L3.0,6.067627457812106 L4.0,7.132923872213651 L5.0,7.5 L6.0,7.132923872213652 L7.0,6.067627457812106 L8.0,4.408389392193549 L9.0,2.3176274578121063 L10.0,9.18485099360515e-16 L11.0,-2.3176274578121046 L12.0,-4.4083893921935475 L13.0,-6.067627457812105 L14.0,-7.132923872213651 L15.0,-7.5 L16.0,-7.132923872213652 L17.0,-6.067627457812103 L18.0,-4.40838939219355 L19.0,-2.317627457812107 L20.0,-1.83697019872103e-15 L21.0,2.3176274578121037 L22.0,4.408389392193547 L23.0,6.067627457812101 L24.0,7.132923872213651 L25.0,7.5 L26.0,7.132923872213652 L27.0,6.067627457812106 L28.0,4.40838939219355 L29.0,2.3176274578121085 L30.0,1.6078131593583422e-14 L31.0,-2.3176274578121028 L32.0,-4.408389392193546 L33.0,-6.067627457812112 L34.0,-7.132923872213655 L35.0,-7.5 L36.0,-7.132923872213653 L37.0,-6.0676274578121 L38.0,-4.408389392193551 L39.0,-2.317627457812109 L40.0,-3.67394039744206e-15 L41.0,2.3176274578120895 L42.0,4.408389392193545 L43.0,6.067627457812096 L44.0,7.1329238722136505 L45.0,7.5 L46.0,7.132923872213658 L47.0,6.0676274578121 L48.0,4.408389392193552 L49.0,2.31762745781211 L50.0,4.592425496802574e-15 L51.0,-2.317627457812114 L52.0,-4.408389392193544 L53.0,-6.067627457812111 L54.0,-7.1329238722136505 L55.0,-7.5 L56.0,-7.132923872213653 L57.0,-6.067627457812117 L58.0,-4.408389392193553 L59.0,-2.317627457812123 L60.0,-3.2156263187166845e-14 L61.0,2.317627457812113 L62.0,4.408389392193543 L63.0,6.06762745781211 L64.0,7.13292387221365 L65.0,7.5 L66.0,7.132923872213645 L67.0,6.067627457812102 L68.0,4.4083893921935315 L69.0,2.3176274578120992 L70.0,6.429395695523604e-15 L71.0,-2.317627457812112 L72.0,-4.408389392193543 L73.0,-6.067627457812094 L74.0,-7.1329238722136585 L75.0,-7.5 L76.0,-7.132923872213654 L77.0,-6.067627457812102 L78.0,-4.408389392193555 L79.0,-2.3176274578121 L80.0,-7.34788079488412e-15 L81.0,2.317627457812086 L82.0,4.408389392193521 L83.0,6.067627457812125 L84.0,7.13292387221365 L85.0,7.5 L86.0,7.132923872213662 L87.0,6.067627457812119 L88.0,4.4083893921935555 L89.0,2.317627457812101 L90.0,8.266365894244635e-15 L91.0,-2.317627457812085 L92.0,-4.40838939219352 L93.0,-6.067627457812092 L94.0,-7.132923872213658 L95.0,-7.5 L96.0,-7.132923872213655 L97.0,-6.067627457812104 L98.0,-4.408389392193556 L99.0,-2.317627457812102 L100.0,-9.184850993605149e-15 L101.0,2.317627457812084 L102.0,4.408389392193563 L103.0,6.067627457812092 L104.0,7.132923872213649 L105.0,7.5 L106.0,7.132923872213646 L107.0,6.067627457812119 L108.0,4.408389392193557 L109.0,2.3176274578121534 L110.0,3.674868868396942e-14 L111.0,-2.3176274578121343 L112.0,-4.40838939219354 L113.0,-6.067627457812107 L114.0,-7.132923872213641 L115.0,-7.5 L116.0,-7.132923872213655 L117.0,-6.0676274578121046 L118.0,-4.408389392193579 L119.0,-2.317627457812129 L120.0,-6.431252637433369e-14 L121.0,2.317627457812108 L122.0,4.408389392193561 L123.0,6.067627457812091 L124.0,7.132923872213648 L125.0,7.5 L126.0,7.132923872213647 L127.0,6.06762745781212 L128.0,4.408389392193557 L129.0,2.317627457812104 L130.0,-1.470504629931706e-14 L131.0,-2.317627457812082 L132.0,-4.408389392193582 L133.0,-6.067627457812106 L134.0,-7.132923872213657 L135.0,-7.5 L136.0,-7.132923872213639 L137.0,-6.067627457812105 L138.0,-4.408389392193537 L139.0,-2.3176274578120797 L140.0,-1.2858791391047208e-14 L141.0,2.3176274578120557 L142.0,4.408389392193559 L143.0,6.067627457812121 L144.0,7.132923872213647 L145.0,7.5 L146.0,7.132923872213664 L147.0,6.06762745781209 L148.0,4.408389392193516 L149.0,2.317627457812106 L150.0,4.042262908141148e-14 L151.0,-2.3176274578120797 L152.0,-4.408389392193537 L153.0,-6.067627457812105 L154.0,-7.132923872213656 L155.0,-7.5 L156.0,-7.132923872213657 L157.0,-6.067627457812137 L158.0,-4.408389392193539 L159.0,-2.317627457812132 L160.0,-1.469576158976824e-14 L161.0,2.317627457812104 L162.0,4.4083893921935156 L163.0,6.0676274578120575 L164.0,7.132923872213631 L165.0,7.5 L166.0,7.132923872213632 L167.0,6.067627457812091 L168.0,4.408389392193561 L169.0,2.317627457812108 L170.0,-1.1031105901875003e-14 L171.0,-2.317627457812078 L172.0,-4.4083893921934925 L173.0,-6.067627457812073 L174.0,-7.132923872213639 L175.0,-7.5 L176.0,-7.132923872213657 L177.0,-6.067627457812107 L178.0,-4.40838939219354 L179.0,-2.3176274578120832 L180.0,-1.653273178848927e-14 L181.0,2.3176274578120517 L182.0,4.408389392193514 L183.0,6.067627457812088 L184.0,7.13292387221363 L185.0,7.5 L186.0,7.132923872213666 L187.0,6.067627457812092 L188.0,4.408389392193519 L189.0,2.3176274578121094 L190.0,4.409656947885354e-14 L191.0,-2.317627457812076 L192.0,-4.408389392193534 L193.0,-6.067627457812072 L194.0,-7.132923872213655 L195.0,-7.5 L196.0,-7.132923872213658 L197.0,-6.06762745781214 L198.0,-4.408389392193542 L199.0,-2.3176274578121356 L200.0,-1.8369701987210297e-14 L201.0,2.317627457812101 L202.0,4.408389392193512 L203.0,6.067627457812119 L204.0,7.132923872213662 L205.0,7.5 L206.0,7.132923872213666 L207.0,6.067627457812125 L208.0,4.4083893921935635 L209.0,2.317627457812111 L210.0,-7.357165504432944e-15 L211.0,-2.3176274578120237 L212.0,-4.408389392193576 L213.0,-6.067627457812133 L214.0,-7.132923872213637 L215.0,-7.5 L216.0,-7.1329238722136585 L217.0,-6.067627457812109 L218.0,-4.408389392193629 L219.0,-2.317627457812087 L220.0,-7.349737736793884e-14 L221.0,2.3176274578121494 L222.0,4.408389392193596 L223.0,6.067627457812086 L224.0,7.132923872213645 L225.0,7.5 L226.0,7.13292387221365 L227.0,6.067627457812158 L228.0,4.408389392193609 L229.0,2.3176274578121636 L230.0,-5.881090048771943e-14 L231.0,-2.3176274578121743 L232.0,-4.408389392193531 L233.0,-6.067627457812101 L234.0,-7.132923872213653 L235.0,-7.5 L236.0,-7.1329238722136745 L237.0,-6.067627457812142 L238.0,-4.4083893921935875 L239.0,-2.317627457812139 L240.0,-1.2862505274866738e-13 L241.0,2.317627457812097 L242.0,4.408389392193552 L243.0,6.067627457812116 L244.0,7.132923872213661 L245.0,7.5 L246.0,7.132923872213667 L247.0,6.067627457812127 L248.0,4.408389392193567 L249.0,2.317627457812216 L250.0,1.0289818525702415e-13 L251.0,-2.317627457812122 L252.0,-4.408389392193572 L253.0,-6.067627457812131 L254.0,-7.132923872213636 L255.0,-7.5 L256.0,-7.132923872213659 L257.0,-6.067627457812112 L258.0,-4.408389392193546 L259.0,-2.3176274578120903 L260.0,2.941009259863412e-14 L261.0,2.3176274578120446 L262.0,4.408389392193508 L263.0,6.067627457812145 L264.0,7.132923872213677 L265.0,7.5 L266.0,7.132923872213651 L267.0,6.067627457812097 L268.0,4.408389392193525 L269.0,2.317627457812066 L270.0,5.144445027373766e-14 L271.0,-2.317627457812069 L272.0,-4.408389392193614 L273.0,-6.067627457812161 L274.0,-7.132923872213652 L275.0,-7.5 L276.0,-7.132923872213643 L277.0,-6.0676274578120815 L278.0,-4.408389392193504 L279.0,-2.3176274578121427 L280.0,-2.5717582782094416e-14 L281.0,2.317627457812094 L282.0,4.408389392193463 L283.0,6.067627457812114 L284.0,7.132923872213659 L285.0,7.5 L286.0,7.1329238722136346 L287.0,6.067627457812066 L288.0,4.40838939219357 L289.0,2.3176274578121183 L290.0,-9.284709548825366e-18 L291.0,-2.3176274578120166 L292.0,-4.408389392193484 L293.0,-6.067627457812066 L294.0,-7.132923872213668 L295.0,-7.5 L296.0,-7.1329238722136274 L297.0,-6.067627457812113 L298.0,-4.408389392193549 L299.0,-2.317627457812094 L300.0,-8.084525816282296e-14 L301.0,2.3176274578120415 L302.0,4.408389392193504 L303.0,6.0676274578120815 L304.0,7.132923872213643 L305.0,7.5 L306.0,7.132923872213652 L307.0,6.067627457812099 L308.0,4.408389392193529 L309.0,2.3176274578121707 L310.0,5.5118390671179717e-14 L311.0,-2.317627457812066 L312.0,-4.408389392193525 L313.0,-6.067627457812097 L314.0,-7.132923872213619 L315.0,-7.5 L316.0,-7.132923872213644 L317.0,-6.067627457812083 L318.0,-4.408389392193594 L319.0,-2.3176274578121463 L320.0,-2.939152317953648e-14 L321.0,2.3176274578120903 L322.0,4.408389392193546 L323.0,6.0676274578120495 L324.0,7.132923872213627 L325.0,7.5 L326.0,7.132923872213702 L327.0,6.067627457812131 L328.0,4.408389392193659 L329.0,2.317627457812122 L330.0,1.1024606605190827e-13 L331.0,-2.3176274578121148 L332.0,-4.408389392193653 L333.0,-6.067627457812065 L334.0,-7.132923872213667 L335.0,-7.5 L336.0,-7.132923872213661 L337.0,-6.067627457812178 L338.0,-4.408389392193552 L339.0,-2.3176274578121987 L340.0,2.2062211803750007e-14 L341.0,2.3176274578119362 L342.0,4.408389392193502 L343.0,6.067627457812142 L344.0,7.132923872213609 L345.0,7.5 L346.0,7.132923872213686 L347.0,6.067627457812101 L348.0,4.408389392193618 L349.0,2.317627457812073 L350.0,1.653737414326368e-13 L351.0,-2.3176274578120624 L352.0,-4.408389392193522 L353.0,-6.067627457812032 L354.0,-7.13292387221365 L355.0,-7.5 L356.0,-7.132923872213645 L357.0,-6.067627457812148 L358.0,-4.40838939219351 L359.0,-2.317627457812251 L360.0,-3.306546357697854e-14 L361.0,2.317627457812087 L362.0,4.408389392193457 L363.0,6.067627457812109 L364.0,7.132923872213625 L365.0,7.5 L366.0,7.132923872213671 L367.0,6.067627457812071 L368.0,4.408389392193662 L369.0,2.317627457812125 L370.0,7.338596085335294e-15 L371.0,-2.3176274578120095 L372.0,-4.408389392193477 L373.0,-6.067627457812062 L374.0,-7.132923872213666 L375.0,-7.5 L376.0,-7.13292387221363 L377.0,-6.067627457812181 L378.0,-4.4083893921935555 L379.0,-2.317627457812101 L380.0,-8.819313895770708e-14 L381.0,2.3176274578120344 L382.0,4.408389392193499 L383.0,6.067627457812078 L384.0,7.132923872213641 L385.0,7.5 L386.0,7.132923872213687 L387.0,6.067627457812104 L388.0,4.408389392193534 L389.0,2.3176274578121774 L390.0,6.246627146606384e-14 L391.0,-2.317627457812059 L392.0,-4.408389392193519 L393.0,-6.067627457812092 L394.0,-7.132923872213616 L395.0,-7.5 L396.0,-7.132923872213646 L397.0,-6.067627457812088 L398.0,-4.408389392193599 L399.0,-2.3176274578121534 L400.0,-3.6739403974420595e-14" stroke-width="2" stroke-linecap="round" stroke="#000000" fill="none"  />
<!-- Path -->
<path d="M400.0,4.999999999999964 L399.0,2.6823725421878466 L398.0,0.591610607806401 L397.0,-1.0676274578120877 L396.0,-2.132923872213646 L395.0,-2.5 L394.0,-2.132923872213616 L393.0,-1.0676274578120921 L392.0,0.5916106078064809 L391.0,2.682372542187941 L390.0,5.000000000000062 L389.0,7.317627457812177 L388.0,9.408389392193534 L387.0,11.067627457812105 L386.0,12.132923872213688 L385.0,12.5 L384.0,12.132923872213642 L383.0,11.067627457812078 L382.0,9.408389392193499 L381.0,7.317627457812034 L380.0,4.999999999999912 L379.0,2.682372542187899 L378.0,0.5916106078064445 L377.0,-1.067627457812181 L376.0,-2.13292387221363 L375.0,-2.5 L374.0,-2.1329238722136656 L373.0,-1.067627457812062 L372.0,0.5916106078065226 L371.0,2.6823725421879905 L370.0,5.000000000000007 L369.0,7.317627457812125 L368.0,9.408389392193662 L367.0,11.06762745781207 L366.0,12.13292387221367 L365.0,12.5 L364.0,12.132923872213624 L363.0,11.067627457812108 L362.0,9.408389392193456 L361.0,7.317627457812087 L360.0,4.999999999999967 L359.0,2.682372542187749 L358.0,0.5916106078064898 L357.0,-1.067627457812148 L356.0,-2.132923872213645 L355.0,-2.5 L354.0,-2.1329238722136497 L353.0,-1.0676274578120317 L352.0,0.5916106078064782 L351.0,2.6823725421879376 L350.0,5.000000000000165 L349.0,7.317627457812073 L348.0,9.408389392193618 L347.0,11.067627457812101 L346.0,12.132923872213686 L345.0,12.5 L344.0,12.13292387221361 L343.0,11.067627457812142 L342.0,9.408389392193502 L341.0,7.317627457811936 L340.0,5.000000000000022 L339.0,2.6823725421878013 L338.0,0.591610607806448 L337.0,-1.0676274578121783 L336.0,-2.132923872213661 L335.0,-2.5 L334.0,-2.1329238722136674 L333.0,-1.0676274578120646 L332.0,0.5916106078063468 L331.0,2.6823725421878852 L330.0,5.00000000000011 L329.0,7.317627457812122 L328.0,9.408389392193659 L327.0,11.067627457812131 L326.0,12.132923872213702 L325.0,12.5 L324.0,12.132923872213627 L323.0,11.06762745781205 L322.0,9.408389392193545 L321.0,7.31762745781209 L320.0,4.999999999999971 L319.0,2.6823725421878537 L318.0,0.5916106078064063 L317.0,-1.0676274578120832 L316.0,-2.1329238722136443 L315.0,-2.5 L314.0,-2.1329238722136186 L313.0,-1.0676274578120966 L312.0,0.5916106078064747 L311.0,2.682372542187934 L310.0,5.000000000000055 L309.0,7.31762745781217 L308.0,9.408389392193529 L307.0,11.0676274578121 L306.0,12.132923872213652 L305.0,12.5 L304.0,12.132923872213643 L303.0,11.067627457812081 L302.0,9.408389392193504 L301.0,7.3176274578120415 L300.0,4.999999999999919 L299.0,2.682372542187906 L298.0,0.5916106078064507 L297.0,-1.0676274578121134 L296.0,-2.1329238722136274 L295.0,-2.5 L294.0,-2.1329238722136683 L293.0,-1.0676274578120664 L292.0,0.5916106078065164 L291.0,2.6823725421879834 L290.0,5.0 L289.0,7.317627457812119 L288.0,9.40838939219357 L287.0,11.067627457812065 L286.0,12.132923872213635 L285.0,12.5 L284.0,12.13292387221366 L283.0,11.067627457812115 L282.0,9.408389392193463 L281.0,7.317627457812094 L280.0,4.999999999999974 L279.0,2.6823725421878573 L278.0,0.591610607806496 L277.0,-1.0676274578120815 L276.0,-2.1329238722136434 L275.0,-2.5 L274.0,-2.1329238722136523 L273.0,-1.0676274578121614 L272.0,0.5916106078063859 L271.0,2.682372542187931 L270.0,5.0000000000000515 L269.0,7.3176274578120655 L268.0,9.408389392193525 L267.0,11.067627457812097 L266.0,12.132923872213652 L265.0,12.5 L264.0,12.132923872213677 L263.0,11.067627457812145 L262.0,9.408389392193508 L261.0,7.317627457812044 L260.0,5.000000000000029 L259.0,2.6823725421879097 L258.0,0.5916106078064542 L257.0,-1.0676274578121117 L256.0,-2.1329238722136594 L255.0,-2.5 L254.0,-2.1329238722136363 L253.0,-1.0676274578121312 L252.0,0.5916106078064276 L251.0,2.682372542187878 L250.0,5.000000000000103 L249.0,7.3176274578122165 L248.0,9.408389392193566 L247.0,11.067627457812126 L246.0,12.132923872213667 L245.0,12.5 L244.0,12.132923872213661 L243.0,11.067627457812115 L242.0,9.408389392193552 L241.0,7.3176274578120974 L240.0,4.999999999999871 L239.0,2.682372542187861 L238.0,0.5916106078064125 L237.0,-1.0676274578121419 L236.0,-2.1329238722136745 L235.0,-2.5 L234.0,-2.132923872213653 L233.0,-1.067627457812101 L232.0,0.5916106078064693 L231.0,2.6823725421878257 L230.0,4.999999999999941 L229.0,7.317627457812163 L228.0,9.408389392193609 L227.0,11.067627457812158 L226.0,12.132923872213649 L225.0,12.5 L224.0,12.132923872213645 L223.0,11.067627457812087 L222.0,9.408389392193596 L221.0,7.317627457812149 L220.0,4.999999999999926 L219.0,2.682372542187913 L218.0,0.5916106078063708 L217.0,-1.067627457812109 L216.0,-2.1329238722136585 L215.0,-2.5 L214.0,-2.132923872213637 L213.0,-1.067627457812133 L212.0,0.591610607806424 L211.0,2.6823725421879763 L210.0,4.999999999999993 L209.0,7.317627457812112 L208.0,9.408389392193563 L207.0,11.067627457812126 L206.0,12.132923872213667 L205.0,12.5 L204.0,12.132923872213663 L203.0,11.067627457812119 L202.0,9.408389392193513 L201.0,7.317627457812101 L200.0,4.999999999999981 L199.0,2.6823725421878644 L198.0,0.5916106078064578 L197.0,-1.06762745781214 L196.0,-2.1329238722136576 L195.0,-2.5 L194.0,-2.132923872213655 L193.0,-1.0676274578120717 L192.0,0.5916106078064658 L191.0,2.682372542187924 L190.0,5.000000000000044 L189.0,7.31762745781211 L188.0,9.40838939219352 L187.0,11.067627457812092 L186.0,12.132923872213667 L185.0,12.5 L184.0,12.132923872213631 L183.0,11.067627457812087 L182.0,9.408389392193513 L181.0,7.317627457812051 L180.0,4.999999999999983 L179.0,2.6823725421879168 L178.0,0.5916106078064596 L177.0,-1.0676274578121072 L176.0,-2.1329238722136568 L175.0,-2.5 L174.0,-2.132923872213639 L173.0,-1.0676274578120726 L172.0,0.5916106078065075 L171.0,2.682372542187922 L170.0,4.999999999999989 L169.0,7.317627457812108 L168.0,9.40838939219356 L167.0,11.06762745781209 L166.0,12.132923872213631 L165.0,12.5 L164.0,12.132923872213631 L163.0,11.067627457812058 L162.0,9.408389392193516 L161.0,7.3176274578121046 L160.0,4.999999999999985 L159.0,2.682372542187868 L158.0,0.5916106078064614 L157.0,-1.0676274578121374 L156.0,-2.1329238722136568 L155.0,-2.5 L154.0,-2.132923872213656 L153.0,-1.0676274578121054 L152.0,0.5916106078064631 L151.0,2.6823725421879203 L150.0,5.000000000000041 L149.0,7.317627457812106 L148.0,9.408389392193516 L147.0,11.06762745781209 L146.0,12.132923872213663 L145.0,12.5 L144.0,12.132923872213647 L143.0,11.067627457812122 L142.0,9.408389392193559 L141.0,7.317627457812056 L140.0,4.999999999999988 L139.0,2.6823725421879203 L138.0,0.5916106078064631 L137.0,-1.0676274578121054 L136.0,-2.132923872213639 L135.0,-2.5 L134.0,-2.1329238722136568 L133.0,-1.0676274578121063 L132.0,0.5916106078064178 L131.0,2.682372542187918 L130.0,4.999999999999985 L129.0,7.3176274578121046 L128.0,9.408389392193557 L127.0,11.067627457812119 L126.0,12.132923872213647 L125.0,12.5 L124.0,12.132923872213649 L123.0,11.06762745781209 L122.0,9.40838939219356 L121.0,7.317627457812108 L120.0,4.999999999999936 L119.0,2.682372542187871 L118.0,0.5916106078064214 L117.0,-1.0676274578121046 L116.0,-2.132923872213655 L115.0,-2.5 L114.0,-2.1329238722136408 L113.0,-1.0676274578121072 L112.0,0.5916106078064596 L111.0,2.6823725421878657 L110.0,5.000000000000036 L109.0,7.317627457812153 L108.0,9.408389392193557 L107.0,11.067627457812119 L106.0,12.132923872213645 L105.0,12.5 L104.0,12.132923872213649 L103.0,11.067627457812092 L102.0,9.408389392193563 L101.0,7.317627457812084 L100.0,4.999999999999991 L99.0,2.682372542187898 L98.0,0.5916106078064436 L97.0,-1.0676274578121037 L96.0,-2.132923872213655 L95.0,-2.5 L94.0,-2.1329238722136576 L93.0,-1.0676274578120921 L92.0,0.59161060780648 L91.0,2.682372542187915 L90.0,5.000000000000008 L89.0,7.317627457812101 L88.0,9.408389392193556 L87.0,11.067627457812119 L86.0,12.132923872213663 L85.0,12.5 L84.0,12.132923872213649 L83.0,11.067627457812126 L82.0,9.40838939219352 L81.0,7.317627457812086 L80.0,4.999999999999993 L79.0,2.6823725421879 L78.0,0.5916106078064454 L77.0,-1.0676274578121019 L76.0,-2.132923872213654 L75.0,-2.5 L74.0,-2.1329238722136585 L73.0,-1.067627457812094 L72.0,0.5916106078064569 L71.0,2.682372542187888 L70.0,5.000000000000006 L69.0,7.317627457812099 L68.0,9.40838939219353 L67.0,11.067627457812101 L66.0,12.132923872213645 L65.0,12.5 L64.0,12.132923872213649 L63.0,11.06762745781211 L62.0,9.408389392193543 L61.0,7.317627457812113 L60.0,4.999999999999968 L59.0,2.682372542187877 L58.0,0.5916106078064471 L57.0,-1.067627457812117 L56.0,-2.132923872213653 L55.0,-2.5 L54.0,-2.1329238722136505 L53.0,-1.0676274578121108 L52.0,0.591610607806456 L51.0,2.682372542187886 L50.0,5.000000000000004 L49.0,7.31762745781211 L48.0,9.408389392193552 L47.0,11.067627457812101 L46.0,12.132923872213658 L45.0,12.5 L44.0,12.13292387221365 L43.0,11.067627457812096 L42.0,9.408389392193545 L41.0,7.3176274578120895 L40.0,4.9999999999999964 L39.0,2.682372542187891 L38.0,0.5916106078064489 L37.0,-1.0676274578121001 L36.0,-2.132923872213653 L35.0,-2.5 L34.0,-2.132923872213655 L33.0,-1.0676274578121117 L32.0,0.5916106078064542 L31.0,2.6823725421878972 L30.0,5.000000000000016 L29.0,7.317627457812108 L28.0,9.40838939219355 L27.0,11.067627457812106 L26.0,12.132923872213652 L25.0,12.5 L24.0,12.132923872213652 L23.0,11.067627457812101 L22.0,9.408389392193547 L21.0,7.317627457812104 L20.0,4.999999999999998 L19.0,2.682372542187893 L18.0,0.5916106078064498 L17.0,-1.0676274578121028 L16.0,-2.1329238722136523 L15.0,-2.5 L14.0,-2.1329238722136514 L13.0,-1.0676274578121054 L12.0,0.5916106078064525 L11.0,2.6823725421878954 L10.0,5.000000000000001 L9.0,7.317627457812106 L8.0,9.408389392193548 L7.0,11.067627457812106 L6.0,12.132923872213652 L5.0,12.5 L4.0,12.132923872213652 L3.0,11.067627457812106 L2.0,9.408389392193548 L1.0,7.317627457812105 L0.0,5.0" stroke-width="2" stroke-linecap="round" stroke="#000000" fill="none"  />
<!-- Footer -->
</svg>
