<!-- Header -->
<svg
    version="1.1"
    baseProfile="full"
    xmlns="http://www.w3.org/2000/svg"
    xmlns:xlink="http://www.w3.org/1999/xlink"
    xmlns:ev="http://www.w3.org/2001/xml-events"
    width="400.0"
    height="20.0"
    viewBox="-1.0 -6.0 402.0 22.0"
    preserveAspectRatio="none"
>
<!-- Body -->
<!-- Path -->
<path d="M0.0,0.0 L1.0,0.31395259764656686 L2.0,0.6266661678215213 L3.0,0.936906572928623 L4.0,1.243449435824274 L5.0,1.545084971874737 L6.0,1.8406227634233896 L7.0,2.1288964578253635 L8.0,2.4087683705085765 L9.0,2.679133974894983 L10.0,2.938926261462366 L11.0,3.1871199487434483 L12.0,3.422735529643443 L13.0,3.644843137107058 L14.0,3.852566213878946 L15.0,4.045084971874736 L16.0,4.221639627510076 L17.0,4.381533400219318 L18.0,4.524135262330098 L19.0,4.648882429441256 L20.0,4.755282581475767 L21.0,4.842915805643155 L22.0,4.911436253643443 L23.0,4.960573506572389 L24.0,4.990133642141358 L25.0,5.0 L26.0,4.990133642141358 L27.0,4.9605735065723895 L28.0,4.911436253643443 L29.0,4.842915805643155 L30.0,4.755282581475768 L31.0,4.648882429441257 L32.0,4.524135262330097 L33.0,4.381533400219317 L34.0,4.221639627510075 L35.0,4.045084971874737 L36.0,3.852566213878946 L37.0,3.644843137107057 L38.0,3.422735529643444 L39.0,3.187119948743449 L40.0,2.9389262614623664 L41.0,2.679133974894985 L42.0,2.408768370508576 L43.0,2.1288964578253644 L44.0,1.8406227634233907 L45.0,1.5450849718747375 L46.0,1.2434494358242763 L47.0,0.9369065729286229 L48.0,0.6266661678215226 L49.0,0.3139525976465679 L50.0,6.123233995736766e-16 L51.0,-0.31395259764656674 L52.0,-0.6266661678215214 L53.0,-0.9369065729286239 L54.0,-1.243449435824273 L55.0,-1.5450849718747364 L56.0,-1.8406227634233896 L57.0,-2.1288964578253613 L58.0,-2.408768370508577 L59.0,-2.6791339748949823 L60.0,-2.9389262614623632 L61.0,-3.1871199487434483 L62.0,-3.422735529643442 L63.0,-3.644843137107058 L64.0,-3.852566213878947 L65.0,-4.045084971874736 L66.0,-4.2216396275100765 L67.0,-4.381533400219318 L68.0,-4.524135262330099 L69.0,-4.648882429441257 L70.0,-4.755282581475767 L71.0,-4.842915805643156 L72.0,-4.911436253643443 L73.0,-4.960573506572389 L74.0,-4.990133642141358 L75.0,-5.0 L76.0,-4.990133642141358 L77.0,-4.9605735065723895 L78.0,-4.911436253643443 L79.0,-4.842915805643155 L80.0,-4.755282581475768 L81.0,-4.648882429441258 L82.0,-4.524135262330099 L83.0,-4.3815334002193165 L84.0,-4.221639627510075 L85.0,-4.045084971874738 L86.0,-3.852566213878948 L87.0,-3.6448431371070606 L88.0,-3.422735529643445 L89.0,-3.1871199487434483 L90.0,-2.938926261462367 L91.0,-2.6791339748949854 L92.0,-2.4087683705085805 L93.0,-2.128896457825365 L94.0,-1.8406227634233894 L95.0,-1.5450849718747381 L96.0,-1.2434494358242767 L97.0,-0.9369065729286234 L98.0,-0.6266661678215233 L99.0,-0.3139525976465663 L100.0,-1.2246467991473533e-15 L101.0,0.3139525976465639 L102.0,0.6266661678215208 L103.0,0.936906572928621 L104.0,1.2434494358242745 L105.0,1.545084971874736 L106.0,1.840622763423391 L107.0,2.1288964578253626 L108.0,2.4087683705085743 L109.0,2.67913397489498 L110.0,2.9389262614623646 L111.0,3.18711994874345 L112.0,3.422735529643443 L113.0,3.644843137107056 L114.0,3.8525662138789434 L115.0,4.045084971874739 L116.0,4.221639627510076 L117.0,4.381533400219318 L118.0,4.5241352623300966 L119.0,4.648882429441255 L120.0,4.755282581475766 L121.0,4.842915805643156 L122.0,4.911436253643443 L123.0,4.960573506572389 L124.0,4.990133642141358 L125.0,5.0 L126.0,4.990133642141358 L127.0,4.9605735065723895 L128.0,4.911436253643443 L129.0,4.842915805643155 L130.0,4.755282581475768 L131.0,4.648882429441258 L132.0,4.5241352623300966 L133.0,4.3815334002193165 L134.0,4.221639627510076 L135.0,4.045084971874738 L136.0,3.852566213878943 L137.0,3.644843137107055 L138.0,3.422735529643442 L139.0,3.1871199487434487 L140.0,2.938926261462367 L141.0,2.6791339748949863 L142.0,2.4087683705085734 L143.0,2.1288964578253617 L144.0,1.8406227634233898 L145.0,1.545084971874739 L146.0,1.2434494358242774 L147.0,0.9369065729286197 L148.0,0.6266661678215195 L149.0,0.3139525976465669 L150.0,1.8369701987210296e-15 L151.0,-0.31395259764656325 L152.0,-0.6266661678215159 L153.0,-0.9369065729286248 L154.0,-1.2434494358242738 L155.0,-1.5450849718747353 L156.0,-1.8406227634233863 L157.0,-2.128896457825358 L158.0,-2.408768370508578 L159.0,-2.6791339748949827 L160.0,-2.938926261462364 L161.0,-3.1871199487434456 L162.0,-3.422735529643439 L163.0,-3.6448431371070527 L164.0,-3.8525662138789403 L165.0,-4.045084971874731 L166.0,-4.221639627510078 L167.0,-4.38153340021932 L168.0,-4.524135262330098 L169.0,-4.648882429441256 L170.0,-4.755282581475767 L171.0,-4.8429158056431545 L172.0,-4.911436253643442 L173.0,-4.960573506572389 L174.0,-4.990133642141357 L175.0,-5.0 L176.0,-4.990133642141358 L177.0,-4.960573506572389 L178.0,-4.911436253643443 L179.0,-4.842915805643156 L180.0,-4.755282581475769 L181.0,-4.648882429441258 L182.0,-4.5241352623301 L183.0,-4.381533400219322 L184.0,-4.22163962751008 L185.0,-4.045084971874738 L186.0,-3.852566213878949 L187.0,-3.6448431371070553 L188.0,-3.4227355296434423 L189.0,-3.1871199487434487 L190.0,-2.9389262614623672 L191.0,-2.6791339748949867 L192.0,-2.4087683705085814 L193.0,-2.12889645782537 L194.0,-1.8406227634233905 L195.0,-1.5450849718747395 L196.0,-1.243449435824278 L197.0,-0.936906572928629 L198.0,-0.6266661678215201 L199.0,-0.3139525976465676 L200.0,-2.4492935982947065e-15 L201.0,0.31395259764656264 L202.0,0.6266661678215152 L203.0,0.9369065729286242 L204.0,1.2434494358242734 L205.0,1.5450849718747348 L206.0,1.8406227634233856 L207.0,2.1288964578253577 L208.0,2.408768370508577 L209.0,2.6791339748949823 L210.0,2.9389262614623632 L211.0,3.1871199487434456 L212.0,3.4227355296434454 L213.0,3.6448431371070584 L214.0,3.8525662138789456 L215.0,4.0450849718747355 L216.0,4.221639627510073 L217.0,4.381533400219315 L218.0,4.524135262330094 L219.0,4.648882429441256 L220.0,4.755282581475767 L221.0,4.842915805643156 L222.0,4.911436253643444 L223.0,4.9605735065723895 L224.0,4.990133642141358 L225.0,5.0 L226.0,4.990133642141358 L227.0,4.9605735065723895 L228.0,4.911436253643445 L229.0,4.842915805643158 L230.0,4.755282581475766 L231.0,4.648882429441255 L232.0,4.5241352623300966 L233.0,4.381533400219318 L234.0,4.221639627510076 L235.0,4.045084971874739 L236.0,3.852566213878949 L237.0,3.6448431371070624 L238.0,3.4227355296434494 L239.0,3.1871199487434563 L240.0,2.9389262614623752 L241.0,2.679133974894979 L242.0,2.4087683705085743 L243.0,2.1288964578253626 L244.0,1.840622763423391 L245.0,1.54508497187474 L246.0,1.2434494358242785 L247.0,0.9369065729286297 L248.0,0.6266661678215295 L249.0,0.313952597646577 L250.0,1.1943401194869634e-14 L251.0,-0.3139525976465709 L252.0,-0.6266661678215235 L253.0,-0.9369065729286236 L254.0,-1.2434494358242727 L255.0,-1.5450849718747426 L256.0,-1.8406227634233936 L257.0,-2.1288964578253653 L258.0,-2.4087683705085765 L259.0,-2.679133974894982 L260.0,-2.938926261462363 L261.0,-3.1871199487434447 L262.0,-3.4227355296434387 L263.0,-3.6448431371070638 L264.0,-3.8525662138789505 L265.0,-4.045084971874741 L266.0,-4.221639627510077 L267.0,-4.381533400219319 L268.0,-4.524135262330098 L269.0,-4.648882429441256 L270.0,-4.755282581475767 L271.0,-4.8429158056431545 L272.0,-4.911436253643445 L273.0,-4.96057350657239 L274.0,-4.990133642141358 L275.0,-5.0 L276.0,-4.990133642141358 L277.0,-4.960573506572389 L278.0,-4.911436253643443 L279.0,-4.842915805643156 L280.0,-4.755282581475769 L281.0,-4.648882429441259 L282.0,-4.524135262330101 L283.0,-4.381533400219314 L284.0,-4.221639627510071 L285.0,-4.045084971874734 L286.0,-3.8525662138789443 L287.0,-3.6448431371070567 L288.0,-3.4227355296434436 L289.0,-3.18711994874345 L290.0,-2.9389262614623686 L291.0,-2.6791339748949876 L292.0,-2.4087683705085827 L293.0,-2.1288964578253715 L294.0,-1.8406227634233832 L295.0,-1.545084971874732 L296.0,-1.2434494358242705 L297.0,-0.9369065729286215 L298.0,-0.6266661678215213 L299.0,-0.31395259764656874 L300.0,-3.673940397442059e-15 L301.0,0.31395259764656147 L302.0,0.6266661678215141 L303.0,0.9369065729286142 L304.0,1.2434494358242634 L305.0,1.545084971874742 L306.0,1.840622763423393 L307.0,2.128896457825365 L308.0,2.408768370508576 L309.0,2.679133974894982 L310.0,2.9389262614623624 L311.0,3.1871199487434443 L312.0,3.422735529643438 L313.0,3.644843137107051 L314.0,3.852566213878939 L315.0,4.04508497187474 L316.0,4.221639627510077 L317.0,4.381533400219318 L318.0,4.524135262330097 L319.0,4.648882429441256 L320.0,4.755282581475766 L321.0,4.8429158056431545 L322.0,4.911436253643442 L323.0,4.960573506572389 L324.0,4.990133642141357 L325.0,5.0 L326.0,4.990133642141359 L327.0,4.960573506572389 L328.0,4.911436253643447 L329.0,4.842915805643156 L330.0,4.755282581475775 L331.0,4.648882429441259 L332.0,4.524135262330093 L333.0,4.381533400219323 L334.0,4.221639627510072 L335.0,4.045084971874745 L336.0,3.8525662138789443 L337.0,3.6448431371070686 L338.0,3.4227355296434436 L339.0,3.1871199487434643 L340.0,2.938926261462369 L341.0,2.679133974895003 L342.0,2.408768370508583 L343.0,2.128896457825356 L344.0,1.8406227634234005 L345.0,1.5450849718747328 L346.0,1.2434494358242885 L347.0,0.936906572928622 L348.0,0.6266661678215396 L349.0,0.31395259764656935 L350.0,2.204983219101824e-14 L351.0,-0.3139525976465608 L352.0,-0.6266661678215134 L353.0,-0.9369065729286137 L354.0,-1.24344943582428 L355.0,-1.5450849718747244 L356.0,-1.8406227634233923 L357.0,-2.128896457825348 L358.0,-2.4087683705085756 L359.0,-2.679133974894966 L360.0,-2.9389262614623624 L361.0,-3.187119948743444 L362.0,-3.4227355296434374 L363.0,-3.6448431371070633 L364.0,-3.8525662138789385 L365.0,-4.04508497187474 L366.0,-4.221639627510067 L367.0,-4.381533400219318 L368.0,-4.5241352623300894 L369.0,-4.648882429441256 L370.0,-4.755282581475766 L371.0,-4.8429158056431545 L372.0,-4.911436253643442 L373.0,-4.960573506572388 L374.0,-4.990133642141358 L375.0,-5.0 L376.0,-4.990133642141358 L377.0,-4.960573506572391 L378.0,-4.911436253643443 L379.0,-4.842915805643156 L380.0,-4.755282581475769 L381.0,-4.64888242944126 L382.0,-4.524135262330101 L383.0,-4.381533400219323 L384.0,-4.221639627510082 L385.0,-4.045084971874735 L386.0,-3.8525662138789563 L387.0,-3.644843137107057 L388.0,-3.422735529643444 L389.0,-3.187119948743451 L390.0,-2.9389262614623695 L391.0,-2.679133974894989 L392.0,-2.408768370508584 L393.0,-2.1288964578253724 L394.0,-1.840622763423401 L395.0,-1.5450849718747504 L396.0,-1.2434494358242718 L397.0,-0.9369065729286228 L398.0,-0.6266661678215225 L399.0,-0.31395259764657 L400.0,-4.898587196589413e-15 L400.0,9.999999999999995 L399.0,9.68604740235343 L398.0,9.373333832178478 L397.0,9.063093427071378 L396.0,8.756550564175729 L395.0,8.45491502812525 L394.0,8.1593772365766 L393.0,7.871103542174628 L392.0,7.591231629491416 L391.0,7.320866025105011 L390.0,7.0610737385376305 L389.0,6.812880051256549 L388.0,6.577264470356556 L387.0,6.355156862892943 L386.0,6.147433786121043 L385.0,5.954915028125265 L384.0,5.778360372489918 L383.0,5.618466599780677 L382.0,5.475864737669899 L381.0,5.35111757055874 L380.0,5.244717418524231 L379.0,5.157084194356844 L378.0,5.088563746356557 L377.0,5.039426493427609 L376.0,5.009866357858642 L375.0,5.0 L374.0,5.009866357858642 L373.0,5.039426493427612 L372.0,5.088563746356558 L371.0,5.1570841943568455 L370.0,5.244717418524234 L369.0,5.351117570558744 L368.0,5.4758647376699106 L367.0,5.618466599780682 L366.0,5.778360372489933 L365.0,5.95491502812526 L364.0,6.147433786121061 L363.0,6.355156862892937 L362.0,6.577264470356562 L361.0,6.812880051256556 L360.0,7.061073738537638 L359.0,7.320866025105034 L358.0,7.591231629491425 L357.0,7.871103542174652 L356.0,8.159377236576608 L355.0,8.454915028125276 L354.0,8.75655056417572 L353.0,9.063093427071387 L352.0,9.373333832178487 L351.0,9.68604740235344 L350.0,10.000000000000021 L349.0,10.31395259764657 L348.0,10.62666616782154 L347.0,10.936906572928622 L346.0,11.243449435824289 L345.0,11.545084971874733 L344.0,11.8406227634234 L343.0,12.128896457825356 L342.0,12.408768370508582 L341.0,12.679133974895002 L340.0,12.938926261462369 L339.0,13.187119948743465 L338.0,13.422735529643443 L337.0,13.644843137107069 L336.0,13.852566213878944 L335.0,14.045084971874745 L334.0,14.221639627510072 L333.0,14.381533400219322 L332.0,14.524135262330093 L331.0,14.648882429441258 L330.0,14.755282581475775 L329.0,14.842915805643155 L328.0,14.911436253643448 L327.0,14.960573506572388 L326.0,14.990133642141359 L325.0,15.0 L324.0,14.990133642141357 L323.0,14.960573506572388 L322.0,14.911436253643442 L321.0,14.842915805643155 L320.0,14.755282581475766 L319.0,14.648882429441256 L318.0,14.524135262330098 L317.0,14.381533400219318 L316.0,14.221639627510077 L315.0,14.04508497187474 L314.0,13.852566213878939 L313.0,13.64484313710705 L312.0,13.422735529643438 L311.0,13.187119948743444 L310.0,12.938926261462363 L309.0,12.679133974894981 L308.0,12.408768370508575 L307.0,12.128896457825364 L306.0,11.840622763423394 L305.0,11.545084971874742 L304.0,11.243449435824264 L303.0,10.936906572928613 L302.0,10.626666167821513 L301.0,10.313952597646562 L300.0,9.999999999999996 L299.0,9.68604740235343 L298.0,9.373333832178478 L297.0,9.06309342707138 L296.0,8.756550564175729 L295.0,8.454915028125267 L294.0,8.159377236576617 L293.0,7.8711035421746285 L292.0,7.591231629491418 L291.0,7.320866025105012 L290.0,7.061073738537631 L289.0,6.81288005125655 L288.0,6.577264470356557 L287.0,6.355156862892944 L286.0,6.147433786121056 L285.0,5.954915028125266 L284.0,5.778360372489929 L283.0,5.618466599780686 L282.0,5.475864737669899 L281.0,5.351117570558741 L280.0,5.244717418524231 L279.0,5.157084194356844 L278.0,5.088563746356557 L277.0,5.039426493427611 L276.0,5.009866357858642 L275.0,5.0 L274.0,5.009866357858642 L273.0,5.03942649342761 L272.0,5.088563746356555 L271.0,5.1570841943568455 L270.0,5.244717418524233 L269.0,5.351117570558744 L268.0,5.475864737669902 L267.0,5.618466599780681 L266.0,5.778360372489923 L265.0,5.954915028125259 L264.0,6.1474337861210495 L263.0,6.355156862892937 L262.0,6.577264470356561 L261.0,6.812880051256555 L260.0,7.061073738537637 L259.0,7.320866025105018 L258.0,7.591231629491423 L257.0,7.871103542174635 L256.0,8.159377236576606 L255.0,8.454915028125257 L254.0,8.756550564175727 L253.0,9.063093427071376 L252.0,9.373333832178476 L251.0,9.686047402353429 L250.0,10.000000000000012 L249.0,10.313952597646576 L248.0,10.62666616782153 L247.0,10.93690657292863 L246.0,11.243449435824278 L245.0,11.54508497187474 L244.0,11.84062276342339 L243.0,12.128896457825363 L242.0,12.408768370508575 L241.0,12.67913397489498 L240.0,12.938926261462376 L239.0,13.187119948743456 L238.0,13.42273552964345 L237.0,13.644843137107063 L236.0,13.85256621387895 L235.0,14.04508497187474 L234.0,14.221639627510076 L233.0,14.381533400219318 L232.0,14.524135262330097 L231.0,14.648882429441255 L230.0,14.755282581475766 L229.0,14.842915805643159 L228.0,14.911436253643444 L227.0,14.96057350657239 L226.0,14.990133642141359 L225.0,15.0 L224.0,14.990133642141359 L223.0,14.96057350657239 L222.0,14.911436253643444 L221.0,14.842915805643155 L220.0,14.755282581475768 L219.0,14.648882429441256 L218.0,14.524135262330095 L217.0,14.381533400219315 L216.0,14.221639627510072 L215.0,14.045084971874736 L214.0,13.852566213878946 L213.0,13.644843137107058 L212.0,13.422735529643445 L211.0,13.187119948743446 L210.0,12.938926261462363 L209.0,12.679133974894983 L208.0,12.408768370508577 L207.0,12.128896457825357 L206.0,11.840622763423386 L205.0,11.545084971874735 L204.0,11.243449435824273 L203.0,10.936906572928624 L202.0,10.626666167821515 L201.0,10.313952597646562 L200.0,9.999999999999998 L199.0,9.686047402353433 L198.0,9.37333383217848 L197.0,9.06309342707137 L196.0,8.756550564175722 L195.0,8.45491502812526 L194.0,8.15937723657661 L193.0,7.87110354217463 L192.0,7.591231629491419 L191.0,7.320866025105014 L190.0,7.061073738537633 L189.0,6.812880051256551 L188.0,6.577264470356558 L187.0,6.355156862892945 L186.0,6.14743378612105 L185.0,5.954915028125262 L184.0,5.77836037248992 L183.0,5.618466599780678 L182.0,5.4758647376699 L181.0,5.351117570558742 L180.0,5.244717418524231 L179.0,5.157084194356844 L178.0,5.088563746356557 L177.0,5.039426493427611 L176.0,5.009866357858642 L175.0,5.0 L174.0,5.009866357858643 L173.0,5.039426493427611 L172.0,5.088563746356558 L171.0,5.1570841943568455 L170.0,5.244717418524233 L169.0,5.351117570558744 L168.0,5.475864737669902 L167.0,5.61846659978068 L166.0,5.778360372489922 L165.0,5.954915028125269 L164.0,6.147433786121059 L163.0,6.355156862892947 L162.0,6.57726447035656 L161.0,6.812880051256554 L160.0,7.061073738537636 L159.0,7.320866025105017 L158.0,7.591231629491422 L157.0,7.871103542174642 L156.0,8.159377236576614 L155.0,8.454915028125265 L154.0,8.756550564175726 L153.0,9.063093427071376 L152.0,9.373333832178485 L151.0,9.686047402353436 L150.0,10.000000000000002 L149.0,10.313952597646567 L148.0,10.626666167821519 L147.0,10.93690657292862 L146.0,11.243449435824278 L145.0,11.54508497187474 L144.0,11.84062276342339 L143.0,12.128896457825363 L142.0,12.408768370508573 L141.0,12.679133974894986 L140.0,12.938926261462367 L139.0,13.18711994874345 L138.0,13.422735529643441 L137.0,13.644843137107054 L136.0,13.852566213878942 L135.0,14.045084971874738 L134.0,14.221639627510076 L133.0,14.381533400219316 L132.0,14.524135262330097 L131.0,14.648882429441258 L130.0,14.755282581475768 L129.0,14.842915805643155 L128.0,14.911436253643444 L127.0,14.96057350657239 L126.0,14.990133642141359 L125.0,15.0 L124.0,14.990133642141359 L123.0,14.960573506572388 L122.0,14.911436253643444 L121.0,14.842915805643155 L120.0,14.755282581475766 L119.0,14.648882429441255 L118.0,14.524135262330097 L117.0,14.381533400219318 L116.0,14.221639627510076 L115.0,14.04508497187474 L114.0,13.852566213878944 L113.0,13.644843137107056 L112.0,13.422735529643443 L111.0,13.187119948743451 L110.0,12.938926261462365 L109.0,12.679133974894981 L108.0,12.408768370508575 L107.0,12.128896457825363 L106.0,11.84062276342339 L105.0,11.545084971874736 L104.0,11.243449435824274 L103.0,10.93690657292862 L102.0,10.62666616782152 L101.0,10.313952597646564 L100.0,9.999999999999998 L99.0,9.686047402353434 L98.0,9.373333832178476 L97.0,9.063093427071376 L96.0,8.756550564175724 L95.0,8.454915028125262 L94.0,8.15937723657661 L93.0,7.871103542174636 L92.0,7.5912316294914195 L91.0,7.320866025105015 L90.0,7.061073738537633 L89.0,6.812880051256552 L88.0,6.577264470356555 L87.0,6.355156862892939 L86.0,6.147433786121052 L85.0,5.954915028125262 L84.0,5.778360372489925 L83.0,5.6184665997806835 L82.0,5.475864737669901 L81.0,5.351117570558742 L80.0,5.244717418524232 L79.0,5.157084194356845 L78.0,5.088563746356557 L77.0,5.0394264934276105 L76.0,5.009866357858642 L75.0,5.0 L74.0,5.009866357858642 L73.0,5.039426493427611 L72.0,5.088563746356557 L71.0,5.157084194356844 L70.0,5.244717418524233 L69.0,5.351117570558743 L68.0,5.475864737669901 L67.0,5.618466599780682 L66.0,5.7783603724899235 L65.0,5.954915028125264 L64.0,6.147433786121053 L63.0,6.355156862892942 L62.0,6.577264470356559 L61.0,6.812880051256552 L60.0,7.061073738537637 L59.0,7.320866025105017 L58.0,7.591231629491423 L57.0,7.871103542174639 L56.0,8.15937723657661 L55.0,8.454915028125264 L54.0,8.756550564175727 L53.0,9.063093427071376 L52.0,9.373333832178478 L51.0,9.686047402353433 L50.0,10.0 L49.0,10.313952597646567 L48.0,10.626666167821522 L47.0,10.936906572928622 L46.0,11.243449435824276 L45.0,11.545084971874738 L44.0,11.84062276342339 L43.0,12.128896457825364 L42.0,12.408768370508575 L41.0,12.679133974894985 L40.0,12.938926261462367 L39.0,13.18711994874345 L38.0,13.422735529643443 L37.0,13.644843137107056 L36.0,13.852566213878946 L35.0,14.045084971874736 L34.0,14.221639627510076 L33.0,14.381533400219318 L32.0,14.524135262330098 L31.0,14.648882429441258 L30.0,14.755282581475768 L29.0,14.842915805643155 L28.0,14.911436253643444 L27.0,14.96057350657239 L26.0,14.990133642141359 L25.0,15.0 L24.0,14.990133642141359 L23.0,14.960573506572388 L22.0,14.911436253643444 L21.0,14.842915805643155 L20.0,14.755282581475768 L19.0,14.648882429441256 L18.0,14.524135262330098 L17.0,14.381533400219318 L16.0,14.221639627510076 L15.0,14.045084971874736 L14.0,13.852566213878946 L13.0,13.644843137107058 L12.0,13.422735529643443 L11.0,13.187119948743447 L10.0,12.938926261462367 L9.0,12.679133974894983 L8.0,12.408768370508577 L7.0,12.128896457825363 L6.0,11.84062276342339 L5.0,11.545084971874736 L4.0,11.243449435824274 L3.0,10.936906572928622 L2.0,10.626666167821522 L1.0,10.313952597646567 L0.0,10.0" fill="#FFFFFF"  />
<!-- Path -->
<path d="M0.0,0.0 L1.0,0.31395259764656686 L2.0,0.6266661678215213 L3.0,0.936906572928623 L4.0,1.243449435824274 L5.0,1.545084971874737 L6.0,1.8406227634233896 L7.0,2.1288964578253635 L8.0,2.4087683705085765 L9.0,2.679133974894983 L10.0,2.938926261462366 L11.0,3.1871199487434483 L12.0,3.422735529643443 L13.0,3.644843137107058 L14.0,3.852566213878946 L15.0,4.045084971874736 L16.0,4.221639627510076 L17.0,4.381533400219318 L18.0,4.524135262330098 L19.0,4.648882429441256 L20.0,4.755282581475767 L21.0,4.842915805643155 L22.0,4.911436253643443 L23.0,4.960573506572389 L24.0,4.990133642141358 L25.0,5.0 L26.0,4.990133642141358 L27.0,4.9605735065723895 L28.0,4.911436253643443 L29.0,4.842915805643155 L30.0,4.755282581475768 L31.0,4.648882429441257 L32.0,4.524135262330097 L33.0,4.381533400219317 L34.0,4.221639627510075 L35.0,4.045084971874737 L36.0,3.852566213878946 L37.0,3.644843137107057 L38.0,3.422735529643444 L39.0,3.187119948743449 L40.0,2.9389262614623664 L41.0,2.679133974894985 L42.0,2.408768370508576 L43.0,2.1288964578253644 L44.0,1.8406227634233907 L45.0,1.5450849718747375 L46.0,1.2434494358242763 L47.0,0.9369065729286229 L48.0,0.6266661678215226 L49.0,0.3139525976465679 L50.0,6.123233995736766e-16 L51.0,-0.31395259764656674 L52.0,-0.6266661678215214 L53.0,-0.9369065729286239 L54.0,-1.243449435824273 L55.0,-1.5450849718747364 L56.0,-1.8406227634233896 L57.0,-2.1288964578253613 L58.0,-2.408768370508577 L59.0,-2.6791339748949823 L60.0,-2.9389262614623632 L61.0,-3.1871199487434483 L62.0,-3.422735529643442 L63.0,-3.644843137107058 L64.0,-3.852566213878947 L65.0,-4.045084971874736 L66.0,-4.2216396275100765 L67.0,-4.381533400219318 L68.0,-4.524135262330099 L69.0,-4.648882429441257 L70.0,-4.755282581475767 L71.0,-4.842915805643156 L72.0,-4.911436253643443 L73.0,-4.960573506572389 L74.0,-4.990133642141358 L75.0,-5.0 L76.0,-4.990133642141358 L77.0,-4.9605735065723895 L78.0,-4.911436253643443 L79.0,-4.842915805643155 L80.0,-4.755282581475768 L81.0,-4.648882429441258 L82.0,-4.524135262330099 L83.0,-4.3815334002193165 L84.0,-4.221639627510075 L85.0,-4.045084971874738 L86.0,-3.852566213878948 L87.0,-3.6448431371070606 L88.0,-3.422735529643445 L89.0,-3.1871199487434483 L90.0,-2.938926261462367 L91.0,-2.6791339748949854 L92.0,-2.4087683705085805 L93.0,-2.128896457825365 L94.0,-1.8406227634233894 L95.0,-1.5450849718747381 L96.0,-1.2434494358242767 L97.0,-0.9369065729286234 L98.0,-0.6266661678215233 L99.0,-0.3139525976465663 L100.0,-1.2246467991473533e-15 L101.0,0.3139525976465639 L102.0,0.6266661678215208 L103.0,0.936906572928621 L104.0,1.2434494358242745 L105.0,1.545084971874736 L106.0,1.840622763423391 L107.0,2.1288964578253626 L108.0,2.4087683705085743 L109.0,2.67913397489498 L110.0,2.9389262614623646 L111.0,3.18711994874345 L112.0,3.422735529643443 L113.0,3.644843137107056 L114.0,3.8525662138789434 L115.0,4.045084971874739 L116.0,4.221639627510076 L117.0,4.381533400219318 L118.0,4.5241352623300966 L119.0,4.648882429441255 L120.0,4.755282581475766 L121.0,4.842915805643156 L122.0,4.911436253643443 L123.0,4.960573506572389 L124.0,4.990133642141358 L125.0,5.0 L126.0,4.990133642141358 L127.0,4.9605735065723895 L128.0,4.911436253643443 L129.0,4.842915805643155 L130.0,4.755282581475768 L131.0,4.648882429441258 L132.0,4.5241352623300966 L133.0,4.3815334002193165 L134.0,4.221639627510076 L135.0,4.045084971874738 L136.0,3.852566213878943 L137.0,3.644843137107055 L138.0,3.422735529643442 L139.0,3.1871199487434487 L140.0,2.938926261462367 L141.0,2.6791339748949863 L142.0,2.4087683705085734 L143.0,2.1288964578253617 L144.0,1.8406227634233898 L145.0,1.545084971874739 L146.0,1.2434494358242774 L147.0,0.9369065729286197 L148.0,0.6266661678215195 L149.0,0.3139525976465669 L150.0,1.8369701987210296e-15 L151.0,-0.31395259764656325 L152.0,-0.6266661678215159 L153.0,-0.9369065729286248 L154.0,-1.2434494358242738 L155.0,-1.5450849718747353 L156.0,-1.8406227634233863 L157.0,-2.128896457825358 L158.0,-2.408768370508578 L159.0,-2.6791339748949827 L160.0,-2.938926261462364 L161.0,-3.1871199487434456 L162.0,-3.422735529643439 L163.0,-3.6448431371070527 L164.0,-3.8525662138789403 L165.0,-4.045084971874731 L166.0,-4.221639627510078 L167.0,-4.38153340021932 L168.0,-4.524135262330098 L169.0,-4.648882429441256 L170.0,-4.755282581475767 L171.0,-4.8429158056431545 L172.0,-4.911436253643442 L173.0,-4.960573506572389 L174.0,-4.990133642141357 L175.0,-5.0 L176.0,-4.990133642141358 L177.0,-4.960573506572389 L178.0,-4.911436253643443 L179.0,-4.842915805643156 L180.0,-4.755282581475769 L181.0,-4.648882429441258 L182.0,-4.5241352623301 L183.0,-4.381533400219322 L184.0,-4.22163962751008 L185.0,-4.045084971874738 L186.0,-3.852566213878949 L187.0,-3.6448431371070553 L188.0,-3.4227355296434423 L189.0,-3.1871199487434487 L190.0,-2.9389262614623672 L191.0,-2.6791339748949867 L192.0,-2.4087683705085814 L193.0,-2.12889645782537 L194.0,-1.8406227634233905 L195.0,-1.5450849718747395 L196.0,-1.243449435824278 L197.0,-0.936906572928629 L198.0,-0.6266661678215201 L199.0,-0.3139525976465676 L200.0,-2.4492935982947065e-15 L201.0,0.31395259764656264 L202.0,0.6266661678215152 L203.0,0.9369065729286242 L204.0,1.2434494358242734 L205.0,1.5450849718747348 L206.0,1.8406227634233856 L207.0,2.1288964578253577 L208.0,2.408768370508577 L209.0,2.6791339748949823 L210.0,2.9389262614623632 L211.0,3.1871199487434456 L212.0,3.4227355296434454 L213.0,3.6448431371070584 L214.0,3.8525662138789456 L215.0,4.0450849718747355 L216.0,4.221639627510073 L217.0,4.381533400219315 L218.0,4.524135262330094 L219.0,4.648882429441256 L220.0,4.755282581475767 L221.0,4.842915805643156 L222.0,4.911436253643444 L223.0,4.9605735065723895 L224.0,4.990133642141358 L225.0,5.0 L226.0,4.990133642141358 L227.0,4.9605735065723895 L228.0,4.911436253643445 L229.0,4.842915805643158 L230.0,4.755282581475766 L231.0,4.648882429441255 L232.0,4.5241352623300966 L233.0,4.381533400219318 L234.0,4.221639627510076 L235.0,4.045084971874739 L236.0,3.852566213878949 L237.0,3.6448431371070624 L238.0,3.4227355296434494 L239.0,3.1871199487434563 L240.0,2.9389262614623752 L241.0,2.679133974894979 L242.0,2.4087683705085743 L243.0,2.1288964578253626 L244.0,1.840622763423391 L245.0,1.54508497187474 L246.0,1.2434494358242785 L247.0,0.9369065729286297 L248.0,0.6266661678215295 L249.0,0.313952597646577 L250.0,1.1943401194869634e-14 L251.0,-0.3139525976465709 L252.0,-0.6266661678215235 L253.0,-0.9369065729286236 L254.0,-1.2434494358242727 L255.0,-1.5450849718747426 L256.0,-1.8406227634233936 L257.0,-2.1288964578253653 L258.0,-2.4087683705085765 L259.0,-2.679133974894982 L260.0,-2.938926261462363 L261.0,-3.1871199487434447 L262.0,-3.4227355296434387 L263.0,-3.6448431371070638 L264.0,-3.8525662138789505 L265.0,-4.045084971874741 L266.0,-4.221639627510077 L267.0,-4.381533400219319 L268.0,-4.524135262330098 L269.0,-4.648882429441256 L270.0,-4.755282581475767 L271.0,-4.8429158056431545 L272.0,-4.911436253643445 L273.0,-4.96057350657239 L274.0,-4.990133642141358 L275.0,-5.0 L276.0,-4.990133642141358 L277.0,-4.960573506572389 L278.0,-4.911436253643443 L279.0,-4.842915805643156 L280.0,-4.755282581475769 L281.0,-4.648882429441259 L282.0,-4.524135262330101 L283.0,-4.381533400219314 L284.0,-4.221639627510071 L285.0,-4.045084971874734 L286.0,-3.8525662138789443 L287.0,-3.6448431371070567 L288.0,-3.4227355296434436 L289.0,-3.18711994874345 L290.0,-2.9389262614623686 L291.0,-2.6791339748949876 L292.0,-2.4087683705085827 L293.0,-2.1288964578253715 L294.0,-1.8406227634233832 L295.0,-1.545084971874732 L296.0,-1.2434494358242705 L297.0,-0.9369065729286215 L298.0,-0.6266661678215213 L299.0,-0.31395259764656874 L300.0,-3.673940397442059e-15 L301.0,0.31395259764656147 L302.0,0.6266661678215141 L303.0,0.9369065729286142 L304.0,1.2434494358242634 L305.0,1.545084971874742 L306.0,1.840622763423393 L307.0,2.128896457825365 L308.0,2.408768370508576 L309.0,2.679133974894982 L310.0,2.9389262614623624 L311.0,3.1871199487434443 L312.0,3.422735529643438 L313.0,3.644843137107051 L314.0,3.852566213878939 L315.0,4.04508497187474 L316.0,4.221639627510077 L317.0,4.381533400219318 L318.0,4.524135262330097 L319.0,4.648882429441256 L320.0,4.755282581475766 L321.0,4.8429158056431545 L322.0,4.911436253643442 L323.0,4.960573506572389 L324.0,4.990133642141357 L325.0,5.0 L326.0,4.990133642141359 L327.0,4.960573506572389 L328.0,4.911436253643447 L329.0,4.842915805643156 L330.0,4.755282581475775 L331.0,4.648882429441259 L332.0,4.524135262330093 L333.0,4.381533400219323 L334.0,4.221639627510072 L335.0,4.045084971874745 L336.0,3.8525662138789443 L337.0,3.6448431371070686 L338.0,3.4227355296434436 L339.0,3.1871199487434643 L340.0,2.938926261462369 L341.0,2.679133974895003 L342.0,2.408768370508583 L343.0,2.128896457825356 L344.0,1.8406227634234005 L345.0,1.5450849718747328 L346.0,1.2434494358242885 L347.0,0.936906572928622 L348.0,0.6266661678215396 L349.0,0.31395259764656935 L350.0,2.204983219101824e-14 L351.0,-0.3139525976465608 L352.0,-0.6266661678215134 L353.0,-0.9369065729286137 L354.0,-1.24344943582428 L355.0,-1.5450849718747244 L356.0,-1.8406227634233923 L357.0,-2.128896457825348 L358.0,-2.4087683705085756 L359.0,-2.679133974894966 L360.0,-2.9389262614623624 L361.0,-3.187119948743444 L362.0,-3.4227355296434374 L363.0,-3.6448431371070633 L364.0,-3.8525662138789385 L365.0,-4.04508497187474 L366.0,-4.221639627510067 L367.0,-4.381533400219318 L368.0,-4.5241352623300894 L369.0,-4.648882429441256 L370.0,-4.755282581475766 L371.0,-4.8429158056431545 L372.0,-4.911436253643442 L373.0,-4.960573506572388 L374.0,-4.990133642141358 L375.0,-5.0 L376.0,-4.990133642141358 L377.0,-4.960573506572391 L378.0,-4.911436253643443 L379.0,-4.842915805643156 L380.0,-4.755282581475769 L381.0,-4.64888242944126 L382.0,-4.524135262330101 L383.0,-4.381533400219323 L384.0,-4.221639627510082 L385.0,-4.045084971874735 L386.0,-3.8525662138789563 L387.0,-3.644843137107057 L388.0,-3.422735529643444 L389.0,-3.187119948743451 L390.0,-2.9389262614623695 L391.0,-2.679133974894989 L392.0,-2.408768370508584 L393.0,-2.1288964578253724 L394.0,-1.840622763423401 L395.0,-1.5450849718747504 L396.0,-1.2434494358242718 L397.0,-0.9369065729286228 L398.0,-0.6266661678215225 L399.0,-0.31395259764657 L400.0,-4.898587196589413e-15" stroke-width="2" stroke-linecap="round" stroke="#000000" fill="none"  />
<!-- Path -->
<path d="M400.0,9.999999999999995 L399.0,9.68604740235343 L398.0,9.373333832178478 L397.0,9.063093427071378 L396.0,8.756550564175729 L395.0,8.45491502812525 L394.0,8.1593772365766 L393.0,7.871103542174628 L392.0,7.591231629491416 L391.0,7.320866025105011 L390.0,7.0610737385376305 L389.0,6.812880051256549 L388.0,6.577264470356556 L387.0,6.355156862892943 L386.0,6.147433786121043 L385.0,5.954915028125265 L384.0,5.778360372489918 L383.0,5.618466599780677 L382.0,5.475864737669899 L381.0,5.35111757055874 L380.0,5.244717418524231 L379.0,5.157084194356844 L378.0,5.088563746356557 L377.0,5.039426493427609 L376.0,5.009866357858642 L375.0,5.0 L374.0,5.009866357858642 L373.0,5.039426493427612 L372.0,5.088563746356558 L371.0,5.1570841943568455 L370.0,5.244717418524234 L369.0,5.351117570558744 L368.0,5.4758647376699106 L367.0,5.618466599780682 L366.0,5.778360372489933 L365.0,5.95491502812526 L364.0,6.147433786121061 L363.0,6.355156862892937 L362.0,6.577264470356562 L361.0,6.812880051256556 L360.0,7.061073738537638 L359.0,7.320866025105034 L358.0,7.591231629491425 L357.0,7.871103542174652 L356.0,8.159377236576608 L355.0,8.454915028125276 L354.0,8.75655056417572 L353.0,9.063093427071387 L352.0,9.373333832178487 L351.0,9.68604740235344 L350.0,10.000000000000021 L349.0,10.31395259764657 L348.0,10.62666616782154 L347.0,10.936906572928622 L346.0,11.243449435824289 L345.0,11.545084971874733 L344.0,11.8406227634234 L343.0,12.128896457825356 L342.0,12.408768370508582 L341.0,12.679133974895002 L340.0,12.938926261462369 L339.0,13.187119948743465 L338.0,13.422735529643443 L337.0,13.644843137107069 L336.0,13.852566213878944 L335.0,14.045084971874745 L334.0,14.221639627510072 L333.0,14.381533400219322 L332.0,14.524135262330093 L331.0,14.648882429441258 L330.0,14.755282581475775 L329.0,14.842915805643155 L328.0,14.911436253643448 L327.0,14.960573506572388 L326.0,14.990133642141359 L325.0,15.0 L324.0,14.990133642141357 L323.0,14.960573506572388 L322.0,14.911436253643442 L321.0,14.842915805643155 L320.0,14.755282581475766 L319.0,14.648882429441256 L318.0,14.524135262330098 L317.0,14.381533400219318 L316.0,14.221639627510077 L315.0,14.04508497187474 L314.0,13.852566213878939 L313.0,13.64484313710705 L312.0,13.422735529643438 L311.0,13.187119948743444 L310.0,12.938926261462363 L309.0,12.679133974894981 L308.0,12.408768370508575 L307.0,12.128896457825364 L306.0,11.840622763423394 L305.0,11.545084971874742 L304.0,11.243449435824264 L303.0,10.936906572928613 L302.0,10.626666167821513 L301.0,10.313952597646562 L300.0,9.999999999999996 L299.0,9.68604740235343 L298.0,9.373333832178478 L297.0,9.06309342707138 L296.0,8.756550564175729 L295.0,8.454915028125267 L294.0,8.159377236576617 L293.0,7.8711035421746285 L292.0,7.591231629491418 L291.0,7.320866025105012 L290.0,7.061073738537631 L289.0,6.81288005125655 L288.0,6.577264470356557 L287.0,6.355156862892944 L286.0,6.147433786121056 L285.0,5.954915028125266 L284.0,5.778360372489929 L283.0,5.618466599780686 L282.0,5.475864737669899 L281.0,5.351117570558741 L280.0,5.244717418524231 L279.0,5.157084194356844 L278.0,5.088563746356557 L277.0,5.039426493427611 L276.0,5.009866357858642 L275.0,5.0 L274.0,5.009866357858642 L273.0,5.03942649342761 L272.0,5.088563746356555 L271.0,5.1570841943568455 L270.0,5.244717418524233 L269.0,5.351117570558744 L268.0,5.475864737669902 L267.0,5.618466599780681 L266.0,5.778360372489923 L265.0,5.954915028125259 L264.0,6.1474337861210495 L263.0,6.355156862892937 L262.0,6.577264470356561 L261.0,6.812880051256555 L260.0,7.061073738537637 L259.0,7.320866025105018 L258.0,7.591231629491423 L257.0,7.871103542174635 L256.0,8.159377236576606 L255.0,8.454915028125257 L254.0,8.756550564175727 L253.0,9.063093427071376 L252.0,9.373333832178476 L251.0,9.686047402353429 L250.0,10.000000000000012 L249.0,10.313952597646576 L248.0,10.62666616782153 L247.0,10.93690657292863 L246.0,11.243449435824278 L245.0,11.54508497187474 L244.0,11.84062276342339 L243.0,12.128896457825363 L242.0,12.408768370508575 L241.0,12.67913397489498 L240.0,12.938926261462376 L239.0,13.187119948743456 L238.0,13.42273552964345 L237.0,13.644843137107063 L236.0,13.85256621387895 L235.0,14.04508497187474 L234.0,14.221639627510076 L233.0,14.381533400219318 L232.0,14.524135262330097 L231.0,14.648882429441255 L230.0,14.755282581475766 L229.0,14.842915805643159 L228.0,14.911436253643444 L227.0,14.96057350657239 L226.0,14.990133642141359 L225.0,15.0 L224.0,14.990133642141359 L223.0,14.96057350657239 L222.0,14.911436253643444 L221.0,14.842915805643155 L220.0,14.755282581475768 L219.0,14.648882429441256 L218.0,14.524135262330095 L217.0,14.381533400219315 L216.0,14.221639627510072 L215.0,14.045084971874736 L214.0,13.852566213878946 L213.0,13.644843137107058 L212.0,13.422735529643445 L211.0,13.187119948743446 L210.0,12.938926261462363 L209.0,12.679133974894983 L208.0,12.408768370508577 L207.0,12.128896457825357 L206.0,11.840622763423386 L205.0,11.545084971874735 L204.0,11.243449435824273 L203.0,10.936906572928624 L202.0,10.626666167821515 L201.0,10.313952597646562 L200.0,9.999999999999998 L199.0,9.686047402353433 L198.0,9.37333383217848 L197.0,9.06309342707137 L196.0,8.756550564175722 L195.0,8.45491502812526 L194.0,8.15937723657661 L193.0,7.87110354217463 L192.0,7.591231629491419 L191.0,7.320866025105014 L190.0,7.061073738537633 L189.0,6.812880051256551 L188.0,6.577264470356558 L187.0,6.355156862892945 L186.0,6.14743378612105 L185.0,5.954915028125262 L184.0,5.77836037248992 L183.0,5.618466599780678 L182.0,5.4758647376699 L181.0,5.351117570558742 L180.0,5.244717418524231 L179.0,5.157084194356844 L178.0,5.088563746356557 L177.0,5.039426493427611 L176.0,5.009866357858642 L175.0,5.0 L174.0,5.009866357858643 L173.0,5.039426493427611 L172.0,5.088563746356558 L171.0,5.1570841943568455 L170.0,5.244717418524233 L169.0,5.351117570558744 L168.0,5.475864737669902 L167.0,5.61846659978068 L166.0,5.778360372489922 L165.0,5.954915028125269 L164.0,6.147433786121059 L163.0,6.355156862892947 L162.0,6.57726447035656 L161.0,6.812880051256554 L160.0,7.061073738537636 L159.0,7.320866025105017 L158.0,7.591231629491422 L157.0,7.871103542174642 L156.0,8.159377236576614 L155.0,8.454915028125265 L154.0,8.756550564175726 L153.0,9.063093427071376 L152.0,9.373333832178485 L151.0,9.686047402353436 L150.0,10.000000000000002 L149.0,10.313952597646567 L148.0,10.626666167821519 L147.0,10.93690657292862 L146.0,11.243449435824278 L145.0,11.54508497187474 L144.0,11.84062276342339 L143.0,12.128896457825363 L142.0,12.408768370508573 L141.0,12.679133974894986 L140.0,12.938926261462367 L139.0,13.18711994874345 L138.0,13.422735529643441 L137.0,13.644843137107054 L136.0,13.852566213878942 L135.0,14.045084971874738 L134.0,14.221639627510076 L133.0,14.381533400219316 L132.0,14.524135262330097 L131.0,14.648882429441258 L130.0,14.755282581475768 L129.0,14.842915805643155 L128.0,14.911436253643444 L127.0,14.96057350657239 L126.0,14.990133642141359 L125.0,15.0 L124.0,14.990133642141359 L123.0,14.960573506572388 L122.0,14.911436253643444 L121.0,14.842915805643155 L120.0,14.755282581475766 L119.0,14.648882429441255 L118.0,14.524135262330097 L117.0,14.381533400219318 L116.0,14.221639627510076 L115.0,14.04508497187474 L114.0,13.852566213878944 L113.0,13.644843137107056 L112.0,13.422735529643443 L111.0,13.187119948743451 L110.0,12.938926261462365 L109.0,12.679133974894981 L108.0,12.408768370508575 L107.0,12.128896457825363 L106.0,11.84062276342339 L105.0,11.545084971874736 L104.0,11.243449435824274 L103.0,10.93690657292862 L102.0,10.62666616782152 L101.0,10.313952597646564 L100.0,9.999999999999998 L99.0,9.686047402353434 L98.0,9.373333832178476 L97.0,9.063093427071376 L96.0,8.756550564175724 L95.0,8.454915028125262 L94.0,8.15937723657661 L93.0,7.871103542174636 L92.0,7.5912316294914195 L91.0,7.320866025105015 L90.0,7.061073738537633 L89.0,6.812880051256552 L88.0,6.577264470356555 L87.0,6.355156862892939 L86.0,6.147433786121052 L85.0,5.954915028125262 L84.0,5.778360372489925 L83.0,5.6184665997806835 L82.0,5.475864737669901 L81.0,5.351117570558742 L80.0,5.244717418524232 L79.0,5.157084194356845 L78.0,5.088563746356557 L77.0,5.0394264934276105 L76.0,5.009866357858642 L75.0,5.0 L74.0,5.009866357858642 L73.0,5.039426493427611 L72.0,5.088563746356557 L71.0,5.157084194356844 L70.0,5.244717418524233 L69.0,5.351117570558743 L68.0,5.475864737669901 L67.0,5.618466599780682 L66.0,5.7783603724899235 L65.0,5.954915028125264 L64.0,6.147433786121053 L63.0,6.355156862892942 L62.0,6.577264470356559 L61.0,6.812880051256552 L60.0,7.061073738537637 L59.0,7.320866025105017 L58.0,7.591231629491423 L57.0,7.871103542174639 L56.0,8.15937723657661 L55.0,8.454915028125264 L54.0,8.756550564175727 L53.0,9.063093427071376 L52.0,9.373333832178478 L51.0,9.686047402353433 L50.0,10.0 L49.0,10.313952597646567 L48.0,10.626666167821522 L47.0,10.936906572928622 L46.0,11.243449435824276 L45.0,11.545084971874738 L44.0,11.84062276342339 L43.0,12.128896457825364 L42.0,12.408768370508575 L41.0,12.679133974894985 L40.0,12.938926261462367 L39.0,13.18711994874345 L38.0,13.422735529643443 L37.0,13.644843137107056 L36.0,13.852566213878946 L35.0,14.045084971874736 L34.0,14.221639627510076 L33.0,14.381533400219318 L32.0,14.524135262330098 L31.0,14.648882429441258 L30.0,14.755282581475768 L29.0,14.842915805643155 L28.0,14.911436253643444 L27.0,14.96057350657239 L26.0,14.990133642141359 L25.0,15.0 L24.0,14.990133642141359 L23.0,14.960573506572388 L22.0,14.911436253643444 L21.0,14.842915805643155 L20.0,14.755282581475768 L19.0,14.648882429441256 L18.0,14.524135262330098 L17.0,14.381533400219318 L16.0,14.221639627510076 L15.0,14.045084971874736 L14.0,13.852566213878946 L13.0,13.644843137107058 L12.0,13.422735529643443 L11.0,13.187119948743447 L10.0,12.938926261462367 L9.0,12.679133974894983 L8.0,12.408768370508577 L7.0,12.128896457825363 L6.0,11.84062276342339 L5.0,11.545084971874736 L4.0,11.243449435824274 L3.0,10.936906572928622 L2.0,10.626666167821522 L1.0,10.313952597646567 L0.0,10.0" stroke-width="2" stroke-linecap="round" stroke="#000000" fill="none"  />
<!-- Footer -->
</svg>
