<!-- Header -->
<svg
    version="1.1"
    baseProfile="full"
    xmlns="http://www.w3.org/2000/svg"
    xmlns:xlink="http://www.w3.org/1999/xlink"
    xmlns:ev="http://www.w3.org/2001/xml-events"
    width="400.0"
    height="20.0"
    viewBox="-2.0 -7.0 404.0 24.0"
    preserveAspectRatio="none"
>
<!-- Body -->
<!-- Path -->
<path d="M0.0,0.0 L1.0,1.545084971874737 L2.0,2.938926261462366 L3.0,4.045084971874737 L4.0,4.755282581475767 L5.0,5.0 L6.0,4.755282581475768 L7.0,4.045084971874737 L8.0,2.9389262614623664 L9.0,1.5450849718747375 L10.0,6.123233995736766e-16 L11.0,-1.5450849718747364 L12.0,-2.938926261462365 L13.0,-4.045084971874736 L14.0,-4.755282581475767 L15.0,-5.0 L16.0,-4.755282581475768 L17.0,-4.045084971874735 L18.0,-2.938926261462367 L19.0,-1.5450849718747381 L20.0,-1.2246467991473533e-15 L21.0,1.545084971874736 L22.0,2.9389262614623646 L23.0,4.045084971874734 L24.0,4.755282581475767 L25.0,5.0 L26.0,4.755282581475768 L27.0,4.045084971874738 L28.0,2.938926261462367 L29.0,1.545084971874739 L30.0,1.0718754395722281e-14 L31.0,-1.5450849718747353 L32.0,-2.938926261462364 L33.0,-4.045084971874741 L34.0,-4.75528258147577 L35.0,-5.0 L36.0,-4.755282581475769 L37.0,-4.045084971874734 L38.0,-2.9389262614623672 L39.0,-1.5450849718747395 L40.0,-2.4492935982947065e-15 L41.0,1.5450849718747262 L42.0,2.9389262614623632 L43.0,4.045084971874731 L44.0,4.755282581475767 L45.0,5.0 L46.0,4.755282581475772 L47.0,4.045084971874734 L48.0,2.9389262614623677 L49.0,1.54508497187474 L50.0,3.061616997868383e-15 L51.0,-1.5450849718747426 L52.0,-2.938926261462363 L53.0,-4.045084971874741 L54.0,-4.755282581475767 L55.0,-5.0 L56.0,-4.755282581475769 L57.0,-4.045084971874744 L58.0,-2.9389262614623686 L59.0,-1.5450849718747488 L60.0,-2.1437508791444562e-14 L61.0,1.545084971874742 L62.0,2.9389262614623624 L63.0,4.04508497187474 L64.0,4.755282581475766 L65.0,5.0 L66.0,4.755282581475764 L67.0,4.045084971874735 L68.0,2.9389262614623544 L69.0,1.5450849718747328 L70.0,4.2862637970157365e-15 L71.0,-1.5450849718747415 L72.0,-2.9389262614623624 L73.0,-4.045084971874729 L74.0,-4.755282581475772 L75.0,-5.0 L76.0,-4.755282581475769 L77.0,-4.045084971874735 L78.0,-2.9389262614623695 L79.0,-1.5450849718747333 L80.0,-4.898587196589413e-15 L81.0,1.545084971874724 L82.0,2.9389262614623473 L83.0,4.04508497187475 L84.0,4.755282581475766 L85.0,5.0 L86.0,4.755282581475775 L87.0,4.045084971874745 L88.0,2.9389262614623703 L89.0,1.545084971874734 L90.0,5.5109105961630896e-15 L91.0,-1.5450849718747235 L92.0,-2.938926261462347 L93.0,-4.045084971874728 L94.0,-4.755282581475772 L95.0,-5.0 L96.0,-4.75528258147577 L97.0,-4.0450849718747355 L98.0,-2.938926261462371 L99.0,-1.5450849718747346 L100.0,-6.123233995736766e-15 L101.0,1.5450849718747228 L102.0,2.9389262614623752 L103.0,4.045084971874728 L104.0,4.755282581475766 L105.0,5.0 L106.0,4.755282581475765 L107.0,4.045084971874746 L108.0,2.9389262614623712 L109.0,1.5450849718747688 L110.0,2.4499125789312944e-14 L111.0,-1.5450849718747561 L112.0,-2.93892626146236 L113.0,-4.045084971874738 L114.0,-4.75528258147576 L115.0,-5.0 L116.0,-4.75528258147577 L117.0,-4.045084971874736 L118.0,-2.9389262614623854 L119.0,-1.5450849718747526 L120.0,-4.2875017582889124e-14 L121.0,1.5450849718747386 L122.0,2.938926261462374 L123.0,4.0450849718747275 L124.0,4.7552825814757655 L125.0,5.0 L126.0,4.755282581475765 L127.0,4.045084971874747 L128.0,2.9389262614623717 L129.0,1.5450849718747361 L130.0,-9.803364199544707e-15 L131.0,-1.5450849718747213 L132.0,-2.938926261462388 L133.0,-4.045084971874737 L134.0,-4.755282581475771 L135.0,-5.0 L136.0,-4.755282581475759 L137.0,-4.045084971874736 L138.0,-2.938926261462358 L139.0,-1.5450849718747197 L140.0,-8.572527594031473e-15 L141.0,1.5450849718747037 L142.0,2.938926261462373 L143.0,4.045084971874748 L144.0,4.755282581475765 L145.0,5.0 L146.0,4.755282581475776 L147.0,4.045084971874727 L148.0,2.938926261462344 L149.0,1.5450849718747373 L150.0,2.6948419387607653e-14 L151.0,-1.5450849718747197 L152.0,-2.938926261462358 L153.0,-4.045084971874736 L154.0,-4.75528258147577 L155.0,-5.0 L156.0,-4.755282581475771 L157.0,-4.045084971874759 L158.0,-2.938926261462359 L159.0,-1.5450849718747548 L160.0,-9.797174393178826e-15 L161.0,1.5450849718747361 L162.0,2.9389262614623437 L163.0,4.045084971874705 L164.0,4.755282581475754 L165.0,5.0 L166.0,4.755282581475754 L167.0,4.0450849718747275 L168.0,2.938926261462374 L169.0,1.5450849718747386 L170.0,-7.354070601250003e-15 L171.0,-1.5450849718747186 L172.0,-2.9389262614623286 L173.0,-4.045084971874715 L174.0,-4.755282581475759 L175.0,-5.0 L176.0,-4.755282581475771 L177.0,-4.045084971874738 L178.0,-2.93892626146236 L179.0,-1.5450849718747222 L180.0,-1.1021821192326179e-14 L181.0,1.5450849718747013 L182.0,2.9389262614623424 L183.0,4.045084971874725 L184.0,4.755282581475753 L185.0,5.0 L186.0,4.755282581475777 L187.0,4.045084971874728 L188.0,2.9389262614623464 L189.0,1.5450849718747397 L190.0,2.9397712985902356e-14 L191.0,-1.5450849718747175 L192.0,-2.938926261462356 L193.0,-4.045084971874714 L194.0,-4.75528258147577 L195.0,-5.0 L196.0,-4.755282581475772 L197.0,-4.04508497187476 L198.0,-2.9389262614623615 L199.0,-1.5450849718747572 L200.0,-1.2246467991473532e-14 L201.0,1.545084971874734 L202.0,2.938926261462341 L203.0,4.045084971874745 L204.0,4.755282581475775 L205.0,5.0 L206.0,4.755282581475777 L207.0,4.04508497187475 L208.0,2.9389262614623757 L209.0,1.5450849718747408 L210.0,-4.904777002955297e-15 L211.0,-1.5450849718746826 L212.0,-2.938926261462384 L213.0,-4.045084971874756 L214.0,-4.755282581475758 L215.0,-5.0 L216.0,-4.755282581475772 L217.0,-4.04508497187474 L218.0,-2.9389262614624196 L219.0,-1.5450849718747244 L220.0,-4.899825157862589e-14 L221.0,1.5450849718747663 L222.0,2.938926261462398 L223.0,4.045084971874724 L224.0,4.755282581475764 L225.0,5.0 L226.0,4.755282581475766 L227.0,4.045084971874772 L228.0,2.938926261462406 L229.0,1.545084971874776 L230.0,-3.920726699181296e-14 L231.0,-1.5450849718747828 L232.0,-2.938926261462354 L233.0,-4.045084971874734 L234.0,-4.755282581475769 L235.0,-5.0 L236.0,-4.755282581475783 L237.0,-4.045084971874761 L238.0,-2.9389262614623917 L239.0,-1.5450849718747595 L240.0,-8.575003516577825e-14 L241.0,1.5450849718747315 L242.0,2.9389262614623677 L243.0,4.0450849718747435 L244.0,4.755282581475774 L245.0,5.0 L246.0,4.755282581475778 L247.0,4.0450849718747515 L248.0,2.938926261462378 L249.0,1.5450849718748108 L250.0,6.859879017134943e-14 L251.0,-1.545084971874748 L252.0,-2.938926261462382 L253.0,-4.045084971874754 L254.0,-4.7552825814757576 L255.0,-5.0 L256.0,-4.755282581475773 L257.0,-4.045084971874741 L258.0,-2.938926261462364 L259.0,-1.545084971874727 L260.0,1.9606728399089415e-14 L261.0,1.5450849718746964 L262.0,2.9389262614623384 L263.0,4.045084971874764 L264.0,4.755282581475785 L265.0,5.0 L266.0,4.755282581475767 L267.0,4.045084971874731 L268.0,2.93892626146235 L269.0,1.5450849718747106 L270.0,3.4296300182491775e-14 L271.0,-1.5450849718747128 L272.0,-2.9389262614624094 L273.0,-4.045084971874775 L274.0,-4.755282581475768 L275.0,-5.0 L276.0,-4.755282581475762 L277.0,-4.045084971874721 L278.0,-2.938926261462336 L279.0,-1.5450849718747617 L280.0,-1.7145055188062946e-14 L281.0,1.5450849718747293 L282.0,2.9389262614623086 L283.0,4.045084971874743 L284.0,4.7552825814757735 L285.0,5.0 L286.0,4.755282581475757 L287.0,4.0450849718747115 L288.0,2.93892626146238 L289.0,1.5450849718747457 L290.0,-6.189806365883577e-18 L291.0,-1.5450849718746777 L292.0,-2.9389262614623224 L293.0,-4.0450849718747115 L294.0,-4.755282581475779 L295.0,-5.0 L296.0,-4.755282581475751 L297.0,-4.045084971874743 L298.0,-2.9389262614623664 L299.0,-1.5450849718747293 L300.0,-5.3896838775215307e-14 L301.0,1.5450849718746942 L302.0,2.938926261462336 L303.0,4.045084971874721 L304.0,4.755282581475762 L305.0,5.0 L306.0,4.755282581475768 L307.0,4.045084971874733 L308.0,2.9389262614623526 L309.0,1.5450849718747806 L310.0,3.674559378078648e-14 L311.0,-1.5450849718747106 L312.0,-2.93892626146235 L313.0,-4.045084971874731 L314.0,-4.755282581475745 L315.0,-5.0 L316.0,-4.755282581475763 L317.0,-4.045084971874722 L318.0,-2.9389262614623957 L319.0,-1.5450849718747641 L320.0,-1.9594348786357652e-14 L321.0,1.545084971874727 L322.0,2.938926261462364 L323.0,4.045084971874699 L324.0,4.755282581475751 L325.0,5.0 L326.0,4.755282581475802 L327.0,4.045084971874754 L328.0,2.9389262614624396 L329.0,1.545084971874748 L330.0,7.349737736793884e-14 L331.0,-1.545084971874743 L332.0,-2.9389262614624356 L333.0,-4.04508497187471 L334.0,-4.755282581475778 L335.0,-5.0 L336.0,-4.755282581475774 L337.0,-4.045084971874785 L338.0,-2.9389262614623677 L339.0,-1.5450849718747992 L340.0,1.4708141202500006e-14 L341.0,1.5450849718746242 L342.0,2.938926261462335 L343.0,4.045084971874761 L344.0,4.75528258147574 L345.0,5.0 L346.0,4.755282581475791 L347.0,4.045084971874734 L348.0,2.9389262614624116 L349.0,1.5450849718747153 L350.0,1.102491609550912e-13 L351.0,-1.5450849718747082 L352.0,-2.938926261462348 L353.0,-4.0450849718746875 L354.0,-4.755282581475766 L355.0,-5.0 L356.0,-4.755282581475764 L357.0,-4.045084971874766 L358.0,-2.93892626146234 L359.0,-1.545084971874834 L360.0,-2.2043642384652358e-14 L361.0,1.5450849718747244 L362.0,2.9389262614623046 L363.0,4.04508497187474 L364.0,4.75528258147575 L365.0,5.0 L366.0,4.755282581475781 L367.0,4.045084971874714 L368.0,2.9389262614624414 L369.0,1.5450849718747501 L370.0,4.892397390223529e-15 L371.0,-1.545084971874673 L372.0,-2.9389262614623184 L373.0,-4.045084971874708 L374.0,-4.755282581475777 L375.0,-5.0 L376.0,-4.755282581475753 L377.0,-4.045084971874787 L378.0,-2.9389262614623703 L379.0,-1.545084971874734 L380.0,-5.879542597180471e-14 L381.0,1.5450849718746895 L382.0,2.938926261462332 L383.0,4.045084971874719 L384.0,4.75528258147576 L385.0,5.0 L386.0,4.755282581475791 L387.0,4.0450849718747355 L388.0,2.938926261462356 L389.0,1.545084971874785 L390.0,4.164418097737589e-14 L391.0,-1.545084971874706 L392.0,-2.9389262614623464 L393.0,-4.045084971874728 L394.0,-4.755282581475743 L395.0,-5.0 L396.0,-4.755282581475765 L397.0,-4.045084971874725 L398.0,-2.9389262614623997 L399.0,-1.5450849718747688 L400.0,-2.4492935982947064e-14 L400.0,9.999999999999975 L399.0,8.454915028125232 L398.0,7.0610737385376 L397.0,5.954915028125275 L396.0,5.244717418524235 L395.0,5.0 L394.0,5.244717418524257 L393.0,5.954915028125272 L392.0,7.061073738537654 L391.0,8.454915028125294 L390.0,10.00000000000004 L389.0,11.545084971874784 L388.0,12.938926261462356 L387.0,14.045084971874736 L386.0,14.755282581475791 L385.0,15.0 L384.0,14.755282581475761 L383.0,14.045084971874719 L382.0,12.938926261462331 L381.0,11.54508497187469 L380.0,9.999999999999941 L379.0,8.454915028125265 L378.0,7.06107373853763 L377.0,5.954915028125213 L376.0,5.244717418524247 L375.0,5.0 L374.0,5.244717418524223 L373.0,5.954915028125292 L372.0,7.061073738537681 L371.0,8.454915028125328 L370.0,10.000000000000005 L369.0,11.54508497187475 L368.0,12.938926261462441 L367.0,14.045084971874715 L366.0,14.75528258147578 L365.0,15.0 L364.0,14.75528258147575 L363.0,14.04508497187474 L362.0,12.938926261462305 L361.0,11.545084971874724 L360.0,9.999999999999979 L359.0,8.454915028125166 L358.0,7.06107373853766 L357.0,5.954915028125234 L356.0,5.244717418524236 L355.0,5.0 L354.0,5.244717418524234 L353.0,5.9549150281253125 L352.0,7.061073738537652 L351.0,8.454915028125292 L350.0,10.00000000000011 L349.0,11.545084971874715 L348.0,12.938926261462411 L347.0,14.045084971874733 L346.0,14.755282581475791 L345.0,15.0 L344.0,14.75528258147574 L343.0,14.045084971874761 L342.0,12.938926261462335 L341.0,11.545084971874624 L340.0,10.000000000000014 L339.0,8.454915028125201 L338.0,7.061073738537632 L337.0,5.954915028125215 L336.0,5.244717418524226 L335.0,5.0 L334.0,5.244717418524222 L333.0,5.95491502812529 L332.0,7.061073738537564 L331.0,8.454915028125257 L330.0,10.000000000000073 L329.0,11.545084971874747 L328.0,12.93892626146244 L327.0,14.045084971874754 L326.0,14.755282581475802 L325.0,15.0 L324.0,14.75528258147575 L323.0,14.045084971874699 L322.0,12.938926261462363 L321.0,11.545084971874727 L320.0,9.99999999999998 L319.0,8.454915028125235 L318.0,7.061073738537605 L317.0,5.954915028125278 L316.0,5.244717418524237 L315.0,5.0 L314.0,5.244717418524255 L313.0,5.954915028125269 L312.0,7.06107373853765 L311.0,8.454915028125289 L310.0,10.000000000000037 L309.0,11.54508497187478 L308.0,12.938926261462353 L307.0,14.045084971874733 L306.0,14.755282581475768 L305.0,15.0 L304.0,14.755282581475761 L303.0,14.045084971874722 L302.0,12.938926261462337 L301.0,11.545084971874694 L300.0,9.999999999999947 L299.0,8.45491502812527 L298.0,7.061073738537633 L297.0,5.954915028125257 L296.0,5.244717418524249 L295.0,5.0 L294.0,5.244717418524221 L293.0,5.9549150281252885 L292.0,7.061073738537678 L291.0,8.454915028125322 L290.0,10.0 L289.0,11.545084971874745 L288.0,12.938926261462381 L287.0,14.045084971874711 L286.0,14.755282581475758 L285.0,15.0 L284.0,14.755282581475774 L283.0,14.045084971874743 L282.0,12.938926261462308 L281.0,11.54508497187473 L280.0,9.999999999999982 L279.0,8.454915028125239 L278.0,7.061073738537663 L277.0,5.954915028125279 L276.0,5.244717418524238 L275.0,5.0 L274.0,5.244717418524232 L273.0,5.954915028125225 L272.0,7.061073738537591 L271.0,8.454915028125287 L270.0,10.000000000000034 L269.0,11.545084971874711 L268.0,12.938926261462349 L267.0,14.045084971874731 L266.0,14.755282581475768 L265.0,15.0 L264.0,14.755282581475786 L263.0,14.045084971874765 L262.0,12.938926261462338 L261.0,11.545084971874697 L260.0,10.00000000000002 L259.0,8.454915028125273 L258.0,7.061073738537636 L257.0,5.954915028125259 L256.0,5.244717418524227 L255.0,5.0 L254.0,5.2447174185242424 L253.0,5.954915028125246 L252.0,7.061073738537618 L251.0,8.454915028125253 L250.0,10.00000000000007 L249.0,11.545084971874811 L248.0,12.938926261462377 L247.0,14.04508497187475 L246.0,14.755282581475779 L245.0,15.0 L244.0,14.755282581475775 L243.0,14.045084971874743 L242.0,12.938926261462367 L241.0,11.545084971874731 L240.0,9.999999999999915 L239.0,8.45491502812524 L238.0,7.061073738537608 L237.0,5.954915028125239 L236.0,5.244717418524217 L235.0,5.0 L234.0,5.244717418524231 L233.0,5.954915028125266 L232.0,7.061073738537646 L231.0,8.454915028125217 L230.0,9.999999999999961 L229.0,11.545084971874775 L228.0,12.938926261462406 L227.0,14.045084971874772 L226.0,14.755282581475766 L225.0,15.0 L224.0,14.755282581475765 L223.0,14.045084971874724 L222.0,12.938926261462399 L221.0,11.545084971874767 L220.0,9.99999999999995 L219.0,8.454915028125276 L218.0,7.06107373853758 L217.0,5.95491502812526 L216.0,5.244717418524228 L215.0,5.0 L214.0,5.244717418524242 L213.0,5.954915028125244 L212.0,7.061073738537615 L211.0,8.454915028125317 L210.0,9.999999999999995 L209.0,11.54508497187474 L208.0,12.938926261462376 L207.0,14.04508497187475 L206.0,14.755282581475777 L205.0,15.0 L204.0,14.755282581475775 L203.0,14.045084971874745 L202.0,12.938926261462342 L201.0,11.545084971874735 L200.0,9.999999999999988 L199.0,8.454915028125242 L198.0,7.0610737385376385 L197.0,5.95491502812524 L196.0,5.244717418524228 L195.0,5.0 L194.0,5.24471741852423 L193.0,5.954915028125286 L192.0,7.061073738537644 L191.0,8.454915028125283 L190.0,10.00000000000003 L189.0,11.54508497187474 L188.0,12.938926261462345 L187.0,14.04508497187473 L186.0,14.755282581475777 L185.0,15.0 L184.0,14.755282581475754 L183.0,14.045084971874726 L182.0,12.938926261462342 L181.0,11.5450849718747 L180.0,9.99999999999999 L179.0,8.454915028125278 L178.0,7.06107373853764 L177.0,5.954915028125262 L176.0,5.244717418524229 L175.0,5.0 L174.0,5.244717418524241 L173.0,5.954915028125285 L172.0,7.061073738537671 L171.0,8.454915028125281 L170.0,9.999999999999993 L169.0,11.545084971874738 L168.0,12.938926261462374 L167.0,14.045084971874727 L166.0,14.755282581475754 L165.0,15.0 L164.0,14.755282581475754 L163.0,14.045084971874704 L162.0,12.938926261462344 L161.0,11.545084971874736 L160.0,9.99999999999999 L159.0,8.454915028125246 L158.0,7.061073738537641 L157.0,5.954915028125241 L156.0,5.244717418524229 L155.0,5.0 L154.0,5.24471741852423 L153.0,5.954915028125264 L152.0,7.061073738537642 L151.0,8.45491502812528 L150.0,10.000000000000027 L149.0,11.545084971874736 L148.0,12.938926261462344 L147.0,14.045084971874726 L146.0,14.755282581475775 L145.0,15.0 L144.0,14.755282581475765 L143.0,14.045084971874747 L142.0,12.938926261462374 L141.0,11.545084971874704 L140.0,9.999999999999991 L139.0,8.45491502812528 L138.0,7.061073738537642 L137.0,5.954915028125264 L136.0,5.244717418524241 L135.0,5.0 L134.0,5.244717418524229 L133.0,5.954915028125263 L132.0,7.061073738537612 L131.0,8.454915028125278 L130.0,9.99999999999999 L129.0,11.545084971874736 L128.0,12.938926261462372 L127.0,14.045084971874747 L126.0,14.755282581475765 L125.0,15.0 L124.0,14.755282581475765 L123.0,14.045084971874727 L122.0,12.938926261462374 L121.0,11.545084971874738 L120.0,9.999999999999957 L119.0,8.454915028125248 L118.0,7.0610737385376146 L117.0,5.954915028125264 L116.0,5.24471741852423 L115.0,5.0 L114.0,5.24471741852424 L113.0,5.954915028125262 L112.0,7.06107373853764 L111.0,8.454915028125244 L110.0,10.000000000000025 L109.0,11.545084971874768 L108.0,12.93892626146237 L107.0,14.045084971874747 L106.0,14.755282581475765 L105.0,15.0 L104.0,14.755282581475766 L103.0,14.04508497187473 L102.0,12.938926261462376 L101.0,11.545084971874722 L100.0,9.999999999999995 L99.0,8.454915028125265 L98.0,7.06107373853763 L97.0,5.9549150281252645 L96.0,5.24471741852423 L95.0,5.0 L94.0,5.244717418524228 L93.0,5.954915028125272 L92.0,7.061073738537653 L91.0,8.454915028125276 L90.0,10.000000000000005 L89.0,11.545084971874735 L88.0,12.93892626146237 L87.0,14.045084971874745 L86.0,14.755282581475775 L85.0,15.0 L84.0,14.755282581475766 L83.0,14.04508497187475 L82.0,12.938926261462347 L81.0,11.545084971874724 L80.0,9.999999999999995 L79.0,8.454915028125267 L78.0,7.0610737385376305 L77.0,5.954915028125265 L76.0,5.244717418524231 L75.0,5.0 L74.0,5.244717418524228 L73.0,5.954915028125271 L72.0,7.061073738537638 L71.0,8.454915028125258 L70.0,10.000000000000004 L69.0,11.545084971874733 L68.0,12.938926261462354 L67.0,14.045084971874735 L66.0,14.755282581475765 L65.0,15.0 L64.0,14.755282581475766 L63.0,14.04508497187474 L62.0,12.938926261462363 L61.0,11.545084971874742 L60.0,9.999999999999979 L59.0,8.454915028125251 L58.0,7.061073738537631 L57.0,5.954915028125256 L56.0,5.244717418524231 L55.0,5.0 L54.0,5.244717418524233 L53.0,5.954915028125259 L52.0,7.061073738537637 L51.0,8.454915028125257 L50.0,10.000000000000004 L49.0,11.54508497187474 L48.0,12.938926261462367 L47.0,14.045084971874733 L46.0,14.755282581475772 L45.0,15.0 L44.0,14.755282581475768 L43.0,14.045084971874731 L42.0,12.938926261462363 L41.0,11.545084971874726 L40.0,9.999999999999998 L39.0,8.45491502812526 L38.0,7.061073738537633 L37.0,5.954915028125266 L36.0,5.244717418524231 L35.0,5.0 L34.0,5.24471741852423 L33.0,5.954915028125259 L32.0,7.061073738537636 L31.0,8.454915028125265 L30.0,10.00000000000001 L29.0,11.54508497187474 L28.0,12.938926261462367 L27.0,14.045084971874738 L26.0,14.755282581475768 L25.0,15.0 L24.0,14.755282581475768 L23.0,14.045084971874733 L22.0,12.938926261462365 L21.0,11.545084971874736 L20.0,9.999999999999998 L19.0,8.454915028125262 L18.0,7.061073738537633 L17.0,5.954915028125265 L16.0,5.244717418524232 L15.0,5.0 L14.0,5.244717418524233 L13.0,5.954915028125264 L12.0,7.061073738537635 L11.0,8.454915028125264 L10.0,10.0 L9.0,11.545084971874738 L8.0,12.938926261462367 L7.0,14.045084971874736 L6.0,14.755282581475768 L5.0,15.0 L4.0,14.755282581475768 L3.0,14.045084971874736 L2.0,12.938926261462367 L1.0,11.545084971874736 L0.0,10.0" fill="#FFFFFF"  />
<!-- Path -->
<path d="M0.0,0.0 L1.0,1.545084971874737 L2.0,2.938926261462366 L3.0,4.045084971874737 L4.0,4.755282581475767 L5.0,5.0 L6.0,4.755282581475768 L7.0,4.045084971874737 L8.0,2.9389262614623664 L9.0,1.5450849718747375 L10.0,6.123233995736766e-16 L11.0,-1.5450849718747364 L12.0,-2.938926261462365 L13.0,-4.045084971874736 L14.0,-4.755282581475767 L15.0,-5.0 L16.0,-4.755282581475768 L17.0,-4.045084971874735 L18.0,-2.938926261462367 L19.0,-1.5450849718747381 L20.0,-1.2246467991473533e-15 L21.0,1.545084971874736 L22.0,2.9389262614623646 L23.0,4.045084971874734 L24.0,4.755282581475767 L25.0,5.0 L26.0,4.755282581475768 L27.0,4.045084971874738 L28.0,2.938926261462367 L29.0,1.545084971874739 L30.0,1.0718754395722281e-14 L31.0,-1.5450849718747353 L32.0,-2.938926261462364 L33.0,-4.045084971874741 L34.0,-4.75528258147577 L35.0,-5.0 L36.0,-4.755282581475769 L37.0,-4.045084971874734 L38.0,-2.9389262614623672 L39.0,-1.5450849718747395 L40.0,-2.4492935982947065e-15 L41.0,1.5450849718747262 L42.0,2.9389262614623632 L43.0,4.045084971874731 L44.0,4.755282581475767 L45.0,5.0 L46.0,4.755282581475772 L47.0,4.045084971874734 L48.0,2.9389262614623677 L49.0,1.54508497187474 L50.0,3.061616997868383e-15 L51.0,-1.5450849718747426 L52.0,-2.938926261462363 L53.0,-4.045084971874741 L54.0,-4.755282581475767 L55.0,-5.0 L56.0,-4.755282581475769 L57.0,-4.045084971874744 L58.0,-2.9389262614623686 L59.0,-1.5450849718747488 L60.0,-2.1437508791444562e-14 L61.0,1.545084971874742 L62.0,2.9389262614623624 L63.0,4.04508497187474 L64.0,4.755282581475766 L65.0,5.0 L66.0,4.755282581475764 L67.0,4.045084971874735 L68.0,2.9389262614623544 L69.0,1.5450849718747328 L70.0,4.2862637970157365e-15 L71.0,-1.5450849718747415 L72.0,-2.9389262614623624 L73.0,-4.045084971874729 L74.0,-4.755282581475772 L75.0,-5.0 L76.0,-4.755282581475769 L77.0,-4.045084971874735 L78.0,-2.9389262614623695 L79.0,-1.5450849718747333 L80.0,-4.898587196589413e-15 L81.0,1.545084971874724 L82.0,2.9389262614623473 L83.0,4.04508497187475 L84.0,4.755282581475766 L85.0,5.0 L86.0,4.755282581475775 L87.0,4.045084971874745 L88.0,2.9389262614623703 L89.0,1.545084971874734 L90.0,5.5109105961630896e-15 L91.0,-1.5450849718747235 L92.0,-2.938926261462347 L93.0,-4.045084971874728 L94.0,-4.755282581475772 L95.0,-5.0 L96.0,-4.75528258147577 L97.0,-4.0450849718747355 L98.0,-2.938926261462371 L99.0,-1.5450849718747346 L100.0,-6.123233995736766e-15 L101.0,1.5450849718747228 L102.0,2.9389262614623752 L103.0,4.045084971874728 L104.0,4.755282581475766 L105.0,5.0 L106.0,4.755282581475765 L107.0,4.045084971874746 L108.0,2.9389262614623712 L109.0,1.5450849718747688 L110.0,2.4499125789312944e-14 L111.0,-1.5450849718747561 L112.0,-2.93892626146236 L113.0,-4.045084971874738 L114.0,-4.75528258147576 L115.0,-5.0 L116.0,-4.75528258147577 L117.0,-4.045084971874736 L118.0,-2.9389262614623854 L119.0,-1.5450849718747526 L120.0,-4.2875017582889124e-14 L121.0,1.5450849718747386 L122.0,2.938926261462374 L123.0,4.0450849718747275 L124.0,4.7552825814757655 L125.0,5.0 L126.0,4.755282581475765 L127.0,4.045084971874747 L128.0,2.9389262614623717 L129.0,1.5450849718747361 L130.0,-9.803364199544707e-15 L131.0,-1.5450849718747213 L132.0,-2.938926261462388 L133.0,-4.045084971874737 L134.0,-4.755282581475771 L135.0,-5.0 L136.0,-4.755282581475759 L137.0,-4.045084971874736 L138.0,-2.938926261462358 L139.0,-1.5450849718747197 L140.0,-8.572527594031473e-15 L141.0,1.5450849718747037 L142.0,2.938926261462373 L143.0,4.045084971874748 L144.0,4.755282581475765 L145.0,5.0 L146.0,4.755282581475776 L147.0,4.045084971874727 L148.0,2.938926261462344 L149.0,1.5450849718747373 L150.0,2.6948419387607653e-14 L151.0,-1.5450849718747197 L152.0,-2.938926261462358 L153.0,-4.045084971874736 L154.0,-4.75528258147577 L155.0,-5.0 L156.0,-4.755282581475771 L157.0,-4.045084971874759 L158.0,-2.938926261462359 L159.0,-1.5450849718747548 L160.0,-9.797174393178826e-15 L161.0,1.5450849718747361 L162.0,2.9389262614623437 L163.0,4.045084971874705 L164.0,4.755282581475754 L165.0,5.0 L166.0,4.755282581475754 L167.0,4.0450849718747275 L168.0,2.938926261462374 L169.0,1.5450849718747386 L170.0,-7.354070601250003e-15 L171.0,-1.5450849718747186 L172.0,-2.9389262614623286 L173.0,-4.045084971874715 L174.0,-4.755282581475759 L175.0,-5.0 L176.0,-4.755282581475771 L177.0,-4.045084971874738 L178.0,-2.93892626146236 L179.0,-1.5450849718747222 L180.0,-1.1021821192326179e-14 L181.0,1.5450849718747013 L182.0,2.9389262614623424 L183.0,4.045084971874725 L184.0,4.755282581475753 L185.0,5.0 L186.0,4.755282581475777 L187.0,4.045084971874728 L188.0,2.9389262614623464 L189.0,1.5450849718747397 L190.0,2.9397712985902356e-14 L191.0,-1.5450849718747175 L192.0,-2.938926261462356 L193.0,-4.045084971874714 L194.0,-4.75528258147577 L195.0,-5.0 L196.0,-4.755282581475772 L197.0,-4.04508497187476 L198.0,-2.9389262614623615 L199.0,-1.5450849718747572 L200.0,-1.2246467991473532e-14 L201.0,1.545084971874734 L202.0,2.938926261462341 L203.0,4.045084971874745 L204.0,4.755282581475775 L205.0,5.0 L206.0,4.755282581475777 L207.0,4.04508497187475 L208.0,2.9389262614623757 L209.0,1.5450849718747408 L210.0,-4.904777002955297e-15 L211.0,-1.5450849718746826 L212.0,-2.938926261462384 L213.0,-4.045084971874756 L214.0,-4.755282581475758 L215.0,-5.0 L216.0,-4.755282581475772 L217.0,-4.04508497187474 L218.0,-2.9389262614624196 L219.0,-1.5450849718747244 L220.0,-4.899825157862589e-14 L221.0,1.5450849718747663 L222.0,2.938926261462398 L223.0,4.045084971874724 L224.0,4.755282581475764 L225.0,5.0 L226.0,4.755282581475766 L227.0,4.045084971874772 L228.0,2.938926261462406 L229.0,1.545084971874776 L230.0,-3.920726699181296e-14 L231.0,-1.5450849718747828 L232.0,-2.938926261462354 L233.0,-4.045084971874734 L234.0,-4.755282581475769 L235.0,-5.0 L236.0,-4.755282581475783 L237.0,-4.045084971874761 L238.0,-2.9389262614623917 L239.0,-1.5450849718747595 L240.0,-8.575003516577825e-14 L241.0,1.5450849718747315 L242.0,2.9389262614623677 L243.0,4.0450849718747435 L244.0,4.755282581475774 L245.0,5.0 L246.0,4.755282581475778 L247.0,4.0450849718747515 L248.0,2.938926261462378 L249.0,1.5450849718748108 L250.0,6.859879017134943e-14 L251.0,-1.545084971874748 L252.0,-2.938926261462382 L253.0,-4.045084971874754 L254.0,-4.7552825814757576 L255.0,-5.0 L256.0,-4.755282581475773 L257.0,-4.045084971874741 L258.0,-2.938926261462364 L259.0,-1.545084971874727 L260.0,1.9606728399089415e-14 L261.0,1.5450849718746964 L262.0,2.9389262614623384 L263.0,4.045084971874764 L264.0,4.755282581475785 L265.0,5.0 L266.0,4.755282581475767 L267.0,4.045084971874731 L268.0,2.93892626146235 L269.0,1.5450849718747106 L270.0,3.4296300182491775e-14 L271.0,-1.5450849718747128 L272.0,-2.9389262614624094 L273.0,-4.045084971874775 L274.0,-4.755282581475768 L275.0,-5.0 L276.0,-4.755282581475762 L277.0,-4.045084971874721 L278.0,-2.938926261462336 L279.0,-1.5450849718747617 L280.0,-1.7145055188062946e-14 L281.0,1.5450849718747293 L282.0,2.9389262614623086 L283.0,4.045084971874743 L284.0,4.7552825814757735 L285.0,5.0 L286.0,4.755282581475757 L287.0,4.0450849718747115 L288.0,2.93892626146238 L289.0,1.5450849718747457 L290.0,-6.189806365883577e-18 L291.0,-1.5450849718746777 L292.0,-2.9389262614623224 L293.0,-4.0450849718747115 L294.0,-4.755282581475779 L295.0,-5.0 L296.0,-4.755282581475751 L297.0,-4.045084971874743 L298.0,-2.9389262614623664 L299.0,-1.5450849718747293 L300.0,-5.3896838775215307e-14 L301.0,1.5450849718746942 L302.0,2.938926261462336 L303.0,4.045084971874721 L304.0,4.755282581475762 L305.0,5.0 L306.0,4.755282581475768 L307.0,4.045084971874733 L308.0,2.9389262614623526 L309.0,1.5450849718747806 L310.0,3.674559378078648e-14 L311.0,-1.5450849718747106 L312.0,-2.93892626146235 L313.0,-4.045084971874731 L314.0,-4.755282581475745 L315.0,-5.0 L316.0,-4.755282581475763 L317.0,-4.045084971874722 L318.0,-2.9389262614623957 L319.0,-1.5450849718747641 L320.0,-1.9594348786357652e-14 L321.0,1.545084971874727 L322.0,2.938926261462364 L323.0,4.045084971874699 L324.0,4.755282581475751 L325.0,5.0 L326.0,4.755282581475802 L327.0,4.045084971874754 L328.0,2.9389262614624396 L329.0,1.545084971874748 L330.0,7.349737736793884e-14 L331.0,-1.545084971874743 L332.0,-2.9389262614624356 L333.0,-4.04508497187471 L334.0,-4.755282581475778 L335.0,-5.0 L336.0,-4.755282581475774 L337.0,-4.045084971874785 L338.0,-2.9389262614623677 L339.0,-1.5450849718747992 L340.0,1.4708141202500006e-14 L341.0,1.5450849718746242 L342.0,2.938926261462335 L343.0,4.045084971874761 L344.0,4.75528258147574 L345.0,5.0 L346.0,4.755282581475791 L347.0,4.045084971874734 L348.0,2.9389262614624116 L349.0,1.5450849718747153 L350.0,1.102491609550912e-13 L351.0,-1.5450849718747082 L352.0,-2.938926261462348 L353.0,-4.0450849718746875 L354.0,-4.755282581475766 L355.0,-5.0 L356.0,-4.755282581475764 L357.0,-4.045084971874766 L358.0,-2.93892626146234 L359.0,-1.545084971874834 L360.0,-2.2043642384652358e-14 L361.0,1.5450849718747244 L362.0,2.9389262614623046 L363.0,4.04508497187474 L364.0,4.75528258147575 L365.0,5.0 L366.0,4.755282581475781 L367.0,4.045084971874714 L368.0,2.9389262614624414 L369.0,1.5450849718747501 L370.0,4.892397390223529e-15 L371.0,-1.545084971874673 L372.0,-2.9389262614623184 L373.0,-4.045084971874708 L374.0,-4.755282581475777 L375.0,-5.0 L376.0,-4.755282581475753 L377.0,-4.045084971874787 L378.0,-2.9389262614623703 L379.0,-1.545084971874734 L380.0,-5.879542597180471e-14 L381.0,1.5450849718746895 L382.0,2.938926261462332 L383.0,4.045084971874719 L384.0,4.75528258147576 L385.0,5.0 L386.0,4.755282581475791 L387.0,4.0450849718747355 L388.0,2.938926261462356 L389.0,1.545084971874785 L390.0,4.164418097737589e-14 L391.0,-1.545084971874706 L392.0,-2.9389262614623464 L393.0,-4.045084971874728 L394.0,-4.755282581475743 L395.0,-5.0 L396.0,-4.755282581475765 L397.0,-4.045084971874725 L398.0,-2.9389262614623997 L399.0,-1.5450849718747688 L400.0,-2.4492935982947064e-14" stroke-width="4" stroke-linecap="round" stroke="#000000" fill="none"  />
<!-- Path -->
<path d="M400.0,9.999999999999975 L399.0,8.454915028125232 L398.0,7.0610737385376 L397.0,5.954915028125275 L396.0,5.244717418524235 L395.0,5.0 L394.0,5.244717418524257 L393.0,5.954915028125272 L392.0,7.061073738537654 L391.0,8.454915028125294 L390.0,10.00000000000004 L389.0,11.545084971874784 L388.0,12.938926261462356 L387.0,14.045084971874736 L386.0,14.755282581475791 L385.0,15.0 L384.0,14.755282581475761 L383.0,14.045084971874719 L382.0,12.938926261462331 L381.0,11.54508497187469 L380.0,9.999999999999941 L379.0,8.454915028125265 L378.0,7.06107373853763 L377.0,5.954915028125213 L376.0,5.244717418524247 L375.0,5.0 L374.0,5.244717418524223 L373.0,5.954915028125292 L372.0,7.061073738537681 L371.0,8.454915028125328 L370.0,10.000000000000005 L369.0,11.54508497187475 L368.0,12.938926261462441 L367.0,14.045084971874715 L366.0,14.75528258147578 L365.0,15.0 L364.0,14.75528258147575 L363.0,14.04508497187474 L362.0,12.938926261462305 L361.0,11.545084971874724 L360.0,9.999999999999979 L359.0,8.454915028125166 L358.0,7.06107373853766 L357.0,5.954915028125234 L356.0,5.244717418524236 L355.0,5.0 L354.0,5.244717418524234 L353.0,5.9549150281253125 L352.0,7.061073738537652 L351.0,8.454915028125292 L350.0,10.00000000000011 L349.0,11.545084971874715 L348.0,12.938926261462411 L347.0,14.045084971874733 L346.0,14.755282581475791 L345.0,15.0 L344.0,14.75528258147574 L343.0,14.045084971874761 L342.0,12.938926261462335 L341.0,11.545084971874624 L340.0,10.000000000000014 L339.0,8.454915028125201 L338.0,7.061073738537632 L337.0,5.954915028125215 L336.0,5.244717418524226 L335.0,5.0 L334.0,5.244717418524222 L333.0,5.95491502812529 L332.0,7.061073738537564 L331.0,8.454915028125257 L330.0,10.000000000000073 L329.0,11.545084971874747 L328.0,12.93892626146244 L327.0,14.045084971874754 L326.0,14.755282581475802 L325.0,15.0 L324.0,14.75528258147575 L323.0,14.045084971874699 L322.0,12.938926261462363 L321.0,11.545084971874727 L320.0,9.99999999999998 L319.0,8.454915028125235 L318.0,7.061073738537605 L317.0,5.954915028125278 L316.0,5.244717418524237 L315.0,5.0 L314.0,5.244717418524255 L313.0,5.954915028125269 L312.0,7.06107373853765 L311.0,8.454915028125289 L310.0,10.000000000000037 L309.0,11.54508497187478 L308.0,12.938926261462353 L307.0,14.045084971874733 L306.0,14.755282581475768 L305.0,15.0 L304.0,14.755282581475761 L303.0,14.045084971874722 L302.0,12.938926261462337 L301.0,11.545084971874694 L300.0,9.999999999999947 L299.0,8.45491502812527 L298.0,7.061073738537633 L297.0,5.954915028125257 L296.0,5.244717418524249 L295.0,5.0 L294.0,5.244717418524221 L293.0,5.9549150281252885 L292.0,7.061073738537678 L291.0,8.454915028125322 L290.0,10.0 L289.0,11.545084971874745 L288.0,12.938926261462381 L287.0,14.045084971874711 L286.0,14.755282581475758 L285.0,15.0 L284.0,14.755282581475774 L283.0,14.045084971874743 L282.0,12.938926261462308 L281.0,11.54508497187473 L280.0,9.999999999999982 L279.0,8.454915028125239 L278.0,7.061073738537663 L277.0,5.954915028125279 L276.0,5.244717418524238 L275.0,5.0 L274.0,5.244717418524232 L273.0,5.954915028125225 L272.0,7.061073738537591 L271.0,8.454915028125287 L270.0,10.000000000000034 L269.0,11.545084971874711 L268.0,12.938926261462349 L267.0,14.045084971874731 L266.0,14.755282581475768 L265.0,15.0 L264.0,14.755282581475786 L263.0,14.045084971874765 L262.0,12.938926261462338 L261.0,11.545084971874697 L260.0,10.00000000000002 L259.0,8.454915028125273 L258.0,7.061073738537636 L257.0,5.954915028125259 L256.0,5.244717418524227 L255.0,5.0 L254.0,5.2447174185242424 L253.0,5.954915028125246 L252.0,7.061073738537618 L251.0,8.454915028125253 L250.0,10.00000000000007 L249.0,11.545084971874811 L248.0,12.938926261462377 L247.0,14.04508497187475 L246.0,14.755282581475779 L245.0,15.0 L244.0,14.755282581475775 L243.0,14.045084971874743 L242.0,12.938926261462367 L241.0,11.545084971874731 L240.0,9.999999999999915 L239.0,8.45491502812524 L238.0,7.061073738537608 L237.0,5.954915028125239 L236.0,5.244717418524217 L235.0,5.0 L234.0,5.244717418524231 L233.0,5.954915028125266 L232.0,7.061073738537646 L231.0,8.454915028125217 L230.0,9.999999999999961 L229.0,11.545084971874775 L228.0,12.938926261462406 L227.0,14.045084971874772 L226.0,14.755282581475766 L225.0,15.0 L224.0,14.755282581475765 L223.0,14.045084971874724 L222.0,12.938926261462399 L221.0,11.545084971874767 L220.0,9.99999999999995 L219.0,8.454915028125276 L218.0,7.06107373853758 L217.0,5.95491502812526 L216.0,5.244717418524228 L215.0,5.0 L214.0,5.244717418524242 L213.0,5.954915028125244 L212.0,7.061073738537615 L211.0,8.454915028125317 L210.0,9.999999999999995 L209.0,11.54508497187474 L208.0,12.938926261462376 L207.0,14.04508497187475 L206.0,14.755282581475777 L205.0,15.0 L204.0,14.755282581475775 L203.0,14.045084971874745 L202.0,12.938926261462342 L201.0,11.545084971874735 L200.0,9.999999999999988 L199.0,8.454915028125242 L198.0,7.0610737385376385 L197.0,5.95491502812524 L196.0,5.244717418524228 L195.0,5.0 L194.0,5.24471741852423 L193.0,5.954915028125286 L192.0,7.061073738537644 L191.0,8.454915028125283 L190.0,10.00000000000003 L189.0,11.54508497187474 L188.0,12.938926261462345 L187.0,14.04508497187473 L186.0,14.755282581475777 L185.0,15.0 L184.0,14.755282581475754 L183.0,14.045084971874726 L182.0,12.938926261462342 L181.0,11.5450849718747 L180.0,9.99999999999999 L179.0,8.454915028125278 L178.0,7.06107373853764 L177.0,5.954915028125262 L176.0,5.244717418524229 L175.0,5.0 L174.0,5.244717418524241 L173.0,5.954915028125285 L172.0,7.061073738537671 L171.0,8.454915028125281 L170.0,9.999999999999993 L169.0,11.545084971874738 L168.0,12.938926261462374 L167.0,14.045084971874727 L166.0,14.755282581475754 L165.0,15.0 L164.0,14.755282581475754 L163.0,14.045084971874704 L162.0,12.938926261462344 L161.0,11.545084971874736 L160.0,9.99999999999999 L159.0,8.454915028125246 L158.0,7.061073738537641 L157.0,5.954915028125241 L156.0,5.244717418524229 L155.0,5.0 L154.0,5.24471741852423 L153.0,5.954915028125264 L152.0,7.061073738537642 L151.0,8.45491502812528 L150.0,10.000000000000027 L149.0,11.545084971874736 L148.0,12.938926261462344 L147.0,14.045084971874726 L146.0,14.755282581475775 L145.0,15.0 L144.0,14.755282581475765 L143.0,14.045084971874747 L142.0,12.938926261462374 L141.0,11.545084971874704 L140.0,9.999999999999991 L139.0,8.45491502812528 L138.0,7.061073738537642 L137.0,5.954915028125264 L136.0,5.244717418524241 L135.0,5.0 L134.0,5.244717418524229 L133.0,5.954915028125263 L132.0,7.061073738537612 L131.0,8.454915028125278 L130.0,9.99999999999999 L129.0,11.545084971874736 L128.0,12.938926261462372 L127.0,14.045084971874747 L126.0,14.755282581475765 L125.0,15.0 L124.0,14.755282581475765 L123.0,14.045084971874727 L122.0,12.938926261462374 L121.0,11.545084971874738 L120.0,9.999999999999957 L119.0,8.454915028125248 L118.0,7.0610737385376146 L117.0,5.954915028125264 L116.0,5.24471741852423 L115.0,5.0 L114.0,5.24471741852424 L113.0,5.954915028125262 L112.0,7.06107373853764 L111.0,8.454915028125244 L110.0,10.000000000000025 L109.0,11.545084971874768 L108.0,12.93892626146237 L107.0,14.045084971874747 L106.0,14.755282581475765 L105.0,15.0 L104.0,14.755282581475766 L103.0,14.04508497187473 L102.0,12.938926261462376 L101.0,11.545084971874722 L100.0,9.999999999999995 L99.0,8.454915028125265 L98.0,7.06107373853763 L97.0,5.9549150281252645 L96.0,5.24471741852423 L95.0,5.0 L94.0,5.244717418524228 L93.0,5.954915028125272 L92.0,7.061073738537653 L91.0,8.454915028125276 L90.0,10.000000000000005 L89.0,11.545084971874735 L88.0,12.93892626146237 L87.0,14.045084971874745 L86.0,14.755282581475775 L85.0,15.0 L84.0,14.755282581475766 L83.0,14.04508497187475 L82.0,12.938926261462347 L81.0,11.545084971874724 L80.0,9.999999999999995 L79.0,8.454915028125267 L78.0,7.0610737385376305 L77.0,5.954915028125265 L76.0,5.244717418524231 L75.0,5.0 L74.0,5.244717418524228 L73.0,5.954915028125271 L72.0,7.061073738537638 L71.0,8.454915028125258 L70.0,10.000000000000004 L69.0,11.545084971874733 L68.0,12.938926261462354 L67.0,14.045084971874735 L66.0,14.755282581475765 L65.0,15.0 L64.0,14.755282581475766 L63.0,14.04508497187474 L62.0,12.938926261462363 L61.0,11.545084971874742 L60.0,9.999999999999979 L59.0,8.454915028125251 L58.0,7.061073738537631 L57.0,5.954915028125256 L56.0,5.244717418524231 L55.0,5.0 L54.0,5.244717418524233 L53.0,5.954915028125259 L52.0,7.061073738537637 L51.0,8.454915028125257 L50.0,10.000000000000004 L49.0,11.54508497187474 L48.0,12.938926261462367 L47.0,14.045084971874733 L46.0,14.755282581475772 L45.0,15.0 L44.0,14.755282581475768 L43.0,14.045084971874731 L42.0,12.938926261462363 L41.0,11.545084971874726 L40.0,9.999999999999998 L39.0,8.45491502812526 L38.0,7.061073738537633 L37.0,5.954915028125266 L36.0,5.244717418524231 L35.0,5.0 L34.0,5.24471741852423 L33.0,5.954915028125259 L32.0,7.061073738537636 L31.0,8.454915028125265 L30.0,10.00000000000001 L29.0,11.54508497187474 L28.0,12.938926261462367 L27.0,14.045084971874738 L26.0,14.755282581475768 L25.0,15.0 L24.0,14.755282581475768 L23.0,14.045084971874733 L22.0,12.938926261462365 L21.0,11.545084971874736 L20.0,9.999999999999998 L19.0,8.454915028125262 L18.0,7.061073738537633 L17.0,5.954915028125265 L16.0,5.244717418524232 L15.0,5.0 L14.0,5.244717418524233 L13.0,5.954915028125264 L12.0,7.061073738537635 L11.0,8.454915028125264 L10.0,10.0 L9.0,11.545084971874738 L8.0,12.938926261462367 L7.0,14.045084971874736 L6.0,14.755282581475768 L5.0,15.0 L4.0,14.755282581475768 L3.0,14.045084971874736 L2.0,12.938926261462367 L1.0,11.545084971874736 L0.0,10.0" stroke-width="4" stroke-linecap="round" stroke="#000000" fill="none"  />
<!-- Footer -->
</svg>
