<!-- Header -->
<svg
    version="1.1"
    baseProfile="full"
    xmlns="http://www.w3.org/2000/svg"
    xmlns:xlink="http://www.w3.org/1999/xlink"
    xmlns:ev="http://www.w3.org/2001/xml-events"
    width="400.0"
    height="20.0"
    viewBox="-0.5 -5.5 401.0 21.0"
    preserveAspectRatio="none"
>
<!-- Body -->
<!-- Path -->
<path d="M0.0,0.0 L1.0,0.15705379539064146 L2.0,0.31395259764656686 L3.0,0.47054156659257157 L4.0,0.6266661678215213 L5.0,0.7821723252011543 L6.0,0.936906572928623 L7.0,1.0907162069827128 L8.0,1.243449435824274 L9.0,1.3949555301961465 L10.0,1.545084971874737 L11.0,1.6936896012264568 L12.0,1.8406227634233896 L13.0,1.985739453173903 L14.0,2.1288964578253635 L15.0,2.2699524986977337 L16.0,2.4087683705085765 L17.0,2.5452070787518566 L18.0,2.679133974894983 L19.0,2.8104168892606527 L20.0,2.938926261462366 L21.0,3.0645352682648825 L22.0,3.1871199487434483 L23.0,3.306559326618259 L24.0,3.422735529643443 L25.0,3.5355339059327373 L26.0,3.644843137107058 L27.0,3.7505553481522975 L28.0,3.852566213878946 L29.0,3.950775061878452 L30.0,4.045084971874736 L31.0,4.1354028713728095 L32.0,4.221639627510076 L33.0,4.303710135019719 L34.0,4.381533400219318 L35.0,4.455032620941839 L36.0,4.524135262330098 L37.0,4.588773128419906 L38.0,4.648882429441256 L39.0,4.704403844771127 L40.0,4.755282581475767 L41.0,4.801468428384715 L42.0,4.842915805643155 L43.0,4.879583809693736 L44.0,4.911436253643443 L45.0,4.938441702975689 L46.0,4.960573506572389 L47.0,4.9778098230154 L48.0,4.990133642141358 L49.0,4.997532801828658 L50.0,5.0 L51.0,4.997532801828658 L52.0,4.990133642141358 L53.0,4.9778098230154 L54.0,4.9605735065723895 L55.0,4.938441702975689 L56.0,4.911436253643443 L57.0,4.879583809693737 L58.0,4.842915805643155 L59.0,4.801468428384715 L60.0,4.755282581475768 L61.0,4.704403844771127 L62.0,4.648882429441257 L63.0,4.588773128419906 L64.0,4.524135262330097 L65.0,4.455032620941839 L66.0,4.381533400219317 L67.0,4.303710135019719 L68.0,4.221639627510075 L69.0,4.135402871372809 L70.0,4.045084971874737 L71.0,3.9507750618784514 L72.0,3.852566213878946 L73.0,3.750555348152298 L74.0,3.644843137107057 L75.0,3.5355339059327378 L76.0,3.422735529643444 L77.0,3.306559326618259 L78.0,3.187119948743449 L79.0,3.0645352682648817 L80.0,2.9389262614623664 L81.0,2.810416889260654 L82.0,2.679133974894985 L83.0,2.5452070787518553 L84.0,2.408768370508576 L85.0,2.269952498697734 L86.0,2.1288964578253644 L87.0,1.9857394531739052 L88.0,1.8406227634233907 L89.0,1.6936896012264566 L90.0,1.5450849718747375 L91.0,1.3949555301961478 L92.0,1.2434494358242763 L93.0,1.0907162069827139 L94.0,0.9369065729286229 L95.0,0.7821723252011549 L96.0,0.6266661678215226 L97.0,0.47054156659257174 L98.0,0.3139525976465679 L99.0,0.15705379539064118 L100.0,6.123233995736766e-16 L101.0,-0.15705379539063996 L102.0,-0.31395259764656674 L103.0,-0.4705415665925705 L104.0,-0.6266661678215214 L105.0,-0.7821723252011537 L106.0,-0.9369065729286239 L107.0,-1.0907162069827125 L108.0,-1.243449435824273 L109.0,-1.3949555301961445 L110.0,-1.5450849718747364 L111.0,-1.6936896012264575 L112.0,-1.8406227634233896 L113.0,-1.985739453173902 L114.0,-2.1288964578253613 L115.0,-2.2699524986977355 L116.0,-2.408768370508577 L117.0,-2.545207078751856 L118.0,-2.6791339748949823 L119.0,-2.8104168892606514 L120.0,-2.9389262614623632 L121.0,-3.064535268264883 L122.0,-3.1871199487434483 L123.0,-3.3065593266182587 L124.0,-3.422735529643442 L125.0,-3.5355339059327355 L126.0,-3.644843137107058 L127.0,-3.7505553481522975 L128.0,-3.852566213878947 L129.0,-3.950775061878452 L130.0,-4.045084971874736 L131.0,-4.135402871372808 L132.0,-4.2216396275100765 L133.0,-4.303710135019719 L134.0,-4.381533400219318 L135.0,-4.455032620941839 L136.0,-4.524135262330099 L137.0,-4.5887731284199065 L138.0,-4.648882429441257 L139.0,-4.704403844771127 L140.0,-4.755282581475767 L141.0,-4.801468428384715 L142.0,-4.842915805643156 L143.0,-4.879583809693737 L144.0,-4.911436253643443 L145.0,-4.938441702975688 L146.0,-4.960573506572389 L147.0,-4.9778098230154 L148.0,-4.990133642141358 L149.0,-4.997532801828658 L150.0,-5.0 L151.0,-4.997532801828658 L152.0,-4.990133642141358 L153.0,-4.9778098230154 L154.0,-4.9605735065723895 L155.0,-4.938441702975689 L156.0,-4.911436253643443 L157.0,-4.879583809693738 L158.0,-4.842915805643155 L159.0,-4.801468428384715 L160.0,-4.755282581475768 L161.0,-4.704403844771128 L162.0,-4.648882429441258 L163.0,-4.588773128419907 L164.0,-4.524135262330099 L165.0,-4.455032620941842 L166.0,-4.3815334002193165 L167.0,-4.303710135019717 L168.0,-4.221639627510075 L169.0,-4.1354028713728095 L170.0,-4.045084971874738 L171.0,-3.950775061878453 L172.0,-3.852566213878948 L173.0,-3.7505553481523 L174.0,-3.6448431371070606 L175.0,-3.5355339059327417 L176.0,-3.422735529643445 L177.0,-3.306559326618258 L178.0,-3.1871199487434483 L179.0,-3.0645352682648825 L180.0,-2.938926261462367 L181.0,-2.8104168892606545 L182.0,-2.6791339748949854 L183.0,-2.5452070787518597 L184.0,-2.4087683705085805 L185.0,-2.2699524986977346 L186.0,-2.128896457825365 L187.0,-1.9857394531739017 L188.0,-1.8406227634233894 L189.0,-1.693689601226457 L190.0,-1.5450849718747381 L191.0,-1.3949555301961483 L192.0,-1.2434494358242767 L193.0,-1.0907162069827165 L194.0,-0.9369065729286234 L195.0,-0.7821723252011556 L196.0,-0.6266661678215233 L197.0,-0.4705415665925745 L198.0,-0.3139525976465663 L199.0,-0.1570537953906418 L200.0,-1.2246467991473533e-15 L201.0,0.15705379539063935 L202.0,0.3139525976465639 L203.0,0.4705415665925721 L204.0,0.6266661678215208 L205.0,0.7821723252011531 L206.0,0.936906572928621 L207.0,1.0907162069827097 L208.0,1.2434494358242745 L209.0,1.3949555301961458 L210.0,1.545084971874736 L211.0,1.6936896012264548 L212.0,1.840622763423391 L213.0,1.9857394531739034 L214.0,2.1288964578253626 L215.0,2.269952498697733 L216.0,2.4087683705085743 L217.0,2.545207078751854 L218.0,2.67913397489498 L219.0,2.8104168892606527 L220.0,2.9389262614623646 L221.0,3.0645352682648843 L222.0,3.18711994874345 L223.0,3.3065593266182596 L224.0,3.422735529643443 L225.0,3.535533905932737 L226.0,3.644843137107056 L227.0,3.7505553481522957 L228.0,3.8525662138789434 L229.0,3.9507750618784487 L230.0,4.045084971874739 L231.0,4.13540287137281 L232.0,4.221639627510076 L233.0,4.303710135019719 L234.0,4.381533400219318 L235.0,4.455032620941839 L236.0,4.5241352623300966 L237.0,4.588773128419905 L238.0,4.648882429441255 L239.0,4.704403844771125 L240.0,4.755282581475766 L241.0,4.801468428384716 L242.0,4.842915805643156 L243.0,4.879583809693737 L244.0,4.911436253643443 L245.0,4.938441702975688 L246.0,4.960573506572389 L247.0,4.9778098230154 L248.0,4.990133642141358 L249.0,4.997532801828657 L250.0,5.0 L251.0,4.997532801828657 L252.0,4.990133642141358 L253.0,4.9778098230154 L254.0,4.9605735065723895 L255.0,4.938441702975688 L256.0,4.911436253643443 L257.0,4.879583809693736 L258.0,4.842915805643155 L259.0,4.801468428384715 L260.0,4.755282581475768 L261.0,4.704403844771129 L262.0,4.648882429441258 L263.0,4.588773128419904 L264.0,4.5241352623300966 L265.0,4.455032620941838 L266.0,4.3815334002193165 L267.0,4.303710135019718 L268.0,4.221639627510076 L269.0,4.1354028713728095 L270.0,4.045084971874738 L271.0,3.950775061878453 L272.0,3.852566213878943 L273.0,3.750555348152295 L274.0,3.644843137107055 L275.0,3.5355339059327355 L276.0,3.422735529643442 L277.0,3.3065593266182587 L278.0,3.1871199487434487 L279.0,3.064535268264883 L280.0,2.938926261462367 L281.0,2.8104168892606554 L282.0,2.6791339748949863 L283.0,2.5452070787518526 L284.0,2.4087683705085734 L285.0,2.2699524986977315 L286.0,2.1288964578253617 L287.0,1.9857394531739023 L288.0,1.8406227634233898 L289.0,1.6936896012264577 L290.0,1.545084971874739 L291.0,1.394955530196149 L292.0,1.2434494358242774 L293.0,1.0907162069827172 L294.0,0.9369065729286197 L295.0,0.7821723252011517 L296.0,0.6266661678215195 L297.0,0.47054156659257074 L298.0,0.3139525976465669 L299.0,0.1570537953906424 L300.0,1.8369701987210296e-15 L301.0,-0.15705379539063874 L302.0,-0.31395259764656325 L303.0,-0.47054156659256713 L304.0,-0.6266661678215159 L305.0,-0.7821723252011569 L306.0,-0.9369065729286248 L307.0,-1.0907162069827134 L308.0,-1.2434494358242738 L309.0,-1.3949555301961452 L310.0,-1.5450849718747353 L311.0,-1.6936896012264544 L312.0,-1.8406227634233863 L313.0,-1.985739453173899 L314.0,-2.128896457825358 L315.0,-2.2699524986977364 L316.0,-2.408768370508578 L317.0,-2.545207078751857 L318.0,-2.6791339748949827 L319.0,-2.8104168892606523 L320.0,-2.938926261462364 L321.0,-3.0645352682648803 L322.0,-3.1871199487434456 L323.0,-3.306559326618256 L324.0,-3.422735529643439 L325.0,-3.535533905932733 L326.0,-3.6448431371070527 L327.0,-3.750555348152298 L328.0,-3.8525662138789403 L329.0,-3.950775061878451 L330.0,-4.045084971874731 L331.0,-4.135402871372808 L332.0,-4.221639627510078 L333.0,-4.303710135019716 L334.0,-4.38153340021932 L335.0,-4.455032620941836 L336.0,-4.524135262330098 L337.0,-4.588773128419902 L338.0,-4.648882429441256 L339.0,-4.704403844771124 L340.0,-4.755282581475767 L341.0,-4.801468428384712 L342.0,-4.8429158056431545 L343.0,-4.879583809693738 L344.0,-4.911436253643442 L345.0,-4.938441702975689 L346.0,-4.960573506572389 L347.0,-4.9778098230154 L348.0,-4.990133642141357 L349.0,-4.997532801828658 L350.0,-5.0 L351.0,-4.997532801828658 L352.0,-4.990133642141358 L353.0,-4.9778098230154 L354.0,-4.960573506572389 L355.0,-4.938441702975689 L356.0,-4.911436253643443 L357.0,-4.879583809693739 L358.0,-4.842915805643156 L359.0,-4.801468428384718 L360.0,-4.755282581475769 L361.0,-4.704403844771129 L362.0,-4.648882429441258 L363.0,-4.588773128419904 L364.0,-4.5241352623301 L365.0,-4.4550326209418385 L366.0,-4.381533400219322 L367.0,-4.303710135019719 L368.0,-4.22163962751008 L369.0,-4.1354028713728095 L370.0,-4.045084971874738 L371.0,-3.9507750618784536 L372.0,-3.852566213878949 L373.0,-3.7505553481523006 L374.0,-3.6448431371070553 L375.0,-3.535533905932742 L376.0,-3.4227355296434423 L377.0,-3.306559326618266 L378.0,-3.1871199487434487 L379.0,-3.0645352682648834 L380.0,-2.9389262614623672 L381.0,-2.810416889260656 L382.0,-2.6791339748949867 L383.0,-2.545207078751861 L384.0,-2.4087683705085814 L385.0,-2.269952498697732 L386.0,-2.12889645782537 L387.0,-1.9857394531739028 L388.0,-1.8406227634233905 L389.0,-1.6936896012264582 L390.0,-1.5450849718747395 L391.0,-1.3949555301961494 L392.0,-1.243449435824278 L393.0,-1.0907162069827177 L394.0,-0.936906572928629 L395.0,-0.7821723252011612 L396.0,-0.6266661678215201 L397.0,-0.47054156659257135 L398.0,-0.3139525976465676 L399.0,-0.15705379539064301 L400.0,-2.4492935982947065e-15 L400.0,9.999999999999998 L399.0,9.842946204609357 L398.0,9.686047402353433 L397.0,9.529458433407429 L396.0,9.37333383217848 L395.0,9.217827674798839 L394.0,9.06309342707137 L393.0,8.909283793017282 L392.0,8.756550564175722 L391.0,8.60504446980385 L390.0,8.45491502812526 L389.0,8.306310398773542 L388.0,8.15937723657661 L387.0,8.014260546826097 L386.0,7.87110354217463 L385.0,7.730047501302268 L384.0,7.591231629491419 L383.0,7.4547929212481385 L382.0,7.320866025105014 L381.0,7.189583110739344 L380.0,7.061073738537633 L379.0,6.935464731735117 L378.0,6.812880051256551 L377.0,6.693440673381734 L376.0,6.577264470356558 L375.0,6.464466094067258 L374.0,6.355156862892945 L373.0,6.2494446518477 L372.0,6.14743378612105 L371.0,6.049224938121546 L370.0,5.954915028125262 L369.0,5.8645971286271905 L368.0,5.77836037248992 L367.0,5.696289864980281 L366.0,5.618466599780678 L365.0,5.5449673790581615 L364.0,5.4758647376699 L363.0,5.411226871580096 L362.0,5.351117570558742 L361.0,5.295596155228871 L360.0,5.244717418524231 L359.0,5.198531571615282 L358.0,5.157084194356844 L357.0,5.120416190306261 L356.0,5.088563746356557 L355.0,5.061558297024311 L354.0,5.039426493427611 L353.0,5.0221901769846 L352.0,5.009866357858642 L351.0,5.002467198171342 L350.0,5.0 L349.0,5.002467198171342 L348.0,5.009866357858643 L347.0,5.0221901769846 L346.0,5.039426493427611 L345.0,5.061558297024311 L344.0,5.088563746356558 L343.0,5.120416190306262 L342.0,5.1570841943568455 L341.0,5.198531571615288 L340.0,5.244717418524233 L339.0,5.295596155228876 L338.0,5.351117570558744 L337.0,5.411226871580098 L336.0,5.475864737669902 L335.0,5.544967379058164 L334.0,5.61846659978068 L333.0,5.696289864980284 L332.0,5.778360372489922 L331.0,5.864597128627192 L330.0,5.954915028125269 L329.0,6.049224938121549 L328.0,6.147433786121059 L327.0,6.249444651847702 L326.0,6.355156862892947 L325.0,6.464466094067268 L324.0,6.57726447035656 L323.0,6.693440673381744 L322.0,6.812880051256554 L321.0,6.93546473173512 L320.0,7.061073738537636 L319.0,7.189583110739347 L318.0,7.320866025105017 L317.0,7.454792921248143 L316.0,7.591231629491422 L315.0,7.730047501302264 L314.0,7.871103542174642 L313.0,8.014260546826101 L312.0,8.159377236576614 L311.0,8.306310398773546 L310.0,8.454915028125265 L309.0,8.605044469803854 L308.0,8.756550564175726 L307.0,8.909283793017286 L306.0,9.063093427071376 L305.0,9.217827674798842 L304.0,9.373333832178485 L303.0,9.529458433407433 L302.0,9.686047402353436 L301.0,9.842946204609362 L300.0,10.000000000000002 L299.0,10.157053795390642 L298.0,10.313952597646567 L297.0,10.470541566592571 L296.0,10.626666167821519 L295.0,10.782172325201152 L294.0,10.93690657292862 L293.0,11.090716206982718 L292.0,11.243449435824278 L291.0,11.39495553019615 L290.0,11.54508497187474 L289.0,11.693689601226458 L288.0,11.84062276342339 L287.0,11.985739453173903 L286.0,12.128896457825363 L285.0,12.269952498697732 L284.0,12.408768370508573 L283.0,12.545207078751853 L282.0,12.679133974894986 L281.0,12.810416889260654 L280.0,12.938926261462367 L279.0,13.064535268264883 L278.0,13.18711994874345 L277.0,13.30655932661826 L276.0,13.422735529643441 L275.0,13.535533905932736 L274.0,13.644843137107054 L273.0,13.750555348152295 L272.0,13.852566213878942 L271.0,13.950775061878453 L270.0,14.045084971874738 L269.0,14.13540287137281 L268.0,14.221639627510076 L267.0,14.303710135019717 L266.0,14.381533400219316 L265.0,14.455032620941838 L264.0,14.524135262330097 L263.0,14.588773128419904 L262.0,14.648882429441258 L261.0,14.704403844771129 L260.0,14.755282581475768 L259.0,14.801468428384716 L258.0,14.842915805643155 L257.0,14.879583809693736 L256.0,14.911436253643444 L255.0,14.938441702975688 L254.0,14.96057350657239 L253.0,14.9778098230154 L252.0,14.990133642141359 L251.0,14.997532801828658 L250.0,15.0 L249.0,14.997532801828658 L248.0,14.990133642141359 L247.0,14.9778098230154 L246.0,14.960573506572388 L245.0,14.938441702975688 L244.0,14.911436253643444 L243.0,14.879583809693738 L242.0,14.842915805643155 L241.0,14.801468428384716 L240.0,14.755282581475766 L239.0,14.704403844771125 L238.0,14.648882429441255 L237.0,14.588773128419906 L236.0,14.524135262330097 L235.0,14.45503262094184 L234.0,14.381533400219318 L233.0,14.303710135019719 L232.0,14.221639627510076 L231.0,14.135402871372811 L230.0,14.04508497187474 L229.0,13.95077506187845 L228.0,13.852566213878944 L227.0,13.750555348152297 L226.0,13.644843137107056 L225.0,13.535533905932738 L224.0,13.422735529643443 L223.0,13.30655932661826 L222.0,13.187119948743451 L221.0,13.064535268264883 L220.0,12.938926261462365 L219.0,12.810416889260653 L218.0,12.679133974894981 L217.0,12.545207078751854 L216.0,12.408768370508575 L215.0,12.269952498697734 L214.0,12.128896457825363 L213.0,11.985739453173903 L212.0,11.84062276342339 L211.0,11.693689601226454 L210.0,11.545084971874736 L209.0,11.394955530196146 L208.0,11.243449435824274 L207.0,11.090716206982709 L206.0,10.93690657292862 L205.0,10.782172325201152 L204.0,10.62666616782152 L203.0,10.470541566592573 L202.0,10.313952597646564 L201.0,10.15705379539064 L200.0,9.999999999999998 L199.0,9.842946204609358 L198.0,9.686047402353434 L197.0,9.529458433407425 L196.0,9.373333832178476 L195.0,9.217827674798844 L194.0,9.063093427071376 L193.0,8.909283793017284 L192.0,8.756550564175724 L191.0,8.605044469803852 L190.0,8.454915028125262 L189.0,8.306310398773544 L188.0,8.15937723657661 L187.0,8.014260546826097 L186.0,7.871103542174636 L185.0,7.730047501302265 L184.0,7.5912316294914195 L183.0,7.45479292124814 L182.0,7.320866025105015 L181.0,7.1895831107393455 L180.0,7.061073738537633 L179.0,6.9354647317351175 L178.0,6.812880051256552 L177.0,6.693440673381742 L176.0,6.577264470356555 L175.0,6.464466094067259 L174.0,6.355156862892939 L173.0,6.2494446518477 L172.0,6.147433786121052 L171.0,6.049224938121547 L170.0,5.954915028125262 L169.0,5.8645971286271905 L168.0,5.778360372489925 L167.0,5.696289864980283 L166.0,5.6184665997806835 L165.0,5.544967379058158 L164.0,5.475864737669901 L163.0,5.411226871580093 L162.0,5.351117570558742 L161.0,5.295596155228872 L160.0,5.244717418524232 L159.0,5.198531571615285 L158.0,5.157084194356845 L157.0,5.120416190306262 L156.0,5.088563746356557 L155.0,5.061558297024311 L154.0,5.0394264934276105 L153.0,5.0221901769846 L152.0,5.009866357858642 L151.0,5.002467198171342 L150.0,5.0 L149.0,5.002467198171342 L148.0,5.009866357858642 L147.0,5.0221901769846 L146.0,5.039426493427611 L145.0,5.061558297024312 L144.0,5.088563746356557 L143.0,5.120416190306263 L142.0,5.157084194356844 L141.0,5.198531571615285 L140.0,5.244717418524233 L139.0,5.295596155228873 L138.0,5.351117570558743 L137.0,5.4112268715800935 L136.0,5.475864737669901 L135.0,5.544967379058161 L134.0,5.618466599780682 L133.0,5.696289864980281 L132.0,5.7783603724899235 L131.0,5.864597128627192 L130.0,5.954915028125264 L129.0,6.049224938121548 L128.0,6.147433786121053 L127.0,6.2494446518477025 L126.0,6.355156862892942 L125.0,6.464466094067264 L124.0,6.577264470356559 L123.0,6.693440673381741 L122.0,6.812880051256552 L121.0,6.935464731735117 L120.0,7.061073738537637 L119.0,7.189583110739349 L118.0,7.320866025105017 L117.0,7.454792921248144 L116.0,7.591231629491423 L115.0,7.7300475013022645 L114.0,7.871103542174639 L113.0,8.014260546826097 L112.0,8.15937723657661 L111.0,8.306310398773542 L110.0,8.454915028125264 L109.0,8.605044469803856 L108.0,8.756550564175727 L107.0,8.909283793017288 L106.0,9.063093427071376 L105.0,9.217827674798846 L104.0,9.373333832178478 L103.0,9.529458433407429 L102.0,9.686047402353433 L101.0,9.84294620460936 L100.0,10.0 L99.0,10.157053795390642 L98.0,10.313952597646567 L97.0,10.470541566592571 L96.0,10.626666167821522 L95.0,10.782172325201154 L94.0,10.936906572928622 L93.0,11.090716206982714 L92.0,11.243449435824276 L91.0,11.394955530196148 L90.0,11.545084971874738 L89.0,11.693689601226456 L88.0,11.84062276342339 L87.0,11.985739453173906 L86.0,12.128896457825364 L85.0,12.269952498697734 L84.0,12.408768370508575 L83.0,12.545207078751854 L82.0,12.679133974894985 L81.0,12.810416889260654 L80.0,12.938926261462367 L79.0,13.064535268264882 L78.0,13.18711994874345 L77.0,13.30655932661826 L76.0,13.422735529643443 L75.0,13.535533905932738 L74.0,13.644843137107056 L73.0,13.750555348152298 L72.0,13.852566213878946 L71.0,13.950775061878451 L70.0,14.045084971874736 L69.0,14.135402871372808 L68.0,14.221639627510076 L67.0,14.303710135019719 L66.0,14.381533400219318 L65.0,14.45503262094184 L64.0,14.524135262330098 L63.0,14.588773128419906 L62.0,14.648882429441258 L61.0,14.704403844771127 L60.0,14.755282581475768 L59.0,14.801468428384716 L58.0,14.842915805643155 L57.0,14.879583809693738 L56.0,14.911436253643444 L55.0,14.93844170297569 L54.0,14.96057350657239 L53.0,14.9778098230154 L52.0,14.990133642141359 L51.0,14.997532801828658 L50.0,15.0 L49.0,14.997532801828658 L48.0,14.990133642141359 L47.0,14.9778098230154 L46.0,14.960573506572388 L45.0,14.93844170297569 L44.0,14.911436253643444 L43.0,14.879583809693736 L42.0,14.842915805643155 L41.0,14.801468428384716 L40.0,14.755282581475768 L39.0,14.704403844771127 L38.0,14.648882429441256 L37.0,14.588773128419906 L36.0,14.524135262330098 L35.0,14.45503262094184 L34.0,14.381533400219318 L33.0,14.303710135019719 L32.0,14.221639627510076 L31.0,14.13540287137281 L30.0,14.045084971874736 L29.0,13.950775061878453 L28.0,13.852566213878946 L27.0,13.750555348152297 L26.0,13.644843137107058 L25.0,13.535533905932738 L24.0,13.422735529643443 L23.0,13.30655932661826 L22.0,13.187119948743447 L21.0,13.064535268264883 L20.0,12.938926261462367 L19.0,12.810416889260653 L18.0,12.679133974894983 L17.0,12.545207078751856 L16.0,12.408768370508577 L15.0,12.269952498697734 L14.0,12.128896457825363 L13.0,11.985739453173903 L12.0,11.84062276342339 L11.0,11.693689601226456 L10.0,11.545084971874736 L9.0,11.394955530196146 L8.0,11.243449435824274 L7.0,11.090716206982712 L6.0,10.936906572928622 L5.0,10.782172325201154 L4.0,10.626666167821522 L3.0,10.470541566592571 L2.0,10.313952597646567 L1.0,10.157053795390642 L0.0,10.0" fill="#FFFFFF"  />
<!-- Path -->
<path d="M0.0,0.0 L1.0,0.15705379539064146 L2.0,0.31395259764656686 L3.0,0.47054156659257157 L4.0,0.6266661678215213 L5.0,0.7821723252011543 L6.0,0.936906572928623 L7.0,1.0907162069827128 L8.0,1.243449435824274 L9.0,1.3949555301961465 L10.0,1.545084971874737 L11.0,1.6936896012264568 L12.0,1.8406227634233896 L13.0,1.985739453173903 L14.0,2.1288964578253635 L15.0,2.2699524986977337 L16.0,2.4087683705085765 L17.0,2.5452070787518566 L18.0,2.679133974894983 L19.0,2.8104168892606527 L20.0,2.938926261462366 L21.0,3.0645352682648825 L22.0,3.1871199487434483 L23.0,3.306559326618259 L24.0,3.422735529643443 L25.0,3.5355339059327373 L26.0,3.644843137107058 L27.0,3.7505553481522975 L28.0,3.852566213878946 L29.0,3.950775061878452 L30.0,4.045084971874736 L31.0,4.1354028713728095 L32.0,4.221639627510076 L33.0,4.303710135019719 L34.0,4.381533400219318 L35.0,4.455032620941839 L36.0,4.524135262330098 L37.0,4.588773128419906 L38.0,4.648882429441256 L39.0,4.704403844771127 L40.0,4.755282581475767 L41.0,4.801468428384715 L42.0,4.842915805643155 L43.0,4.879583809693736 L44.0,4.911436253643443 L45.0,4.938441702975689 L46.0,4.960573506572389 L47.0,4.9778098230154 L48.0,4.990133642141358 L49.0,4.997532801828658 L50.0,5.0 L51.0,4.997532801828658 L52.0,4.990133642141358 L53.0,4.9778098230154 L54.0,4.9605735065723895 L55.0,4.938441702975689 L56.0,4.911436253643443 L57.0,4.879583809693737 L58.0,4.842915805643155 L59.0,4.801468428384715 L60.0,4.755282581475768 L61.0,4.704403844771127 L62.0,4.648882429441257 L63.0,4.588773128419906 L64.0,4.524135262330097 L65.0,4.455032620941839 L66.0,4.381533400219317 L67.0,4.303710135019719 L68.0,4.221639627510075 L69.0,4.135402871372809 L70.0,4.045084971874737 L71.0,3.9507750618784514 L72.0,3.852566213878946 L73.0,3.750555348152298 L74.0,3.644843137107057 L75.0,3.5355339059327378 L76.0,3.422735529643444 L77.0,3.306559326618259 L78.0,3.187119948743449 L79.0,3.0645352682648817 L80.0,2.9389262614623664 L81.0,2.810416889260654 L82.0,2.679133974894985 L83.0,2.5452070787518553 L84.0,2.408768370508576 L85.0,2.269952498697734 L86.0,2.1288964578253644 L87.0,1.9857394531739052 L88.0,1.8406227634233907 L89.0,1.6936896012264566 L90.0,1.5450849718747375 L91.0,1.3949555301961478 L92.0,1.2434494358242763 L93.0,1.0907162069827139 L94.0,0.9369065729286229 L95.0,0.7821723252011549 L96.0,0.6266661678215226 L97.0,0.47054156659257174 L98.0,0.3139525976465679 L99.0,0.15705379539064118 L100.0,6.123233995736766e-16 L101.0,-0.15705379539063996 L102.0,-0.31395259764656674 L103.0,-0.4705415665925705 L104.0,-0.6266661678215214 L105.0,-0.7821723252011537 L106.0,-0.9369065729286239 L107.0,-1.0907162069827125 L108.0,-1.243449435824273 L109.0,-1.3949555301961445 L110.0,-1.5450849718747364 L111.0,-1.6936896012264575 L112.0,-1.8406227634233896 L113.0,-1.985739453173902 L114.0,-2.1288964578253613 L115.0,-2.2699524986977355 L116.0,-2.408768370508577 L117.0,-2.545207078751856 L118.0,-2.6791339748949823 L119.0,-2.8104168892606514 L120.0,-2.9389262614623632 L121.0,-3.064535268264883 L122.0,-3.1871199487434483 L123.0,-3.3065593266182587 L124.0,-3.422735529643442 L125.0,-3.5355339059327355 L126.0,-3.644843137107058 L127.0,-3.7505553481522975 L128.0,-3.852566213878947 L129.0,-3.950775061878452 L130.0,-4.045084971874736 L131.0,-4.135402871372808 L132.0,-4.2216396275100765 L133.0,-4.303710135019719 L134.0,-4.381533400219318 L135.0,-4.455032620941839 L136.0,-4.524135262330099 L137.0,-4.5887731284199065 L138.0,-4.648882429441257 L139.0,-4.704403844771127 L140.0,-4.755282581475767 L141.0,-4.801468428384715 L142.0,-4.842915805643156 L143.0,-4.879583809693737 L144.0,-4.911436253643443 L145.0,-4.938441702975688 L146.0,-4.960573506572389 L147.0,-4.9778098230154 L148.0,-4.990133642141358 L149.0,-4.997532801828658 L150.0,-5.0 L151.0,-4.997532801828658 L152.0,-4.990133642141358 L153.0,-4.9778098230154 L154.0,-4.9605735065723895 L155.0,-4.938441702975689 L156.0,-4.911436253643443 L157.0,-4.879583809693738 L158.0,-4.842915805643155 L159.0,-4.801468428384715 L160.0,-4.755282581475768 L161.0,-4.704403844771128 L162.0,-4.648882429441258 L163.0,-4.588773128419907 L164.0,-4.524135262330099 L165.0,-4.455032620941842 L166.0,-4.3815334002193165 L167.0,-4.303710135019717 L168.0,-4.221639627510075 L169.0,-4.1354028713728095 L170.0,-4.045084971874738 L171.0,-3.950775061878453 L172.0,-3.852566213878948 L173.0,-3.7505553481523 L174.0,-3.6448431371070606 L175.0,-3.5355339059327417 L176.0,-3.422735529643445 L177.0,-3.306559326618258 L178.0,-3.1871199487434483 L179.0,-3.0645352682648825 L180.0,-2.938926261462367 L181.0,-2.8104168892606545 L182.0,-2.6791339748949854 L183.0,-2.5452070787518597 L184.0,-2.4087683705085805 L185.0,-2.2699524986977346 L186.0,-2.128896457825365 L187.0,-1.9857394531739017 L188.0,-1.8406227634233894 L189.0,-1.693689601226457 L190.0,-1.5450849718747381 L191.0,-1.3949555301961483 L192.0,-1.2434494358242767 L193.0,-1.0907162069827165 L194.0,-0.9369065729286234 L195.0,-0.7821723252011556 L196.0,-0.6266661678215233 L197.0,-0.4705415665925745 L198.0,-0.3139525976465663 L199.0,-0.1570537953906418 L200.0,-1.2246467991473533e-15 L201.0,0.15705379539063935 L202.0,0.3139525976465639 L203.0,0.4705415665925721 L204.0,0.6266661678215208 L205.0,0.7821723252011531 L206.0,0.936906572928621 L207.0,1.0907162069827097 L208.0,1.2434494358242745 L209.0,1.3949555301961458 L210.0,1.545084971874736 L211.0,1.6936896012264548 L212.0,1.840622763423391 L213.0,1.9857394531739034 L214.0,2.1288964578253626 L215.0,2.269952498697733 L216.0,2.4087683705085743 L217.0,2.545207078751854 L218.0,2.67913397489498 L219.0,2.8104168892606527 L220.0,2.9389262614623646 L221.0,3.0645352682648843 L222.0,3.18711994874345 L223.0,3.3065593266182596 L224.0,3.422735529643443 L225.0,3.535533905932737 L226.0,3.644843137107056 L227.0,3.7505553481522957 L228.0,3.8525662138789434 L229.0,3.9507750618784487 L230.0,4.045084971874739 L231.0,4.13540287137281 L232.0,4.221639627510076 L233.0,4.303710135019719 L234.0,4.381533400219318 L235.0,4.455032620941839 L236.0,4.5241352623300966 L237.0,4.588773128419905 L238.0,4.648882429441255 L239.0,4.704403844771125 L240.0,4.755282581475766 L241.0,4.801468428384716 L242.0,4.842915805643156 L243.0,4.879583809693737 L244.0,4.911436253643443 L245.0,4.938441702975688 L246.0,4.960573506572389 L247.0,4.9778098230154 L248.0,4.990133642141358 L249.0,4.997532801828657 L250.0,5.0 L251.0,4.997532801828657 L252.0,4.990133642141358 L253.0,4.9778098230154 L254.0,4.9605735065723895 L255.0,4.938441702975688 L256.0,4.911436253643443 L257.0,4.879583809693736 L258.0,4.842915805643155 L259.0,4.801468428384715 L260.0,4.755282581475768 L261.0,4.704403844771129 L262.0,4.648882429441258 L263.0,4.588773128419904 L264.0,4.5241352623300966 L265.0,4.455032620941838 L266.0,4.3815334002193165 L267.0,4.303710135019718 L268.0,4.221639627510076 L269.0,4.1354028713728095 L270.0,4.045084971874738 L271.0,3.950775061878453 L272.0,3.852566213878943 L273.0,3.750555348152295 L274.0,3.644843137107055 L275.0,3.5355339059327355 L276.0,3.422735529643442 L277.0,3.3065593266182587 L278.0,3.1871199487434487 L279.0,3.064535268264883 L280.0,2.938926261462367 L281.0,2.8104168892606554 L282.0,2.6791339748949863 L283.0,2.5452070787518526 L284.0,2.4087683705085734 L285.0,2.2699524986977315 L286.0,2.1288964578253617 L287.0,1.9857394531739023 L288.0,1.8406227634233898 L289.0,1.6936896012264577 L290.0,1.545084971874739 L291.0,1.394955530196149 L292.0,1.2434494358242774 L293.0,1.0907162069827172 L294.0,0.9369065729286197 L295.0,0.7821723252011517 L296.0,0.6266661678215195 L297.0,0.47054156659257074 L298.0,0.3139525976465669 L299.0,0.1570537953906424 L300.0,1.8369701987210296e-15 L301.0,-0.15705379539063874 L302.0,-0.31395259764656325 L303.0,-0.47054156659256713 L304.0,-0.6266661678215159 L305.0,-0.7821723252011569 L306.0,-0.9369065729286248 L307.0,-1.0907162069827134 L308.0,-1.2434494358242738 L309.0,-1.3949555301961452 L310.0,-1.5450849718747353 L311.0,-1.6936896012264544 L312.0,-1.8406227634233863 L313.0,-1.985739453173899 L314.0,-2.128896457825358 L315.0,-2.2699524986977364 L316.0,-2.408768370508578 L317.0,-2.545207078751857 L318.0,-2.6791339748949827 L319.0,-2.8104168892606523 L320.0,-2.938926261462364 L321.0,-3.0645352682648803 L322.0,-3.1871199487434456 L323.0,-3.306559326618256 L324.0,-3.422735529643439 L325.0,-3.535533905932733 L326.0,-3.6448431371070527 L327.0,-3.750555348152298 L328.0,-3.8525662138789403 L329.0,-3.950775061878451 L330.0,-4.045084971874731 L331.0,-4.135402871372808 L332.0,-4.221639627510078 L333.0,-4.303710135019716 L334.0,-4.38153340021932 L335.0,-4.455032620941836 L336.0,-4.524135262330098 L337.0,-4.588773128419902 L338.0,-4.648882429441256 L339.0,-4.704403844771124 L340.0,-4.755282581475767 L341.0,-4.801468428384712 L342.0,-4.8429158056431545 L343.0,-4.879583809693738 L344.0,-4.911436253643442 L345.0,-4.938441702975689 L346.0,-4.960573506572389 L347.0,-4.9778098230154 L348.0,-4.990133642141357 L349.0,-4.997532801828658 L350.0,-5.0 L351.0,-4.997532801828658 L352.0,-4.990133642141358 L353.0,-4.9778098230154 L354.0,-4.960573506572389 L355.0,-4.938441702975689 L356.0,-4.911436253643443 L357.0,-4.879583809693739 L358.0,-4.842915805643156 L359.0,-4.801468428384718 L360.0,-4.755282581475769 L361.0,-4.704403844771129 L362.0,-4.648882429441258 L363.0,-4.588773128419904 L364.0,-4.5241352623301 L365.0,-4.4550326209418385 L366.0,-4.381533400219322 L367.0,-4.303710135019719 L368.0,-4.22163962751008 L369.0,-4.1354028713728095 L370.0,-4.045084971874738 L371.0,-3.9507750618784536 L372.0,-3.852566213878949 L373.0,-3.7505553481523006 L374.0,-3.6448431371070553 L375.0,-3.535533905932742 L376.0,-3.4227355296434423 L377.0,-3.306559326618266 L378.0,-3.1871199487434487 L379.0,-3.0645352682648834 L380.0,-2.9389262614623672 L381.0,-2.810416889260656 L382.0,-2.6791339748949867 L383.0,-2.545207078751861 L384.0,-2.4087683705085814 L385.0,-2.269952498697732 L386.0,-2.12889645782537 L387.0,-1.9857394531739028 L388.0,-1.8406227634233905 L389.0,-1.6936896012264582 L390.0,-1.5450849718747395 L391.0,-1.3949555301961494 L392.0,-1.243449435824278 L393.0,-1.0907162069827177 L394.0,-0.936906572928629 L395.0,-0.7821723252011612 L396.0,-0.6266661678215201 L397.0,-0.47054156659257135 L398.0,-0.3139525976465676 L399.0,-0.15705379539064301 L400.0,-2.4492935982947065e-15" stroke-width="1" stroke-linecap="round" stroke="#000000" fill="none"  />
<!-- Path -->
<path d="M400.0,9.999999999999998 L399.0,9.842946204609357 L398.0,9.686047402353433 L397.0,9.529458433407429 L396.0,9.37333383217848 L395.0,9.217827674798839 L394.0,9.06309342707137 L393.0,8.909283793017282 L392.0,8.756550564175722 L391.0,8.60504446980385 L390.0,8.45491502812526 L389.0,8.306310398773542 L388.0,8.15937723657661 L387.0,8.014260546826097 L386.0,7.87110354217463 L385.0,7.730047501302268 L384.0,7.591231629491419 L383.0,7.4547929212481385 L382.0,7.320866025105014 L381.0,7.189583110739344 L380.0,7.061073738537633 L379.0,6.935464731735117 L378.0,6.812880051256551 L377.0,6.693440673381734 L376.0,6.577264470356558 L375.0,6.464466094067258 L374.0,6.355156862892945 L373.0,6.2494446518477 L372.0,6.14743378612105 L371.0,6.049224938121546 L370.0,5.954915028125262 L369.0,5.8645971286271905 L368.0,5.77836037248992 L367.0,5.696289864980281 L366.0,5.618466599780678 L365.0,5.5449673790581615 L364.0,5.4758647376699 L363.0,5.411226871580096 L362.0,5.351117570558742 L361.0,5.295596155228871 L360.0,5.244717418524231 L359.0,5.198531571615282 L358.0,5.157084194356844 L357.0,5.120416190306261 L356.0,5.088563746356557 L355.0,5.061558297024311 L354.0,5.039426493427611 L353.0,5.0221901769846 L352.0,5.009866357858642 L351.0,5.002467198171342 L350.0,5.0 L349.0,5.002467198171342 L348.0,5.009866357858643 L347.0,5.0221901769846 L346.0,5.039426493427611 L345.0,5.061558297024311 L344.0,5.088563746356558 L343.0,5.120416190306262 L342.0,5.1570841943568455 L341.0,5.198531571615288 L340.0,5.244717418524233 L339.0,5.295596155228876 L338.0,5.351117570558744 L337.0,5.411226871580098 L336.0,5.475864737669902 L335.0,5.544967379058164 L334.0,5.61846659978068 L333.0,5.696289864980284 L332.0,5.778360372489922 L331.0,5.864597128627192 L330.0,5.954915028125269 L329.0,6.049224938121549 L328.0,6.147433786121059 L327.0,6.249444651847702 L326.0,6.355156862892947 L325.0,6.464466094067268 L324.0,6.57726447035656 L323.0,6.693440673381744 L322.0,6.812880051256554 L321.0,6.93546473173512 L320.0,7.061073738537636 L319.0,7.189583110739347 L318.0,7.320866025105017 L317.0,7.454792921248143 L316.0,7.591231629491422 L315.0,7.730047501302264 L314.0,7.871103542174642 L313.0,8.014260546826101 L312.0,8.159377236576614 L311.0,8.306310398773546 L310.0,8.454915028125265 L309.0,8.605044469803854 L308.0,8.756550564175726 L307.0,8.909283793017286 L306.0,9.063093427071376 L305.0,9.217827674798842 L304.0,9.373333832178485 L303.0,9.529458433407433 L302.0,9.686047402353436 L301.0,9.842946204609362 L300.0,10.000000000000002 L299.0,10.157053795390642 L298.0,10.313952597646567 L297.0,10.470541566592571 L296.0,10.626666167821519 L295.0,10.782172325201152 L294.0,10.93690657292862 L293.0,11.090716206982718 L292.0,11.243449435824278 L291.0,11.39495553019615 L290.0,11.54508497187474 L289.0,11.693689601226458 L288.0,11.84062276342339 L287.0,11.985739453173903 L286.0,12.128896457825363 L285.0,12.269952498697732 L284.0,12.408768370508573 L283.0,12.545207078751853 L282.0,12.679133974894986 L281.0,12.810416889260654 L280.0,12.938926261462367 L279.0,13.064535268264883 L278.0,13.18711994874345 L277.0,13.30655932661826 L276.0,13.422735529643441 L275.0,13.535533905932736 L274.0,13.644843137107054 L273.0,13.750555348152295 L272.0,13.852566213878942 L271.0,13.950775061878453 L270.0,14.045084971874738 L269.0,14.13540287137281 L268.0,14.221639627510076 L267.0,14.303710135019717 L266.0,14.381533400219316 L265.0,14.455032620941838 L264.0,14.524135262330097 L263.0,14.588773128419904 L262.0,14.648882429441258 L261.0,14.704403844771129 L260.0,14.755282581475768 L259.0,14.801468428384716 L258.0,14.842915805643155 L257.0,14.879583809693736 L256.0,14.911436253643444 L255.0,14.938441702975688 L254.0,14.96057350657239 L253.0,14.9778098230154 L252.0,14.990133642141359 L251.0,14.997532801828658 L250.0,15.0 L249.0,14.997532801828658 L248.0,14.990133642141359 L247.0,14.9778098230154 L246.0,14.960573506572388 L245.0,14.938441702975688 L244.0,14.911436253643444 L243.0,14.879583809693738 L242.0,14.842915805643155 L241.0,14.801468428384716 L240.0,14.755282581475766 L239.0,14.704403844771125 L238.0,14.648882429441255 L237.0,14.588773128419906 L236.0,14.524135262330097 L235.0,14.45503262094184 L234.0,14.381533400219318 L233.0,14.303710135019719 L232.0,14.221639627510076 L231.0,14.135402871372811 L230.0,14.04508497187474 L229.0,13.95077506187845 L228.0,13.852566213878944 L227.0,13.750555348152297 L226.0,13.644843137107056 L225.0,13.535533905932738 L224.0,13.422735529643443 L223.0,13.30655932661826 L222.0,13.187119948743451 L221.0,13.064535268264883 L220.0,12.938926261462365 L219.0,12.810416889260653 L218.0,12.679133974894981 L217.0,12.545207078751854 L216.0,12.408768370508575 L215.0,12.269952498697734 L214.0,12.128896457825363 L213.0,11.985739453173903 L212.0,11.84062276342339 L211.0,11.693689601226454 L210.0,11.545084971874736 L209.0,11.394955530196146 L208.0,11.243449435824274 L207.0,11.090716206982709 L206.0,10.93690657292862 L205.0,10.782172325201152 L204.0,10.62666616782152 L203.0,10.470541566592573 L202.0,10.313952597646564 L201.0,10.15705379539064 L200.0,9.999999999999998 L199.0,9.842946204609358 L198.0,9.686047402353434 L197.0,9.529458433407425 L196.0,9.373333832178476 L195.0,9.217827674798844 L194.0,9.063093427071376 L193.0,8.909283793017284 L192.0,8.756550564175724 L191.0,8.605044469803852 L190.0,8.454915028125262 L189.0,8.306310398773544 L188.0,8.15937723657661 L187.0,8.014260546826097 L186.0,7.871103542174636 L185.0,7.730047501302265 L184.0,7.5912316294914195 L183.0,7.45479292124814 L182.0,7.320866025105015 L181.0,7.1895831107393455 L180.0,7.061073738537633 L179.0,6.9354647317351175 L178.0,6.812880051256552 L177.0,6.693440673381742 L176.0,6.577264470356555 L175.0,6.464466094067259 L174.0,6.355156862892939 L173.0,6.2494446518477 L172.0,6.147433786121052 L171.0,6.049224938121547 L170.0,5.954915028125262 L169.0,5.8645971286271905 L168.0,5.778360372489925 L167.0,5.696289864980283 L166.0,5.6184665997806835 L165.0,5.544967379058158 L164.0,5.475864737669901 L163.0,5.411226871580093 L162.0,5.351117570558742 L161.0,5.295596155228872 L160.0,5.244717418524232 L159.0,5.198531571615285 L158.0,5.157084194356845 L157.0,5.120416190306262 L156.0,5.088563746356557 L155.0,5.061558297024311 L154.0,5.0394264934276105 L153.0,5.0221901769846 L152.0,5.009866357858642 L151.0,5.002467198171342 L150.0,5.0 L149.0,5.002467198171342 L148.0,5.009866357858642 L147.0,5.0221901769846 L146.0,5.039426493427611 L145.0,5.061558297024312 L144.0,5.088563746356557 L143.0,5.120416190306263 L142.0,5.157084194356844 L141.0,5.198531571615285 L140.0,5.244717418524233 L139.0,5.295596155228873 L138.0,5.351117570558743 L137.0,5.4112268715800935 L136.0,5.475864737669901 L135.0,5.544967379058161 L134.0,5.618466599780682 L133.0,5.696289864980281 L132.0,5.7783603724899235 L131.0,5.864597128627192 L130.0,5.954915028125264 L129.0,6.049224938121548 L128.0,6.147433786121053 L127.0,6.2494446518477025 L126.0,6.355156862892942 L125.0,6.464466094067264 L124.0,6.577264470356559 L123.0,6.693440673381741 L122.0,6.812880051256552 L121.0,6.935464731735117 L120.0,7.061073738537637 L119.0,7.189583110739349 L118.0,7.320866025105017 L117.0,7.454792921248144 L116.0,7.591231629491423 L115.0,7.7300475013022645 L114.0,7.871103542174639 L113.0,8.014260546826097 L112.0,8.15937723657661 L111.0,8.306310398773542 L110.0,8.454915028125264 L109.0,8.605044469803856 L108.0,8.756550564175727 L107.0,8.909283793017288 L106.0,9.063093427071376 L105.0,9.217827674798846 L104.0,9.373333832178478 L103.0,9.529458433407429 L102.0,9.686047402353433 L101.0,9.84294620460936 L100.0,10.0 L99.0,10.157053795390642 L98.0,10.313952597646567 L97.0,10.470541566592571 L96.0,10.626666167821522 L95.0,10.782172325201154 L94.0,10.936906572928622 L93.0,11.090716206982714 L92.0,11.243449435824276 L91.0,11.394955530196148 L90.0,11.545084971874738 L89.0,11.693689601226456 L88.0,11.84062276342339 L87.0,11.985739453173906 L86.0,12.128896457825364 L85.0,12.269952498697734 L84.0,12.408768370508575 L83.0,12.545207078751854 L82.0,12.679133974894985 L81.0,12.810416889260654 L80.0,12.938926261462367 L79.0,13.064535268264882 L78.0,13.18711994874345 L77.0,13.30655932661826 L76.0,13.422735529643443 L75.0,13.535533905932738 L74.0,13.644843137107056 L73.0,13.750555348152298 L72.0,13.852566213878946 L71.0,13.950775061878451 L70.0,14.045084971874736 L69.0,14.135402871372808 L68.0,14.221639627510076 L67.0,14.303710135019719 L66.0,14.381533400219318 L65.0,14.45503262094184 L64.0,14.524135262330098 L63.0,14.588773128419906 L62.0,14.648882429441258 L61.0,14.704403844771127 L60.0,14.755282581475768 L59.0,14.801468428384716 L58.0,14.842915805643155 L57.0,14.879583809693738 L56.0,14.911436253643444 L55.0,14.93844170297569 L54.0,14.96057350657239 L53.0,14.9778098230154 L52.0,14.990133642141359 L51.0,14.997532801828658 L50.0,15.0 L49.0,14.997532801828658 L48.0,14.990133642141359 L47.0,14.9778098230154 L46.0,14.960573506572388 L45.0,14.93844170297569 L44.0,14.911436253643444 L43.0,14.879583809693736 L42.0,14.842915805643155 L41.0,14.801468428384716 L40.0,14.755282581475768 L39.0,14.704403844771127 L38.0,14.648882429441256 L37.0,14.588773128419906 L36.0,14.524135262330098 L35.0,14.45503262094184 L34.0,14.381533400219318 L33.0,14.303710135019719 L32.0,14.221639627510076 L31.0,14.13540287137281 L30.0,14.045084971874736 L29.0,13.950775061878453 L28.0,13.852566213878946 L27.0,13.750555348152297 L26.0,13.644843137107058 L25.0,13.535533905932738 L24.0,13.422735529643443 L23.0,13.30655932661826 L22.0,13.187119948743447 L21.0,13.064535268264883 L20.0,12.938926261462367 L19.0,12.810416889260653 L18.0,12.679133974894983 L17.0,12.545207078751856 L16.0,12.408768370508577 L15.0,12.269952498697734 L14.0,12.128896457825363 L13.0,11.985739453173903 L12.0,11.84062276342339 L11.0,11.693689601226456 L10.0,11.545084971874736 L9.0,11.394955530196146 L8.0,11.243449435824274 L7.0,11.090716206982712 L6.0,10.936906572928622 L5.0,10.782172325201154 L4.0,10.626666167821522 L3.0,10.470541566592571 L2.0,10.313952597646567 L1.0,10.157053795390642 L0.0,10.0" stroke-width="1" stroke-linecap="round" stroke="#000000" fill="none"  />
<!-- Footer -->
</svg>
