<!-- Header -->
<svg
    version="1.1"
    baseProfile="full"
    xmlns="http://www.w3.org/2000/svg"
    xmlns:xlink="http://www.w3.org/1999/xlink"
    xmlns:ev="http://www.w3.org/2001/xml-events"
    width="109.99921044203816"
    height="19.99842088407632"
    viewBox="-4.99960522101908 -9.99921044203816 109.99921044203816 19.99842088407632"
    preserveAspectRatio="none"
>
<!-- Body -->
<!-- polyline -->
<polyline points="0.0,0.0 0.1,0.1256504772166874 0.2,0.25122159089884777 0.3,0.3766340276396636 0.4,0.5018085742560745 0.5,0.6266661678215213 0.6,0.7511279456037854 0.7,0.8751152948763802 0.8,0.9985499025720351 0.9,1.1213538047469058 1.0,1.243449435824274 1.1,1.3647596775866262 1.2,1.4852079078851745 1.3,1.6047180490360473 1.4,1.7232146158725854 1.5,1.8406227634233896 1.6,1.9568683341860122 1.7,2.0718779049664207 1.8,2.1855788332546644 1.9,2.297899303107439 2.0,2.4087683705085765 2.1,2.518116008178804 2.2,2.6258731498064787 2.3,2.731971733671345 2.4,2.8363447456337827 2.5,2.938926261462366 2.6,3.039651488473027 2.7,3.1384568064535023 2.8,3.2352798078472214 2.9,3.330059337171258 3.0,3.422735529643443 3.1,3.5132498489942456 3.2,3.601545124439535 3.3,3.6875655867908694 3.4,3.771256903680519 3.5,3.852566213878946 3.6,3.9314421606830945 3.7,4.007834924354382 3.8,4.081696253585919 3.9,4.1529794959790625 4.0,4.221639627510076 4.1,4.287633280968261 4.2,4.350918773347629 4.3,4.4114561321747665 4.4,4.469207120756319 4.5,4.524135262330098 4.6,4.576205863104587 4.7,4.6253860341722906 4.8,4.67164471228306 4.9,4.714952679464322 5.0,4.755282581475767 5.1,4.792608945086879 5.2,4.82690819416637 5.3,4.858158664573369 5.4,4.886340617840967 5.5,4.911436253643443 5.6,4.9334297210393405 5.7,4.952307128483256 5.8,4.968056552600042 5.9,4.980668045715863 6.0,4.990133642141358 6.1,4.996447363202946 6.2,4.99960522101908 6.3,4.99960522101908 6.4,4.996447363202946 6.5,4.990133642141358 6.6,4.980668045715863 6.7,4.968056552600042 6.8,4.952307128483256 6.9,4.9334297210393405 7.0,4.911436253643443 7.1,4.886340617840967 7.2,4.85815866457337 7.3,4.82690819416637 7.4,4.792608945086879 7.5,4.755282581475768 7.6,4.714952679464322 7.7,4.67164471228306 7.8,4.6253860341722906 7.9,4.576205863104588 8.0,4.524135262330097 8.1,4.4692071207563195 8.2,4.411456132174767 8.3,4.350918773347629 8.4,4.287633280968261 8.5,4.221639627510075 8.6,4.152979495979063 8.7,4.08169625358592 8.8,4.007834924354382 8.9,3.931442160683094 9.0,3.852566213878946 9.1,3.77125690368052 9.2,3.6875655867908708 9.3,3.6015451244395336 9.4,3.513249848994246 9.5,3.422735529643444 9.6,3.3300593371712583 9.7,3.2352798078472227 9.8,3.138456806453501 9.9,3.0396514884730266 10.0,2.9389262614623664 10.1,2.8363447456337836 10.2,2.731971733671348 10.3,2.6258731498064765 10.4,2.5181160081788043 10.5,2.408768370508576 10.6,2.297899303107442 10.7,2.185578833254666 10.8,2.0718779049664215 10.9,1.9568683341860118 11.0,1.8406227634233907 11.1,1.7232146158725872 11.2,1.6047180490360486 11.3,1.4852079078851745 11.4,1.3647596775866253 11.5,1.2434494358242763 11.6,1.1213538047469072 11.7,0.9985499025720375 11.8,0.8751152948763794 11.9,0.7511279456037856 12.0,0.6266661678215226 12.1,0.501808574256075 12.2,0.3766340276396652 12.3,0.2512215908988461 12.4,0.12565047721668907 12.5,6.123233995736766e-16 12.6,-0.12565047721668562 12.7,-0.2512215908988471 12.8,-0.37663402763966397 12.9,-0.5018085742560736 13.0,-0.6266661678215214 13.1,-0.7511279456037844 13.2,-0.8751152948763805 13.3,-0.9985499025720341 13.4,-1.121353804746906 13.5,-1.243449435824273 13.6,-1.3647596775866262 13.7,-1.4852079078851712 13.8,-1.6047180490360473 13.9,-1.723214615872584 14.0,-1.8406227634233896 14.1,-1.956868334186013 14.2,-2.071877904966418 14.3,-2.1855788332546653 14.4,-2.297899303107439 14.5,-2.408768370508577 14.6,-2.5181160081788017 14.7,-2.625873149806477 14.8,-2.731971733671345 14.9,-2.8363447456337827 15.0,-2.9389262614623632 15.1,-3.0396514884730252 15.2,-3.138456806453502 15.3,-3.235279807847222 15.4,-3.330059337171259 15.5,-3.422735529643442 15.6,-3.5132498489942456 15.7,-3.601545124439533 15.8,-3.6875655867908703 15.9,-3.7712569036805177 16.0,-3.852566213878947 16.1,-3.931442160683096 16.2,-4.007834924354382 16.3,-4.081696253585919 16.4,-4.152979495979061 16.5,-4.2216396275100765 16.6,-4.287633280968261 16.7,-4.350918773347628 16.8,-4.4114561321747665 16.9,-4.469207120756318 17.0,-4.524135262330099 17.1,-4.576205863104588 17.2,-4.6253860341722906 17.3,-4.671644712283061 17.4,-4.7149526794643215 17.5,-4.755282581475767 17.6,-4.792608945086879 17.7,-4.826908194166369 17.8,-4.85815866457337 17.9,-4.8863406178409665 18.0,-4.911436253643443 18.1,-4.9334297210393405 18.2,-4.952307128483256 18.3,-4.968056552600043 18.4,-4.980668045715862 18.5,-4.990133642141358 18.6,-4.996447363202947 18.7,-4.99960522101908 18.8,-4.99960522101908 18.9,-4.996447363202947 19.0,-4.990133642141358 19.1,-4.980668045715862 19.2,-4.968056552600042 19.3,-4.952307128483256 19.4,-4.9334297210393405 19.5,-4.911436253643443 19.6,-4.8863406178409665 19.7,-4.85815866457337 19.8,-4.826908194166369 19.9,-4.792608945086879 20.0,-4.755282581475768 20.1,-4.714952679464322 20.2,-4.6716447122830616 20.3,-4.62538603417229 20.4,-4.57620586310459 20.5,-4.524135262330099 20.6,-4.469207120756317 20.7,-4.411456132174767 20.8,-4.350918773347629 20.9,-4.287633280968262 21.0,-4.221639627510075 21.1,-4.1529794959790625 21.2,-4.081696253585923 21.3,-4.0078349243543805 21.4,-3.9314421606830967 21.5,-3.852566213878948 21.6,-3.77125690368052 21.7,-3.6875655867908703 21.8,-3.601545124439534 21.9,-3.5132498489942483 22.0,-3.422735529643445 22.1,-3.3300593371712557 22.2,-3.235279807847225 22.3,-3.138456806453505 22.4,-3.0396514884730284 22.5,-2.938926261462367 22.6,-2.8363447456337827 22.7,-2.7319717336713483 22.8,-2.625873149806477 22.9,-2.518116008178805 23.0,-2.4087683705085805 23.1,-2.2978993031074424 23.2,-2.185578833254667 23.3,-2.071877904966422 23.4,-1.9568683341860167 23.5,-1.8406227634233894 23.6,-1.7232146158725836 23.7,-1.604718049036049 23.8,-1.4852079078851752 23.9,-1.36475967758663 24.0,-1.2434494358242767 24.1,-1.1213538047469078 24.2,-0.9985499025720359 24.3,-0.8751152948763801 24.4,-0.7511279456037884 24.5,-0.6266661678215233 24.6,-0.5018085742560711 24.7,-0.3766340276396636 24.8,-0.2512215908988511 24.9,-0.12565047721668968 25.0,-1.2246467991473533e-15 25.1,0.12565047721668723 25.2,0.2512215908988442 25.3,0.3766340276396656 25.4,0.5018085742560731 25.5,0.6266661678215208 25.6,0.751127945603786 25.7,0.8751152948763775 25.8,0.9985499025720335 25.9,1.121353804746901 26.0,1.2434494358242745 26.1,1.3647596775866278 26.2,1.485207907885173 26.3,1.6047180490360469 26.4,1.7232146158725856 26.5,1.840622763423391 26.6,1.9568683341860102 26.7,2.0718779049664158 26.8,2.185578833254665 26.9,2.297899303107436 27.0,2.4087683705085743 27.1,2.5181160081788034 27.2,2.6258731498064787 27.3,2.731971733671346 27.4,2.836344745633777 27.5,2.9389262614623646 27.6,3.039651488473027 27.7,3.1384568064534997 27.8,3.2352798078472196 27.9,3.3300593371712575 28.0,3.422735529643443 28.1,3.5132498489942465 28.2,3.601545124439536 28.3,3.687565586790871 28.4,3.7712569036805155 28.5,3.8525662138789434 28.6,3.931442160683096 28.7,4.007834924354381 28.8,4.081696253585919 28.9,4.152979495979063 29.0,4.221639627510076 29.1,4.2876332809682625 29.2,4.350918773347626 29.3,4.4114561321747665 29.4,4.469207120756317 29.5,4.5241352623300966 29.6,4.576205863104587 29.7,4.6253860341722906 29.8,4.671644712283061 29.9,4.71495267946432 30.0,4.755282581475766 30.1,4.792608945086881 30.2,4.826908194166368 30.3,4.858158664573368 30.4,4.8863406178409665 30.5,4.911436253643443 30.6,4.9334297210393405 30.7,4.952307128483256 30.8,4.968056552600043 30.9,4.980668045715862 31.0,4.990133642141358 31.1,4.996447363202946 31.2,4.99960522101908 31.3,4.99960522101908 31.4,4.996447363202947 31.5,4.990133642141358 31.6,4.980668045715862 31.7,4.968056552600043 31.8,4.952307128483256 31.9,4.9334297210393405 32.0,4.911436253643443 32.1,4.8863406178409665 32.2,4.858158664573368 32.3,4.8269081941663705 32.4,4.79260894508688 32.5,4.755282581475768 32.6,4.714952679464322 32.7,4.67164471228306 32.8,4.625386034172293 32.9,4.576205863104587 33.0,4.5241352623300966 33.1,4.469207120756317 33.2,4.411456132174768 33.3,4.350918773347629 33.4,4.287633280968262 33.5,4.221639627510076 33.6,4.1529794959790625 33.7,4.0816962535859185 33.8,4.007834924354386 33.9,3.9314421606830976 34.0,3.852566213878943 34.1,3.7712569036805204 34.2,3.6875655867908703 34.3,3.6015451244395407 34.4,3.5132498489942456 34.5,3.422735529643442 34.6,3.330059337171256 34.7,3.2352798078472182 34.8,3.1384568064535054 34.9,3.0396514884730292 35.0,2.938926261462367 35.1,2.836344745633783 35.2,2.731971733671345 35.3,2.625873149806485 35.4,2.5181160081788097 35.5,2.4087683705085734 35.6,2.2978993031074353 35.7,2.1855788332546595 35.8,2.0718779049664224 35.9,1.956868334186013 36.0,1.8406227634233898 36.1,1.723214615872584 36.2,1.6047180490360455 36.3,1.4852079078851799 36.4,1.3647596775866306 36.5,1.2434494358242774 36.6,1.1213538047468998 36.7,0.9985499025720278 36.8,0.8751152948763894 36.9,0.7511279456037846 37.0,0.6266661678215195 37.1,0.5018085742560716 37.2,0.3766340276396598 37.3,0.25122159089885177 37.4,0.1256504772166903 37.5,1.8369701987210296e-15 37.6,-0.12565047721668662 37.7,-0.25122159089884805 37.8,-0.37663402763965614 37.9,-0.5018085742560681 38.0,-0.6266661678215159 38.1,-0.7511279456037898 38.2,-0.8751152948763857 38.3,-0.9985499025720241 38.4,-1.1213538047469047 38.5,-1.2434494358242738 38.6,-1.364759677586627 38.7,-1.4852079078851765 38.8,-1.604718049036042 38.9,-1.723214615872581 39.0,-1.8406227634233863 39.1,-1.9568683341860096 39.2,-2.0718779049664273 39.3,-2.185578833254656 39.4,-2.2978993031074317 39.5,-2.408768370508578 39.6,-2.518116008178807 39.7,-2.625873149806482 39.8,-2.731971733671342 39.9,-2.83634474563378 40.0,-2.938926261462364 40.1,-3.0396514884730266 40.2,-3.1384568064535023 40.3,-3.2352798078472156 40.4,-3.3300593371712535 40.5,-3.422735529643439 40.6,-3.513249848994249 40.7,-3.601545124439538 40.8,-3.687565586790862 40.9,-3.771256903680518 41.0,-3.8525662138789403 41.1,-3.931442160683095 41.2,-4.007834924354389 41.3,-4.081696253585917 41.4,-4.152979495979061 41.5,-4.221639627510078 41.6,-4.28763328096826 41.7,-4.350918773347631 41.8,-4.411456132174766 41.9,-4.469207120756315 42.0,-4.524135262330098 42.1,-4.576205863104585 42.2,-4.625386034172292 42.3,-4.671644712283058 42.4,-4.714952679464318 42.5,-4.755282581475767 42.6,-4.792608945086882 42.7,-4.82690819416637 42.8,-4.858158664573367 42.9,-4.886340617840968 43.0,-4.911436253643442 43.1,-4.933429721039341 43.2,-4.952307128483255 43.3,-4.968056552600041 43.4,-4.980668045715862 43.5,-4.990133642141357 43.6,-4.996447363202946 43.7,-4.99960522101908 43.8,-4.99960522101908 43.9,-4.996447363202947 44.0,-4.990133642141358 44.1,-4.980668045715863 44.2,-4.968056552600041 44.3,-4.952307128483257 44.4,-4.933429721039342 44.5,-4.911436253643443 44.6,-4.886340617840968 44.7,-4.858158664573368 44.8,-4.8269081941663705 44.9,-4.79260894508688 45.0,-4.755282581475769 45.1,-4.714952679464326 45.2,-4.67164471228306 45.3,-4.625386034172293 45.4,-4.57620586310459 45.5,-4.5241352623301 45.6,-4.469207120756317 45.7,-4.411456132174768 45.8,-4.3509187733476296 45.9,-4.2876332809682625 46.0,-4.22163962751008 46.1,-4.1529794959790625 46.2,-4.081696253585924 46.3,-4.007834924354387 46.4,-3.9314421606830976 46.5,-3.852566213878949 46.6,-3.771256903680521 46.7,-3.6875655867908645 46.8,-3.601545124439541 46.9,-3.513249848994252 47.0,-3.4227355296434423 47.1,-3.330059337171263 47.2,-3.2352798078472187 47.3,-3.1384568064535054 47.4,-3.0396514884730297 47.5,-2.9389262614623672 47.6,-2.8363447456337836 47.7,-2.7319717336713456 47.8,-2.6258731498064853 47.9,-2.51811600817881 48.0,-2.4087683705085814 48.1,-2.2978993031074357 48.2,-2.185578833254668 48.3,-2.0718779049664233 48.4,-1.9568683341860136 48.5,-1.8406227634233905 48.6,-1.7232146158725847 48.7,-1.6047180490360544 48.8,-1.4852079078851808 48.9,-1.364759677586631 49.0,-1.243449435824278 49.1,-1.121353804746909 49.2,-0.9985499025720285 49.3,-0.8751152948763901 49.4,-0.7511279456037852 49.5,-0.6266661678215201 49.6,-0.5018085742560812 49.7,-0.37663402763966036 49.8,-0.2512215908988524 49.9,-0.1256504772166909 50.0,-2.4492935982947065e-15 50.1,0.125650477216686 50.2,0.2512215908988475 50.3,0.37663402763966436 50.4,0.5018085742560674 50.5,0.6266661678215152 50.6,0.7511279456037891 50.7,0.8751152948763764 50.8,0.9985499025720324 50.9,1.1213538047469043 51.0,1.2434494358242734 51.1,1.3647596775866264 51.2,1.4852079078851759 51.3,1.6047180490360413 51.4,1.7232146158725803 51.5,1.8406227634233856 51.6,1.9568683341860091 51.7,2.071877904966427 51.8,2.1855788332546555 51.9,2.2978993031074393 52.0,2.408768370508577 52.1,2.518116008178806 52.2,2.6258731498064813 52.3,2.731971733671334 52.4,2.836344745633779 52.5,2.9389262614623632 52.6,3.0396514884730257 52.7,3.138456806453502 52.8,3.2352798078472222 52.9,3.330059337171253 53.0,3.4227355296434454 53.1,3.513249848994242 53.2,3.601545124439532 53.3,3.6875655867908677 53.4,3.771256903680512 53.5,3.8525662138789456 53.6,3.9314421606830945 53.7,4.007834924354384 53.8,4.081696253585916 53.9,4.152979495979065 54.0,4.221639627510073 54.1,4.28763328096826 54.2,4.350918773347628 54.3,4.411456132174761 54.4,4.469207120756319 54.5,4.524135262330094 54.6,4.5762058631045885 54.7,4.625386034172291 54.8,4.671644712283055 54.9,4.714952679464321 55.0,4.755282581475767 55.1,4.792608945086879 55.2,4.82690819416637 55.3,4.85815866457337 55.4,4.886340617840966 55.5,4.911436253643444 55.6,4.93342972103934 55.7,4.952307128483256 55.8,4.968056552600041 55.9,4.980668045715861 56.0,4.990133642141358 56.1,4.996447363202946 56.2,4.99960522101908 56.3,4.99960522101908 56.4,4.996447363202946 56.5,4.990133642141358 56.6,4.980668045715862 56.7,4.968056552600043 56.8,4.952307128483257 56.9,4.9334297210393405 57.0,4.911436253643445 57.1,4.8863406178409665 57.2,4.858158664573368 57.3,4.826908194166373 57.4,4.79260894508688 57.5,4.755282581475766 57.6,4.714952679464323 57.7,4.671644712283061 57.8,4.6253860341722906 57.9,4.576205863104591 58.0,4.5241352623300966 58.1,4.469207120756321 58.2,4.411456132174764 58.3,4.35091877334763 58.4,4.287633280968267 58.5,4.221639627510076 58.6,4.152979495979063 58.7,4.081696253585919 58.8,4.007834924354387 58.9,3.9314421606830923 59.0,3.852566213878949 59.1,3.7712569036805155 59.2,3.687565586790871 59.3,3.601545124439542 59.4,3.5132498489942465 59.5,3.4227355296434494 59.6,3.3300593371712566 59.7,3.2352798078472196 59.8,3.1384568064535134 59.9,3.03965148847303 60.0,2.9389262614623752 60.1,2.8363447456337845 60.2,2.731971733671339 60.3,2.625873149806486 60.4,2.5181160081788105 60.5,2.4087683705085743 60.6,2.297899303107444 60.7,2.1855788332546604 60.8,2.0718779049664238 60.9,1.9568683341860225 61.0,1.840622763423391 61.1,1.7232146158725938 61.2,1.6047180490360466 61.3,1.4852079078851812 61.4,1.364759677586632 61.5,1.2434494358242785 61.6,1.121353804746901 61.7,0.9985499025720378 61.8,0.8751152948763906 61.9,0.7511279456037858 62.0,0.6266661678215295 62.1,0.5018085742560728 62.2,0.37663402763966985 62.3,0.25122159089885293 62.4,0.1256504772166915 62.5,1.1943401194869634e-14 62.6,-0.1256504772166854 62.7,-0.2512215908988557 62.8,-0.37663402763965487 62.9,-0.5018085742560667 63.0,-0.6266661678215235 63.1,-0.7511279456037798 63.2,-0.8751152948763845 63.3,-0.9985499025720317 63.4,-1.121353804746895 63.5,-1.2434494358242727 63.6,-1.3647596775866175 63.7,-1.4852079078851668 63.8,-1.604718049036049 63.9,-1.7232146158725796 64.0,-1.8406227634233936 64.1,-1.9568683341860085 64.2,-2.0718779049664264 64.3,-2.185578833254663 64.4,-2.2978993031074464 64.5,-2.4087683705085765 64.6,-2.518116008178798 64.7,-2.625873149806481 64.8,-2.731971733671341 64.9,-2.8363447456337862 65.0,-2.938926261462363 65.1,-3.039651488473018 65.2,-3.138456806453502 65.3,-3.235279807847215 65.4,-3.330059337171259 65.5,-3.4227355296434387 65.6,-3.5132498489942354 65.7,-3.6015451244395313 65.8,-3.687565586790873 65.9,-3.7712569036805177 66.0,-3.8525662138789505 66.1,-3.931442160683094 66.2,-4.0078349243543885 66.3,-4.081696253585921 66.4,-4.15297949597906 66.5,-4.221639627510077 66.6,-4.28763328096826 66.7,-4.350918773347631 66.8,-4.411456132174766 66.9,-4.469207120756323 67.0,-4.524135262330098 67.1,-4.576205863104585 67.2,-4.625386034172291 67.3,-4.671644712283058 67.4,-4.714952679464323 67.5,-4.755282581475767 67.6,-4.792608945086877 67.7,-4.826908194166369 67.8,-4.858158664573367 67.9,-4.886340617840967 68.0,-4.911436253643445 68.1,-4.933429721039338 68.2,-4.952307128483255 68.3,-4.968056552600041 68.4,-4.980668045715862 68.5,-4.990133642141358 68.6,-4.996447363202946 68.7,-4.99960522101908 68.8,-4.99960522101908 68.9,-4.996447363202946 69.0,-4.990133642141358 69.1,-4.980668045715863 69.2,-4.968056552600041 69.3,-4.952307128483256 69.4,-4.933429721039339 69.5,-4.911436253643443 69.6,-4.886340617840969 69.7,-4.858158664573369 69.8,-4.826908194166371 69.9,-4.792608945086878 70.0,-4.755282581475769 70.1,-4.714952679464326 70.2,-4.671644712283061 70.3,-4.625386034172293 70.4,-4.576205863104588 70.5,-4.524135262330101 70.6,-4.469207120756326 70.7,-4.41145613217476 70.8,-4.350918773347635 70.9,-4.2876332809682625 71.0,-4.221639627510071 71.1,-4.152979495979073 71.2,-4.081696253585915 71.3,-4.007834924354382 71.4,-3.9314421606830874 71.5,-3.8525662138789443 71.6,-3.771256903680522 71.7,-3.687565586790866 71.8,-3.601545124439536 71.9,-3.5132498489942403 72.0,-3.4227355296434436 72.1,-3.3300593371712637 72.2,-3.23527980784722 72.3,-3.1384568064535068 72.4,-3.0396514884730235 72.5,-2.9389262614623686 72.6,-2.836344745633792 72.7,-2.7319717336713465 72.8,-2.6258731498064862 72.9,-2.5181160081788034 73.0,-2.4087683705085827 73.1,-2.2978993031074526 73.2,-2.185578833254653 73.3,-2.071877904966432 73.4,-1.9568683341859985 73.5,-1.8406227634233832 73.6,-1.7232146158726027 73.7,-1.6047180490360389 73.8,-1.4852079078851732 73.9,-1.3647596775866153 74.0,-1.2434494358242705 74.1,-1.12135380474691 74.2,-0.9985499025720296 74.3,-0.8751152948763824 74.4,-0.7511279456037777 74.5,-0.6266661678215213 74.6,-0.5018085742560823 74.7,-0.3766340276396616 74.8,-0.2512215908988536 74.9,-0.12565047721668327 75.0,-3.673940397442059e-15 75.1,0.12565047721667588 75.2,0.2512215908988462 75.3,0.37663402763965426 75.4,0.5018085742560751 75.5,0.6266661678215141 75.6,0.7511279456037703 75.7,0.8751152948763927 75.8,0.9985499025720224 75.9,1.1213538047469203 76.0,1.2434494358242634 76.1,1.3647596775866084 76.2,1.4852079078851832 76.3,1.6047180490360318 76.4,1.7232146158725958 76.5,1.840622763423393 76.6,1.9568683341859916 76.7,2.0718779049664255 76.8,2.1855788332546626 76.9,2.297899303107446 77.0,2.408768370508576 77.1,2.518116008178797 77.2,2.6258731498064805 77.3,2.7319717336713407 77.4,2.836344745633786 77.5,2.9389262614623624 77.6,3.0396514884730177 77.7,3.138456806453501 77.8,3.2352798078472143 77.9,3.3300593371712583 78.0,3.422735529643438 78.1,3.5132498489942354 78.2,3.601545124439531 78.3,3.6875655867908606 78.4,3.771256903680529 78.5,3.852566213878939 78.6,3.931442160683083 78.7,4.0078349243543885 78.8,4.0816962535859105 78.9,4.15297949597907 79.0,4.221639627510077 79.1,4.28763328096825 79.2,4.350918773347631 79.3,4.411456132174766 79.4,4.469207120756322 79.5,4.524135262330097 79.6,4.576205863104584 79.7,4.6253860341722906 79.8,4.671644712283058 79.9,4.714952679464323 80.0,4.755282581475766 80.1,4.792608945086876 80.2,4.826908194166369 80.3,4.858158664573367 80.4,4.886340617840967 80.5,4.911436253643442 80.6,4.933429721039338 80.7,4.952307128483255 80.8,4.96805655260004 80.9,4.980668045715864 81.0,4.990133642141357 81.1,4.996447363202946 81.2,4.99960522101908 81.3,4.99960522101908 81.4,4.996447363202946 81.5,4.990133642141359 81.6,4.9806680457158645 81.7,4.968056552600041 81.8,4.952307128483256 81.9,4.933429721039342 82.0,4.911436253643447 82.1,4.886340617840973 82.2,4.858158664573369 82.3,4.826908194166371 82.4,4.792608945086873 82.5,4.755282581475775 82.6,4.714952679464327 82.7,4.6716447122830616 82.8,4.625386034172294 82.9,4.5762058631045806 83.0,4.524135262330093 83.1,4.469207120756326 83.2,4.411456132174769 83.3,4.350918773347635 83.4,4.287633280968254 83.5,4.221639627510072 83.6,4.152979495979064 83.7,4.081696253585926 83.8,4.007834924354393 83.9,3.931442160683088 84.0,3.8525662138789443 84.1,3.771256903680522 84.2,3.687565586790878 84.3,3.6015451244395487 84.4,3.513249848994241 84.5,3.4227355296434436 84.6,3.3300593371712646 84.7,3.235279807847234 84.8,3.1384568064535214 84.9,3.039651488473024 85.0,2.938926261462369 85.1,2.8363447456337925 85.2,2.7319717336713323 85.3,2.6258731498064867 85.4,2.518116008178804 85.5,2.408768370508583 85.6,2.297899303107453 85.7,2.1855788332546537 85.8,2.0718779049664167 85.9,1.9568683341860151 86.0,1.8406227634234005 86.1,1.7232146158726034 86.2,1.6047180490360393 86.3,1.4852079078851737 86.4,1.364759677586633 86.5,1.2434494358242885 86.6,1.121353804746928 86.7,0.9985499025720301 86.8,0.8751152948763831 86.9,0.7511279456037958 87.0,0.6266661678215396 87.1,0.5018085742560829 87.2,0.37663402763966225 87.3,0.2512215908988542 87.4,0.12565047721666608 87.5,2.204983219101824e-14 87.6,-0.1256504772166753 87.7,-0.25122159089884566 87.8,-0.3766340276396537 87.9,-0.501808574256092 88.0,-0.6266661678215134 88.1,-0.7511279456037698 88.2,-0.8751152948763746 88.3,-0.9985499025720218 88.4,-1.1213538047469198 88.5,-1.24344943582428 88.6,-1.3647596775866078 88.7,-1.4852079078851657 88.8,-1.6047180490360313 88.9,-1.7232146158725952 89.0,-1.8406227634233923 89.1,-1.9568683341860074 89.2,-2.071877904966409 89.3,-2.1855788332546457 89.4,-2.2978993031074455 89.5,-2.4087683705085756 89.6,-2.5181160081787968 89.7,-2.6258731498064645 89.8,-2.7319717336713403 89.9,-2.8363447456337854 90.0,-2.9389262614623624 90.1,-3.0396514884730177 90.2,-3.138456806453487 90.3,-3.235279807847214 90.4,-3.330059337171258 90.5,-3.4227355296434374 90.6,-3.513249848994235 90.7,-3.6015451244395424 90.8,-3.68756558679086 90.9,-3.7712569036805164 91.0,-3.8525662138789385 91.1,-3.9314421606830825 91.2,-4.007834924354388 91.3,-4.08169625358592 91.4,-4.152979495979059 91.5,-4.221639627510067 91.6,-4.287633280968259 91.7,-4.35091877334763 91.8,-4.411456132174765 91.9,-4.469207120756314 92.0,-4.5241352623300894 92.1,-4.576205863104584 92.2,-4.6253860341722906 92.3,-4.671644712283058 92.4,-4.714952679464318 92.5,-4.755282581475766 92.6,-4.792608945086876 92.7,-4.826908194166369 92.8,-4.858158664573367 92.9,-4.886340617840971 93.0,-4.911436253643442 93.1,-4.933429721039338 93.2,-4.952307128483255 93.3,-4.96805655260004 93.4,-4.980668045715864 93.5,-4.990133642141358 93.6,-4.996447363202946 93.7,-4.99960522101908 93.8,-4.99960522101908 93.9,-4.996447363202946 94.0,-4.990133642141358 94.1,-4.980668045715863 94.2,-4.968056552600044 94.3,-4.952307128483256 94.4,-4.933429721039339 94.5,-4.911436253643443 94.6,-4.886340617840969 94.7,-4.858158664573374 94.8,-4.826908194166371 94.9,-4.7926089450868785 95.0,-4.755282581475769 95.1,-4.714952679464327 95.2,-4.6716447122830616 95.3,-4.625386034172294 95.4,-4.5762058631045885 95.5,-4.524135262330101 95.6,-4.469207120756326 95.7,-4.411456132174761 95.8,-4.350918773347635 95.9,-4.287633280968263 96.0,-4.221639627510082 96.1,-4.152979495979064 96.2,-4.081696253585915 96.3,-4.007834924354393 96.4,-3.931442160683099 96.5,-3.8525662138789563 96.6,-3.7712569036805226 96.7,-3.6875655867908663 96.8,-3.6015451244395367 96.9,-3.5132498489942536 97.0,-3.422735529643444 97.1,-3.330059337171265 97.2,-3.2352798078472214 97.3,-3.138456806453508 97.4,-3.0396514884730386 97.5,-2.9389262614623695 97.6,-2.8363447456337925 97.7,-2.731971733671348 97.8,-2.6258731498064876 97.9,-2.5181160081788043 98.0,-2.408768370508584 98.1,-2.297899303107454 98.2,-2.18557883325467 98.3,-2.0718779049664335 98.4,-1.9568683341859996 98.5,-1.840622763423401 98.6,-1.7232146158726038 98.7,-1.6047180490360569 98.8,-1.4852079078851743 98.9,-1.3647596775866164 99.0,-1.2434494358242718 99.1,-1.1213538047469287 99.2,-0.9985499025720481 99.3,-0.8751152948763836 99.4,-0.7511279456037788 99.5,-0.6266661678215225 99.6,-0.5018085742560836 99.7,-0.37663402763966286 99.8,-0.25122159089885476 99.9,-0.12565047721668446 100.0,-4.898587196589413e-15" stroke-width="1" stroke-linecap="round" stroke="#000000" fill="none"  />
<!-- Footer -->
</svg>
