<!-- Header -->
<svg
    version="1.1"
    baseProfile="full"
    xmlns="http://www.w3.org/2000/svg"
    xmlns:xlink="http://www.w3.org/1999/xlink"
    xmlns:ev="http://www.w3.org/2001/xml-events"
    width="110.0"
    height="20.0"
    viewBox="-5.0 -10.0 110.0 20.0"
    preserveAspectRatio="none"
>
<!-- Body -->
<!-- polyline -->
<polyline points="0.0,0.0 0.1,0.09424219857704087 0.2,0.1884509133496727 0.3,0.28259267241012265 0.4,0.3766340276396636 0.5,0.4705415665925716 0.6,0.5642819243674084 0.7,0.6578217954614125 0.8,0.7511279456037854 0.9,0.8441672235636694 1.0,0.9369065729286231 1.1,1.0293130438494067 1.2,1.1213538047469058 1.3,1.212996153977037 1.4,1.3042075314494848 1.5,1.394955530196146 1.6,1.4852079078851745 1.7,1.5749325982765239 1.8,1.6640977226149332 1.9,1.7526716009562948 2.0,1.8406227634233898 2.1,1.9279199613869826 2.2,2.014532178568313 2.3,2.100428642059031 2.4,2.1855788332546644 2.5,2.2699524986977337 2.6,2.3535196608266626 2.7,2.436250628626661 2.8,2.518116008178804 2.9,2.599086713103547 3.0,2.6791339748949827 3.1,2.758229353142151 3.2,2.8363447456337827 3.3,2.913452398342881 3.4,2.989524915287594 3.5,3.0645352682648825 3.6,3.1384568064535023 3.7,3.211263265882922 3.8,3.282928778764782 3.9,3.3534278826836 4.0,3.4227355296434436 4.1,3.490827094967363 4.2,3.557678386046427 4.3,3.623265650935233 4.4,3.6875655867908694 4.5,3.750555348152298 4.6,3.812212555057238 4.7,3.872515300993669 4.8,3.9314421606830945 4.9,3.9889721976928554 5.0,4.045084971874737 5.1,4.0997605466272615 5.2,4.1529794959790625 5.3,4.204722911490845 5.4,4.254972408973459 5.5,4.303710135019718 5.6,4.350918773347629 5.7,4.3965815509527815 5.8,4.440682244067722 5.9,4.483205183926179 6.0,4.524135262330097 6.1,4.563457937017514 6.2,4.601159236829352 6.3,4.637225766673306 6.4,4.67164471228306 6.5,4.704403844771128 6.6,4.735491524973722 6.7,4.764896707586094 6.8,4.792608945086879 6.9,4.818618391450048 7.0,4.842915805643155 7.1,4.865492554910633 7.2,4.886340617840967 7.3,4.90545258721667 7.4,4.922821672646027 7.5,4.938441702975688 7.6,4.952307128483256 7.7,4.964413022849069 7.8,4.9747550849065005 7.9,4.983329640170149 8.0,4.990133642141358 8.1,4.995164673390623 8.2,4.9984209464165 8.3,4.9999013042806855 8.4,4.99960522101908 8.5,4.997532801828658 8.6,4.993684783030087 8.7,4.9880625318061265 8.8,4.980668045715863 8.9,4.971503951984994 9.0,4.960573506572389 9.1,4.947880593013255 9.2,4.9334297210393405 9.3,4.917226024976648 9.4,4.899275261921234 9.5,4.879583809693737 9.6,4.85815866457337 9.7,4.835007438812175 9.8,4.810138357930429 9.9,4.783560257794152 10.0,4.755282581475768 10.1,4.725315375899025 10.2,4.693669288269371 10.3,4.660355562291054 10.4,4.6253860341722906 10.5,4.588773128419906 10.6,4.55052985342498 10.7,4.5106697968410145 10.8,4.4692071207563195 10.9,4.426156556662276 11.0,4.381533400219318 11.1,4.335353505822452 11.2,4.287633280968261 11.3,4.238389680425417 11.4,4.187640200210708 11.5,4.13540287137281 11.6,4.08169625358592 11.7,4.026539428555611 11.8,3.9699519932391762 11.9,3.9119540528829413 12.0,3.8525662138789474 12.1,3.791809576443609 12.2,3.729705727120911 12.3,3.6662767311127986 12.4,3.6015451244395353 12.5,3.5355339059327378 12.6,3.468266529064026 12.7,3.399766893612097 12.8,3.3300593371712583 12.9,3.259168626504395 13.0,3.1871199487434474 13.1,3.113938902440563 13.2,3.0396514884730266 13.3,2.9642841008052967 13.4,2.887863517111338 13.5,2.810416889260654 13.6,2.731971733671346 13.7,2.652555921533672 13.8,2.572197668907533 13.9,2.4909255266974544 14.0,2.408768370508576 14.1,2.3257553903872905 14.2,2.241916080450163 14.3,2.1572802284047943 14.4,2.0718779049664215 14.5,1.985739453173903 14.6,1.898895477609007 14.7,1.811376833522729 14.8,1.7232146158725854 14.9,1.6344401482747115 15.0,1.5450849718747397 15.1,1.455180834141361 15.2,1.364759677586627 15.3,1.2738536284169113 15.4,1.182494985118623 15.5,1.0907162069827139 15.6,0.9985499025720352 15.7,0.9060288181356884 15.8,0.8131858259744167 15.9,0.7200539127612631 16.0,0.6266661678215204 16.1,0.533055771376298 16.2,0.43925598275371575 16.3,0.3453001285720303 16.4,0.25122159089885054 16.5,0.15705379539064118 16.6,0.06283019941676418 16.7,-0.03141571982779441 16.8,-0.12565047721668784 16.9,-0.21984059158932354 17.0,-0.31395259764656896 17.1,-0.4079530578407884 17.2,-0.5018085742560736 17.3,-0.5954858004743508 17.4,-0.6889514534231889 17.5,-0.7821723252011537 17.6,-0.8751152948763805 17.7,-0.9677473402542979 17.8,-1.060035549610275 17.9,-1.151947133382951 18.0,-1.2434494358242751 18.1,-1.3345099466018775 18.2,-1.4250963123498788 18.3,-1.5151763481638711 18.4,-1.6047180490360429 18.5,-1.6936896012264575 18.6,-1.782059393566255 18.7,-1.8697960286890023 18.8,-1.9568683341860107 18.9,-2.0432453736817426 19.0,-2.1288964578253613 19.1,-2.2137911551945106 19.2,-2.297899303107439 19.3,-2.381191018339696 19.4,-2.463636707741457 19.5,-2.5452070787518544 19.6,-2.625873149806481 19.7,-2.7056062606343767 19.8,-2.784378082440942 19.9,-2.8621606279729535 20.0,-2.938926261462365 20.1,-3.0146477084451235 20.2,-3.089298065451669 20.3,-3.162850809565624 20.4,-3.2352798078472182 20.5,-3.306559326618257 20.6,-3.3766640406051254 20.7,-3.445569041936741 20.8,-3.5132498489942456 20.9,-3.5796824151091555 21.0,-3.644843137107058 21.1,-3.708708863693697 21.2,-3.771256903680516 21.3,-3.832465034046751 21.4,-3.8923115078351156 21.5,-3.950775061878452 21.6,-4.007834924354382 21.7,-4.063470822165468 21.8,-4.117662988142137 21.9,-4.170392168065855 22.0,-4.221639627510074 22.1,-4.271387158496475 22.2,-4.319617085964174 22.3,-4.3663122740496 22.4,-4.4114561321747665 22.5,-4.455032620941839 22.6,-4.4970262578318545 22.7,-4.537422122705584 22.8,-4.576205863104589 22.9,-4.6133636993505736 23.0,-4.648882429441255 23.1,-4.68274943374096 23.2,-4.7149526794643215 23.3,-4.745480724951474 23.4,-4.7743227237332135 23.5,-4.801468428384715 23.6,-4.82690819416637 23.7,-4.850632982450529 23.8,-4.872634363932885 23.9,-4.89290452162736 24.0,-4.911436253643442 24.1,-4.92822297574499 24.2,-4.943258723689571 24.3,-4.956538155347533 24.4,-4.968056552600042 24.5,-4.9778098230154 24.6,-4.9857945013030704 24.7,-4.992007750544875 24.8,-4.996447363202946 24.9,-4.999111761904045 25.0,-5.0 25.1,-4.999111761904045 25.2,-4.996447363202947 25.3,-4.992007750544875 25.4,-4.98579450130307 25.5,-4.9778098230154 25.6,-4.968056552600042 25.7,-4.956538155347533 25.8,-4.943258723689571 25.9,-4.9282229757449905 26.0,-4.911436253643443 26.1,-4.892904521627361 26.2,-4.872634363932885 26.3,-4.85063298245053 26.4,-4.826908194166369 26.5,-4.801468428384715 26.6,-4.774322723733215 26.7,-4.745480724951474 26.8,-4.714952679464322 26.9,-4.682749433740962 27.0,-4.648882429441258 27.1,-4.6133636993505736 27.2,-4.5762058631045885 27.3,-4.537422122705584 27.4,-4.497026257831857 27.5,-4.45503262094184 27.6,-4.411456132174767 27.7,-4.366312274049602 27.8,-4.319617085964177 27.9,-4.271387158496477 28.0,-4.221639627510075 28.1,-4.170392168065856 28.2,-4.117662988142135 28.3,-4.063470822165469 28.4,-4.007834924354386 28.5,-3.950775061878453 28.6,-3.892311507835116 28.7,-3.8324650340467494 28.8,-3.77125690368052 28.9,-3.708708863693695 29.0,-3.644843137107058 29.1,-3.5796824151091537 29.2,-3.5132498489942483 29.3,-3.4455690419367424 29.4,-3.3766640406051236 29.5,-3.3065593266182614 29.6,-3.235279807847222 29.7,-3.162850809565623 29.8,-3.0892980654516706 29.9,-3.0146477084451266 30.0,-2.9389262614623703 30.1,-2.862160627972953 30.2,-2.784378082440943 30.3,-2.7056062606343803 30.4,-2.625873149806481 30.5,-2.545207078751856 30.6,-2.4636367077414585 30.7,-2.3811910183396976 30.8,-2.2978993031074384 30.9,-2.213791155194512 31.0,-2.128896457825365 31.1,-2.0432453736817484 31.2,-1.9568683341860125 31.3,-1.8697960286890039 31.4,-1.7820593935662565 31.5,-1.693689601226457 31.6,-1.6047180490360449 31.7,-1.5151763481638727 31.8,-1.425096312349885 31.9,-1.334509946601875 32.0,-1.2434494358242725 32.1,-1.151947133382953 32.2,-1.0600355496102702 32.3,-0.9677473402543041 32.4,-0.8751152948763801 32.5,-0.7821723252011556 32.6,-0.6889514534231929 32.7,-0.5954858004743483 32.8,-0.5018085742560798 32.9,-0.4079530578407858 33.0,-0.3139525976465663 33.1,-0.21984059158932093 33.2,-0.12565047721668968 33.3,-0.03141571982779403 33.4,0.06283019941676235 33.5,0.15705379539063935 33.6,0.25122159089884866 33.7,0.34530012857203296 33.8,0.43925598275371397 33.9,0.5330557713762962 34.0,0.6266661678215253 34.1,0.7200539127612591 34.2,0.8131858259744194 34.3,0.9060288181356823 34.4,0.9985499025720335 34.5,1.090716206982714 34.6,1.1824949851186277 34.7,1.273853628416914 34.8,1.3647596775866233 34.9,1.455180834141355 35.0,1.545084971874736 35.1,1.634440148274714 35.2,1.7232146158725856 35.3,1.8113768335227232 35.4,1.8988954776089992 35.5,1.9857394531739074 35.6,2.0718779049664238 35.7,2.157280228404797 35.8,2.241916080450158 35.9,2.325755390387291 36.0,2.4087683705085783 36.1,2.490925526697455 36.2,2.5721976689075317 36.3,2.652555921533665 36.4,2.731971733671342 36.5,2.8104168892606527 36.6,2.88786351711134 36.7,2.9642841008053007 36.8,3.0396514884730195 36.9,3.1139389024405646 37.0,3.18711994874345 37.1,3.259168626504394 37.2,3.3300593371712606 37.3,3.399766893612094 37.4,3.4682665290640244 37.5,3.535533905932737 37.6,3.6015451244395322 37.7,3.6662767311128004 37.8,3.729705727120907 37.9,3.7918095764436077 38.0,3.8525662138789434 38.1,3.9119540528829426 38.2,3.9699519932391802 38.3,4.026539428555605 38.4,4.081696253585919 38.5,4.135402871372808 38.6,4.1876402002107085 38.7,4.238389680425418 38.8,4.287633280968261 38.9,4.335353505822448 39.0,4.381533400219316 39.1,4.426156556662275 39.2,4.469207120756321 39.3,4.510669796841012 39.4,4.550529853424976 39.5,4.5887731284199065 39.6,4.625386034172292 39.7,4.6603555622910555 39.8,4.693669288269369 39.9,4.725315375899023 40.0,4.755282581475767 40.1,4.783560257794153 40.2,4.8101383579304295 40.3,4.835007438812174 40.4,4.858158664573368 40.5,4.879583809693736 40.6,4.899275261921235 40.7,4.917226024976649 40.8,4.933429721039339 40.9,4.947880593013255 41.0,4.960573506572389 41.1,4.971503951984994 41.2,4.980668045715863 41.3,4.988062531806126 41.4,4.993684783030087 41.5,4.997532801828658 41.6,4.99960522101908 41.7,4.9999013042806855 41.8,4.9984209464165 41.9,4.995164673390624 42.0,4.990133642141358 42.1,4.98332964017015 42.2,4.9747550849065005 42.3,4.964413022849069 42.4,4.952307128483257 42.5,4.938441702975689 42.6,4.922821672646026 42.7,4.90545258721667 42.8,4.886340617840968 42.9,4.865492554910632 43.0,4.842915805643155 43.1,4.818618391450047 43.2,4.79260894508688 43.3,4.764896707586097 43.4,4.735491524973724 43.5,4.704403844771131 43.6,4.67164471228306 43.7,4.637225766673302 43.8,4.601159236829353 43.9,4.563457937017514 44.0,4.5241352623301 44.1,4.483205183926181 44.2,4.440682244067722 44.3,4.396581550952784 44.4,4.350918773347633 44.5,4.303710135019718 44.6,4.254972408973462 44.7,4.204722911490841 44.8,4.1529794959790625 44.9,4.099760546627264 45.0,4.045084971874738 45.1,3.9889721976928594 45.2,3.9314421606830976 45.3,3.8725153009936757 45.4,3.812212555057244 45.5,3.7505553481523006 45.6,3.687565586790864 45.7,3.623265650935232 45.8,3.5576783860464296 45.9,3.490827094967364 46.0,3.4227355296434485 46.1,3.3534278826836035 46.2,3.2829287787647896 46.3,3.211263265882927 46.4,3.1384568064535054 46.5,3.064535268264883 46.6,2.9895249152875927 46.7,2.9134523983428764 46.8,2.8363447456337902 46.9,2.7582293531421564 47.0,2.6791339748949863 47.1,2.5990867131035555 47.2,2.5181160081788017 47.3,2.4362506286266643 47.4,2.353519660826663 47.5,2.2699524986977315 47.6,2.1855788332546675 47.7,2.1004286420590317 47.8,2.014532178568319 47.9,1.9279199613869855 48.0,1.840622763423398 48.1,1.7526716009562924 48.2,1.6640977226149358 48.3,1.5749325982765239 48.4,1.4852079078851714 48.5,1.394955530196149 48.6,1.3042075314494843 48.7,1.2129961539770424 48.8,1.1213538047469083 48.9,1.029313043849415 49.0,0.9369065729286284 49.1,0.8441672235636717 49.2,0.7511279456037758 49.3,0.6578217954614176 49.4,0.5642819243674106 49.5,0.47054156659257074 49.6,0.3766340276396686 49.7,0.28259267241012465 49.8,0.18845091334968056 49.9,0.09424219857704573 50.0,1.8369701987210296e-15 50.1,-0.09424219857704205 50.2,-0.18845091334967687 50.3,-0.282592672410121 50.4,-0.37663402763965614 50.5,-0.47054156659256713 50.6,-0.564281924367407 50.7,-0.6578217954614052 50.8,-0.751127945603781 50.9,-0.8441672235636681 51.0,-0.9369065729286248 51.1,-1.0293130438494111 51.2,-1.1213538047469047 51.3,-1.2129961539770304 51.4,-1.3042075314494808 51.5,-1.3949555301961452 51.6,-1.4852079078851679 51.7,-1.5749325982765288 51.8,-1.6640977226149238 51.9,-1.752671600956297 52.0,-1.8406227634233945 52.1,-1.9279199613869822 52.2,-2.0145321785683152 52.3,-2.10042864205902 52.4,-2.185578833254664 52.5,-2.2699524986977284 52.6,-2.35351966082666 52.7,-2.436250628626661 52.8,-2.518116008178807 52.9,-2.5990867131035444 53.0,-2.6791339748949827 53.1,-2.758229353142146 53.2,-2.83634474563378 53.3,-2.91345239834288 53.4,-2.9895249152875896 53.5,-3.0645352682648803 53.6,-3.1384568064535023 53.7,-3.2112632658829243 53.8,-3.2829287787647803 53.9,-3.353427882683601 54.0,-3.422735529643439 54.1,-3.4908270949673614 54.2,-3.5576783860464274 54.3,-3.6232656509352297 54.4,-3.687565586790868 54.5,-3.750555348152292 54.6,-3.8122125550572417 54.7,-3.8725153009936735 54.8,-3.9314421606830896 54.9,-3.9889721976928523 55.0,-4.045084971874736 55.1,-4.099760546627262 55.2,-4.152979495979061 55.3,-4.204722911490845 55.4,-4.2549724089734555 55.5,-4.30371013501972 55.6,-4.350918773347628 55.7,-4.3965815509527815 55.8,-4.4406822440677205 55.9,-4.483205183926175 56.0,-4.524135262330098 56.1,-4.563457937017512 56.2,-4.601159236829352 56.3,-4.637225766673304 56.4,-4.6716447122830616 56.5,-4.704403844771127 56.6,-4.735491524973722 56.7,-4.764896707586093 56.8,-4.792608945086877 56.9,-4.818618391450049 57.0,-4.8429158056431545 57.1,-4.865492554910633 57.2,-4.886340617840968 57.3,-4.9054525872166685 57.4,-4.922821672646027 57.5,-4.938441702975689 57.6,-4.952307128483255 57.7,-4.964413022849069 57.8,-4.9747550849065005 57.9,-4.983329640170149 58.0,-4.990133642141358 58.1,-4.995164673390623 58.2,-4.9984209464165 58.3,-4.9999013042806855 58.4,-4.99960522101908 58.5,-4.997532801828658 58.6,-4.993684783030087 58.7,-4.988062531806126 58.8,-4.980668045715863 58.9,-4.971503951984994 59.0,-4.9605735065723895 59.1,-4.947880593013254 59.2,-4.9334297210393405 59.3,-4.9172260249766495 59.4,-4.899275261921235 59.5,-4.879583809693739 59.6,-4.858158664573368 59.7,-4.835007438812176 59.8,-4.810138357930432 59.9,-4.783560257794154 60.0,-4.755282581475772 60.1,-4.725315375899024 60.2,-4.693669288269369 60.3,-4.6603555622910555 60.4,-4.625386034172293 60.5,-4.588773128419904 60.6,-4.55052985342498 60.7,-4.510669796841014 60.8,-4.469207120756321 60.9,-4.426156556662281 61.0,-4.381533400219317 61.1,-4.335353505822452 61.2,-4.2876332809682625 61.3,-4.23838968042542 61.4,-4.187640200210711 61.5,-4.1354028713728095 61.6,-4.0816962535859185 61.7,-4.026539428555612 61.8,-3.969951993239183 61.9,-3.9119540528829395 62.0,-3.852566213878949 62.1,-3.79180957644361 62.2,-3.729705727120915 62.3,-3.666276731112803 62.4,-3.6015451244395353 62.5,-3.535533905932742 62.6,-3.4682665290640275 62.7,-3.39976689361209 62.8,-3.330059337171263 62.9,-3.2591686265043966 63.0,-3.1871199487434487 63.1,-3.1139389024405673 63.2,-3.0396514884730226 63.3,-2.9642841008052967 63.4,-2.8878635171113434 63.5,-2.810416889260656 63.6,-2.7319717336713527 63.7,-2.652555921533675 63.8,-2.572197668907527 63.9,-2.4909255266974544 64.0,-2.408768370508574 64.1,-2.3257553903872945 64.2,-2.241916080450161 64.3,-2.1572802284048 64.4,-2.0718779049664153 64.5,-1.9857394531739028 64.6,-1.8988954776090106 64.7,-1.8113768335227225 64.8,-1.7232146158725847 64.9,-1.634440148274709 65.0,-1.5450849718747395 65.1,-1.4551808341413672 65.2,-1.364759677586631 65.3,-1.2738536284169215 65.4,-1.1824949851186226 65.5,-1.0907162069827177 65.6,-0.9985499025720458 65.7,-0.9060288181356858 65.8,-0.813185825974414 65.9,-0.7200539127612626 66.0,-0.6266661678215201 66.1,-0.5330557713763042 66.2,-0.43925598275370875 66.3,-0.34530012857202774 66.4,-0.2512215908988524 66.5,-0.15705379539063413 66.6,-0.06283019941676157 66.7,0.031415719827799234 66.8,0.125650477216686 66.9,0.21984059158932615 67.0,0.31395259764656264 67.1,0.40795305784077773 67.2,0.5018085742560762 67.3,0.5954858004743446 67.4,0.688951453423198 67.5,0.7821723252011563 67.6,0.8751152948763764 67.7,0.9677473402543004 67.8,1.0600355496102667 67.9,1.1519471333829492 68.0,1.2434494358242818 68.1,1.3345099466018628 68.2,1.4250963123498772 68.3,1.5151763481638607 68.4,1.6047180490360495 68.5,1.6936896012264622 68.6,1.7820593935662448 68.7,1.8697960286890047 68.8,1.9568683341860091 68.9,2.0432453736817533 69.0,2.1288964578253657 69.1,2.213791155194505 69.2,2.2978993031074473 69.3,2.381191018339698 69.4,2.463636707741463 69.5,2.5452070787518566 69.6,2.6258731498064734 69.7,2.7056062606343767 69.8,2.784378082440933 69.9,2.8621606279729574 70.0,2.9389262614623632 70.1,3.014647708445117 70.2,3.0892980654516746 70.3,3.1628508095656205 70.4,3.2352798078472222 70.5,3.306559326618255 70.6,3.376664040605114 70.7,3.445569041936749 70.8,3.513249848994236 70.9,3.579682415109154 71.0,3.644843137107064 71.1,3.7087088636936865 71.2,3.771256903680524 71.3,3.83246503404675 71.4,3.8923115078351196 71.5,3.950775061878451 71.6,4.007834924354378 71.7,4.063470822165472 71.8,4.117662988142136 71.9,4.170392168065861 72.0,4.221639627510077 72.1,4.271387158496475 72.2,4.319617085964177 72.3,4.366312274049599 72.4,4.411456132174766 72.5,4.455032620941836 72.6,4.497026257831849 72.7,4.537422122705585 72.8,4.576205863104585 72.9,4.613363699350576 73.0,4.648882429441256 73.1,4.682749433740959 73.2,4.714952679464324 73.3,4.74548072495147 73.4,4.774322723733218 73.5,4.801468428384717 73.6,4.826908194166364 73.7,4.850632982450532 73.8,4.872634363932887 73.9,4.892904521627362 74.0,4.911436253643444 74.1,4.92822297574499 74.2,4.94325872368957 74.3,4.956538155347532 74.4,4.968056552600043 74.5,4.9778098230154 74.6,4.985794501303069 74.7,4.992007750544875 74.8,4.996447363202946 74.9,4.999111761904046 75.0,5.0 75.1,4.999111761904046 75.2,4.996447363202947 75.3,4.992007750544875 75.4,4.98579450130307 75.5,4.9778098230154 75.6,4.968056552600043 75.7,4.956538155347532 75.8,4.943258723689571 75.9,4.928222975744989 76.0,4.911436253643445 76.1,4.892904521627363 76.2,4.8726343639328835 76.3,4.850632982450533 76.4,4.826908194166366 76.5,4.801468428384713 76.6,4.77432272373322 76.7,4.745480724951472 76.8,4.714952679464323 76.9,4.682749433740962 77.0,4.648882429441259 77.1,4.613363699350578 77.2,4.576205863104587 77.3,4.537422122705586 77.4,4.497026257831852 77.5,4.4550326209418385 77.6,4.411456132174768 77.7,4.366312274049601 77.8,4.319617085964181 77.9,4.271387158496478 78.0,4.221639627510081 78.1,4.170392168065865 78.2,4.11766298814214 78.3,4.063470822165475 78.4,4.007834924354377 78.5,3.9507750618784545 78.6,3.8923115078351236 78.7,3.8324650340467477 78.8,3.771256903680527 78.9,3.7087088636936905 79.0,3.644843137107056 79.1,3.5796824151091706 79.2,3.51324984899424 79.3,3.4455690419367406 79.4,3.376664040605118 79.5,3.3065593266182596 79.6,3.2352798078472262 79.7,3.162850809565625 79.8,3.089298065451679 79.9,3.0146477084451213 80.0,2.9389262614623677 80.1,2.862160627972962 80.2,2.7843780824409374 80.3,2.7056062606343816 80.4,2.6258731498064787 80.5,2.5452070787518615 80.6,2.463636707741468 80.7,2.381191018339703 80.8,2.297899303107452 80.9,2.2137911551944938 81.0,2.1288964578253706 81.1,2.043245373681758 81.2,1.956868334186006 81.3,1.8697960286890098 81.4,1.7820593935662499 81.5,1.693689601226467 81.6,1.6047180490360635 81.7,1.515176348163866 81.8,1.4250963123498825 81.9,1.3345099466018853 82.0,1.2434494358242871 82.1,1.151947133382972 82.2,1.060035549610272 82.3,0.9677473402543059 82.4,0.8751152948763643 82.5,0.7821723252011704 82.6,0.6889514534232035 82.7,0.5954858004743501 82.8,0.5018085742560817 82.9,0.4079530578407743 83.0,0.3139525976465593 83.1,0.21984059158933167 83.2,0.1256504772166915 83.3,0.03141571982780474 83.4,-0.06283019941677383 83.5,-0.1570537953906464 83.6,-0.2512215908988468 83.7,-0.3453001285720222 83.8,-0.43925598275370326 83.9,-0.5330557713763076 84.0,-0.6266661678215235 84.1,-0.7200539127612572 84.2,-0.8131858259744086 84.3,-0.9060288181356717 84.4,-0.9985499025720403 84.5,-1.0907162069827123 84.6,-1.1824949851186173 84.7,-1.273853628416899 84.8,-1.3647596775866089 84.9,-1.4551808341413701 85.0,-1.5450849718747257 85.1,-1.6344401482747122 85.2,-1.7232146158725965 85.3,-1.8113768335227174 85.4,-1.8988954776090057 85.5,-1.9857394531738979 85.6,-2.07187790496641 85.7,-2.157280228404795 85.8,-2.241916080450172 85.9,-2.3257553903872816 86.0,-2.4087683705085765 86.1,-2.490925526697434 86.2,-2.5721976689075374 86.3,-2.6525559215336707 86.4,-2.731971733671341 86.5,-2.8104168892606434 86.6,-2.8878635171113243 86.7,-2.964284100805306 86.8,-3.039651488473018 86.9,-3.1139389024405633 87.0,-3.187119948743431 87.1,-3.2591686265043855 87.2,-3.330059337171259 87.3,-3.3997668936120924 87.4,-3.468266529064042 87.5,-3.535533905932726 87.6,-3.6015451244395313 87.7,-3.6662767311127933 87.8,-3.7297057271209115 87.9,-3.791809576443618 88.0,-3.85256621387894 88.1,-3.9119540528829306 88.2,-3.969951993239174 88.3,-4.026539428555604 88.4,-4.081696253585921 88.5,-4.135402871372817 88.6,-4.187640200210703 88.7,-4.238389680425417 88.8,-4.28763328096825 88.9,-4.335353505822454 89.0,-4.381533400219319 89.1,-4.426156556662274 89.2,-4.469207120756314 89.3,-4.510669796841007 89.4,-4.550529853424984 89.5,-4.588773128419902 89.6,-4.625386034172291 89.7,-4.660355562291047 89.8,-4.693669288269367 89.9,-4.725315375899025 90.0,-4.755282581475767 90.1,-4.78356025779415 90.2,-4.810138357930425 90.3,-4.835007438812174 90.4,-4.858158664573367 90.5,-4.879583809693738 90.6,-4.899275261921231 90.7,-4.91722602497665 90.8,-4.933429721039338 90.9,-4.947880593013255 91.0,-4.960573506572389 91.1,-4.971503951984993 91.2,-4.980668045715864 91.3,-4.988062531806126 91.4,-4.993684783030088 91.5,-4.9975328018286564 91.6,-4.99960522101908 91.7,-4.9999013042806855 91.8,-4.9984209464165 91.9,-4.995164673390624 92.0,-4.990133642141359 92.1,-4.983329640170149 92.2,-4.974755084906501 92.3,-4.964413022849068 92.4,-4.952307128483259 92.5,-4.93844170297569 92.6,-4.922821672646029 92.7,-4.905452587216671 92.8,-4.886340617840969 92.9,-4.865492554910632 93.0,-4.842915805643156 93.1,-4.818618391450051 93.2,-4.792608945086878 93.3,-4.7648967075861 93.4,-4.7354915249737175 93.5,-4.704403844771125 93.6,-4.671644712283067 93.7,-4.637225766673309 93.8,-4.601159236829357 93.9,-4.563457937017507 94.0,-4.524135262330101 94.1,-4.483205183926177 94.2,-4.440682244067731 94.3,-4.396581550952784 94.4,-4.350918773347626 94.5,-4.303710135019719 94.6,-4.254972408973463 94.7,-4.204722911490852 94.8,-4.152979495979063 94.9,-4.099760546627265 95.0,-4.045084971874734 95.1,-3.988972197692866 95.2,-3.9314421606830985 95.3,-3.872515300993677 95.4,-3.8122125550572394 95.5,-3.750555348152302 95.6,-3.6875655867908774 95.7,-3.6232656509352212 95.8,-3.5576783860464314 95.9,-3.490827094967359 96.0,-3.4227355296434565 96.1,-3.3534278826836044 96.2,-3.2829287787647776 96.3,-3.2112632658829354 96.4,-3.1384568064535068 96.5,-3.064535268264892 96.6,-2.989524915287594 96.7,-2.9134523983428853 96.8,-2.836344745633777 96.9,-2.7582293531421653 97.0,-2.6791339748949876 97.1,-2.5990867131035573 97.2,-2.5181160081788034 97.3,-2.436250628626666 97.4,-2.3535196608266724 97.5,-2.2699524986977333 97.6,-2.1855788332546693 97.7,-2.100428642059025 97.8,-2.0145321785683286 97.9,-1.927919961386987 98.0,-1.8406227634233998 98.1,-1.7526716009563106 98.2,-1.6640977226149376 98.3,-1.5749325982765339 98.4,-1.4852079078851563 98.5,-1.3949555301961505 98.6,-1.3042075314494948 98.7,-1.2129961539770528 98.8,-1.12135380474691 98.9,-1.0293130438493994 99.0,-0.9369065729286215 99.1,-0.844167223563691 99.2,-0.7511279456037951 99.3,-0.6578217954614107 99.4,-0.5642819243674124 99.5,-0.47054156659256374 99.6,-0.3766340276396793 99.7,-0.2825926724101264 99.8,-0.1884509133496824 99.9,-0.0942421985770387 100.0,-3.673940397442059e-15" stroke-width="1" stroke-linecap="round" stroke="#000000" fill="none"  />
<!-- Footer -->
</svg>
