<!-- Header -->
<svg
    version="1.1"
    baseProfile="full"
    xmlns="http://www.w3.org/2000/svg"
    xmlns:xlink="http://www.w3.org/1999/xlink"
    xmlns:ev="http://www.w3.org/2001/xml-events"
    width="110.0"
    height="20.0"
    viewBox="-5.0 -10.0 110.0 20.0"
    preserveAspectRatio="none"
>
<!-- Body -->
<!-- polyline -->
<polyline points="0.0,0.0 0.1,0.03141571982779476 0.2,0.06283019941676304 0.3,0.09424219857704087 0.4,0.1256504772166874 0.5,0.15705379539064146 0.6,0.1884509133496727 0.7,0.2198405915893245 0.8,0.25122159089884777 0.9,0.28259267241012265 1.0,0.31395259764656686 1.1,0.34530012857202896 1.2,0.3766340276396636 1.3,0.4079530578407877 1.4,0.4392559827537158 1.5,0.47054156659257157 1.6,0.5018085742560745 1.7,0.5330557713762996 1.8,0.5642819243674084 1.9,0.5954858004743486 2.0,0.6266661678215213 2.1,0.6578217954614125 2.2,0.6889514534231904 2.3,0.7200539127612606 2.4,0.7511279456037854 2.5,0.7821723252011543 2.6,0.8131858259744179 2.7,0.8441672235636694 2.8,0.8751152948763802 2.9,0.9060288181356867 3.0,0.936906572928623 3.1,0.9677473402543012 3.2,0.9985499025720351 3.3,1.0293130438494067 3.4,1.0600355496102734 3.5,1.0907162069827128 3.6,1.1213538047469058 3.7,1.151947133382953 3.8,1.1824949851186233 3.9,1.212996153977037 4.0,1.243449435824274 4.1,1.2738536284169104 4.2,1.3042075314494848 4.3,1.334509946601878 4.4,1.3647596775866262 4.5,1.3949555301961465 4.6,1.4250963123498803 4.7,1.455180834141359 4.8,1.4852079078851745 4.9,1.51517634816387 5.0,1.545084971874737 5.1,1.5749325982765237 5.2,1.6047180490360473 5.3,1.634440148274712 5.4,1.6640977226149332 5.5,1.6936896012264568 5.6,1.7232146158725854 5.7,1.752671600956295 5.8,1.7820593935662534 5.9,1.8113768335227285 6.0,1.8406227634233896 6.1,1.8697960286890019 6.2,1.8988954776090052 6.3,1.9279199613869824 6.4,1.9568683341860122 6.5,1.985739453173903 6.6,2.014532178568313 6.7,2.0432453736817453 6.8,2.0718779049664207 6.9,2.1004286420590312 7.0,2.1288964578253635 7.1,2.1572802284047947 7.2,2.1855788332546644 7.3,2.213791155194507 7.4,2.241916080450161 7.5,2.2699524986977337 7.6,2.297899303107439 7.7,2.325755390387292 7.8,2.3535196608266626 7.9,2.3811910183396954 8.0,2.4087683705085765 8.1,2.436250628626661 8.2,2.4636367077414576 8.3,2.490925526697454 8.4,2.518116008178804 8.5,2.5452070787518566 8.6,2.572197668907532 8.7,2.599086713103547 8.8,2.6258731498064787 8.9,2.6525559215336703 9.0,2.679133974894983 9.1,2.705606260634379 9.2,2.731971733671345 9.3,2.7582293531421516 9.4,2.7843780824409397 9.5,2.8104168892606527 9.6,2.8363447456337827 9.7,2.862160627972954 9.8,2.887863517111338 9.9,2.913452398342881 10.0,2.938926261462366 10.1,2.9642841008052963 10.2,2.9895249152875936 10.3,3.014647708445124 10.4,3.039651488473027 10.5,3.0645352682648825 10.6,3.089298065451671 10.7,3.1139389024405624 10.8,3.1384568064535023 10.9,3.1628508095656223 11.0,3.1871199487434483 11.1,3.2112632658829217 11.2,3.2352798078472214 11.3,3.259168626504394 11.4,3.2829287787647825 11.5,3.306559326618259 11.6,3.330059337171258 11.7,3.3534278826835995 11.8,3.3766640406051223 11.9,3.399766893612096 12.0,3.422735529643443 12.1,3.4455690419367424 12.2,3.4682665290640244 12.3,3.4908270949673637 12.4,3.5132498489942456 12.5,3.5355339059327373 12.6,3.557678386046427 12.7,3.5796824151091555 12.8,3.601545124439535 12.9,3.623265650935233 13.0,3.644843137107058 13.1,3.6662767311128004 13.2,3.6875655867908694 13.3,3.708708863693696 13.4,3.7297057271209106 13.5,3.7505553481522975 13.6,3.771256903680519 13.7,3.791809576443609 13.8,3.8122125550572394 13.9,3.8324650340467494 14.0,3.852566213878946 14.1,3.872515300993669 14.2,3.8923115078351165 14.3,3.9119540528829404 14.4,3.9314421606830945 14.5,3.950775061878452 14.6,3.9699519932391762 14.7,3.988972197692855 14.8,4.007834924354382 14.9,4.02653942855561 15.0,4.045084971874736 15.1,4.06347082216547 15.2,4.081696253585919 15.3,4.0997605466272615 15.4,4.117662988142137 15.5,4.1354028713728095 15.6,4.1529794959790625 15.7,4.170392168065856 15.8,4.1876402002107085 15.9,4.204722911490845 16.0,4.221639627510076 16.1,4.238389680425416 16.2,4.254972408973459 16.3,4.271387158496475 16.4,4.287633280968261 16.5,4.303710135019719 16.6,4.319617085964176 16.7,4.33535350582245 16.8,4.350918773347629 16.9,4.3663122740496005 17.0,4.381533400219318 17.1,4.3965815509527815 17.2,4.4114561321747665 17.3,4.426156556662276 17.4,4.440682244067722 17.5,4.455032620941839 17.6,4.469207120756319 17.7,4.483205183926179 17.8,4.497026257831855 17.9,4.5106697968410145 18.0,4.524135262330098 18.1,4.537422122705585 18.2,4.550529853424978 18.3,4.563457937017514 18.4,4.576205863104587 18.5,4.588773128419906 18.6,4.601159236829352 18.7,4.6133636993505736 18.8,4.6253860341722906 18.9,4.637225766673306 19.0,4.648882429441256 19.1,4.6603555622910555 19.2,4.67164471228306 19.3,4.682749433740962 19.4,4.69366928826937 19.5,4.704403844771127 19.6,4.714952679464322 19.7,4.725315375899024 19.8,4.735491524973722 19.9,4.745480724951473 20.0,4.755282581475767 20.1,4.764896707586094 20.2,4.774322723733214 20.3,4.783560257794153 20.4,4.792608945086879 20.5,4.801468428384715 20.6,4.8101383579304295 20.7,4.818618391450048 20.8,4.82690819416637 20.9,4.835007438812175 21.0,4.842915805643155 21.1,4.85063298245053 21.2,4.858158664573369 21.3,4.865492554910633 21.4,4.872634363932885 21.5,4.879583809693736 21.6,4.886340617840967 21.7,4.892904521627361 21.8,4.899275261921234 21.9,4.90545258721667 22.0,4.911436253643443 22.1,4.917226024976649 22.2,4.922821672646027 22.3,4.9282229757449905 22.4,4.9334297210393405 22.5,4.938441702975689 22.6,4.943258723689571 22.7,4.947880593013255 22.8,4.952307128483256 22.9,4.956538155347533 23.0,4.960573506572389 23.1,4.964413022849069 23.2,4.968056552600042 23.3,4.971503951984994 23.4,4.9747550849065005 23.5,4.9778098230154 23.6,4.980668045715863 23.7,4.983329640170149 23.8,4.98579450130307 23.9,4.9880625318061265 24.0,4.990133642141358 24.1,4.992007750544875 24.2,4.993684783030087 24.3,4.995164673390623 24.4,4.996447363202946 24.5,4.997532801828658 24.6,4.9984209464165 24.7,4.999111761904045 24.8,4.99960522101908 24.9,4.9999013042806855 25.0,5.0 25.1,4.9999013042806855 25.2,4.99960522101908 25.3,4.999111761904045 25.4,4.9984209464165 25.5,4.997532801828658 25.6,4.996447363202946 25.7,4.995164673390623 25.8,4.993684783030087 25.9,4.992007750544875 26.0,4.990133642141358 26.1,4.9880625318061265 26.2,4.98579450130307 26.3,4.983329640170149 26.4,4.980668045715863 26.5,4.9778098230154 26.6,4.9747550849065005 26.7,4.971503951984994 26.8,4.968056552600042 26.9,4.964413022849069 27.0,4.9605735065723895 27.1,4.956538155347533 27.2,4.952307128483256 27.3,4.947880593013255 27.4,4.943258723689571 27.5,4.938441702975689 27.6,4.9334297210393405 27.7,4.9282229757449905 27.8,4.922821672646027 27.9,4.917226024976649 28.0,4.911436253643443 28.1,4.90545258721667 28.2,4.899275261921234 28.3,4.892904521627361 28.4,4.886340617840967 28.5,4.879583809693737 28.6,4.872634363932885 28.7,4.865492554910633 28.8,4.85815866457337 28.9,4.850632982450529 29.0,4.842915805643155 29.1,4.835007438812175 29.2,4.82690819416637 29.3,4.818618391450048 29.4,4.8101383579304295 29.5,4.801468428384715 29.6,4.792608945086879 29.7,4.783560257794152 29.8,4.774322723733214 29.9,4.764896707586095 30.0,4.755282581475768 30.1,4.745480724951473 30.2,4.735491524973722 30.3,4.725315375899025 30.4,4.714952679464322 30.5,4.704403844771127 30.6,4.69366928826937 30.7,4.682749433740962 30.8,4.67164471228306 30.9,4.6603555622910555 31.0,4.648882429441257 31.1,4.637225766673307 31.2,4.6253860341722906 31.3,4.613363699350574 31.4,4.601159236829352 31.5,4.588773128419906 31.6,4.576205863104588 31.7,4.563457937017515 31.8,4.550529853424979 31.9,4.537422122705585 32.0,4.524135262330097 32.1,4.510669796841014 32.2,4.4970262578318545 32.3,4.48320518392618 32.4,4.4692071207563195 32.5,4.455032620941839 32.6,4.440682244067723 32.7,4.426156556662276 32.8,4.411456132174767 32.9,4.3965815509527815 33.0,4.381533400219317 33.1,4.3663122740496005 33.2,4.350918773347629 33.3,4.335353505822451 33.4,4.319617085964177 33.5,4.303710135019719 33.6,4.287633280968261 33.7,4.271387158496475 33.8,4.25497240897346 33.9,4.238389680425417 34.0,4.221639627510075 34.1,4.204722911490846 34.2,4.1876402002107085 34.3,4.170392168065858 34.4,4.152979495979063 34.5,4.135402871372809 34.6,4.117662988142136 34.7,4.099760546627261 34.8,4.08169625358592 34.9,4.0634708221654705 35.0,4.045084971874737 35.1,4.02653942855561 35.2,4.007834924354382 35.3,3.9889721976928563 35.4,3.9699519932391776 35.5,3.9507750618784514 35.6,3.931442160683094 35.7,3.9119540528829395 35.8,3.8923115078351174 35.9,3.872515300993669 36.0,3.852566213878946 36.1,3.8324650340467494 36.2,3.812212555057239 36.3,3.79180957644361 36.4,3.77125690368052 36.5,3.750555348152298 36.6,3.7297057271209093 36.7,3.708708863693695 36.8,3.6875655867908708 36.9,3.6662767311127995 37.0,3.644843137107057 37.1,3.623265650935233 37.2,3.6015451244395336 37.3,3.579682415109157 37.4,3.5576783860464274 37.5,3.5355339059327378 37.6,3.513249848994246 37.7,3.4908270949673637 37.8,3.468266529064026 37.9,3.4455690419367437 38.0,3.422735529643444 38.1,3.399766893612095 38.2,3.3766640406051214 38.3,3.353427882683602 38.4,3.3300593371712583 38.5,3.306559326618259 38.6,3.282928778764782 38.7,3.2591686265043935 38.8,3.2352798078472227 38.9,3.2112632658829225 39.0,3.187119948743449 39.1,3.1628508095656227 39.2,3.138456806453501 39.3,3.1139389024405646 39.4,3.0892980654516733 39.5,3.0645352682648817 39.6,3.0396514884730266 39.7,3.014647708445123 39.8,2.9895249152875953 39.9,2.9642841008052967 40.0,2.9389262614623664 40.1,2.913452398342881 40.2,2.887863517111338 40.3,2.862160627972956 40.4,2.8363447456337836 40.5,2.810416889260654 40.6,2.784378082440939 40.7,2.75822935314215 40.8,2.731971733671348 40.9,2.7056062606343794 41.0,2.679133974894985 41.1,2.6525559215336703 41.2,2.6258731498064765 41.3,2.599086713103549 41.4,2.572197668907533 41.5,2.5452070787518553 41.6,2.5181160081788043 41.7,2.4909255266974526 41.8,2.463636707741458 41.9,2.4362506286266634 42.0,2.408768370508576 42.1,2.381191018339697 42.2,2.353519660826662 42.3,2.3257553903872927 42.4,2.297899303107442 42.5,2.269952498697734 42.6,2.2419160804501597 42.7,2.2137911551945075 42.8,2.185578833254666 42.9,2.1572802284047943 43.0,2.1288964578253644 43.1,2.1004286420590303 43.2,2.0718779049664215 43.3,2.043245373681748 43.4,2.014532178568314 43.5,1.9857394531739052 43.6,1.9568683341860118 43.7,1.9279199613869802 43.8,1.898895477609007 43.9,1.8697960286890034 44.0,1.8406227634233907 44.1,1.811376833522729 44.2,1.7820593935662519 44.3,1.7526716009562973 44.4,1.7232146158725872 44.5,1.6936896012264566 44.6,1.6640977226149347 44.7,1.6344401482747115 44.8,1.6047180490360486 44.9,1.5749325982765248 45.0,1.5450849718747375 45.1,1.5151763481638723 45.2,1.4852079078851745 45.3,1.455180834141361 45.4,1.4250963123498823 45.5,1.3949555301961478 45.6,1.3647596775866253 45.7,1.3345099466018786 45.8,1.3042075314494852 45.9,1.2738536284169113 46.0,1.2434494358242763 46.1,1.212996153977037 46.2,1.1824949851186253 46.3,1.1519471333829543 46.4,1.1213538047469072 46.5,1.0907162069827139 46.6,1.060035549610274 46.7,1.029313043849405 46.8,0.9985499025720375 46.9,0.9677473402543034 47.0,0.9369065729286229 47.1,0.9060288181356884 47.2,0.8751152948763794 47.3,0.8441672235636705 47.4,0.8131858259744189 47.5,0.7821723252011549 47.6,0.7511279456037856 47.7,0.7200539127612609 47.8,0.6889514534231923 47.9,0.6578217954614142 48.0,0.6266661678215226 48.1,0.5954858004743477 48.2,0.5642819243674093 48.3,0.5330557713763002 48.4,0.501808574256075 48.5,0.47054156659257174 48.6,0.43925598275371575 48.7,0.4079530578407896 48.8,0.3766340276396652 48.9,0.3453001285720303 49.0,0.3139525976465679 49.1,0.2825926724101234 49.2,0.2512215908988461 49.3,0.21984059158932698 49.4,0.18845091334967268 49.5,0.15705379539064118 49.6,0.12565047721668907 49.7,0.09424219857704008 49.8,0.06283019941676418 49.9,0.03141571982779563 50.0,6.123233995736766e-16 50.1,-0.03141571982779441 50.2,-0.06283019941676296 50.3,-0.09424219857704107 50.4,-0.12565047721668562 50.5,-0.15705379539063996 50.6,-0.18845091334967368 50.7,-0.21984059158932354 50.8,-0.2512215908988471 50.9,-0.2825926724101222 51.0,-0.31395259764656674 51.1,-0.3453001285720291 51.2,-0.37663402763966397 51.3,-0.40795305784078617 51.4,-0.4392559827537146 51.5,-0.4705415665925705 51.6,-0.5018085742560736 51.7,-0.5330557713763012 51.8,-0.564281924367406 51.9,-0.5954858004743486 52.0,-0.6266661678215214 52.1,-0.6578217954614131 52.2,-0.6889514534231911 52.3,-0.7200539127612575 52.4,-0.7511279456037844 52.5,-0.7821723252011537 52.6,-0.8131858259744176 52.7,-0.8441672235636692 52.8,-0.8751152948763805 52.9,-0.906028818135685 53.0,-0.9369065729286239 53.1,-0.9677473402543001 53.2,-0.9985499025720341 53.3,-1.029313043849406 53.4,-1.0600355496102707 53.5,-1.0907162069827125 53.6,-1.121353804746906 53.7,-1.1519471333829532 53.8,-1.182494985118622 53.9,-1.212996153977038 54.0,-1.243449435824273 54.1,-1.27385362841691 54.2,-1.304207531449484 54.3,-1.3345099466018753 54.4,-1.3647596775866262 54.5,-1.3949555301961445 54.6,-1.425096312349881 54.7,-1.45518083414136 54.8,-1.4852079078851712 54.9,-1.515176348163869 55.0,-1.5450849718747364 55.1,-1.5749325982765237 55.2,-1.6047180490360473 55.3,-1.6344401482747126 55.4,-1.6640977226149314 55.5,-1.6936896012264575 55.6,-1.723214615872584 55.7,-1.7526716009562961 55.8,-1.782059393566253 55.9,-1.811376833522726 56.0,-1.8406227634233896 56.1,-1.8697960286890023 56.2,-1.898895477609006 56.3,-1.9279199613869813 56.4,-1.956868334186013 56.5,-1.985739453173902 56.6,-2.014532178568315 56.7,-2.043245373681745 56.8,-2.071877904966418 56.9,-2.1004286420590312 57.0,-2.1288964578253613 57.1,-2.1572802284047956 57.2,-2.1855788332546653 57.3,-2.2137911551945044 57.4,-2.24191608045016 57.5,-2.2699524986977355 57.6,-2.297899303107439 57.7,-2.3257553903872914 57.8,-2.353519660826663 57.9,-2.381191018339694 58.0,-2.408768370508577 58.1,-2.4362506286266603 58.2,-2.463636707741459 58.3,-2.4909255266974535 58.4,-2.5181160081788017 58.5,-2.545207078751856 58.6,-2.572197668907532 58.7,-2.5990867131035476 58.8,-2.625873149806477 58.9,-2.6525559215336707 59.0,-2.6791339748949823 59.1,-2.7056062606343803 59.2,-2.731971733671345 59.3,-2.7582293531421493 59.4,-2.7843780824409397 59.5,-2.8104168892606514 59.6,-2.8363447456337827 59.7,-2.862160627972955 59.8,-2.8878635171113354 59.9,-2.9134523983428795 60.0,-2.9389262614623632 60.1,-2.964284100805296 60.2,-2.989524915287596 60.3,-3.0146477084451218 60.4,-3.0396514884730252 60.5,-3.064535268264883 60.6,-3.0892980654516706 60.7,-3.1139389024405633 60.8,-3.138456806453502 60.9,-3.16285080956562 61.0,-3.1871199487434483 61.1,-3.2112632658829203 61.2,-3.235279807847222 61.3,-3.259168626504392 61.4,-3.2829287787647807 61.5,-3.3065593266182587 61.6,-3.330059337171259 61.7,-3.3534278826835995 61.8,-3.37666404060512 61.9,-3.399766893612096 62.0,-3.422735529643442 62.1,-3.4455690419367424 62.2,-3.4682665290640236 62.3,-3.4908270949673623 62.4,-3.5132498489942456 62.5,-3.5355339059327355 62.6,-3.557678386046426 62.7,-3.5796824151091573 62.8,-3.601545124439533 62.9,-3.623265650935232 63.0,-3.644843137107058 63.1,-3.666276731112799 63.2,-3.6875655867908703 63.3,-3.7087088636936953 63.4,-3.729705727120909 63.5,-3.7505553481522975 63.6,-3.7712569036805177 63.7,-3.7918095764436077 63.8,-3.8122125550572394 63.9,-3.832465034046748 64.0,-3.852566213878947 64.1,-3.8725153009936686 64.2,-3.892311507835118 64.3,-3.9119540528829404 64.4,-3.931442160683096 64.5,-3.950775061878452 64.6,-3.9699519932391754 64.7,-3.9889721976928554 64.8,-4.007834924354382 64.9,-4.02653942855561 65.0,-4.045084971874736 65.1,-4.063470822165468 65.2,-4.081696253585919 65.3,-4.099760546627261 65.4,-4.117662988142137 65.5,-4.135402871372808 65.6,-4.152979495979061 65.7,-4.170392168065855 65.8,-4.187640200210709 65.9,-4.204722911490845 66.0,-4.2216396275100765 66.1,-4.238389680425416 66.2,-4.25497240897346 66.3,-4.271387158496475 66.4,-4.287633280968261 66.5,-4.303710135019719 66.6,-4.319617085964175 66.7,-4.335353505822451 66.8,-4.350918773347628 66.9,-4.366312274049601 67.0,-4.381533400219318 67.1,-4.396581550952781 67.2,-4.4114561321747665 67.3,-4.426156556662276 67.4,-4.440682244067723 67.5,-4.455032620941839 67.6,-4.469207120756318 67.7,-4.483205183926179 67.8,-4.4970262578318545 67.9,-4.5106697968410145 68.0,-4.524135262330099 68.1,-4.537422122705584 68.2,-4.550529853424978 68.3,-4.563457937017513 68.4,-4.576205863104588 68.5,-4.5887731284199065 68.6,-4.60115923682935 68.7,-4.613363699350575 68.8,-4.6253860341722906 68.9,-4.637225766673307 69.0,-4.648882429441257 69.1,-4.660355562291054 69.2,-4.671644712283061 69.3,-4.682749433740962 69.4,-4.693669288269371 69.5,-4.704403844771127 69.6,-4.7149526794643215 69.7,-4.725315375899025 69.8,-4.735491524973721 69.9,-4.745480724951474 70.0,-4.755282581475767 70.1,-4.764896707586093 70.2,-4.774322723733214 70.3,-4.783560257794152 70.4,-4.792608945086879 70.5,-4.801468428384715 70.6,-4.810138357930429 70.7,-4.81861839145005 70.8,-4.826908194166369 70.9,-4.835007438812175 71.0,-4.842915805643156 71.1,-4.850632982450528 71.2,-4.85815866457337 71.3,-4.865492554910633 71.4,-4.872634363932886 71.5,-4.879583809693737 71.6,-4.8863406178409665 71.7,-4.892904521627361 71.8,-4.899275261921234 71.9,-4.905452587216671 72.0,-4.911436253643443 72.1,-4.917226024976648 72.2,-4.922821672646027 72.3,-4.92822297574499 72.4,-4.9334297210393405 72.5,-4.938441702975688 72.6,-4.94325872368957 72.7,-4.947880593013255 72.8,-4.952307128483256 72.9,-4.956538155347533 73.0,-4.960573506572389 73.1,-4.964413022849068 73.2,-4.968056552600043 73.3,-4.971503951984994 73.4,-4.974755084906501 73.5,-4.9778098230154 73.6,-4.980668045715862 73.7,-4.983329640170149 73.8,-4.98579450130307 73.9,-4.9880625318061265 74.0,-4.990133642141358 74.1,-4.992007750544875 74.2,-4.993684783030087 74.3,-4.995164673390623 74.4,-4.996447363202947 74.5,-4.997532801828658 74.6,-4.9984209464165 74.7,-4.999111761904045 74.8,-4.99960522101908 74.9,-4.9999013042806855 75.0,-5.0 75.1,-4.9999013042806855 75.2,-4.99960522101908 75.3,-4.999111761904045 75.4,-4.9984209464165 75.5,-4.997532801828658 75.6,-4.996447363202947 75.7,-4.995164673390623 75.8,-4.993684783030088 75.9,-4.992007750544875 76.0,-4.990133642141358 76.1,-4.9880625318061265 76.2,-4.98579450130307 76.3,-4.98332964017015 76.4,-4.980668045715862 76.5,-4.9778098230154 76.6,-4.974755084906501 76.7,-4.971503951984994 76.8,-4.968056552600042 76.9,-4.964413022849068 77.0,-4.9605735065723895 77.1,-4.956538155347533 77.2,-4.952307128483256 77.3,-4.947880593013255 77.4,-4.94325872368957 77.5,-4.938441702975689 77.6,-4.9334297210393405 77.7,-4.9282229757449905 77.8,-4.922821672646027 77.9,-4.917226024976649 78.0,-4.911436253643443 78.1,-4.905452587216671 78.2,-4.899275261921235 78.3,-4.8929045216273614 78.4,-4.8863406178409665 78.5,-4.879583809693738 78.6,-4.872634363932887 78.7,-4.865492554910632 78.8,-4.85815866457337 78.9,-4.850632982450528 79.0,-4.842915805643155 79.1,-4.835007438812177 79.2,-4.826908194166369 79.3,-4.818618391450048 79.4,-4.810138357930429 79.5,-4.801468428384715 79.6,-4.792608945086879 79.7,-4.783560257794152 79.8,-4.774322723733215 79.9,-4.764896707586094 80.0,-4.755282581475768 80.1,-4.745480724951474 80.2,-4.735491524973722 80.3,-4.725315375899025 80.4,-4.714952679464322 80.5,-4.704403844771128 80.6,-4.693669288269372 80.7,-4.682749433740962 80.8,-4.6716447122830616 80.9,-4.660355562291054 81.0,-4.648882429441258 81.1,-4.637225766673309 81.2,-4.62538603417229 81.3,-4.613363699350575 81.4,-4.601159236829351 81.5,-4.588773128419907 81.6,-4.57620586310459 81.7,-4.563457937017514 81.8,-4.550529853424979 81.9,-4.5374221227055855 82.0,-4.524135262330099 82.1,-4.510669796841017 82.2,-4.4970262578318545 82.3,-4.48320518392618 82.4,-4.469207120756317 82.5,-4.455032620941842 82.6,-4.440682244067724 82.7,-4.426156556662276 82.8,-4.411456132174767 82.9,-4.396581550952779 83.0,-4.3815334002193165 83.1,-4.366312274049602 83.2,-4.350918773347629 83.3,-4.335353505822452 83.4,-4.3196170859641745 83.5,-4.303710135019717 83.6,-4.287633280968262 83.7,-4.271387158496477 83.8,-4.254972408973462 83.9,-4.238389680425414 84.0,-4.221639627510075 84.1,-4.204722911490847 84.2,-4.18764020021071 84.3,-4.170392168065859 84.4,-4.1529794959790625 84.5,-4.1354028713728095 84.6,-4.117662988142138 84.7,-4.099760546627264 84.8,-4.081696253585923 84.9,-4.063470822165469 85.0,-4.045084971874738 85.1,-4.026539428555612 85.2,-4.0078349243543805 85.3,-3.9889721976928567 85.4,-3.969951993239177 85.5,-3.950775061878453 85.6,-3.9314421606830967 85.7,-3.9119540528829386 85.8,-3.892311507835116 85.9,-3.87251530099367 86.0,-3.852566213878948 86.1,-3.8324650340467525 86.2,-3.8122125550572377 86.3,-3.791809576443609 86.4,-3.77125690368052 86.5,-3.7505553481523 86.6,-3.7297057271209146 86.7,-3.708708863693695 86.8,-3.6875655867908703 86.9,-3.666276731112802 87.0,-3.6448431371070606 87.1,-3.6232656509352346 87.2,-3.601545124439534 87.3,-3.579682415109157 87.4,-3.557678386046423 87.5,-3.5355339059327417 87.6,-3.5132498489942483 87.7,-3.4908270949673637 87.8,-3.468266529064027 87.9,-3.4455690419367393 88.0,-3.422735529643445 88.1,-3.399766893612099 88.2,-3.3766640406051236 88.3,-3.3534278826836026 88.4,-3.3300593371712557 88.5,-3.306559326618258 88.6,-3.282928778764786 88.7,-3.2591686265043958 88.8,-3.235279807847225 88.9,-3.21126326588292 89.0,-3.1871199487434483 89.1,-3.162850809565623 89.2,-3.138456806453505 89.3,-3.113938902440567 89.4,-3.0892980654516706 89.5,-3.0645352682648825 89.6,-3.0396514884730284 89.7,-3.0146477084451266 89.8,-2.989524915287596 89.9,-2.964284100805296 90.0,-2.938926261462367 90.1,-2.9134523983428826 90.2,-2.887863517111342 90.3,-2.8621606279729566 90.4,-2.8363447456337827 90.5,-2.8104168892606545 90.6,-2.784378082440943 90.7,-2.7582293531421485 90.8,-2.7319717336713483 90.9,-2.7056062606343803 91.0,-2.6791339748949854 91.1,-2.6525559215336743 91.2,-2.625873149806477 91.3,-2.599086713103547 91.4,-2.572197668907534 91.5,-2.5452070787518597 91.6,-2.518116008178805 91.7,-2.490925526697453 91.8,-2.4636367077414585 91.9,-2.436250628626664 92.0,-2.4087683705085805 92.1,-2.3811910183396976 92.2,-2.3535196608266626 92.3,-2.325755390387293 92.4,-2.2978993031074424 92.5,-2.2699524986977346 92.6,-2.241916080450164 92.7,-2.2137911551945084 92.8,-2.185578833254667 92.9,-2.157280228404791 93.0,-2.128896457825365 93.1,-2.100428642059035 93.2,-2.071877904966422 93.3,-2.0432453736817484 93.4,-2.0145321785683103 93.5,-1.9857394531739017 93.6,-1.9568683341860167 93.7,-1.9279199613869848 93.8,-1.8988954776090095 93.9,-1.8697960286889996 94.0,-1.8406227634233894 94.1,-1.8113768335227296 94.2,-1.7820593935662565 94.3,-1.752671600956296 94.4,-1.7232146158725836 94.5,-1.693689601226457 94.6,-1.6640977226149354 94.7,-1.6344401482747164 94.8,-1.604718049036049 94.9,-1.5749325982765234 95.0,-1.5450849718747381 95.1,-1.5151763481638727 95.2,-1.4852079078851752 95.3,-1.4551808341413617 95.4,-1.4250963123498808 95.5,-1.3949555301961483 95.6,-1.36475967758663 95.7,-1.334509946601875 95.8,-1.304207531449488 95.9,-1.273853628416912 96.0,-1.2434494358242767 96.1,-1.2129961539770375 96.2,-1.1824949851186215 96.3,-1.1519471333829572 96.4,-1.1213538047469078 96.5,-1.0907162069827165 96.6,-1.0600355496102745 96.7,-1.0293130438494056 96.8,-0.9985499025720359 96.9,-0.9677473402543041 97.0,-0.9369065729286234 97.1,-0.906028818135689 97.2,-0.8751152948763801 97.3,-0.844167223563671 97.4,-0.8131858259744217 97.5,-0.7821723252011556 97.6,-0.7511279456037884 97.7,-0.7200539127612615 97.8,-0.6889514534231929 97.9,-0.6578217954614127 98.0,-0.6266661678215233 98.1,-0.5954858004743526 98.2,-0.56428192436741 98.3,-0.5330557713763031 98.4,-0.5018085742560711 98.5,-0.4705415665925745 98.6,-0.4392559827537208 98.7,-0.4079530578407902 98.8,-0.3766340276396636 98.9,-0.34530012857202647 99.0,-0.3139525976465663 99.1,-0.2825926724101285 99.2,-0.2512215908988511 99.3,-0.21984059158932537 99.4,-0.18845091334967107 99.5,-0.1570537953906418 99.6,-0.12565047721668968 99.7,-0.09424219857704069 99.8,-0.06283019941676479 99.9,-0.03141571982779403 100.0,-1.2246467991473533e-15" stroke-width="1" stroke-linecap="round" stroke="#000000" fill="none"  />
<!-- Footer -->
</svg>
