<!-- Header -->
<svg
    version="1.1"
    baseProfile="full"
    xmlns="http://www.w3.org/2000/svg"
    xmlns:xlink="http://www.w3.org/1999/xlink"
    xmlns:ev="http://www.w3.org/2001/xml-events"
    width="210.0"
    height="20.0"
    viewBox="-5.0 -10.0 210.0 20.0"
    preserveAspectRatio="none"
>
<!-- Body -->
<!-- polyline -->
<polyline points="0.0,0.0 0.1,0.06283019941676304 0.2,0.1256504772166874 0.3,0.1884509133496727 0.4,0.25122159089884777 0.5,0.31395259764656686 0.6,0.3766340276396636 0.7,0.4392559827537158 0.8,0.5018085742560745 0.9,0.5642819243674084 1.0,0.6266661678215213 1.1,0.6889514534231904 1.2,0.7511279456037854 1.3,0.8131858259744179 1.4,0.8751152948763802 1.5,0.936906572928623 1.6,0.9985499025720351 1.7,1.0600355496102734 1.8,1.1213538047469058 1.9,1.1824949851186233 2.0,1.243449435824274 2.1,1.3042075314494848 2.2,1.3647596775866262 2.3,1.4250963123498803 2.4,1.4852079078851745 2.5,1.545084971874737 2.6,1.6047180490360473 2.7,1.6640977226149332 2.8,1.7232146158725854 2.9,1.7820593935662534 3.0,1.8406227634233896 3.1,1.8988954776090052 3.2,1.9568683341860122 3.3,2.014532178568313 3.4,2.0718779049664207 3.5,2.1288964578253635 3.6,2.1855788332546644 3.7,2.241916080450161 3.8,2.297899303107439 3.9,2.3535196608266626 4.0,2.4087683705085765 4.1,2.4636367077414576 4.2,2.518116008178804 4.3,2.572197668907532 4.4,2.6258731498064787 4.5,2.679133974894983 4.6,2.731971733671345 4.7,2.7843780824409397 4.8,2.8363447456337827 4.9,2.887863517111338 5.0,2.938926261462366 5.1,2.9895249152875936 5.2,3.039651488473027 5.3,3.089298065451671 5.4,3.1384568064535023 5.5,3.1871199487434483 5.6,3.2352798078472214 5.7,3.2829287787647825 5.8,3.330059337171258 5.9,3.3766640406051223 6.0,3.422735529643443 6.1,3.4682665290640244 6.2,3.5132498489942456 6.3,3.557678386046427 6.4,3.601545124439535 6.5,3.644843137107058 6.6,3.6875655867908694 6.7,3.7297057271209106 6.8,3.771256903680519 6.9,3.8122125550572394 7.0,3.852566213878946 7.1,3.8923115078351165 7.2,3.9314421606830945 7.3,3.9699519932391762 7.4,4.007834924354382 7.5,4.045084971874736 7.6,4.081696253585919 7.7,4.117662988142137 7.8,4.1529794959790625 7.9,4.1876402002107085 8.0,4.221639627510076 8.1,4.254972408973459 8.2,4.287633280968261 8.3,4.319617085964176 8.4,4.350918773347629 8.5,4.381533400219318 8.6,4.4114561321747665 8.7,4.440682244067722 8.8,4.469207120756319 8.9,4.497026257831855 9.0,4.524135262330098 9.1,4.550529853424978 9.2,4.576205863104587 9.3,4.601159236829352 9.4,4.6253860341722906 9.5,4.648882429441256 9.6,4.67164471228306 9.7,4.69366928826937 9.8,4.714952679464322 9.9,4.735491524973722 10.0,4.755282581475767 10.1,4.774322723733214 10.2,4.792608945086879 10.3,4.8101383579304295 10.4,4.82690819416637 10.5,4.842915805643155 10.6,4.858158664573369 10.7,4.872634363932885 10.8,4.886340617840967 10.9,4.899275261921234 11.0,4.911436253643443 11.1,4.922821672646027 11.2,4.9334297210393405 11.3,4.943258723689571 11.4,4.952307128483256 11.5,4.960573506572389 11.6,4.968056552600042 11.7,4.9747550849065005 11.8,4.980668045715863 11.9,4.98579450130307 12.0,4.990133642141358 12.1,4.993684783030087 12.2,4.996447363202946 12.3,4.9984209464165 12.4,4.99960522101908 12.5,5.0 12.6,4.99960522101908 12.7,4.9984209464165 12.8,4.996447363202946 12.9,4.993684783030087 13.0,4.990133642141358 13.1,4.98579450130307 13.2,4.980668045715863 13.3,4.9747550849065005 13.4,4.968056552600042 13.5,4.9605735065723895 13.6,4.952307128483256 13.7,4.943258723689571 13.8,4.9334297210393405 13.9,4.922821672646027 14.0,4.911436253643443 14.1,4.899275261921234 14.2,4.886340617840967 14.3,4.872634363932885 14.4,4.85815866457337 14.5,4.842915805643155 14.6,4.82690819416637 14.7,4.8101383579304295 14.8,4.792608945086879 14.9,4.774322723733214 15.0,4.755282581475768 15.1,4.735491524973722 15.2,4.714952679464322 15.3,4.69366928826937 15.4,4.67164471228306 15.5,4.648882429441257 15.6,4.6253860341722906 15.7,4.601159236829352 15.8,4.576205863104588 15.9,4.550529853424979 16.0,4.524135262330097 16.1,4.4970262578318545 16.2,4.4692071207563195 16.3,4.440682244067723 16.4,4.411456132174767 16.5,4.381533400219317 16.6,4.350918773347629 16.7,4.319617085964177 16.8,4.287633280968261 16.9,4.25497240897346 17.0,4.221639627510075 17.1,4.1876402002107085 17.2,4.152979495979063 17.3,4.117662988142136 17.4,4.08169625358592 17.5,4.045084971874737 17.6,4.007834924354382 17.7,3.9699519932391776 17.8,3.931442160683094 17.9,3.8923115078351174 18.0,3.852566213878946 18.1,3.812212555057239 18.2,3.77125690368052 18.3,3.7297057271209093 18.4,3.6875655867908708 18.5,3.644843137107057 18.6,3.6015451244395336 18.7,3.5576783860464274 18.8,3.513249848994246 18.9,3.468266529064026 19.0,3.422735529643444 19.1,3.3766640406051214 19.2,3.3300593371712583 19.3,3.282928778764782 19.4,3.2352798078472227 19.5,3.187119948743449 19.6,3.138456806453501 19.7,3.0892980654516733 19.8,3.0396514884730266 19.9,2.9895249152875953 20.0,2.9389262614623664 20.1,2.887863517111338 20.2,2.8363447456337836 20.3,2.784378082440939 20.4,2.731971733671348 20.5,2.679133974894985 20.6,2.6258731498064765 20.7,2.572197668907533 20.8,2.5181160081788043 20.9,2.463636707741458 21.0,2.408768370508576 21.1,2.353519660826662 21.2,2.297899303107442 21.3,2.2419160804501597 21.4,2.185578833254666 21.5,2.1288964578253644 21.6,2.0718779049664215 21.7,2.014532178568314 21.8,1.9568683341860118 21.9,1.898895477609007 22.0,1.8406227634233907 22.1,1.7820593935662519 22.2,1.7232146158725872 22.3,1.6640977226149347 22.4,1.6047180490360486 22.5,1.5450849718747375 22.6,1.4852079078851745 22.7,1.4250963123498823 22.8,1.3647596775866253 22.9,1.3042075314494852 23.0,1.2434494358242763 23.1,1.1824949851186253 23.2,1.1213538047469072 23.3,1.060035549610274 23.4,0.9985499025720375 23.5,0.9369065729286229 23.6,0.8751152948763794 23.7,0.8131858259744189 23.8,0.7511279456037856 23.9,0.6889514534231923 24.0,0.6266661678215226 24.1,0.5642819243674093 24.2,0.501808574256075 24.3,0.43925598275371575 24.4,0.3766340276396652 24.5,0.3139525976465679 24.6,0.2512215908988461 24.7,0.18845091334967268 24.8,0.12565047721668907 24.9,0.06283019941676418 25.0,6.123233995736766e-16 25.1,-0.06283019941676296 25.2,-0.12565047721668562 25.3,-0.18845091334967368 25.4,-0.2512215908988471 25.5,-0.31395259764656674 25.6,-0.37663402763966397 25.7,-0.4392559827537146 25.8,-0.5018085742560736 25.9,-0.564281924367406 26.0,-0.6266661678215214 26.1,-0.6889514534231911 26.2,-0.7511279456037844 26.3,-0.8131858259744176 26.4,-0.8751152948763805 26.5,-0.9369065729286239 26.6,-0.9985499025720341 26.7,-1.0600355496102707 26.8,-1.121353804746906 26.9,-1.182494985118622 27.0,-1.243449435824273 27.1,-1.304207531449484 27.2,-1.3647596775866262 27.3,-1.425096312349881 27.4,-1.4852079078851712 27.5,-1.5450849718747364 27.6,-1.6047180490360473 27.7,-1.6640977226149314 27.8,-1.723214615872584 27.9,-1.782059393566253 28.0,-1.8406227634233896 28.1,-1.898895477609006 28.2,-1.956868334186013 28.3,-2.014532178568315 28.4,-2.071877904966418 28.5,-2.1288964578253613 28.6,-2.1855788332546653 28.7,-2.24191608045016 28.8,-2.297899303107439 28.9,-2.353519660826663 29.0,-2.408768370508577 29.1,-2.463636707741459 29.2,-2.5181160081788017 29.3,-2.572197668907532 29.4,-2.625873149806477 29.5,-2.6791339748949823 29.6,-2.731971733671345 29.7,-2.7843780824409397 29.8,-2.8363447456337827 29.9,-2.8878635171113354 30.0,-2.9389262614623632 30.1,-2.989524915287596 30.2,-3.0396514884730252 30.3,-3.0892980654516706 30.4,-3.138456806453502 30.5,-3.1871199487434483 30.6,-3.235279807847222 30.7,-3.2829287787647807 30.8,-3.330059337171259 30.9,-3.37666404060512 31.0,-3.422735529643442 31.1,-3.4682665290640236 31.2,-3.5132498489942456 31.3,-3.557678386046426 31.4,-3.601545124439533 31.5,-3.644843137107058 31.6,-3.6875655867908703 31.7,-3.729705727120909 31.8,-3.7712569036805177 31.9,-3.8122125550572394 32.0,-3.852566213878947 32.1,-3.892311507835118 32.2,-3.931442160683096 32.3,-3.9699519932391754 32.4,-4.007834924354382 32.5,-4.045084971874736 32.6,-4.081696253585919 32.7,-4.117662988142137 32.8,-4.152979495979061 32.9,-4.187640200210709 33.0,-4.2216396275100765 33.1,-4.25497240897346 33.2,-4.287633280968261 33.3,-4.319617085964175 33.4,-4.350918773347628 33.5,-4.381533400219318 33.6,-4.4114561321747665 33.7,-4.440682244067723 33.8,-4.469207120756318 33.9,-4.4970262578318545 34.0,-4.524135262330099 34.1,-4.550529853424978 34.2,-4.576205863104588 34.3,-4.60115923682935 34.4,-4.6253860341722906 34.5,-4.648882429441257 34.6,-4.671644712283061 34.7,-4.693669288269371 34.8,-4.7149526794643215 34.9,-4.735491524973721 35.0,-4.755282581475767 35.1,-4.774322723733214 35.2,-4.792608945086879 35.3,-4.810138357930429 35.4,-4.826908194166369 35.5,-4.842915805643156 35.6,-4.85815866457337 35.7,-4.872634363932886 35.8,-4.8863406178409665 35.9,-4.899275261921234 36.0,-4.911436253643443 36.1,-4.922821672646027 36.2,-4.9334297210393405 36.3,-4.94325872368957 36.4,-4.952307128483256 36.5,-4.960573506572389 36.6,-4.968056552600043 36.7,-4.974755084906501 36.8,-4.980668045715862 36.9,-4.98579450130307 37.0,-4.990133642141358 37.1,-4.993684783030087 37.2,-4.996447363202947 37.3,-4.9984209464165 37.4,-4.99960522101908 37.5,-5.0 37.6,-4.99960522101908 37.7,-4.9984209464165 37.8,-4.996447363202947 37.9,-4.993684783030088 38.0,-4.990133642141358 38.1,-4.98579450130307 38.2,-4.980668045715862 38.3,-4.974755084906501 38.4,-4.968056552600042 38.5,-4.9605735065723895 38.6,-4.952307128483256 38.7,-4.94325872368957 38.8,-4.9334297210393405 38.9,-4.922821672646027 39.0,-4.911436253643443 39.1,-4.899275261921235 39.2,-4.8863406178409665 39.3,-4.872634363932887 39.4,-4.85815866457337 39.5,-4.842915805643155 39.6,-4.826908194166369 39.7,-4.810138357930429 39.8,-4.792608945086879 39.9,-4.774322723733215 40.0,-4.755282581475768 40.1,-4.735491524973722 40.2,-4.714952679464322 40.3,-4.693669288269372 40.4,-4.6716447122830616 40.5,-4.648882429441258 40.6,-4.62538603417229 40.7,-4.601159236829351 40.8,-4.57620586310459 40.9,-4.550529853424979 41.0,-4.524135262330099 41.1,-4.4970262578318545 41.2,-4.469207120756317 41.3,-4.440682244067724 41.4,-4.411456132174767 41.5,-4.3815334002193165 41.6,-4.350918773347629 41.7,-4.3196170859641745 41.8,-4.287633280968262 41.9,-4.254972408973462 42.0,-4.221639627510075 42.1,-4.18764020021071 42.2,-4.1529794959790625 42.3,-4.117662988142138 42.4,-4.081696253585923 42.5,-4.045084971874738 42.6,-4.0078349243543805 42.7,-3.969951993239177 42.8,-3.9314421606830967 42.9,-3.892311507835116 43.0,-3.852566213878948 43.1,-3.8122125550572377 43.2,-3.77125690368052 43.3,-3.7297057271209146 43.4,-3.6875655867908703 43.5,-3.6448431371070606 43.6,-3.601545124439534 43.7,-3.557678386046423 43.8,-3.5132498489942483 43.9,-3.468266529064027 44.0,-3.422735529643445 44.1,-3.3766640406051236 44.2,-3.3300593371712557 44.3,-3.282928778764786 44.4,-3.235279807847225 44.5,-3.1871199487434483 44.6,-3.138456806453505 44.7,-3.0892980654516706 44.8,-3.0396514884730284 44.9,-2.989524915287596 45.0,-2.938926261462367 45.1,-2.887863517111342 45.2,-2.8363447456337827 45.3,-2.784378082440943 45.4,-2.7319717336713483 45.5,-2.6791339748949854 45.6,-2.625873149806477 45.7,-2.572197668907534 45.8,-2.518116008178805 45.9,-2.4636367077414585 46.0,-2.4087683705085805 46.1,-2.3535196608266626 46.2,-2.2978993031074424 46.3,-2.241916080450164 46.4,-2.185578833254667 46.5,-2.128896457825365 46.6,-2.071877904966422 46.7,-2.0145321785683103 46.8,-1.9568683341860167 46.9,-1.8988954776090095 47.0,-1.8406227634233894 47.1,-1.7820593935662565 47.2,-1.7232146158725836 47.3,-1.6640977226149354 47.4,-1.604718049036049 47.5,-1.5450849718747381 47.6,-1.4852079078851752 47.7,-1.4250963123498808 47.8,-1.36475967758663 47.9,-1.304207531449488 48.0,-1.2434494358242767 48.1,-1.1824949851186215 48.2,-1.1213538047469078 48.3,-1.0600355496102745 48.4,-0.9985499025720359 48.5,-0.9369065729286234 48.6,-0.8751152948763801 48.7,-0.8131858259744217 48.8,-0.7511279456037884 48.9,-0.6889514534231929 49.0,-0.6266661678215233 49.1,-0.56428192436741 49.2,-0.5018085742560711 49.3,-0.4392559827537208 49.4,-0.3766340276396636 49.5,-0.3139525976465663 49.6,-0.2512215908988511 49.7,-0.18845091334967107 49.8,-0.12565047721668968 49.9,-0.06283019941676479 50.0,-1.2246467991473533e-15 50.1,0.06283019941676235 50.2,0.12565047721668723 50.3,0.18845091334967307 50.4,0.2512215908988442 50.5,0.3139525976465639 50.6,0.3766340276396656 50.7,0.43925598275371397 50.8,0.5018085742560731 50.9,0.5642819243674075 51.0,0.6266661678215208 51.1,0.6889514534231905 51.2,0.751127945603786 51.3,0.8131858259744149 51.4,0.8751152948763775 51.5,0.936906572928621 51.6,0.9985499025720335 51.7,1.0600355496102765 51.8,1.121353804746901 51.9,1.1824949851186233 52.0,1.2434494358242745 52.1,1.3042075314494856 52.2,1.3647596775866278 52.3,1.425096312349874 52.4,1.485207907885173 52.5,1.545084971874736 52.6,1.6047180490360469 52.7,1.6640977226149332 52.8,1.7232146158725856 52.9,1.78205939356625 53.0,1.840622763423391 53.1,1.898895477609003 53.2,1.9568683341860102 53.3,2.014532178568312 53.4,2.0718779049664158 53.5,2.1288964578253626 53.6,2.185578833254665 53.7,2.241916080450162 53.8,2.297899303107436 53.9,2.3535196608266644 54.0,2.4087683705085743 54.1,2.4636367077414563 54.2,2.5181160081788034 54.3,2.5721976689075277 54.4,2.6258731498064787 54.5,2.67913397489498 54.6,2.731971733671346 54.7,2.7843780824409414 54.8,2.836344745633777 54.9,2.8878635171113363 55.0,2.9389262614623646 55.1,2.9895249152875936 55.2,3.039651488473027 55.3,3.089298065451672 55.4,3.1384568064534997 55.5,3.18711994874345 55.6,3.2352798078472196 55.7,3.2829287787647843 55.8,3.3300593371712575 55.9,3.3766640406051183 56.0,3.422735529643443 56.1,3.4682665290640244 56.2,3.5132498489942465 56.3,3.5576783860464243 56.4,3.601545124439536 56.5,3.644843137107056 56.6,3.687565586790871 56.7,3.72970572712091 56.8,3.7712569036805155 56.9,3.8122125550572394 57.0,3.8525662138789434 57.1,3.892311507835118 57.2,3.931442160683096 57.3,3.9699519932391727 57.4,4.007834924354381 57.5,4.045084971874739 57.6,4.081696253585919 57.7,4.117662988142136 57.8,4.152979495979063 57.9,4.187640200210707 58.0,4.221639627510076 58.1,4.254972408973458 58.2,4.2876332809682625 58.3,4.319617085964175 58.4,4.350918773347626 58.5,4.381533400219318 58.6,4.4114561321747665 58.7,4.440682244067723 58.8,4.469207120756317 58.9,4.497026257831856 59.0,4.5241352623300966 59.1,4.55052985342498 59.2,4.576205863104587 59.3,4.60115923682935 59.4,4.6253860341722906 59.5,4.648882429441255 59.6,4.671644712283061 59.7,4.693669288269371 59.8,4.71495267946432 59.9,4.735491524973721 60.0,4.755282581475766 60.1,4.774322723733214 60.2,4.792608945086881 60.3,4.810138357930428 60.4,4.826908194166368 60.5,4.842915805643156 60.6,4.858158664573368 60.7,4.872634363932886 60.8,4.8863406178409665 60.9,4.899275261921233 61.0,4.911436253643443 61.1,4.922821672646026 61.2,4.9334297210393405 61.3,4.94325872368957 61.4,4.952307128483256 61.5,4.960573506572389 61.6,4.968056552600043 61.7,4.9747550849065005 61.8,4.980668045715862 61.9,4.98579450130307 62.0,4.990133642141358 62.1,4.993684783030087 62.2,4.996447363202946 62.3,4.9984209464165 62.4,4.99960522101908 62.5,5.0 62.6,4.99960522101908 62.7,4.9984209464165 62.8,4.996447363202947 62.9,4.993684783030088 63.0,4.990133642141358 63.1,4.98579450130307 63.2,4.980668045715862 63.3,4.9747550849065005 63.4,4.968056552600043 63.5,4.9605735065723895 63.6,4.952307128483256 63.7,4.943258723689571 63.8,4.9334297210393405 63.9,4.922821672646027 64.0,4.911436253643443 64.1,4.899275261921235 64.2,4.8863406178409665 64.3,4.872634363932886 64.4,4.858158664573368 64.5,4.842915805643155 64.6,4.8269081941663705 64.7,4.810138357930429 64.8,4.79260894508688 64.9,4.774322723733214 65.0,4.755282581475768 65.1,4.735491524973724 65.2,4.714952679464322 65.3,4.693669288269372 65.4,4.67164471228306 65.5,4.648882429441258 65.6,4.625386034172293 65.7,4.601159236829353 65.8,4.576205863104587 65.9,4.550529853424979 66.0,4.5241352623300966 66.1,4.497026257831855 66.2,4.469207120756317 66.3,4.440682244067722 66.4,4.411456132174768 66.5,4.3815334002193165 66.6,4.350918773347629 66.7,4.319617085964175 66.8,4.287633280968262 66.9,4.254972408973457 67.0,4.221639627510076 67.1,4.18764020021071 67.2,4.1529794959790625 67.3,4.117662988142138 67.4,4.0816962535859185 67.5,4.045084971874738 67.6,4.007834924354386 67.7,3.969951993239177 67.8,3.9314421606830976 67.9,3.8923115078351165 68.0,3.852566213878943 68.1,3.812212555057244 68.2,3.7712569036805204 68.3,3.729705727120915 68.4,3.6875655867908703 68.5,3.644843137107055 68.6,3.6015451244395407 68.7,3.5576783860464234 68.8,3.5132498489942456 68.9,3.468266529064021 69.0,3.422735529643442 69.1,3.3766640406051236 69.2,3.330059337171256 69.3,3.2829287787647834 69.4,3.2352798078472182 69.5,3.1871199487434487 69.6,3.1384568064535054 69.7,3.089298065451671 69.8,3.0396514884730292 69.9,2.9895249152875927 70.0,2.938926261462367 70.1,2.8878635171113425 70.2,2.836344745633783 70.3,2.7843780824409436 70.4,2.731971733671345 70.5,2.6791339748949863 70.6,2.625873149806485 70.7,2.5721976689075268 70.8,2.5181160081788097 70.9,2.463636707741459 71.0,2.4087683705085734 71.1,2.353519660826671 71.2,2.2978993031074353 71.3,2.2419160804501606 71.4,2.1855788332546595 71.5,2.1288964578253617 71.6,2.0718779049664224 71.7,2.014532178568311 71.8,1.956868334186013 71.9,1.898895477609002 72.0,1.8406227634233898 72.1,1.7820593935662572 72.2,1.723214615872584 72.3,1.6640977226149358 72.4,1.6047180490360455 72.5,1.545084971874739 72.6,1.4852079078851799 72.7,1.4250963123498814 72.8,1.3647596775866306 72.9,1.3042075314494843 73.0,1.2434494358242774 73.1,1.1824949851186308 73.2,1.1213538047468998 73.3,1.0600355496102796 73.4,0.9985499025720278 73.5,0.9369065729286197 73.6,0.8751152948763894 73.7,0.8131858259744135 73.8,0.7511279456037846 73.9,0.6889514534231846 74.0,0.6266661678215195 74.1,0.5642819243674106 74.2,0.5018085742560716 74.3,0.439255982753717 74.4,0.3766340276396598 74.5,0.3139525976465669 74.6,0.25122159089885177 74.7,0.18845091334967168 74.8,0.1256504772166903 74.9,0.06283019941676096 75.0,1.8369701987210296e-15 75.1,-0.0628301994167573 75.2,-0.12565047721668662 75.3,-0.18845091334966801 75.4,-0.25122159089884805 75.5,-0.31395259764656325 75.6,-0.37663402763965614 75.7,-0.43925598275372213 75.8,-0.5018085742560681 75.9,-0.5642819243674158 76.0,-0.6266661678215159 76.1,-0.6889514534231811 76.2,-0.7511279456037898 76.3,-0.8131858259744098 76.4,-0.8751152948763857 76.5,-0.9369065729286248 76.6,-0.9985499025720241 76.7,-1.060035549610276 76.8,-1.1213538047469047 76.9,-1.182494985118627 77.0,-1.2434494358242738 77.1,-1.3042075314494808 77.2,-1.364759677586627 77.3,-1.4250963123498779 77.4,-1.4852079078851765 77.5,-1.5450849718747353 77.6,-1.604718049036042 77.7,-1.6640977226149325 77.8,-1.723214615872581 77.9,-1.7820593935662536 78.0,-1.8406227634233863 78.1,-1.8988954776089986 78.2,-1.9568683341860096 78.3,-2.0145321785683072 78.4,-2.0718779049664273 78.5,-2.128896457825358 78.6,-2.185578833254656 78.7,-2.2419160804501654 78.8,-2.2978993031074317 78.9,-2.3535196608266675 79.0,-2.408768370508578 79.1,-2.4636367077414483 79.2,-2.518116008178807 79.3,-2.572197668907531 79.4,-2.625873149806482 79.5,-2.6791339748949827 79.6,-2.731971733671342 79.7,-2.784378082440941 79.8,-2.83634474563378 79.9,-2.88786351711134 80.0,-2.938926261462364 80.1,-2.9895249152875896 80.2,-3.0396514884730266 80.3,-3.0892980654516675 80.4,-3.1384568064535023 80.5,-3.1871199487434456 80.6,-3.2352798078472156 80.7,-3.2829287787647803 80.8,-3.3300593371712535 80.9,-3.376664040605127 81.0,-3.422735529643439 81.1,-3.4682665290640182 81.2,-3.513249848994249 81.3,-3.5576783860464207 81.4,-3.601545124439538 81.5,-3.6448431371070527 81.6,-3.687565586790862 81.7,-3.729705727120913 81.8,-3.771256903680518 81.9,-3.8122125550572363 82.0,-3.8525662138789403 82.1,-3.892311507835109 82.2,-3.931442160683095 82.3,-3.9699519932391745 82.4,-4.007834924354389 82.5,-4.045084971874731 82.6,-4.081696253585917 82.7,-4.117662988142136 82.8,-4.152979495979061 82.9,-4.187640200210713 83.0,-4.221639627510078 83.1,-4.2549724089734555 83.2,-4.28763328096826 83.3,-4.319617085964173 83.4,-4.350918773347631 83.5,-4.38153340021932 83.6,-4.411456132174766 83.7,-4.4406822440677205 83.8,-4.469207120756315 83.9,-4.497026257831857 84.0,-4.524135262330098 84.1,-4.550529853424977 84.2,-4.576205863104585 84.3,-4.601159236829347 84.4,-4.625386034172292 84.5,-4.648882429441256 84.6,-4.671644712283058 84.7,-4.693669288269367 84.8,-4.714952679464318 84.9,-4.735491524973722 85.0,-4.755282581475767 85.1,-4.7743227237332135 85.2,-4.792608945086882 85.3,-4.810138357930428 85.4,-4.82690819416637 85.5,-4.8429158056431545 85.6,-4.858158664573367 85.7,-4.872634363932887 85.8,-4.886340617840968 85.9,-4.899275261921233 86.0,-4.911436253643442 86.1,-4.922821672646025 86.2,-4.933429721039341 86.3,-4.943258723689571 86.4,-4.952307128483255 86.5,-4.960573506572389 86.6,-4.968056552600041 86.7,-4.9747550849065005 86.8,-4.980668045715862 86.9,-4.985794501303069 87.0,-4.990133642141357 87.1,-4.993684783030087 87.2,-4.996447363202946 87.3,-4.9984209464165 87.4,-4.99960522101908 87.5,-5.0 87.6,-4.99960522101908 87.7,-4.9984209464165 87.8,-4.996447363202947 87.9,-4.993684783030087 88.0,-4.990133642141358 88.1,-4.9857945013030704 88.2,-4.980668045715863 88.3,-4.974755084906501 88.4,-4.968056552600041 88.5,-4.960573506572389 88.6,-4.952307128483257 88.7,-4.943258723689571 88.8,-4.933429721039342 88.9,-4.922821672646026 89.0,-4.911436253643443 89.1,-4.899275261921235 89.2,-4.886340617840968 89.3,-4.872634363932888 89.4,-4.858158664573368 89.5,-4.842915805643156 89.6,-4.8269081941663705 89.7,-4.810138357930432 89.8,-4.79260894508688 89.9,-4.774322723733214 90.0,-4.755282581475769 90.1,-4.735491524973724 90.2,-4.714952679464326 90.3,-4.693669288269372 90.4,-4.67164471228306 90.5,-4.648882429441258 90.6,-4.625386034172293 90.7,-4.601159236829349 90.8,-4.57620586310459 90.9,-4.55052985342498 91.0,-4.5241352623301 91.1,-4.497026257831859 91.2,-4.469207120756317 91.3,-4.440682244067722 91.4,-4.411456132174768 91.5,-4.381533400219322 91.6,-4.3509187733476296 91.7,-4.319617085964175 91.8,-4.2876332809682625 91.9,-4.254972408973462 92.0,-4.22163962751008 92.1,-4.187640200210711 92.2,-4.1529794959790625 92.3,-4.117662988142139 92.4,-4.081696253585924 92.5,-4.045084971874738 92.6,-4.007834924354387 92.7,-3.9699519932391776 92.8,-3.9314421606830976 92.9,-3.8923115078351116 93.0,-3.852566213878949 93.1,-3.8122125550572443 93.2,-3.771256903680521 93.3,-3.729705727120915 93.4,-3.6875655867908645 93.5,-3.6448431371070553 93.6,-3.601545124439541 93.7,-3.55767838604643 93.8,-3.513249848994252 93.9,-3.4682665290640213 94.0,-3.4227355296434423 94.1,-3.376664040605124 94.2,-3.330059337171263 94.3,-3.2829287787647834 94.4,-3.2352798078472187 94.5,-3.1871199487434487 94.6,-3.1384568064535054 94.7,-3.089298065451678 94.8,-3.0396514884730297 94.9,-2.989524915287593 95.0,-2.9389262614623672 95.1,-2.8878635171113434 95.2,-2.8363447456337836 95.3,-2.784378082440944 95.4,-2.7319717336713456 95.5,-2.6791339748949867 95.6,-2.6258731498064853 95.7,-2.572197668907527 95.8,-2.51811600817881 95.9,-2.4636367077414594 96.0,-2.4087683705085814 96.1,-2.3535196608266635 96.2,-2.2978993031074357 96.3,-2.241916080450169 96.4,-2.185578833254668 96.5,-2.12889645782537 96.6,-2.0718779049664233 96.7,-2.0145321785683112 96.8,-1.9568683341860136 96.9,-1.8988954776090106 97.0,-1.8406227634233905 97.1,-1.7820593935662576 97.2,-1.7232146158725847 97.3,-1.6640977226149365 97.4,-1.6047180490360544 97.5,-1.5450849718747395 97.6,-1.4852079078851808 97.7,-1.4250963123498819 97.8,-1.364759677586631 97.9,-1.304207531449485 98.0,-1.243449435824278 98.1,-1.1824949851186313 98.2,-1.121353804746909 98.3,-1.06003554961028 98.4,-0.9985499025720285 98.5,-0.936906572928629 98.6,-0.8751152948763901 98.7,-0.8131858259744229 98.8,-0.7511279456037852 98.9,-0.6889514534231854 99.0,-0.6266661678215201 99.1,-0.5642819243674201 99.2,-0.5018085742560812 99.3,-0.4392559827537176 99.4,-0.37663402763966036 99.5,-0.3139525976465676 99.6,-0.2512215908988524 99.7,-0.1884509133496723 99.8,-0.1256504772166909 99.9,-0.06283019941676157 100.0,-2.4492935982947065e-15 100.1,0.06283019941675667 100.2,0.125650477216686 100.3,0.1884509133496674 100.4,0.2512215908988475 100.5,0.31395259764656264 100.6,0.37663402763966436 100.7,0.4392559827537127 100.8,0.5018085742560674 100.9,0.5642819243674063 101.0,0.6266661678215152 101.1,0.6889514534231893 101.2,0.7511279456037891 101.3,0.8131858259744094 101.4,0.8751152948763764 101.5,0.9369065729286242 101.6,0.9985499025720324 101.7,1.0600355496102754 101.8,1.1213538047469043 101.9,1.182494985118618 102.0,1.2434494358242734 102.1,1.3042075314494803 102.2,1.3647596775866264 102.3,1.4250963123498772 102.4,1.4852079078851759 102.5,1.5450849718747348 102.6,1.6047180490360413 102.7,1.6640977226149318 102.8,1.7232146158725803 102.9,1.7820593935662532 103.0,1.8406227634233856 103.1,1.8988954776089977 103.2,1.9568683341860091 103.3,2.014532178568315 103.4,2.071877904966427 103.5,2.1288964578253577 103.6,2.1855788332546555 103.7,2.2419160804501566 103.8,2.2978993031074393 103.9,2.3535196608266675 104.0,2.408768370508577 104.1,2.4636367077414474 104.2,2.518116008178806 104.3,2.5721976689075303 104.4,2.6258731498064813 104.5,2.6791339748949823 104.6,2.731971733671334 104.7,2.7843780824409405 104.8,2.836344745633779 104.9,2.8878635171113394 105.0,2.9389262614623632 105.1,2.9895249152875962 105.2,3.0396514884730257 105.3,3.0892980654516675 105.4,3.138456806453502 105.5,3.1871199487434456 105.6,3.2352798078472222 105.7,3.28292877876478 105.8,3.330059337171253 105.9,3.376664040605121 106.0,3.4227355296434454 106.1,3.468266529064024 106.2,3.513249848994242 106.3,3.55767838604642 106.4,3.601545124439532 106.5,3.6448431371070584 106.6,3.6875655867908677 106.7,3.729705727120912 106.8,3.771256903680512 106.9,3.8122125550572417 107.0,3.8525662138789456 107.1,3.892311507835114 107.2,3.9314421606830945 107.3,3.969951993239174 107.4,4.007834924354384 107.5,4.0450849718747355 107.6,4.081696253585916 107.7,4.117662988142136 107.8,4.152979495979065 107.9,4.1876402002107085 108.0,4.221639627510073 108.1,4.254972408973455 108.2,4.28763328096826 108.3,4.319617085964177 108.4,4.350918773347628 108.5,4.381533400219315 108.6,4.411456132174761 108.7,4.440682244067724 108.8,4.469207120756319 108.9,4.497026257831857 109.0,4.524135262330094 109.1,4.550529853424973 109.2,4.5762058631045885 109.3,4.601159236829351 109.4,4.625386034172291 109.5,4.648882429441256 109.6,4.671644712283055 109.7,4.69366928826937 109.8,4.714952679464321 109.9,4.735491524973722 110.0,4.755282581475767 110.1,4.774322723733215 110.2,4.792608945086879 110.3,4.810138357930428 110.4,4.82690819416637 110.5,4.842915805643156 110.6,4.85815866457337 110.7,4.872634363932885 110.8,4.886340617840966 110.9,4.899275261921233 111.0,4.911436253643444 111.1,4.922821672646027 111.2,4.93342972103934 111.3,4.943258723689569 111.4,4.952307128483256 111.5,4.9605735065723895 111.6,4.968056552600041 111.7,4.9747550849065005 111.8,4.980668045715861 111.9,4.98579450130307 112.0,4.990133642141358 112.1,4.993684783030087 112.2,4.996447363202946 112.3,4.9984209464165 112.4,4.99960522101908 112.5,5.0 112.6,4.99960522101908 112.7,4.9984209464165 112.8,4.996447363202946 112.9,4.993684783030087 113.0,4.990133642141358 113.1,4.9857945013030704 113.2,4.980668045715862 113.3,4.9747550849065005 113.4,4.968056552600043 113.5,4.9605735065723895 113.6,4.952307128483257 113.7,4.94325872368957 113.8,4.9334297210393405 113.9,4.922821672646028 114.0,4.911436253643445 114.1,4.899275261921236 114.2,4.8863406178409665 114.3,4.872634363932886 114.4,4.858158664573368 114.5,4.842915805643158 114.6,4.826908194166373 114.7,4.8101383579304295 114.8,4.79260894508688 114.9,4.774322723733214 115.0,4.755282581475766 115.1,4.735491524973726 115.2,4.714952679464323 115.3,4.693669288269373 115.4,4.671644712283061 115.5,4.648882429441255 115.6,4.6253860341722906 115.7,4.6011592368293535 115.8,4.576205863104591 115.9,4.550529853424975 116.0,4.5241352623300966 116.1,4.497026257831856 116.2,4.469207120756321 116.3,4.440682244067727 116.4,4.411456132174764 116.5,4.381533400219318 116.6,4.35091877334763 116.7,4.319617085964181 116.8,4.287633280968267 116.9,4.254972408973458 117.0,4.221639627510076 117.1,4.187640200210711 117.2,4.152979495979063 117.3,4.117662988142144 117.4,4.081696253585919 117.5,4.045084971874739 117.6,4.007834924354387 117.7,3.9699519932391727 117.8,3.9314421606830923 117.9,3.892311507835118 118.0,3.852566213878949 118.1,3.812212555057245 118.2,3.7712569036805155 118.3,3.7297057271209093 118.4,3.687565586790871 118.5,3.6448431371070624 118.6,3.601545124439542 118.7,3.5576783860464243 118.8,3.5132498489942465 118.9,3.468266529064028 119.0,3.4227355296434494 119.1,3.376664040605131 119.2,3.3300593371712566 119.3,3.282928778764784 119.4,3.2352798078472196 119.5,3.1871199487434563 119.6,3.1384568064535134 119.7,3.0892980654516715 119.8,3.03965148847303 119.9,2.9895249152875936 120.0,2.9389262614623752 120.1,2.887863517111344 120.2,2.8363447456337845 120.3,2.784378082440945 120.4,2.731971733671339 120.5,2.679133974894979 120.6,2.625873149806486 120.7,2.5721976689075357 120.8,2.5181160081788105 120.9,2.4636367077414523 121.0,2.4087683705085743 121.1,2.3535196608266644 121.2,2.297899303107444 121.3,2.24191608045017 121.4,2.1855788332546604 121.5,2.1288964578253626 121.6,2.0718779049664238 121.7,2.0145321785683197 121.8,1.9568683341860225 121.9,1.898895477609003 122.0,1.840622763423391 122.1,1.782059393566258 122.2,1.7232146158725938 122.3,1.6640977226149454 122.4,1.6047180490360466 122.5,1.54508497187474 122.6,1.4852079078851812 122.7,1.4250963123498739 122.8,1.364759677586632 122.9,1.3042075314494856 123.0,1.2434494358242785 123.1,1.182494985118632 123.2,1.121353804746901 123.3,1.060035549610272 123.4,0.9985499025720378 123.5,0.9369065729286297 123.6,0.8751152948763906 123.7,0.8131858259744147 123.8,0.7511279456037858 123.9,0.6889514534231946 124.0,0.6266661678215295 124.1,0.5642819243674206 124.2,0.5018085742560728 124.3,0.4392559827537182 124.4,0.37663402763966985 124.5,0.313952597646577 124.6,0.25122159089885293 124.7,0.1884509133496729 124.8,0.1256504772166915 124.9,0.06283019941675332 125.0,1.1943401194869634e-14 125.1,-0.06283019941675608 125.2,-0.1256504772166854 125.3,-0.18845091334966677 125.4,-0.2512215908988557 125.5,-0.3139525976465709 125.6,-0.37663402763965487 125.7,-0.4392559827537121 125.8,-0.5018085742560667 125.9,-0.5642819243674145 126.0,-0.6266661678215235 126.1,-0.6889514534231888 126.2,-0.7511279456037798 126.3,-0.8131858259744086 126.4,-0.8751152948763845 126.5,-0.9369065729286236 126.6,-0.9985499025720317 126.7,-1.060035549610266 126.8,-1.121353804746895 126.9,-1.182494985118626 127.0,-1.2434494358242727 127.1,-1.3042075314494797 127.2,-1.3647596775866175 127.3,-1.4250963123498765 127.4,-1.4852079078851668 127.5,-1.5450849718747426 127.6,-1.604718049036049 127.7,-1.6640977226149312 127.8,-1.7232146158725796 127.9,-1.782059393566261 128.0,-1.8406227634233936 128.1,-1.8988954776090057 128.2,-1.9568683341860085 128.3,-2.0145321785683064 128.4,-2.0718779049664264 128.5,-2.1288964578253653 128.6,-2.185578833254663 128.7,-2.241916080450156 128.8,-2.2978993031074464 128.9,-2.3535196608266666 129.0,-2.4087683705085765 129.1,-2.463636707741455 129.2,-2.518116008178798 129.3,-2.5721976689075374 129.4,-2.625873149806481 129.5,-2.679133974894982 129.6,-2.731971733671341 129.7,-2.7843780824409325 129.8,-2.8363447456337862 129.9,-2.887863517111339 130.0,-2.938926261462363 130.1,-2.9895249152875887 130.2,-3.039651488473018 130.3,-3.0892980654516737 130.4,-3.138456806453502 130.5,-3.1871199487434447 130.6,-3.235279807847215 130.7,-3.2829287787647727 130.8,-3.330059337171259 130.9,-3.37666404060512 131.0,-3.4227355296434387 131.1,-3.468266529064017 131.2,-3.5132498489942354 131.3,-3.557678386046426 131.4,-3.6015451244395313 131.5,-3.6448431371070638 131.6,-3.687565586790873 131.7,-3.7297057271209 131.8,-3.7712569036805177 131.9,-3.812212555057235 132.0,-3.8525662138789505 132.1,-3.8923115078351196 132.2,-3.931442160683094 132.3,-3.969951993239174 132.4,-4.0078349243543885 132.5,-4.045084971874741 132.6,-4.081696253585921 132.7,-4.117662988142136 132.8,-4.15297949597906 132.9,-4.187640200210713 133.0,-4.221639627510077 133.1,-4.254972408973459 133.2,-4.28763328096826 133.3,-4.319617085964182 133.4,-4.350918773347631 133.5,-4.381533400219319 133.6,-4.411456132174766 133.7,-4.4406822440677205 133.8,-4.469207120756323 133.9,-4.497026257831857 134.0,-4.524135262330098 134.1,-4.550529853424977 134.2,-4.576205863104585 134.3,-4.601159236829354 134.4,-4.625386034172291 134.5,-4.648882429441256 134.6,-4.671644712283058 134.7,-4.693669288269367 134.8,-4.714952679464323 134.9,-4.735491524973722 135.0,-4.755282581475767 135.1,-4.774322723733213 135.2,-4.792608945086877 135.3,-4.81013835793043 135.4,-4.826908194166369 135.5,-4.8429158056431545 135.6,-4.858158664573367 135.7,-4.872634363932883 135.8,-4.886340617840967 135.9,-4.899275261921233 136.0,-4.911436253643445 136.1,-4.922821672646025 136.2,-4.933429721039338 136.3,-4.94325872368957 136.4,-4.952307128483255 136.5,-4.96057350657239 136.6,-4.968056552600041 136.7,-4.9747550849065 136.8,-4.980668045715862 136.9,-4.9857945013030704 137.0,-4.990133642141358 137.1,-4.993684783030088 137.2,-4.996447363202946 137.3,-4.9984209464165 137.4,-4.99960522101908 137.5,-5.0 137.6,-4.99960522101908 137.7,-4.9984209464165 137.8,-4.996447363202946 137.9,-4.993684783030087 138.0,-4.990133642141358 138.1,-4.98579450130307 138.2,-4.980668045715863 138.3,-4.9747550849065 138.4,-4.968056552600041 138.5,-4.960573506572389 138.6,-4.952307128483256 138.7,-4.943258723689571 138.8,-4.933429721039339 138.9,-4.922821672646026 139.0,-4.911436253643443 139.1,-4.899275261921235 139.2,-4.886340617840969 139.3,-4.872634363932884 139.4,-4.858158664573369 139.5,-4.842915805643156 139.6,-4.826908194166371 139.7,-4.810138357930432 139.8,-4.792608945086878 139.9,-4.774322723733214 140.0,-4.755282581475769 140.1,-4.735491524973724 140.2,-4.714952679464326 140.3,-4.693669288269369 140.4,-4.671644712283061 140.5,-4.648882429441259 140.6,-4.625386034172293 140.7,-4.601159236829357 140.8,-4.576205863104588 140.9,-4.55052985342498 141.0,-4.524135262330101 141.1,-4.49702625783186 141.2,-4.469207120756326 141.3,-4.440682244067723 141.4,-4.41145613217476 141.5,-4.381533400219314 141.6,-4.350918773347635 141.7,-4.319617085964185 141.8,-4.2876332809682625 141.9,-4.254972408973454 142.0,-4.221639627510071 142.1,-4.187640200210707 142.2,-4.152979495979073 142.3,-4.117662988142129 142.4,-4.081696253585915 142.5,-4.045084971874734 142.6,-4.007834924354382 142.7,-3.969951993239178 142.8,-3.9314421606830874 142.9,-3.892311507835112 143.0,-3.8525662138789443 143.1,-3.8122125550572394 143.2,-3.771256903680522 143.3,-3.7297057271209044 143.4,-3.687565586790866 143.5,-3.6448431371070567 143.6,-3.601545124439536 143.7,-3.5576783860464314 143.8,-3.5132498489942403 143.9,-3.4682665290640218 144.0,-3.4227355296434436 144.1,-3.3766640406051254 144.2,-3.3300593371712637 144.3,-3.2829287787647776 144.4,-3.23527980784722 144.5,-3.18711994874345 144.6,-3.1384568064535068 144.7,-3.0892980654516795 144.8,-3.0396514884730235 144.9,-2.989524915287594 145.0,-2.9389262614623686 145.1,-2.8878635171113443 145.2,-2.836344745633792 145.3,-2.784378082440938 145.4,-2.7319717336713465 145.5,-2.6791339748949876 145.6,-2.6258731498064862 145.7,-2.5721976689075436 145.8,-2.5181160081788034 145.9,-2.4636367077414607 146.0,-2.4087683705085827 146.1,-2.3535196608266724 146.2,-2.2978993031074526 146.3,-2.2419160804501623 146.4,-2.185578833254653 146.5,-2.1288964578253715 146.6,-2.071877904966432 146.7,-2.0145321785683286 146.8,-1.9568683341859985 146.9,-1.8988954776089952 147.0,-1.8406227634233832 147.1,-1.782059393566267 147.2,-1.7232146158726027 147.3,-1.664097722614921 147.4,-1.6047180490360389 147.5,-1.545084971874732 147.6,-1.4852079078851732 147.7,-1.4250963123499003 147.8,-1.3647596775866153 147.9,-1.3042075314494774 148.0,-1.2434494358242705 148.1,-1.1824949851186237 148.2,-1.12135380474691 148.3,-1.060035549610264 148.4,-0.9985499025720296 148.5,-0.9369065729286215 148.6,-0.8751152948763824 148.7,-0.813185825974424 148.8,-0.7511279456037777 148.9,-0.6889514534231865 149.0,-0.6266661678215213 149.1,-0.5642819243674124 149.2,-0.5018085742560823 149.3,-0.43925598275371003 149.4,-0.3766340276396616 149.5,-0.31395259764656874 149.6,-0.2512215908988536 149.7,-0.1884509133496824 149.8,-0.12565047721668327 149.9,-0.06283019941676281 150.0,-3.673940397442059e-15 150.1,0.06283019941675545 150.2,0.12565047721667588 150.3,0.18845091334967506 150.4,0.2512215908988462 150.5,0.31395259764656147 150.6,0.37663402763965426 150.7,0.43925598275370265 150.8,0.5018085742560751 150.9,0.5642819243674051 151.0,0.6266661678215141 151.1,0.6889514534231793 151.2,0.7511279456037703 151.3,0.8131858259744342 151.4,0.8751152948763927 151.5,0.9369065729286142 151.6,0.9985499025720224 151.7,1.0600355496102567 151.8,1.1213538047469203 151.9,1.182494985118634 152.0,1.2434494358242634 152.1,1.3042075314494705 152.2,1.3647596775866084 152.3,1.425096312349893 152.4,1.4852079078851832 152.5,1.545084971874742 152.6,1.6047180490360318 152.7,1.664097722614914 152.8,1.7232146158725958 152.9,1.7820593935662603 153.0,1.840622763423393 153.1,1.898895477609005 153.2,1.9568683341859916 153.3,2.014532178568322 153.4,2.0718779049664255 153.5,2.128896457825365 153.6,2.1855788332546626 153.7,2.2419160804501557 153.8,2.297899303107446 153.9,2.353519660826666 154.0,2.408768370508576 154.1,2.463636707741454 154.2,2.518116008178797 154.3,2.572197668907537 154.4,2.6258731498064805 154.5,2.679133974894982 154.6,2.7319717336713407 154.7,2.784378082440932 154.8,2.836344745633786 154.9,2.887863517111338 155.0,2.9389262614623624 155.1,2.9895249152875882 155.2,3.0396514884730177 155.3,3.0892980654516733 155.4,3.138456806453501 155.5,3.1871199487434443 155.6,3.2352798078472143 155.7,3.282928778764772 155.8,3.3300593371712583 155.9,3.3766640406051196 156.0,3.422735529643438 156.1,3.468266529064017 156.2,3.5132498489942354 156.3,3.5576783860464385 156.4,3.601545124439531 156.5,3.644843137107051 156.6,3.6875655867908606 156.7,3.7297057271208995 156.8,3.771256903680529 156.9,3.812212555057246 157.0,3.852566213878939 157.1,3.8923115078351076 157.2,3.931442160683083 157.3,3.9699519932391847 157.4,4.0078349243543885 157.5,4.04508497187474 157.6,4.0816962535859105 157.7,4.117662988142126 157.8,4.15297949597907 157.9,4.187640200210712 158.0,4.221639627510077 158.1,4.254972408973458 158.2,4.28763328096825 158.3,4.319617085964182 158.4,4.350918773347631 158.5,4.381533400219318 158.6,4.411456132174766 158.7,4.44068224406772 158.8,4.469207120756322 158.9,4.497026257831856 159.0,4.524135262330097 159.1,4.550529853424977 159.2,4.576205863104584 159.3,4.601159236829354 159.4,4.6253860341722906 159.5,4.648882429441256 159.6,4.671644712283058 159.7,4.693669288269367 159.8,4.714952679464323 159.9,4.735491524973721 160.0,4.755282581475766 160.1,4.774322723733213 160.2,4.792608945086876 160.3,4.81013835793043 160.4,4.826908194166369 160.5,4.8429158056431545 160.6,4.858158664573367 160.7,4.872634363932883 160.8,4.886340617840967 160.9,4.899275261921233 161.0,4.911436253643442 161.1,4.922821672646025 161.2,4.933429721039338 161.3,4.94325872368957 161.4,4.952307128483255 161.5,4.960573506572389 161.6,4.96805655260004 161.7,4.9747550849065 161.8,4.980668045715864 161.9,4.985794501303069 162.0,4.990133642141357 162.1,4.993684783030087 162.2,4.996447363202946 162.3,4.9984209464165 162.4,4.99960522101908 162.5,5.0 162.6,4.99960522101908 162.7,4.9984209464165 162.8,4.996447363202946 162.9,4.993684783030087 163.0,4.990133642141359 163.1,4.985794501303071 163.2,4.9806680457158645 163.3,4.9747550849065 163.4,4.968056552600041 163.5,4.960573506572389 163.6,4.952307128483256 163.7,4.943258723689571 163.8,4.933429721039342 163.9,4.922821672646029 164.0,4.911436253643447 164.1,4.899275261921239 164.2,4.886340617840973 164.3,4.872634363932884 164.4,4.858158664573369 164.5,4.842915805643156 164.6,4.826908194166371 164.7,4.810138357930432 164.8,4.792608945086873 164.9,4.77432272373321 165.0,4.755282581475775 165.1,4.73549152497373 165.2,4.714952679464327 165.3,4.69366928826937 165.4,4.6716447122830616 165.5,4.648882429441259 165.6,4.625386034172294 165.7,4.601159236829357 165.8,4.5762058631045806 165.9,4.5505298534249725 166.0,4.524135262330093 166.1,4.497026257831853 166.2,4.469207120756326 166.3,4.440682244067723 166.4,4.411456132174769 166.5,4.381533400219323 166.6,4.350918773347635 166.7,4.319617085964185 166.8,4.287633280968254 166.9,4.254972408973454 167.0,4.221639627510072 167.1,4.187640200210707 167.2,4.152979495979064 167.3,4.11766298814214 167.4,4.081696253585926 167.5,4.045084971874745 167.6,4.007834924354393 167.7,3.969951993239189 167.8,3.931442160683088 167.9,3.892311507835113 168.0,3.8525662138789443 168.1,3.81221255505724 168.2,3.771256903680522 168.3,3.7297057271209164 168.4,3.687565586790878 168.5,3.6448431371070686 168.6,3.6015451244395487 168.7,3.557678386046444 168.8,3.513249848994241 168.9,3.4682665290640227 169.0,3.4227355296434436 169.1,3.376664040605126 169.2,3.3300593371712646 169.3,3.2829287787647914 169.4,3.235279807847234 169.5,3.1871199487434643 169.6,3.1384568064535214 169.7,3.08929806545168 169.8,3.039651488473024 169.9,2.9895249152875945 170.0,2.938926261462369 170.1,2.8878635171113443 170.2,2.8363447456337925 170.3,2.7843780824409237 170.4,2.7319717336713323 170.5,2.679133974895003 170.6,2.6258731498064867 170.7,2.5721976689075445 170.8,2.518116008178804 170.9,2.463636707741461 171.0,2.408768370508583 171.1,2.3535196608266733 171.2,2.297899303107453 171.3,2.241916080450147 171.4,2.1855788332546537 171.5,2.128896457825356 171.6,2.0718779049664167 171.7,2.0145321785683294 171.8,1.9568683341860151 171.9,1.8988954776090126 172.0,1.8406227634234005 172.1,1.7820593935662676 172.2,1.7232146158726034 172.3,1.6640977226149214 172.4,1.6047180490360393 172.5,1.5450849718747328 172.6,1.4852079078851737 172.7,1.4250963123498837 172.8,1.364759677586633 172.9,1.3042075314494952 173.0,1.2434494358242885 173.1,1.1824949851186417 173.2,1.121353804746928 173.3,1.0600355496102645 173.4,0.9985499025720301 173.5,0.936906572928622 173.6,0.8751152948763831 173.7,0.8131858259744247 173.8,0.7511279456037958 173.9,0.6889514534232046 174.0,0.6266661678215396 174.1,0.5642819243674306 174.2,0.5018085742560829 174.3,0.4392559827537106 174.4,0.37663402763966225 174.5,0.31395259764656935 174.6,0.2512215908988542 174.7,0.188450913349683 174.8,0.12565047721666608 174.9,0.06283019941678117 175.0,2.204983219101824e-14 175.1,-0.06283019941675484 175.2,-0.1256504772166753 175.3,-0.18845091334967445 175.4,-0.25122159089884566 175.5,-0.3139525976465608 175.6,-0.3766340276396537 175.7,-0.43925598275370203 175.8,-0.501808574256092 175.9,-0.5642819243674222 176.0,-0.6266661678215134 176.1,-0.6889514534231787 176.2,-0.7511279456037698 176.3,-0.8131858259744162 176.4,-0.8751152948763746 176.5,-0.9369065729286137 176.6,-0.9985499025720218 176.7,-1.060035549610256 176.8,-1.1213538047469198 176.9,-1.1824949851186335 177.0,-1.24344943582428 177.1,-1.304207531449487 177.2,-1.3647596775866078 177.3,-1.4250963123498757 177.4,-1.4852079078851657 177.5,-1.5450849718747244 177.6,-1.6047180490360313 177.7,-1.6640977226149134 177.8,-1.7232146158725952 177.9,-1.7820593935662599 178.0,-1.8406227634233923 178.1,-1.8988954776090043 178.2,-1.9568683341860074 178.3,-2.014532178568305 178.4,-2.071877904966409 178.5,-2.128896457825348 178.6,-2.1855788332546457 178.7,-2.2419160804501552 178.8,-2.2978993031074455 178.9,-2.3535196608266657 179.0,-2.4087683705085756 179.1,-2.4636367077414536 179.2,-2.5181160081787968 179.3,-2.5721976689075214 179.4,-2.6258731498064645 179.5,-2.679133974894966 179.6,-2.7319717336713403 179.7,-2.7843780824409317 179.8,-2.8363447456337854 179.9,-2.8878635171113376 180.0,-2.9389262614623624 180.1,-2.9895249152875873 180.2,-3.0396514884730177 180.3,-3.089298065451687 180.4,-3.138456806453487 180.5,-3.187119948743444 180.6,-3.235279807847214 180.7,-3.2829287787647714 180.8,-3.330059337171258 180.9,-3.376664040605119 181.0,-3.4227355296434374 181.1,-3.4682665290640164 181.2,-3.513249848994235 181.3,-3.5576783860464376 181.4,-3.6015451244395424 181.5,-3.6448431371070633 181.6,-3.68756558679086 181.7,-3.7297057271208987 181.8,-3.7712569036805164 181.9,-3.8122125550572346 182.0,-3.8525662138789385 182.1,-3.892311507835107 182.2,-3.9314421606830825 182.3,-3.9699519932391842 182.4,-4.007834924354388 182.5,-4.04508497187474 182.6,-4.08169625358592 182.7,-4.117662988142135 182.8,-4.152979495979059 182.9,-4.187640200210702 183.0,-4.221639627510067 183.1,-4.254972408973449 183.2,-4.287633280968259 183.3,-4.319617085964181 183.4,-4.35091877334763 183.5,-4.381533400219318 183.6,-4.411456132174765 183.7,-4.44068224406772 183.8,-4.469207120756314 183.9,-4.497026257831848 184.0,-4.5241352623300894 184.1,-4.550529853424977 184.2,-4.576205863104584 184.3,-4.6011592368293535 184.4,-4.6253860341722906 184.5,-4.648882429441256 184.6,-4.671644712283058 184.7,-4.693669288269367 184.8,-4.714952679464318 184.9,-4.735491524973716 185.0,-4.755282581475766 185.1,-4.774322723733213 185.2,-4.792608945086876 185.3,-4.8101383579304295 185.4,-4.826908194166369 185.5,-4.8429158056431545 185.6,-4.858158664573367 185.7,-4.872634363932883 185.8,-4.886340617840971 185.9,-4.899275261921233 186.0,-4.911436253643442 186.1,-4.922821672646025 186.2,-4.933429721039338 186.3,-4.94325872368957 186.4,-4.952307128483255 186.5,-4.960573506572388 186.6,-4.96805655260004 186.7,-4.9747550849065 186.8,-4.980668045715864 186.9,-4.9857945013030704 187.0,-4.990133642141358 187.1,-4.993684783030087 187.2,-4.996447363202946 187.3,-4.9984209464165 187.4,-4.99960522101908 187.5,-5.0 187.6,-4.99960522101908 187.7,-4.9984209464165 187.8,-4.996447363202946 187.9,-4.993684783030087 188.0,-4.990133642141358 188.1,-4.98579450130307 188.2,-4.980668045715863 188.3,-4.974755084906502 188.4,-4.968056552600044 188.5,-4.960573506572391 188.6,-4.952307128483256 188.7,-4.943258723689571 188.8,-4.933429721039339 188.9,-4.922821672646027 189.0,-4.911436253643443 189.1,-4.899275261921235 189.2,-4.886340617840969 189.3,-4.872634363932889 189.4,-4.858158664573374 189.5,-4.842915805643156 189.6,-4.826908194166371 189.7,-4.810138357930432 189.8,-4.7926089450868785 189.9,-4.774322723733214 190.0,-4.755282581475769 190.1,-4.735491524973724 190.2,-4.714952679464327 190.3,-4.693669288269376 190.4,-4.6716447122830616 190.5,-4.64888242944126 190.6,-4.625386034172294 190.7,-4.601159236829357 190.8,-4.5762058631045885 190.9,-4.55052985342498 191.0,-4.524135262330101 191.1,-4.497026257831861 191.2,-4.469207120756326 191.3,-4.440682244067716 191.4,-4.411456132174761 191.5,-4.381533400219323 191.6,-4.350918773347635 191.7,-4.319617085964186 191.8,-4.287633280968263 191.9,-4.2549724089734635 192.0,-4.221639627510082 192.1,-4.187640200210717 192.2,-4.152979495979064 192.3,-4.11766298814213 192.4,-4.081696253585915 192.5,-4.045084971874735 192.6,-4.007834924354393 192.7,-3.9699519932391896 192.8,-3.931442160683099 192.9,-3.8923115078351245 193.0,-3.8525662138789563 193.1,-3.8122125550572408 193.2,-3.7712569036805226 193.3,-3.729705727120905 193.4,-3.6875655867908663 193.5,-3.644843137107057 193.6,-3.6015451244395367 193.7,-3.557678386046432 193.8,-3.5132498489942536 193.9,-3.468266529064036 194.0,-3.422735529643444 194.1,-3.3766640406051263 194.2,-3.330059337171265 194.3,-3.282928778764779 194.4,-3.2352798078472214 194.5,-3.187119948743451 194.6,-3.138456806453508 194.7,-3.08929806545168 194.8,-3.0396514884730386 194.9,-2.9895249152875953 195.0,-2.9389262614623695 195.1,-2.8878635171113447 195.2,-2.8363447456337925 195.3,-2.784378082440939 195.4,-2.731971733671348 195.5,-2.679133974894989 195.6,-2.6258731498064876 195.7,-2.572197668907545 195.8,-2.5181160081788043 195.9,-2.4636367077414616 196.0,-2.408768370508584 196.1,-2.3535196608266737 196.2,-2.297899303107454 196.3,-2.241916080450163 196.4,-2.18557883325467 196.5,-2.1288964578253724 196.6,-2.0718779049664335 196.7,-2.0145321785683135 196.8,-1.9568683341859996 196.9,-1.8988954776089964 197.0,-1.840622763423401 197.1,-1.7820593935662683 197.2,-1.7232146158726038 197.3,-1.6640977226149387 197.4,-1.6047180490360569 197.5,-1.5450849718747504 197.6,-1.4852079078851743 197.7,-1.425096312349884 197.8,-1.3647596775866164 197.9,-1.3042075314494785 198.0,-1.2434494358242718 198.1,-1.182494985118625 198.2,-1.1213538047469287 198.3,-1.0600355496102825 198.4,-0.9985499025720481 198.5,-0.9369065729286228 198.6,-0.8751152948763836 198.7,-0.8131858259744252 198.8,-0.7511279456037788 198.9,-0.6889514534231878 199.0,-0.6266661678215225 199.1,-0.5642819243674136 199.2,-0.5018085742560836 199.3,-0.4392559827537289 199.4,-0.37663402763966286 199.5,-0.31395259764657 199.6,-0.25122159089885476 199.7,-0.1884509133496836 199.8,-0.12565047721668446 199.9,-0.06283019941676403 200.0,-4.898587196589413e-15" stroke-width="1" stroke-linecap="round" stroke="#000000" fill="none"  />
<!-- Footer -->
</svg>
