<!-- Header -->
<svg
    version="1.1"
    baseProfile="full"
    xmlns="http://www.w3.org/2000/svg"
    xmlns:xlink="http://www.w3.org/1999/xlink"
    xmlns:ev="http://www.w3.org/2001/xml-events"
    width="410.0"
    height="20.0"
    viewBox="-5.0 -10.0 410.0 20.0"
    preserveAspectRatio="none"
>
<!-- Body -->
<!-- polyline -->
<polyline points="0.0,0.0 0.1,0.039269504443556674 0.2,0.07853658655910338 0.3,0.11779882416805075 0.4,0.15705379539064146 0.5,0.19629907879534306 0.6,0.23553225354821328 0.7,0.2747508995622287 0.8,0.31395259764656686 0.9,0.35313492965583343 1.0,0.3922954786392247 1.1,0.4314318289896169 1.2,0.47054156659257157 1.3,0.5096222789752501 1.4,0.5486715554552263 1.5,0.5876869872891882 1.6,0.6266661678215213 1.7,0.6656066926327617 1.8,0.7045061596879133 1.9,0.7433621694846149 2.0,0.7821723252011543 2.1,0.8209342328443148 2.2,0.8596455013970478 2.3,0.8983037429659626 2.4,0.936906572928623 2.5,0.9754516100806412 2.6,1.0139364767825625 2.7,1.0523587991065282 2.8,1.0907162069827125 2.9,1.1290063343455183 3.0,1.167226819279527 3.1,1.2053753041651931 3.2,1.243449435824274 3.3,1.2814468656649833 3.4,1.3193652498268644 3.5,1.3572022493253713 3.6,1.3949555301961465 3.7,1.4326227636389914 3.8,1.4702016261615198 3.9,1.5076897997224783 4.0,1.545084971874737 4.1,1.5823848359079304 4.2,1.619587090990747 4.3,1.656689442312855 4.4,1.693689601226457 4.5,1.7305852853874648 4.6,1.7673742188962853 4.7,1.804054132438209 4.8,1.8406227634233896 4.9,1.8770778561264154 5.0,1.913417161825449 5.1,1.9496384389409411 5.2,1.985739453173903 5.3,2.021717977643725 5.4,2.0575717930255437 5.5,2.0932986876871404 5.6,2.128896457825363 5.7,2.1643629076020696 5.8,2.1996958492795753 5.9,2.234893103355606 6.0,2.2699524986977337 6.1,2.3048718726773116 6.2,2.339649071302867 6.3,2.3742819493529725 6.4,2.4087683705085765 6.5,2.4431062074847745 6.6,2.477293342162038 6.7,2.5113276657168626 6.8,2.5452070787518566 6.9,2.5789294914252374 7.0,2.612492823579744 7.1,2.645895004870953 7.2,2.679133974894983 7.3,2.7122076833155933 7.4,2.745114089990659 7.5,2.7778511650980104 7.6,2.8104168892606527 7.7,2.8428092536713194 7.8,2.875026260216393 7.9,2.907065921599153 8.0,2.938926261462366 8.1,2.9706053145101925 8.2,3.0021011266294195 8.3,3.033411755009998 8.4,3.0645352682648825 8.5,3.0954697465491705 8.6,3.1262132816785257 8.7,3.156763977246888 8.8,3.1871199487434487 8.9,3.217279323668895 9.0,3.2472402416509185 9.1,3.277000854558969 9.2,3.306559326618259 9.3,3.335913834522999 9.4,3.3650625675488666 9.5,3.3940037276647086 9.6,3.422735529643443 9.7,3.4512562011721855 9.8,3.4795639829615723 9.9,3.5076571288542784 10.0,3.5355339059327373 10.1,3.5631925946260266 10.2,3.5906314888159434 10.3,3.617848895942247 10.4,3.644843137107058 10.5,3.6716125471784276 10.6,3.698155474893048 10.7,3.72447028295811 10.8,3.7505553481522975 10.9,3.7764090614259183 11.0,3.8020298280001548 11.1,3.8274160674654407 11.2,3.8525662138789456 11.3,3.877478715861172 11.4,3.9021520366916485 11.5,3.926584654403724 11.6,3.9507750618784514 11.7,3.97472176693755 11.8,3.998423292435453 11.9,4.021878176350422 12.0,4.045084971874737 12.1,4.068042247503935 12.2,4.090748587125117 12.3,4.113202590104299 12.4,4.1354028713728095 12.5,4.157348061512726 12.6,4.179036806841351 12.7,4.2004677694947095 12.8,4.221639627510076 12.9,4.242551074907518 13.0,4.263200821770461 13.1,4.2835875943252475 13.2,4.303710135019719 13.3,4.323567202600775 13.4,4.3431575721909566 13.5,4.362480035363985 13.6,4.381533400219318 13.7,4.400316491455659 13.8,4.418828150443467 13.9,4.437067235296416 14.0,4.455032620941839 14.1,4.472723199190126 14.2,4.490137878803077 14.3,4.507275585561229 14.4,4.524135262330098 14.5,4.540715869125406 14.6,4.557016383177226 14.7,4.573035798993067 14.8,4.588773128419906 14.9,4.604227400705131 15.0,4.619397662556433 15.1,4.634282978200604 15.2,4.648882429441256 15.3,4.663195115715471 15.4,4.677220154149336 15.5,4.6909566796124205 15.6,4.704403844771127 15.7,4.717560820140967 15.8,4.730426794137727 15.9,4.743000973127523 16.0,4.755282581475767 16.1,4.767270861595007 16.2,4.7789650739916505 16.3,4.790364497311596 16.4,4.801468428384715 16.5,4.812276182268237 16.6,4.822787092288991 16.7,4.833000510084537 16.8,4.842915805643155 16.9,4.852532367342712 17.0,4.861849601988383 17.1,4.870866934849246 17.2,4.879583809693737 17.3,4.887999688823953 17.4,4.896114053108828 17.5,4.903926402016152 17.6,4.911436253643443 17.7,4.918643144747679 17.8,4.92554663077387 17.9,4.932146285882477 18.0,4.938441702975689 18.1,4.944432493722523 18.2,4.950118288582788 18.3,4.955498736829874 18.4,4.960573506572389 18.5,4.965342284774631 18.6,4.969804777275899 18.7,4.973960708808632 18.8,4.9778098230154 18.9,4.981351882464706 19.0,4.9845866686656395 19.1,4.987513982081351 19.2,4.990133642141358 19.3,4.99244548725269 19.4,4.99444937480985 19.5,4.996145181203614 19.6,4.997532801828658 19.7,4.998612151090002 19.8,4.999383162408303 19.9,4.999845788223948 20.0,5.0 20.1,4.999845788223948 20.2,4.999383162408303 20.3,4.998612151090002 20.4,4.997532801828658 20.5,4.996145181203614 20.6,4.994449374809849 20.7,4.99244548725269 20.8,4.990133642141358 20.9,4.98751398208135 21.0,4.9845866686656395 21.1,4.981351882464706 21.2,4.9778098230154 21.3,4.973960708808632 21.4,4.969804777275899 21.5,4.965342284774631 21.6,4.9605735065723895 21.7,4.955498736829874 21.8,4.950118288582788 21.9,4.944432493722523 22.0,4.938441702975689 22.1,4.932146285882477 22.2,4.92554663077387 22.3,4.91864314474768 22.4,4.911436253643443 22.5,4.903926402016152 22.6,4.896114053108828 22.7,4.887999688823953 22.8,4.879583809693737 22.9,4.870866934849246 23.0,4.861849601988383 23.1,4.852532367342713 23.2,4.842915805643156 23.3,4.833000510084537 23.4,4.822787092288991 23.5,4.812276182268237 23.6,4.801468428384715 23.7,4.790364497311596 23.8,4.7789650739916505 23.9,4.767270861595007 24.0,4.755282581475768 24.1,4.743000973127524 24.2,4.730426794137727 24.3,4.717560820140968 24.4,4.704403844771128 24.5,4.6909566796124205 24.6,4.677220154149336 24.7,4.663195115715471 24.8,4.648882429441257 24.9,4.634282978200604 25.0,4.619397662556434 25.1,4.604227400705131 25.2,4.5887731284199065 25.3,4.573035798993067 25.4,4.557016383177227 25.5,4.540715869125406 25.6,4.524135262330097 25.7,4.50727558556123 25.8,4.490137878803078 25.9,4.472723199190127 26.0,4.455032620941839 26.1,4.437067235296415 26.2,4.418828150443467 26.3,4.40031649145566 26.4,4.381533400219317 26.5,4.362480035363985 26.6,4.343157572190957 26.7,4.323567202600777 26.8,4.303710135019719 26.9,4.283587594325248 27.0,4.263200821770462 27.1,4.242551074907518 27.2,4.221639627510076 27.3,4.2004677694947095 27.4,4.179036806841352 27.5,4.157348061512726 27.6,4.135402871372809 27.7,4.1132025901043 27.8,4.090748587125117 27.9,4.068042247503935 28.0,4.045084971874737 28.1,4.021878176350423 28.2,3.9984232924354517 28.3,3.9747217669375496 28.4,3.9507750618784527 28.5,3.926584654403726 28.6,3.9021520366916485 28.7,3.877478715861172 28.8,3.852566213878946 28.9,3.8274160674654407 29.0,3.8020298280001548 29.1,3.776409061425917 29.2,3.750555348152298 29.3,3.7244702829581113 29.4,3.6981554748930496 29.5,3.671612547178429 29.6,3.644843137107057 29.7,3.6178488959422466 29.8,3.5906314888159443 29.9,3.563192594626029 30.0,3.5355339059327395 30.1,3.5076571288542775 30.2,3.4795639829615723 30.3,3.4512562011721863 30.4,3.422735529643444 30.5,3.3940037276647086 30.6,3.3650625675488666 30.7,3.3359138345229984 30.8,3.306559326618259 30.9,3.2770008545589713 31.0,3.247240241650919 31.1,3.2172793236688952 31.2,3.187119948743449 31.3,3.1567639772468894 31.4,3.126213281678527 31.5,3.095469746549169 31.6,3.0645352682648817 31.7,3.03341175501 31.8,3.002101126629422 31.9,2.970605314510193 32.0,2.9389262614623664 32.1,2.907065921599152 32.2,2.8750262602163916 32.3,2.8428092536713208 32.4,2.810416889260654 32.5,2.777851165098011 32.6,2.7451140899906585 32.7,2.7122076833155937 32.8,2.679133974894985 32.9,2.6458950048709533 33.0,2.6124928235797427 33.1,2.578929491425236 33.2,2.545207078751857 33.3,2.5113276657168635 33.4,2.477293342162037 33.5,2.4431062074847745 33.6,2.408768370508576 33.7,2.374281949352973 33.8,2.339649071302869 33.9,2.304871872677314 34.0,2.2699524986977324 34.1,2.2348931033556063 34.2,2.1996958492795766 34.3,2.1643629076020727 34.4,2.1288964578253626 34.5,2.09329868768714 34.6,2.0575717930255437 34.7,2.021717977643725 34.8,1.9857394531739052 34.9,1.9496384389409416 35.0,1.9134171618254494 35.1,1.8770778561264159 35.2,1.8406227634233887 35.3,1.80405413243821 35.4,1.7673742188962869 35.5,1.7305852853874644 35.6,1.6936896012264566 35.7,1.6566894423128529 35.8,1.6195870909907473 35.9,1.5823848359079309 36.0,1.5450849718747375 36.1,1.507689799722477 36.2,1.4702016261615185 36.3,1.4326227636389928 36.4,1.3949555301961478 36.5,1.357202249325373 36.6,1.3193652498268622 36.7,1.281446865664981 36.8,1.2434494358242763 36.9,1.2053753041651936 37.0,1.1672268192795254 37.1,1.129006334345517 37.2,1.0907162069827117 37.3,1.0523587991065295 37.4,1.0139364767825638 37.5,0.9754516100806431 37.6,0.9369065729286229 37.7,0.8983037429659626 37.8,0.8596455013970501 37.9,0.8209342328443172 38.0,0.7821723252011549 38.1,0.7433621694846136 38.2,0.7045061596879121 38.3,0.6656066926327653 38.4,0.6266661678215226 38.5,0.5876869872891878 38.6,0.5486715554552261 38.7,0.5096222789752501 38.8,0.47054156659257396 38.9,0.4314318289896173 39.0,0.3922954786392253 39.1,0.3531349296558342 39.2,0.3139525976465657 39.3,0.27475089956223225 39.4,0.235532253548217 39.5,0.19629907879534253 39.6,0.15705379539064118 39.7,0.11779882416804849 39.8,0.07853658655910355 39.9,0.03926950444355706 40.0,6.123233995736766e-16 40.1,-0.03926950444355583 40.2,-0.07853658655910231 40.3,-0.11779882416804727 40.4,-0.15705379539063996 40.5,-0.1962990787953413 40.6,-0.23553225354821578 40.7,-0.274750899562231 40.8,-0.3139525976465645 40.9,-0.35313492965583304 41.0,-0.3922954786392219 41.1,-0.431431828989616 41.2,-0.47054156659257496 41.3,-0.5096222789752489 41.4,-0.5486715554552248 41.5,-0.5876869872891909 41.6,-0.6266661678215214 41.7,-0.6656066926327641 41.8,-0.7045061596879131 41.9,-0.7433621694846124 42.0,-0.7821723252011537 42.1,-0.8209342328443117 42.2,-0.8596455013970489 42.3,-0.8983037429659614 42.4,-0.9369065729286195 42.5,-0.9754516100806419 42.6,-1.0139364767825647 42.7,-1.0523587991065284 42.8,-1.0907162069827103 42.9,-1.129006334345518 43.0,-1.1672268192795243 43.1,-1.2053753041651947 43.2,-1.243449435824273 43.3,-1.2814468656649796 43.4,-1.319365249826865 43.5,-1.3572022493253697 43.6,-1.3949555301961465 43.7,-1.4326227636389937 43.8,-1.4702016261615176 43.9,-1.5076897997224759 44.0,-1.5450849718747364 44.1,-1.5823848359079296 44.2,-1.6195870909907504 44.3,-1.6566894423128513 44.4,-1.6936896012264555 44.5,-1.7305852853874653 44.6,-1.7673742188962838 44.7,-1.804054132438209 44.8,-1.8406227634233874 44.9,-1.8770778561264148 45.0,-1.9134171618254483 45.1,-1.9496384389409385 45.2,-1.9857394531739039 45.3,-2.021717977643724 45.4,-2.0575717930255424 45.5,-2.0932986876871387 45.6,-2.1288964578253635 45.7,-2.164362907602068 45.8,-2.1996958492795753 45.9,-2.2348931033556054 46.0,-2.269952498697731 46.1,-2.304871872677313 46.2,-2.339649071302866 46.3,-2.3742819493529717 46.4,-2.408768370508575 46.5,-2.443106207484773 46.6,-2.477293342162036 46.7,-2.5113276657168644 46.8,-2.5452070787518544 46.9,-2.5789294914252348 47.0,-2.6124928235797458 47.1,-2.6458950048709524 47.2,-2.6791339748949836 47.3,-2.712207683315593 47.4,-2.745114089990657 47.5,-2.77785116509801 47.6,-2.8104168892606527 47.7,-2.8428092536713194 47.8,-2.8750262602163907 47.9,-2.9070659215991506 48.0,-2.938926261462365 48.1,-2.9706053145101934 48.2,-3.0021011266294195 48.3,-3.033411755009997 48.4,-3.064535268264881 48.5,-3.0954697465491705 48.6,-3.1262132816785257 48.7,-3.1567639772468867 48.8,-3.1871199487434465 48.9,-3.217279323668895 49.0,-3.2472402416509176 49.1,-3.277000854558969 49.2,-3.3065593266182605 49.3,-3.3359138345229953 49.4,-3.365062567548867 49.5,-3.394003727664709 49.6,-3.422735529643442 49.7,-3.4512562011721872 49.8,-3.4795639829615714 49.9,-3.5076571288542784 50.0,-3.5355339059327373 50.1,-3.563192594626026 50.2,-3.5906314888159434 50.3,-3.617848895942247 50.4,-3.6448431371070567 50.5,-3.6716125471784267 50.6,-3.69815547489305 50.7,-3.72447028295811 50.8,-3.7505553481522975 50.9,-3.776409061425918 51.0,-3.8020298280001557 51.1,-3.82741606746544 51.2,-3.852566213878947 51.3,-3.877478715861171 51.4,-3.9021520366916462 51.5,-3.9265846544037237 51.6,-3.950775061878452 51.7,-3.974721766937552 51.8,-3.9984232924354495 51.9,-4.021878176350423 52.0,-4.045084971874736 52.1,-4.068042247503936 52.2,-4.09074858712512 52.3,-4.113202590104297 52.4,-4.135402871372808 52.5,-4.157348061512726 52.6,-4.17903680684135 52.7,-4.2004677694947095 52.8,-4.2216396275100765 52.9,-4.242551074907518 53.0,-4.263200821770462 53.1,-4.2835875943252475 53.2,-4.303710135019717 53.3,-4.323567202600774 53.4,-4.343157572190954 53.5,-4.362480035363985 53.6,-4.381533400219318 53.7,-4.400316491455661 53.8,-4.418828150443467 53.9,-4.437067235296417 54.0,-4.455032620941839 54.1,-4.472723199190124 54.2,-4.490137878803077 54.3,-4.507275585561227 54.4,-4.5241352623300966 54.5,-4.540715869125405 54.6,-4.557016383177227 54.7,-4.573035798993067 54.8,-4.588773128419905 54.9,-4.604227400705131 55.0,-4.619397662556432 55.1,-4.634282978200604 55.2,-4.648882429441257 55.3,-4.66319511571547 55.4,-4.677220154149335 55.5,-4.690956679612421 55.6,-4.704403844771127 55.7,-4.717560820140968 55.8,-4.730426794137727 55.9,-4.743000973127522 56.0,-4.755282581475767 56.1,-4.767270861595007 56.2,-4.77896507399165 56.3,-4.790364497311595 56.4,-4.801468428384716 56.5,-4.812276182268237 56.6,-4.822787092288991 56.7,-4.833000510084537 56.8,-4.8429158056431545 56.9,-4.852532367342713 57.0,-4.861849601988382 57.1,-4.870866934849246 57.2,-4.879583809693737 57.3,-4.887999688823952 57.4,-4.896114053108828 57.5,-4.903926402016153 57.6,-4.911436253643443 57.7,-4.918643144747679 57.8,-4.925546630773869 57.9,-4.932146285882477 58.0,-4.938441702975688 58.1,-4.944432493722522 58.2,-4.950118288582789 58.3,-4.955498736829874 58.4,-4.960573506572389 58.5,-4.965342284774631 58.6,-4.969804777275898 58.7,-4.973960708808632 58.8,-4.9778098230154 58.9,-4.981351882464706 59.0,-4.9845866686656395 59.1,-4.987513982081351 59.2,-4.990133642141358 59.3,-4.99244548725269 59.4,-4.99444937480985 59.5,-4.996145181203614 59.6,-4.997532801828658 59.7,-4.998612151090002 59.8,-4.999383162408303 59.9,-4.999845788223948 60.0,-5.0 60.1,-4.999845788223948 60.2,-4.999383162408303 60.3,-4.998612151090002 60.4,-4.997532801828658 60.5,-4.996145181203614 60.6,-4.99444937480985 60.7,-4.99244548725269 60.8,-4.990133642141358 60.9,-4.987513982081351 61.0,-4.9845866686656395 61.1,-4.981351882464706 61.2,-4.9778098230154 61.3,-4.973960708808632 61.4,-4.969804777275899 61.5,-4.965342284774631 61.6,-4.9605735065723895 61.7,-4.955498736829874 61.8,-4.950118288582789 61.9,-4.944432493722522 62.0,-4.938441702975689 62.1,-4.932146285882477 62.2,-4.92554663077387 62.3,-4.918643144747679 62.4,-4.911436253643443 62.5,-4.903926402016153 62.6,-4.896114053108829 62.7,-4.887999688823952 62.8,-4.879583809693738 62.9,-4.870866934849246 63.0,-4.861849601988383 63.1,-4.852532367342713 63.2,-4.842915805643155 63.3,-4.833000510084537 63.4,-4.8227870922889915 63.5,-4.812276182268237 63.6,-4.801468428384716 63.7,-4.790364497311597 63.8,-4.7789650739916505 63.9,-4.767270861595007 64.0,-4.755282581475768 64.1,-4.743000973127523 64.2,-4.730426794137726 64.3,-4.717560820140967 64.4,-4.704403844771127 64.5,-4.6909566796124205 64.6,-4.677220154149337 64.7,-4.663195115715471 64.8,-4.648882429441258 64.9,-4.634282978200605 65.0,-4.619397662556433 65.1,-4.604227400705134 65.2,-4.588773128419906 65.3,-4.573035798993069 65.4,-4.557016383177226 65.5,-4.540715869125408 65.6,-4.524135262330099 65.7,-4.50727558556123 65.8,-4.490137878803078 65.9,-4.472723199190125 66.0,-4.455032620941838 66.1,-4.437067235296416 66.2,-4.418828150443465 66.3,-4.400316491455659 66.4,-4.381533400219319 66.5,-4.362480035363985 66.6,-4.343157572190957 66.7,-4.323567202600776 66.8,-4.303710135019717 66.9,-4.283587594325247 67.0,-4.26320082177046 67.1,-4.242551074907519 67.2,-4.221639627510075 67.3,-4.20046776949471 67.4,-4.179036806841351 67.5,-4.157348061512727 67.6,-4.135402871372811 67.7,-4.113202590104298 67.8,-4.09074858712512 67.9,-4.068042247503934 68.0,-4.045084971874735 68.1,-4.021878176350425 68.2,-3.9984232924354535 68.3,-3.9747217669375527 68.4,-3.950775061878453 68.5,-3.9265846544037246 68.6,-3.902152036691653 68.7,-3.8774787158611694 68.8,-3.852566213878945 68.9,-3.8274160674654385 69.0,-3.802029828000154 69.1,-3.7764090614259187 69.2,-3.7505553481522975 69.3,-3.7244702829581118 69.4,-3.6981554748930483 69.5,-3.6716125471784262 69.6,-3.6448431371070606 69.7,-3.6178488959422457 69.8,-3.5906314888159447 69.9,-3.563192594626026 70.0,-3.5355339059327386 70.1,-3.507657128854281 70.2,-3.4795639829615728 70.3,-3.4512562011721886 70.4,-3.4227355296434414 70.5,-3.3940037276647117 70.6,-3.365062567548869 70.7,-3.3359138345229953 70.8,-3.3065593266182614 70.9,-3.2770008545589704 71.0,-3.247240241650917 71.1,-3.2172793236688992 71.2,-3.1871199487434483 71.3,-3.1567639772468863 71.4,-3.126213281678522 71.5,-3.0954697465491683 71.6,-3.0645352682648825 71.7,-3.033411755009997 71.8,-3.0021011266294204 71.9,-2.970605314510191 72.0,-2.938926261462367 72.1,-2.9070659215991554 72.2,-2.8750262602163907 72.3,-2.842809253671323 72.4,-2.810416889260651 72.5,-2.777851165098011 72.6,-2.7451140899906608 72.7,-2.7122076833155937 72.8,-2.6791339748949854 72.9,-2.6458950048709537 73.0,-2.612492823579747 73.1,-2.578929491425242 73.2,-2.545207078751852 73.3,-2.5113276657168644 73.4,-2.4772933421620333 73.5,-2.4431062074847727 73.6,-2.4087683705085805 73.7,-2.3742819493529717 73.8,-2.3396490713028677 73.9,-2.3048718726773108 74.0,-2.269952498697731 74.1,-2.234893103355609 74.2,-2.199695849279573 74.3,-2.164362907602069 74.4,-2.128896457825361 74.5,-2.0932986876871404 74.6,-2.057571793025546 74.7,-2.0217179776437257 74.8,-1.9857394531739059 74.9,-1.9496384389409382 75.0,-1.913417161825452 75.1,-1.8770778561264168 75.2,-1.8406227634233894 75.3,-1.8040541324382107 75.4,-1.7673742188962853 75.5,-1.730585285387467 75.6,-1.6936896012264613 75.7,-1.6566894423128533 75.8,-1.619587090990752 75.9,-1.5823848359079251 76.0,-1.5450849718747381 76.1,-1.507689799722486 76.2,-1.470201626161517 76.3,-1.4326227636389954 76.4,-1.3949555301961438 76.5,-1.3572022493253713 76.6,-1.3193652498268713 76.7,-1.2814468656649793 76.8,-1.2434494358242767 76.9,-1.20537530416519 77.0,-1.1672268192795259 77.1,-1.1290063343455197 77.2,-1.090716206982712 77.3,-1.0523587991065302 77.4,-1.0139364767825623 77.5,-0.9754516100806436 77.6,-0.9369065729286279 77.7,-0.8983037429659655 77.8,-0.8596455013970484 77.9,-0.8209342328443135 78.0,-0.7821723252011556 78.1,-0.7433621694846186 78.2,-0.704506159687915 78.3,-0.6656066926327658 78.4,-0.626666167821519 78.5,-0.5876869872891928 78.6,-0.5486715554552333 78.7,-0.5096222789752463 78.8,-0.47054156659257895 78.9,-0.43143182898961346 79.0,-0.39229547863922376 79.1,-0.35313492965583926 79.2,-0.3139525976465663 79.3,-0.2747508995622306 79.4,-0.23553225354820875 79.5,-0.19629907879534536 79.6,-0.1570537953906418 79.7,-0.1177988241680491 79.8,-0.07853658655910416 79.9,-0.039269504443555446 80.0,-1.2246467991473533e-15 80.1,0.039269504443553004 80.2,0.07853658655910171 80.3,0.11779882416804666 80.4,0.15705379539063935 80.5,0.19629907879534292 80.6,0.2355322535482063 80.7,0.2747508995622282 80.8,0.3139525976465639 80.9,0.3531349296558368 81.0,0.39229547863922126 81.1,0.431431828989611 81.2,0.47054156659257657 81.3,0.5096222789752438 81.4,0.5486715554552308 81.5,0.5876869872891815 81.6,0.6266661678215164 81.7,0.6656066926327635 81.8,0.7045061596879125 81.9,0.7433621694846118 82.0,0.7821723252011487 82.1,0.8209342328443068 82.2,0.8596455013970461 82.3,0.898303742965963 82.4,0.9369065729286298 82.5,0.9754516100806367 82.6,1.0139364767825598 82.7,1.0523587991065277 82.8,1.0907162069827097 82.9,1.1290063343455217 83.0,1.1672268192795323 83.1,1.2053753041651876 83.2,1.2434494358242745 83.3,1.281446865664977 83.4,1.3193652498268689 83.5,1.3572022493253733 83.6,1.3949555301961458 83.7,1.4326227636389888 83.8,1.4702016261615147 83.9,1.5076897997224836 84.0,1.545084971874736 84.1,1.582384835907931 84.2,1.6195870909907413 84.3,1.6566894423128509 84.4,1.693689601226459 84.5,1.7305852853874648 84.6,1.767374218896283 84.7,1.8040541324382042 84.8,1.840622763423383 84.9,1.8770778561264143 85.0,1.9134171618254499 85.1,1.949638438940936 85.2,1.9857394531739074 85.3,2.021717977643723 85.4,2.0575717930255437 85.5,2.0932986876871382 85.6,2.128896457825359 85.7,2.164362907602075 85.8,2.199695849279575 85.9,2.2348931033556068 86.0,2.269952498697729 86.1,2.3048718726773085 86.2,2.339649071302869 86.3,2.374281949352973 86.4,2.4087683705085743 86.5,2.4431062074847705 86.6,2.4772933421620316 86.7,2.511327665716862 86.8,2.545207078751858 86.9,2.5789294914252325 87.0,2.6124928235797413 87.1,2.645895004870952 87.2,2.679133974894983 87.3,2.7122076833155924 87.4,2.745114089990662 87.5,2.7778511650980056 87.6,2.810416889260649 87.7,2.842809253671321 87.8,2.8750262602163885 87.9,2.907065921599157 88.0,2.9389262614623646 88.1,2.9706053145101894 88.2,3.002101126629419 88.3,3.033411755009995 88.4,3.064535268264888 88.5,3.0954697465491696 88.6,3.1262132816785204 88.7,3.156763977246885 88.8,3.187119948743446 88.9,3.2172793236688975 89.0,3.247240241650919 89.1,3.2770008545589686 89.2,3.3065593266182565 89.3,3.3359138345229935 89.4,3.3650625675488666 89.5,3.39400372766471 89.6,3.4227355296434396 89.7,3.4512562011721837 89.8,3.479563982961571 89.9,3.5076571288542797 90.0,3.535533905932737 90.1,3.563192594626025 90.2,3.59063148881594 90.3,3.617848895942244 90.4,3.6448431371070593 90.5,3.6716125471784244 90.6,3.6981554748930465 90.7,3.7244702829581127 90.8,3.7505553481522957 90.9,3.776409061425917 91.0,3.8020298280001525 91.1,3.8274160674654367 91.2,3.852566213878946 91.3,3.877478715861174 91.4,3.902152036691646 91.5,3.9265846544037233 91.6,3.9507750618784514 91.7,3.9747217669375514 91.8,3.9984232924354526 91.9,4.0218781763504206 92.0,4.045084971874734 92.1,4.068042247503933 92.2,4.090748587125119 92.3,4.113202590104297 92.4,4.135402871372808 92.5,4.157348061512726 92.6,4.179036806841349 92.7,4.2004677694947095 92.8,4.221639627510074 92.9,4.242551074907523 93.0,4.263200821770459 93.1,4.283587594325245 93.2,4.303710135019716 93.3,4.323567202600774 93.4,4.343157572190958 93.5,4.362480035363986 93.6,4.381533400219316 93.7,4.4003164914556585 93.8,4.418828150443464 93.9,4.437067235296417 94.0,4.45503262094184 94.1,4.472723199190124 94.2,4.490137878803077 94.3,4.507275585561229 94.4,4.524135262330098 94.5,4.540715869125406 94.6,4.557016383177225 94.7,4.573035798993066 94.8,4.588773128419905 94.9,4.604227400705133 95.0,4.619397662556432 95.1,4.634282978200604 95.2,4.648882429441257 95.3,4.66319511571547 95.4,4.677220154149336 95.5,4.69095667961242 95.6,4.704403844771125 95.7,4.717560820140968 95.8,4.730426794137725 95.9,4.743000973127522 96.0,4.755282581475767 96.1,4.767270861595007 96.2,4.778965073991651 96.3,4.790364497311595 96.4,4.801468428384715 96.5,4.812276182268235 96.6,4.82278709228899 96.7,4.8330005100845375 96.8,4.8429158056431545 96.9,4.852532367342712 97.0,4.861849601988383 97.1,4.870866934849246 97.2,4.879583809693737 97.3,4.887999688823953 97.4,4.896114053108828 97.5,4.903926402016151 97.6,4.911436253643442 97.7,4.918643144747679 97.8,4.925546630773869 97.9,4.932146285882478 98.0,4.938441702975688 98.1,4.944432493722522 98.2,4.950118288582788 98.3,4.955498736829873 98.4,4.9605735065723895 98.5,4.965342284774631 98.6,4.969804777275898 98.7,4.973960708808632 98.8,4.9778098230154 98.9,4.981351882464707 99.0,4.9845866686656395 99.1,4.98751398208135 99.2,4.990133642141358 99.3,4.99244548725269 99.4,4.99444937480985 99.5,4.996145181203614 99.6,4.997532801828658 99.7,4.998612151090002 99.8,4.999383162408303 99.9,4.999845788223948 100.0,5.0 100.1,4.999845788223948 100.2,4.999383162408303 100.3,4.998612151090002 100.4,4.997532801828658 100.5,4.996145181203614 100.6,4.994449374809849 100.7,4.99244548725269 100.8,4.990133642141358 100.9,4.987513982081351 101.0,4.98458666866564 101.1,4.981351882464706 101.2,4.9778098230153995 101.3,4.973960708808633 101.4,4.969804777275899 101.5,4.965342284774631 101.6,4.9605735065723895 101.7,4.955498736829874 101.8,4.950118288582789 101.9,4.944432493722524 102.0,4.938441702975688 102.1,4.932146285882478 102.2,4.92554663077387 102.3,4.91864314474768 102.4,4.911436253643443 102.5,4.903926402016153 102.6,4.896114053108829 102.7,4.887999688823953 102.8,4.879583809693739 102.9,4.870866934849246 103.0,4.861849601988384 103.1,4.852532367342713 103.2,4.842915805643155 103.3,4.833000510084536 103.4,4.822787092288989 103.5,4.812276182268237 103.6,4.801468428384718 103.7,4.7903644973115975 103.8,4.77896507399165 103.9,4.767270861595005 104.0,4.755282581475768 104.1,4.7430009731275256 104.2,4.730426794137726 104.3,4.717560820140969 104.4,4.704403844771125 104.5,4.6909566796124205 104.6,4.677220154149339 104.7,4.663195115715469 104.8,4.648882429441258 104.9,4.634282978200605 105.0,4.619397662556434 105.1,4.60422740070513 105.2,4.588773128419907 105.3,4.573035798993069 105.4,4.557016383177227 105.5,4.5407158691254095 105.6,4.5241352623300966 105.7,4.50727558556123 105.8,4.490137878803079 105.9,4.472723199190125 106.0,4.455032620941838 106.1,4.437067235296418 106.2,4.418828150443468 106.3,4.400316491455664 106.4,4.381533400219321 106.5,4.362480035363983 106.6,4.343157572190957 106.7,4.323567202600776 106.8,4.303710135019722 106.9,4.283587594325247 107.0,4.263200821770463 107.1,4.242551074907519 107.2,4.221639627510076 107.3,4.200467769494713 107.4,4.179036806841349 107.5,4.157348061512728 107.6,4.1354028713728095 107.7,4.113202590104298 107.8,4.090748587125115 107.9,4.0680422475039375 108.0,4.045084971874738 108.1,4.021878176350428 108.2,3.998423292435457 108.3,3.9747217669375474 108.4,3.950775061878453 108.5,3.9265846544037246 108.6,3.9021520366916533 108.7,3.8774787158611703 108.8,3.8525662138789487 108.9,3.8274160674654363 109.0,3.80202982800016 109.1,3.7764090614259223 109.2,3.750555348152295 109.3,3.7244702829581118 109.4,3.6981554748930483 109.5,3.6716125471784267 109.6,3.644843137107061 109.7,3.617848895942249 109.8,3.590631488815945 109.9,3.563192594626026 110.0,3.5355339059327417 110.1,3.5076571288542753 110.2,3.479563982961573 110.3,3.451256201172186 110.4,3.422735529643442 110.5,3.3940037276647055 110.6,3.365062567548869 110.7,3.335913834522999 110.8,3.3065593266182653 110.9,3.277000854558974 111.0,3.2472402416509145 111.1,3.217279323668896 111.2,3.1871199487434487 111.3,3.156763977246894 111.4,3.1262132816785226 111.5,3.0954697465491723 111.6,3.064535268264883 111.7,3.0334117550099977 111.8,3.002101126629425 111.9,2.9706053145101885 112.0,2.938926261462367 112.1,2.907065921599153 112.2,2.875026260216391 112.3,2.8428092536713234 112.4,2.8104168892606554 112.5,2.7778511650980113 112.6,2.745114089990665 112.7,2.712207683315598 112.8,2.6791339748949783 112.9,2.6458950048709546 113.0,2.612492823579744 113.1,2.5789294914252423 113.2,2.5452070787518526 113.3,2.511327665716865 113.4,2.477293342162038 113.5,2.443106207484781 113.6,2.408768370508581 113.7,2.374281949352968 113.8,2.339649071302868 113.9,2.304871872677311 114.0,2.2699524986977395 114.1,2.2348931033556094 114.2,2.1996958492795775 114.3,2.1643629076020696 114.4,2.1288964578253617 114.5,2.0932986876871453 114.6,2.057571793025555 114.7,2.021717977643726 114.8,1.9857394531739023 114.9,1.949638438940939 115.0,1.913417161825444 115.1,1.8770778561264254 115.2,1.8406227634233898 115.3,1.8040541324382153 115.4,1.7673742188962902 115.5,1.7305852853874593 115.6,1.6936896012264577 115.7,1.656689442312854 115.8,1.6195870909907526 115.9,1.5823848359079258 116.0,1.545084971874739 116.1,1.507689799722478 116.2,1.470201626161526 116.3,1.4326227636389959 116.4,1.3949555301961403 116.5,1.357202249325372 116.6,1.319365249826863 116.7,1.2814468656649884 116.8,1.2434494358242774 116.9,1.2053753041651947 117.0,1.1672268192795268 117.1,1.1290063343455248 117.2,1.0907162069827172 117.3,1.0523587991065395 117.4,1.013936476782563 117.5,0.9754516100806399 117.6,0.9369065729286284 117.7,0.8983037429659573 117.8,0.859645501397049 117.9,0.8209342328443141 118.0,0.7821723252011604 118.1,0.7433621694846192 118.2,0.7045061596879068 118.3,0.6656066926327621 118.4,0.6266661678215195 118.5,0.5876869872891933 118.6,0.5486715554552295 118.7,0.5096222789752514 118.8,0.47054156659257074 118.9,0.4314318289896229 119.0,0.39229547863922876 119.1,0.35313492965584437 119.2,0.3139525976465669 119.3,0.27475089956222676 119.4,0.23553225354820936 119.5,0.196299078795346 119.6,0.15705379539065129 119.7,0.11779882416804971 119.8,0.07853658655910921 119.9,0.039269504443560505 120.0,1.0718754395722281e-14 120.1,-0.03926950444355683 120.2,-0.07853658655910553 120.3,-0.11779882416804605 120.4,-0.1570537953906476 120.5,-0.1962990787953423 120.6,-0.2355322535482057 120.7,-0.2747508995622231 120.8,-0.31395259764656325 120.9,-0.35313492965584065 121.0,-0.3922954786392251 121.1,-0.4314318289896192 121.2,-0.47054156659256713 121.3,-0.5096222789752477 121.4,-0.5486715554552258 121.5,-0.5876869872891897 121.6,-0.6266661678215159 121.7,-0.6656066926327584 121.8,-0.7045061596879031 121.9,-0.7433621694846155 122.0,-0.7821723252011569 122.1,-0.8209342328443104 122.2,-0.8596455013970454 122.3,-0.8983037429659536 122.4,-0.9369065729286248 122.5,-0.9754516100806363 122.6,-1.0139364767825594 122.7,-1.052358799106536 122.8,-1.0907162069827134 122.9,-1.1290063343455212 123.0,-1.167226819279523 123.1,-1.2053753041651913 123.2,-1.2434494358242738 123.3,-1.281446865664985 123.4,-1.3193652498268595 123.5,-1.3572022493253684 123.6,-1.3949555301961367 123.7,-1.4326227636389923 123.8,-1.4702016261615225 123.9,-1.5076897997224747 124.0,-1.5450849718747353 124.1,-1.5823848359079222 124.2,-1.6195870909907488 124.3,-1.6566894423128504 124.4,-1.6936896012264544 124.5,-1.730585285387456 124.6,-1.7673742188962869 124.7,-1.804054132438212 124.8,-1.8406227634233863 124.9,-1.877077856126422 125.0,-1.913417161825441 125.1,-1.9496384389409354 125.2,-1.985739453173899 125.3,-2.0217179776437226 125.4,-2.0575717930255513 125.5,-2.093298687687142 125.6,-2.128896457825358 125.7,-2.1643629076020665 125.8,-2.1996958492795744 125.9,-2.234893103355606 126.0,-2.2699524986977364 126.1,-2.304871872677308 126.2,-2.3396490713028646 126.3,-2.374281949352965 126.4,-2.408768370508578 126.5,-2.443106207484778 126.6,-2.477293342162035 126.7,-2.5113276657168617 126.8,-2.5452070787518495 126.9,-2.5789294914252396 127.0,-2.612492823579741 127.1,-2.645895004870951 127.2,-2.6791339748949756 127.3,-2.7122076833155955 127.4,-2.7451140899906545 127.5,-2.7778511650980158 127.6,-2.8104168892606523 127.7,-2.8428092536713208 127.8,-2.875026260216388 127.9,-2.9070659215991568 128.0,-2.938926261462364 128.1,-2.970605314510193 128.2,-3.0021011266294217 128.3,-3.033411755009995 128.4,-3.0645352682648874 128.5,-3.095469746549169 128.6,-3.126213281678527 128.7,-3.156763977246884 128.8,-3.1871199487434527 128.9,-3.2172793236688935 129.0,-3.2472402416509185 129.1,-3.2770008545589713 129.2,-3.306559326618256 129.3,-3.3359138345230033 129.4,-3.365062567548866 129.5,-3.3940037276647095 129.6,-3.422735529643439 129.7,-3.4512562011721832 129.8,-3.4795639829615705 129.9,-3.5076571288542793 130.0,-3.5355339059327395 130.1,-3.563192594626024 130.2,-3.5906314888159363 130.3,-3.617848895942246 130.4,-3.644843137107059 130.5,-3.671612547178424 130.6,-3.698155474893046 130.7,-3.7244702829581033 130.8,-3.750555348152298 130.9,-3.77640906142592 131.0,-3.802029828000152 131.1,-3.8274160674654336 131.2,-3.8525662138789403 131.3,-3.8774787158611734 131.4,-3.902152036691646 131.5,-3.926584654403728 131.6,-3.950775061878451 131.7,-3.974721766937545 131.8,-3.9984232924354544 131.9,-4.0218781763504206 132.0,-4.045084971874741 132.1,-4.068042247503935 132.2,-4.090748587125118 132.3,-4.113202590104296 132.4,-4.135402871372812 132.5,-4.157348061512725 132.6,-4.179036806841352 132.7,-4.200467769494711 132.8,-4.221639627510073 132.9,-4.242551074907522 133.0,-4.263200821770462 133.1,-4.283587594325249 133.2,-4.303710135019716 133.3,-4.3235672026007785 133.4,-4.343157572190956 133.5,-4.362480035363986 133.6,-4.38153340021932 133.7,-4.4003164914556585 133.8,-4.4188281504434705 133.9,-4.437067235296416 134.0,-4.45503262094184 134.1,-4.472723199190123 134.2,-4.490137878803077 134.3,-4.507275585561229 134.4,-4.524135262330098 134.5,-4.540715869125408 134.6,-4.557016383177225 134.7,-4.573035798993064 134.8,-4.588773128419906 134.9,-4.604227400705132 135.0,-4.619397662556432 135.1,-4.634282978200604 135.2,-4.648882429441254 135.3,-4.663195115715471 135.4,-4.677220154149338 135.5,-4.69095667961242 135.6,-4.704403844771124 135.7,-4.717560820140966 135.8,-4.730426794137728 135.9,-4.743000973127522 136.0,-4.75528258147577 136.1,-4.767270861595003 136.2,-4.778965073991649 136.3,-4.7903644973115975 136.4,-4.801468428384715 136.5,-4.8122761822682385 136.6,-4.822787092288988 136.7,-4.833000510084535 136.8,-4.8429158056431545 136.9,-4.852532367342714 137.0,-4.861849601988383 137.1,-4.870866934849247 137.2,-4.879583809693734 137.3,-4.887999688823953 137.4,-4.89611405310883 137.5,-4.903926402016153 137.6,-4.911436253643444 137.7,-4.918643144747678 137.8,-4.925546630773871 137.9,-4.932146285882478 138.0,-4.938441702975689 138.1,-4.944432493722523 138.2,-4.950118288582788 138.3,-4.955498736829876 138.4,-4.9605735065723895 138.5,-4.965342284774632 138.6,-4.969804777275898 138.7,-4.973960708808632 138.8,-4.9778098230154 138.9,-4.981351882464707 139.0,-4.98458666866564 139.1,-4.98751398208135 139.2,-4.990133642141357 139.3,-4.99244548725269 139.4,-4.99444937480985 139.5,-4.996145181203614 139.6,-4.997532801828658 139.7,-4.998612151090002 139.8,-4.999383162408303 139.9,-4.999845788223949 140.0,-5.0 140.1,-4.999845788223949 140.2,-4.999383162408303 140.3,-4.998612151090002 140.4,-4.997532801828658 140.5,-4.996145181203614 140.6,-4.99444937480985 140.7,-4.99244548725269 140.8,-4.990133642141357 140.9,-4.987513982081351 141.0,-4.98458666866564 141.1,-4.981351882464707 141.2,-4.9778098230154 141.3,-4.973960708808632 141.4,-4.969804777275898 141.5,-4.965342284774631 141.6,-4.9605735065723895 141.7,-4.955498736829876 141.8,-4.950118288582789 141.9,-4.9444324937225215 142.0,-4.938441702975688 142.1,-4.932146285882476 142.2,-4.925546630773871 142.3,-4.918643144747678 142.4,-4.911436253643443 142.5,-4.903926402016151 142.6,-4.896114053108827 142.7,-4.887999688823953 142.8,-4.8795838096937345 142.9,-4.870866934849246 143.0,-4.861849601988382 143.1,-4.852532367342713 143.2,-4.842915805643156 143.3,-4.833000510084537 143.4,-4.822787092288989 143.5,-4.812276182268235 143.6,-4.801468428384716 143.7,-4.790364497311598 143.8,-4.77896507399165 143.9,-4.767270861595005 144.0,-4.755282581475769 144.1,-4.743000973127523 144.2,-4.7304267941377285 144.3,-4.717560820140967 144.4,-4.704403844771125 144.5,-4.6909566796124205 144.6,-4.67722015414934 144.7,-4.663195115715473 144.8,-4.648882429441255 144.9,-4.634282978200605 145.0,-4.619397662556434 145.1,-4.604227400705134 145.2,-4.588773128419907 145.3,-4.5730357989930654 145.4,-4.557016383177227 145.5,-4.5407158691254095 145.6,-4.5241352623301 145.7,-4.50727558556123 145.8,-4.490137878803079 145.9,-4.472723199190126 146.0,-4.455032620941842 146.1,-4.437067235296419 146.2,-4.418828150443472 146.3,-4.400316491455659 146.4,-4.381533400219313 146.5,-4.362480035363988 146.6,-4.343157572190958 146.7,-4.32356720260078 146.8,-4.303710135019713 146.9,-4.2835875943252475 147.0,-4.263200821770459 147.1,-4.242551074907524 147.2,-4.22163962751008 147.3,-4.200467769494704 147.4,-4.179036806841349 147.5,-4.157348061512724 147.6,-4.1354028713728095 147.7,-4.113202590104309 147.8,-4.090748587125116 147.9,-4.068042247503932 148.0,-4.045084971874734 148.1,-4.021878176350422 148.2,-3.998423292435457 148.3,-3.974721766937548 148.4,-3.9507750618784483 148.5,-3.926584654403725 148.6,-3.902152036691648 148.7,-3.877478715861176 148.8,-3.852566213878943 148.9,-3.8274160674654363 149.0,-3.8020298280001548 149.1,-3.7764090614259227 149.2,-3.7505553481523006 149.3,-3.724470282958106 149.4,-3.698155474893049 149.5,-3.671612547178427 149.6,-3.6448431371070615 149.7,-3.6178488959422497 149.8,-3.59063148881594 149.9,-3.5631925946260266 150.0,-3.535533905932742 150.1,-3.507657128854282 150.2,-3.4795639829615737 150.3,-3.4512562011721863 150.4,-3.4227355296434423 150.5,-3.394003727664713 150.6,-3.3650625675488692 150.7,-3.335913834523006 150.8,-3.306559326618259 150.9,-3.277000854558975 151.0,-3.2472402416509216 151.1,-3.2172793236688966 151.2,-3.187119948743456 151.3,-3.1567639772468805 151.4,-3.126213281678523 151.5,-3.0954697465491727 151.6,-3.0645352682648905 151.7,-3.033411755010005 151.8,-3.002101126629411 151.9,-2.970605314510189 152.0,-2.9389262614623672 152.1,-2.90706592159916 152.2,-2.8750262602164063 152.3,-2.8428092536713168 152.4,-2.8104168892606483 152.5,-2.7778511650980047 152.6,-2.7451140899906656 152.7,-2.712207683315606 152.8,-2.6791339748949787 152.9,-2.6458950048709475 153.0,-2.6124928235797444 153.1,-2.578929491425236 153.2,-2.545207078751868 153.3,-2.5113276657168577 153.4,-2.4772933421620307 153.5,-2.443106207484774 153.6,-2.4087683705085814 153.7,-2.3742819493529765 153.8,-2.3396490713028606 153.9,-2.3048718726773116 154.0,-2.269952498697732 154.1,-2.23489310335561 154.2,-2.1996958492795784 154.3,-2.1643629076020625 154.4,-2.128896457825362 154.5,-2.0932986876871458 154.6,-2.0575717930255473 154.7,-2.0217179776437266 154.8,-1.9857394531739028 154.9,-1.9496384389409394 155.0,-1.913417161825453 155.1,-1.8770778561264179 155.2,-1.8406227634233985 155.3,-1.8040541324382076 155.4,-1.7673742188962906 155.5,-1.7305852853874681 155.6,-1.6936896012264582 155.7,-1.6566894423128629 155.8,-1.6195870909907448 155.9,-1.5823848359079349 156.0,-1.5450849718747395 156.1,-1.5076897997224872 156.2,-1.4702016261615267 156.3,-1.4326227636389797 156.4,-1.3949555301961494 156.5,-1.3572022493253724 156.6,-1.3193652498268724 156.7,-1.2814468656649978 156.8,-1.2434494358242694 156.9,-1.2053753041651867 157.0,-1.1672268192795359 157.1,-1.1290063343455254 157.2,-1.0907162069827265 157.3,-1.0523587991065226 157.4,-1.013936476782555 157.5,-0.9754516100806404 157.6,-0.9369065729286377 157.7,-0.8983037429659755 157.8,-0.859645501397041 157.9,-0.8209342328443059 158.0,-0.7821723252011524 158.1,-0.7433621694846198 158.2,-0.704506159687925 158.3,-0.665606692632754 158.4,-0.6266661678215201 158.5,-0.5876869872891851 158.6,-0.54867155545523 158.7,-0.5096222789752519 158.8,-0.4705415665925625 158.9,-0.43143182898961463 159.0,-0.39229547863922937 159.1,-0.3531349296558361 159.2,-0.3139525976465676 159.3,-0.2747508995622274 159.4,-0.23553225354820995 159.5,-0.19629907879534658 159.6,-0.15705379539064301 159.7,-0.1177988241680592 159.8,-0.07853658655910095 159.9,-0.039269504443561115 160.0,-2.4492935982947065e-15 160.1,0.039269504443556216 160.2,0.07853658655909604 160.3,0.1177988241680543 160.4,0.15705379539063813 160.5,0.1962990787953417 160.6,0.23553225354820506 160.7,0.27475089956222254 160.8,0.31395259764656264 160.9,0.35313492965583115 161.0,0.39229547863922454 161.1,0.43143182898960974 161.2,0.47054156659255764 161.3,0.509622278975247 161.4,0.5486715554552253 161.5,0.5876869872891802 161.6,0.6266661678215152 161.7,0.6656066926327491 161.8,0.7045061596879201 161.9,0.7433621694846149 162.0,0.7821723252011475 162.1,0.820934232844301 162.2,0.8596455013970361 162.3,0.8983037429659706 162.4,0.9369065729286329 162.5,0.9754516100806356 162.6,1.01393647678255 162.7,1.0523587991065178 162.8,1.0907162069827216 162.9,1.1290063343455206 163.0,1.1672268192795139 163.1,1.205375304165182 163.2,1.2434494358242647 163.3,1.2814468656649929 163.4,1.3193652498268675 163.5,1.3572022493253677 163.6,1.3949555301961447 163.7,1.4326227636389919 163.8,1.4702016261615136 163.9,1.5076897997224656 164.0,1.5450849718747262 164.1,1.5823848359079216 164.2,1.6195870909907317 164.3,1.656689442312858 164.4,1.6936896012264537 164.5,1.7305852853874635 164.6,1.7673742188962862 164.7,1.8040541324382031 164.8,1.8406227634234025 164.9,1.8770778561264214 165.0,1.9134171618254403 165.1,1.9496384389409265 165.2,1.9857394531738983 165.3,2.021717977643722 165.4,2.057571793025543 165.5,2.0932986876871413 165.6,2.1288964578253577 165.7,2.164362907602058 165.8,2.199695849279582 165.9,2.2348931033556134 166.0,2.2699524986977435 166.1,2.304871872677315 166.2,2.3396490713028566 166.3,2.374281949352972 166.4,2.408768370508577 166.5,2.4431062074847696 166.6,2.4772933421620267 166.7,2.5113276657168533 166.8,2.545207078751864 166.9,2.5789294914252463 167.0,2.612492823579748 167.1,2.6458950048709506 167.2,2.6791339748949823 167.3,2.712207683315595 167.4,2.745114089990654 167.5,2.777851165098001 167.6,2.810416889260644 167.7,2.8428092536713128 167.8,2.8750262602164023 167.9,2.9070659215991563 168.0,2.9389262614623632 168.1,2.9706053145101925 168.2,3.0021011266294213 168.3,3.033411755009994 168.4,3.0645352682648728 168.5,3.095469746549162 168.6,3.1262132816785195 168.7,3.156763977246877 168.8,3.187119948743452 168.9,3.217279323668893 169.0,3.2472402416509176 169.1,3.277000854558971 169.2,3.306559326618255 169.3,3.3359138345229895 169.4,3.3650625675488595 169.5,3.394003727664703 169.6,3.4227355296434325 169.7,3.451256201172183 169.8,3.4795639829615697 169.9,3.5076571288542784 170.0,3.535533905932739 170.1,3.5631925946260234 170.2,3.590631488815936 170.3,3.6178488959422523 170.4,3.644843137107064 170.5,3.671612547178418 170.6,3.698155474893046 170.7,3.724470282958103 170.8,3.7505553481522975 170.9,3.7764090614259196 171.0,3.802029828000151 171.1,3.8274160674654336 171.2,3.8525662138789403 171.3,3.8774787158611783 171.4,3.902152036691656 171.5,3.926584654403728 171.6,3.950775061878451 171.7,3.974721766937545 171.8,3.998423292435454 171.9,4.02187817635042 172.0,4.045084971874731 172.1,4.0680422475039295 172.2,4.0907485871251135 172.3,4.113202590104306 172.4,4.135402871372812 172.5,4.157348061512725 172.6,4.179036806841351 172.7,4.20046776949471 172.8,4.221639627510073 172.9,4.242551074907512 173.0,4.2632008217704565 173.1,4.283587594325244 173.2,4.303710135019711 173.3,4.3235672026007785 173.4,4.343157572190956 173.5,4.362480035363986 173.6,4.381533400219319 173.7,4.400316491455658 173.8,4.418828150443462 173.9,4.437067235296412 174.0,4.455032620941836 174.1,4.472723199190119 174.2,4.490137878803076 174.3,4.507275585561228 174.4,4.524135262330098 174.5,4.540715869125408 174.6,4.557016383177225 174.7,4.573035798993064 174.8,4.588773128419909 174.9,4.6042274007051285 175.0,4.619397662556429 175.1,4.634282978200603 175.2,4.648882429441254 175.3,4.663195115715471 175.4,4.677220154149337 175.5,4.69095667961242 175.6,4.704403844771124 175.7,4.717560820140966 175.8,4.73042679413773 175.9,4.743000973127527 176.0,4.755282581475767 176.1,4.767270861595003 176.2,4.778965073991649 176.3,4.790364497311597 176.4,4.801468428384714 176.5,4.812276182268233 176.6,4.822787092288988 176.7,4.833000510084535 176.8,4.842915805643159 176.9,4.852532367342714 177.0,4.861849601988383 177.1,4.870866934849247 177.2,4.879583809693734 177.3,4.887999688823953 177.4,4.896114053108827 177.5,4.90392640201615 177.6,4.911436253643442 177.7,4.918643144747677 177.8,4.92554663077387 177.9,4.932146285882477 178.0,4.938441702975689 178.1,4.944432493722523 178.2,4.950118288582787 178.3,4.955498736829872 178.4,4.960573506572389 178.5,4.965342284774631 178.6,4.969804777275897 178.7,4.973960708808632 178.8,4.9778098230154 178.9,4.981351882464706 179.0,4.98458666866564 179.1,4.98751398208135 179.2,4.990133642141357 179.3,4.992445487252689 179.4,4.994449374809849 179.5,4.996145181203614 179.6,4.997532801828658 179.7,4.998612151090002 179.8,4.999383162408303 179.9,4.999845788223948 180.0,5.0 180.1,4.999845788223949 180.2,4.999383162408303 180.3,4.998612151090002 180.4,4.997532801828658 180.5,4.996145181203614 180.6,4.99444937480985 180.7,4.99244548725269 180.8,4.990133642141358 180.9,4.987513982081351 181.0,4.98458666866564 181.1,4.981351882464707 181.2,4.9778098230154 181.3,4.97396070880863 181.4,4.969804777275898 181.5,4.965342284774631 181.6,4.9605735065723895 181.7,4.955498736829876 181.8,4.950118288582789 181.9,4.944432493722524 182.0,4.93844170297569 182.1,4.932146285882478 182.2,4.925546630773871 182.3,4.918643144747678 182.4,4.911436253643443 182.5,4.903926402016151 182.6,4.896114053108828 182.7,4.887999688823954 182.8,4.879583809693739 182.9,4.870866934849248 183.0,4.861849601988385 183.1,4.852532367342715 183.2,4.842915805643156 183.3,4.833000510084537 183.4,4.82278709228899 183.5,4.812276182268235 183.6,4.801468428384716 183.7,4.790364497311598 183.8,4.778965073991653 183.9,4.767270861595008 184.0,4.755282581475772 184.1,4.743000973127524 184.2,4.730426794137729 184.3,4.717560820140967 184.4,4.704403844771125 184.5,4.690956679612421 184.6,4.67722015414934 184.7,4.663195115715473 184.8,4.648882429441259 184.9,4.634282978200608 185.0,4.619397662556434 185.1,4.604227400705135 185.2,4.588773128419908 185.3,4.573035798993066 185.4,4.557016383177227 185.5,4.54071586912541 185.6,4.524135262330101 185.7,4.50727558556123 185.8,4.490137878803072 185.9,4.472723199190126 186.0,4.455032620941843 186.1,4.437067235296419 186.2,4.418828150443473 186.3,4.40031649145566 186.4,4.381533400219322 186.5,4.362480035363989 186.6,4.343157572190958 186.7,4.323567202600781 186.8,4.303710135019713 186.9,4.2835875943252475 187.0,4.263200821770459 187.1,4.242551074907524 187.2,4.221639627510081 187.3,4.200467769494714 187.4,4.179036806841355 187.5,4.157348061512728 187.6,4.135402871372815 187.7,4.113202590104299 187.8,4.090748587125116 187.9,4.068042247503933 188.0,4.045084971874734 188.1,4.021878176350423 188.2,3.9984232924354575 188.3,3.974721766937553 188.4,3.9507750618784545 188.5,3.9265846544037313 188.6,3.9021520366916485 188.7,3.8774787158611765 188.8,3.8525662138789434 188.9,3.8274160674654367 189.0,3.802029828000155 189.1,3.7764090614259227 189.2,3.750555348152301 189.3,3.7244702829581127 189.4,3.6981554748930554 189.5,3.6716125471784276 189.6,3.6448431371070624 189.7,3.61784889594225 189.8,3.59063148881594 189.9,3.5631925946260274 190.0,3.535533905932743 190.1,3.5076571288542824 190.2,3.479563982961574 190.3,3.451256201172193 190.4,3.422735529643443 190.5,3.3940037276647135 190.6,3.36506256754887 190.7,3.335913834523007 190.8,3.3065593266182596 190.9,3.2770008545589753 191.0,3.247240241650922 191.1,3.2172793236688975 191.2,3.1871199487434563 191.3,3.156763977246881 191.4,3.126213281678524 191.5,3.095469746549173 191.6,3.0645352682648914 191.7,3.0334117550100053 191.8,3.0021011266294257 191.9,2.970605314510197 192.0,2.9389262614623677 192.1,2.9070659215991608 192.2,2.8750262602163916 192.3,2.842809253671317 192.4,2.810416889260649 192.5,2.7778511650980056 192.6,2.745114089990666 192.7,2.7122076833156066 192.8,2.679133974894987 192.9,2.6458950048709555 193.0,2.6124928235797524 193.1,2.5789294914252365 193.2,2.5452070787518615 193.3,2.511327665716858 193.4,2.4772933421620316 193.5,2.4431062074847745 193.6,2.4087683705085823 193.7,2.374281949352977 193.8,2.339649071302869 193.9,2.30487187267732 194.0,2.269952498697733 194.1,2.2348931033556103 194.2,2.199695849279579 194.3,2.164362907602063 194.4,2.1288964578253626 194.5,2.093298687687146 194.6,2.0575717930255477 194.7,2.021717977643727 194.8,1.9857394531739114 194.9,1.9496384389409398 195.0,1.9134171618254536 195.1,1.8770778561264185 195.2,1.840622763423399 195.3,1.8040541324382082 195.4,1.7673742188962913 195.5,1.7305852853874688 195.6,1.6936896012264588 195.7,1.6566894423128633 195.8,1.6195870909907453 195.9,1.5823848359079353 196.0,1.54508497187474 196.1,1.5076897997224878 196.2,1.4702016261615272 196.3,1.4326227636389972 196.4,1.39495553019615 196.5,1.357202249325373 196.6,1.3193652498268729 196.7,1.2814468656649811 196.8,1.24344943582427 196.9,1.2053753041651873 197.0,1.1672268192795365 197.1,1.1290063343455259 197.2,1.090716206982727 197.3,1.052358799106532 197.4,1.013936476782564 197.5,0.9754516100806497 197.6,0.9369065729286209 197.7,0.8983037429659673 197.8,0.8596455013970415 197.9,0.8209342328443066 198.0,0.782172325201153 198.1,0.7433621694846204 198.2,0.7045061596879255 198.3,0.6656066926327632 198.4,0.6266661678215295 198.5,0.5876869872891857 198.6,0.5486715554552307 198.7,0.5096222789752526 198.8,0.4705415665925632 198.9,0.43143182898961524 199.0,0.39229547863923 199.1,0.3531349296558367 199.2,0.31395259764656813 199.3,0.27475089956223686 199.4,0.23553225354821059 199.5,0.19629907879534722 199.6,0.15705379539064365 199.7,0.11779882416805983 199.8,0.07853658655910156 199.9,0.039269504443561726 200.0,3.061616997868383e-15 200.1,-0.039269504443555606 200.2,-0.07853658655909543 200.3,-0.1177988241680537 200.4,-0.15705379539063752 200.5,-0.1962990787953411 200.6,-0.23553225354820448 200.7,-0.2747508995622219 200.8,-0.313952597646562 200.9,-0.35313492965583054 201.0,-0.39229547863922387 201.1,-0.43143182898960913 201.2,-0.47054156659257473 201.3,-0.5096222789752465 201.4,-0.5486715554552246 201.5,-0.5876869872891797 201.6,-0.6266661678215146 201.7,-0.6656066926327484 201.8,-0.7045061596879107 201.9,-0.7433621694846143 202.0,-0.7821723252011469 202.1,-0.820934232844318 202.2,-0.8596455013970443 202.3,-0.89830374296597 202.4,-0.9369065729286323 202.5,-0.975451610080635 202.6,-1.0139364767825494 202.7,-1.0523587991065173 202.8,-1.0907162069827123 202.9,-1.1290063343455112 203.0,-1.1672268192795305 203.1,-1.20537530416519 203.2,-1.2434494358242727 203.3,-1.2814468656649924 203.4,-1.319365249826867 203.5,-1.357202249325367 203.6,-1.3949555301961443 203.7,-1.4326227636389743 203.8,-1.4702016261615045 203.9,-1.507689799722482 204.0,-1.5450849718747426 204.1,-1.582384835907921 204.2,-1.6195870909907395 204.3,-1.6566894423128662 204.4,-1.6936896012264533 204.5,-1.7305852853874628 204.6,-1.7673742188962858 204.7,-1.8040541324381942 204.8,-1.8406227634233936 204.9,-1.877077856126421 205.0,-1.9134171618254396 205.1,-1.9496384389409345 205.2,-1.9857394531738979 205.3,-2.0217179776437217 205.4,-2.0575717930255424 205.5,-2.093298687687141 205.6,-2.1288964578253493 205.7,-2.1643629076020736 205.8,-2.199695849279581 205.9,-2.234893103355597 206.0,-2.269952498697727 206.1,-2.3048718726773068 206.2,-2.3396490713028637 206.3,-2.3742819493529717 206.4,-2.4087683705085765 206.5,-2.443106207484761 206.6,-2.477293342162042 206.7,-2.511327665716868 206.8,-2.5452070787518637 206.9,-2.5789294914252308 207.0,-2.6124928235797396 207.1,-2.64589500487095 207.2,-2.679133974894967 207.3,-2.7122076833155946 207.4,-2.745114089990646 207.5,-2.777851165098015 207.6,-2.8104168892606585 207.7,-2.8428092536713123 207.8,-2.875026260216402 207.9,-2.9070659215991634 208.0,-2.938926261462363 208.1,-2.9706053145101774 208.2,-3.0021011266294066 208.3,-3.0334117550099866 208.4,-3.064535268264886 208.5,-3.0954697465491754 208.6,-3.1262132816785186 208.7,-3.156763977246883 208.8,-3.187119948743459 208.9,-3.217279323668892 209.0,-3.2472402416509176 209.1,-3.2770008545589704 209.2,-3.306559326618248 209.3,-3.3359138345230024 209.4,-3.365062567548872 209.5,-3.3940037276647024 209.6,-3.4227355296434387 209.7,-3.451256201172183 209.8,-3.4795639829615697 209.9,-3.507657128854278 210.0,-3.5355339059327386 210.1,-3.563192594626017 210.2,-3.5906314888159474 210.3,-3.6178488959422515 210.4,-3.6448431371070518 210.5,-3.671612547178423 210.6,-3.6981554748930456 210.7,-3.7244702829581082 210.8,-3.7505553481522975 210.9,-3.7764090614259187 211.0,-3.802029828000145 211.1,-3.827416067465444 211.2,-3.8525662138789505 211.3,-3.8774787158611668 211.4,-3.9021520366916445 211.5,-3.926584654403722 211.6,-3.9507750618784505 211.7,-3.974721766937539 211.8,-3.9984232924354535 211.9,-4.021878176350414 212.0,-4.045084971874741 212.1,-4.068042247503939 212.2,-4.090748587125113 212.3,-4.113202590104306 212.4,-4.135402871372807 212.5,-4.157348061512725 212.6,-4.179036806841341 212.7,-4.200467769494701 212.8,-4.2216396275100685 212.9,-4.242551074907521 213.0,-4.263200821770465 213.1,-4.283587594325244 213.2,-4.303710135019715 213.3,-4.323567202600782 213.4,-4.343157572190956 213.5,-4.362480035363986 213.6,-4.38153340021931 213.7,-4.400316491455653 213.8,-4.4188281504434705 213.9,-4.4370672352964196 214.0,-4.455032620941836 214.1,-4.472723199190122 214.2,-4.490137878803076 214.3,-4.507275585561228 214.4,-4.524135262330098 214.5,-4.540715869125408 214.6,-4.557016383177221 214.7,-4.57303579899307 214.8,-4.588773128419909 214.9,-4.6042274007051285 215.0,-4.619397662556431 215.1,-4.634282978200603 215.2,-4.648882429441256 215.3,-4.663195115715471 215.4,-4.677220154149337 215.5,-4.690956679612416 215.6,-4.70440384477113 215.7,-4.717560820140971 215.8,-4.730426794137724 215.9,-4.743000973127521 216.0,-4.755282581475767 216.1,-4.767270861595006 216.2,-4.778965073991646 216.3,-4.790364497311597 216.4,-4.8014684283847116 216.5,-4.8122761822682385 216.6,-4.822787092288992 216.7,-4.833000510084535 216.8,-4.8429158056431545 216.9,-4.852532367342712 217.0,-4.861849601988383 217.1,-4.870866934849243 217.2,-4.879583809693734 217.3,-4.8879996888239505 217.4,-4.89611405310883 217.5,-4.903926402016154 217.6,-4.911436253643442 217.7,-4.918643144747678 217.8,-4.925546630773872 217.9,-4.932146285882477 218.0,-4.938441702975686 218.1,-4.944432493722521 218.2,-4.950118288582786 218.3,-4.955498736829875 218.4,-4.96057350657239 218.5,-4.965342284774631 218.6,-4.969804777275898 218.7,-4.973960708808632 218.8,-4.9778098230154 218.9,-4.981351882464706 219.0,-4.98458666866564 219.1,-4.987513982081349 219.2,-4.990133642141357 219.3,-4.99244548725269 219.4,-4.994449374809849 219.5,-4.996145181203614 219.6,-4.997532801828657 219.7,-4.998612151090002 219.8,-4.999383162408303 219.9,-4.999845788223948 220.0,-5.0 220.1,-4.999845788223948 220.2,-4.999383162408303 220.3,-4.998612151090002 220.4,-4.997532801828658 220.5,-4.996145181203614 220.6,-4.99444937480985 220.7,-4.992445487252691 220.8,-4.990133642141358 220.9,-4.987513982081351 221.0,-4.9845866686656395 221.1,-4.981351882464706 221.2,-4.9778098230154 221.3,-4.973960708808633 221.4,-4.969804777275899 221.5,-4.965342284774631 221.6,-4.960573506572391 221.7,-4.955498736829876 221.8,-4.9501182885827895 221.9,-4.9444324937225215 222.0,-4.9384417029756875 222.1,-4.932146285882478 222.2,-4.92554663077387 222.3,-4.91864314474768 222.4,-4.911436253643443 222.5,-4.903926402016156 222.6,-4.896114053108832 222.7,-4.887999688823956 222.8,-4.8795838096937345 222.9,-4.870866934849245 223.0,-4.861849601988385 223.1,-4.852532367342714 223.2,-4.842915805643156 223.3,-4.833000510084537 223.4,-4.82278709228899 223.5,-4.81227618226824 223.6,-4.801468428384719 223.7,-4.790364497311598 223.8,-4.778965073991648 223.9,-4.767270861595008 224.0,-4.755282581475769 224.1,-4.743000973127524 224.2,-4.730426794137727 224.3,-4.717560820140967 224.4,-4.704403844771125 224.5,-4.690956679612425 224.6,-4.67722015414934 224.7,-4.66319511571548 224.8,-4.648882429441259 224.9,-4.634282978200605 225.0,-4.619397662556434 225.1,-4.604227400705131 225.2,-4.588773128419912 225.3,-4.573035798993066 225.4,-4.557016383177231 225.5,-4.540715869125403 225.6,-4.524135262330093 225.7,-4.5072755855612305 225.8,-4.490137878803079 225.9,-4.472723199190126 226.0,-4.455032620941839 226.1,-4.437067235296423 226.2,-4.418828150443473 226.3,-4.400316491455665 226.4,-4.381533400219314 226.5,-4.36248003536398 226.6,-4.343157572190959 226.7,-4.323567202600777 226.8,-4.303710135019719 226.9,-4.2835875943252475 227.0,-4.263200821770469 227.1,-4.242551074907525 227.2,-4.221639627510081 227.3,-4.200467769494704 227.4,-4.179036806841346 227.5,-4.157348061512729 227.6,-4.135402871372811 227.7,-4.1132025901043 227.8,-4.090748587125116 227.9,-4.068042247503944 228.0,-4.045084971874744 228.1,-4.0218781763504285 228.2,-3.998423292435458 228.3,-3.9747217669375434 228.4,-3.9507750618784545 228.5,-3.926584654403726 228.6,-3.902152036691649 228.7,-3.877478715861171 228.8,-3.8525662138789443 228.9,-3.827416067465437 229.0,-3.8020298280001614 229.1,-3.776409061425923 229.2,-3.7505553481523135 229.3,-3.724470282958113 229.4,-3.69815547489305 229.5,-3.6716125471784276 229.6,-3.6448431371070567 229.7,-3.617848895942257 229.8,-3.5906314888159403 229.9,-3.563192594626034 230.0,-3.5355339059327306 230.1,-3.5076571288542704 230.2,-3.479563982961587 230.3,-3.4512562011721872 230.4,-3.4227355296434436 230.5,-3.3940037276647073 230.6,-3.3650625675488763 230.7,-3.3359138345230073 230.8,-3.3065593266182667 230.9,-3.277000854558962 231.0,-3.2472402416509096 231.1,-3.217279323668898 231.2,-3.18711994874345 231.3,-3.156763977246888 231.4,-3.1262132816785244 231.5,-3.0954697465491803 231.6,-3.064535268264892 231.7,-3.0334117550100057 231.8,-3.0021011266294124 231.9,-2.970605314510183 232.0,-2.9389262614623686 232.1,-2.907065921599154 232.2,-2.8750262602163925 232.3,-2.8428092536713176 232.4,-2.8104168892606642 232.5,-2.77785116509802 232.6,-2.7451140899906665 232.7,-2.7122076833156 232.8,-2.679133974894973 232.9,-2.6458950048709555 233.0,-2.6124928235797458 233.1,-2.5789294914252365 233.2,-2.5452070787518544 233.3,-2.5113276657168737 233.4,-2.4772933421620476 233.5,-2.4431062074847825 233.6,-2.4087683705085827 233.7,-2.3742819493529934 233.8,-2.33964907130287 233.9,-2.3048718726773125 234.0,-2.2699524986977333 234.1,-2.2348931033556028 234.2,-2.1996958492795873 234.3,-2.1643629076020634 234.4,-2.1288964578253715 234.5,-2.0932986876871467 234.6,-2.0575717930255646 234.7,-2.021717977643744 234.8,-1.9857394531739039 234.9,-1.9496384389409405 235.0,-1.913417161825446 235.1,-1.877077856126427 235.2,-1.8406227634233998 235.3,-1.804054132438217 235.4,-1.767374218896275 235.5,-1.7305852853874526 235.6,-1.6936896012264593 235.7,-1.6566894423128555 235.8,-1.619587090990746 235.9,-1.5823848359079273 236.0,-1.5450849718747488 236.1,-1.5076897997224883 236.2,-1.4702016261615278 236.3,-1.4326227636389808 236.4,-1.3949555301961336 236.5,-1.3572022493253737 236.6,-1.3193652498268649 236.7,-1.2814468656649816 236.8,-1.2434494358242705 236.9,-1.205375304165205 237.0,-1.167226819279537 237.1,-1.1290063343455266 237.2,-1.090716206982719 237.3,-1.052358799106515 237.4,-1.0139364767825647 237.5,-0.9754516100806416 237.6,-0.9369065729286215 237.7,-0.898303742965959 237.8,-0.8596455013970596 237.9,-0.8209342328443247 238.0,-0.7821723252011624 238.1,-0.743362169484621 238.2,-0.704506159687935 238.3,-0.665606692632764 238.4,-0.6266661678215213 238.5,-0.5876869872891863 238.6,-0.5486715554552225 238.7,-0.509622278975262 238.8,-0.47054156659256374 238.9,-0.43143182898962473 239.0,-0.39229547863923064 239.1,-0.353134929655855 239.2,-0.3139525976465865 239.3,-0.27475089956222865 239.4,-0.23553225354821122 239.5,-0.19629907879533895 239.6,-0.15705379539065312 239.7,-0.11779882416806042 239.8,-0.07853658655911104 239.9,-0.03926950444354458 240.0,-2.1437508791444562e-14 240.1,0.03926950444353723 240.2,0.0785365865591037 240.3,0.1177988241680531 240.4,0.1570537953906458 240.5,0.1962990787953316 240.6,0.23553225354820384 240.7,0.2747508995622213 240.8,0.3139525976465791 240.9,0.3531349296558477 241.0,0.39229547863922326 241.1,0.4314318289896174 241.2,0.4705415665925564 241.3,0.5096222789752547 241.4,0.5486715554552152 241.5,0.587686987289179 241.6,0.6266661678215141 241.7,0.6656066926327565 241.8,0.7045061596879276 241.9,0.7433621694846138 242.0,0.782172325201155 242.1,0.8209342328443174 242.2,0.8596455013970523 242.3,0.8983037429659518 242.4,0.9369065729286142 242.5,0.9754516100806344 242.6,1.0139364767825574 242.7,1.052358799106508 242.8,1.0907162069827117 242.9,1.1290063343455194 243.0,1.1672268192795299 243.1,1.205375304165198 243.2,1.2434494358242634 243.3,1.2814468656649747 243.4,1.319365249826858 243.5,1.3572022493253666 243.6,1.3949555301961265 243.7,1.4326227636389737 243.8,1.4702016261615207 243.9,1.5076897997224814 244.0,1.545084971874742 244.1,1.5823848359079205 244.2,1.619587090990739 244.3,1.6566894423128486 244.4,1.6936896012264526 244.5,1.7305852853874457 244.6,1.7673742188962684 244.7,1.8040541324382104 244.8,1.840622763423393 244.9,1.8770778561264203 245.0,1.9134171618254392 245.1,1.9496384389409338 245.2,1.9857394531738972 245.3,2.0217179776437373 245.4,2.0575717930255575 245.5,2.09329868768714 245.6,2.128896457825365 245.7,2.1643629076020567 245.8,2.1996958492795806 245.9,2.2348931033555965 246.0,2.2699524986977266 246.1,2.3048718726773063 246.2,2.3396490713028633 246.3,2.3742819493529863 246.4,2.408768370508576 246.5,2.4431062074847762 246.6,2.477293342162041 246.7,2.5113276657168675 246.8,2.5452070787518477 246.9,2.5789294914252303 247.0,2.612492823579739 247.1,2.6458950048709493 247.2,2.6791339748949667 247.3,2.7122076833155937 247.4,2.7451140899906603 247.5,2.7778511650980144 247.6,2.810416889260658 247.7,2.842809253671312 247.8,2.8750262602163863 247.9,2.9070659215991483 248.0,2.9389262614623624 248.1,2.970605314510177 248.2,3.002101126629406 248.3,3.0334117550100004 248.4,3.0645352682648856 248.5,3.095469746549175 248.6,3.126213281678518 248.7,3.1567639772468823 248.8,3.1871199487434443 248.9,3.2172793236688917 249.0,3.2472402416509034 249.1,3.277000854558956 249.2,3.3065593266182614 249.3,3.3359138345230015 249.4,3.3650625675488715 249.5,3.3940037276647015 249.6,3.422735529643438 249.7,3.451256201172182 249.8,3.479563982961582 249.9,3.507657128854265 250.0,3.5355339059327258 250.1,3.563192594626029 250.2,3.5906314888159354 250.3,3.617848895942251 250.4,3.644843137107051 250.5,3.6716125471784227 250.6,3.698155474893045 250.7,3.7244702829581082 250.8,3.7505553481523086 250.9,3.7764090614259183 251.0,3.8020298280001565 251.1,3.8274160674654323 251.2,3.852566213878939 251.3,3.8774787158611668 251.4,3.9021520366916445 251.5,3.9265846544037215 251.6,3.95077506187845 251.7,3.974721766937539 251.8,3.9984232924354535 251.9,4.021878176350424 252.0,4.04508497187474 252.1,4.068042247503939 252.2,4.090748587125112 252.3,4.1132025901042955 252.4,4.135402871372806 252.5,4.1573480615127245 252.6,4.179036806841341 252.7,4.200467769494701 252.8,4.221639627510077 252.9,4.242551074907521 253.0,4.263200821770464 253.1,4.283587594325244 253.2,4.303710135019715 253.3,4.323567202600773 253.4,4.343157572190955 253.5,4.362480035363976 253.6,4.38153340021931 253.7,4.400316491455661 253.8,4.41882815044347 253.9,4.4370672352964196 254.0,4.455032620941836 254.1,4.472723199190122 254.2,4.490137878803076 254.3,4.507275585561227 254.4,4.52413526233009 254.5,4.5407158691254 254.6,4.557016383177228 254.7,4.573035798993063 254.8,4.588773128419902 254.9,4.604227400705135 255.0,4.619397662556438 255.1,4.634282978200602 255.2,4.648882429441256 255.3,4.663195115715471 255.4,4.677220154149337 255.5,4.690956679612422 255.6,4.704403844771123 255.7,4.717560820140965 255.8,4.730426794137729 255.9,4.743000973127527 256.0,4.755282581475766 256.1,4.767270861595005 256.2,4.7789650739916505 256.3,4.790364497311597 256.4,4.801468428384716 256.5,4.812276182268233 256.6,4.822787092288988 256.7,4.833000510084535 256.8,4.842915805643159 256.9,4.852532367342707 257.0,4.861849601988383 257.1,4.870866934849246 257.2,4.879583809693738 257.3,4.887999688823954 257.4,4.8961140531088265 257.5,4.90392640201615 257.6,4.911436253643445 257.7,4.918643144747682 257.8,4.9255466307738685 257.9,4.9321462858824745 258.0,4.938441702975689 258.1,4.944432493722523 258.2,4.950118288582789 258.3,4.955498736829872 258.4,4.960573506572389 258.5,4.965342284774633 258.6,4.9698047772758995 258.7,4.973960708808632 258.8,4.9778098230154 258.9,4.981351882464706 259.0,4.9845866686656395 259.1,4.987513982081351 259.2,4.990133642141357 259.3,4.992445487252689 259.4,4.994449374809849 259.5,4.996145181203615 259.6,4.997532801828657 259.7,4.998612151090002 259.8,4.999383162408303 259.9,4.999845788223948 260.0,5.0 260.1,4.999845788223949 260.2,4.999383162408303 260.3,4.998612151090002 260.4,4.997532801828658 260.5,4.996145181203615 260.6,4.99444937480985 260.7,4.99244548725269 260.8,4.990133642141358 260.9,4.98751398208135 261.0,4.984586668665641 261.1,4.981351882464708 261.2,4.9778098230154 261.3,4.973960708808631 261.4,4.9698047772759 261.5,4.965342284774631 261.6,4.960573506572389 261.7,4.955498736829874 261.8,4.950118288582787 261.9,4.944432493722524 262.0,4.93844170297569 262.1,4.932146285882475 262.2,4.925546630773873 262.3,4.91864314474768 262.4,4.911436253643447 262.5,4.903926402016152 262.6,4.896114053108828 262.7,4.887999688823952 262.8,4.87958380969374 262.9,4.870866934849248 263.0,4.86184960198838 263.1,4.852532367342709 263.2,4.842915805643156 263.3,4.833000510084537 263.4,4.822787092288995 263.5,4.812276182268235 263.6,4.801468428384713 263.7,4.790364497311598 263.8,4.778965073991653 263.9,4.767270861595009 264.0,4.755282581475764 264.1,4.743000973127524 264.2,4.730426794137727 264.3,4.717560820140967 264.4,4.704403844771126 264.5,4.690956679612419 264.6,4.677220154149341 264.7,4.663195115715474 264.8,4.648882429441253 264.9,4.634282978200613 265.0,4.619397662556434 265.1,4.604227400705131 265.2,4.588773128419905 265.3,4.573035798993066 265.4,4.557016383177224 265.5,4.54071586912541 265.6,4.524135262330101 265.7,4.5072755855612305 265.8,4.490137878803072 265.9,4.472723199190134 266.0,4.455032620941839 266.1,4.437067235296415 266.2,4.418828150443465 266.3,4.400316491455657 266.4,4.381533400219323 266.5,4.362480035363989 266.6,4.34315757219095 266.7,4.323567202600786 266.8,4.303710135019719 266.9,4.283587594325257 267.0,4.26320082177046 267.1,4.2425510749075155 267.2,4.221639627510072 267.3,4.200467769494715 267.4,4.1790368068413555 267.5,4.157348061512719 267.6,4.135402871372801 267.7,4.11320259010431 267.8,4.090748587125116 267.9,4.068042247503944 268.0,4.045084971874735 268.1,4.021878176350419 268.2,3.998423292435458 268.3,3.9747217669375545 268.4,3.950775061878455 268.5,3.9265846544037153 268.6,3.90215203669165 268.7,3.8774787158611717 268.8,3.8525662138789443 268.9,3.8274160674654487 269.0,3.8020298280001503 269.1,3.776409061425924 269.2,3.7505553481523024 269.3,3.7244702829581016 269.4,3.6981554748930625 269.5,3.6716125471784284 269.6,3.644843137107057 269.7,3.6178488959422443 269.8,3.5906314888159407 269.9,3.5631925946260217 270.0,3.535533905932744 270.1,3.5076571288542837 270.2,3.479563982961575 270.3,3.451256201172175 270.4,3.422735529643457 270.5,3.3940037276647077 270.6,3.3650625675488643 270.7,3.3359138345229944 270.8,3.3065593266182534 270.9,3.2770008545589757 271.0,3.2472402416509234 271.1,3.2172793236688846 271.2,3.1871199487434643 271.3,3.1567639772468885 271.4,3.1262132816785386 271.5,3.095469746549167 271.6,3.064535268264878 271.7,3.0334117550099924 271.8,3.0021011266294266 271.9,2.9706053145101974 272.0,2.9389262614623544 272.1,2.9070659215991403 272.2,2.875026260216407 272.3,2.8428092536713185 272.4,2.8104168892606647 272.5,2.7778511650980064 272.6,2.7451140899906523 272.7,2.712207683315601 272.8,2.679133974894988 272.9,2.6458950048709564 273.0,2.6124928235797307 273.1,2.578929491425237 273.2,2.54520707875187 273.3,2.511327665716859 273.4,2.477293342162048 273.5,2.4431062074847674 273.6,2.408768370508583 273.7,2.374281949352978 273.8,2.3396490713028544 273.9,2.304871872677329 274.0,2.2699524986977337 274.1,2.2348931033556036 274.2,2.1996958492795717 274.3,2.164362907602064 274.4,2.128896457825388 274.5,2.093298687687147 274.6,2.0575717930255486 274.7,2.0217179776437284 274.8,1.9857394531738881 274.9,1.9496384389409573 275.0,1.9134171618254467 275.1,1.8770778561264112 275.2,1.8406227634233838 275.3,1.8040541324382011 275.4,1.7673742188962924 275.5,1.7305852853874697 275.6,1.6936896012264433 275.7,1.656689442312873 275.8,1.6195870909907464 275.9,1.5823848359079449 276.0,1.5450849718747328 276.1,1.5076897997224719 276.2,1.4702016261615114 276.3,1.432622763638998 276.4,1.3949555301961511 276.5,1.3572022493253744 276.6,1.3193652498268484 276.7,1.2814468656649993 276.8,1.2434494358242711 276.9,1.2053753041652058 277.0,1.1672268192795205 277.1,1.12900633434551 277.2,1.0907162069827194 277.3,1.052358799106533 277.4,1.0139364767825652 277.5,0.9754516100806249 277.6,0.936906572928622 277.7,0.8983037429659773 277.8,0.8596455013970428 277.9,0.8209342328443253 278.0,0.7821723252011453 278.1,0.7433621694846215 278.2,0.7045061596879179 278.3,0.6656066926327469 278.4,0.6266661678215396 278.5,0.587686987289187 278.6,0.5486715554552231 278.7,0.5096222789752449 278.8,0.47054156659256435 278.9,0.431431828989643 279.0,0.3922954786392312 279.1,0.35313492965583787 279.2,0.31395259764656935 279.3,0.2747508995622115 279.4,0.23553225354822957 279.5,0.19629907879533953 279.6,0.15705379539063596 279.7,0.1177988241680433 279.8,0.07853658655909389 279.9,0.03926950444356295 280.0,4.2862637970157365e-15 280.1,-0.03926950444357215 280.2,-0.07853658655908533 280.3,-0.11779882416805247 280.4,-0.15705379539062742 280.5,-0.19629907879534875 280.6,-0.235532253548221 280.7,-0.2747508995622384 280.8,-0.3139525976465608 280.9,-0.3531349296558294 281.0,-0.39229547863922265 281.1,-0.4314318289896345 281.2,-0.4705415665925558 281.3,-0.509622278975254 281.4,-0.5486715554552145 281.5,-0.5876869872891961 281.6,-0.6266661678215311 281.7,-0.665606692632756 281.8,-0.7045061596879094 281.9,-0.7433621694846131 282.0,-0.7821723252011369 282.1,-0.8209342328443169 282.2,-0.8596455013970343 282.3,-0.8983037429659688 282.4,-0.9369065729286137 282.5,-0.9754516100806512 282.6,-1.013936476782557 282.7,-1.0523587991065249 282.8,-1.0907162069827285 282.9,-1.1290063343455015 283.0,-1.1672268192795294 283.1,-1.2053753041651976 283.2,-1.243449435824263 283.3,-1.2814468656649913 283.4,-1.3193652498268402 283.5,-1.3572022493253662 283.6,-1.394955530196143 283.7,-1.43262276363899 283.8,-1.4702016261615372 283.9,-1.5076897997224639 284.0,-1.5450849718747415 284.1,-1.5823848359079369 284.2,-1.619587090990755 284.3,-1.6566894423128646 284.4,-1.6936896012264353 284.5,-1.7305852853874617 284.6,-1.7673742188963009 284.7,-1.8040541324381931 284.8,-1.8406227634233923 284.9,-1.8770778561264032 285.0,-1.913417161825455 285.1,-1.9496384389409493 285.2,-1.9857394531739128 285.3,-2.0217179776437204 285.4,-2.057571793025541 285.5,-2.0932986876871396 285.6,-2.1288964578253804 285.7,-2.1643629076020563 285.8,-2.19969584927958 285.9,-2.2348931033555957 286.0,-2.269952498697742 286.1,-2.3048718726773214 286.2,-2.3396490713028624 286.3,-2.3742819493529703 286.4,-2.4087683705085756 286.5,-2.4431062074847603 286.6,-2.4772933421620404 286.7,-2.5113276657168515 286.8,-2.545207078751863 286.9,-2.57892949142523 287.0,-2.612492823579754 287.1,-2.645895004870949 287.2,-2.679133974894981 287.3,-2.7122076833156084 287.4,-2.745114089990645 287.5,-2.7778511650979993 287.6,-2.810416889260657 287.7,-2.8428092536713114 287.8,-2.8750262602164005 287.9,-2.9070659215991332 288.0,-2.9389262614623624 288.1,-2.9706053145101907 288.2,-3.00210112662942 288.3,-3.0334117550100137 288.4,-3.0645352682648714 288.5,-3.095469746549174 288.6,-3.1262132816785315 288.7,-3.156763977246882 288.8,-3.1871199487434576 288.9,-3.217279323668878 289.0,-3.2472402416509167 289.1,-3.277000854558983 289.2,-3.3065593266182476 289.3,-3.335913834523001 289.4,-3.3650625675488577 289.5,-3.3940037276647144 289.6,-3.4227355296434503 289.7,-3.4512562011721943 289.8,-3.4795639829615688 289.9,-3.5076571288542646 290.0,-3.5355339059327378 290.1,-3.5631925946260408 290.2,-3.5906314888159345 290.3,-3.6178488959422506 290.4,-3.644843137107051 290.5,-3.6716125471784347 290.6,-3.6981554748930563 290.7,-3.724470282958108 290.8,-3.750555348152296 290.9,-3.7764090614259183 291.0,-3.8020298280001446 291.1,-3.8274160674654434 291.2,-3.8525662138789385 291.3,-3.8774787158611774 291.4,-3.902152036691644 291.5,-3.9265846544037326 291.6,-3.95077506187845 291.7,-3.9747217669375488 291.8,-3.998423292435453 291.9,-4.0218781763504134 292.0,-4.045084971874729 292.1,-4.068042247503939 292.2,-4.090748587125112 292.3,-4.113202590104305 292.4,-4.135402871372796 292.5,-4.1573480615127245 292.6,-4.179036806841351 292.7,-4.2004677694947095 292.8,-4.221639627510086 292.9,-4.242551074907511 293.0,-4.263200821770456 293.1,-4.283587594325253 293.2,-4.303710135019714 293.3,-4.323567202600781 293.4,-4.343157572190946 293.5,-4.362480035363985 293.6,-4.381533400219327 293.7,-4.400316491455652 293.8,-4.41882815044347 293.9,-4.437067235296412 294.0,-4.455032620941843 294.1,-4.47272319919013 294.2,-4.490137878803068 294.3,-4.507275585561227 294.4,-4.5241352623300894 294.5,-4.540715869125407 294.6,-4.557016383177235 294.7,-4.573035798993063 294.8,-4.588773128419908 294.9,-4.604227400705128 295.0,-4.619397662556438 295.1,-4.634282978200609 295.2,-4.648882429441256 295.3,-4.663195115715471 295.4,-4.677220154149325 295.5,-4.690956679612416 295.6,-4.704403844771129 295.7,-4.717560820140965 295.8,-4.730426794137729 295.9,-4.743000973127521 296.0,-4.755282581475772 296.1,-4.767270861595005 296.2,-4.7789650739916505 296.3,-4.790364497311596 296.4,-4.8014684283847116 296.5,-4.812276182268233 296.6,-4.822787092288992 296.7,-4.833000510084535 296.8,-4.842915805643159 296.9,-4.8525323673427065 297.0,-4.861849601988382 297.1,-4.870866934849246 297.2,-4.879583809693737 297.3,-4.8879996888239505 297.4,-4.8961140531088265 297.5,-4.90392640201615 297.6,-4.911436253643445 297.7,-4.918643144747678 297.8,-4.925546630773872 297.9,-4.9321462858824745 298.0,-4.938441702975689 298.1,-4.944432493722526 298.2,-4.950118288582786 298.3,-4.955498736829875 298.4,-4.960573506572388 298.5,-4.96534228477463 298.6,-4.9698047772758995 298.7,-4.97396070880863 298.8,-4.9778098230154 298.9,-4.981351882464705 299.0,-4.9845866686656395 299.1,-4.987513982081352 299.2,-4.990133642141357 299.3,-4.99244548725269 299.4,-4.994449374809849 299.5,-4.996145181203615 299.6,-4.997532801828658 299.7,-4.998612151090002 299.8,-4.999383162408303 299.9,-4.999845788223948 300.0,-5.0 300.1,-4.999845788223948 300.2,-4.999383162408303 300.3,-4.998612151090002 300.4,-4.997532801828658 300.5,-4.996145181203614 300.6,-4.99444937480985 300.7,-4.99244548725269 300.8,-4.990133642141358 300.9,-4.987513982081352 301.0,-4.984586668665641 301.1,-4.981351882464706 301.2,-4.9778098230154 301.3,-4.973960708808631 301.4,-4.9698047772759 301.5,-4.965342284774631 301.6,-4.960573506572389 301.7,-4.955498736829874 301.8,-4.9501182885827895 301.9,-4.944432493722525 302.0,-4.93844170297569 302.1,-4.932146285882475 302.2,-4.92554663077387 302.3,-4.918643144747677 302.4,-4.911436253643447 302.5,-4.903926402016152 302.6,-4.896114053108825 302.7,-4.887999688823957 302.8,-4.879583809693735 302.9,-4.870866934849249 303.0,-4.861849601988385 303.1,-4.852532367342709 303.2,-4.842915805643161 303.3,-4.833000510084537 303.4,-4.822787092288995 303.5,-4.812276182268236 303.6,-4.801468428384709 303.7,-4.790364497311598 303.8,-4.778965073991648 303.9,-4.767270861595009 304.0,-4.755282581475769 304.1,-4.7430009731275184 304.2,-4.730426794137733 304.3,-4.717560820140967 304.4,-4.7044038447711385 304.5,-4.690956679612425 304.6,-4.677220154149334 304.7,-4.663195115715474 304.8,-4.648882429441253 304.9,-4.634282978200606 305.0,-4.619397662556429 305.1,-4.604227400705131 305.2,-4.588773128419913 305.3,-4.573035798993066 305.4,-4.557016383177238 305.5,-4.54071586912541 305.6,-4.524135262330093 305.7,-4.507275585561231 305.8,-4.490137878803072 305.9,-4.472723199190135 306.0,-4.455032620941839 306.1,-4.437067235296415 306.2,-4.418828150443465 306.3,-4.400316491455666 306.4,-4.381533400219332 306.5,-4.362480035363989 306.6,-4.34315757219095 306.7,-4.323567202600777 306.8,-4.303710135019711 306.9,-4.283587594325257 307.0,-4.26320082177046 307.1,-4.242551074907507 307.2,-4.221639627510082 307.3,-4.200467769494715 307.4,-4.1790368068413555 307.5,-4.15734806151273 307.6,-4.1354028713728015 307.7,-4.11320259010431 307.8,-4.090748587125117 307.9,-4.068042247503944 308.0,-4.045084971874735 308.1,-4.021878176350408 308.2,-3.9984232924354584 308.3,-3.974721766937544 308.4,-3.9507750618784554 308.5,-3.926584654403727 308.6,-3.9021520366916382 308.7,-3.8774787158611836 308.8,-3.8525662138789447 308.9,-3.8274160674654607 309.0,-3.802029828000162 309.1,-3.7764090614259125 309.2,-3.7505553481523024 309.3,-3.7244702829581025 309.4,-3.6981554748930505 309.5,-3.671612547178417 309.6,-3.644843137107057 309.7,-3.6178488959422572 309.8,-3.590631488815941 309.9,-3.5631925946260474 310.0,-3.535533905932744 310.1,-3.5076571288542713 310.2,-3.4795639829615754 310.3,-3.4512562011721752 310.4,-3.422735529643457 310.5,-3.3940037276647086 310.6,-3.3650625675488643 310.7,-3.335913834522995 310.8,-3.3065593266182676 310.9,-3.2770008545589895 311.0,-3.247240241650924 311.1,-3.217279323668885 311.2,-3.187119948743451 311.3,-3.156763977246875 311.4,-3.1262132816785386 311.5,-3.095469746549168 311.6,-3.0645352682648785 311.7,-3.033411755010007 311.8,-3.0021011266294275 311.9,-2.970605314510198 312.0,-2.9389262614623695 312.1,-2.907065921599141 312.2,-2.8750262602164076 312.3,-2.842809253671319 312.4,-2.810416889260665 312.5,-2.777851165098007 312.6,-2.745114089990638 312.7,-2.7122076833156012 312.8,-2.679133974894989 312.9,-2.645895004870957 313.0,-2.6124928235797467 313.1,-2.5789294914252228 313.2,-2.5452070787518704 313.3,-2.51132766571686 313.4,-2.477293342162064 313.5,-2.443106207484784 313.6,-2.408768370508568 313.7,-2.3742819493529783 313.8,-2.339649071302855 313.9,-2.304871872677314 314.0,-2.26995249869775 314.1,-2.234893103355604 314.2,-2.1996958492795886 314.3,-2.1643629076020647 314.4,-2.1288964578253884 314.5,-2.093298687687148 314.6,-2.0575717930255335 314.7,-2.021717977643729 314.8,-1.9857394531738888 314.9,-1.949638438940958 315.0,-1.9134171618254472 315.1,-1.8770778561264119 315.2,-1.8406227634234174 315.3,-1.804054132438218 315.4,-1.7673742188963095 315.5,-1.7305852853874704 315.6,-1.6936896012264437 315.7,-1.6566894423128566 315.8,-1.6195870909907304 315.9,-1.5823848359079453 316.0,-1.5450849718747333 316.1,-1.5076897997224725 316.2,-1.4702016261615292 316.3,-1.432622763638999 316.4,-1.394955530196169 316.5,-1.357202249325375 316.6,-1.319365249826849 316.7,-1.2814468656650002 316.8,-1.2434494358242718 316.9,-1.2053753041652064 317.0,-1.167226819279521 317.1,-1.1290063343455277 317.2,-1.09071620698272 317.3,-1.0523587991065337 317.4,-1.013936476782566 317.5,-0.975451610080643 317.6,-0.9369065729286052 317.7,-0.8983037429659778 317.8,-0.8596455013970433 317.9,-0.8209342328443434 318.0,-0.7821723252011635 318.1,-0.7433621694846047 318.2,-0.7045061596879186 318.3,-0.6656066926327652 318.4,-0.6266661678215225 318.5,-0.5876869872892052 318.6,-0.5486715554552237 318.7,-0.5096222789752632 318.8,-0.47054156659256496 318.9,-0.4314318289896436 319.0,-0.3922954786392318 319.1,-0.35313492965582083 319.2,-0.31395259764657 319.3,-0.2747508995622121 319.4,-0.23553225354823015 319.5,-0.1962990787953579 319.6,-0.1570537953906366 319.7,-0.11779882416807941 319.8,-0.07853658655911228 319.9,-0.03926950444358133 320.0,-4.898587196589413e-15 320.1,0.03926950444357153 320.2,0.07853658655910248 320.3,0.11779882416806962 320.4,0.1570537953906268 320.5,0.1962990787953481 320.6,0.23553225354822038 320.7,0.27475089956220233 320.8,0.3139525976465602 320.9,0.35313492965581106 321.0,0.392295478639222 321.1,0.43143182898963384 321.2,0.4705415665925552 321.3,0.5096222789752535 321.4,0.548671555455214 321.5,0.5876869872891954 321.6,0.6266661678215129 321.7,0.6656066926327554 321.8,0.7045061596879089 321.9,0.7433621694845949 322.0,0.7821723252011539 322.1,0.8209342328443338 322.2,0.8596455013970338 322.3,0.8983037429659682 322.4,0.9369065729285957 322.5,0.9754516100806332 322.6,1.0139364767825563 322.7,1.0523587991065242 322.8,1.0907162069827105 322.9,1.1290063343455183 323.0,1.1672268192795114 323.1,1.205375304165197 323.2,1.2434494358242623 323.3,1.2814468656649904 323.4,1.3193652498268396 323.5,1.3572022493253655 323.6,1.3949555301961594 323.7,1.4326227636389897 323.8,1.4702016261615198 323.9,1.5076897997224634 324.0,1.545084971874724 324.1,1.5823848359079362 324.2,1.6195870909907208 324.3,1.6566894423128475 324.4,1.6936896012264346 324.5,1.7305852853874613 324.6,1.7673742188963004 324.7,1.804054132438209 324.8,1.8406227634234082 324.9,1.8770778561264025 325.0,1.913417161825438 325.1,1.9496384389409487 325.2,1.98573945317388 325.3,2.0217179776437195 325.4,2.0575717930255246 325.5,2.093298687687139 325.6,2.1288964578253795 325.7,2.164362907602056 325.8,2.1996958492795797 325.9,2.234893103355595 326.0,2.2699524986977098 326.1,2.304871872677337 326.2,2.3396490713028464 326.3,2.3742819493529854 326.4,2.408768370508559 326.5,2.4431062074847905 326.6,2.477293342162055 326.7,2.5113276657168666 326.8,2.5452070787518624 326.9,2.5789294914252143 327.0,2.612492823579738 327.1,2.6458950048709484 327.2,2.6791339748949805 327.3,2.712207683315593 327.4,2.7451140899906594 327.5,2.7778511650979985 327.6,2.8104168892606425 327.7,2.8428092536713105 327.8,2.8750262602163708 327.9,2.907065921599133 328.0,2.9389262614623473 328.1,2.9706053145102045 328.2,3.0021011266294053 328.3,3.0334117550100133 328.4,3.064535268264857 328.5,3.0954697465491736 328.6,3.1262132816785315 328.7,3.156763977246895 328.8,3.187119948743443 328.9,3.2172793236688912 329.0,3.247240241650916 329.1,3.277000854558969 329.2,3.3065593266182605 329.3,3.3359138345229877 329.4,3.3650625675488577 329.5,3.3940037276647006 329.6,3.422735529643463 329.7,3.451256201172168 329.8,3.479563982961581 329.9,3.507657128854264 330.0,3.5355339059327244 330.1,3.56319259462604 330.2,3.590631488815922 330.3,3.6178488959422506 330.4,3.6448431371070504 330.5,3.6716125471784338 330.6,3.698155474893044 330.7,3.7244702829581073 330.8,3.750555348152296 330.9,3.776409061425918 331.0,3.8020298280001557 331.1,3.827416067465432 331.2,3.8525662138789385 331.3,3.877478715861166 331.4,3.9021520366916325 331.5,3.92658465440371 331.6,3.9507750618784603 331.7,3.974721766937538 331.8,3.9984232924354632 331.9,4.021878176350403 332.0,4.04508497187475 332.1,4.068042247503938 332.2,4.0907485871251215 332.3,4.113202590104304 332.4,4.135402871372796 332.5,4.157348061512724 332.6,4.17903680684135 332.7,4.2004677694947095 332.8,4.2216396275100765 332.9,4.242551074907511 333.0,4.263200821770455 333.1,4.283587594325243 333.2,4.3037101350197045 333.3,4.323567202600763 333.4,4.343157572190945 333.5,4.362480035363976 333.6,4.381533400219327 333.7,4.400316491455643 333.8,4.418828150443478 333.9,4.437067235296411 334.0,4.455032620941843 334.1,4.47272319919013 334.2,4.4901378788030755 334.3,4.507275585561227 334.4,4.5241352623300966 334.5,4.540715869125407 334.6,4.557016383177227 334.7,4.573035798993063 334.8,4.588773128419901 334.9,4.604227400705128 335.0,4.619397662556424 335.1,4.634282978200615 335.2,4.648882429441249 335.3,4.663195115715476 335.4,4.677220154149331 335.5,4.690956679612409 335.6,4.704403844771135 335.7,4.717560820140964 335.8,4.730426794137729 335.9,4.743000973127515 336.0,4.755282581475766 336.1,4.767270861595005 336.2,4.77896507399165 336.3,4.790364497311596 336.4,4.801468428384716 336.5,4.812276182268233 336.6,4.822787092288988 336.7,4.833000510084534 336.8,4.842915805643149 336.9,4.8525323673427065 337.0,4.861849601988379 337.1,4.870866934849251 337.2,4.879583809693734 337.3,4.887999688823958 337.4,4.896114053108823 337.5,4.903926402016154 337.6,4.911436253643445 337.7,4.918643144747682 337.8,4.9255466307738685 337.9,4.932146285882474 338.0,4.938441702975688 338.1,4.944432493722523 338.2,4.950118288582789 338.3,4.955498736829872 338.4,4.960573506572388 338.5,4.96534228477463 338.6,4.969804777275896 338.7,4.97396070880863 338.8,4.977809823015399 338.9,4.981351882464705 339.0,4.984586668665639 339.1,4.987513982081352 339.2,4.990133642141356 339.3,4.99244548725269 339.4,4.994449374809849 339.5,4.996145181203615 339.6,4.997532801828657 339.7,4.998612151090002 339.8,4.999383162408303 339.9,4.999845788223948 340.0,5.0 340.1,4.999845788223949 340.2,4.999383162408303 340.3,4.998612151090002 340.4,4.997532801828658 340.5,4.996145181203616 340.6,4.994449374809849 340.7,4.992445487252691 340.8,4.990133642141357 340.9,4.987513982081352 341.0,4.984586668665642 341.1,4.981351882464706 341.2,4.9778098230154 341.3,4.973960708808631 341.4,4.9698047772759 341.5,4.965342284774631 341.6,4.9605735065723895 341.7,4.955498736829874 341.8,4.950118288582787 341.9,4.944432493722525 342.0,4.93844170297569 342.1,4.932146285882479 342.2,4.925546630773874 342.3,4.9186431447476835 342.4,4.911436253643447 342.5,4.903926402016156 342.6,4.896114053108825 342.7,4.88799968882396 342.8,4.879583809693732 342.9,4.870866934849249 343.0,4.86184960198838 343.1,4.852532367342709 343.2,4.842915805643156 343.3,4.833000510084537 343.4,4.822787092288995 343.5,4.812276182268236 343.6,4.801468428384714 343.7,4.790364497311598 343.8,4.778965073991653 343.9,4.767270861595009 344.0,4.755282581475775 344.1,4.74300097312753 344.2,4.730426794137733 344.3,4.7175608201409736 344.4,4.704403844771132 344.5,4.690956679612431 344.6,4.677220154149328 344.7,4.663195115715474 344.8,4.648882429441253 344.9,4.634282978200613 345.0,4.619397662556435 345.1,4.604227400705131 345.2,4.588773128419906 345.3,4.573035798993066 345.4,4.557016383177224 345.5,4.540715869125411 345.6,4.524135262330101 345.7,4.507275585561231 345.8,4.490137878803088 345.9,4.472723199190135 346.0,4.455032620941848 346.1,4.437067235296407 346.2,4.418828150443474 346.3,4.400316491455649 346.4,4.381533400219332 346.5,4.36248003536399 346.6,4.34315757219095 346.7,4.3235672026007865 346.8,4.3037101350197196 346.9,4.283587594325258 347.0,4.26320082177046 347.1,4.242551074907517 347.2,4.221639627510073 347.3,4.200467769494715 347.4,4.1790368068413555 347.5,4.15734806151273 347.6,4.135402871372822 347.7,4.1132025901043106 347.8,4.090748587125128 347.9,4.068042247503945 348.0,4.045084971874745 348.1,4.021878176350409 348.2,3.9984232924354695 348.3,3.9747217669375443 348.4,3.950775061878456 348.5,3.926584654403716 348.6,3.9021520366916502 348.7,3.877478715861172 348.8,3.852566213878945 348.9,3.8274160674654496 349.0,3.8020298280001508 349.1,3.7764090614259245 349.2,3.750555348152303 349.3,3.7244702829581144 349.4,3.6981554748930634 349.5,3.671612547178441 349.6,3.6448431371070455 349.7,3.6178488959422577 349.8,3.590631488815954 349.9,3.563192594626048 350.0,3.5355339059327573 350.1,3.5076571288542713 350.2,3.479563982961576 350.3,3.4512562011721757 350.4,3.4227355296434574 350.5,3.3940037276647086 350.6,3.365062567548865 350.7,3.3359138345229953 350.8,3.3065593266182547 350.9,3.2770008545589766 351.0,3.247240241650924 351.1,3.2172793236688992 351.2,3.1871199487434647 351.3,3.1567639772469036 351.4,3.126213281678539 351.5,3.095469746549182 351.6,3.064535268264865 351.7,3.0334117550100217 351.8,3.0021011266293995 351.9,2.9706053145101983 352.0,2.9389262614623703 352.1,2.9070659215991412 352.2,2.8750262602164085 352.3,2.842809253671319 352.4,2.8104168892606656 352.5,2.7778511650980073 352.6,2.745114089990653 352.7,2.7122076833156017 352.8,2.6791339748949894 352.9,2.6458950048709573 353.0,2.612492823579762 353.1,2.578929491425254 353.2,2.5452070787518712 353.3,2.5113276657168755 353.4,2.477293342162049 353.5,2.4431062074848 353.6,2.408768370508553 353.7,2.374281949352979 353.8,2.3396490713028557 353.9,2.3048718726773303 354.0,2.2699524986977346 354.1,2.2348931033556045 354.2,2.199695849279573 354.3,2.164362907602065 354.4,2.1288964578253893 354.5,2.0932986876871484 354.6,2.05757179302555 354.7,2.0217179776437293 354.8,1.985739453173922 354.9,1.9496384389409585 355.0,1.913417161825464 355.1,1.8770778561263959 355.2,1.8406227634234016 355.3,1.8040541324382353 355.4,1.7673742188963102 355.5,1.730585285387471 355.6,1.6936896012264444 355.7,1.6566894423128742 355.8,1.6195870909907475 355.9,1.582384835907946 356.0,1.545084971874734 356.1,1.5076897997224734 356.2,1.4702016261615127 356.3,1.4326227636389997 356.4,1.3949555301961525 356.5,1.3572022493253755 356.6,1.3193652498268837 356.7,1.2814468656650009 356.8,1.2434494358242896 356.9,1.2053753041652069 357.0,1.167226819279539 357.1,1.1290063343454937 357.2,1.090716206982738 357.3,1.0523587991065169 357.4,1.0139364767825665 357.5,0.975451610080626 357.6,0.9369065729286232 357.7,0.8983037429659784 357.8,0.8596455013970439 357.9,0.8209342328443264 358.0,0.7821723252011465 358.1,0.7433621694846227 358.2,0.7045061596879192 358.3,0.6656066926327657 358.4,0.6266661678215407 358.5,0.5876869872892058 358.6,0.5486715554552419 358.7,0.5096222789752638 358.8,0.4705415665925833 358.9,0.4314318289896443 359.0,0.39229547863925013 359.1,0.3531349296558214 359.2,0.31395259764657063 359.3,0.2747508995622127 359.4,0.23553225354823076 359.5,0.1962990787953408 359.6,0.15705379539063719 359.7,0.1177988241680445 359.8,0.07853658655909512 359.9,0.039269504443564175 360.0,5.5109105961630896e-15 360.1,-0.039269504443553156 360.2,-0.0785365865590841 360.3,-0.11779882416803349 360.4,-0.1570537953906262 360.5,-0.19629907879532976 360.6,-0.2355322535482375 360.7,-0.2747508995622017 360.8,-0.3139525976465419 360.9,-0.3531349296558281 361.0,-0.39229547863922143 361.1,-0.4314318289896333 361.2,-0.47054156659255464 361.3,-0.5096222789752529 361.4,-0.5486715554552134 361.5,-0.5876869872891949 361.6,-0.62666616782153 361.7,-0.6656066926327547 361.8,-0.7045061596879082 361.9,-0.743362169484612 362.0,-0.7821723252011358 362.1,-0.8209342328442981 362.2,-0.859645501397033 362.3,-0.8983037429659501 362.4,-0.9369065729286125 362.5,-0.9754516100806152 362.6,-1.0139364767825905 362.7,-1.0523587991065235 362.8,-1.0907162069827272 362.9,-1.1290063343455004 363.0,-1.167226819279528 363.1,-1.2053753041651962 363.2,-1.2434494358242616 363.3,-1.28144686566499 363.4,-1.3193652498268391 363.5,-1.3572022493253648 363.6,-1.3949555301961416 363.7,-1.432622763638989 363.8,-1.4702016261615023 363.9,-1.5076897997224628 364.0,-1.5450849718747235 364.1,-1.5823848359079187 364.2,-1.6195870909907373 364.3,-1.65668944231283 364.4,-1.693689601226434 364.5,-1.7305852853874606 364.6,-1.7673742188963 364.7,-1.804054132438192 364.8,-1.8406227634233914 364.9,-1.877077856126402 365.0,-1.9134171618254538 365.1,-1.9496384389409482 365.2,-1.9857394531739117 365.3,-2.021717977643719 365.4,-2.0575717930255397 365.5,-2.0932986876871382 365.6,-2.128896457825347 365.7,-2.164362907602055 365.8,-2.1996958492795633 365.9,-2.2348931033555948 366.0,-2.2699524986977253 366.1,-2.304871872677336 366.2,-2.339649071302846 366.3,-2.3742819493529694 366.4,-2.4087683705085747 366.5,-2.4431062074847594 366.6,-2.4772933421620396 366.7,-2.51132766571685 366.8,-2.5452070787518615 366.9,-2.5789294914252285 367.0,-2.612492823579753 367.1,-2.645895004870948 367.2,-2.67913397489498 367.3,-2.7122076833155924 367.4,-2.745114089990644 367.5,-2.777851165097998 367.6,-2.810416889260642 367.7,-2.84280925367131 367.8,-2.875026260216385 367.9,-2.9070659215991324 368.0,-2.938926261462347 368.1,-2.970605314510204 368.2,-3.002101126629419 368.3,-3.033411755010013 368.4,-3.06453526826487 368.5,-3.095469746549173 368.6,-3.126213281678531 368.7,-3.1567639772468814 368.8,-3.1871199487434563 368.9,-3.217279323668877 369.0,-3.2472402416509154 369.1,-3.2770008545589686 369.2,-3.3065593266182463 369.3,-3.3359138345229873 369.4,-3.365062567548857 369.5,-3.3940037276647006 369.6,-3.4227355296434365 369.7,-3.4512562011721677 369.8,-3.4795639829615554 369.9,-3.507657128854276 370.0,-3.535533905932737 370.1,-3.56319259462604 370.2,-3.5906314888159336 370.3,-3.61784889594225 370.4,-3.64484313710705 370.5,-3.6716125471784338 370.6,-3.6981554748930554 370.7,-3.724470282958107 370.8,-3.7505553481522957 370.9,-3.776409061425917 371.0,-3.8020298280001437 371.1,-3.827416067465431 371.2,-3.852566213878938 371.3,-3.877478715861166 371.4,-3.9021520366916436 371.5,-3.926584654403709 371.6,-3.950775061878471 371.7,-3.9747217669375483 371.8,-3.9984232924354526 371.9,-4.021878176350413 372.0,-4.045084971874728 372.1,-4.0680422475039375 372.2,-4.090748587125111 372.3,-4.113202590104304 372.4,-4.135402871372795 372.5,-4.157348061512724 372.6,-4.179036806841349 372.7,-4.2004677694947095 372.8,-4.221639627510067 372.9,-4.242551074907511 373.0,-4.263200821770455 373.1,-4.283587594325243 373.2,-4.303710135019713 373.3,-4.323567202600763 373.4,-4.343157572190945 373.5,-4.362480035363984 373.6,-4.381533400219326 373.7,-4.400316491455652 373.8,-4.418828150443469 373.9,-4.437067235296411 374.0,-4.455032620941843 374.1,-4.4727231991901295 374.2,-4.4901378788030675 374.3,-4.507275585561227 374.4,-4.5241352623300894 374.5,-4.540715869125406 374.6,-4.55701638317722 374.7,-4.573035798993062 374.8,-4.5887731284199 374.9,-4.604227400705128 375.0,-4.619397662556431 375.1,-4.634282978200595 375.2,-4.648882429441249 375.3,-4.66319511571547 375.4,-4.677220154149336 375.5,-4.690956679612415 375.6,-4.704403844771129 375.7,-4.717560820140964 375.8,-4.730426794137729 375.9,-4.743000973127521 376.0,-4.755282581475772 376.1,-4.767270861595005 376.2,-4.77896507399165 376.3,-4.790364497311596 376.4,-4.801468428384711 376.5,-4.812276182268232 376.6,-4.822787092288988 376.7,-4.833000510084534 376.8,-4.842915805643154 376.9,-4.8525323673427065 377.0,-4.861849601988378 377.1,-4.870866934849251 377.2,-4.879583809693737 377.3,-4.8879996888239505 377.4,-4.896114053108826 377.5,-4.90392640201615 377.6,-4.911436253643445 377.7,-4.918643144747678 377.8,-4.925546630773871 377.9,-4.932146285882474 378.0,-4.938441702975688 378.1,-4.944432493722523 378.2,-4.950118288582786 378.3,-4.955498736829872 378.4,-4.960573506572388 378.5,-4.96534228477463 378.6,-4.969804777275898 378.7,-4.97396070880863 378.8,-4.977809823015399 378.9,-4.981351882464706 379.0,-4.9845866686656395 379.1,-4.987513982081352 379.2,-4.990133642141357 379.3,-4.99244548725269 379.4,-4.994449374809849 379.5,-4.996145181203615 379.6,-4.997532801828658 379.7,-4.998612151090002 379.8,-4.999383162408303 379.9,-4.999845788223948 380.0,-5.0 380.1,-4.999845788223949 380.2,-4.999383162408303 380.3,-4.998612151090002 380.4,-4.997532801828658 380.5,-4.996145181203616 380.6,-4.99444937480985 380.7,-4.99244548725269 380.8,-4.990133642141358 380.9,-4.987513982081351 381.0,-4.984586668665641 381.1,-4.981351882464706 381.2,-4.977809823015401 381.3,-4.973960708808631 381.4,-4.9698047772759 381.5,-4.965342284774632 381.6,-4.9605735065723895 381.7,-4.955498736829874 381.8,-4.9501182885827895 381.9,-4.944432493722525 382.0,-4.93844170297569 382.1,-4.932146285882479 382.2,-4.92554663077387 382.3,-4.9186431447476835 382.4,-4.911436253643447 382.5,-4.903926402016152 382.6,-4.896114053108825 382.7,-4.887999688823957 382.8,-4.879583809693735 382.9,-4.870866934849249 383.0,-4.861849601988385 383.1,-4.852532367342709 383.2,-4.842915805643161 383.3,-4.833000510084537 383.4,-4.822787092288995 383.5,-4.812276182268236 383.6,-4.8014684283847195 383.7,-4.790364497311599 383.8,-4.778965073991653 383.9,-4.767270861595009 384.0,-4.75528258147577 384.1,-4.74300097312753 384.2,-4.730426794137733 384.3,-4.717560820140968 384.4,-4.704403844771127 384.5,-4.690956679612425 384.6,-4.677220154149334 384.7,-4.663195115715474 384.8,-4.648882429441254 384.9,-4.6342829782006065 385.0,-4.619397662556429 385.1,-4.604227400705132 385.2,-4.588773128419913 385.3,-4.573035798993067 385.4,-4.557016383177239 385.5,-4.540715869125411 385.6,-4.524135262330102 385.7,-4.507275585561231 385.8,-4.490137878803081 385.9,-4.472723199190135 386.0,-4.455032620941848 386.1,-4.437067235296416 386.2,-4.418828150443466 386.3,-4.400316491455666 386.4,-4.381533400219324 386.5,-4.3624800353639905 386.6,-4.343157572190951 386.7,-4.3235672026007785 386.8,-4.303710135019711 386.9,-4.283587594325258 387.0,-4.263200821770461 387.1,-4.242551074907517 387.2,-4.221639627510083 387.3,-4.200467769494716 387.4,-4.179036806841356 387.5,-4.15734806151273 387.6,-4.135402871372812 387.7,-4.1132025901043106 387.8,-4.090748587125129 387.9,-4.068042247503935 388.0,-4.0450849718747355 388.1,-4.021878176350409 388.2,-3.998423292435459 388.3,-3.974721766937545 388.4,-3.950775061878456 388.5,-3.9265846544037277 388.6,-3.9021520366916396 388.7,-3.877478715861184 388.8,-3.8525662138789456 388.9,-3.8274160674654616 389.0,-3.8020298280001628 389.1,-3.776409061425925 389.2,-3.7505553481523037 389.3,-3.7244702829581144 389.4,-3.698155474893052 389.5,-3.6716125471784418 389.6,-3.64484313710707 389.7,-3.6178488959422457 389.8,-3.5906314888159416 389.9,-3.5631925946260354 390.0,-3.535533905932745 390.1,-3.5076571288542717 390.2,-3.479563982961576 390.3,-3.4512562011721757 390.4,-3.4227355296434583 390.5,-3.394003727664709 390.6,-3.3650625675488657 390.7,-3.3359138345229953 390.8,-3.3065593266182685 390.9,-3.277000854558991 391.0,-3.2472402416509243 391.1,-3.2172793236688997 391.2,-3.187119948743452 391.3,-3.156763977246904 391.4,-3.12621328167854 391.5,-3.0954697465491687 391.6,-3.06453526826488 391.7,-3.0334117550100084 391.8,-3.0021011266294284 391.9,-2.970605314510199 392.0,-2.938926261462371 392.1,-2.9070659215991417 392.2,-2.875026260216409 392.3,-2.8428092536713194 392.4,-2.810416889260666 392.5,-2.7778511650980073 392.6,-2.7451140899906683 392.7,-2.712207683315602 392.8,-2.67913397489499 392.9,-2.6458950048709577 393.0,-2.612492823579747 393.1,-2.5789294914252543 393.2,-2.5452070787518717 393.3,-2.5113276657168604 393.4,-2.4772933421620342 393.5,-2.4431062074847847 393.6,-2.408768370508569 393.7,-2.3742819493529796 393.8,-2.339649071302856 393.9,-2.3048718726773147 394.0,-2.269952498697751 394.1,-2.2348931033556054 394.2,-2.1996958492795895 394.3,-2.1643629076020656 394.4,-2.1288964578253897 394.5,-2.093298687687149 394.6,-2.0575717930255504 394.7,-2.02171797764373 394.8,-1.985739453173906 394.9,-1.9496384389409591 395.0,-1.9134171618254647 395.1,-1.8770778561264128 395.2,-1.8406227634233854 395.3,-1.8040541324382195 395.4,-1.7673742188962942 395.5,-1.7305852853874715 395.6,-1.693689601226445 395.7,-1.6566894423128578 395.8,-1.6195870909907315 395.9,-1.5823848359079464 396.0,-1.5450849718747346 396.1,-1.5076897997224739 396.2,-1.4702016261615303 396.3,-1.432622763639 396.4,-1.39495553019617 396.5,-1.357202249325376 396.6,-1.3193652498268673 396.7,-1.2814468656650013 396.8,-1.2434494358242902 396.9,-1.2053753041651902 397.0,-1.1672268192795223 397.1,-1.129006334345529 397.2,-1.0907162069827212 397.3,-1.0523587991065348 397.4,-1.013936476782567 397.5,-0.9754516100806441 397.6,-0.9369065729286065 397.7,-0.898303742965979 397.8,-0.8596455013970445 397.9,-0.8209342328443446 398.0,-0.7821723252011648 398.1,-0.7433621694846235 398.2,-0.7045061596879197 398.3,-0.6656066926327663 398.4,-0.6266661678215237 398.5,-0.5876869872892064 398.6,-0.5486715554552426 398.7,-0.5096222789752468 398.8,-0.47054156659256613 398.9,-0.4314318289896272 399.0,-0.39229547863923303 399.1,-0.353134929655822 399.2,-0.31395259764657124 399.3,-0.2747508995622133 399.4,-0.2355322535482314 399.5,-0.19629907879535916 399.6,-0.15705379539063782 399.7,-0.11779882416808064 399.8,-0.0785365865591135 399.9,-0.039269504443582556 400.0,-6.123233995736766e-15" stroke-width="1" stroke-linecap="round" stroke="#000000" fill="none"  />
<!-- Footer -->
</svg>
