<!-- Header -->
<svg
    version="1.1"
    baseProfile="full"
    xmlns="http://www.w3.org/2000/svg"
    xmlns:xlink="http://www.w3.org/1999/xlink"
    xmlns:ev="http://www.w3.org/2001/xml-events"
    width="410.0"
    height="20.0"
    viewBox="-5.0 -10.0 410.0 20.0"
    preserveAspectRatio="none"
>
<!-- Body -->
<!-- polyline -->
<polyline points="0.0,0.0 0.1,0.07853658655910338 0.2,0.15705379539064146 0.3,0.23553225354821328 0.4,0.31395259764656686 0.5,0.3922954786392247 0.6,0.47054156659257157 0.7,0.5486715554552263 0.8,0.6266661678215213 0.9,0.7045061596879133 1.0,0.7821723252011543 1.1,0.8596455013970478 1.2,0.936906572928623 1.3,1.0139364767825625 1.4,1.0907162069827125 1.5,1.167226819279527 1.6,1.243449435824274 1.7,1.3193652498268644 1.8,1.3949555301961465 1.9,1.4702016261615198 2.0,1.545084971874737 2.1,1.619587090990747 2.2,1.693689601226457 2.3,1.7673742188962853 2.4,1.8406227634233896 2.5,1.913417161825449 2.6,1.985739453173903 2.7,2.0575717930255437 2.8,2.128896457825363 2.9,2.1996958492795753 3.0,2.2699524986977337 3.1,2.339649071302867 3.2,2.4087683705085765 3.3,2.477293342162038 3.4,2.5452070787518566 3.5,2.612492823579744 3.6,2.679133974894983 3.7,2.745114089990659 3.8,2.8104168892606527 3.9,2.875026260216393 4.0,2.938926261462366 4.1,3.0021011266294195 4.2,3.0645352682648825 4.3,3.1262132816785257 4.4,3.1871199487434487 4.5,3.2472402416509185 4.6,3.306559326618259 4.7,3.3650625675488666 4.8,3.422735529643443 4.9,3.4795639829615723 5.0,3.5355339059327373 5.1,3.5906314888159434 5.2,3.644843137107058 5.3,3.698155474893048 5.4,3.7505553481522975 5.5,3.8020298280001548 5.6,3.8525662138789456 5.7,3.9021520366916485 5.8,3.9507750618784514 5.9,3.998423292435453 6.0,4.045084971874737 6.1,4.090748587125117 6.2,4.1354028713728095 6.3,4.179036806841351 6.4,4.221639627510076 6.5,4.263200821770461 6.6,4.303710135019719 6.7,4.3431575721909566 6.8,4.381533400219318 6.9,4.418828150443467 7.0,4.455032620941839 7.1,4.490137878803077 7.2,4.524135262330098 7.3,4.557016383177226 7.4,4.588773128419906 7.5,4.619397662556433 7.6,4.648882429441256 7.7,4.677220154149336 7.8,4.704403844771127 7.9,4.730426794137727 8.0,4.755282581475767 8.1,4.7789650739916505 8.2,4.801468428384715 8.3,4.822787092288991 8.4,4.842915805643155 8.5,4.861849601988383 8.6,4.879583809693737 8.7,4.896114053108828 8.8,4.911436253643443 8.9,4.92554663077387 9.0,4.938441702975689 9.1,4.950118288582788 9.2,4.960573506572389 9.3,4.969804777275899 9.4,4.9778098230154 9.5,4.9845866686656395 9.6,4.990133642141358 9.7,4.99444937480985 9.8,4.997532801828658 9.9,4.999383162408303 10.0,5.0 10.1,4.999383162408303 10.2,4.997532801828658 10.3,4.994449374809849 10.4,4.990133642141358 10.5,4.9845866686656395 10.6,4.9778098230154 10.7,4.969804777275899 10.8,4.9605735065723895 10.9,4.950118288582788 11.0,4.938441702975689 11.1,4.92554663077387 11.2,4.911436253643443 11.3,4.896114053108828 11.4,4.879583809693737 11.5,4.861849601988383 11.6,4.842915805643156 11.7,4.822787092288991 11.8,4.801468428384715 11.9,4.7789650739916505 12.0,4.755282581475768 12.1,4.730426794137727 12.2,4.704403844771128 12.3,4.677220154149336 12.4,4.648882429441257 12.5,4.619397662556434 12.6,4.5887731284199065 12.7,4.557016383177227 12.8,4.524135262330097 12.9,4.490137878803078 13.0,4.455032620941839 13.1,4.418828150443467 13.2,4.381533400219317 13.3,4.343157572190957 13.4,4.303710135019719 13.5,4.263200821770462 13.6,4.221639627510076 13.7,4.179036806841352 13.8,4.135402871372809 13.9,4.090748587125117 14.0,4.045084971874737 14.1,3.9984232924354517 14.2,3.9507750618784527 14.3,3.9021520366916485 14.4,3.852566213878946 14.5,3.8020298280001548 14.6,3.750555348152298 14.7,3.6981554748930496 14.8,3.644843137107057 14.9,3.5906314888159443 15.0,3.5355339059327395 15.1,3.4795639829615723 15.2,3.422735529643444 15.3,3.3650625675488666 15.4,3.306559326618259 15.5,3.247240241650919 15.6,3.187119948743449 15.7,3.126213281678527 15.8,3.0645352682648817 15.9,3.002101126629422 16.0,2.9389262614623664 16.1,2.8750262602163916 16.2,2.810416889260654 16.3,2.7451140899906585 16.4,2.679133974894985 16.5,2.6124928235797427 16.6,2.545207078751857 16.7,2.477293342162037 16.8,2.408768370508576 16.9,2.339649071302869 17.0,2.2699524986977324 17.1,2.1996958492795766 17.2,2.1288964578253626 17.3,2.0575717930255437 17.4,1.9857394531739052 17.5,1.9134171618254494 17.6,1.8406227634233887 17.7,1.7673742188962869 17.8,1.6936896012264566 17.9,1.6195870909907473 18.0,1.5450849718747375 18.1,1.4702016261615185 18.2,1.3949555301961478 18.3,1.3193652498268622 18.4,1.2434494358242763 18.5,1.1672268192795254 18.6,1.0907162069827117 18.7,1.0139364767825638 18.8,0.9369065729286229 18.9,0.8596455013970501 19.0,0.7821723252011549 19.1,0.7045061596879121 19.2,0.6266661678215226 19.3,0.5486715554552261 19.4,0.47054156659257396 19.5,0.3922954786392253 19.6,0.3139525976465657 19.7,0.235532253548217 19.8,0.15705379539064118 19.9,0.07853658655910355 20.0,6.123233995736766e-16 20.1,-0.07853658655910231 20.2,-0.15705379539063996 20.3,-0.23553225354821578 20.4,-0.3139525976465645 20.5,-0.3922954786392219 20.6,-0.47054156659257496 20.7,-0.5486715554552248 20.8,-0.6266661678215214 20.9,-0.7045061596879131 21.0,-0.7821723252011537 21.1,-0.8596455013970489 21.2,-0.9369065729286195 21.3,-1.0139364767825647 21.4,-1.0907162069827103 21.5,-1.1672268192795243 21.6,-1.243449435824273 21.7,-1.319365249826865 21.8,-1.3949555301961465 21.9,-1.4702016261615176 22.0,-1.5450849718747364 22.1,-1.6195870909907504 22.2,-1.6936896012264555 22.3,-1.7673742188962838 22.4,-1.8406227634233874 22.5,-1.9134171618254483 22.6,-1.9857394531739039 22.7,-2.0575717930255424 22.8,-2.1288964578253635 22.9,-2.1996958492795753 23.0,-2.269952498697731 23.1,-2.339649071302866 23.2,-2.408768370508575 23.3,-2.477293342162036 23.4,-2.5452070787518544 23.5,-2.6124928235797458 23.6,-2.6791339748949836 23.7,-2.745114089990657 23.8,-2.8104168892606527 23.9,-2.8750262602163907 24.0,-2.938926261462365 24.1,-3.0021011266294195 24.2,-3.064535268264881 24.3,-3.1262132816785257 24.4,-3.1871199487434465 24.5,-3.2472402416509176 24.6,-3.3065593266182605 24.7,-3.365062567548867 24.8,-3.422735529643442 24.9,-3.4795639829615714 25.0,-3.5355339059327373 25.1,-3.5906314888159434 25.2,-3.6448431371070567 25.3,-3.69815547489305 25.4,-3.7505553481522975 25.5,-3.8020298280001557 25.6,-3.852566213878947 25.7,-3.9021520366916462 25.8,-3.950775061878452 25.9,-3.9984232924354495 26.0,-4.045084971874736 26.1,-4.09074858712512 26.2,-4.135402871372808 26.3,-4.17903680684135 26.4,-4.2216396275100765 26.5,-4.263200821770462 26.6,-4.303710135019717 26.7,-4.343157572190954 26.8,-4.381533400219318 26.9,-4.418828150443467 27.0,-4.455032620941839 27.1,-4.490137878803077 27.2,-4.5241352623300966 27.3,-4.557016383177227 27.4,-4.588773128419905 27.5,-4.619397662556432 27.6,-4.648882429441257 27.7,-4.677220154149335 27.8,-4.704403844771127 27.9,-4.730426794137727 28.0,-4.755282581475767 28.1,-4.77896507399165 28.2,-4.801468428384716 28.3,-4.822787092288991 28.4,-4.8429158056431545 28.5,-4.861849601988382 28.6,-4.879583809693737 28.7,-4.896114053108828 28.8,-4.911436253643443 28.9,-4.925546630773869 29.0,-4.938441702975688 29.1,-4.950118288582789 29.2,-4.960573506572389 29.3,-4.969804777275898 29.4,-4.9778098230154 29.5,-4.9845866686656395 29.6,-4.990133642141358 29.7,-4.99444937480985 29.8,-4.997532801828658 29.9,-4.999383162408303 30.0,-5.0 30.1,-4.999383162408303 30.2,-4.997532801828658 30.3,-4.99444937480985 30.4,-4.990133642141358 30.5,-4.9845866686656395 30.6,-4.9778098230154 30.7,-4.969804777275899 30.8,-4.9605735065723895 30.9,-4.950118288582789 31.0,-4.938441702975689 31.1,-4.92554663077387 31.2,-4.911436253643443 31.3,-4.896114053108829 31.4,-4.879583809693738 31.5,-4.861849601988383 31.6,-4.842915805643155 31.7,-4.8227870922889915 31.8,-4.801468428384716 31.9,-4.7789650739916505 32.0,-4.755282581475768 32.1,-4.730426794137726 32.2,-4.704403844771127 32.3,-4.677220154149337 32.4,-4.648882429441258 32.5,-4.619397662556433 32.6,-4.588773128419906 32.7,-4.557016383177226 32.8,-4.524135262330099 32.9,-4.490137878803078 33.0,-4.455032620941838 33.1,-4.418828150443465 33.2,-4.381533400219319 33.3,-4.343157572190957 33.4,-4.303710135019717 33.5,-4.26320082177046 33.6,-4.221639627510075 33.7,-4.179036806841351 33.8,-4.135402871372811 33.9,-4.09074858712512 34.0,-4.045084971874735 34.1,-3.9984232924354535 34.2,-3.950775061878453 34.3,-3.902152036691653 34.4,-3.852566213878945 34.5,-3.802029828000154 34.6,-3.7505553481522975 34.7,-3.6981554748930483 34.8,-3.6448431371070606 34.9,-3.5906314888159447 35.0,-3.5355339059327386 35.1,-3.4795639829615728 35.2,-3.4227355296434414 35.3,-3.365062567548869 35.4,-3.3065593266182614 35.5,-3.247240241650917 35.6,-3.1871199487434483 35.7,-3.126213281678522 35.8,-3.0645352682648825 35.9,-3.0021011266294204 36.0,-2.938926261462367 36.1,-2.8750262602163907 36.2,-2.810416889260651 36.3,-2.7451140899906608 36.4,-2.6791339748949854 36.5,-2.612492823579747 36.6,-2.545207078751852 36.7,-2.4772933421620333 36.8,-2.4087683705085805 36.9,-2.3396490713028677 37.0,-2.269952498697731 37.1,-2.199695849279573 37.2,-2.128896457825361 37.3,-2.057571793025546 37.4,-1.9857394531739059 37.5,-1.913417161825452 37.6,-1.8406227634233894 37.7,-1.7673742188962853 37.8,-1.6936896012264613 37.9,-1.619587090990752 38.0,-1.5450849718747381 38.1,-1.470201626161517 38.2,-1.3949555301961438 38.3,-1.3193652498268713 38.4,-1.2434494358242767 38.5,-1.1672268192795259 38.6,-1.090716206982712 38.7,-1.0139364767825623 38.8,-0.9369065729286279 38.9,-0.8596455013970484 39.0,-0.7821723252011556 39.1,-0.704506159687915 39.2,-0.626666167821519 39.3,-0.5486715554552333 39.4,-0.47054156659257895 39.5,-0.39229547863922376 39.6,-0.3139525976465663 39.7,-0.23553225354820875 39.8,-0.1570537953906418 39.9,-0.07853658655910416 40.0,-1.2246467991473533e-15 40.1,0.07853658655910171 40.2,0.15705379539063935 40.3,0.2355322535482063 40.4,0.3139525976465639 40.5,0.39229547863922126 40.6,0.47054156659257657 40.7,0.5486715554552308 40.8,0.6266661678215164 40.9,0.7045061596879125 41.0,0.7821723252011487 41.1,0.8596455013970461 41.2,0.9369065729286298 41.3,1.0139364767825598 41.4,1.0907162069827097 41.5,1.1672268192795323 41.6,1.2434494358242745 41.7,1.3193652498268689 41.8,1.3949555301961458 41.9,1.4702016261615147 42.0,1.545084971874736 42.1,1.6195870909907413 42.2,1.693689601226459 42.3,1.767374218896283 42.4,1.840622763423383 42.5,1.9134171618254499 42.6,1.9857394531739074 42.7,2.0575717930255437 42.8,2.128896457825359 42.9,2.199695849279575 43.0,2.269952498697729 43.1,2.339649071302869 43.2,2.4087683705085743 43.3,2.4772933421620316 43.4,2.545207078751858 43.5,2.6124928235797413 43.6,2.679133974894983 43.7,2.745114089990662 43.8,2.810416889260649 43.9,2.8750262602163885 44.0,2.9389262614623646 44.1,3.002101126629419 44.2,3.064535268264888 44.3,3.1262132816785204 44.4,3.187119948743446 44.5,3.247240241650919 44.6,3.3065593266182565 44.7,3.3650625675488666 44.8,3.4227355296434396 44.9,3.479563982961571 45.0,3.535533905932737 45.1,3.59063148881594 45.2,3.6448431371070593 45.3,3.6981554748930465 45.4,3.7505553481522957 45.5,3.8020298280001525 45.6,3.852566213878946 45.7,3.902152036691646 45.8,3.9507750618784514 45.9,3.9984232924354526 46.0,4.045084971874734 46.1,4.090748587125119 46.2,4.135402871372808 46.3,4.179036806841349 46.4,4.221639627510074 46.5,4.263200821770459 46.6,4.303710135019716 46.7,4.343157572190958 46.8,4.381533400219316 46.9,4.418828150443464 47.0,4.45503262094184 47.1,4.490137878803077 47.2,4.524135262330098 47.3,4.557016383177225 47.4,4.588773128419905 47.5,4.619397662556432 47.6,4.648882429441257 47.7,4.677220154149336 47.8,4.704403844771125 47.9,4.730426794137725 48.0,4.755282581475767 48.1,4.778965073991651 48.2,4.801468428384715 48.3,4.82278709228899 48.4,4.8429158056431545 48.5,4.861849601988383 48.6,4.879583809693737 48.7,4.896114053108828 48.8,4.911436253643442 48.9,4.925546630773869 49.0,4.938441702975688 49.1,4.950118288582788 49.2,4.9605735065723895 49.3,4.969804777275898 49.4,4.9778098230154 49.5,4.9845866686656395 49.6,4.990133642141358 49.7,4.99444937480985 49.8,4.997532801828658 49.9,4.999383162408303 50.0,5.0 50.1,4.999383162408303 50.2,4.997532801828658 50.3,4.994449374809849 50.4,4.990133642141358 50.5,4.98458666866564 50.6,4.9778098230153995 50.7,4.969804777275899 50.8,4.9605735065723895 50.9,4.950118288582789 51.0,4.938441702975688 51.1,4.92554663077387 51.2,4.911436253643443 51.3,4.896114053108829 51.4,4.879583809693739 51.5,4.861849601988384 51.6,4.842915805643155 51.7,4.822787092288989 51.8,4.801468428384718 51.9,4.77896507399165 52.0,4.755282581475768 52.1,4.730426794137726 52.2,4.704403844771125 52.3,4.677220154149339 52.4,4.648882429441258 52.5,4.619397662556434 52.6,4.588773128419907 52.7,4.557016383177227 52.8,4.5241352623300966 52.9,4.490137878803079 53.0,4.455032620941838 53.1,4.418828150443468 53.2,4.381533400219321 53.3,4.343157572190957 53.4,4.303710135019722 53.5,4.263200821770463 53.6,4.221639627510076 53.7,4.179036806841349 53.8,4.1354028713728095 53.9,4.090748587125115 54.0,4.045084971874738 54.1,3.998423292435457 54.2,3.950775061878453 54.3,3.9021520366916533 54.4,3.8525662138789487 54.5,3.80202982800016 54.6,3.750555348152295 54.7,3.6981554748930483 54.8,3.644843137107061 54.9,3.590631488815945 55.0,3.5355339059327417 55.1,3.479563982961573 55.2,3.422735529643442 55.3,3.365062567548869 55.4,3.3065593266182653 55.5,3.2472402416509145 55.6,3.1871199487434487 55.7,3.1262132816785226 55.8,3.064535268264883 55.9,3.002101126629425 56.0,2.938926261462367 56.1,2.875026260216391 56.2,2.8104168892606554 56.3,2.745114089990665 56.4,2.6791339748949783 56.5,2.612492823579744 56.6,2.5452070787518526 56.7,2.477293342162038 56.8,2.408768370508581 56.9,2.339649071302868 57.0,2.2699524986977395 57.1,2.1996958492795775 57.2,2.1288964578253617 57.3,2.057571793025555 57.4,1.9857394531739023 57.5,1.913417161825444 57.6,1.8406227634233898 57.7,1.7673742188962902 57.8,1.6936896012264577 57.9,1.6195870909907526 58.0,1.545084971874739 58.1,1.470201626161526 58.2,1.3949555301961403 58.3,1.319365249826863 58.4,1.2434494358242774 58.5,1.1672268192795268 58.6,1.0907162069827172 58.7,1.013936476782563 58.8,0.9369065729286284 58.9,0.859645501397049 59.0,0.7821723252011604 59.1,0.7045061596879068 59.2,0.6266661678215195 59.3,0.5486715554552295 59.4,0.47054156659257074 59.5,0.39229547863922876 59.6,0.3139525976465669 59.7,0.23553225354820936 59.8,0.15705379539065129 59.9,0.07853658655910921 60.0,1.0718754395722281e-14 60.1,-0.07853658655910553 60.2,-0.1570537953906476 60.3,-0.2355322535482057 60.4,-0.31395259764656325 60.5,-0.3922954786392251 60.6,-0.47054156659256713 60.7,-0.5486715554552258 60.8,-0.6266661678215159 60.9,-0.7045061596879031 61.0,-0.7821723252011569 61.1,-0.8596455013970454 61.2,-0.9369065729286248 61.3,-1.0139364767825594 61.4,-1.0907162069827134 61.5,-1.167226819279523 61.6,-1.2434494358242738 61.7,-1.3193652498268595 61.8,-1.3949555301961367 61.9,-1.4702016261615225 62.0,-1.5450849718747353 62.1,-1.6195870909907488 62.2,-1.6936896012264544 62.3,-1.7673742188962869 62.4,-1.8406227634233863 62.5,-1.913417161825441 62.6,-1.985739453173899 62.7,-2.0575717930255513 62.8,-2.128896457825358 62.9,-2.1996958492795744 63.0,-2.2699524986977364 63.1,-2.3396490713028646 63.2,-2.408768370508578 63.3,-2.477293342162035 63.4,-2.5452070787518495 63.5,-2.612492823579741 63.6,-2.6791339748949756 63.7,-2.7451140899906545 63.8,-2.8104168892606523 63.9,-2.875026260216388 64.0,-2.938926261462364 64.1,-3.0021011266294217 64.2,-3.0645352682648874 64.3,-3.126213281678527 64.4,-3.1871199487434527 64.5,-3.2472402416509185 64.6,-3.306559326618256 64.7,-3.365062567548866 64.8,-3.422735529643439 64.9,-3.4795639829615705 65.0,-3.5355339059327395 65.1,-3.5906314888159363 65.2,-3.644843137107059 65.3,-3.698155474893046 65.4,-3.750555348152298 65.5,-3.802029828000152 65.6,-3.8525662138789403 65.7,-3.902152036691646 65.8,-3.950775061878451 65.9,-3.9984232924354544 66.0,-4.045084971874741 66.1,-4.090748587125118 66.2,-4.135402871372812 66.3,-4.179036806841352 66.4,-4.221639627510073 66.5,-4.263200821770462 66.6,-4.303710135019716 66.7,-4.343157572190956 66.8,-4.38153340021932 66.9,-4.4188281504434705 67.0,-4.45503262094184 67.1,-4.490137878803077 67.2,-4.524135262330098 67.3,-4.557016383177225 67.4,-4.588773128419906 67.5,-4.619397662556432 67.6,-4.648882429441254 67.7,-4.677220154149338 67.8,-4.704403844771124 67.9,-4.730426794137728 68.0,-4.75528258147577 68.1,-4.778965073991649 68.2,-4.801468428384715 68.3,-4.822787092288988 68.4,-4.8429158056431545 68.5,-4.861849601988383 68.6,-4.879583809693734 68.7,-4.89611405310883 68.8,-4.911436253643444 68.9,-4.925546630773871 69.0,-4.938441702975689 69.1,-4.950118288582788 69.2,-4.9605735065723895 69.3,-4.969804777275898 69.4,-4.9778098230154 69.5,-4.98458666866564 69.6,-4.990133642141357 69.7,-4.99444937480985 69.8,-4.997532801828658 69.9,-4.999383162408303 70.0,-5.0 70.1,-4.999383162408303 70.2,-4.997532801828658 70.3,-4.99444937480985 70.4,-4.990133642141357 70.5,-4.98458666866564 70.6,-4.9778098230154 70.7,-4.969804777275898 70.8,-4.9605735065723895 70.9,-4.950118288582789 71.0,-4.938441702975688 71.1,-4.925546630773871 71.2,-4.911436253643443 71.3,-4.896114053108827 71.4,-4.8795838096937345 71.5,-4.861849601988382 71.6,-4.842915805643156 71.7,-4.822787092288989 71.8,-4.801468428384716 71.9,-4.77896507399165 72.0,-4.755282581475769 72.1,-4.7304267941377285 72.2,-4.704403844771125 72.3,-4.67722015414934 72.4,-4.648882429441255 72.5,-4.619397662556434 72.6,-4.588773128419907 72.7,-4.557016383177227 72.8,-4.5241352623301 72.9,-4.490137878803079 73.0,-4.455032620941842 73.1,-4.418828150443472 73.2,-4.381533400219313 73.3,-4.343157572190958 73.4,-4.303710135019713 73.5,-4.263200821770459 73.6,-4.22163962751008 73.7,-4.179036806841349 73.8,-4.1354028713728095 73.9,-4.090748587125116 74.0,-4.045084971874734 74.1,-3.998423292435457 74.2,-3.9507750618784483 74.3,-3.902152036691648 74.4,-3.852566213878943 74.5,-3.8020298280001548 74.6,-3.7505553481523006 74.7,-3.698155474893049 74.8,-3.6448431371070615 74.9,-3.59063148881594 75.0,-3.535533905932742 75.1,-3.4795639829615737 75.2,-3.4227355296434423 75.3,-3.3650625675488692 75.4,-3.306559326618259 75.5,-3.2472402416509216 75.6,-3.187119948743456 75.7,-3.126213281678523 75.8,-3.0645352682648905 75.9,-3.002101126629411 76.0,-2.9389262614623672 76.1,-2.8750262602164063 76.2,-2.8104168892606483 76.3,-2.7451140899906656 76.4,-2.6791339748949787 76.5,-2.6124928235797444 76.6,-2.545207078751868 76.7,-2.4772933421620307 76.8,-2.4087683705085814 76.9,-2.3396490713028606 77.0,-2.269952498697732 77.1,-2.1996958492795784 77.2,-2.128896457825362 77.3,-2.0575717930255473 77.4,-1.9857394531739028 77.5,-1.913417161825453 77.6,-1.8406227634233985 77.7,-1.7673742188962906 77.8,-1.6936896012264582 77.9,-1.6195870909907448 78.0,-1.5450849718747395 78.1,-1.4702016261615267 78.2,-1.3949555301961494 78.3,-1.3193652498268724 78.4,-1.2434494358242694 78.5,-1.1672268192795359 78.6,-1.0907162069827265 78.7,-1.013936476782555 78.8,-0.9369065729286377 78.9,-0.859645501397041 79.0,-0.7821723252011524 79.1,-0.704506159687925 79.2,-0.6266661678215201 79.3,-0.54867155545523 79.4,-0.4705415665925625 79.5,-0.39229547863922937 79.6,-0.3139525976465676 79.7,-0.23553225354820995 79.8,-0.15705379539064301 79.9,-0.07853658655910095 80.0,-2.4492935982947065e-15 80.1,0.07853658655909604 80.2,0.15705379539063813 80.3,0.23553225354820506 80.4,0.31395259764656264 80.5,0.39229547863922454 80.6,0.47054156659255764 80.7,0.5486715554552253 80.8,0.6266661678215152 80.9,0.7045061596879201 81.0,0.7821723252011475 81.1,0.8596455013970361 81.2,0.9369065729286329 81.3,1.01393647678255 81.4,1.0907162069827216 81.5,1.1672268192795139 81.6,1.2434494358242647 81.7,1.3193652498268675 81.8,1.3949555301961447 81.9,1.4702016261615136 82.0,1.5450849718747262 82.1,1.6195870909907317 82.2,1.6936896012264537 82.3,1.7673742188962862 82.4,1.8406227634234025 82.5,1.9134171618254403 82.6,1.9857394531738983 82.7,2.057571793025543 82.8,2.1288964578253577 82.9,2.199695849279582 83.0,2.2699524986977435 83.1,2.3396490713028566 83.2,2.408768370508577 83.3,2.4772933421620267 83.4,2.545207078751864 83.5,2.612492823579748 83.6,2.6791339748949823 83.7,2.745114089990654 83.8,2.810416889260644 83.9,2.8750262602164023 84.0,2.9389262614623632 84.1,3.0021011266294213 84.2,3.0645352682648728 84.3,3.1262132816785195 84.4,3.187119948743452 84.5,3.2472402416509176 84.6,3.306559326618255 84.7,3.3650625675488595 84.8,3.4227355296434325 84.9,3.4795639829615697 85.0,3.535533905932739 85.1,3.590631488815936 85.2,3.644843137107064 85.3,3.698155474893046 85.4,3.7505553481522975 85.5,3.802029828000151 85.6,3.8525662138789403 85.7,3.902152036691656 85.8,3.950775061878451 85.9,3.998423292435454 86.0,4.045084971874731 86.1,4.0907485871251135 86.2,4.135402871372812 86.3,4.179036806841351 86.4,4.221639627510073 86.5,4.2632008217704565 86.6,4.303710135019711 86.7,4.343157572190956 86.8,4.381533400219319 86.9,4.418828150443462 87.0,4.455032620941836 87.1,4.490137878803076 87.2,4.524135262330098 87.3,4.557016383177225 87.4,4.588773128419909 87.5,4.619397662556429 87.6,4.648882429441254 87.7,4.677220154149337 87.8,4.704403844771124 87.9,4.73042679413773 88.0,4.755282581475767 88.1,4.778965073991649 88.2,4.801468428384714 88.3,4.822787092288988 88.4,4.842915805643159 88.5,4.861849601988383 88.6,4.879583809693734 88.7,4.896114053108827 88.8,4.911436253643442 88.9,4.92554663077387 89.0,4.938441702975689 89.1,4.950118288582787 89.2,4.960573506572389 89.3,4.969804777275897 89.4,4.9778098230154 89.5,4.98458666866564 89.6,4.990133642141357 89.7,4.994449374809849 89.8,4.997532801828658 89.9,4.999383162408303 90.0,5.0 90.1,4.999383162408303 90.2,4.997532801828658 90.3,4.99444937480985 90.4,4.990133642141358 90.5,4.98458666866564 90.6,4.9778098230154 90.7,4.969804777275898 90.8,4.9605735065723895 90.9,4.950118288582789 91.0,4.93844170297569 91.1,4.925546630773871 91.2,4.911436253643443 91.3,4.896114053108828 91.4,4.879583809693739 91.5,4.861849601988385 91.6,4.842915805643156 91.7,4.82278709228899 91.8,4.801468428384716 91.9,4.778965073991653 92.0,4.755282581475772 92.1,4.730426794137729 92.2,4.704403844771125 92.3,4.67722015414934 92.4,4.648882429441259 92.5,4.619397662556434 92.6,4.588773128419908 92.7,4.557016383177227 92.8,4.524135262330101 92.9,4.490137878803072 93.0,4.455032620941843 93.1,4.418828150443473 93.2,4.381533400219322 93.3,4.343157572190958 93.4,4.303710135019713 93.5,4.263200821770459 93.6,4.221639627510081 93.7,4.179036806841355 93.8,4.135402871372815 93.9,4.090748587125116 94.0,4.045084971874734 94.1,3.9984232924354575 94.2,3.9507750618784545 94.3,3.9021520366916485 94.4,3.8525662138789434 94.5,3.802029828000155 94.6,3.750555348152301 94.7,3.6981554748930554 94.8,3.6448431371070624 94.9,3.59063148881594 95.0,3.535533905932743 95.1,3.479563982961574 95.2,3.422735529643443 95.3,3.36506256754887 95.4,3.3065593266182596 95.5,3.247240241650922 95.6,3.1871199487434563 95.7,3.126213281678524 95.8,3.0645352682648914 95.9,3.0021011266294257 96.0,2.9389262614623677 96.1,2.8750262602163916 96.2,2.810416889260649 96.3,2.745114089990666 96.4,2.679133974894987 96.5,2.6124928235797524 96.6,2.5452070787518615 96.7,2.4772933421620316 96.8,2.4087683705085823 96.9,2.339649071302869 97.0,2.269952498697733 97.1,2.199695849279579 97.2,2.1288964578253626 97.3,2.0575717930255477 97.4,1.9857394531739114 97.5,1.9134171618254536 97.6,1.840622763423399 97.7,1.7673742188962913 97.8,1.6936896012264588 97.9,1.6195870909907453 98.0,1.54508497187474 98.1,1.4702016261615272 98.2,1.39495553019615 98.3,1.3193652498268729 98.4,1.24344943582427 98.5,1.1672268192795365 98.6,1.090716206982727 98.7,1.013936476782564 98.8,0.9369065729286209 98.9,0.8596455013970415 99.0,0.782172325201153 99.1,0.7045061596879255 99.2,0.6266661678215295 99.3,0.5486715554552307 99.4,0.4705415665925632 99.5,0.39229547863923 99.6,0.31395259764656813 99.7,0.23553225354821059 99.8,0.15705379539064365 99.9,0.07853658655910156 100.0,3.061616997868383e-15 100.1,-0.07853658655909543 100.2,-0.15705379539063752 100.3,-0.23553225354820448 100.4,-0.313952597646562 100.5,-0.39229547863922387 100.6,-0.47054156659257473 100.7,-0.5486715554552246 100.8,-0.6266661678215146 100.9,-0.7045061596879107 101.0,-0.7821723252011469 101.1,-0.8596455013970443 101.2,-0.9369065729286323 101.3,-1.0139364767825494 101.4,-1.0907162069827123 101.5,-1.1672268192795305 101.6,-1.2434494358242727 101.7,-1.319365249826867 101.8,-1.3949555301961443 101.9,-1.4702016261615045 102.0,-1.5450849718747426 102.1,-1.6195870909907395 102.2,-1.6936896012264533 102.3,-1.7673742188962858 102.4,-1.8406227634233936 102.5,-1.9134171618254396 102.6,-1.9857394531738979 102.7,-2.0575717930255424 102.8,-2.1288964578253493 102.9,-2.199695849279581 103.0,-2.269952498697727 103.1,-2.3396490713028637 103.2,-2.4087683705085765 103.3,-2.477293342162042 103.4,-2.5452070787518637 103.5,-2.6124928235797396 103.6,-2.679133974894967 103.7,-2.745114089990646 103.8,-2.8104168892606585 103.9,-2.875026260216402 104.0,-2.938926261462363 104.1,-3.0021011266294066 104.2,-3.064535268264886 104.3,-3.1262132816785186 104.4,-3.187119948743459 104.5,-3.2472402416509176 104.6,-3.306559326618248 104.7,-3.365062567548872 104.8,-3.4227355296434387 104.9,-3.4795639829615697 105.0,-3.5355339059327386 105.1,-3.5906314888159474 105.2,-3.6448431371070518 105.3,-3.6981554748930456 105.4,-3.7505553481522975 105.5,-3.802029828000145 105.6,-3.8525662138789505 105.7,-3.9021520366916445 105.8,-3.9507750618784505 105.9,-3.9984232924354535 106.0,-4.045084971874741 106.1,-4.090748587125113 106.2,-4.135402871372807 106.3,-4.179036806841341 106.4,-4.2216396275100685 106.5,-4.263200821770465 106.6,-4.303710135019715 106.7,-4.343157572190956 106.8,-4.38153340021931 106.9,-4.4188281504434705 107.0,-4.455032620941836 107.1,-4.490137878803076 107.2,-4.524135262330098 107.3,-4.557016383177221 107.4,-4.588773128419909 107.5,-4.619397662556431 107.6,-4.648882429441256 107.7,-4.677220154149337 107.8,-4.70440384477113 107.9,-4.730426794137724 108.0,-4.755282581475767 108.1,-4.778965073991646 108.2,-4.8014684283847116 108.3,-4.822787092288992 108.4,-4.8429158056431545 108.5,-4.861849601988383 108.6,-4.879583809693734 108.7,-4.89611405310883 108.8,-4.911436253643442 108.9,-4.925546630773872 109.0,-4.938441702975686 109.1,-4.950118288582786 109.2,-4.96057350657239 109.3,-4.969804777275898 109.4,-4.9778098230154 109.5,-4.98458666866564 109.6,-4.990133642141357 109.7,-4.994449374809849 109.8,-4.997532801828657 109.9,-4.999383162408303 110.0,-5.0 110.1,-4.999383162408303 110.2,-4.997532801828658 110.3,-4.99444937480985 110.4,-4.990133642141358 110.5,-4.9845866686656395 110.6,-4.9778098230154 110.7,-4.969804777275899 110.8,-4.960573506572391 110.9,-4.9501182885827895 111.0,-4.9384417029756875 111.1,-4.92554663077387 111.2,-4.911436253643443 111.3,-4.896114053108832 111.4,-4.8795838096937345 111.5,-4.861849601988385 111.6,-4.842915805643156 111.7,-4.82278709228899 111.8,-4.801468428384719 111.9,-4.778965073991648 112.0,-4.755282581475769 112.1,-4.730426794137727 112.2,-4.704403844771125 112.3,-4.67722015414934 112.4,-4.648882429441259 112.5,-4.619397662556434 112.6,-4.588773128419912 112.7,-4.557016383177231 112.8,-4.524135262330093 112.9,-4.490137878803079 113.0,-4.455032620941839 113.1,-4.418828150443473 113.2,-4.381533400219314 113.3,-4.343157572190959 113.4,-4.303710135019719 113.5,-4.263200821770469 113.6,-4.221639627510081 113.7,-4.179036806841346 113.8,-4.135402871372811 113.9,-4.090748587125116 114.0,-4.045084971874744 114.1,-3.998423292435458 114.2,-3.9507750618784545 114.3,-3.902152036691649 114.4,-3.8525662138789443 114.5,-3.8020298280001614 114.6,-3.7505553481523135 114.7,-3.69815547489305 114.8,-3.6448431371070567 114.9,-3.5906314888159403 115.0,-3.5355339059327306 115.1,-3.479563982961587 115.2,-3.4227355296434436 115.3,-3.3650625675488763 115.4,-3.3065593266182667 115.5,-3.2472402416509096 115.6,-3.18711994874345 115.7,-3.1262132816785244 115.8,-3.064535268264892 115.9,-3.0021011266294124 116.0,-2.9389262614623686 116.1,-2.8750262602163925 116.2,-2.8104168892606642 116.3,-2.7451140899906665 116.4,-2.679133974894973 116.5,-2.6124928235797458 116.6,-2.5452070787518544 116.7,-2.4772933421620476 116.8,-2.4087683705085827 116.9,-2.33964907130287 117.0,-2.2699524986977333 117.1,-2.1996958492795873 117.2,-2.1288964578253715 117.3,-2.0575717930255646 117.4,-1.9857394531739039 117.5,-1.913417161825446 117.6,-1.8406227634233998 117.7,-1.767374218896275 117.8,-1.6936896012264593 117.9,-1.619587090990746 118.0,-1.5450849718747488 118.1,-1.4702016261615278 118.2,-1.3949555301961336 118.3,-1.3193652498268649 118.4,-1.2434494358242705 118.5,-1.167226819279537 118.6,-1.090716206982719 118.7,-1.0139364767825647 118.8,-0.9369065729286215 118.9,-0.8596455013970596 119.0,-0.7821723252011624 119.1,-0.704506159687935 119.2,-0.6266661678215213 119.3,-0.5486715554552225 119.4,-0.47054156659256374 119.5,-0.39229547863923064 119.6,-0.3139525976465865 119.7,-0.23553225354821122 119.8,-0.15705379539065312 119.9,-0.07853658655911104 120.0,-2.1437508791444562e-14 120.1,0.0785365865591037 120.2,0.1570537953906458 120.3,0.23553225354820384 120.4,0.3139525976465791 120.5,0.39229547863922326 120.6,0.4705415665925564 120.7,0.5486715554552152 120.8,0.6266661678215141 120.9,0.7045061596879276 121.0,0.782172325201155 121.1,0.8596455013970523 121.2,0.9369065729286142 121.3,1.0139364767825574 121.4,1.0907162069827117 121.5,1.1672268192795299 121.6,1.2434494358242634 121.7,1.319365249826858 121.8,1.3949555301961265 121.9,1.4702016261615207 122.0,1.545084971874742 122.1,1.619587090990739 122.2,1.6936896012264526 122.3,1.7673742188962684 122.4,1.840622763423393 122.5,1.9134171618254392 122.6,1.9857394531738972 122.7,2.0575717930255575 122.8,2.128896457825365 122.9,2.1996958492795806 123.0,2.2699524986977266 123.1,2.3396490713028633 123.2,2.408768370508576 123.3,2.477293342162041 123.4,2.5452070787518477 123.5,2.612492823579739 123.6,2.6791339748949667 123.7,2.7451140899906603 123.8,2.810416889260658 123.9,2.8750262602163863 124.0,2.9389262614623624 124.1,3.002101126629406 124.2,3.0645352682648856 124.3,3.126213281678518 124.4,3.1871199487434443 124.5,3.2472402416509034 124.6,3.3065593266182614 124.7,3.3650625675488715 124.8,3.422735529643438 124.9,3.479563982961582 125.0,3.5355339059327258 125.1,3.5906314888159354 125.2,3.644843137107051 125.3,3.698155474893045 125.4,3.7505553481523086 125.5,3.8020298280001565 125.6,3.852566213878939 125.7,3.9021520366916445 125.8,3.95077506187845 125.9,3.9984232924354535 126.0,4.04508497187474 126.1,4.090748587125112 126.2,4.135402871372806 126.3,4.179036806841341 126.4,4.221639627510077 126.5,4.263200821770464 126.6,4.303710135019715 126.7,4.343157572190955 126.8,4.38153340021931 126.9,4.41882815044347 127.0,4.455032620941836 127.1,4.490137878803076 127.2,4.52413526233009 127.3,4.557016383177228 127.4,4.588773128419902 127.5,4.619397662556438 127.6,4.648882429441256 127.7,4.677220154149337 127.8,4.704403844771123 127.9,4.730426794137729 128.0,4.755282581475766 128.1,4.7789650739916505 128.2,4.801468428384716 128.3,4.822787092288988 128.4,4.842915805643159 128.5,4.861849601988383 128.6,4.879583809693738 128.7,4.8961140531088265 128.8,4.911436253643445 128.9,4.9255466307738685 129.0,4.938441702975689 129.1,4.950118288582789 129.2,4.960573506572389 129.3,4.9698047772758995 129.4,4.9778098230154 129.5,4.9845866686656395 129.6,4.990133642141357 129.7,4.994449374809849 129.8,4.997532801828657 129.9,4.999383162408303 130.0,5.0 130.1,4.999383162408303 130.2,4.997532801828658 130.3,4.99444937480985 130.4,4.990133642141358 130.5,4.984586668665641 130.6,4.9778098230154 130.7,4.9698047772759 130.8,4.960573506572389 130.9,4.950118288582787 131.0,4.93844170297569 131.1,4.925546630773873 131.2,4.911436253643447 131.3,4.896114053108828 131.4,4.87958380969374 131.5,4.86184960198838 131.6,4.842915805643156 131.7,4.822787092288995 131.8,4.801468428384713 131.9,4.778965073991653 132.0,4.755282581475764 132.1,4.730426794137727 132.2,4.704403844771126 132.3,4.677220154149341 132.4,4.648882429441253 132.5,4.619397662556434 132.6,4.588773128419905 132.7,4.557016383177224 132.8,4.524135262330101 132.9,4.490137878803072 133.0,4.455032620941839 133.1,4.418828150443465 133.2,4.381533400219323 133.3,4.34315757219095 133.4,4.303710135019719 133.5,4.26320082177046 133.6,4.221639627510072 133.7,4.1790368068413555 133.8,4.135402871372801 133.9,4.090748587125116 134.0,4.045084971874735 134.1,3.998423292435458 134.2,3.950775061878455 134.3,3.90215203669165 134.4,3.8525662138789443 134.5,3.8020298280001503 134.6,3.7505553481523024 134.7,3.6981554748930625 134.8,3.644843137107057 134.9,3.5906314888159407 135.0,3.535533905932744 135.1,3.479563982961575 135.2,3.422735529643457 135.3,3.3650625675488643 135.4,3.3065593266182534 135.5,3.2472402416509234 135.6,3.1871199487434643 135.7,3.1262132816785386 135.8,3.064535268264878 135.9,3.0021011266294266 136.0,2.9389262614623544 136.1,2.875026260216407 136.2,2.8104168892606647 136.3,2.7451140899906523 136.4,2.679133974894988 136.5,2.6124928235797307 136.6,2.54520707875187 136.7,2.477293342162048 136.8,2.408768370508583 136.9,2.3396490713028544 137.0,2.2699524986977337 137.1,2.1996958492795717 137.2,2.128896457825388 137.3,2.0575717930255486 137.4,1.9857394531738881 137.5,1.9134171618254467 137.6,1.8406227634233838 137.7,1.7673742188962924 137.8,1.6936896012264433 137.9,1.6195870909907464 138.0,1.5450849718747328 138.1,1.4702016261615114 138.2,1.3949555301961511 138.3,1.3193652498268484 138.4,1.2434494358242711 138.5,1.1672268192795205 138.6,1.0907162069827194 138.7,1.0139364767825652 138.8,0.936906572928622 138.9,0.8596455013970428 139.0,0.7821723252011453 139.1,0.7045061596879179 139.2,0.6266661678215396 139.3,0.5486715554552231 139.4,0.47054156659256435 139.5,0.3922954786392312 139.6,0.31395259764656935 139.7,0.23553225354822957 139.8,0.15705379539063596 139.9,0.07853658655909389 140.0,4.2862637970157365e-15 140.1,-0.07853658655908533 140.2,-0.15705379539062742 140.3,-0.235532253548221 140.4,-0.3139525976465608 140.5,-0.39229547863922265 140.6,-0.4705415665925558 140.7,-0.5486715554552145 140.8,-0.6266661678215311 140.9,-0.7045061596879094 141.0,-0.7821723252011369 141.1,-0.8596455013970343 141.2,-0.9369065729286137 141.3,-1.013936476782557 141.4,-1.0907162069827285 141.5,-1.1672268192795294 141.6,-1.243449435824263 141.7,-1.3193652498268402 141.8,-1.394955530196143 141.9,-1.4702016261615372 142.0,-1.5450849718747415 142.1,-1.619587090990755 142.2,-1.6936896012264353 142.3,-1.7673742188963009 142.4,-1.8406227634233923 142.5,-1.913417161825455 142.6,-1.9857394531739128 142.7,-2.057571793025541 142.8,-2.1288964578253804 142.9,-2.19969584927958 143.0,-2.269952498697742 143.1,-2.3396490713028624 143.2,-2.4087683705085756 143.3,-2.4772933421620404 143.4,-2.545207078751863 143.5,-2.612492823579754 143.6,-2.679133974894981 143.7,-2.745114089990645 143.8,-2.810416889260657 143.9,-2.8750262602164005 144.0,-2.9389262614623624 144.1,-3.00210112662942 144.2,-3.0645352682648714 144.3,-3.1262132816785315 144.4,-3.1871199487434576 144.5,-3.2472402416509167 144.6,-3.3065593266182476 144.7,-3.3650625675488577 144.8,-3.4227355296434503 144.9,-3.4795639829615688 145.0,-3.5355339059327378 145.1,-3.5906314888159345 145.2,-3.644843137107051 145.3,-3.6981554748930563 145.4,-3.750555348152296 145.5,-3.8020298280001446 145.6,-3.8525662138789385 145.7,-3.902152036691644 145.8,-3.95077506187845 145.9,-3.998423292435453 146.0,-4.045084971874729 146.1,-4.090748587125112 146.2,-4.135402871372796 146.3,-4.179036806841351 146.4,-4.221639627510086 146.5,-4.263200821770456 146.6,-4.303710135019714 146.7,-4.343157572190946 146.8,-4.381533400219327 146.9,-4.41882815044347 147.0,-4.455032620941843 147.1,-4.490137878803068 147.2,-4.5241352623300894 147.3,-4.557016383177235 147.4,-4.588773128419908 147.5,-4.619397662556438 147.6,-4.648882429441256 147.7,-4.677220154149325 147.8,-4.704403844771129 147.9,-4.730426794137729 148.0,-4.755282581475772 148.1,-4.7789650739916505 148.2,-4.8014684283847116 148.3,-4.822787092288992 148.4,-4.842915805643159 148.5,-4.861849601988382 148.6,-4.879583809693737 148.7,-4.8961140531088265 148.8,-4.911436253643445 148.9,-4.925546630773872 149.0,-4.938441702975689 149.1,-4.950118288582786 149.2,-4.960573506572388 149.3,-4.9698047772758995 149.4,-4.9778098230154 149.5,-4.9845866686656395 149.6,-4.990133642141357 149.7,-4.994449374809849 149.8,-4.997532801828658 149.9,-4.999383162408303 150.0,-5.0 150.1,-4.999383162408303 150.2,-4.997532801828658 150.3,-4.99444937480985 150.4,-4.990133642141358 150.5,-4.984586668665641 150.6,-4.9778098230154 150.7,-4.9698047772759 150.8,-4.960573506572389 150.9,-4.9501182885827895 151.0,-4.93844170297569 151.1,-4.92554663077387 151.2,-4.911436253643447 151.3,-4.896114053108825 151.4,-4.879583809693735 151.5,-4.861849601988385 151.6,-4.842915805643161 151.7,-4.822787092288995 151.8,-4.801468428384709 151.9,-4.778965073991648 152.0,-4.755282581475769 152.1,-4.730426794137733 152.2,-4.7044038447711385 152.3,-4.677220154149334 152.4,-4.648882429441253 152.5,-4.619397662556429 152.6,-4.588773128419913 152.7,-4.557016383177238 152.8,-4.524135262330093 152.9,-4.490137878803072 153.0,-4.455032620941839 153.1,-4.418828150443465 153.2,-4.381533400219332 153.3,-4.34315757219095 153.4,-4.303710135019711 153.5,-4.26320082177046 153.6,-4.221639627510082 153.7,-4.1790368068413555 153.8,-4.1354028713728015 153.9,-4.090748587125117 154.0,-4.045084971874735 154.1,-3.9984232924354584 154.2,-3.9507750618784554 154.3,-3.9021520366916382 154.4,-3.8525662138789447 154.5,-3.802029828000162 154.6,-3.7505553481523024 154.7,-3.6981554748930505 154.8,-3.644843137107057 154.9,-3.590631488815941 155.0,-3.535533905932744 155.1,-3.4795639829615754 155.2,-3.422735529643457 155.3,-3.3650625675488643 155.4,-3.3065593266182676 155.5,-3.247240241650924 155.6,-3.187119948743451 155.7,-3.1262132816785386 155.8,-3.0645352682648785 155.9,-3.0021011266294275 156.0,-2.9389262614623695 156.1,-2.8750262602164076 156.2,-2.810416889260665 156.3,-2.745114089990638 156.4,-2.679133974894989 156.5,-2.6124928235797467 156.6,-2.5452070787518704 156.7,-2.477293342162064 156.8,-2.408768370508568 156.9,-2.339649071302855 157.0,-2.26995249869775 157.1,-2.1996958492795886 157.2,-2.1288964578253884 157.3,-2.0575717930255335 157.4,-1.9857394531738888 157.5,-1.9134171618254472 157.6,-1.8406227634234174 157.7,-1.7673742188963095 157.8,-1.6936896012264437 157.9,-1.6195870909907304 158.0,-1.5450849718747333 158.1,-1.4702016261615292 158.2,-1.394955530196169 158.3,-1.319365249826849 158.4,-1.2434494358242718 158.5,-1.167226819279521 158.6,-1.09071620698272 158.7,-1.013936476782566 158.8,-0.9369065729286052 158.9,-0.8596455013970433 159.0,-0.7821723252011635 159.1,-0.7045061596879186 159.2,-0.6266661678215225 159.3,-0.5486715554552237 159.4,-0.47054156659256496 159.5,-0.3922954786392318 159.6,-0.31395259764657 159.7,-0.23553225354823015 159.8,-0.1570537953906366 159.9,-0.07853658655911228 160.0,-4.898587196589413e-15 160.1,0.07853658655910248 160.2,0.1570537953906268 160.3,0.23553225354822038 160.4,0.3139525976465602 160.5,0.392295478639222 160.6,0.4705415665925552 160.7,0.548671555455214 160.8,0.6266661678215129 160.9,0.7045061596879089 161.0,0.7821723252011539 161.1,0.8596455013970338 161.2,0.9369065729285957 161.3,1.0139364767825563 161.4,1.0907162069827105 161.5,1.1672268192795114 161.6,1.2434494358242623 161.7,1.3193652498268396 161.8,1.3949555301961594 161.9,1.4702016261615198 162.0,1.545084971874724 162.1,1.6195870909907208 162.2,1.6936896012264346 162.3,1.7673742188963004 162.4,1.8406227634234082 162.5,1.913417161825438 162.6,1.98573945317388 162.7,2.0575717930255246 162.8,2.1288964578253795 162.9,2.1996958492795797 163.0,2.2699524986977098 163.1,2.3396490713028464 163.2,2.408768370508559 163.3,2.477293342162055 163.4,2.5452070787518624 163.5,2.612492823579738 163.6,2.6791339748949805 163.7,2.7451140899906594 163.8,2.8104168892606425 163.9,2.8750262602163708 164.0,2.9389262614623473 164.1,3.0021011266294053 164.2,3.064535268264857 164.3,3.1262132816785315 164.4,3.187119948743443 164.5,3.247240241650916 164.6,3.3065593266182605 164.7,3.3650625675488577 164.8,3.422735529643463 164.9,3.479563982961581 165.0,3.5355339059327244 165.1,3.590631488815922 165.2,3.6448431371070504 165.3,3.698155474893044 165.4,3.750555348152296 165.5,3.8020298280001557 165.6,3.8525662138789385 165.7,3.9021520366916325 165.8,3.9507750618784603 165.9,3.9984232924354632 166.0,4.04508497187475 166.1,4.0907485871251215 166.2,4.135402871372796 166.3,4.17903680684135 166.4,4.2216396275100765 166.5,4.263200821770455 166.6,4.3037101350197045 166.7,4.343157572190945 166.8,4.381533400219327 166.9,4.418828150443478 167.0,4.455032620941843 167.1,4.4901378788030755 167.2,4.5241352623300966 167.3,4.557016383177227 167.4,4.588773128419901 167.5,4.619397662556424 167.6,4.648882429441249 167.7,4.677220154149331 167.8,4.704403844771135 167.9,4.730426794137729 168.0,4.755282581475766 168.1,4.77896507399165 168.2,4.801468428384716 168.3,4.822787092288988 168.4,4.842915805643149 168.5,4.861849601988379 168.6,4.879583809693734 168.7,4.896114053108823 168.8,4.911436253643445 168.9,4.9255466307738685 169.0,4.938441702975688 169.1,4.950118288582789 169.2,4.960573506572388 169.3,4.969804777275896 169.4,4.977809823015399 169.5,4.984586668665639 169.6,4.990133642141356 169.7,4.994449374809849 169.8,4.997532801828657 169.9,4.999383162408303 170.0,5.0 170.1,4.999383162408303 170.2,4.997532801828658 170.3,4.994449374809849 170.4,4.990133642141357 170.5,4.984586668665642 170.6,4.9778098230154 170.7,4.9698047772759 170.8,4.9605735065723895 170.9,4.950118288582787 171.0,4.93844170297569 171.1,4.925546630773874 171.2,4.911436253643447 171.3,4.896114053108825 171.4,4.879583809693732 171.5,4.86184960198838 171.6,4.842915805643156 171.7,4.822787092288995 171.8,4.801468428384714 171.9,4.778965073991653 172.0,4.755282581475775 172.1,4.730426794137733 172.2,4.704403844771132 172.3,4.677220154149328 172.4,4.648882429441253 172.5,4.619397662556435 172.6,4.588773128419906 172.7,4.557016383177224 172.8,4.524135262330101 172.9,4.490137878803088 173.0,4.455032620941848 173.1,4.418828150443474 173.2,4.381533400219332 173.3,4.34315757219095 173.4,4.3037101350197196 173.5,4.26320082177046 173.6,4.221639627510073 173.7,4.1790368068413555 173.8,4.135402871372822 173.9,4.090748587125128 174.0,4.045084971874745 174.1,3.9984232924354695 174.2,3.950775061878456 174.3,3.9021520366916502 174.4,3.852566213878945 174.5,3.8020298280001508 174.6,3.750555348152303 174.7,3.6981554748930634 174.8,3.6448431371070455 174.9,3.590631488815954 175.0,3.5355339059327573 175.1,3.479563982961576 175.2,3.4227355296434574 175.3,3.365062567548865 175.4,3.3065593266182547 175.5,3.247240241650924 175.6,3.1871199487434647 175.7,3.126213281678539 175.8,3.064535268264865 175.9,3.0021011266293995 176.0,2.9389262614623703 176.1,2.8750262602164085 176.2,2.8104168892606656 176.3,2.745114089990653 176.4,2.6791339748949894 176.5,2.612492823579762 176.6,2.5452070787518712 176.7,2.477293342162049 176.8,2.408768370508553 176.9,2.3396490713028557 177.0,2.2699524986977346 177.1,2.199695849279573 177.2,2.1288964578253893 177.3,2.05757179302555 177.4,1.985739453173922 177.5,1.913417161825464 177.6,1.8406227634234016 177.7,1.7673742188963102 177.8,1.6936896012264444 177.9,1.6195870909907475 178.0,1.545084971874734 178.1,1.4702016261615127 178.2,1.3949555301961525 178.3,1.3193652498268837 178.4,1.2434494358242896 178.5,1.167226819279539 178.6,1.090716206982738 178.7,1.0139364767825665 178.8,0.9369065729286232 178.9,0.8596455013970439 179.0,0.7821723252011465 179.1,0.7045061596879192 179.2,0.6266661678215407 179.3,0.5486715554552419 179.4,0.4705415665925833 179.5,0.39229547863925013 179.6,0.31395259764657063 179.7,0.23553225354823076 179.8,0.15705379539063719 179.9,0.07853658655909512 180.0,5.5109105961630896e-15 180.1,-0.0785365865590841 180.2,-0.1570537953906262 180.3,-0.2355322535482375 180.4,-0.3139525976465419 180.5,-0.39229547863922143 180.6,-0.47054156659255464 180.7,-0.5486715554552134 180.8,-0.62666616782153 180.9,-0.7045061596879082 181.0,-0.7821723252011358 181.1,-0.859645501397033 181.2,-0.9369065729286125 181.3,-1.0139364767825905 181.4,-1.0907162069827272 181.5,-1.167226819279528 181.6,-1.2434494358242616 181.7,-1.3193652498268391 181.8,-1.3949555301961416 181.9,-1.4702016261615023 182.0,-1.5450849718747235 182.1,-1.6195870909907373 182.2,-1.693689601226434 182.3,-1.7673742188963 182.4,-1.8406227634233914 182.5,-1.9134171618254538 182.6,-1.9857394531739117 182.7,-2.0575717930255397 182.8,-2.128896457825347 182.9,-2.1996958492795633 183.0,-2.2699524986977253 183.1,-2.339649071302846 183.2,-2.4087683705085747 183.3,-2.4772933421620396 183.4,-2.5452070787518615 183.5,-2.612492823579753 183.6,-2.67913397489498 183.7,-2.745114089990644 183.8,-2.810416889260642 183.9,-2.875026260216385 184.0,-2.938926261462347 184.1,-3.002101126629419 184.2,-3.06453526826487 184.3,-3.126213281678531 184.4,-3.1871199487434563 184.5,-3.2472402416509154 184.6,-3.3065593266182463 184.7,-3.365062567548857 184.8,-3.4227355296434365 184.9,-3.4795639829615554 185.0,-3.535533905932737 185.1,-3.5906314888159336 185.2,-3.64484313710705 185.3,-3.6981554748930554 185.4,-3.7505553481522957 185.5,-3.8020298280001437 185.6,-3.852566213878938 185.7,-3.9021520366916436 185.8,-3.950775061878471 185.9,-3.9984232924354526 186.0,-4.045084971874728 186.1,-4.090748587125111 186.2,-4.135402871372795 186.3,-4.179036806841349 186.4,-4.221639627510067 186.5,-4.263200821770455 186.6,-4.303710135019713 186.7,-4.343157572190945 186.8,-4.381533400219326 186.9,-4.418828150443469 187.0,-4.455032620941843 187.1,-4.4901378788030675 187.2,-4.5241352623300894 187.3,-4.55701638317722 187.4,-4.5887731284199 187.5,-4.619397662556431 187.6,-4.648882429441249 187.7,-4.677220154149336 187.8,-4.704403844771129 187.9,-4.730426794137729 188.0,-4.755282581475772 188.1,-4.77896507399165 188.2,-4.801468428384711 188.3,-4.822787092288988 188.4,-4.842915805643154 188.5,-4.861849601988378 188.6,-4.879583809693737 188.7,-4.896114053108826 188.8,-4.911436253643445 188.9,-4.925546630773871 189.0,-4.938441702975688 189.1,-4.950118288582786 189.2,-4.960573506572388 189.3,-4.969804777275898 189.4,-4.977809823015399 189.5,-4.9845866686656395 189.6,-4.990133642141357 189.7,-4.994449374809849 189.8,-4.997532801828658 189.9,-4.999383162408303 190.0,-5.0 190.1,-4.999383162408303 190.2,-4.997532801828658 190.3,-4.99444937480985 190.4,-4.990133642141358 190.5,-4.984586668665641 190.6,-4.977809823015401 190.7,-4.9698047772759 190.8,-4.9605735065723895 190.9,-4.9501182885827895 191.0,-4.93844170297569 191.1,-4.92554663077387 191.2,-4.911436253643447 191.3,-4.896114053108825 191.4,-4.879583809693735 191.5,-4.861849601988385 191.6,-4.842915805643161 191.7,-4.822787092288995 191.8,-4.8014684283847195 191.9,-4.778965073991653 192.0,-4.75528258147577 192.1,-4.730426794137733 192.2,-4.704403844771127 192.3,-4.677220154149334 192.4,-4.648882429441254 192.5,-4.619397662556429 192.6,-4.588773128419913 192.7,-4.557016383177239 192.8,-4.524135262330102 192.9,-4.490137878803081 193.0,-4.455032620941848 193.1,-4.418828150443466 193.2,-4.381533400219324 193.3,-4.343157572190951 193.4,-4.303710135019711 193.5,-4.263200821770461 193.6,-4.221639627510083 193.7,-4.179036806841356 193.8,-4.135402871372812 193.9,-4.090748587125129 194.0,-4.0450849718747355 194.1,-3.998423292435459 194.2,-3.950775061878456 194.3,-3.9021520366916396 194.4,-3.8525662138789456 194.5,-3.8020298280001628 194.6,-3.7505553481523037 194.7,-3.698155474893052 194.8,-3.64484313710707 194.9,-3.5906314888159416 195.0,-3.535533905932745 195.1,-3.479563982961576 195.2,-3.4227355296434583 195.3,-3.3650625675488657 195.4,-3.3065593266182685 195.5,-3.2472402416509243 195.6,-3.187119948743452 195.7,-3.12621328167854 195.8,-3.06453526826488 195.9,-3.0021011266294284 196.0,-2.938926261462371 196.1,-2.875026260216409 196.2,-2.810416889260666 196.3,-2.7451140899906683 196.4,-2.67913397489499 196.5,-2.612492823579747 196.6,-2.5452070787518717 196.7,-2.4772933421620342 196.8,-2.408768370508569 196.9,-2.339649071302856 197.0,-2.269952498697751 197.1,-2.1996958492795895 197.2,-2.1288964578253897 197.3,-2.0575717930255504 197.4,-1.985739453173906 197.5,-1.9134171618254647 197.6,-1.8406227634233854 197.7,-1.7673742188962942 197.8,-1.693689601226445 197.9,-1.6195870909907315 198.0,-1.5450849718747346 198.1,-1.4702016261615303 198.2,-1.39495553019617 198.3,-1.3193652498268673 198.4,-1.2434494358242902 198.5,-1.1672268192795223 198.6,-1.0907162069827212 198.7,-1.013936476782567 198.8,-0.9369065729286065 198.9,-0.8596455013970445 199.0,-0.7821723252011648 199.1,-0.7045061596879197 199.2,-0.6266661678215237 199.3,-0.5486715554552426 199.4,-0.47054156659256613 199.5,-0.39229547863923303 199.6,-0.31395259764657124 199.7,-0.2355322535482314 199.8,-0.15705379539063782 199.9,-0.0785365865591135 200.0,-6.123233995736766e-15 200.1,0.07853658655910124 200.2,0.15705379539062558 200.3,0.23553225354821916 200.4,0.313952597646559 200.5,0.3922954786392208 200.6,0.470541566592554 200.7,0.5486715554552127 200.8,0.6266661678215115 200.9,0.7045061596879076 201.0,0.7821723252011527 201.1,0.8596455013970326 201.2,0.9369065729286292 201.3,1.0139364767825552 201.4,1.0907162069827094 201.5,1.1672268192795103 201.6,1.2434494358242612 201.7,1.3193652498268384 201.8,1.3949555301961412 201.9,1.4702016261615185 202.0,1.5450849718747228 202.1,1.6195870909907533 202.2,1.6936896012264502 202.3,1.7673742188962993 202.4,1.8406227634234071 202.5,1.913417161825437 202.6,1.9857394531738786 202.7,2.0575717930255233 202.8,2.1288964578253626 202.9,2.1996958492795624 203.0,2.2699524986977404 203.1,2.339649071302861 203.2,2.4087683705085743 203.3,2.477293342162054 203.4,2.545207078751861 203.5,2.6124928235797373 203.6,2.679133974894979 203.7,2.7451140899906283 203.8,2.810416889260626 203.9,2.8750262602163987 204.0,2.9389262614623752 204.1,3.002101126629404 204.2,3.0645352682648697 204.3,3.1262132816785444 204.4,3.1871199487434425 204.5,3.247240241650915 204.6,3.306559326618259 204.7,3.3650625675488435 204.8,3.4227355296434494 204.9,3.4795639829615803 205.0,3.535533905932724 205.1,3.5906314888159336 205.2,3.64484313710705 205.3,3.6981554748930434 205.4,3.7505553481522953 205.5,3.802029828000155 205.6,3.8525662138789265 205.7,3.9021520366916542 205.8,3.9507750618784594 205.9,3.998423292435441 206.0,4.045084971874728 206.1,4.090748587125111 206.2,4.135402871372805 206.3,4.179036806841349 206.4,4.221639627510076 206.5,4.263200821770445 206.6,4.303710135019722 206.7,4.343157572190963 206.8,4.381533400219326 206.9,4.41882815044346 207.0,4.455032620941834 207.1,4.490137878803075 207.2,4.5241352623300815 207.3,4.557016383177227 207.4,4.588773128419893 207.5,4.6193976625564375 207.6,4.648882429441262 207.7,4.67722015414933 207.8,4.704403844771134 207.9,4.730426794137735 208.0,4.755282581475766 208.1,4.77896507399164 208.2,4.801468428384706 208.3,4.822787092288983 208.4,4.842915805643158 208.5,4.861849601988386 208.6,4.879583809693734 208.7,4.896114053108826 208.8,4.911436253643448 208.9,4.9255466307738685 209.0,4.938441702975688 209.1,4.950118288582789 209.2,4.960573506572386 209.3,4.9698047772758995 209.4,4.977809823015401 209.5,4.984586668665639 209.6,4.990133642141357 209.7,4.994449374809849 209.8,4.997532801828657 209.9,4.999383162408303 210.0,5.0 210.1,4.999383162408304 210.2,4.997532801828657 210.3,4.994449374809849 210.4,4.990133642141359 210.5,4.984586668665641 210.6,4.977809823015401 210.7,4.969804777275899 210.8,4.9605735065723895 210.9,4.950118288582788 211.0,4.938441702975693 211.1,4.925546630773868 211.2,4.911436253643441 211.3,4.896114053108832 211.4,4.87958380969374 211.5,4.861849601988385 211.6,4.842915805643157 211.7,4.8227870922889995 211.8,4.801468428384714 211.9,4.7789650739916585 212.0,4.755282581475765 212.1,4.730426794137721 212.2,4.704403844771133 212.3,4.677220154149328 212.4,4.64888242944126 212.5,4.619397662556436 212.6,4.58877312841992 212.7,4.557016383177239 212.8,4.52413526233011 212.9,4.490137878803074 213.0,4.455032620941832 213.1,4.418828150443474 213.2,4.381533400219324 213.3,4.343157572190942 213.4,4.30371013501972 213.5,4.263200821770461 213.6,4.221639627510092 213.7,4.179036806841366 213.8,4.135402871372802 213.9,4.090748587125108 214.0,4.045084971874746 214.1,3.9984232924354597 214.2,3.9507750618784563 214.3,3.9021520366916507 214.4,3.8525662138789456 214.5,3.802029828000152 214.6,3.7505553481523157 214.7,3.6981554748930403 214.8,3.644843137107046 214.9,3.5906314888159545 215.0,3.5355339059327457 215.1,3.4795639829615768 215.2,3.422735529643446 215.3,3.365062567548866 215.4,3.306559326618256 215.5,3.247240241650938 215.6,3.1871199487434385 215.7,3.1262132816785124 215.8,3.064535268264894 215.9,3.002101126629429 216.0,2.9389262614623712 216.1,2.875026260216395 216.2,2.810416889260681 216.3,2.745114089990654 216.4,2.679133974895005 216.5,2.612492823579733 216.6,2.5452070787518415 216.7,2.4772933421620498 216.8,2.4087683705085854 216.9,2.339649071302872 217.0,2.269952498697736 217.1,2.199695849279606 217.2,2.12889645782539 217.3,2.0575717930255673 217.4,1.9857394531738903 217.5,1.9134171618254325 217.6,1.8406227634234027 217.7,1.7673742188962949 217.8,1.6936896012264289 217.9,1.6195870909907486 218.0,1.5450849718747688 218.1,1.4702016261615478 218.2,1.3949555301961705 218.3,1.3193652498268507 218.4,1.2434494358242563 218.5,1.16722681927954 218.6,1.0907162069827219 218.7,1.0139364767825678 218.8,0.9369065729286246 218.9,0.8596455013970451 219.0,0.7821723252011479 219.1,0.7045061596879381 219.2,0.6266661678215419 219.3,0.5486715554552078 219.4,0.47054156659258445 219.5,0.39229547863923364 219.6,0.3139525976465718 219.7,0.23553225354821428 219.8,0.15705379539063843 219.9,0.07853658655909634 220.0,2.4499125789312944e-14 220.1,-0.0785365865591184 220.2,-0.15705379539066047 220.3,-0.2355322535482008 220.4,-0.3139525976465584 220.5,-0.3922954786392202 220.6,-0.47054156659257107 220.7,-0.5486715554551945 220.8,-0.6266661678215286 220.9,-0.7045061596878894 221.0,-0.7821723252011696 221.1,-0.859645501397067 221.2,-0.9369065729286112 221.3,-1.0139364767825545 221.4,-1.0907162069827088 221.5,-1.167226819279527 221.6,-1.2434494358242434 221.7,-1.3193652498268378 221.8,-1.3949555301961236 221.9,-1.470201626161535 222.0,-1.5450849718747561 222.1,-1.619587090990736 222.2,-1.6936896012264495 222.3,-1.7673742188962822 222.4,-1.84062276342339 222.5,-1.91341716182542 222.6,-1.9857394531738781 222.7,-2.057571793025523 222.8,-2.128896457825378 222.9,-2.199695849279594 223.0,-2.269952498697724 223.1,-2.3396490713028606 223.2,-2.4087683705085734 223.3,-2.4772933421620382 223.4,-2.5452070787518606 223.5,-2.6124928235797213 223.6,-2.679133974894964 223.7,-2.745114089990643 223.8,-2.81041688926067 223.9,-2.875026260216384 224.0,-2.93892626146236 224.1,-3.0021011266294177 224.2,-3.0645352682648834 224.3,-3.1262132816785297 224.4,-3.1871199487434554 224.5,-3.247240241650901 224.6,-3.306559326618246 224.7,-3.36506256754883 224.8,-3.422735529643436 224.9,-3.479563982961567 225.0,-3.5355339059327355 225.1,-3.590631488815945 225.2,-3.644843137107037 225.3,-3.698155474893055 225.4,-3.7505553481522833 225.5,-3.8020298280001663 225.6,-3.8525662138789594 225.7,-3.9021520366916422 225.8,-3.9507750618784483 225.9,-3.9984232924354512 226.0,-4.045084971874738 226.1,-4.0907485871251 226.2,-4.135402871372794 226.3,-4.1790368068413395 226.4,-4.2216396275100845 226.5,-4.263200821770472 226.6,-4.303710135019713 226.7,-4.343157572190953 226.8,-4.381533400219317 226.9,-4.418828150443469 227.0,-4.455032620941826 227.1,-4.4901378788030675 227.2,-4.524135262330089 227.3,-4.557016383177234 227.4,-4.5887731284199145 227.5,-4.61939766255643 227.6,-4.648882429441255 227.7,-4.677220154149336 227.8,-4.704403844771129 227.9,-4.730426794137717 228.0,-4.75528258147576 228.1,-4.778965073991644 228.2,-4.801468428384711 228.3,-4.822787092288997 228.4,-4.842915805643154 228.5,-4.861849601988382 228.6,-4.879583809693736 228.7,-4.896114053108829 228.8,-4.911436253643445 228.9,-4.925546630773871 229.0,-4.938441702975686 229.1,-4.950118288582786 229.2,-4.960573506572383 229.3,-4.969804777275898 229.4,-4.9778098230153995 229.5,-4.9845866686656395 229.6,-4.990133642141358 229.7,-4.994449374809848 229.8,-4.997532801828658 229.9,-4.999383162408303 230.0,-5.0 230.1,-4.999383162408303 230.2,-4.997532801828659 230.3,-4.99444937480985 230.4,-4.990133642141358 230.5,-4.9845866686656395 230.6,-4.977809823015403 230.7,-4.9698047772759 230.8,-4.960573506572391 230.9,-4.950118288582785 231.0,-4.938441702975685 231.1,-4.925546630773871 231.2,-4.911436253643444 231.3,-4.896114053108828 231.4,-4.879583809693736 231.5,-4.861849601988389 231.6,-4.842915805643162 231.7,-4.822787092288995 231.8,-4.80146842838471 231.9,-4.778965073991643 232.0,-4.75528258147577 232.1,-4.730426794137728 232.2,-4.704403844771127 232.3,-4.677220154149334 232.4,-4.648882429441267 232.5,-4.619397662556443 232.6,-4.588773128419913 232.7,-4.557016383177233 232.8,-4.524135262330088 232.9,-4.490137878803081 233.0,-4.45503262094184 233.1,-4.418828150443466 233.2,-4.381533400219316 233.3,-4.343157572190969 233.4,-4.303710135019729 233.5,-4.263200821770471 233.6,-4.221639627510083 233.7,-4.179036806841376 233.8,-4.135402871372812 233.9,-4.090748587125119 234.0,-4.045084971874736 234.1,-3.998423292435449 234.2,-3.950775061878468 234.3,-3.90215203669164 234.4,-3.8525662138789576 234.5,-3.8020298280001636 234.6,-3.7505553481523277 234.7,-3.6981554748930763 234.8,-3.644843137107059 234.9,-3.5906314888159425 235.0,-3.5355339059327333 235.1,-3.47956398296159 235.2,-3.422735529643459 235.3,-3.36506256754888 235.4,-3.3065593266182427 235.5,-3.247240241650898 235.6,-3.1871199487434527 235.7,-3.126213281678527 235.8,-3.0645352682648803 235.9,-3.002101126629415 236.0,-2.9389262614623854 236.1,-2.8750262602164103 236.2,-2.810416889260667 236.3,-2.74511408999064 236.4,-2.6791339748949605 236.5,-2.6124928235797484 236.6,-2.545207078751857 236.7,-2.477293342162035 236.8,-2.4087683705085703 236.9,-2.3396490713028886 237.0,-2.2699524986977524 237.1,-2.199695849279591 237.2,-2.1288964578253746 237.3,-2.0575717930255193 237.4,-1.9857394531739072 237.5,-1.9134171618254494 237.6,-1.8406227634233865 237.7,-1.7673742188962787 237.8,-1.6936896012264797 237.9,-1.6195870909907661 238.0,-1.5450849718747526 238.1,-1.4702016261615314 238.2,-1.3949555301961882 238.3,-1.3193652498268684 238.4,-1.243449435824274 238.5,-1.1672268192795234 238.6,-1.0907162069827052 238.7,-1.0139364767825856 238.8,-0.9369065729286076 238.9,-0.8596455013970633 239.0,-0.782172325201166 239.1,-0.7045061596879563 239.2,-0.6266661678215601 239.3,-0.5486715554552262 239.4,-0.4705415665925674 239.5,-0.39229547863921654 239.6,-0.31395259764659017 239.7,-0.23553225354823262 239.8,-0.15705379539065678 239.9,-0.07853658655907919 240.0,-4.2875017582889124e-14 240.1,0.07853658655906451 240.2,0.15705379539064213 240.3,0.23553225354821794 240.4,0.31395259764657546 240.5,0.3922954786392019 240.6,0.47054156659255275 240.7,0.5486715554552115 240.8,0.6266661678215456 240.9,0.7045061596879416 241.0,0.7821723252011514 241.1,0.8596455013970488 241.2,0.9369065729285931 241.3,1.0139364767825714 241.4,1.0907162069826908 241.5,1.167226819279509 241.6,1.24344943582426 241.7,1.3193652498268542 241.8,1.394955530196174 241.9,1.4702016261615176 242.0,1.5450849718747386 242.1,1.6195870909907524 242.2,1.6936896012264657 242.3,1.767374218896265 242.4,1.840622763423373 242.5,1.9134171618254359 242.6,1.9857394531738937 242.7,2.057571793025506 242.8,2.1288964578253613 242.9,2.1996958492795775 243.0,2.269952498697739 243.1,2.3396490713028757 243.2,2.4087683705085574 243.3,2.4772933421620227 243.4,2.545207078751845 243.5,2.6124928235797364 243.6,2.679133974894948 243.7,2.745114089990628 243.8,2.8104168892606554 243.9,2.875026260216398 244.0,2.938926261462374 244.1,3.0021011266294035 244.2,3.0645352682648683 244.3,3.1262132816785155 244.4,3.1871199487434416 244.5,3.2472402416508874 244.6,3.306559326618232 244.7,3.365062567548869 244.8,3.422735529643448 244.9,3.4795639829615794 245.0,3.5355339059327227 245.1,3.5906314888159323 245.2,3.644843137107049 245.3,3.698155474893067 245.4,3.750555348152318 245.5,3.802029828000154 245.6,3.852566213878948 245.7,3.9021520366916307 245.8,3.950775061878459 245.9,3.9984232924354406 246.0,4.0450849718747275 246.1,4.09074858712511 246.2,4.135402871372804 246.3,4.179036806841369 246.4,4.221639627510076 246.5,4.263200821770463 246.6,4.303710135019722 246.7,4.343157572190962 246.8,4.3815334002193085 246.9,4.41882815044346 247.0,4.455032620941834 247.1,4.490137878803075 247.2,4.524135262330081 247.3,4.557016383177227 247.4,4.588773128419907 247.5,4.6193976625564375 247.6,4.648882429441262 247.7,4.67722015414933 247.8,4.7044038447711225 247.9,4.730426794137722 248.0,4.7552825814757655 248.1,4.778965073991639 248.2,4.801468428384705 248.3,4.8227870922889915 248.4,4.842915805643157 248.5,4.861849601988386 248.6,4.879583809693733 248.7,4.896114053108826 248.8,4.9114362536434415 248.9,4.9255466307738685 249.0,4.938441702975683 249.1,4.950118288582782 249.2,4.9605735065723895 249.3,4.9698047772758995 249.4,4.977809823015401 249.5,4.984586668665639 249.6,4.990133642141357 249.7,4.994449374809849 249.8,4.997532801828658 249.9,4.999383162408303 250.0,5.0 250.1,4.999383162408303 250.2,4.997532801828658 250.3,4.994449374809849 250.4,4.990133642141359 250.5,4.984586668665641 250.6,4.977809823015401 250.7,4.969804777275899 250.8,4.960573506572385 250.9,4.950118288582788 251.0,4.9384417029756875 251.1,4.925546630773874 251.2,4.911436253643448 251.3,4.896114053108833 251.4,4.87958380969374 251.5,4.861849601988386 251.6,4.842915805643157 251.7,4.822787092289 251.8,4.801468428384715 251.9,4.778965073991649 252.0,4.755282581475765 252.1,4.730426794137722 252.2,4.704403844771133 252.3,4.6772201541493414 252.4,4.648882429441261 252.5,4.619397662556436 252.6,4.588773128419921 252.7,4.55701638317724 252.8,4.524135262330095 252.9,4.490137878803074 253.0,4.455032620941833 253.1,4.418828150443475 253.2,4.381533400219324 253.3,4.343157572190961 253.4,4.303710135019721 253.5,4.26320082177048 253.6,4.221639627510093 253.7,4.1790368068413475 253.8,4.135402871372803 253.9,4.090748587125109 254.0,4.045084971874747 254.1,3.99842329243546 254.2,3.950775061878457 254.3,3.9021520366916516 254.4,3.852566213878969 254.5,3.8020298280001756 254.6,3.750555348152293 254.7,3.698155474893065 254.8,3.6448431371070718 254.9,3.590631488815931 255.0,3.5355339059327213 255.1,3.4795639829615777 255.2,3.4227355296434463 255.3,3.3650625675488666 255.4,3.3065593266182565 255.5,3.2472402416509123 255.6,3.187119948743467 255.7,3.1262132816785417 255.8,3.064535268264867 255.9,3.0021011266294013 256.0,2.9389262614623717 256.1,2.875026260216396 256.2,2.8104168892606527 256.3,2.745114089990655 256.4,2.679133974894976 256.5,2.612492823579764 256.6,2.545207078751873 256.7,2.477293342162051 256.8,2.408768370508555 256.9,2.3396490713029046 257.0,2.2699524986977373 257.1,2.1996958492795753 257.2,2.128896457825359 257.3,2.057571793025536 257.4,1.9857394531739243 257.5,1.9134171618254663 257.6,1.8406227634233707 257.7,1.7673742188962627 257.8,1.6936896012264635 257.9,1.6195870909907837 258.0,1.5450849718747361 258.1,1.470201626161515 258.2,1.3949555301961378 258.3,1.3193652498268862 258.4,1.2434494358242918 258.5,1.1672268192795068 258.6,1.0907162069826883 258.7,1.013936476782569 258.8,0.9369065729286257 258.9,0.8596455013970463 259.0,0.7821723252011491 259.1,0.7045061596879041 259.2,0.6266661678215433 259.3,0.5486715554552444 259.4,0.4705415665925857 259.5,0.39229547863919945 259.6,0.313952597646573 259.7,0.23553225354821547 259.8,0.15705379539063966 259.9,0.07853658655909757 260.0,-9.803364199544707e-15 260.1,-0.07853658655908166 260.2,-0.15705379539062372 260.3,-0.2355322535482351 260.4,-0.3139525976465217 260.5,-0.392295478639219 260.6,-0.47054156659256985 260.7,-0.5486715554552286 260.8,-0.6266661678215274 260.9,-0.7045061596879234 261.0,-0.7821723252011332 261.1,-0.8596455013970307 261.2,-0.9369065729286101 261.3,-1.0139364767825882 261.4,-1.0907162069826728 261.5,-1.1672268192795257 261.6,-1.2434494358242765 261.7,-1.319365249826871 261.8,-1.3949555301961563 261.9,-1.4702016261614999 262.0,-1.5450849718747213 262.1,-1.6195870909907684 262.2,-1.6936896012264153 262.3,-1.7673742188962809 262.4,-1.840622763423356 262.5,-1.9134171618254516 262.6,-1.9857394531739094 262.7,-2.057571793025554 262.8,-2.128896457825345 262.9,-2.199695849279561 263.0,-2.2699524986977546 263.1,-2.339649071302891 263.2,-2.4087683705085725 263.3,-2.4772933421620373 263.4,-2.5452070787518286 263.5,-2.6124928235797507 263.6,-2.6791339748949925 263.7,-2.7451140899906417 263.8,-2.8104168892606394 263.9,-2.8750262602163827 264.0,-2.938926261462388 264.1,-3.002101126629417 264.2,-3.0645352682648825 264.3,-3.126213281678529 264.4,-3.187119948743455 264.5,-3.2472402416509274 264.6,-3.3065593266182445 264.7,-3.365062567548855 264.8,-3.422735529643461 264.9,-3.4795639829615403 265.0,-3.535533905932735 265.1,-3.5906314888159447 265.2,-3.6448431371070606 265.3,-3.698155474893054 265.4,-3.7505553481523055 265.5,-3.8020298280001423 265.6,-3.8525662138789363 265.7,-3.902152036691642 265.8,-3.950775061878469 265.9,-3.9984232924354295 266.0,-4.045084971874737 266.1,-4.09074858712512 266.2,-4.135402871372814 266.3,-4.179036806841358 266.4,-4.221639627510065 266.5,-4.263200821770453 266.6,-4.303710135019731 266.7,-4.343157572190935 266.8,-4.3815334002193165 266.9,-4.418828150443451 267.0,-4.455032620941842 267.1,-4.490137878803083 267.2,-4.524135262330104 267.3,-4.557016383177219 267.4,-4.5887731284199 267.5,-4.619397662556443 267.6,-4.648882429441268 267.7,-4.677220154149323 267.8,-4.704403844771128 267.9,-4.730426794137717 268.0,-4.755282581475771 268.1,-4.778965073991655 268.2,-4.801468428384711 268.3,-4.822787092288987 268.4,-4.842915805643154 268.5,-4.86184960198839 268.6,-4.879583809693736 268.7,-4.896114053108829 268.8,-4.911436253643445 268.9,-4.925546630773866 269.0,-4.938441702975691 269.1,-4.950118288582786 269.2,-4.960573506572388 269.3,-4.969804777275901 269.4,-4.977809823015396 269.5,-4.9845866686656395 269.6,-4.990133642141358 269.7,-4.99444937480985 269.8,-4.997532801828658 269.9,-4.999383162408304 270.0,-5.0 270.1,-4.999383162408303 270.2,-4.997532801828658 270.3,-4.994449374809848 270.4,-4.99013364214136 270.5,-4.9845866686656395 270.6,-4.9778098230153995 270.7,-4.969804777275898 270.8,-4.960573506572387 270.9,-4.95011828858279 271.0,-4.93844170297569 271.1,-4.925546630773865 271.2,-4.911436253643451 271.3,-4.896114053108829 271.4,-4.879583809693743 271.5,-4.861849601988381 271.6,-4.842915805643153 271.7,-4.822787092288986 271.8,-4.8014684283847195 271.9,-4.778965073991655 272.0,-4.755282581475759 272.1,-4.730426794137717 272.2,-4.704403844771139 272.3,-4.677220154149335 272.4,-4.648882429441267 272.5,-4.6193976625564295 272.6,-4.588773128419899 272.7,-4.557016383177233 272.8,-4.524135262330103 272.9,-4.490137878803082 273.0,-4.455032620941825 273.1,-4.418828150443467 273.2,-4.3815334002193325 273.3,-4.343157572190952 273.4,-4.30371013501973 273.5,-4.263200821770453 273.6,-4.221639627510084 273.7,-4.179036806841357 273.8,-4.1354028713727935 273.9,-4.09074858712514 274.0,-4.045084971874736 274.1,-3.99842329243545 274.2,-3.9507750618784465 274.3,-3.902152036691641 274.4,-3.8525662138789807 274.5,-3.8020298280001645 274.6,-3.750555348152305 274.7,-3.6981554748930536 274.8,-3.644843137107036 274.9,-3.5906314888159683 275.0,-3.535533905932734 275.1,-3.479563982961565 275.2,-3.4227355296434343 275.3,-3.365062567548854 275.4,-3.3065593266182702 275.5,-3.2472402416509265 275.6,-3.1871199487434265 275.7,-3.126213281678556 275.8,-3.064535268264881 275.9,-3.0021011266294444 276.0,-2.938926261462358 276.1,-2.875026260216382 276.2,-2.8104168892606385 276.3,-2.7451140899906705 276.4,-2.6791339748949916 276.5,-2.6124928235797498 276.6,-2.5452070787518277 276.7,-2.477293342162067 276.8,-2.408768370508571 276.9,-2.33964907130289 277.0,-2.2699524986977218 277.1,-2.1996958492795597 277.2,-2.128896457825376 277.3,-2.0575717930255526 277.4,-1.9857394531739083 277.5,-1.9134171618254179 277.6,-1.8406227634233876 277.7,-1.7673742188963133 277.8,-1.6936896012264473 277.9,-1.6195870909907673 278.0,-1.5450849718747197 278.1,-1.4702016261615325 278.2,-1.3949555301961554 278.3,-1.3193652498268356 278.4,-1.2434494358243098 278.5,-1.1672268192795245 278.6,-1.0907162069827063 278.7,-1.013936476782552 278.8,-0.9369065729286088 278.9,-0.8596455013970995 279.0,-0.7821723252011671 279.1,-0.7045061596879222 279.2,-0.6266661678215262 279.3,-0.548671555455192 279.4,-0.47054156659260393 279.5,-0.39229547863921777 279.6,-0.3139525976465559 279.7,-0.23553225354819834 279.8,-0.15705379539062253 279.9,-0.07853658655911594 280.0,-8.572527594031473e-15 280.1,0.07853658655913433 280.2,0.15705379539060538 280.3,0.23553225354821672 280.4,0.3139525976465388 280.5,0.3922954786392361 280.6,0.4705415665925869 280.7,0.5486715554552456 280.8,0.6266661678215092 280.9,0.7045061596879053 281.0,0.7821723252011502 281.1,0.8596455013970826 281.2,0.936906572928592 281.3,1.01393647678257 281.4,1.0907162069826897 281.5,1.1672268192795423 281.6,1.2434494358242931 281.7,1.3193652498268533 281.8,1.394955530196139 281.9,1.470201626161516 282.0,1.5450849718747037 282.1,1.619587090990751 282.2,1.6936896012264313 282.3,1.767374218896297 282.4,1.8406227634233718 282.5,1.9134171618254676 282.6,1.9857394531738926 282.7,2.057571793025537 282.8,2.1288964578253924 282.9,2.199695849279544 283.0,2.269952498697738 283.1,2.3396490713028744 283.2,2.4087683705085565 283.3,2.477293342162052 283.4,2.5452070787518135 283.5,2.612492823579735 283.6,2.6791339748949774 283.7,2.7451140899906563 283.8,2.8104168892606833 283.9,2.8750262602163676 284.0,2.938926261462373 284.1,3.0021011266294306 284.2,3.064535268264896 284.3,3.126213281678542 284.4,3.187119948743413 284.5,3.247240241650913 284.6,3.306559326618284 284.7,3.3650625675488417 284.8,3.4227355296434476 284.9,3.479563982961553 285.0,3.5355339059327475 285.1,3.5906314888159563 285.2,3.644843137107072 285.3,3.6981554748930416 285.4,3.7505553481522935 285.5,3.8020298280001534 285.6,3.85256621387897 285.7,3.9021520366916302 285.8,3.9507750618784576 285.9,3.9984232924354397 286.0,4.045084971874748 286.1,4.0907485871251295 286.2,4.135402871372803 286.3,4.179036806841348 286.4,4.221639627510074 286.5,4.263200821770444 286.6,4.303710135019721 286.7,4.343157572190944 286.8,4.3815334002193245 286.9,4.418828150443459 287.0,4.455032620941849 287.1,4.490137878803075 287.2,4.524135262330096 287.3,4.55701638317724 287.4,4.588773128419893 287.5,4.619397662556422 287.6,4.648882429441262 287.7,4.677220154149329 287.8,4.704403844771134 287.9,4.730426794137711 288.0,4.755282581475765 288.1,4.778965073991649 288.2,4.801468428384715 288.3,4.822787092289001 288.4,4.842915805643148 288.5,4.861849601988386 288.6,4.879583809693741 288.7,4.896114053108826 288.8,4.911436253643448 288.9,4.925546630773862 289.0,4.9384417029756875 289.1,4.950118288582793 289.2,4.960573506572385 289.3,4.969804777275899 289.4,4.977809823015398 289.5,4.984586668665641 289.6,4.990133642141359 289.7,4.994449374809851 289.8,4.997532801828657 289.9,4.999383162408303 290.0,5.0 290.1,4.999383162408303 290.2,4.997532801828658 290.3,4.994449374809849 290.4,4.990133642141359 290.5,4.984586668665639 290.6,4.977809823015398 290.7,4.969804777275899 290.8,4.9605735065723895 290.9,4.950118288582788 291.0,4.938441702975693 291.1,4.9255466307738685 291.2,4.911436253643448 291.3,4.896114053108826 291.4,4.879583809693741 291.5,4.861849601988377 291.6,4.842915805643157 291.7,4.8227870922889915 291.8,4.801468428384715 291.9,4.778965073991659 292.0,4.755282581475776 292.1,4.730426794137722 292.2,4.704403844771134 292.3,4.677220154149329 292.4,4.648882429441274 292.5,4.619397662556437 292.6,4.5887731284199065 292.7,4.557016383177226 292.8,4.524135262330081 292.9,4.49013787880309 293.0,4.455032620941849 293.1,4.418828150443459 293.2,4.3815334002193245 293.3,4.343157572190944 293.4,4.303710135019739 293.5,4.263200821770462 293.6,4.221639627510055 293.7,4.179036806841367 293.8,4.135402871372803 293.9,4.0907485871251295 294.0,4.045084971874727 294.1,3.9984232924354397 294.2,3.95077506187848 294.3,3.9021520366916524 294.4,3.85256621387897 294.5,3.8020298280001534 294.6,3.75055534815227 294.7,3.6981554748930656 294.8,3.6448431371070478 294.9,3.5906314888159563 295.0,3.5355339059327218 295.1,3.479563982961553 295.2,3.4227355296434476 295.3,3.3650625675488675 295.4,3.3065593266183106 295.5,3.2472402416509407 295.6,3.1871199487434403 295.7,3.126213281678542 295.8,3.064535268264868 295.9,3.0021011266294306 296.0,2.938926261462344 296.1,2.875026260216397 296.2,2.810416889260654 296.3,2.7451140899906563 296.4,2.679133974895007 296.5,2.612492823579765 296.6,2.5452070787518437 296.7,2.477293342162052 296.8,2.4087683705085565 296.9,2.339649071302906 297.0,2.269952498697738 297.1,2.199695849279576 297.2,2.1288964578253604 297.3,2.0575717930255695 297.4,1.9857394531739252 297.5,1.9134171618254676 297.6,1.8406227634233718 297.7,1.767374218896297 297.8,1.6936896012264313 297.9,1.6195870909907848 298.0,1.5450849718747373 298.1,1.4702016261614823 298.2,1.3949555301961731 298.3,1.3193652498268533 298.4,1.2434494358242931 298.5,1.1672268192795423 298.6,1.0907162069826897 298.7,1.0139364767826047 298.8,0.9369065729286269 298.9,0.8596455013970826 299.0,0.7821723252011502 299.1,0.70450615968787 299.2,0.6266661678215445 299.3,0.5486715554552103 299.4,0.4705415665925869 299.5,0.39229547863920067 299.6,0.3139525976465388 299.7,0.2355322535482522 299.8,0.15705379539064088 299.9,0.07853658655916984 300.0,2.6948419387607653e-14 300.1,-0.07853658655911595 300.2,-0.15705379539062253 300.3,-0.23553225354823382 300.4,-0.3139525976465559 300.5,-0.3922954786392532 300.6,-0.4705415665925686 300.7,-0.5486715554552273 300.8,-0.6266661678215262 300.9,-0.7045061596878519 301.0,-0.7821723252011321 301.1,-0.8596455013970644 301.2,-0.9369065729286088 301.3,-1.013936476782587 301.4,-1.0907162069826717 301.5,-1.1672268192795245 301.6,-1.2434494358242754 301.7,-1.3193652498268695 301.8,-1.3949555301961212 301.9,-1.4702016261614985 302.0,-1.5450849718747197 302.1,-1.6195870909907673 302.2,-1.6936896012264473 302.3,-1.7673742188963133 302.4,-1.8406227634233545 302.5,-1.9134171618254505 302.6,-1.9857394531739412 302.7,-2.0575717930255206 302.8,-2.128896457825376 302.9,-2.1996958492795597 303.0,-2.2699524986977218 303.1,-2.33964907130289 303.2,-2.40876837050854 303.3,-2.477293342162036 303.4,-2.5452070787518277 303.5,-2.6124928235797498 303.6,-2.679133974895022 303.7,-2.7451140899906408 303.8,-2.810416889260668 303.9,-2.875026260216382 304.0,-2.938926261462358 304.1,-3.0021011266294444 304.2,-3.0645352682648537 304.3,-3.1262132816785284 304.4,-3.1871199487433985 304.5,-3.2472402416508994 304.6,-3.3065593266182702 304.7,-3.365062567548854 304.8,-3.4227355296434596 304.9,-3.479563982961565 305.0,-3.535533905932759 305.1,-3.5906314888159434 305.2,-3.644843137107036 305.3,-3.6981554748930536 305.4,-3.750555348152258 305.5,-3.8020298280001414 305.6,-3.8525662138789585 305.7,-3.902152036691641 305.8,-3.9507750618784683 305.9,-3.9984232924354286 306.0,-4.045084971874736 306.1,-4.09074858712512 306.2,-4.135402871372813 306.3,-4.179036806841338 306.4,-4.221639627510045 306.5,-4.263200821770453 306.6,-4.30371013501973 306.7,-4.343157572190952 306.8,-4.3815334002193325 306.9,-4.418828150443451 307.0,-4.455032620941841 307.1,-4.490137878803097 307.2,-4.524135262330088 307.3,-4.557016383177218 307.4,-4.588773128419899 307.5,-4.6193976625564295 307.6,-4.648882429441267 307.7,-4.677220154149323 307.8,-4.704403844771127 307.9,-4.730426794137717 308.0,-4.75528258147577 308.1,-4.778965073991665 308.2,-4.80146842838471 308.3,-4.822787092288996 308.4,-4.842915805643153 308.5,-4.861849601988381 308.6,-4.879583809693743 308.7,-4.896114053108822 308.8,-4.911436253643444 308.9,-4.925546630773859 309.0,-4.938441702975685 309.1,-4.95011828858279 309.2,-4.960573506572387 309.3,-4.969804777275901 309.4,-4.9778098230153995 309.5,-4.984586668665642 309.6,-4.990133642141358 309.7,-4.994449374809848 309.8,-4.997532801828658 309.9,-4.999383162408302 310.0,-5.0 310.1,-4.999383162408303 310.2,-4.997532801828658 310.3,-4.994449374809848 310.4,-4.99013364214136 310.5,-4.9845866686656395 310.6,-4.9778098230153995 310.7,-4.969804777275898 310.8,-4.960573506572392 310.9,-4.950118288582796 311.0,-4.938441702975691 311.1,-4.925546630773866 311.2,-4.911436253643445 311.3,-4.896114053108822 311.4,-4.879583809693744 311.5,-4.861849601988382 311.6,-4.842915805643154 311.7,-4.822787092288996 311.8,-4.80146842838472 311.9,-4.778965073991655 312.0,-4.755282581475771 312.1,-4.730426794137717 312.2,-4.70440384477114 312.3,-4.677220154149336 312.4,-4.648882429441268 312.5,-4.6193976625564295 312.6,-4.588773128419886 312.7,-4.557016383177233 312.8,-4.524135262330104 312.9,-4.490137878803083 313.0,-4.455032620941842 313.1,-4.418828150443451 313.2,-4.381533400219333 313.3,-4.343157572190953 313.4,-4.303710135019749 313.5,-4.2632008217704715 313.6,-4.221639627510065 313.7,-4.179036806841358 313.8,-4.135402871372794 313.9,-4.09074858712512 314.0,-4.045084971874759 314.1,-3.998423292435451 314.2,-3.950775061878469 314.3,-3.902152036691642 314.4,-3.8525662138789816 314.5,-3.8020298280001654 314.6,-3.7505553481522824 314.7,-3.698155474893054 314.8,-3.6448431371070362 314.9,-3.590631488815969 315.0,-3.535533905932735 315.1,-3.479563982961566 315.2,-3.4227355296434867 315.3,-3.3650625675488817 315.4,-3.3065593266182978 315.5,-3.2472402416509274 315.6,-3.187119948743427 315.7,-3.126213281678529 315.8,-3.064535268264854 315.9,-3.0021011266294457 316.0,-2.938926261462359 316.1,-2.8750262602163827 316.2,-2.810416889260669 316.3,-2.745114089990672 316.4,-2.6791339748950227 316.5,-2.6124928235797507 316.6,-2.5452070787518286 316.7,-2.477293342162068 316.8,-2.4087683705085725 316.9,-2.339649071302891 317.0,-2.269952498697723 317.1,-2.199695849279593 317.2,-2.128896457825377 317.3,-2.057571793025554 317.4,-1.9857394531739094 317.5,-1.9134171618254516 317.6,-1.840622763423356 317.7,-1.7673742188963142 317.8,-1.6936896012264486 317.9,-1.619587090990802 318.0,-1.5450849718747548 318.1,-1.4702016261614999 318.2,-1.3949555301961563 318.3,-1.319365249826871 318.4,-1.2434494358242765 318.5,-1.1672268192795603 318.6,-1.0907162069827074 318.7,-1.013936476782588 318.8,-0.9369065729286101 318.9,-0.8596455013971006 319.0,-0.7821723252011683 319.1,-0.7045061596878882 319.2,-0.6266661678215274 319.3,-0.5486715554551933 319.4,-0.4705415665926052 319.5,-0.3922954786392544 319.6,-0.31395259764655714 319.7,-0.23553225354827054 319.8,-0.15705379539065925 319.9,-0.07853658655915269 320.0,-9.797174393178826e-15 320.1,0.07853658655913309 320.2,0.15705379539063966 320.3,0.23553225354825097 320.4,0.3139525976465376 320.5,0.39229547863923486 320.6,0.4705415665925857 320.7,0.5486715554551738 320.8,0.626666167821508 320.9,0.7045061596878688 321.0,0.7821723252011491 321.1,0.8596455013970814 321.2,0.9369065729285908 321.3,1.013936476782569 321.4,1.0907162069826883 321.5,1.1672268192795412 321.6,1.2434494358242574 321.7,1.319365249826852 321.8,1.3949555301961378 321.9,1.4702016261614812 322.0,1.5450849718747361 322.1,1.6195870909907837 322.2,1.6936896012264302 322.3,1.767374218896296 322.4,1.8406227634233376 322.5,1.9134171618254336 322.6,1.9857394531738914 322.7,2.057571793025536 322.8,2.128896457825359 322.9,2.1996958492795753 323.0,2.2699524986977053 323.1,2.3396490713028735 323.2,2.408768370508555 323.3,2.477293342162051 323.4,2.545207078751812 323.5,2.612492823579734 323.6,2.679133974895006 323.7,2.745114089990655 323.8,2.8104168892606527 323.9,2.8750262602163668 324.0,2.9389262614623437 324.1,3.0021011266294293 324.2,3.0645352682648386 324.3,3.1262132816785138 324.4,3.187119948743412 324.5,3.2472402416509123 324.6,3.306559326618283 324.7,3.3650625675488666 324.8,3.4227355296434725 324.9,3.479563982961552 325.0,3.5355339059327213 325.1,3.590631488815955 325.2,3.644843137107023 325.3,3.6981554748930408 325.4,3.750555348152269 325.5,3.8020298280001525 325.6,3.852566213878969 325.7,3.9021520366916294 325.8,3.950775061878457 325.9,3.9984232924354393 326.0,4.045084971874705 326.1,4.09074858712515 326.2,4.135402871372783 326.3,4.179036806841367 326.4,4.221639627510055 326.5,4.26320082177048 326.6,4.303710135019739 326.7,4.343157572190961 326.8,4.381533400219324 326.9,4.418828150443442 327.0,4.455032620941833 327.1,4.490137878803074 327.2,4.524135262330095 327.3,4.557016383177225 327.4,4.5887731284199065 327.5,4.619397662556422 327.6,4.648882429441247 327.7,4.677220154149328 327.8,4.704403844771109 327.9,4.730426794137711 328.0,4.755282581475754 328.1,4.778965073991659 328.2,4.8014684283847044 328.3,4.822787092289 328.4,4.842915805643139 328.5,4.861849601988386 328.6,4.87958380969374 328.7,4.896114053108833 328.8,4.911436253643441 328.9,4.925546630773868 329.0,4.9384417029756875 329.1,4.950118288582788 329.2,4.9605735065723895 329.3,4.969804777275895 329.4,4.977809823015398 329.5,4.984586668665639 329.6,4.990133642141361 329.7,4.9944493748098475 329.8,4.997532801828658 329.9,4.999383162408303 330.0,5.0 330.1,4.999383162408303 330.2,4.99753280182866 330.3,4.994449374809849 330.4,4.990133642141359 330.5,4.984586668665639 330.6,4.977809823015401 330.7,4.9698047772758995 330.8,4.9605735065723895 330.9,4.950118288582788 331.0,4.938441702975688 331.1,4.925546630773875 331.2,4.911436253643448 331.3,4.896114053108834 331.4,4.879583809693749 331.5,4.8618496019883946 331.6,4.842915805643148 331.7,4.822787092289001 331.8,4.801468428384705 331.9,4.778965073991671 332.0,4.755282581475754 332.1,4.730426794137722 332.2,4.7044038447711225 332.3,4.67722015414933 332.4,4.648882429441274 332.5,4.6193976625564375 332.6,4.588773128419907 332.7,4.557016383177227 332.8,4.5241352623300966 332.9,4.490137878803091 333.0,4.45503262094185 333.1,4.418828150443476 333.2,4.381533400219342 333.3,4.34315757219098 333.4,4.30371013501974 333.5,4.263200821770481 333.6,4.221639627510056 333.7,4.179036806841388 333.8,4.135402871372785 333.9,4.09074858712513 334.0,4.0450849718747275 334.1,3.9984232924354406 334.2,3.950775061878459 334.3,3.902152036691653 334.4,3.852566213878948 334.5,3.802029828000154 334.6,3.750555348152295 334.7,3.698155474893067 334.8,3.644843137107073 334.9,3.5906314888159567 335.0,3.535533905932773 335.1,3.4795639829615284 335.2,3.4227355296434743 335.3,3.365062567548842 335.4,3.3065593266182853 335.5,3.2472402416509683 335.6,3.1871199487434145 335.7,3.126213281678543 335.8,3.0645352682648683 335.9,3.00210112662946 336.0,2.938926261462374 336.1,2.875026260216398 336.2,2.8104168892606554 336.3,2.745114089990657 336.4,2.6791339748949783 336.5,2.612492823579766 336.6,2.5452070787518757 336.7,2.4772933421620533 336.8,2.4087683705086196 336.9,2.339649071302907 337.0,2.269952498697771 337.1,2.1996958492795455 337.2,2.1288964578253937 337.3,2.057571793025506 337.4,1.985739453173959 337.5,1.9134171618254359 337.6,1.840622763423373 337.7,1.767374218896265 337.8,1.6936896012264657 337.9,1.619587090990786 338.0,1.5450849718747386 338.1,1.4702016261615176 338.2,1.39495553019614 338.3,1.3193652498268889 338.4,1.2434494358242942 338.5,1.1672268192795436 338.6,1.09071620698276 338.7,1.013936476782606 338.8,0.936906572928663 338.9,0.8596455013970837 339.0,0.7821723252011865 339.1,0.7045061596878712 339.2,0.6266661678215808 339.3,0.5486715554552115 339.4,0.47054156659258817 339.5,0.3922954786392019 339.6,0.31395259764657546 339.7,0.23553225354821794 339.8,0.15705379539064213 339.9,0.07853658655910001 340.0,-7.354070601250003e-15 340.1,-0.07853658655907919 340.2,-0.1570537953906213 340.3,-0.23553225354819712 340.4,-0.3139525976465193 340.5,-0.3922954786391811 340.6,-0.47054156659260277 340.7,-0.5486715554551909 340.8,-0.6266661678215603 340.9,-0.7045061596878506 341.0,-0.7821723252010958 341.1,-0.8596455013970633 341.2,-0.9369065729286076 341.3,-1.0139364767825856 341.4,-1.0907162069826706 341.5,-1.1672268192795234 341.6,-1.243449435824274 341.7,-1.3193652498268684 341.8,-1.394955530196154 341.9,-1.4702016261614976 342.0,-1.5450849718747186 342.1,-1.6195870909907326 342.2,-1.6936896012264127 342.3,-1.7673742188962454 342.4,-1.8406227634233536 342.5,-1.9134171618254168 342.6,-1.98573945317394 342.7,-2.057571793025487 342.8,-2.128896457825407 342.9,-2.199695849279559 343.0,-2.2699524986977524 343.1,-2.3396490713028886 343.2,-2.4087683705085703 343.3,-2.477293342162035 343.4,-2.545207078751827 343.5,-2.6124928235797484 343.6,-2.6791339748949907 343.7,-2.74511408999064 343.8,-2.810416889260638 343.9,-2.875026260216381 344.0,-2.9389262614623286 344.1,-3.0021011266293867 344.2,-3.0645352682648523 344.3,-3.126213281678499 344.4,-3.187119948743425 344.5,-3.2472402416508714 344.6,-3.3065593266182964 344.7,-3.3650625675488532 344.8,-3.422735529643459 344.9,-3.4795639829615386 345.0,-3.5355339059327333 345.1,-3.5906314888159425 345.2,-3.644843137107059 345.3,-3.6981554748930523 345.4,-3.750555348152304 345.5,-3.8020298280001406 345.6,-3.8525662138789354 345.7,-3.90215203669164 345.8,-3.9507750618784243 345.9,-3.9984232924354277 346.0,-4.045084971874715 346.1,-4.090748587125138 346.2,-4.135402871372793 346.3,-4.179036806841376 346.4,-4.2216396275100445 346.5,-4.263200821770452 346.6,-4.303710135019729 346.7,-4.3431575721909335 346.8,-4.381533400219316 346.9,-4.41882815044345 347.0,-4.45503262094184 347.1,-4.490137878803081 347.2,-4.524135262330102 347.3,-4.557016383177218 347.4,-4.588773128419899 347.5,-4.619397662556429 347.6,-4.64888242944124 347.7,-4.677220154149323 347.8,-4.704403844771115 347.9,-4.730426794137716 348.0,-4.755282581475759 348.1,-4.778965073991665 348.2,-4.8014684283847 348.3,-4.822787092288995 348.4,-4.842915805643153 348.5,-4.861849601988389 348.6,-4.879583809693736 348.7,-4.896114053108828 348.8,-4.911436253643444 348.9,-4.925546630773865 349.0,-4.93844170297569 349.1,-4.950118288582785 349.2,-4.960573506572387 349.3,-4.969804777275897 349.4,-4.977809823015396 349.5,-4.984586668665637 349.6,-4.99013364214136 349.7,-4.994449374809848 349.8,-4.9975328018286564 349.9,-4.999383162408302 350.0,-5.0 350.1,-4.999383162408303 350.2,-4.997532801828658 350.3,-4.994449374809848 350.4,-4.99013364214136 350.5,-4.9845866686656395 350.6,-4.9778098230153995 350.7,-4.969804777275898 350.8,-4.960573506572388 350.9,-4.95011828858279 351.0,-4.938441702975691 351.1,-4.925546630773871 351.2,-4.911436253643451 351.3,-4.896114053108836 351.4,-4.879583809693744 351.5,-4.86184960198839 351.6,-4.842915805643145 351.7,-4.822787092289006 351.8,-4.801468428384701 351.9,-4.778965073991655 352.0,-4.755282581475771 352.1,-4.730426794137717 352.2,-4.70440384477114 352.3,-4.677220154149336 352.4,-4.648882429441269 352.5,-4.61939766255643 352.6,-4.5887731284199 352.7,-4.557016383177234 352.8,-4.524135262330104 352.9,-4.490137878803083 353.0,-4.455032620941858 353.1,-4.418828150443485 353.2,-4.381533400219334 353.3,-4.343157572190971 353.4,-4.303710135019731 353.5,-4.263200821770491 353.6,-4.221639627510047 353.7,-4.179036806841359 353.8,-4.135402871372794 353.9,-4.090748587125141 354.0,-4.045084971874738 354.1,-3.9984232924354512 354.2,-3.9507750618784483 354.3,-3.9021520366916422 354.4,-3.8525662138789825 354.5,-3.8020298280001663 354.6,-3.750555348152307 354.7,-3.698155474893055 354.8,-3.6448431371070855 354.9,-3.59063148881597 355.0,-3.5355339059327613 355.1,-3.4795639829615417 355.2,-3.4227355296434614 355.3,-3.3650625675489088 355.4,-3.306559326618299 355.5,-3.2472402416509283 355.6,-3.1871199487434283 355.7,-3.1262132816785577 355.8,-3.0645352682648834 355.9,-3.002101126629446 356.0,-2.93892626146236 356.1,-2.875026260216384 356.2,-2.8104168892606407 356.3,-2.7451140899906727 356.4,-2.679133974894994 356.5,-2.6124928235797515 356.6,-2.545207078751891 356.7,-2.477293342162069 356.8,-2.4087683705086045 356.9,-2.339649071302892 357.0,-2.2699524986977555 357.1,-2.19969584927953 357.2,-2.12889645782541 357.3,-2.057571793025523 357.4,-1.9857394531739105 357.5,-1.91341716182542 357.6,-1.84062276342339 357.7,-1.7673742188963155 357.8,-1.6936896012264495 357.9,-1.6195870909907697 358.0,-1.5450849718747222 358.1,-1.470201626161535 358.2,-1.3949555301961578 358.3,-1.319365249826872 358.4,-1.2434494358243122 358.5,-1.1672268192795614 358.6,-1.0907162069827434 358.7,-1.0139364767825891 358.8,-0.9369065729286462 358.9,-0.8596455013971018 359.0,-0.7821723252012047 359.1,-0.7045061596878894 359.2,-0.6266661678215286 359.3,-0.5486715554551944 359.4,-0.4705415665926064 359.5,-0.3922954786392202 359.6,-0.31395259764655836 359.7,-0.2355322535482008 359.8,-0.15705379539062495 359.9,-0.0785365865591184 360.0,-1.1021821192326179e-14 360.1,0.07853658655909634 360.2,0.1570537953906029 360.3,0.23553225354817878 360.4,0.3139525976465363 360.5,0.3922954786391982 360.6,0.47054156659261986 360.7,0.5486715554551725 360.8,0.6266661678214714 360.9,0.7045061596879028 361.0,0.7821723252011479 361.1,0.8596455013970801 361.2,0.9369065729285896 361.3,1.0139364767825678 361.4,1.0907162069826872 361.5,1.16722681927954 361.6,1.2434494358242907 361.7,1.3193652498268507 361.8,1.3949555301961363 361.9,1.4702016261615138 362.0,1.5450849718747013 362.1,1.619587090990715 362.2,1.6936896012264289 362.3,1.7673742188962616 362.4,1.8406227634233696 362.5,1.9134171618253994 362.6,1.9857394531739556 362.7,2.057571793025535 362.8,2.12889645782539 362.9,2.199695849279542 363.0,2.269952498697736 363.1,2.339649071302872 363.2,2.4087683705085543 363.3,2.4772933421620498 363.4,2.545207078751811 363.5,2.612492823579733 363.6,2.6791339748949747 363.7,2.745114089990654 363.8,2.8104168892606225 363.9,2.875026260216366 364.0,2.9389262614623424 364.1,3.0021011266294 364.2,3.0645352682648657 364.3,3.126213281678485 364.4,3.187119948743411 364.5,3.2472402416509114 364.6,3.3065593266182827 364.7,3.36506256754884 364.8,3.422735529643446 364.9,3.479563982961551 365.0,3.535533905932745 365.1,3.5906314888159545 365.2,3.6448431371070704 365.3,3.6981554748930403 365.4,3.750555348152292 365.5,3.802029828000152 365.6,3.852566213878923 365.7,3.9021520366916285 365.8,3.950775061878435 365.9,3.998423292435438 366.0,4.045084971874725 366.1,4.090748587125149 366.2,4.135402871372783 366.3,4.179036806841347 366.4,4.221639627510073 366.5,4.263200821770442 366.6,4.30371013501972 366.7,4.343157572190942 366.8,4.381533400219324 366.9,4.418828150443458 367.0,4.455032620941848 367.1,4.490137878803074 367.2,4.524135262330095 367.3,4.557016383177225 367.4,4.588773128419891 367.5,4.619397662556422 367.6,4.6488824294412465 367.7,4.677220154149328 367.8,4.704403844771121 367.9,4.730426794137711 368.0,4.755282581475753 368.1,4.7789650739916585 368.2,4.801468428384714 368.3,4.8227870922889995 368.4,4.842915805643148 368.5,4.861849601988385 368.6,4.87958380969374 368.7,4.896114053108825 368.8,4.911436253643448 368.9,4.925546630773861 369.0,4.9384417029756875 369.1,4.950118288582788 369.2,4.960573506572385 369.3,4.969804777275895 369.4,4.977809823015398 369.5,4.984586668665639 369.6,4.990133642141357 369.7,4.9944493748098475 369.8,4.9975328018286564 369.9,4.999383162408303 370.0,5.0 370.1,4.999383162408303 370.2,4.997532801828658 370.3,4.994449374809849 370.4,4.99013364214136 370.5,4.984586668665639 370.6,4.977809823015399 370.7,4.9698047772758995 370.8,4.9605735065723895 370.9,4.950118288582789 371.0,4.938441702975694 371.1,4.925546630773875 371.2,4.911436253643448 371.3,4.896114053108834 371.4,4.879583809693741 371.5,4.8618496019883946 371.6,4.84291580564314 371.7,4.822787092288992 371.8,4.801468428384716 371.9,4.77896507399166 372.0,4.755282581475777 372.1,4.730426794137723 372.2,4.704403844771134 372.3,4.67722015414933 372.4,4.648882429441275 372.5,4.6193976625564375 372.6,4.588773128419908 372.7,4.557016383177227 372.8,4.524135262330112 372.9,4.4901378788030915 373.0,4.455032620941851 373.1,4.418828150443477 373.2,4.381533400219326 373.3,4.3431575721909805 373.4,4.303710135019741 373.5,4.2632008217704636 373.6,4.221639627510056 373.7,4.179036806841369 373.8,4.135402871372805 373.9,4.090748587125131 374.0,4.045084971874728 374.1,3.998423292435441 374.2,3.9507750618784816 374.3,3.9021520366916542 374.4,3.852566213878972 374.5,3.802029828000155 374.6,3.750555348152319 374.7,3.6981554748930674 374.8,3.644843137107074 374.9,3.590631488815958 375.0,3.535533905932749 375.1,3.479563982961605 375.2,3.422735529643475 375.3,3.36506256754887 375.4,3.306559326618259 375.5,3.247240241650942 375.6,3.1871199487434425 375.7,3.1262132816785444 375.8,3.0645352682648697 375.9,3.002101126629433 376.0,2.9389262614623464 376.1,2.8750262602163987 376.2,2.810416889260656 376.3,2.7451140899906585 376.4,2.6791339748950094 376.5,2.6124928235797675 376.6,2.5452070787518766 376.7,2.477293342162054 376.8,2.40876837050859 376.9,2.339649071302908 377.0,2.269952498697772 377.1,2.1996958492795464 377.2,2.1288964578253626 377.3,2.0575717930255717 377.4,1.9857394531739274 377.5,1.9134171618254698 377.6,1.840622763423374 377.7,1.7673742188962993 377.8,1.6936896012264335 377.9,1.619587090990787 378.0,1.5450849718747397 378.1,1.4702016261615185 378.2,1.3949555301961754 378.3,1.3193652498268897 378.4,1.2434494358242956 378.5,1.167226819279545 378.6,1.0907162069827268 378.7,1.0139364767826073 378.8,0.9369065729286642 378.9,0.85964550139705 379.0,0.7821723252011527 379.1,0.7045061596878726 379.2,0.6266661678215468 379.3,0.5486715554552127 379.4,0.47054156659258933 379.5,0.3922954786392031 379.6,0.31395259764654126 379.7,0.23553225354825463 379.8,0.15705379539064335 379.9,0.0785365865591723 380.0,2.9397712985902356e-14 380.1,-0.07853658655907798 380.2,-0.15705379539062006 380.3,-0.2355322535481959 380.4,-0.3139525976465535 380.5,-0.3922954786391799 380.6,-0.4705415665925308 380.7,-0.5486715554552248 380.8,-0.6266661678215237 380.9,-0.7045061596878845 381.0,-0.7821723252011297 381.1,-0.8596455013970621 381.2,-0.9369065729286065 381.3,-1.0139364767825845 381.4,-1.0907162069826692 381.5,-1.1672268192795223 381.6,-1.243449435824273 381.7,-1.3193652498268673 381.8,-1.394955530196119 381.9,-1.4702016261614963 382.0,-1.5450849718747175 382.1,-1.6195870909907315 382.2,-1.693689601226445 382.3,-1.7673742188962445 382.4,-1.8406227634233523 382.5,-1.9134171618254483 382.6,-1.985739453173939 382.7,-2.0575717930255184 382.8,-2.1288964578253737 382.9,-2.1996958492795575 383.0,-2.2699524986977195 383.1,-2.3396490713028877 383.2,-2.408768370508538 383.3,-2.4772933421620342 383.4,-2.5452070787518255 383.5,-2.612492823579747 383.6,-2.6791339748949596 383.7,-2.745114089990639 383.8,-2.8104168892606367 383.9,-2.87502626021638 384.0,-2.938926261462356 384.1,-3.0021011266293858 384.2,-3.0645352682648515 384.3,-3.1262132816785257 384.4,-3.187119948743452 384.5,-3.2472402416508976 384.6,-3.3065593266182685 384.7,-3.3650625675488524 384.8,-3.4227355296434583 384.9,-3.4795639829615634 385.0,-3.5355339059327577 385.1,-3.5906314888159416 385.2,-3.644843137107034 385.3,-3.698155474893052 385.4,-3.750555348152256 385.5,-3.8020298280001397 385.6,-3.852566213878934 385.7,-3.9021520366916396 385.8,-3.9507750618784456 385.9,-3.9984232924354273 386.0,-4.045084971874714 386.1,-4.090748587125118 386.2,-4.135402871372812 386.3,-4.179036806841337 386.4,-4.221639627510063 386.5,-4.263200821770451 386.6,-4.303710135019728 386.7,-4.343157572190951 386.8,-4.381533400219332 386.9,-4.418828150443449 387.0,-4.45503262094184 387.1,-4.490137878803081 387.2,-4.524135262330087 387.3,-4.557016383177217 387.4,-4.5887731284198985 387.5,-4.619397662556429 387.6,-4.648882429441254 387.7,-4.677220154149322 387.8,-4.7044038447711145 387.9,-4.730426794137727 388.0,-4.75528258147577 388.1,-4.778965073991664 388.2,-4.801468428384709 388.3,-4.822787092288995 388.4,-4.842915805643152 388.5,-4.86184960198838 388.6,-4.879583809693743 388.7,-4.896114053108821 388.8,-4.911436253643443 388.9,-4.925546630773859 389.0,-4.938441702975684 389.1,-4.950118288582785 389.2,-4.960573506572387 389.3,-4.969804777275897 389.4,-4.9778098230153995 389.5,-4.984586668665637 389.6,-4.990133642141355 389.7,-4.99444937480985 389.8,-4.997532801828658 389.9,-4.999383162408303 390.0,-5.0 390.1,-4.999383162408303 390.2,-4.997532801828658 390.3,-4.994449374809848 390.4,-4.990133642141361 390.5,-4.9845866686656395 390.6,-4.9778098230154 390.7,-4.969804777275898 390.8,-4.960573506572392 390.9,-4.950118288582796 391.0,-4.938441702975691 391.1,-4.925546630773871 391.2,-4.911436253643445 391.3,-4.896114053108837 391.4,-4.879583809693745 391.5,-4.861849601988382 391.6,-4.842915805643154 391.7,-4.822787092288997 391.8,-4.801468428384721 391.9,-4.778965073991655 392.0,-4.755282581475772 392.1,-4.730426794137718 392.2,-4.70440384477114 392.3,-4.677220154149336 392.4,-4.648882429441269 392.5,-4.619397662556431 392.6,-4.588773128419915 392.7,-4.557016383177234 392.8,-4.5241352623301045 392.9,-4.4901378788030835 393.0,-4.455032620941843 393.1,-4.418828150443486 393.2,-4.381533400219334 393.3,-4.343157572190954 393.4,-4.303710135019713 393.5,-4.263200821770473 393.6,-4.221639627510067 393.7,-4.17903680684136 393.8,-4.135402871372795 393.9,-4.0907485871251215 394.0,-4.04508497187476 394.1,-3.9984232924354526 394.2,-3.950775061878471 394.3,-3.9021520366916436 394.4,-3.8525662138789833 394.5,-3.8020298280001668 394.6,-3.7505553481523073 394.7,-3.6981554748930554 394.8,-3.6448431371070624 394.9,-3.590631488815971 395.0,-3.5355339059327617 395.1,-3.479563982961568 395.2,-3.4227355296434365 395.3,-3.3650625675488834 395.4,-3.306559326618273 395.5,-3.247240241650929 395.6,-3.187119948743429 395.7,-3.126213281678531 395.8,-3.0645352682648563 395.9,-3.002101126629447 396.0,-2.9389262614623615 396.1,-2.875026260216385 396.2,-2.8104168892606713 396.3,-2.7451140899906736 396.4,-2.679133974895025 396.5,-2.612492823579753 396.6,-2.5452070787518615 396.7,-2.47729334216207 396.8,-2.408768370508606 396.9,-2.3396490713028615 397.0,-2.269952498697725 397.1,-2.1996958492795953 397.2,-2.128896457825379 397.3,-2.057571793025556 397.4,-1.9857394531739117 397.5,-1.9134171618254538 397.6,-1.8406227634233583 397.7,-1.7673742188963164 397.8,-1.6936896012264508 397.9,-1.6195870909908043 398.0,-1.5450849718747572 398.1,-1.470201626161536 398.2,-1.394955530196159 398.3,-1.3193652498268733 398.4,-1.243449435824279 398.5,-1.1672268192795627 398.6,-1.0907162069827445 398.7,-1.0139364767825556 398.8,-0.9369065729286125 398.9,-0.8596455013970681 399.0,-0.7821723252011709 399.1,-0.7045061596878908 399.2,-0.62666616782153 399.3,-0.5486715554551956 399.4,-0.47054156659260765 399.5,-0.39229547863925684 399.6,-0.3139525976465596 399.7,-0.235532253548273 399.8,-0.1570537953906617 399.9,-0.07853658655915514 400.0,-1.2246467991473532e-14" stroke-width="1" stroke-linecap="round" stroke-linejoin="round" stroke="#000000" fill="none"  />
<!-- Footer -->
</svg>
