<!-- Header -->
<svg
    version="1.1"
    baseProfile="full"
    xmlns="http://www.w3.org/2000/svg"
    xmlns:xlink="http://www.w3.org/1999/xlink"
    xmlns:ev="http://www.w3.org/2001/xml-events"
    width="210.0"
    height="20.0"
    viewBox="-5.0 -10.0 210.0 20.0"
    preserveAspectRatio="none"
>
<!-- Body -->
<!-- polyline -->
<polyline points="0.0,0.0 0.1,0.03141571982779476 0.2,0.06283019941676304 0.3,0.09424219857704087 0.4,0.1256504772166874 0.5,0.15705379539064146 0.6,0.1884509133496727 0.7,0.2198405915893245 0.8,0.25122159089884777 0.9,0.28259267241012265 1.0,0.31395259764656686 1.1,0.34530012857202896 1.2,0.3766340276396636 1.3,0.4079530578407877 1.4,0.4392559827537158 1.5,0.47054156659257157 1.6,0.5018085742560745 1.7,0.5330557713762996 1.8,0.5642819243674084 1.9,0.5954858004743486 2.0,0.6266661678215213 2.1,0.6578217954614125 2.2,0.6889514534231904 2.3,0.7200539127612606 2.4,0.7511279456037854 2.5,0.7821723252011543 2.6,0.8131858259744179 2.7,0.8441672235636694 2.8,0.8751152948763802 2.9,0.9060288181356867 3.0,0.936906572928623 3.1,0.9677473402543012 3.2,0.9985499025720351 3.3,1.0293130438494067 3.4,1.0600355496102734 3.5,1.0907162069827128 3.6,1.1213538047469058 3.7,1.151947133382953 3.8,1.1824949851186233 3.9,1.212996153977037 4.0,1.243449435824274 4.1,1.2738536284169104 4.2,1.3042075314494848 4.3,1.334509946601878 4.4,1.3647596775866262 4.5,1.3949555301961465 4.6,1.4250963123498803 4.7,1.455180834141359 4.8,1.4852079078851745 4.9,1.51517634816387 5.0,1.545084971874737 5.1,1.5749325982765237 5.2,1.6047180490360473 5.3,1.634440148274712 5.4,1.6640977226149332 5.5,1.6936896012264568 5.6,1.7232146158725854 5.7,1.752671600956295 5.8,1.7820593935662534 5.9,1.8113768335227285 6.0,1.8406227634233896 6.1,1.8697960286890019 6.2,1.8988954776090052 6.3,1.9279199613869824 6.4,1.9568683341860122 6.5,1.985739453173903 6.6,2.014532178568313 6.7,2.0432453736817453 6.8,2.0718779049664207 6.9,2.1004286420590312 7.0,2.1288964578253635 7.1,2.1572802284047947 7.2,2.1855788332546644 7.3,2.213791155194507 7.4,2.241916080450161 7.5,2.2699524986977337 7.6,2.297899303107439 7.7,2.325755390387292 7.8,2.3535196608266626 7.9,2.3811910183396954 8.0,2.4087683705085765 8.1,2.436250628626661 8.2,2.4636367077414576 8.3,2.490925526697454 8.4,2.518116008178804 8.5,2.5452070787518566 8.6,2.572197668907532 8.7,2.599086713103547 8.8,2.6258731498064787 8.9,2.6525559215336703 9.0,2.679133974894983 9.1,2.705606260634379 9.2,2.731971733671345 9.3,2.7582293531421516 9.4,2.7843780824409397 9.5,2.8104168892606527 9.6,2.8363447456337827 9.7,2.862160627972954 9.8,2.887863517111338 9.9,2.913452398342881 10.0,2.938926261462366 10.1,2.9642841008052963 10.2,2.9895249152875936 10.3,3.014647708445124 10.4,3.039651488473027 10.5,3.0645352682648825 10.6,3.089298065451671 10.7,3.1139389024405624 10.8,3.1384568064535023 10.9,3.1628508095656223 11.0,3.1871199487434483 11.1,3.2112632658829217 11.2,3.2352798078472214 11.3,3.259168626504394 11.4,3.2829287787647825 11.5,3.306559326618259 11.6,3.330059337171258 11.7,3.3534278826835995 11.8,3.3766640406051223 11.9,3.399766893612096 12.0,3.422735529643443 12.1,3.4455690419367424 12.2,3.4682665290640244 12.3,3.4908270949673637 12.4,3.5132498489942456 12.5,3.5355339059327373 12.6,3.557678386046427 12.7,3.5796824151091555 12.8,3.601545124439535 12.9,3.623265650935233 13.0,3.644843137107058 13.1,3.6662767311128004 13.2,3.6875655867908694 13.3,3.708708863693696 13.4,3.7297057271209106 13.5,3.7505553481522975 13.6,3.771256903680519 13.7,3.791809576443609 13.8,3.8122125550572394 13.9,3.8324650340467494 14.0,3.852566213878946 14.1,3.872515300993669 14.2,3.8923115078351165 14.3,3.9119540528829404 14.4,3.9314421606830945 14.5,3.950775061878452 14.6,3.9699519932391762 14.7,3.988972197692855 14.8,4.007834924354382 14.9,4.02653942855561 15.0,4.045084971874736 15.1,4.06347082216547 15.2,4.081696253585919 15.3,4.0997605466272615 15.4,4.117662988142137 15.5,4.1354028713728095 15.6,4.1529794959790625 15.7,4.170392168065856 15.8,4.1876402002107085 15.9,4.204722911490845 16.0,4.221639627510076 16.1,4.238389680425416 16.2,4.254972408973459 16.3,4.271387158496475 16.4,4.287633280968261 16.5,4.303710135019719 16.6,4.319617085964176 16.7,4.33535350582245 16.8,4.350918773347629 16.9,4.3663122740496005 17.0,4.381533400219318 17.1,4.3965815509527815 17.2,4.4114561321747665 17.3,4.426156556662276 17.4,4.440682244067722 17.5,4.455032620941839 17.6,4.469207120756319 17.7,4.483205183926179 17.8,4.497026257831855 17.9,4.5106697968410145 18.0,4.524135262330098 18.1,4.537422122705585 18.2,4.550529853424978 18.3,4.563457937017514 18.4,4.576205863104587 18.5,4.588773128419906 18.6,4.601159236829352 18.7,4.6133636993505736 18.8,4.6253860341722906 18.9,4.637225766673306 19.0,4.648882429441256 19.1,4.6603555622910555 19.2,4.67164471228306 19.3,4.682749433740962 19.4,4.69366928826937 19.5,4.704403844771127 19.6,4.714952679464322 19.7,4.725315375899024 19.8,4.735491524973722 19.9,4.745480724951473 20.0,4.755282581475767 20.1,4.764896707586094 20.2,4.774322723733214 20.3,4.783560257794153 20.4,4.792608945086879 20.5,4.801468428384715 20.6,4.8101383579304295 20.7,4.818618391450048 20.8,4.82690819416637 20.9,4.835007438812175 21.0,4.842915805643155 21.1,4.85063298245053 21.2,4.858158664573369 21.3,4.865492554910633 21.4,4.872634363932885 21.5,4.879583809693736 21.6,4.886340617840967 21.7,4.892904521627361 21.8,4.899275261921234 21.9,4.90545258721667 22.0,4.911436253643443 22.1,4.917226024976649 22.2,4.922821672646027 22.3,4.9282229757449905 22.4,4.9334297210393405 22.5,4.938441702975689 22.6,4.943258723689571 22.7,4.947880593013255 22.8,4.952307128483256 22.9,4.956538155347533 23.0,4.960573506572389 23.1,4.964413022849069 23.2,4.968056552600042 23.3,4.971503951984994 23.4,4.9747550849065005 23.5,4.9778098230154 23.6,4.980668045715863 23.7,4.983329640170149 23.8,4.98579450130307 23.9,4.9880625318061265 24.0,4.990133642141358 24.1,4.992007750544875 24.2,4.993684783030087 24.3,4.995164673390623 24.4,4.996447363202946 24.5,4.997532801828658 24.6,4.9984209464165 24.7,4.999111761904045 24.8,4.99960522101908 24.9,4.9999013042806855 25.0,5.0 25.1,4.9999013042806855 25.2,4.99960522101908 25.3,4.999111761904045 25.4,4.9984209464165 25.5,4.997532801828658 25.6,4.996447363202946 25.7,4.995164673390623 25.8,4.993684783030087 25.9,4.992007750544875 26.0,4.990133642141358 26.1,4.9880625318061265 26.2,4.98579450130307 26.3,4.983329640170149 26.4,4.980668045715863 26.5,4.9778098230154 26.6,4.9747550849065005 26.7,4.971503951984994 26.8,4.968056552600042 26.9,4.964413022849069 27.0,4.9605735065723895 27.1,4.956538155347533 27.2,4.952307128483256 27.3,4.947880593013255 27.4,4.943258723689571 27.5,4.938441702975689 27.6,4.9334297210393405 27.7,4.9282229757449905 27.8,4.922821672646027 27.9,4.917226024976649 28.0,4.911436253643443 28.1,4.90545258721667 28.2,4.899275261921234 28.3,4.892904521627361 28.4,4.886340617840967 28.5,4.879583809693737 28.6,4.872634363932885 28.7,4.865492554910633 28.8,4.85815866457337 28.9,4.850632982450529 29.0,4.842915805643155 29.1,4.835007438812175 29.2,4.82690819416637 29.3,4.818618391450048 29.4,4.8101383579304295 29.5,4.801468428384715 29.6,4.792608945086879 29.7,4.783560257794152 29.8,4.774322723733214 29.9,4.764896707586095 30.0,4.755282581475768 30.1,4.745480724951473 30.2,4.735491524973722 30.3,4.725315375899025 30.4,4.714952679464322 30.5,4.704403844771127 30.6,4.69366928826937 30.7,4.682749433740962 30.8,4.67164471228306 30.9,4.6603555622910555 31.0,4.648882429441257 31.1,4.637225766673307 31.2,4.6253860341722906 31.3,4.613363699350574 31.4,4.601159236829352 31.5,4.588773128419906 31.6,4.576205863104588 31.7,4.563457937017515 31.8,4.550529853424979 31.9,4.537422122705585 32.0,4.524135262330097 32.1,4.510669796841014 32.2,4.4970262578318545 32.3,4.48320518392618 32.4,4.4692071207563195 32.5,4.455032620941839 32.6,4.440682244067723 32.7,4.426156556662276 32.8,4.411456132174767 32.9,4.3965815509527815 33.0,4.381533400219317 33.1,4.3663122740496005 33.2,4.350918773347629 33.3,4.335353505822451 33.4,4.319617085964177 33.5,4.303710135019719 33.6,4.287633280968261 33.7,4.271387158496475 33.8,4.25497240897346 33.9,4.238389680425417 34.0,4.221639627510075 34.1,4.204722911490846 34.2,4.1876402002107085 34.3,4.170392168065858 34.4,4.152979495979063 34.5,4.135402871372809 34.6,4.117662988142136 34.7,4.099760546627261 34.8,4.08169625358592 34.9,4.0634708221654705 35.0,4.045084971874737 35.1,4.02653942855561 35.2,4.007834924354382 35.3,3.9889721976928563 35.4,3.9699519932391776 35.5,3.9507750618784514 35.6,3.931442160683094 35.7,3.9119540528829395 35.8,3.8923115078351174 35.9,3.872515300993669 36.0,3.852566213878946 36.1,3.8324650340467494 36.2,3.812212555057239 36.3,3.79180957644361 36.4,3.77125690368052 36.5,3.750555348152298 36.6,3.7297057271209093 36.7,3.708708863693695 36.8,3.6875655867908708 36.9,3.6662767311127995 37.0,3.644843137107057 37.1,3.623265650935233 37.2,3.6015451244395336 37.3,3.579682415109157 37.4,3.5576783860464274 37.5,3.5355339059327378 37.6,3.513249848994246 37.7,3.4908270949673637 37.8,3.468266529064026 37.9,3.4455690419367437 38.0,3.422735529643444 38.1,3.399766893612095 38.2,3.3766640406051214 38.3,3.353427882683602 38.4,3.3300593371712583 38.5,3.306559326618259 38.6,3.282928778764782 38.7,3.2591686265043935 38.8,3.2352798078472227 38.9,3.2112632658829225 39.0,3.187119948743449 39.1,3.1628508095656227 39.2,3.138456806453501 39.3,3.1139389024405646 39.4,3.0892980654516733 39.5,3.0645352682648817 39.6,3.0396514884730266 39.7,3.014647708445123 39.8,2.9895249152875953 39.9,2.9642841008052967 40.0,2.9389262614623664 40.1,2.913452398342881 40.2,2.887863517111338 40.3,2.862160627972956 40.4,2.8363447456337836 40.5,2.810416889260654 40.6,2.784378082440939 40.7,2.75822935314215 40.8,2.731971733671348 40.9,2.7056062606343794 41.0,2.679133974894985 41.1,2.6525559215336703 41.2,2.6258731498064765 41.3,2.599086713103549 41.4,2.572197668907533 41.5,2.5452070787518553 41.6,2.5181160081788043 41.7,2.4909255266974526 41.8,2.463636707741458 41.9,2.4362506286266634 42.0,2.408768370508576 42.1,2.381191018339697 42.2,2.353519660826662 42.3,2.3257553903872927 42.4,2.297899303107442 42.5,2.269952498697734 42.6,2.2419160804501597 42.7,2.2137911551945075 42.8,2.185578833254666 42.9,2.1572802284047943 43.0,2.1288964578253644 43.1,2.1004286420590303 43.2,2.0718779049664215 43.3,2.043245373681748 43.4,2.014532178568314 43.5,1.9857394531739052 43.6,1.9568683341860118 43.7,1.9279199613869802 43.8,1.898895477609007 43.9,1.8697960286890034 44.0,1.8406227634233907 44.1,1.811376833522729 44.2,1.7820593935662519 44.3,1.7526716009562973 44.4,1.7232146158725872 44.5,1.6936896012264566 44.6,1.6640977226149347 44.7,1.6344401482747115 44.8,1.6047180490360486 44.9,1.5749325982765248 45.0,1.5450849718747375 45.1,1.5151763481638723 45.2,1.4852079078851745 45.3,1.455180834141361 45.4,1.4250963123498823 45.5,1.3949555301961478 45.6,1.3647596775866253 45.7,1.3345099466018786 45.8,1.3042075314494852 45.9,1.2738536284169113 46.0,1.2434494358242763 46.1,1.212996153977037 46.2,1.1824949851186253 46.3,1.1519471333829543 46.4,1.1213538047469072 46.5,1.0907162069827139 46.6,1.060035549610274 46.7,1.029313043849405 46.8,0.9985499025720375 46.9,0.9677473402543034 47.0,0.9369065729286229 47.1,0.9060288181356884 47.2,0.8751152948763794 47.3,0.8441672235636705 47.4,0.8131858259744189 47.5,0.7821723252011549 47.6,0.7511279456037856 47.7,0.7200539127612609 47.8,0.6889514534231923 47.9,0.6578217954614142 48.0,0.6266661678215226 48.1,0.5954858004743477 48.2,0.5642819243674093 48.3,0.5330557713763002 48.4,0.501808574256075 48.5,0.47054156659257174 48.6,0.43925598275371575 48.7,0.4079530578407896 48.8,0.3766340276396652 48.9,0.3453001285720303 49.0,0.3139525976465679 49.1,0.2825926724101234 49.2,0.2512215908988461 49.3,0.21984059158932698 49.4,0.18845091334967268 49.5,0.15705379539064118 49.6,0.12565047721668907 49.7,0.09424219857704008 49.8,0.06283019941676418 49.9,0.03141571982779563 50.0,6.123233995736766e-16 50.1,-0.03141571982779441 50.2,-0.06283019941676296 50.3,-0.09424219857704107 50.4,-0.12565047721668562 50.5,-0.15705379539063996 50.6,-0.18845091334967368 50.7,-0.21984059158932354 50.8,-0.2512215908988471 50.9,-0.2825926724101222 51.0,-0.31395259764656674 51.1,-0.3453001285720291 51.2,-0.37663402763966397 51.3,-0.40795305784078617 51.4,-0.4392559827537146 51.5,-0.4705415665925705 51.6,-0.5018085742560736 51.7,-0.5330557713763012 51.8,-0.564281924367406 51.9,-0.5954858004743486 52.0,-0.6266661678215214 52.1,-0.6578217954614131 52.2,-0.6889514534231911 52.3,-0.7200539127612575 52.4,-0.7511279456037844 52.5,-0.7821723252011537 52.6,-0.8131858259744176 52.7,-0.8441672235636692 52.8,-0.8751152948763805 52.9,-0.906028818135685 53.0,-0.9369065729286239 53.1,-0.9677473402543001 53.2,-0.9985499025720341 53.3,-1.029313043849406 53.4,-1.0600355496102707 53.5,-1.0907162069827125 53.6,-1.121353804746906 53.7,-1.1519471333829532 53.8,-1.182494985118622 53.9,-1.212996153977038 54.0,-1.243449435824273 54.1,-1.27385362841691 54.2,-1.304207531449484 54.3,-1.3345099466018753 54.4,-1.3647596775866262 54.5,-1.3949555301961445 54.6,-1.425096312349881 54.7,-1.45518083414136 54.8,-1.4852079078851712 54.9,-1.515176348163869 55.0,-1.5450849718747364 55.1,-1.5749325982765237 55.2,-1.6047180490360473 55.3,-1.6344401482747126 55.4,-1.6640977226149314 55.5,-1.6936896012264575 55.6,-1.723214615872584 55.7,-1.7526716009562961 55.8,-1.782059393566253 55.9,-1.811376833522726 56.0,-1.8406227634233896 56.1,-1.8697960286890023 56.2,-1.898895477609006 56.3,-1.9279199613869813 56.4,-1.956868334186013 56.5,-1.985739453173902 56.6,-2.014532178568315 56.7,-2.043245373681745 56.8,-2.071877904966418 56.9,-2.1004286420590312 57.0,-2.1288964578253613 57.1,-2.1572802284047956 57.2,-2.1855788332546653 57.3,-2.2137911551945044 57.4,-2.24191608045016 57.5,-2.2699524986977355 57.6,-2.297899303107439 57.7,-2.3257553903872914 57.8,-2.353519660826663 57.9,-2.381191018339694 58.0,-2.408768370508577 58.1,-2.4362506286266603 58.2,-2.463636707741459 58.3,-2.4909255266974535 58.4,-2.5181160081788017 58.5,-2.545207078751856 58.6,-2.572197668907532 58.7,-2.5990867131035476 58.8,-2.625873149806477 58.9,-2.6525559215336707 59.0,-2.6791339748949823 59.1,-2.7056062606343803 59.2,-2.731971733671345 59.3,-2.7582293531421493 59.4,-2.7843780824409397 59.5,-2.8104168892606514 59.6,-2.8363447456337827 59.7,-2.862160627972955 59.8,-2.8878635171113354 59.9,-2.9134523983428795 60.0,-2.9389262614623632 60.1,-2.964284100805296 60.2,-2.989524915287596 60.3,-3.0146477084451218 60.4,-3.0396514884730252 60.5,-3.064535268264883 60.6,-3.0892980654516706 60.7,-3.1139389024405633 60.8,-3.138456806453502 60.9,-3.16285080956562 61.0,-3.1871199487434483 61.1,-3.2112632658829203 61.2,-3.235279807847222 61.3,-3.259168626504392 61.4,-3.2829287787647807 61.5,-3.3065593266182587 61.6,-3.330059337171259 61.7,-3.3534278826835995 61.8,-3.37666404060512 61.9,-3.399766893612096 62.0,-3.422735529643442 62.1,-3.4455690419367424 62.2,-3.4682665290640236 62.3,-3.4908270949673623 62.4,-3.5132498489942456 62.5,-3.5355339059327355 62.6,-3.557678386046426 62.7,-3.5796824151091573 62.8,-3.601545124439533 62.9,-3.623265650935232 63.0,-3.644843137107058 63.1,-3.666276731112799 63.2,-3.6875655867908703 63.3,-3.7087088636936953 63.4,-3.729705727120909 63.5,-3.7505553481522975 63.6,-3.7712569036805177 63.7,-3.7918095764436077 63.8,-3.8122125550572394 63.9,-3.832465034046748 64.0,-3.852566213878947 64.1,-3.8725153009936686 64.2,-3.892311507835118 64.3,-3.9119540528829404 64.4,-3.931442160683096 64.5,-3.950775061878452 64.6,-3.9699519932391754 64.7,-3.9889721976928554 64.8,-4.007834924354382 64.9,-4.02653942855561 65.0,-4.045084971874736 65.1,-4.063470822165468 65.2,-4.081696253585919 65.3,-4.099760546627261 65.4,-4.117662988142137 65.5,-4.135402871372808 65.6,-4.152979495979061 65.7,-4.170392168065855 65.8,-4.187640200210709 65.9,-4.204722911490845 66.0,-4.2216396275100765 66.1,-4.238389680425416 66.2,-4.25497240897346 66.3,-4.271387158496475 66.4,-4.287633280968261 66.5,-4.303710135019719 66.6,-4.319617085964175 66.7,-4.335353505822451 66.8,-4.350918773347628 66.9,-4.366312274049601 67.0,-4.381533400219318 67.1,-4.396581550952781 67.2,-4.4114561321747665 67.3,-4.426156556662276 67.4,-4.440682244067723 67.5,-4.455032620941839 67.6,-4.469207120756318 67.7,-4.483205183926179 67.8,-4.4970262578318545 67.9,-4.5106697968410145 68.0,-4.524135262330099 68.1,-4.537422122705584 68.2,-4.550529853424978 68.3,-4.563457937017513 68.4,-4.576205863104588 68.5,-4.5887731284199065 68.6,-4.60115923682935 68.7,-4.613363699350575 68.8,-4.6253860341722906 68.9,-4.637225766673307 69.0,-4.648882429441257 69.1,-4.660355562291054 69.2,-4.671644712283061 69.3,-4.682749433740962 69.4,-4.693669288269371 69.5,-4.704403844771127 69.6,-4.7149526794643215 69.7,-4.725315375899025 69.8,-4.735491524973721 69.9,-4.745480724951474 70.0,-4.755282581475767 70.1,-4.764896707586093 70.2,-4.774322723733214 70.3,-4.783560257794152 70.4,-4.792608945086879 70.5,-4.801468428384715 70.6,-4.810138357930429 70.7,-4.81861839145005 70.8,-4.826908194166369 70.9,-4.835007438812175 71.0,-4.842915805643156 71.1,-4.850632982450528 71.2,-4.85815866457337 71.3,-4.865492554910633 71.4,-4.872634363932886 71.5,-4.879583809693737 71.6,-4.8863406178409665 71.7,-4.892904521627361 71.8,-4.899275261921234 71.9,-4.905452587216671 72.0,-4.911436253643443 72.1,-4.917226024976648 72.2,-4.922821672646027 72.3,-4.92822297574499 72.4,-4.9334297210393405 72.5,-4.938441702975688 72.6,-4.94325872368957 72.7,-4.947880593013255 72.8,-4.952307128483256 72.9,-4.956538155347533 73.0,-4.960573506572389 73.1,-4.964413022849068 73.2,-4.968056552600043 73.3,-4.971503951984994 73.4,-4.974755084906501 73.5,-4.9778098230154 73.6,-4.980668045715862 73.7,-4.983329640170149 73.8,-4.98579450130307 73.9,-4.9880625318061265 74.0,-4.990133642141358 74.1,-4.992007750544875 74.2,-4.993684783030087 74.3,-4.995164673390623 74.4,-4.996447363202947 74.5,-4.997532801828658 74.6,-4.9984209464165 74.7,-4.999111761904045 74.8,-4.99960522101908 74.9,-4.9999013042806855 75.0,-5.0 75.1,-4.9999013042806855 75.2,-4.99960522101908 75.3,-4.999111761904045 75.4,-4.9984209464165 75.5,-4.997532801828658 75.6,-4.996447363202947 75.7,-4.995164673390623 75.8,-4.993684783030088 75.9,-4.992007750544875 76.0,-4.990133642141358 76.1,-4.9880625318061265 76.2,-4.98579450130307 76.3,-4.98332964017015 76.4,-4.980668045715862 76.5,-4.9778098230154 76.6,-4.974755084906501 76.7,-4.971503951984994 76.8,-4.968056552600042 76.9,-4.964413022849068 77.0,-4.9605735065723895 77.1,-4.956538155347533 77.2,-4.952307128483256 77.3,-4.947880593013255 77.4,-4.94325872368957 77.5,-4.938441702975689 77.6,-4.9334297210393405 77.7,-4.9282229757449905 77.8,-4.922821672646027 77.9,-4.917226024976649 78.0,-4.911436253643443 78.1,-4.905452587216671 78.2,-4.899275261921235 78.3,-4.8929045216273614 78.4,-4.8863406178409665 78.5,-4.879583809693738 78.6,-4.872634363932887 78.7,-4.865492554910632 78.8,-4.85815866457337 78.9,-4.850632982450528 79.0,-4.842915805643155 79.1,-4.835007438812177 79.2,-4.826908194166369 79.3,-4.818618391450048 79.4,-4.810138357930429 79.5,-4.801468428384715 79.6,-4.792608945086879 79.7,-4.783560257794152 79.8,-4.774322723733215 79.9,-4.764896707586094 80.0,-4.755282581475768 80.1,-4.745480724951474 80.2,-4.735491524973722 80.3,-4.725315375899025 80.4,-4.714952679464322 80.5,-4.704403844771128 80.6,-4.693669288269372 80.7,-4.682749433740962 80.8,-4.6716447122830616 80.9,-4.660355562291054 81.0,-4.648882429441258 81.1,-4.637225766673309 81.2,-4.62538603417229 81.3,-4.613363699350575 81.4,-4.601159236829351 81.5,-4.588773128419907 81.6,-4.57620586310459 81.7,-4.563457937017514 81.8,-4.550529853424979 81.9,-4.5374221227055855 82.0,-4.524135262330099 82.1,-4.510669796841017 82.2,-4.4970262578318545 82.3,-4.48320518392618 82.4,-4.469207120756317 82.5,-4.455032620941842 82.6,-4.440682244067724 82.7,-4.426156556662276 82.8,-4.411456132174767 82.9,-4.396581550952779 83.0,-4.3815334002193165 83.1,-4.366312274049602 83.2,-4.350918773347629 83.3,-4.335353505822452 83.4,-4.3196170859641745 83.5,-4.303710135019717 83.6,-4.287633280968262 83.7,-4.271387158496477 83.8,-4.254972408973462 83.9,-4.238389680425414 84.0,-4.221639627510075 84.1,-4.204722911490847 84.2,-4.18764020021071 84.3,-4.170392168065859 84.4,-4.1529794959790625 84.5,-4.1354028713728095 84.6,-4.117662988142138 84.7,-4.099760546627264 84.8,-4.081696253585923 84.9,-4.063470822165469 85.0,-4.045084971874738 85.1,-4.026539428555612 85.2,-4.0078349243543805 85.3,-3.9889721976928567 85.4,-3.969951993239177 85.5,-3.950775061878453 85.6,-3.9314421606830967 85.7,-3.9119540528829386 85.8,-3.892311507835116 85.9,-3.87251530099367 86.0,-3.852566213878948 86.1,-3.8324650340467525 86.2,-3.8122125550572377 86.3,-3.791809576443609 86.4,-3.77125690368052 86.5,-3.7505553481523 86.6,-3.7297057271209146 86.7,-3.708708863693695 86.8,-3.6875655867908703 86.9,-3.666276731112802 87.0,-3.6448431371070606 87.1,-3.6232656509352346 87.2,-3.601545124439534 87.3,-3.579682415109157 87.4,-3.557678386046423 87.5,-3.5355339059327417 87.6,-3.5132498489942483 87.7,-3.4908270949673637 87.8,-3.468266529064027 87.9,-3.4455690419367393 88.0,-3.422735529643445 88.1,-3.399766893612099 88.2,-3.3766640406051236 88.3,-3.3534278826836026 88.4,-3.3300593371712557 88.5,-3.306559326618258 88.6,-3.282928778764786 88.7,-3.2591686265043958 88.8,-3.235279807847225 88.9,-3.21126326588292 89.0,-3.1871199487434483 89.1,-3.162850809565623 89.2,-3.138456806453505 89.3,-3.113938902440567 89.4,-3.0892980654516706 89.5,-3.0645352682648825 89.6,-3.0396514884730284 89.7,-3.0146477084451266 89.8,-2.989524915287596 89.9,-2.964284100805296 90.0,-2.938926261462367 90.1,-2.9134523983428826 90.2,-2.887863517111342 90.3,-2.8621606279729566 90.4,-2.8363447456337827 90.5,-2.8104168892606545 90.6,-2.784378082440943 90.7,-2.7582293531421485 90.8,-2.7319717336713483 90.9,-2.7056062606343803 91.0,-2.6791339748949854 91.1,-2.6525559215336743 91.2,-2.625873149806477 91.3,-2.599086713103547 91.4,-2.572197668907534 91.5,-2.5452070787518597 91.6,-2.518116008178805 91.7,-2.490925526697453 91.8,-2.4636367077414585 91.9,-2.436250628626664 92.0,-2.4087683705085805 92.1,-2.3811910183396976 92.2,-2.3535196608266626 92.3,-2.325755390387293 92.4,-2.2978993031074424 92.5,-2.2699524986977346 92.6,-2.241916080450164 92.7,-2.2137911551945084 92.8,-2.185578833254667 92.9,-2.157280228404791 93.0,-2.128896457825365 93.1,-2.100428642059035 93.2,-2.071877904966422 93.3,-2.0432453736817484 93.4,-2.0145321785683103 93.5,-1.9857394531739017 93.6,-1.9568683341860167 93.7,-1.9279199613869848 93.8,-1.8988954776090095 93.9,-1.8697960286889996 94.0,-1.8406227634233894 94.1,-1.8113768335227296 94.2,-1.7820593935662565 94.3,-1.752671600956296 94.4,-1.7232146158725836 94.5,-1.693689601226457 94.6,-1.6640977226149354 94.7,-1.6344401482747164 94.8,-1.604718049036049 94.9,-1.5749325982765234 95.0,-1.5450849718747381 95.1,-1.5151763481638727 95.2,-1.4852079078851752 95.3,-1.4551808341413617 95.4,-1.4250963123498808 95.5,-1.3949555301961483 95.6,-1.36475967758663 95.7,-1.334509946601875 95.8,-1.304207531449488 95.9,-1.273853628416912 96.0,-1.2434494358242767 96.1,-1.2129961539770375 96.2,-1.1824949851186215 96.3,-1.1519471333829572 96.4,-1.1213538047469078 96.5,-1.0907162069827165 96.6,-1.0600355496102745 96.7,-1.0293130438494056 96.8,-0.9985499025720359 96.9,-0.9677473402543041 97.0,-0.9369065729286234 97.1,-0.906028818135689 97.2,-0.8751152948763801 97.3,-0.844167223563671 97.4,-0.8131858259744217 97.5,-0.7821723252011556 97.6,-0.7511279456037884 97.7,-0.7200539127612615 97.8,-0.6889514534231929 97.9,-0.6578217954614127 98.0,-0.6266661678215233 98.1,-0.5954858004743526 98.2,-0.56428192436741 98.3,-0.5330557713763031 98.4,-0.5018085742560711 98.5,-0.4705415665925745 98.6,-0.4392559827537208 98.7,-0.4079530578407902 98.8,-0.3766340276396636 98.9,-0.34530012857202647 99.0,-0.3139525976465663 99.1,-0.2825926724101285 99.2,-0.2512215908988511 99.3,-0.21984059158932537 99.4,-0.18845091334967107 99.5,-0.1570537953906418 99.6,-0.12565047721668968 99.7,-0.09424219857704069 99.8,-0.06283019941676479 99.9,-0.03141571982779403 100.0,-1.2246467991473533e-15 100.1,0.03141571982779158 100.2,0.06283019941676235 100.3,0.09424219857703824 100.4,0.12565047721668723 100.5,0.15705379539063935 100.6,0.18845091334967307 100.7,0.21984059158932295 100.8,0.2512215908988442 100.9,0.28259267241012154 101.0,0.3139525976465639 101.1,0.3453001285720285 101.2,0.3766340276396656 101.3,0.40795305784078334 101.4,0.43925598275371397 101.5,0.4705415665925721 101.6,0.5018085742560731 101.7,0.5330557713763006 101.8,0.5642819243674075 101.9,0.5954858004743458 102.0,0.6266661678215208 102.1,0.6578217954614102 102.2,0.6889514534231905 102.3,0.7200539127612591 102.4,0.751127945603786 102.5,0.7821723252011531 102.6,0.8131858259744149 102.7,0.8441672235636687 102.8,0.8751152948763775 102.9,0.9060288181356866 103.0,0.936906572928621 103.1,0.9677473402542973 103.2,0.9985499025720335 103.3,1.0293130438494074 103.4,1.0600355496102765 103.5,1.0907162069827097 103.6,1.121353804746901 103.7,1.1519471333829505 103.8,1.1824949851186233 103.9,1.2129961539770395 104.0,1.2434494358242745 104.1,1.2738536284169053 104.2,1.3042075314494856 104.3,1.334509946601877 104.4,1.3647596775866278 104.5,1.3949555301961458 104.6,1.425096312349874 104.7,1.4551808341413595 104.8,1.485207907885173 104.9,1.5151763481638705 105.0,1.545084971874736 105.1,1.574932598276525 105.2,1.6047180490360469 105.3,1.6344401482747097 105.4,1.6640977226149332 105.5,1.6936896012264548 105.6,1.7232146158725856 105.7,1.7526716009562935 105.8,1.78205939356625 105.9,1.8113768335227274 106.0,1.840622763423391 106.1,1.8697960286890016 106.2,1.898895477609003 106.3,1.9279199613869786 106.4,1.9568683341860102 106.5,1.9857394531739034 106.6,2.014532178568312 106.7,2.043245373681746 106.8,2.0718779049664158 106.9,2.1004286420590326 107.0,2.1288964578253626 107.1,2.157280228404793 107.2,2.185578833254665 107.3,2.213791155194506 107.4,2.241916080450162 107.5,2.269952498697733 107.6,2.297899303107436 107.7,2.325755390387291 107.8,2.3535196608266644 107.9,2.3811910183396954 108.0,2.4087683705085743 108.1,2.436250628626658 108.2,2.4636367077414563 108.3,2.490925526697455 108.4,2.5181160081788034 108.5,2.545207078751854 108.6,2.5721976689075277 108.7,2.599086713103549 108.8,2.6258731498064787 108.9,2.6525559215336725 109.0,2.67913397489498 109.1,2.7056062606343745 109.2,2.731971733671346 109.3,2.7582293531421502 109.4,2.7843780824409414 109.5,2.8104168892606527 109.6,2.836344745633777 109.7,2.8621606279729543 109.8,2.8878635171113363 109.9,2.913452398342881 110.0,2.9389262614623646 110.1,2.964284100805297 110.2,2.9895249152875936 110.3,3.0146477084451213 110.4,3.039651488473027 110.5,3.0645352682648843 110.6,3.089298065451672 110.7,3.113938902440561 110.8,3.1384568064534997 110.9,3.1628508095656214 111.0,3.18711994874345 111.1,3.2112632658829217 111.2,3.2352798078472196 111.3,3.2591686265043904 111.4,3.2829287787647843 111.5,3.3065593266182596 111.6,3.3300593371712575 111.7,3.353427882683601 111.8,3.3766640406051183 111.9,3.3997668936120973 112.0,3.422735529643443 112.1,3.4455690419367406 112.2,3.4682665290640244 112.3,3.4908270949673588 112.4,3.5132498489942465 112.5,3.535533905932737 112.6,3.5576783860464243 112.7,3.5796824151091555 112.8,3.601545124439536 112.9,3.623265650935233 113.0,3.644843137107056 113.1,3.666276731112797 113.2,3.687565586790871 113.3,3.7087088636936967 113.4,3.72970572712091 113.5,3.7505553481522957 113.6,3.7712569036805155 113.7,3.7918095764436104 113.8,3.8122125550572394 113.9,3.8324650340467477 114.0,3.8525662138789434 114.1,3.8725153009936655 114.2,3.892311507835118 114.3,3.91195405288294 114.4,3.931442160683096 114.5,3.9507750618784487 114.6,3.9699519932391727 114.7,3.988972197692855 114.8,4.007834924354381 114.9,4.02653942855561 115.0,4.045084971874739 115.1,4.063470822165465 115.2,4.081696253585919 115.3,4.099760546627261 115.4,4.117662988142136 115.5,4.13540287137281 115.6,4.152979495979063 115.7,4.170392168065855 115.8,4.187640200210707 115.9,4.2047229114908475 116.0,4.221639627510076 116.1,4.238389680425415 116.2,4.254972408973458 116.3,4.2713871584964735 116.4,4.2876332809682625 116.5,4.303710135019719 116.6,4.319617085964175 116.7,4.335353505822448 116.8,4.350918773347626 116.9,4.366312274049601 117.0,4.381533400219318 117.1,4.39658155095278 117.2,4.4114561321747665 117.3,4.4261565566622725 117.4,4.440682244067723 117.5,4.455032620941839 117.6,4.469207120756317 117.7,4.483205183926181 117.8,4.497026257831856 117.9,4.5106697968410145 118.0,4.5241352623300966 118.1,4.537422122705583 118.2,4.55052985342498 118.3,4.563457937017514 118.4,4.576205863104587 118.5,4.588773128419905 118.6,4.60115923682935 118.7,4.613363699350575 118.8,4.6253860341722906 118.9,4.637225766673306 119.0,4.648882429441255 119.1,4.660355562291053 119.2,4.671644712283061 119.3,4.682749433740962 119.4,4.693669288269371 119.5,4.704403844771125 119.6,4.71495267946432 119.7,4.725315375899024 119.8,4.735491524973721 119.9,4.745480724951473 120.0,4.755282581475766 120.1,4.764896707586093 120.2,4.774322723733214 120.3,4.783560257794152 120.4,4.792608945086881 120.5,4.801468428384716 120.6,4.810138357930428 120.7,4.818618391450048 120.8,4.826908194166368 120.9,4.835007438812176 121.0,4.842915805643156 121.1,4.850632982450529 121.2,4.858158664573368 121.3,4.865492554910632 121.4,4.872634363932886 121.5,4.879583809693737 121.6,4.8863406178409665 121.7,4.89290452162736 121.8,4.899275261921233 121.9,4.90545258721667 122.0,4.911436253643443 122.1,4.917226024976648 122.2,4.922821672646026 122.3,4.928222975744989 122.4,4.9334297210393405 122.5,4.938441702975688 122.6,4.94325872368957 122.7,4.947880593013255 122.8,4.952307128483256 122.9,4.956538155347533 123.0,4.960573506572389 123.1,4.964413022849068 123.2,4.968056552600043 123.3,4.971503951984994 123.4,4.9747550849065005 123.5,4.9778098230154 123.6,4.980668045715862 123.7,4.983329640170149 123.8,4.98579450130307 123.9,4.9880625318061265 124.0,4.990133642141358 124.1,4.992007750544875 124.2,4.993684783030087 124.3,4.995164673390623 124.4,4.996447363202946 124.5,4.997532801828657 124.6,4.9984209464165 124.7,4.999111761904045 124.8,4.99960522101908 124.9,4.9999013042806855 125.0,5.0 125.1,4.9999013042806855 125.2,4.99960522101908 125.3,4.999111761904046 125.4,4.9984209464165 125.5,4.997532801828657 125.6,4.996447363202947 125.7,4.995164673390623 125.8,4.993684783030088 125.9,4.992007750544875 126.0,4.990133642141358 126.1,4.9880625318061265 126.2,4.98579450130307 126.3,4.98332964017015 126.4,4.980668045715862 126.5,4.9778098230154 126.6,4.9747550849065005 126.7,4.971503951984994 126.8,4.968056552600043 126.9,4.964413022849068 127.0,4.9605735065723895 127.1,4.956538155347533 127.2,4.952307128483256 127.3,4.947880593013255 127.4,4.943258723689571 127.5,4.938441702975688 127.6,4.9334297210393405 127.7,4.9282229757449905 127.8,4.922821672646027 127.9,4.917226024976648 128.0,4.911436253643443 128.1,4.90545258721667 128.2,4.899275261921235 128.3,4.8929045216273614 128.4,4.8863406178409665 128.5,4.879583809693736 128.6,4.872634363932886 128.7,4.865492554910634 128.8,4.858158664573368 128.9,4.850632982450528 129.0,4.842915805643155 129.1,4.835007438812175 129.2,4.8269081941663705 129.3,4.818618391450047 129.4,4.810138357930429 129.5,4.801468428384715 129.6,4.79260894508688 129.7,4.783560257794154 129.8,4.774322723733214 129.9,4.764896707586094 130.0,4.755282581475768 130.1,4.745480724951474 130.2,4.735491524973724 130.3,4.725315375899023 130.4,4.714952679464322 130.5,4.704403844771129 130.6,4.693669288269372 130.7,4.682749433740964 130.8,4.67164471228306 130.9,4.6603555622910555 131.0,4.648882429441258 131.1,4.637225766673309 131.2,4.625386034172293 131.3,4.613363699350574 131.4,4.601159236829353 131.5,4.588773128419904 131.6,4.576205863104587 131.7,4.5634579370175175 131.8,4.550529853424979 131.9,4.537422122705586 132.0,4.5241352623300966 132.1,4.510669796841014 132.2,4.497026257831855 132.3,4.483205183926181 132.4,4.469207120756317 132.5,4.455032620941838 132.6,4.440682244067722 132.7,4.426156556662277 132.8,4.411456132174768 132.9,4.39658155095278 133.0,4.3815334002193165 133.1,4.3663122740496005 133.2,4.350918773347629 133.3,4.335353505822448 133.4,4.319617085964175 133.5,4.303710135019718 133.6,4.287633280968262 133.7,4.271387158496477 133.8,4.254972408973457 133.9,4.238389680425415 134.0,4.221639627510076 134.1,4.204722911490847 134.2,4.18764020021071 134.3,4.170392168065854 134.4,4.1529794959790625 134.5,4.1354028713728095 134.6,4.117662988142138 134.7,4.099760546627264 134.8,4.0816962535859185 134.9,4.06347082216547 135.0,4.045084971874738 135.1,4.026539428555612 135.2,4.007834924354386 135.3,3.9889721976928545 135.4,3.969951993239177 135.5,3.950775061878453 135.6,3.9314421606830976 135.7,3.9119540528829444 135.8,3.8923115078351165 135.9,3.8725153009936704 136.0,3.852566213878943 136.1,3.8324650340467525 136.2,3.812212555057244 136.3,3.7918095764436095 136.4,3.7712569036805204 136.5,3.750555348152295 136.6,3.729705727120915 136.7,3.7087088636937016 136.8,3.6875655867908703 136.9,3.6662767311127964 137.0,3.644843137107055 137.1,3.623265650935232 137.2,3.6015451244395407 137.3,3.5796824151091573 137.4,3.5576783860464234 137.5,3.5355339059327355 137.6,3.5132498489942456 137.7,3.490827094967364 137.8,3.468266529064021 137.9,3.4455690419367397 138.0,3.422735529643442 138.1,3.399766893612096 138.2,3.3766640406051236 138.3,3.353427882683597 138.4,3.330059337171256 138.5,3.3065593266182587 138.6,3.2829287787647834 138.7,3.259168626504396 138.8,3.2352798078472182 138.9,3.2112632658829203 139.0,3.1871199487434487 139.1,3.162850809565624 139.2,3.1384568064535054 139.3,3.11393890244056 139.4,3.089298065451671 139.5,3.064535268264883 139.6,3.0396514884730292 139.7,3.0146477084451275 139.8,2.9895249152875927 139.9,2.9642841008052963 140.0,2.938926261462367 140.1,2.9134523983428835 140.2,2.8878635171113425 140.3,2.8621606279729535 140.4,2.836344745633783 140.5,2.8104168892606554 140.6,2.7843780824409436 140.7,2.7582293531421564 140.8,2.731971733671345 140.9,2.7056062606343807 141.0,2.6791339748949863 141.1,2.6525559215336747 141.2,2.625873149806485 141.3,2.5990867131035476 141.4,2.5721976689075268 141.5,2.5452070787518526 141.6,2.5181160081788097 141.7,2.4909255266974615 141.8,2.463636707741459 141.9,2.4362506286266568 142.0,2.4087683705085734 142.1,2.381191018339694 142.2,2.353519660826671 142.3,2.325755390387286 142.4,2.2978993031074353 142.5,2.2699524986977315 142.6,2.2419160804501606 142.7,2.213791155194509 142.8,2.1855788332546595 142.9,2.1572802284047916 143.0,2.1288964578253617 143.1,2.1004286420590317 143.2,2.0718779049664224 143.3,2.043245373681741 143.4,2.014532178568311 143.5,1.9857394531739023 143.6,1.956868334186013 143.7,1.9279199613869855 143.8,1.898895477609002 143.9,1.8697960286890003 144.0,1.8406227634233898 144.1,1.8113768335227305 144.2,1.7820593935662572 144.3,1.7526716009562924 144.4,1.723214615872584 144.5,1.6936896012264577 144.6,1.6640977226149358 144.7,1.634440148274717 144.8,1.6047180490360455 144.9,1.5749325982765239 145.0,1.545084971874739 145.1,1.5151763481638734 145.2,1.4852079078851799 145.3,1.4551808341413581 145.4,1.4250963123498814 145.5,1.394955530196149 145.6,1.3647596775866306 145.7,1.3345099466018842 145.8,1.3042075314494843 145.9,1.2738536284169124 146.0,1.2434494358242774 146.1,1.2129961539770424 146.2,1.1824949851186308 146.3,1.1519471333829534 146.4,1.1213538047468998 146.5,1.0907162069827172 146.6,1.0600355496102796 146.7,1.029313043849415 146.8,0.9985499025720278 146.9,0.9677473402542959 147.0,0.9369065729286197 147.1,0.906028818135694 147.2,0.8751152948763894 147.3,0.844167223563663 147.4,0.8131858259744135 147.5,0.7821723252011517 147.6,0.7511279456037846 147.7,0.7200539127612708 147.8,0.6889514534231846 147.9,0.657821795461409 148.0,0.6266661678215195 148.1,0.595485800474349 148.2,0.5642819243674106 148.3,0.5330557713762949 148.4,0.5018085742560716 148.5,0.47054156659257074 148.6,0.439255982753717 148.7,0.40795305784079083 148.8,0.3766340276396598 148.9,0.3453001285720271 149.0,0.3139525976465669 149.1,0.28259267241012465 149.2,0.25122159089885177 149.3,0.21984059158932157 149.4,0.18845091334967168 149.5,0.1570537953906424 149.6,0.1256504772166903 149.7,0.09424219857704573 149.8,0.06283019941676096 149.9,0.03141571982779464 150.0,1.8369701987210296e-15 150.1,-0.03141571982779096 150.2,-0.0628301994167573 150.3,-0.09424219857704205 150.4,-0.12565047721668662 150.5,-0.15705379539063874 150.6,-0.18845091334966801 150.7,-0.21984059158931787 150.8,-0.25122159089884805 150.9,-0.282592672410121 151.0,-0.31395259764656325 151.1,-0.3453001285720234 151.2,-0.37663402763965614 151.3,-0.40795305784079605 151.4,-0.43925598275372213 151.5,-0.47054156659256713 151.6,-0.5018085742560681 151.7,-0.5330557713762911 151.8,-0.5642819243674158 151.9,-0.5954858004743541 152.0,-0.6266661678215159 152.1,-0.6578217954614052 152.2,-0.6889514534231811 152.3,-0.7200539127612672 152.4,-0.7511279456037898 152.5,-0.7821723252011569 152.6,-0.8131858259744098 152.7,-0.8441672235636594 152.8,-0.8751152948763857 152.9,-0.9060288181356904 153.0,-0.9369065729286248 153.1,-0.9677473402543011 153.2,-0.9985499025720241 153.3,-1.0293130438494111 153.4,-1.060035549610276 153.5,-1.0907162069827134 153.6,-1.1213538047469047 153.7,-1.1519471333829499 153.8,-1.182494985118627 153.9,-1.212996153977039 154.0,-1.2434494358242738 154.1,-1.2738536284169089 154.2,-1.3042075314494808 154.3,-1.3345099466018806 154.4,-1.364759677586627 154.5,-1.3949555301961452 154.6,-1.4250963123498779 154.7,-1.4551808341413544 154.8,-1.4852079078851765 154.9,-1.51517634816387 155.0,-1.5450849718747353 155.1,-1.5749325982765203 155.2,-1.604718049036042 155.3,-1.6344401482747135 155.4,-1.6640977226149325 155.5,-1.6936896012264544 155.6,-1.723214615872581 155.7,-1.7526716009562886 155.8,-1.7820593935662536 155.9,-1.8113768335227267 156.0,-1.8406227634233863 156.1,-1.869796028688997 156.2,-1.8988954776089986 156.3,-1.9279199613869902 156.4,-1.9568683341860096 156.5,-1.985739453173899 156.6,-2.0145321785683072 156.7,-2.0432453736817373 156.8,-2.0718779049664273 156.9,-2.100428642059036 157.0,-2.128896457825358 157.1,-2.157280228404788 157.2,-2.185578833254656 157.3,-2.2137911551945133 157.4,-2.2419160804501654 157.5,-2.2699524986977364 157.6,-2.2978993031074317 157.7,-2.3257553903872825 157.8,-2.3535196608266675 157.9,-2.3811910183396985 158.0,-2.408768370508578 158.1,-2.436250628626661 158.2,-2.4636367077414483 158.3,-2.490925526697458 158.4,-2.518116008178807 158.5,-2.545207078751857 158.6,-2.572197668907531 158.7,-2.5990867131035444 158.8,-2.625873149806482 158.9,-2.652555921533672 159.0,-2.6791339748949827 159.1,-2.705606260634377 159.2,-2.731971733671342 159.3,-2.758229353142154 159.4,-2.784378082440941 159.5,-2.8104168892606523 159.6,-2.83634474563378 159.7,-2.8621606279729503 159.8,-2.88786351711134 159.9,-2.91345239834288 160.0,-2.938926261462364 160.1,-2.9642841008052927 160.2,-2.9895249152875896 160.3,-3.0146477084451244 160.4,-3.0396514884730266 160.5,-3.0645352682648803 160.6,-3.0892980654516675 160.7,-3.113938902440557 160.8,-3.1384568064535023 160.9,-3.162850809565621 161.0,-3.1871199487434456 161.1,-3.2112632658829177 161.2,-3.2352798078472156 161.3,-3.2591686265043935 161.4,-3.2829287787647803 161.5,-3.306559326618256 161.6,-3.3300593371712535 161.7,-3.3534278826835937 161.8,-3.376664040605127 161.9,-3.3997668936120933 162.0,-3.422735529643439 162.1,-3.4455690419367366 162.2,-3.4682665290640182 162.3,-3.490827094967368 162.4,-3.513249848994249 162.5,-3.535533905932733 162.6,-3.5576783860464207 162.7,-3.5796824151091484 162.8,-3.601545124439538 162.9,-3.6232656509352354 163.0,-3.6448431371070527 163.1,-3.6662767311127937 163.2,-3.687565586790862 163.3,-3.7087088636936993 163.4,-3.729705727120913 163.5,-3.750555348152298 163.6,-3.771256903680518 163.7,-3.7918095764436073 163.8,-3.8122125550572363 163.9,-3.832465034046745 164.0,-3.8525662138789403 164.1,-3.872515300993662 164.2,-3.892311507835109 164.3,-3.911954052882942 164.4,-3.931442160683095 164.5,-3.950775061878451 164.6,-3.9699519932391745 164.7,-3.9889721976928523 164.8,-4.007834924354389 164.9,-4.026539428555615 165.0,-4.045084971874731 165.1,-4.063470822165462 165.2,-4.081696253585917 165.3,-4.099760546627262 165.4,-4.117662988142136 165.5,-4.135402871372808 165.6,-4.152979495979061 165.7,-4.1703921680658524 165.8,-4.187640200210713 165.9,-4.204722911490849 166.0,-4.221639627510078 166.1,-4.238389680425418 166.2,-4.2549724089734555 166.3,-4.271387158496475 166.4,-4.28763328096826 166.5,-4.303710135019716 166.6,-4.319617085964173 166.7,-4.335353505822447 166.8,-4.350918773347631 166.9,-4.366312274049603 167.0,-4.38153340021932 167.1,-4.3965815509527815 167.2,-4.411456132174766 167.3,-4.426156556662274 167.4,-4.4406822440677205 167.5,-4.455032620941836 167.6,-4.469207120756315 167.7,-4.483205183926175 167.8,-4.497026257831857 167.9,-4.510669796841016 168.0,-4.524135262330098 168.1,-4.537422122705585 168.2,-4.550529853424977 168.3,-4.563457937017512 168.4,-4.576205863104585 168.5,-4.588773128419902 168.6,-4.601159236829347 168.7,-4.613363699350569 168.8,-4.625386034172292 168.9,-4.637225766673307 169.0,-4.648882429441256 169.1,-4.660355562291054 169.2,-4.671644712283058 169.3,-4.68274943374096 169.4,-4.693669288269367 169.5,-4.704403844771124 169.6,-4.714952679464318 169.7,-4.725315375899022 169.8,-4.735491524973722 169.9,-4.745480724951473 170.0,-4.755282581475767 170.1,-4.764896707586093 170.2,-4.7743227237332135 170.3,-4.783560257794155 170.4,-4.792608945086882 170.5,-4.801468428384712 170.6,-4.810138357930428 170.7,-4.8186183914500464 170.8,-4.82690819416637 170.9,-4.835007438812175 171.0,-4.8429158056431545 171.1,-4.850632982450528 171.2,-4.858158664573367 171.3,-4.8654925549106345 171.4,-4.872634363932887 171.5,-4.879583809693738 171.6,-4.886340617840968 171.7,-4.892904521627359 171.8,-4.899275261921233 171.9,-4.90545258721667 172.0,-4.911436253643442 172.1,-4.917226024976647 172.2,-4.922821672646025 172.3,-4.928222975744991 172.4,-4.933429721039341 172.5,-4.938441702975689 172.6,-4.943258723689571 172.7,-4.947880593013255 172.8,-4.952307128483255 172.9,-4.956538155347532 173.0,-4.960573506572389 173.1,-4.964413022849067 173.2,-4.968056552600041 173.3,-4.971503951984995 173.4,-4.9747550849065005 173.5,-4.9778098230154 173.6,-4.980668045715862 173.7,-4.983329640170149 173.8,-4.985794501303069 173.9,-4.988062531806126 174.0,-4.990133642141357 174.1,-4.992007750544874 174.2,-4.993684783030087 174.3,-4.995164673390623 174.4,-4.996447363202946 174.5,-4.997532801828658 174.6,-4.9984209464165 174.7,-4.999111761904045 174.8,-4.99960522101908 174.9,-4.9999013042806855 175.0,-5.0 175.1,-4.9999013042806855 175.2,-4.99960522101908 175.3,-4.999111761904045 175.4,-4.9984209464165 175.5,-4.997532801828658 175.6,-4.996447363202947 175.7,-4.995164673390624 175.8,-4.993684783030087 175.9,-4.992007750544874 176.0,-4.990133642141358 176.1,-4.9880625318061265 176.2,-4.9857945013030704 176.3,-4.983329640170149 176.4,-4.980668045715863 176.5,-4.9778098230154 176.6,-4.974755084906501 176.7,-4.971503951984995 176.8,-4.968056552600041 176.9,-4.964413022849068 177.0,-4.960573506572389 177.1,-4.956538155347533 177.2,-4.952307128483257 177.3,-4.947880593013255 177.4,-4.943258723689571 177.5,-4.938441702975689 177.6,-4.933429721039342 177.7,-4.928222975744992 177.8,-4.922821672646026 177.9,-4.917226024976648 178.0,-4.911436253643443 178.1,-4.90545258721667 178.2,-4.899275261921235 178.3,-4.8929045216273614 178.4,-4.886340617840968 178.5,-4.879583809693739 178.6,-4.872634363932888 178.7,-4.865492554910634 178.8,-4.858158664573368 178.9,-4.850632982450529 179.0,-4.842915805643156 179.1,-4.835007438812176 179.2,-4.8269081941663705 179.3,-4.81861839145005 179.4,-4.810138357930432 179.5,-4.801468428384718 179.6,-4.79260894508688 179.7,-4.783560257794154 179.8,-4.774322723733214 179.9,-4.764896707586094 180.0,-4.755282581475769 180.1,-4.745480724951474 180.2,-4.735491524973724 180.3,-4.725315375899021 180.4,-4.714952679464326 180.5,-4.704403844771129 180.6,-4.693669288269372 180.7,-4.682749433740964 180.8,-4.67164471228306 180.9,-4.6603555622910555 181.0,-4.648882429441258 181.1,-4.637225766673309 181.2,-4.625386034172293 181.3,-4.613363699350571 181.4,-4.601159236829349 181.5,-4.588773128419904 181.6,-4.57620586310459 181.7,-4.5634579370175175 181.8,-4.55052985342498 181.9,-4.537422122705586 182.0,-4.5241352623301 182.1,-4.510669796841017 182.2,-4.497026257831859 182.3,-4.483205183926176 182.4,-4.469207120756317 182.5,-4.4550326209418385 182.6,-4.440682244067722 182.7,-4.426156556662277 182.8,-4.411456132174768 182.9,-4.396581550952784 183.0,-4.381533400219322 183.1,-4.366312274049606 183.2,-4.3509187733476296 183.3,-4.335353505822448 183.4,-4.319617085964175 183.5,-4.303710135019719 183.6,-4.2876332809682625 183.7,-4.271387158496477 183.8,-4.254972408973462 183.9,-4.23838968042542 184.0,-4.22163962751008 184.1,-4.204722911490847 184.2,-4.187640200210711 184.3,-4.170392168065854 184.4,-4.1529794959790625 184.5,-4.1354028713728095 184.6,-4.117662988142139 184.7,-4.099760546627264 184.8,-4.081696253585924 184.9,-4.063470822165475 185.0,-4.045084971874738 185.1,-4.026539428555612 185.2,-4.007834924354387 185.3,-3.9889721976928545 185.4,-3.9699519932391776 185.5,-3.9507750618784536 185.6,-3.9314421606830976 185.7,-3.911954052882945 185.8,-3.8923115078351116 185.9,-3.8725153009936704 186.0,-3.852566213878949 186.1,-3.832465034046753 186.2,-3.8122125550572443 186.3,-3.79180957644361 186.4,-3.771256903680521 186.5,-3.7505553481523006 186.6,-3.729705727120915 186.7,-3.708708863693702 186.8,-3.6875655867908645 186.9,-3.666276731112797 187.0,-3.6448431371070553 187.1,-3.6232656509352386 187.2,-3.601545124439541 187.3,-3.5796824151091577 187.4,-3.55767838604643 187.5,-3.535533905932742 187.6,-3.513249848994252 187.7,-3.490827094967365 187.8,-3.4682665290640213 187.9,-3.44556904193674 188.0,-3.4227355296434423 188.1,-3.399766893612097 188.2,-3.376664040605124 188.3,-3.3534278826836035 188.4,-3.330059337171263 188.5,-3.306559326618266 188.6,-3.2829287787647834 188.7,-3.2591686265043966 188.8,-3.2352798078472187 188.9,-3.2112632658829208 189.0,-3.1871199487434487 189.1,-3.1628508095656245 189.2,-3.1384568064535054 189.3,-3.1139389024405673 189.4,-3.089298065451678 189.5,-3.0645352682648834 189.6,-3.0396514884730297 189.7,-3.014647708445128 189.8,-2.989524915287593 189.9,-2.9642841008052967 190.0,-2.9389262614623672 190.1,-2.913452398342884 190.2,-2.8878635171113434 190.3,-2.862160627972961 190.4,-2.8363447456337836 190.5,-2.810416889260656 190.6,-2.784378082440944 190.7,-2.758229353142157 190.8,-2.7319717336713456 190.9,-2.705606260634381 191.0,-2.6791339748949867 191.1,-2.652555921533675 191.2,-2.6258731498064853 191.3,-2.5990867131035404 191.4,-2.572197668907527 191.5,-2.545207078751861 191.6,-2.51811600817881 191.7,-2.490925526697462 191.8,-2.4636367077414594 191.9,-2.4362506286266647 192.0,-2.4087683705085814 192.1,-2.3811910183397025 192.2,-2.3535196608266635 192.3,-2.3257553903872865 192.4,-2.2978993031074357 192.5,-2.269952498697732 192.6,-2.241916080450169 192.7,-2.2137911551945173 192.8,-2.185578833254668 192.9,-2.1572802284048 193.0,-2.12889645782537 193.1,-2.100428642059032 193.2,-2.0718779049664233 193.3,-2.0432453736817413 193.4,-2.0145321785683112 193.5,-1.9857394531739028 193.6,-1.9568683341860136 193.7,-1.927919961386986 193.8,-1.8988954776090106 193.9,-1.8697960286890092 194.0,-1.8406227634233905 194.1,-1.811376833522731 194.2,-1.7820593935662576 194.3,-1.7526716009562928 194.4,-1.7232146158725847 194.5,-1.6936896012264582 194.6,-1.6640977226149365 194.7,-1.6344401482747175 194.8,-1.6047180490360544 194.9,-1.5749325982765243 195.0,-1.5450849718747395 195.1,-1.5151763481638738 195.2,-1.4852079078851808 195.3,-1.4551808341413586 195.4,-1.4250963123498819 195.5,-1.3949555301961494 195.6,-1.364759677586631 195.7,-1.3345099466018848 195.8,-1.304207531449485 195.9,-1.273853628416913 196.0,-1.243449435824278 196.1,-1.212996153977043 196.2,-1.1824949851186313 196.3,-1.151947133382954 196.4,-1.121353804746909 196.5,-1.0907162069827177 196.6,-1.06003554961028 196.7,-1.0293130438494067 196.8,-0.9985499025720285 196.9,-0.9677473402542967 197.0,-0.936906572928629 197.1,-0.9060288181356946 197.2,-0.8751152948763901 197.3,-0.8441672235636722 197.4,-0.8131858259744229 197.5,-0.7821723252011612 197.6,-0.7511279456037852 197.7,-0.7200539127612626 197.8,-0.6889514534231854 197.9,-0.6578217954614095 198.0,-0.6266661678215201 198.1,-0.5954858004743495 198.2,-0.5642819243674201 198.3,-0.5330557713763042 198.4,-0.5018085742560812 198.5,-0.47054156659257135 198.6,-0.4392559827537176 198.7,-0.40795305784079144 198.8,-0.37663402763966036 198.9,-0.34530012857202774 199.0,-0.3139525976465676 199.1,-0.28259267241012526 199.2,-0.2512215908988524 199.3,-0.21984059158933103 199.4,-0.1884509133496723 199.5,-0.15705379539064301 199.6,-0.1256504772166909 199.7,-0.09424219857704634 199.8,-0.06283019941676157 199.9,-0.03141571982779525 200.0,-2.4492935982947065e-15" stroke-width="1" stroke-linecap="round" stroke-linejoin="round" stroke="#000000" fill="none"  />
<!-- Footer -->
</svg>
