<!-- Header -->
<svg
    version="1.1"
    baseProfile="full"
    xmlns="http://www.w3.org/2000/svg"
    xmlns:xlink="http://www.w3.org/1999/xlink"
    xmlns:ev="http://www.w3.org/2001/xml-events"
    width="210.0"
    height="20.0"
    viewBox="-5.0 -10.0 210.0 20.0"
    preserveAspectRatio="none"
>
<!-- Body -->
<!-- polyline -->
<polyline points="0.0,0.0 0.1,0.04712319216572003 0.2,0.09424219857704087 0.3,0.14135283385136627 0.4,0.1884509133496727 0.5,0.23553225354821333 0.6,0.28259267241012265 0.7,0.3296279897568893 0.8,0.3766340276396636 0.9,0.4236066107103672 1.0,0.4705415665925716 1.1,0.5174347262521126 1.2,0.5642819243674084 1.3,0.6110789996994471 1.4,0.6578217954614125 1.5,0.7045061596879132 1.6,0.7511279456037854 1.7,0.7976830119924315 1.8,0.8441672235636694 1.9,0.8905764513210506 2.0,0.9369065729286231 2.1,0.9831534730771003 2.2,1.0293130438494067 2.3,1.0753811850855666 2.4,1.1213538047469058 2.5,1.167226819279527 2.6,1.212996153977037 2.7,1.2586577433424853 2.8,1.3042075314494848 2.9,1.3496414723024817 3.0,1.394955530196146 3.1,1.4401456800738457 3.2,1.4852079078851745 3.3,1.530138210942504 3.4,1.5749325982765239 3.5,1.619587090990747 3.6,1.6640977226149332 3.7,1.7084605394574166 3.8,1.7526716009562948 3.9,1.7967269800294532 4.0,1.8406227634233898 4.1,1.884355052060813 4.2,1.9279199613869826 4.3,1.9713136217147547 4.4,2.014532178568313 4.5,2.057571793025544 4.6,2.100428642059031 4.7,2.1430989188756415 4.8,2.1855788332546644 4.9,2.2278646118844816 5.0,2.2699524986977337 5.1,2.3118387552049584 5.2,2.3535196608266626 5.3,2.394991513223805 5.4,2.436250628626661 5.5,2.4772933421620373 5.6,2.518116008178804 5.7,2.558715000571725 5.8,2.599086713103547 5.9,2.6392275597253323 6.0,2.6791339748949827 6.1,2.718802413893962 6.2,2.758229353142151 6.3,2.7974112905108344 6.4,2.8363447456337827 6.5,2.875026260216393 6.6,2.913452398342881 6.7,2.9516197467814727 6.8,2.989524915287594 6.9,3.0271645369050066 7.0,3.0645352682648825 7.1,3.1016337898827793 7.2,3.1384568064535023 7.3,3.1750010471438026 7.4,3.211263265882922 7.5,3.2472402416509176 7.6,3.282928778764782 7.7,3.3183257071622925 7.8,3.3534278826836 7.9,3.3882321873505115 8.0,3.4227355296434436 8.1,3.4569348447760317 8.2,3.490827094967363 8.3,3.524409269711807 8.4,3.557678386046427 8.5,3.5906314888159447 8.6,3.623265650935233 8.7,3.6555779736493204 8.8,3.6875655867908694 8.9,3.7192256490351254 9.0,3.750555348152298 9.1,3.7815519012573597 9.2,3.812212555057238 9.3,3.8425345860953835 9.4,3.872515300993669 9.5,3.9021520366916485 9.6,3.9314421606830945 9.7,3.960383071249835 9.8,3.9889721976928554 9.9,4.017207000560639 10.0,4.045084971874737 10.1,4.0726036353525465 10.2,4.0997605466272615 10.3,4.126553293464998 10.4,4.1529794959790625 10.5,4.179036806841351 10.6,4.204722911490845 10.7,4.230035528339211 10.8,4.254972408973459 10.9,4.279531338355665 11.0,4.303710135019718 11.1,4.327506651265095 11.2,4.350918773347629 11.3,4.373944421667264 11.4,4.3965815509527815 11.5,4.418828150443467 11.6,4.440682244067722 11.7,4.462141890618589 11.8,4.483205183926179 11.9,4.5038702530269905 12.0,4.524135262330097 12.1,4.5439984117802 12.2,4.563457937017514 12.3,4.58251210953449 12.4,4.601159236829352 12.5,4.619397662556434 12.6,4.637225766673306 12.7,4.654641965584679 12.8,4.67164471228306 12.9,4.688232496486178 13.0,4.704403844771128 13.1,4.7201573207052485 13.2,4.735491524973722 13.3,4.750405095503859 13.4,4.764896707586094 13.5,4.7789650739916505 13.6,4.792608945086879 13.7,4.80582710894426 13.8,4.818618391450048 13.9,4.830981656408573 14.0,4.842915805643155 14.1,4.854419779093655 14.2,4.865492554910633 14.3,4.876133149546117 14.4,4.886340617840967 14.5,4.896114053108828 14.6,4.90545258721667 14.7,4.914355390661896 14.8,4.922821672646027 14.9,4.930850681144944 15.0,4.938441702975688 15.1,4.945594063859809 15.2,4.952307128483256 15.3,4.958580300552814 15.4,4.964413022849069 15.5,4.969804777275899 15.6,4.9747550849065005 15.7,4.979263506025928 15.8,4.983329640170149 15.9,4.986953126161618 16.0,4.990133642141358 16.1,4.992870905597549 16.2,4.995164673390623 16.3,4.997014741774865 16.4,4.9984209464165 16.5,4.999383162408303 16.6,4.9999013042806855 16.7,4.999975326009291 16.8,4.99960522101908 16.9,4.99879102218492 17.0,4.997532801828658 17.1,4.9958306717127 17.2,4.993684783030087 17.3,4.991095326391059 17.4,4.9880625318061265 17.5,4.9845866686656395 17.6,4.980668045715863 17.7,4.976307011031541 17.8,4.971503951984994 17.9,4.966259295211698 18.0,4.960573506572389 18.1,4.954447091111693 18.2,4.947880593013255 18.3,4.940874595551402 18.4,4.9334297210393405 18.5,4.925546630773869 18.6,4.917226024976648 18.7,4.908468642731995 18.8,4.899275261921234 18.9,4.889646699153609 19.0,4.879583809693737 19.1,4.869087487385644 19.2,4.85815866457337 19.3,4.846798312018146 19.4,4.835007438812175 19.5,4.822787092288991 19.6,4.810138357930429 19.7,4.797062359270214 19.8,4.783560257794152 19.9,4.769633252836968 20.0,4.755282581475768 20.1,4.74050951842016 20.2,4.725315375899025 20.3,4.709701503543952 20.4,4.693669288269371 20.5,4.677220154149337 20.6,4.660355562291054 20.7,4.6430770107050865 20.8,4.6253860341722906 20.9,4.607284204107493 21.0,4.588773128419906 21.1,4.569854451370306 21.2,4.55052985342498 21.3,4.530801051106448 21.4,4.5106697968410145 21.5,4.490137878803078 21.6,4.4692071207563195 21.7,4.44787938189169 21.8,4.426156556662276 21.9,4.404040574615019 22.0,4.381533400219318 22.1,4.3586370326925445 22.2,4.335353505822452 22.3,4.31168488778652 22.4,4.287633280968261 22.5,4.263200821770462 22.6,4.238389680425417 22.7,4.213202060802162 22.8,4.187640200210708 22.9,4.161706369203318 23.0,4.13540287137281 23.1,4.108732043147953 23.2,4.08169625358592 23.3,4.054297904161867 23.4,4.026539428555611 23.5,3.998423292435453 23.6,3.9699519932391762 23.7,3.9411280599522005 23.8,3.9119540528829413 23.9,3.882432563435394 24.0,3.8525662138789474 24.1,3.8223576571154583 24.2,3.791809576443609 24.3,3.760924685320557 24.4,3.729705727120911 24.5,3.6981554748930496 24.6,3.6662767311127986 24.7,3.6340723274345144 24.8,3.6015451244395353 24.9,3.568698011382108 25.0,3.5355339059327378 25.1,3.502055753919031 25.2,3.468266529064026 25.3,3.4341692327220414 25.4,3.399766893612097 25.5,3.3650625675488666 25.6,3.3300593371712583 25.7,3.2947603116685853 25.8,3.259168626504395 25.9,3.223287443137959 26.0,3.1871199487434474 26.1,3.150669355926845 26.2,3.113938902440563 26.3,3.0769318508958583 26.4,3.0396514884730266 26.5,3.00210112662942 26.6,2.9642841008052967 26.7,2.9262037701275516 26.8,2.887863517111338 26.9,2.8492667473596196 27.0,2.810416889260654 27.1,2.77131739368347 27.2,2.731971733671346 27.3,2.6923834041333 27.4,2.652555921533672 27.5,2.6124928235797444 27.6,2.572197668907533 27.7,2.531674036765664 27.8,2.4909255266974544 27.9,2.4499557582211837 28.0,2.408768370508576 28.1,2.3673670220615612 28.2,2.3257553903872905 28.3,2.283937171671497 28.4,2.241916080450163 28.5,2.1996958492795766 28.6,2.1572802284047943 28.7,2.1146729854265165 28.8,2.0718779049664215 28.9,2.0288987883309995 29.0,1.985739453173903 29.1,1.9424037331568291 29.2,1.898895477609007 29.3,1.855218551185255 29.4,1.811376833522729 29.5,1.7673742188962869 29.6,1.7232146158725854 29.7,1.6789019469629038 29.8,1.6344401482747115 29.9,1.5898331691620569 30.0,1.5450849718747397 30.1,1.5001995312063805 30.2,1.455180834141361 30.3,1.4100328795006476 30.4,1.364759677586627 30.5,1.319365249826864 30.6,1.2738536284169113 30.7,1.2282288559621328 30.8,1.182494985118623 30.9,1.1366560782332347 31.0,1.0907162069827139 31.1,1.0446794520120601 31.2,0.9985499025720352 31.3,0.9523316561559504 31.4,0.9060288181356884 31.5,0.8596455013970479 31.6,0.8131858259744167 31.7,0.7666539186848047 31.8,0.7200539127612631 31.9,0.6733899474857616 32.0,0.6266661678215204 32.1,0.5798867240448068 32.2,0.533055771376298 32.3,0.48617746961199804 32.4,0.43925598275371575 32.5,0.3922954786392253 32.6,0.3453001285720303 32.7,0.29827410695085327 32.8,0.25122159089885054 32.9,0.204146759892549 33.0,0.15705379539064118 33.1,0.10994688046252377 33.2,0.06283019941676418 33.3,0.01570793742939745 33.4,-0.03141571982779441 33.5,-0.07853658655910231 33.6,-0.12565047721668784 33.7,-0.1727532068723633 33.8,-0.21984059158932354 33.9,-0.26690844879380066 34.0,-0.31395259764656896 34.1,-0.3609688594143021 34.2,-0.4079530578407884 34.3,-0.4549010195178472 34.4,-0.5018085742560736 34.5,-0.5486715554552271 34.6,-0.5954858004743508 34.7,-0.6422471510015157 34.8,-0.6889514534231889 34.9,-0.7355945591931847 35.0,-0.7821723252011537 35.1,-0.8286806141405993 35.2,-0.8751152948763805 35.3,-0.9214722428116638 35.4,-0.9677473402542979 35.5,-1.0139364767825647 35.6,-1.060035549610275 35.7,-1.1060404639512367 35.8,-1.151947133382951 35.9,-1.1977514802096088 36.0,-1.2434494358242751 36.1,-1.2890369410702998 36.2,-1.3345099466018775 36.3,-1.3798644132437254 36.4,-1.4250963123498788 36.5,-1.4702016261615194 36.6,-1.5151763481638711 36.7,-1.5600164834420769 36.8,-1.6047180490360429 36.9,-1.6492770742942655 37.0,-1.6936896012264575 37.1,-1.7379516848551853 37.2,-1.782059393566255 37.3,-1.8260088094579376 37.4,-1.8697960286890023 37.5,-1.9134171618254483 37.6,-1.9568683341860107 37.7,-2.000145686186324 37.8,-2.0432453736817426 37.9,-2.0861635683088253 38.0,-2.1288964578253613 38.1,-2.1714402464490243 38.2,-2.2137911551945106 38.3,-2.2559454222092215 38.4,-2.297899303107439 38.5,-2.339649071302866 38.6,-2.381191018339696 38.7,-2.4225214542219913 38.8,-2.463636707741457 38.9,-2.504533126803548 39.0,-2.5452070787518544 39.1,-2.585654950690785 39.2,-2.625873149806481 39.3,-2.6658581036859412 39.4,-2.7056062606343767 39.5,-2.745114089990659 39.6,-2.784378082440942 39.7,-2.8233947503303862 39.8,-2.8621606279729535 39.9,-2.9006722719592446 40.0,-2.938926261462365 40.1,-2.9769191985417756 40.2,-3.0146477084451235 40.3,-3.0521084399080105 40.4,-3.089298065451669 40.5,-3.1262132816785244 40.6,-3.162850809565624 40.7,-3.199207394755893 40.8,-3.2352798078472182 40.9,-3.271064844679305 41.0,-3.306559326618257 41.1,-3.3417601008389655 41.2,-3.3766640406051254 41.3,-3.4112680455469797 41.4,-3.445569041936741 41.5,-3.479563982961573 41.6,-3.5132498489942456 41.7,-3.5466236478613715 41.8,-3.5796824151091555 41.9,-3.6124232142667467 42.0,-3.644843137107058 42.1,-3.6769393039050775 42.2,-3.708708863693697 42.3,-3.7401489945169115 42.4,-3.771256903680516 42.5,-3.802029828000153 42.6,-3.832465034046751 42.7,-3.862559818389322 42.8,-3.8923115078351156 42.9,-3.921717459667052 43.0,-3.950775061878452 43.1,-3.9794817334050805 43.2,-4.007834924354382 43.3,-4.035832116231999 43.4,-4.063470822165468 43.5,-4.0907485871251135 43.6,-4.117662988142137 43.7,-4.144211634523813 43.8,-4.170392168065855 43.9,-4.196202263261909 44.0,-4.221639627510074 44.1,-4.246702001316582 44.2,-4.271387158496475 44.3,-4.295692906371361 44.4,-4.319617085964174 44.5,-4.3431575721909566 44.6,-4.3663122740496 44.7,-4.38907913480561 44.8,-4.4114561321747665 44.9,-4.433441278502782 45.0,-4.455032620941839 45.1,-4.476228241624057 45.2,-4.4970262578318545 45.3,-4.517424822165172 45.4,-4.537422122705584 45.5,-4.557016383177225 45.6,-4.576205863104589 45.7,-4.594988857967107 45.8,-4.6133636993505736 45.9,-4.631328755095333 46.0,-4.648882429441255 46.1,-4.666023163169492 46.2,-4.68274943374096 46.3,-4.699059755431597 46.4,-4.7149526794643215 46.5,-4.730426794137727 46.6,-4.745480724951474 46.7,-4.760113134728384 46.8,-4.7743227237332135 46.9,-4.78810822978811 47.0,-4.801468428384715 47.1,-4.814402132792937 47.2,-4.82690819416637 47.3,-4.838985501644327 47.4,-4.850632982450529 47.5,-4.861849601988383 47.6,-4.872634363932885 47.7,-4.882986310319123 47.8,-4.89290452162736 47.9,-4.902388116864722 48.0,-4.911436253643442 48.1,-4.920048128255699 48.2,-4.92822297574499 48.3,-4.9359600699740955 48.4,-4.943258723689571 48.5,-4.950118288582788 48.6,-4.956538155347533 48.7,-4.962517753734118 48.8,-4.968056552600042 48.9,-4.973154059957161 49.0,-4.9778098230154 49.1,-4.982023428222962 49.2,-4.9857945013030704 49.3,-4.989122707287207 49.4,-4.992007750544875 49.5,-4.99444937480985 49.6,-4.996447363202946 49.7,-4.998001538251283 49.8,-4.999111761904045 49.9,-4.999777935544749 50.0,-5.0 50.1,-4.999777935544749 50.2,-4.999111761904045 50.3,-4.998001538251283 50.4,-4.996447363202947 50.5,-4.99444937480985 50.6,-4.992007750544875 50.7,-4.9891227072872075 50.8,-4.98579450130307 50.9,-4.982023428222962 51.0,-4.9778098230154 51.1,-4.973154059957162 51.2,-4.968056552600042 51.3,-4.962517753734119 51.4,-4.956538155347533 51.5,-4.950118288582788 51.6,-4.943258723689571 51.7,-4.9359600699740955 51.8,-4.9282229757449905 51.9,-4.920048128255699 52.0,-4.911436253643443 52.1,-4.9023881168647225 52.2,-4.892904521627361 52.3,-4.882986310319124 52.4,-4.872634363932885 52.5,-4.861849601988384 52.6,-4.85063298245053 52.7,-4.838985501644327 52.8,-4.826908194166369 52.9,-4.814402132792938 53.0,-4.801468428384715 53.1,-4.788108229788112 53.2,-4.774322723733215 53.3,-4.760113134728384 53.4,-4.745480724951474 53.5,-4.730426794137727 53.6,-4.714952679464322 53.7,-4.699059755431597 53.8,-4.682749433740962 53.9,-4.666023163169493 54.0,-4.648882429441258 54.1,-4.631328755095334 54.2,-4.6133636993505736 54.3,-4.594988857967108 54.4,-4.5762058631045885 54.5,-4.557016383177228 54.6,-4.537422122705584 54.7,-4.517424822165173 54.8,-4.497026257831857 54.9,-4.476228241624059 55.0,-4.45503262094184 55.1,-4.433441278502782 55.2,-4.411456132174767 55.3,-4.389079134805609 55.4,-4.366312274049602 55.5,-4.343157572190955 55.6,-4.319617085964177 55.7,-4.295692906371362 55.8,-4.271387158496477 55.9,-4.246702001316586 56.0,-4.221639627510075 56.1,-4.19620226326191 56.2,-4.170392168065856 56.3,-4.144211634523812 56.4,-4.117662988142135 56.5,-4.090748587125118 56.6,-4.063470822165469 56.7,-4.035832116232003 56.8,-4.007834924354386 56.9,-3.9794817334050787 57.0,-3.950775061878453 57.1,-3.9217174596670508 57.2,-3.892311507835116 57.3,-3.862559818389326 57.4,-3.8324650340467494 57.5,-3.802029828000154 57.6,-3.77125690368052 57.7,-3.7401489945169124 57.8,-3.708708863693695 57.9,-3.67693930390508 58.0,-3.644843137107058 58.1,-3.612423214266751 58.2,-3.5796824151091537 58.3,-3.5466236478613693 58.4,-3.5132498489942483 58.5,-3.4795639829615728 58.6,-3.4455690419367424 58.7,-3.411268045546981 58.8,-3.3766640406051236 58.9,-3.3417601008389655 59.0,-3.3065593266182614 59.1,-3.271064844679303 59.2,-3.235279807847222 59.3,-3.199207394755894 59.4,-3.162850809565623 59.5,-3.1262132816785293 59.6,-3.0892980654516706 59.7,-3.0521084399080136 59.8,-3.0146477084451266 59.9,-2.9769191985417764 60.0,-2.9389262614623703 60.1,-2.9006722719592464 60.2,-2.862160627972953 60.3,-2.8233947503303862 60.4,-2.784378082440943 60.5,-2.7451140899906568 60.6,-2.7056062606343803 60.7,-2.6658581036859426 60.8,-2.625873149806481 60.9,-2.5856549506907904 61.0,-2.545207078751856 61.1,-2.5045331268035516 61.2,-2.4636367077414585 61.3,-2.422521454221993 61.4,-2.3811910183396976 61.5,-2.3396490713028677 61.6,-2.2978993031074384 61.7,-2.2559454222092272 61.8,-2.213791155194512 61.9,-2.171440246449022 62.0,-2.128896457825365 62.1,-2.086163568308827 62.2,-2.0432453736817484 62.3,-2.000145686186326 62.4,-1.9568683341860125 62.5,-1.913417161825452 62.6,-1.8697960286890039 62.7,-1.8260088094579352 62.8,-1.7820593935662565 62.9,-1.7379516848551868 63.0,-1.693689601226457 63.1,-1.6492770742942675 63.2,-1.6047180490360449 63.3,-1.5600164834420744 63.4,-1.5151763481638727 63.5,-1.4702016261615214 63.6,-1.425096312349885 63.7,-1.3798644132437317 63.8,-1.334509946601875 63.9,-1.2890369410702993 64.0,-1.2434494358242725 64.1,-1.1977514802096105 64.2,-1.151947133382953 64.3,-1.1060404639512385 64.4,-1.0600355496102702 64.5,-1.0139364767825623 64.6,-0.9677473402543041 64.7,-0.9214722428116634 64.8,-0.8751152948763801 64.9,-0.8286806141405968 65.0,-0.7821723252011556 65.1,-0.735594559193191 65.2,-0.6889514534231929 65.3,-0.6422471510015197 65.4,-0.5954858004743483 65.5,-0.5486715554552288 65.6,-0.5018085742560798 65.7,-0.45490101951784906 65.8,-0.4079530578407858 65.9,-0.36096885941430396 66.0,-0.3139525976465663 66.1,-0.2669084487938047 66.2,-0.21984059158932093 66.3,-0.1727532068723607 66.4,-0.12565047721668968 66.5,-0.07853658655909972 66.6,-0.03141571982779403 66.7,0.015707937429400055 66.8,0.06283019941676235 66.9,0.10994688046252636 67.0,0.15705379539063935 67.1,0.20414675989254494 67.2,0.25122159089884866 67.3,0.2982741069508515 67.4,0.34530012857203296 67.5,0.3922954786392257 67.6,0.43925598275371397 67.7,0.48617746961199626 67.8,0.5330557713762962 67.9,0.579886724044805 68.0,0.6266661678215253 68.1,0.6733899474857553 68.2,0.7200539127612591 68.3,0.7666539186847986 68.4,0.8131858259744194 68.5,0.8596455013970504 68.6,0.9060288181356823 68.7,0.9523316561559507 68.8,0.9985499025720335 68.9,1.0446794520120628 69.0,1.090716206982714 69.1,1.1366560782332307 69.2,1.1824949851186277 69.3,1.228228855962133 69.4,1.273853628416914 69.5,1.3193652498268647 69.6,1.3647596775866233 69.7,1.4100328795006458 69.8,1.455180834141355 69.9,1.500199531206383 70.0,1.545084971874736 70.1,1.5898331691620506 70.2,1.634440148274714 70.3,1.678901946962902 70.4,1.7232146158725856 70.5,1.767374218896283 70.6,1.8113768335227232 70.7,1.8552185511852595 70.8,1.8988954776089992 70.9,1.9424037331568296 71.0,1.9857394531739074 71.1,2.0288987883309937 71.2,2.0718779049664238 71.3,2.114672985426517 71.4,2.157280228404797 71.5,2.199695849279575 71.6,2.241916080450158 71.7,2.283937171671499 71.8,2.325755390387291 71.9,2.3673670220615652 72.0,2.4087683705085783 72.1,2.4499557582211824 72.2,2.490925526697455 72.3,2.531674036765661 72.4,2.5721976689075317 72.5,2.6124928235797413 72.6,2.652555921533665 72.7,2.6923834041333006 72.8,2.731971733671342 72.9,2.7713173936834723 73.0,2.8104168892606527 73.1,2.849266747359616 73.2,2.88786351711134 73.3,2.9262037701275467 73.4,2.9642841008053007 73.5,3.002101126629422 73.6,3.0396514884730195 73.7,3.0769318508958623 73.8,3.1139389024405646 73.9,3.150669355926849 74.0,3.18711994874345 74.1,3.2232874431379557 74.2,3.259168626504394 74.3,3.2947603116685826 74.4,3.3300593371712606 74.5,3.3650625675488666 74.6,3.399766893612094 74.7,3.4341692327220437 74.8,3.4682665290640244 74.9,3.502055753919033 75.0,3.535533905932737 75.1,3.5686980113821036 75.2,3.6015451244395322 75.3,3.63407232743451 75.4,3.6662767311128004 75.5,3.6981554748930465 75.6,3.729705727120907 75.7,3.7609246853205605 75.8,3.7918095764436077 75.9,3.82235765711546 76.0,3.8525662138789434 76.1,3.8824325634353887 76.2,3.9119540528829426 76.3,3.941128059952195 76.4,3.9699519932391802 76.5,3.9984232924354544 76.6,4.026539428555605 76.7,4.054297904161869 76.8,4.081696253585919 76.9,4.108732043147952 77.0,4.135402871372808 77.1,4.161706369203314 77.2,4.1876402002107085 77.3,4.2132020608021605 77.4,4.238389680425418 77.5,4.263200821770462 77.6,4.287633280968261 77.7,4.3116848877865195 77.8,4.335353505822448 77.9,4.358637032692544 78.0,4.381533400219316 78.1,4.404040574615014 78.2,4.426156556662275 78.3,4.4478793818916875 78.4,4.469207120756321 78.5,4.490137878803077 78.6,4.510669796841012 78.7,4.530801051106449 78.8,4.550529853424976 78.9,4.569854451370308 79.0,4.5887731284199065 79.1,4.607284204107488 79.2,4.625386034172292 79.3,4.643077010705087 79.4,4.6603555622910555 79.5,4.677220154149336 79.6,4.693669288269369 79.7,4.709701503543952 79.8,4.725315375899023 79.9,4.74050951842016 80.0,4.755282581475767 80.1,4.769633252836966 80.2,4.783560257794153 80.3,4.797062359270214 80.4,4.8101383579304295 80.5,4.82278709228899 80.6,4.835007438812174 80.7,4.846798312018145 80.8,4.858158664573368 80.9,4.869087487385646 81.0,4.879583809693736 81.1,4.889646699153608 81.2,4.899275261921235 81.3,4.908468642731993 81.4,4.917226024976649 81.5,4.9255466307738685 81.6,4.933429721039339 81.7,4.940874595551403 81.8,4.947880593013255 81.9,4.9544470911116925 82.0,4.960573506572389 82.1,4.966259295211696 82.2,4.971503951984994 82.3,4.976307011031541 82.4,4.980668045715863 82.5,4.9845866686656395 82.6,4.988062531806126 82.7,4.991095326391059 82.8,4.993684783030087 82.9,4.995830671712701 83.0,4.997532801828658 83.1,4.99879102218492 83.2,4.99960522101908 83.3,4.999975326009291 83.4,4.9999013042806855 83.5,4.999383162408303 83.6,4.9984209464165 83.7,4.997014741774865 83.8,4.995164673390624 83.9,4.992870905597549 84.0,4.990133642141358 84.1,4.986953126161619 84.2,4.98332964017015 84.3,4.979263506025929 84.4,4.9747550849065005 84.5,4.969804777275899 84.6,4.964413022849069 84.7,4.958580300552815 84.8,4.952307128483257 84.9,4.945594063859808 85.0,4.938441702975689 85.1,4.930850681144944 85.2,4.922821672646026 85.3,4.914355390661897 85.4,4.90545258721667 85.5,4.896114053108829 85.6,4.886340617840968 85.7,4.876133149546117 85.8,4.865492554910632 85.9,4.854419779093656 86.0,4.842915805643155 86.1,4.830981656408577 86.2,4.818618391450047 86.3,4.80582710894426 86.4,4.79260894508688 86.5,4.778965073991652 86.6,4.764896707586097 86.7,4.750405095503857 86.8,4.735491524973724 86.9,4.7201573207052485 87.0,4.704403844771131 87.1,4.6882324964861795 87.2,4.67164471228306 87.3,4.65464196558468 87.4,4.637225766673302 87.5,4.6193976625564375 87.6,4.601159236829353 87.7,4.582512109534492 87.8,4.563457937017514 87.9,4.543998411780198 88.0,4.5241352623301 88.1,4.503870253026994 88.2,4.483205183926181 88.3,4.462141890618591 88.4,4.440682244067722 88.5,4.418828150443464 88.6,4.396581550952784 88.7,4.373944421667264 88.8,4.350918773347633 88.9,4.327506651265093 89.0,4.303710135019718 89.1,4.279531338355666 89.2,4.254972408973462 89.3,4.230035528339215 89.4,4.204722911490841 89.5,4.179036806841355 89.6,4.1529794959790625 89.7,4.126553293465004 89.8,4.099760546627264 89.9,4.0726036353525465 90.0,4.045084971874738 90.1,4.01720700056064 90.2,3.9889721976928594 90.3,3.960383071249836 90.4,3.9314421606830976 90.5,3.902152036691648 90.6,3.8725153009936757 90.7,3.8425345860953803 90.8,3.812212555057244 90.9,3.7815519012573606 91.0,3.7505553481523006 91.1,3.71922564903513 91.2,3.687565586790864 91.3,3.655577973649323 91.4,3.623265650935232 91.5,3.5906314888159514 91.6,3.5576783860464296 91.7,3.5244092697118057 91.8,3.490827094967364 91.9,3.4569348447760353 92.0,3.4227355296434485 92.1,3.3882321873505123 92.2,3.3534278826836035 92.3,3.318325707162291 92.4,3.2829287787647896 92.5,3.247240241650921 92.6,3.211263265882927 92.7,3.175001047143804 92.8,3.1384568064535054 92.9,3.1016337898827784 93.0,3.064535268264883 93.1,3.0271645369050098 93.2,2.9895249152875927 93.3,2.95161974678148 93.4,2.9134523983428764 93.5,2.875026260216391 93.6,2.8363447456337902 93.7,2.797411290510838 93.8,2.7582293531421564 93.9,2.7188024138939553 94.0,2.6791339748949863 94.1,2.63922755972533 94.2,2.5990867131035555 94.3,2.5587150005717274 94.4,2.5181160081788017 94.5,2.477293342162038 94.6,2.4362506286266643 94.7,2.3949915132238107 94.8,2.353519660826663 94.9,2.311838755204962 95.0,2.2699524986977315 95.1,2.2278646118844896 95.2,2.1855788332546675 95.3,2.1430989188756473 95.4,2.1004286420590317 95.5,2.057571793025547 95.6,2.014532178568319 95.7,1.971313621714747 95.8,1.9279199613869855 95.9,1.8843550520608108 96.0,1.840622763423398 96.1,1.796726980029456 96.2,1.7526716009562924 96.3,1.7084605394574248 96.4,1.6640977226149358 96.5,1.6195870909907526 96.6,1.5749325982765239 96.7,1.5301382109425063 96.8,1.4852079078851714 96.9,1.4401456800738541 97.0,1.394955530196149 97.1,1.3496414723024872 97.2,1.3042075314494843 97.3,1.2586577433424881 97.4,1.2129961539770424 97.5,1.1672268192795268 97.6,1.1213538047469083 97.7,1.0753811850855635 97.8,1.029313043849415 97.9,0.9831534730771028 98.0,0.9369065729286284 98.1,0.8905764513210589 98.2,0.8441672235636717 98.3,0.7976830119924367 98.4,0.7511279456037758 98.5,0.7045061596879155 98.6,0.6578217954614176 98.7,0.6110789996994552 98.8,0.5642819243674106 98.9,0.5174347262521088 99.0,0.47054156659257074 99.1,0.42360661071037814 99.2,0.3766340276396686 99.3,0.32962798975688834 99.4,0.28259267241012465 99.5,0.23553225354820936 99.6,0.18845091334968056 99.7,0.14135283385136818 99.8,0.09424219857704573 99.9,0.04712319216571893 100.0,1.8369701987210296e-15 100.1,-0.04712319216571527 100.2,-0.09424219857704205 100.3,-0.14135283385136452 100.4,-0.18845091334967687 100.5,-0.2355322535482057 100.6,-0.282592672410121 100.7,-0.3296279897568847 100.8,-0.37663402763965614 100.9,-0.42360661071036565 101.0,-0.47054156659256713 101.1,-0.5174347262521141 101.2,-0.564281924367407 101.3,-0.6110789996994428 101.4,-0.6578217954614052 101.5,-0.704506159687912 101.6,-0.751127945603781 101.7,-0.7976830119924332 101.8,-0.8441672235636681 101.9,-0.8905764513210466 102.0,-0.9369065729286248 102.1,-0.9831534730770991 102.2,-1.0293130438494111 102.3,-1.07538118508556 102.4,-1.1213538047469047 102.5,-1.167226819279523 102.6,-1.2129961539770304 102.7,-1.2586577433424844 102.8,-1.3042075314494808 102.9,-1.3496414723024834 103.0,-1.3949555301961452 103.1,-1.4401456800738421 103.2,-1.4852079078851679 103.3,-1.5301382109425026 103.4,-1.5749325982765288 103.5,-1.6195870909907406 103.6,-1.6640977226149238 103.7,-1.708460539457413 103.8,-1.752671600956297 103.9,-1.7967269800294527 104.0,-1.8406227634233945 104.1,-1.884355052060807 104.2,-1.9279199613869822 104.3,-1.9713136217147518 104.4,-2.0145321785683152 104.5,-2.0575717930255433 104.6,-2.10042864205902 104.7,-2.1430989188756437 104.8,-2.185578833254664 104.9,-2.2278646118844865 105.0,-2.2699524986977284 105.1,-2.3118387552049584 105.2,-2.35351966082666 105.3,-2.3949915132237996 105.4,-2.436250628626661 105.5,-2.477293342162035 105.6,-2.518116008178807 105.7,-2.5587150005717247 105.8,-2.5990867131035444 105.9,-2.6392275597253265 106.0,-2.6791339748949827 106.1,-2.7188024138939597 106.2,-2.758229353142146 106.3,-2.7974112905108273 106.4,-2.83634474563378 106.5,-2.875026260216395 106.6,-2.91345239834288 106.7,-2.9516197467814775 106.8,-2.9895249152875896 106.9,-3.027164536905007 107.0,-3.0645352682648803 107.1,-3.1016337898827757 107.2,-3.1384568064535023 107.3,-3.1750010471438013 107.4,-3.2112632658829243 107.5,-3.2472402416509185 107.6,-3.2829287787647803 107.7,-3.3183257071622885 107.8,-3.353427882683601 107.9,-3.3882321873505097 108.0,-3.422735529643439 108.1,-3.4569348447760255 108.2,-3.4908270949673614 108.3,-3.5244092697118097 108.4,-3.5576783860464274 108.5,-3.5906314888159425 108.6,-3.6232656509352297 108.7,-3.6555779736493212 108.8,-3.687565586790868 108.9,-3.7192256490351276 109.0,-3.750555348152292 109.1,-3.781551901257352 109.2,-3.8122125550572417 109.3,-3.8425345860953835 109.4,-3.8725153009936735 109.5,-3.902152036691646 109.6,-3.9314421606830896 109.7,-3.960383071249834 109.8,-3.9889721976928523 109.9,-4.017207000560639 110.0,-4.045084971874736 110.1,-4.072603635352549 110.2,-4.099760546627262 110.3,-4.126553293464997 110.4,-4.152979495979061 110.5,-4.179036806841352 110.6,-4.204722911490845 110.7,-4.230035528339208 110.8,-4.2549724089734555 110.9,-4.279531338355664 111.0,-4.30371013501972 111.1,-4.327506651265096 111.2,-4.350918773347628 111.3,-4.373944421667262 111.4,-4.3965815509527815 111.5,-4.418828150443466 111.6,-4.4406822440677205 111.7,-4.46214189061859 111.8,-4.483205183926175 111.9,-4.503870253026992 112.0,-4.524135262330098 112.1,-4.5439984117802 112.2,-4.563457937017512 112.3,-4.582512109534487 112.4,-4.601159236829352 112.5,-4.619397662556432 112.6,-4.637225766673304 112.7,-4.654641965584679 112.8,-4.6716447122830616 112.9,-4.688232496486179 113.0,-4.704403844771127 113.1,-4.720157320705248 113.2,-4.735491524973722 113.3,-4.750405095503859 113.4,-4.764896707586093 113.5,-4.778965073991649 113.6,-4.792608945086877 113.7,-4.8058271089442615 113.8,-4.818618391450049 113.9,-4.830981656408573 114.0,-4.8429158056431545 114.1,-4.854419779093654 114.2,-4.865492554910633 114.3,-4.876133149546116 114.4,-4.886340617840968 114.5,-4.896114053108827 114.6,-4.9054525872166685 114.7,-4.914355390661896 114.8,-4.922821672646027 114.9,-4.9308506811449435 115.0,-4.938441702975689 115.1,-4.945594063859808 115.2,-4.952307128483255 115.3,-4.958580300552813 115.4,-4.964413022849069 115.5,-4.969804777275899 115.6,-4.9747550849065005 115.7,-4.979263506025928 115.8,-4.983329640170149 115.9,-4.986953126161619 116.0,-4.990133642141358 116.1,-4.992870905597549 116.2,-4.995164673390623 116.3,-4.997014741774864 116.4,-4.9984209464165 116.5,-4.999383162408303 116.6,-4.9999013042806855 116.7,-4.999975326009291 116.8,-4.99960522101908 116.9,-4.99879102218492 117.0,-4.997532801828658 117.1,-4.995830671712701 117.2,-4.993684783030087 117.3,-4.99109532639106 117.4,-4.988062531806126 117.5,-4.9845866686656395 117.6,-4.980668045715863 117.7,-4.976307011031541 117.8,-4.971503951984994 117.9,-4.966259295211698 118.0,-4.9605735065723895 118.1,-4.954447091111694 118.2,-4.947880593013254 118.3,-4.940874595551402 118.4,-4.9334297210393405 118.5,-4.92554663077387 118.6,-4.9172260249766495 118.7,-4.908468642731994 118.8,-4.899275261921235 118.9,-4.8896466991536105 119.0,-4.879583809693739 119.1,-4.869087487385647 119.2,-4.858158664573368 119.3,-4.846798312018146 119.4,-4.835007438812176 119.5,-4.822787092288992 119.6,-4.810138357930432 119.7,-4.797062359270215 119.8,-4.783560257794154 119.9,-4.769633252836968 120.0,-4.755282581475772 120.1,-4.740509518420161 120.2,-4.725315375899024 120.3,-4.709701503543954 120.4,-4.693669288269369 120.5,-4.677220154149336 120.6,-4.6603555622910555 120.7,-4.643077010705088 120.8,-4.625386034172293 120.9,-4.60728420410749 121.0,-4.588773128419904 121.1,-4.569854451370306 121.2,-4.55052985342498 121.3,-4.530801051106451 121.4,-4.510669796841014 121.5,-4.490137878803079 121.6,-4.469207120756321 121.7,-4.447879381891694 121.8,-4.426156556662281 121.9,-4.404040574615015 122.0,-4.381533400219317 122.1,-4.358637032692545 122.2,-4.335353505822452 122.3,-4.311684887786524 122.4,-4.2876332809682625 122.5,-4.2632008217704636 122.6,-4.23838968042542 122.7,-4.213202060802157 122.8,-4.187640200210711 122.9,-4.1617063692033165 123.0,-4.1354028713728095 123.1,-4.1087320431479535 123.2,-4.0816962535859185 123.3,-4.054297904161868 123.4,-4.026539428555612 123.5,-3.998423292435457 123.6,-3.969951993239183 123.7,-3.941128059952197 123.8,-3.9119540528829395 123.9,-3.8824325634353936 124.0,-3.852566213878949 124.1,-3.8223576571154627 124.2,-3.79180957644361 124.3,-3.7609246853205596 124.4,-3.729705727120915 124.5,-3.698155474893055 124.6,-3.666276731112803 124.7,-3.6340723274345126 124.8,-3.6015451244395353 124.9,-3.568698011382103 125.0,-3.535533905932742 125.1,-3.5020557539190325 125.2,-3.4682665290640275 125.3,-3.4341692327220463 125.4,-3.39976689361209 125.5,-3.3650625675488626 125.6,-3.330059337171263 125.7,-3.2947603116685853 125.8,-3.2591686265043966 125.9,-3.223287443137955 126.0,-3.1871199487434487 126.1,-3.1506693559268486 126.2,-3.1139389024405673 126.3,-3.076931850895865 126.4,-3.0396514884730226 126.5,-3.0021011266294186 126.6,-2.9642841008052967 126.7,-2.9262037701275534 126.8,-2.8878635171113434 126.9,-2.8492667473596187 127.0,-2.810416889260656 127.1,-2.771317393683476 127.2,-2.7319717336713527 127.3,-2.692383404133304 127.4,-2.652555921533675 127.5,-2.6124928235797444 127.6,-2.572197668907527 127.7,-2.5316740367656676 127.8,-2.4909255266974544 127.9,-2.449955758221178 128.0,-2.408768370508574 128.1,-2.3673670220615604 128.2,-2.3257553903872945 128.3,-2.2839371716715027 128.4,-2.241916080450161 128.5,-2.1996958492795704 128.6,-2.1572802284048 128.7,-2.114672985426516 128.8,-2.0718779049664153 128.9,-2.028898788330997 129.0,-1.9857394531739028 129.1,-1.9424037331568327 129.2,-1.8988954776090106 129.3,-1.8552185511852548 129.4,-1.8113768335227225 129.5,-1.7673742188962906 129.6,-1.7232146158725847 129.7,-1.678901946962914 129.8,-1.634440148274709 129.9,-1.5898331691620542 130.0,-1.5450849718747395 130.1,-1.5001995312063863 130.2,-1.4551808341413672 130.3,-1.410032879500641 130.4,-1.364759677586631 130.5,-1.3193652498268638 130.6,-1.2738536284169215 130.7,-1.2282288559621366 130.8,-1.1824949851186226 130.9,-1.1366560782332342 131.0,-1.0907162069827177 131.1,-1.0446794520120664 131.2,-0.9985499025720458 131.3,-0.9523316561559543 131.4,-0.9060288181356858 131.5,-0.859645501397041 131.6,-0.813185825974414 131.7,-0.7666539186848197 131.8,-0.7200539127612626 131.9,-0.6733899474857679 132.0,-0.6266661678215201 132.1,-0.5798867240447998 132.2,-0.5330557713763042 132.3,-0.4861774696119955 132.4,-0.43925598275370875 132.5,-0.3922954786392205 132.6,-0.34530012857202774 132.7,-0.2982741069508551 132.8,-0.2512215908988524 132.9,-0.20414675989254863 133.0,-0.15705379539063413 133.1,-0.10994688046253004 133.2,-0.06283019941676157 133.3,-0.015707937429390407 133.4,0.031415719827799234 133.5,0.07853658655910492 133.6,0.125650477216686 133.7,0.172753206872357 133.8,0.21984059158932615 133.9,0.2669084487938099 134.0,0.31395259764656264 134.1,0.3609688594143047 134.2,0.40795305784077773 134.3,0.4549010195178543 134.4,0.5018085742560762 134.5,0.5486715554552253 134.6,0.5954858004743446 134.7,0.6422471510015072 134.8,0.688951453423198 134.9,0.735594559193183 135.0,0.7821723252011563 135.1,0.8286806141405888 135.2,0.8751152948763764 135.3,0.9214722428116685 135.4,0.9677473402543004 135.5,1.0139364767825587 135.6,1.0600355496102667 135.7,1.1060404639512262 135.8,1.1519471333829492 135.9,1.1977514802096114 136.0,1.2434494358242818 136.1,1.2890369410702958 136.2,1.3345099466018628 136.3,1.3798644132437279 136.4,1.4250963123498772 136.5,1.470201626161522 136.6,1.5151763481638607 136.7,1.5600164834420625 136.8,1.6047180490360495 136.9,1.6492770742942722 137.0,1.6936896012264622 137.1,1.7379516848551877 137.2,1.7820593935662448 137.3,1.826008809457936 137.4,1.8697960286890047 137.5,1.9134171618254567 137.6,1.9568683341860091 137.7,2.0001456861863263 137.8,2.0432453736817533 137.9,2.0861635683088315 138.0,2.1288964578253657 138.1,2.171440246449023 138.2,2.213791155194505 138.3,2.255945422209228 138.4,2.2978993031074473 138.5,2.339649071302864 138.6,2.381191018339698 138.7,2.422521454221982 138.8,2.463636707741463 138.9,2.504533126803552 139.0,2.5452070787518566 139.1,2.5856549506907833 139.2,2.6258731498064734 139.3,2.6658581036859506 139.4,2.7056062606343767 139.5,2.745114089990661 139.6,2.784378082440933 139.7,2.823394750330383 139.8,2.8621606279729574 139.9,2.9006722719592473 140.0,2.9389262614623632 140.1,2.9769191985417702 140.2,3.014647708445117 140.3,3.0521084399080105 140.4,3.0892980654516746 140.5,3.1262132816785195 140.6,3.1628508095656205 140.7,3.1992073947558812 140.8,3.2352798078472222 140.9,3.2710648446793034 141.0,3.306559326618255 141.1,3.3417601008389592 141.2,3.376664040605114 141.3,3.4112680455469846 141.4,3.445569041936749 141.5,3.4795639829615768 141.6,3.513249848994236 141.7,3.546623647861364 141.8,3.579682415109154 141.9,3.6124232142667516 142.0,3.644843137107064 142.1,3.676939303905078 142.2,3.7087088636936865 142.3,3.740148994516919 142.4,3.771256903680524 142.5,3.8020298280001574 142.6,3.83246503404675 142.7,3.8625598183893213 142.8,3.8923115078351196 142.9,3.9217174596670565 143.0,3.950775061878451 143.1,3.979481733405082 143.2,4.007834924354378 143.3,4.035832116232005 143.4,4.063470822165472 143.5,4.090748587125118 143.6,4.117662988142136 143.7,4.144211634523807 143.8,4.170392168065861 143.9,4.196202263261908 144.0,4.221639627510077 144.1,4.246702001316579 144.2,4.271387158496475 144.3,4.2956929063713645 144.4,4.319617085964177 144.5,4.343157572190956 144.6,4.366312274049599 144.7,4.3890791348056055 144.8,4.411456132174766 144.9,4.433441278502785 145.0,4.455032620941836 145.1,4.4762282416240575 145.2,4.497026257831849 145.3,4.517424822165175 145.4,4.537422122705585 145.5,4.557016383177225 145.6,4.576205863104585 145.7,4.5949888579671025 145.8,4.613363699350576 145.9,4.631328755095331 146.0,4.648882429441256 146.1,4.666023163169488 146.2,4.682749433740959 146.3,4.699059755431598 146.4,4.714952679464324 146.5,4.730426794137724 146.6,4.74548072495147 146.7,4.760113134728379 146.8,4.774322723733218 146.9,4.788108229788113 147.0,4.801468428384717 147.1,4.814402132792936 147.2,4.826908194166364 147.3,4.838985501644329 147.4,4.850632982450532 147.5,4.861849601988383 147.6,4.872634363932887 147.7,4.88298631031912 147.8,4.892904521627362 147.9,4.902388116864723 148.0,4.911436253643444 148.1,4.920048128255699 148.2,4.92822297574499 148.3,4.935960069974098 148.4,4.94325872368957 148.5,4.950118288582789 148.6,4.956538155347532 148.7,4.962517753734119 148.8,4.968056552600043 148.9,4.973154059957162 149.0,4.9778098230154 149.1,4.982023428222962 149.2,4.985794501303069 149.3,4.9891227072872075 149.4,4.992007750544875 149.5,4.994449374809849 149.6,4.996447363202946 149.7,4.998001538251282 149.8,4.999111761904046 149.9,4.999777935544749 150.0,5.0 150.1,4.999777935544749 150.2,4.999111761904046 150.3,4.998001538251283 150.4,4.996447363202947 150.5,4.99444937480985 150.6,4.992007750544875 150.7,4.9891227072872075 150.8,4.98579450130307 150.9,4.982023428222963 151.0,4.9778098230154 151.1,4.973154059957163 151.2,4.968056552600043 151.3,4.962517753734117 151.4,4.956538155347532 151.5,4.9501182885827895 151.6,4.943258723689571 151.7,4.935960069974098 151.8,4.928222975744989 151.9,4.920048128255696 152.0,4.911436253643445 152.1,4.902388116864724 152.2,4.892904521627363 152.3,4.8829863103191204 152.4,4.8726343639328835 152.5,4.861849601988382 152.6,4.850632982450533 152.7,4.83898550164433 152.8,4.826908194166366 152.9,4.814402132792938 153.0,4.801468428384713 153.1,4.788108229788113 153.2,4.77432272373322 153.3,4.760113134728381 153.4,4.745480724951472 153.5,4.730426794137726 153.6,4.714952679464323 153.7,4.6990597554316 153.8,4.682749433740962 153.9,4.66602316316949 154.0,4.648882429441259 154.1,4.631328755095333 154.2,4.613363699350578 154.3,4.594988857967105 154.4,4.576205863104587 154.5,4.557016383177227 154.6,4.537422122705586 154.7,4.517424822165178 154.8,4.497026257831852 154.9,4.47622824162406 155.0,4.4550326209418385 155.1,4.433441278502787 155.2,4.411456132174768 155.3,4.389079134805607 155.4,4.366312274049601 155.5,4.343157572190958 155.6,4.319617085964181 155.7,4.295692906371367 155.8,4.271387158496478 155.9,4.2467020013165815 156.0,4.221639627510081 156.1,4.1962022632619105 156.2,4.170392168065865 156.3,4.144211634523805 156.4,4.11766298814214 156.5,4.090748587125121 156.6,4.063470822165475 156.7,4.035832116232009 156.8,4.007834924354377 156.9,3.9794817334050743 157.0,3.9507750618784545 157.1,3.92171745966706 157.2,3.8923115078351236 157.3,3.8625598183893133 157.4,3.8324650340467477 157.5,3.802029828000149 157.6,3.771256903680527 157.7,3.740148994516923 157.8,3.7087088636936905 157.9,3.6769393039050757 158.0,3.644843137107056 158.1,3.6124232142667494 158.2,3.5796824151091706 158.3,3.5466236478613675 158.4,3.51324984899424 158.5,3.479563982961574 158.6,3.4455690419367406 158.7,3.411268045546989 158.8,3.376664040605118 158.9,3.341760100838963 159.0,3.3065593266182596 159.1,3.271064844679308 159.2,3.2352798078472262 159.3,3.1992073947558852 159.4,3.162850809565625 159.5,3.126213281678524 159.6,3.089298065451679 159.7,3.052108439908015 159.8,3.0146477084451213 159.9,2.9769191985417747 160.0,2.9389262614623677 160.1,2.9006722719592517 160.2,2.862160627972962 160.3,2.8233947503303876 160.4,2.7843780824409374 160.5,2.745114089990666 160.6,2.7056062606343816 160.7,2.665858103685955 160.8,2.6258731498064787 160.9,2.585654950690788 161.0,2.5452070787518615 161.1,2.504533126803557 161.2,2.463636707741468 161.3,2.422521454221987 161.4,2.381191018339703 161.5,2.339649071302869 161.6,2.297899303107452 161.7,2.2559454222092326 161.8,2.2137911551944938 161.9,2.171440246449028 162.0,2.1288964578253706 162.1,2.086163568308837 162.2,2.043245373681758 162.3,2.000145686186315 162.4,1.956868334186006 162.5,1.9134171618254618 162.6,1.8697960286890098 162.7,1.8260088094579576 162.8,1.7820593935662499 162.9,1.737951684855176 163.0,1.693689601226467 163.1,1.6492770742942775 163.2,1.6047180490360635 163.3,1.5600164834420678 163.4,1.515176348163866 163.5,1.470201626161519 163.6,1.4250963123498825 163.7,1.3798644132437332 163.8,1.3345099466018853 163.9,1.2890369410703097 164.0,1.2434494358242871 164.1,1.1977514802096254 164.2,1.151947133382972 164.3,1.1060404639512316 164.4,1.060035549610272 164.5,1.013936476782564 164.6,0.9677473402543059 164.7,0.921472242811674 164.8,0.8751152948763643 164.9,0.8286806141405855 165.0,0.7821723252011704 165.1,0.735594559193206 165.2,0.6889514534232035 165.3,0.6422471510015128 165.4,0.5954858004743501 165.5,0.5486715554552307 165.6,0.5018085742560817 165.7,0.4549010195178598 165.8,0.4079530578407743 165.9,0.36096885941429246 166.0,0.3139525976465593 166.1,0.2669084487937977 166.2,0.21984059158933167 166.3,0.17275320687236254 166.4,0.1256504772166915 166.5,0.07853658655911044 166.6,0.03141571982780474 166.7,-0.015707937429384897 166.8,-0.06283019941677383 166.9,-0.1099468804625334 167.0,-0.1570537953906464 167.1,-0.204146759892552 167.2,-0.2512215908988468 167.3,-0.29827410695084966 167.4,-0.3453001285720222 167.5,-0.392295478639215 167.6,-0.43925598275370326 167.7,-0.4861774696119811 167.8,-0.5330557713763076 167.9,-0.579886724044812 168.0,-0.6266661678215235 168.1,-0.6733899474857623 168.2,-0.7200539127612572 168.3,-0.7666539186847966 168.4,-0.8131858259744086 168.5,-0.8596455013970355 168.6,-0.9060288181356717 168.7,-0.9523316561559315 168.8,-0.9985499025720403 168.9,-1.044679452012061 169.0,-1.0907162069827123 169.1,-1.136656078233229 169.2,-1.1824949851186173 169.3,-1.2282288559621226 169.4,-1.273853628416899 169.5,-1.3193652498268498 169.6,-1.3647596775866089 169.7,-1.4100328795006356 169.8,-1.4551808341413701 169.9,-1.500199531206381 170.0,-1.5450849718747257 170.1,-1.589833169162049 170.2,-1.6344401482747122 170.3,-1.6789019469629254 170.4,-1.7232146158725965 170.5,-1.7673742188962691 170.6,-1.8113768335227174 170.7,-1.8552185511852495 170.8,-1.8988954776090057 170.9,-1.9424037331568198 171.0,-1.9857394531738979 171.1,-2.028898788331 171.2,-2.07187790496641 171.3,-2.114672985426527 171.4,-2.157280228404795 171.5,-2.199695849279581 171.6,-2.241916080450172 171.7,-2.283937171671482 171.8,-2.3257553903872816 171.9,-2.367367022061556 172.0,-2.4087683705085765 172.1,-2.449955758221173 172.2,-2.490925526697434 172.3,-2.531674036765663 172.4,-2.5721976689075374 172.5,-2.612492823579755 172.6,-2.6525559215336707 172.7,-2.6923834041332917 172.8,-2.731971733671341 172.9,-2.7713173936834714 173.0,-2.8104168892606434 173.1,-2.8492667473596 173.2,-2.8878635171113243 173.3,-2.9262037701275556 173.4,-2.964284100805306 173.5,-3.0021011266294204 173.6,-3.039651488473018 173.7,-3.0769318508958534 173.8,-3.1139389024405633 173.9,-3.150669355926837 174.0,-3.187119948743431 174.1,-3.2232874431379437 174.2,-3.2591686265043855 174.3,-3.294760311668594 174.4,-3.330059337171259 174.5,-3.3650625675488586 174.6,-3.3997668936120924 174.7,-3.434169232722042 174.8,-3.468266529064042 174.9,-3.5020557539190156 175.0,-3.535533905932726 175.1,-3.568698011382099 175.2,-3.6015451244395313 175.3,-3.634072327434515 175.4,-3.6662767311127933 175.5,-3.6981554748930456 175.6,-3.7297057271209115 175.7,-3.7609246853205502 175.8,-3.791809576443618 175.9,-3.8223576571154587 176.0,-3.85256621387894 176.1,-3.88243256343539 176.2,-3.9119540528829306 176.3,-3.9411280599521934 176.4,-3.969951993239174 176.5,-3.9984232924354535 176.6,-4.026539428555604 176.7,-4.054297904161855 176.8,-4.081696253585921 176.9,-4.108732043147956 177.0,-4.135402871372817 177.1,-4.161706369203318 177.2,-4.187640200210703 177.3,-4.213202060802159 177.4,-4.238389680425417 177.5,-4.263200821770456 177.6,-4.28763328096825 177.7,-4.3116848877865115 177.8,-4.335353505822454 177.9,-4.358637032692551 178.0,-4.381533400219319 178.1,-4.4040405746150135 178.2,-4.426156556662274 178.3,-4.44787938189169 178.4,-4.469207120756314 178.5,-4.490137878803068 178.6,-4.510669796841007 178.7,-4.530801051106445 178.8,-4.550529853424984 178.9,-4.569854451370307 179.0,-4.588773128419902 179.1,-4.607284204107491 179.2,-4.625386034172291 179.3,-4.643077010705083 179.4,-4.660355562291047 179.5,-4.677220154149332 179.6,-4.693669288269367 179.7,-4.709701503543952 179.8,-4.725315375899025 179.9,-4.740509518420158 180.0,-4.755282581475767 180.1,-4.769633252836968 180.2,-4.78356025779415 180.3,-4.797062359270218 180.4,-4.810138357930425 180.5,-4.822787092288988 180.6,-4.835007438812174 180.7,-4.846798312018143 180.8,-4.858158664573367 180.9,-4.869087487385643 181.0,-4.879583809693738 181.1,-4.889646699153608 181.2,-4.899275261921231 181.3,-4.908468642731995 181.4,-4.91722602497665 181.5,-4.925546630773872 181.6,-4.933429721039338 181.7,-4.940874595551401 181.8,-4.947880593013255 181.9,-4.954447091111694 182.0,-4.960573506572389 182.1,-4.966259295211694 182.2,-4.971503951984993 182.3,-4.976307011031543 182.4,-4.980668045715864 182.5,-4.98458666866564 182.6,-4.988062531806126 182.7,-4.991095326391059 182.8,-4.993684783030088 182.9,-4.9958306717127 183.0,-4.9975328018286564 183.1,-4.998791022184919 183.2,-4.99960522101908 183.3,-4.999975326009291 183.4,-4.9999013042806855 183.5,-4.999383162408303 183.6,-4.9984209464165 183.7,-4.997014741774865 183.8,-4.995164673390624 183.9,-4.99287090559755 184.0,-4.990133642141359 184.1,-4.986953126161619 184.2,-4.983329640170149 184.3,-4.979263506025928 184.4,-4.974755084906501 184.5,-4.969804777275899 184.6,-4.964413022849068 184.7,-4.958580300552815 184.8,-4.952307128483259 184.9,-4.9455940638598115 185.0,-4.93844170297569 185.1,-4.930850681144944 185.2,-4.922821672646029 185.3,-4.914355390661898 185.4,-4.905452587216671 185.5,-4.896114053108828 185.6,-4.886340617840969 185.7,-4.8761331495461215 185.8,-4.865492554910632 185.9,-4.854419779093656 186.0,-4.842915805643156 186.1,-4.830981656408577 186.2,-4.818618391450051 186.3,-4.80582710894426 186.4,-4.792608945086878 186.5,-4.778965073991653 186.6,-4.7648967075861 186.7,-4.750405095503863 186.8,-4.7354915249737175 186.9,-4.720157320705243 187.0,-4.704403844771125 187.1,-4.688232496486181 187.2,-4.671644712283067 187.3,-4.654641965584677 187.4,-4.637225766673309 187.5,-4.619397662556441 187.6,-4.601159236829357 187.7,-4.582512109534493 187.8,-4.563457937017507 187.9,-4.543998411780199 188.0,-4.524135262330101 188.1,-4.5038702530269905 188.2,-4.483205183926177 188.3,-4.462141890618593 188.4,-4.440682244067731 188.5,-4.418828150443473 188.6,-4.396581550952784 188.7,-4.3739444216672645 188.8,-4.350918773347626 188.9,-4.327506651265098 189.0,-4.303710135019719 189.1,-4.279531338355662 189.2,-4.254972408973463 189.3,-4.230035528339221 189.4,-4.204722911490852 189.5,-4.179036806841355 189.6,-4.152979495979063 189.7,-4.126553293465005 189.8,-4.099760546627265 189.9,-4.072603635352547 190.0,-4.045084971874734 190.1,-4.017207000560642 190.2,-3.988972197692866 190.3,-3.9603830712498427 190.4,-3.9314421606830985 190.5,-3.902152036691649 190.6,-3.872515300993677 190.7,-3.842534586095387 190.8,-3.8122125550572394 190.9,-3.781551901257356 191.0,-3.750555348152302 191.1,-3.7192256490351374 191.2,-3.6875655867908774 191.3,-3.655577973649313 191.4,-3.6232656509352212 191.5,-3.5906314888159523 191.6,-3.5576783860464314 191.7,-3.5244092697118194 191.8,-3.490827094967359 191.9,-3.456934844776036 192.0,-3.4227355296434565 192.1,-3.38823218735052 192.2,-3.3534278826836044 192.3,-3.318325707162279 192.4,-3.2829287787647776 192.5,-3.247240241650923 192.6,-3.2112632658829354 192.7,-3.1750010471438124 192.8,-3.1384568064535068 192.9,-3.101633789882794 193.0,-3.064535268264892 193.1,-3.0271645369050115 193.2,-2.989524915287594 193.3,-2.9516197467814678 193.4,-2.9134523983428853 193.5,-2.8750262602163925 193.6,-2.836344745633777 193.7,-2.7974112905108397 193.8,-2.7582293531421653 193.9,-2.718802413893972 194.0,-2.6791339748949876 194.1,-2.639227559725332 194.2,-2.5990867131035573 194.3,-2.558715000571729 194.4,-2.5181160081788034 194.5,-2.477293342162032 194.6,-2.436250628626666 194.7,-2.39499151322382 194.8,-2.3535196608266724 194.9,-2.3118387552049633 195.0,-2.2699524986977333 195.1,-2.2278646118844914 195.2,-2.1855788332546693 195.3,-2.1430989188756406 195.4,-2.100428642059025 195.5,-2.057571793025548 195.6,-2.0145321785683286 195.7,-1.9713136217147649 195.8,-1.927919961386987 195.9,-1.8843550520608123 196.0,-1.8406227634233998 196.1,-1.7967269800294576 196.2,-1.7526716009563106 196.3,-1.70846053945741 196.4,-1.6640977226149376 196.5,-1.6195870909907626 196.6,-1.5749325982765339 196.7,-1.530138210942508 196.8,-1.4852079078851563 196.9,-1.4401456800738388 197.0,-1.3949555301961505 197.1,-1.3496414723024974 197.2,-1.3042075314494948 197.3,-1.2586577433424897 197.4,-1.2129961539770528 197.5,-1.167226819279537 197.6,-1.12135380474691 197.7,-1.0753811850855652 197.8,-1.0293130438493994 197.9,-0.9831534730771045 198.0,-0.9369065729286215 198.1,-0.8905764513210432 198.2,-0.844167223563691 198.3,-0.7976830119924473 198.4,-0.7511279456037951 198.5,-0.7045061596879174 198.6,-0.6578217954614107 198.7,-0.6110789996994571 198.8,-0.5642819243674124 198.9,-0.5174347262521107 199.0,-0.47054156659256374 199.1,-0.42360661071037115 199.2,-0.3766340276396793 199.3,-0.32962798975689905 199.4,-0.2825926724101264 199.5,-0.23553225354821122 199.6,-0.1884509133496824 199.7,-0.14135283385137 199.8,-0.0942421985770387 199.9,-0.0471231921657119 200.0,-3.673940397442059e-15" stroke-width="1" stroke-linecap="round" stroke="#000000" fill="none"  />
<!-- Footer -->
</svg>
