<!-- Header -->
<svg
    version="1.1"
    baseProfile="full"
    xmlns="http://www.w3.org/2000/svg"
    xmlns:xlink="http://www.w3.org/1999/xlink"
    xmlns:ev="http://www.w3.org/2001/xml-events"
    width="410.0"
    height="20.0"
    viewBox="-5.0 -10.0 410.0 20.0"
    preserveAspectRatio="none"
>
<!-- Body -->
<!-- polyline -->
<polyline points="0.0,0.0 0.1,0.15705379539064146 0.2,0.31395259764656686 0.3,0.47054156659257157 0.4,0.6266661678215213 0.5,0.7821723252011543 0.6,0.936906572928623 0.7,1.0907162069827125 0.8,1.243449435824274 0.9,1.3949555301961465 1.0,1.545084971874737 1.1,1.693689601226457 1.2,1.8406227634233896 1.3,1.985739453173903 1.4,2.128896457825363 1.5,2.2699524986977337 1.6,2.4087683705085765 1.7,2.5452070787518566 1.8,2.679133974894983 1.9,2.8104168892606527 2.0,2.938926261462366 2.1,3.0645352682648825 2.2,3.1871199487434487 2.3,3.306559326618259 2.4,3.422735529643443 2.5,3.5355339059327373 2.6,3.644843137107058 2.7,3.7505553481522975 2.8,3.8525662138789456 2.9,3.9507750618784514 3.0,4.045084971874737 3.1,4.1354028713728095 3.2,4.221639627510076 3.3,4.303710135019719 3.4,4.381533400219318 3.5,4.455032620941839 3.6,4.524135262330098 3.7,4.588773128419906 3.8,4.648882429441256 3.9,4.704403844771127 4.0,4.755282581475767 4.1,4.801468428384715 4.2,4.842915805643155 4.3,4.879583809693737 4.4,4.911436253643443 4.5,4.938441702975689 4.6,4.960573506572389 4.7,4.9778098230154 4.8,4.990133642141358 4.9,4.997532801828658 5.0,5.0 5.1,4.997532801828658 5.2,4.990133642141358 5.3,4.9778098230154 5.4,4.9605735065723895 5.5,4.938441702975689 5.6,4.911436253643443 5.7,4.879583809693737 5.8,4.842915805643156 5.9,4.801468428384715 6.0,4.755282581475768 6.1,4.704403844771128 6.2,4.648882429441257 6.3,4.5887731284199065 6.4,4.524135262330097 6.5,4.455032620941839 6.6,4.381533400219317 6.7,4.303710135019719 6.8,4.221639627510076 6.9,4.135402871372809 7.0,4.045084971874737 7.1,3.9507750618784527 7.2,3.852566213878946 7.3,3.750555348152298 7.4,3.644843137107057 7.5,3.5355339059327395 7.6,3.422735529643444 7.7,3.306559326618259 7.8,3.187119948743449 7.9,3.0645352682648817 8.0,2.9389262614623664 8.1,2.810416889260654 8.2,2.679133974894985 8.3,2.545207078751857 8.4,2.408768370508576 8.5,2.2699524986977324 8.6,2.1288964578253626 8.7,1.9857394531739052 8.8,1.8406227634233887 8.9,1.6936896012264566 9.0,1.5450849718747375 9.1,1.3949555301961478 9.2,1.2434494358242763 9.3,1.0907162069827117 9.4,0.9369065729286229 9.5,0.7821723252011549 9.6,0.6266661678215226 9.7,0.47054156659257396 9.8,0.3139525976465657 9.9,0.15705379539064118 10.0,6.123233995736766e-16 10.1,-0.15705379539063996 10.2,-0.3139525976465645 10.3,-0.47054156659257496 10.4,-0.6266661678215214 10.5,-0.7821723252011537 10.6,-0.9369065729286195 10.7,-1.0907162069827103 10.8,-1.243449435824273 10.9,-1.3949555301961465 11.0,-1.5450849718747364 11.1,-1.6936896012264555 11.2,-1.8406227634233874 11.3,-1.9857394531739039 11.4,-2.1288964578253635 11.5,-2.269952498697731 11.6,-2.408768370508575 11.7,-2.5452070787518544 11.8,-2.6791339748949836 11.9,-2.8104168892606527 12.0,-2.938926261462365 12.1,-3.064535268264881 12.2,-3.1871199487434465 12.3,-3.3065593266182605 12.4,-3.422735529643442 12.5,-3.5355339059327373 12.6,-3.6448431371070567 12.7,-3.7505553481522975 12.8,-3.852566213878947 12.9,-3.950775061878452 13.0,-4.045084971874736 13.1,-4.135402871372808 13.2,-4.2216396275100765 13.3,-4.303710135019717 13.4,-4.381533400219318 13.5,-4.455032620941839 13.6,-4.5241352623300966 13.7,-4.588773128419905 13.8,-4.648882429441257 13.9,-4.704403844771127 14.0,-4.755282581475767 14.1,-4.801468428384716 14.2,-4.8429158056431545 14.3,-4.879583809693737 14.4,-4.911436253643443 14.5,-4.938441702975688 14.6,-4.960573506572389 14.7,-4.9778098230154 14.8,-4.990133642141358 14.9,-4.997532801828658 15.0,-5.0 15.1,-4.997532801828658 15.2,-4.990133642141358 15.3,-4.9778098230154 15.4,-4.9605735065723895 15.5,-4.938441702975689 15.6,-4.911436253643443 15.7,-4.879583809693738 15.8,-4.842915805643155 15.9,-4.801468428384716 16.0,-4.755282581475768 16.1,-4.704403844771127 16.2,-4.648882429441258 16.3,-4.588773128419906 16.4,-4.524135262330099 16.5,-4.455032620941838 16.6,-4.381533400219319 16.7,-4.303710135019717 16.8,-4.221639627510075 16.9,-4.135402871372811 17.0,-4.045084971874735 17.1,-3.950775061878453 17.2,-3.852566213878945 17.3,-3.7505553481522975 17.4,-3.6448431371070606 17.5,-3.5355339059327386 17.6,-3.4227355296434414 17.7,-3.3065593266182614 17.8,-3.1871199487434483 17.9,-3.0645352682648825 18.0,-2.938926261462367 18.1,-2.810416889260651 18.2,-2.6791339748949854 18.3,-2.545207078751852 18.4,-2.4087683705085805 18.5,-2.269952498697731 18.6,-2.128896457825361 18.7,-1.9857394531739059 18.8,-1.8406227634233894 18.9,-1.6936896012264613 19.0,-1.5450849718747381 19.1,-1.3949555301961438 19.2,-1.2434494358242767 19.3,-1.090716206982712 19.4,-0.9369065729286279 19.5,-0.7821723252011556 19.6,-0.626666167821519 19.7,-0.47054156659257895 19.8,-0.3139525976465663 19.9,-0.1570537953906418 20.0,-1.2246467991473533e-15 20.1,0.15705379539063935 20.2,0.3139525976465639 20.3,0.47054156659257657 20.4,0.6266661678215164 20.5,0.7821723252011487 20.6,0.9369065729286298 20.7,1.0907162069827097 20.8,1.2434494358242745 20.9,1.3949555301961458 21.0,1.545084971874736 21.1,1.693689601226459 21.2,1.840622763423383 21.3,1.9857394531739074 21.4,2.128896457825359 21.5,2.269952498697729 21.6,2.4087683705085743 21.7,2.545207078751858 21.8,2.679133974894983 21.9,2.810416889260649 22.0,2.9389262614623646 22.1,3.064535268264888 22.2,3.187119948743446 22.3,3.3065593266182565 22.4,3.4227355296434396 22.5,3.535533905932737 22.6,3.6448431371070593 22.7,3.7505553481522957 22.8,3.852566213878946 22.9,3.9507750618784514 23.0,4.045084971874734 23.1,4.135402871372808 23.2,4.221639627510074 23.3,4.303710135019716 23.4,4.381533400219316 23.5,4.45503262094184 23.6,4.524135262330098 23.7,4.588773128419905 23.8,4.648882429441257 23.9,4.704403844771125 24.0,4.755282581475767 24.1,4.801468428384715 24.2,4.8429158056431545 24.3,4.879583809693737 24.4,4.911436253643442 24.5,4.938441702975688 24.6,4.9605735065723895 24.7,4.9778098230154 24.8,4.990133642141358 24.9,4.997532801828658 25.0,5.0 25.1,4.997532801828658 25.2,4.990133642141358 25.3,4.9778098230153995 25.4,4.9605735065723895 25.5,4.938441702975688 25.6,4.911436253643443 25.7,4.879583809693739 25.8,4.842915805643155 25.9,4.801468428384718 26.0,4.755282581475768 26.1,4.704403844771125 26.2,4.648882429441258 26.3,4.588773128419907 26.4,4.5241352623300966 26.5,4.455032620941838 26.6,4.381533400219321 26.7,4.303710135019722 26.8,4.221639627510076 26.9,4.1354028713728095 27.0,4.045084971874738 27.1,3.950775061878453 27.2,3.8525662138789487 27.3,3.750555348152295 27.4,3.644843137107061 27.5,3.5355339059327417 27.6,3.422735529643442 27.7,3.3065593266182653 27.8,3.1871199487434487 27.9,3.064535268264883 28.0,2.938926261462367 28.1,2.8104168892606554 28.2,2.6791339748949783 28.3,2.5452070787518526 28.4,2.408768370508581 28.5,2.2699524986977395 28.6,2.1288964578253617 28.7,1.9857394531739023 28.8,1.8406227634233898 28.9,1.6936896012264577 29.0,1.545084971874739 29.1,1.3949555301961403 29.2,1.2434494358242774 29.3,1.0907162069827172 29.4,0.9369065729286284 29.5,0.7821723252011604 29.6,0.6266661678215195 29.7,0.47054156659257074 29.8,0.3139525976465669 29.9,0.15705379539065129 30.0,1.0718754395722281e-14 30.1,-0.1570537953906476 30.2,-0.31395259764656325 30.3,-0.47054156659256713 30.4,-0.6266661678215159 30.5,-0.7821723252011569 30.6,-0.9369065729286248 30.7,-1.0907162069827134 30.8,-1.2434494358242738 30.9,-1.3949555301961367 31.0,-1.5450849718747353 31.1,-1.6936896012264544 31.2,-1.8406227634233863 31.3,-1.985739453173899 31.4,-2.128896457825358 31.5,-2.2699524986977364 31.6,-2.408768370508578 31.7,-2.5452070787518495 31.8,-2.6791339748949756 31.9,-2.8104168892606523 32.0,-2.938926261462364 32.1,-3.0645352682648874 32.2,-3.1871199487434527 32.3,-3.306559326618256 32.4,-3.422735529643439 32.5,-3.5355339059327395 32.6,-3.644843137107059 32.7,-3.750555348152298 32.8,-3.8525662138789403 32.9,-3.950775061878451 33.0,-4.045084971874741 33.1,-4.135402871372812 33.2,-4.221639627510073 33.3,-4.303710135019716 33.4,-4.38153340021932 33.5,-4.45503262094184 33.6,-4.524135262330098 33.7,-4.588773128419906 33.8,-4.648882429441254 33.9,-4.704403844771124 34.0,-4.75528258147577 34.1,-4.801468428384715 34.2,-4.8429158056431545 34.3,-4.879583809693734 34.4,-4.911436253643444 34.5,-4.938441702975689 34.6,-4.9605735065723895 34.7,-4.9778098230154 34.8,-4.990133642141357 34.9,-4.997532801828658 35.0,-5.0 35.1,-4.997532801828658 35.2,-4.990133642141357 35.3,-4.9778098230154 35.4,-4.9605735065723895 35.5,-4.938441702975688 35.6,-4.911436253643443 35.7,-4.8795838096937345 35.8,-4.842915805643156 35.9,-4.801468428384716 36.0,-4.755282581475769 36.1,-4.704403844771125 36.2,-4.648882429441255 36.3,-4.588773128419907 36.4,-4.5241352623301 36.5,-4.455032620941842 36.6,-4.381533400219313 36.7,-4.303710135019713 36.8,-4.22163962751008 36.9,-4.1354028713728095 37.0,-4.045084971874734 37.1,-3.9507750618784483 37.2,-3.852566213878943 37.3,-3.7505553481523006 37.4,-3.6448431371070615 37.5,-3.535533905932742 37.6,-3.4227355296434423 37.7,-3.306559326618259 37.8,-3.187119948743456 37.9,-3.0645352682648905 38.0,-2.9389262614623672 38.1,-2.8104168892606483 38.2,-2.6791339748949787 38.3,-2.545207078751868 38.4,-2.4087683705085814 38.5,-2.269952498697732 38.6,-2.128896457825362 38.7,-1.9857394531739028 38.8,-1.8406227634233985 38.9,-1.6936896012264582 39.0,-1.5450849718747395 39.1,-1.3949555301961494 39.2,-1.2434494358242694 39.3,-1.0907162069827265 39.4,-0.9369065729286377 39.5,-0.7821723252011524 39.6,-0.6266661678215201 39.7,-0.4705415665925625 39.8,-0.3139525976465676 39.9,-0.15705379539064301 40.0,-2.4492935982947065e-15 40.1,0.15705379539063813 40.2,0.31395259764656264 40.3,0.47054156659255764 40.4,0.6266661678215152 40.5,0.7821723252011475 40.6,0.9369065729286329 40.7,1.0907162069827216 40.8,1.2434494358242647 40.9,1.3949555301961447 41.0,1.5450849718747262 41.1,1.6936896012264537 41.2,1.8406227634234025 41.3,1.9857394531738983 41.4,2.1288964578253577 41.5,2.2699524986977435 41.6,2.408768370508577 41.7,2.545207078751864 41.8,2.6791339748949823 41.9,2.810416889260644 42.0,2.9389262614623632 42.1,3.0645352682648728 42.2,3.187119948743452 42.3,3.306559326618255 42.4,3.4227355296434325 42.5,3.535533905932739 42.6,3.644843137107064 42.7,3.7505553481522975 42.8,3.8525662138789403 42.9,3.950775061878451 43.0,4.045084971874731 43.1,4.135402871372812 43.2,4.221639627510073 43.3,4.303710135019711 43.4,4.381533400219319 43.5,4.455032620941836 43.6,4.524135262330098 43.7,4.588773128419909 43.8,4.648882429441254 43.9,4.704403844771124 44.0,4.755282581475767 44.1,4.801468428384714 44.2,4.842915805643159 44.3,4.879583809693734 44.4,4.911436253643442 44.5,4.938441702975689 44.6,4.960573506572389 44.7,4.9778098230154 44.8,4.990133642141357 44.9,4.997532801828658 45.0,5.0 45.1,4.997532801828658 45.2,4.990133642141358 45.3,4.9778098230154 45.4,4.9605735065723895 45.5,4.93844170297569 45.6,4.911436253643443 45.7,4.879583809693739 45.8,4.842915805643156 45.9,4.801468428384716 46.0,4.755282581475772 46.1,4.704403844771125 46.2,4.648882429441259 46.3,4.588773128419908 46.4,4.524135262330101 46.5,4.455032620941843 46.6,4.381533400219322 46.7,4.303710135019713 46.8,4.221639627510081 46.9,4.135402871372815 47.0,4.045084971874734 47.1,3.9507750618784545 47.2,3.8525662138789434 47.3,3.750555348152301 47.4,3.6448431371070624 47.5,3.535533905932743 47.6,3.422735529643443 47.7,3.3065593266182596 47.8,3.1871199487434563 47.9,3.0645352682648914 48.0,2.9389262614623677 48.1,2.810416889260649 48.2,2.679133974894987 48.3,2.5452070787518615 48.4,2.4087683705085823 48.5,2.269952498697733 48.6,2.1288964578253626 48.7,1.9857394531739114 48.8,1.840622763423399 48.9,1.6936896012264588 49.0,1.54508497187474 49.1,1.39495553019615 49.2,1.24344943582427 49.3,1.090716206982727 49.4,0.9369065729286209 49.5,0.782172325201153 49.6,0.6266661678215295 49.7,0.4705415665925632 49.8,0.31395259764656813 49.9,0.15705379539064365 50.0,3.061616997868383e-15 50.1,-0.15705379539063752 50.2,-0.313952597646562 50.3,-0.47054156659257473 50.4,-0.6266661678215146 50.5,-0.7821723252011469 50.6,-0.9369065729286323 50.7,-1.0907162069827123 50.8,-1.2434494358242727 50.9,-1.3949555301961443 51.0,-1.5450849718747426 51.1,-1.6936896012264533 51.2,-1.8406227634233936 51.3,-1.9857394531738979 51.4,-2.1288964578253493 51.5,-2.269952498697727 51.6,-2.4087683705085765 51.7,-2.5452070787518637 51.8,-2.679133974894967 51.9,-2.8104168892606585 52.0,-2.938926261462363 52.1,-3.064535268264886 52.2,-3.187119948743459 52.3,-3.306559326618248 52.4,-3.4227355296434387 52.5,-3.5355339059327386 52.6,-3.6448431371070518 52.7,-3.7505553481522975 52.8,-3.8525662138789505 52.9,-3.9507750618784505 53.0,-4.045084971874741 53.1,-4.135402871372807 53.2,-4.2216396275100685 53.3,-4.303710135019715 53.4,-4.38153340021931 53.5,-4.455032620941836 53.6,-4.524135262330098 53.7,-4.588773128419909 53.8,-4.648882429441256 53.9,-4.70440384477113 54.0,-4.755282581475767 54.1,-4.8014684283847116 54.2,-4.8429158056431545 54.3,-4.879583809693734 54.4,-4.911436253643442 54.5,-4.938441702975686 54.6,-4.96057350657239 54.7,-4.9778098230154 54.8,-4.990133642141357 54.9,-4.997532801828657 55.0,-5.0 55.1,-4.997532801828658 55.2,-4.990133642141358 55.3,-4.9778098230154 55.4,-4.960573506572391 55.5,-4.9384417029756875 55.6,-4.911436253643443 55.7,-4.8795838096937345 55.8,-4.842915805643156 55.9,-4.801468428384719 56.0,-4.755282581475769 56.1,-4.704403844771125 56.2,-4.648882429441259 56.3,-4.588773128419912 56.4,-4.524135262330093 56.5,-4.455032620941839 56.6,-4.381533400219314 56.7,-4.303710135019719 56.8,-4.221639627510081 56.9,-4.135402871372811 57.0,-4.045084971874744 57.1,-3.9507750618784545 57.2,-3.8525662138789443 57.3,-3.7505553481523135 57.4,-3.6448431371070567 57.5,-3.5355339059327306 57.6,-3.4227355296434436 57.7,-3.3065593266182667 57.8,-3.18711994874345 57.9,-3.064535268264892 58.0,-2.9389262614623686 58.1,-2.8104168892606642 58.2,-2.679133974894973 58.3,-2.5452070787518544 58.4,-2.4087683705085827 58.5,-2.2699524986977333 58.6,-2.1288964578253715 58.7,-1.9857394531739039 58.8,-1.8406227634233998 58.9,-1.6936896012264593 59.0,-1.5450849718747488 59.1,-1.3949555301961336 59.2,-1.2434494358242705 59.3,-1.090716206982719 59.4,-0.9369065729286215 59.5,-0.7821723252011624 59.6,-0.6266661678215213 59.7,-0.47054156659256374 59.8,-0.3139525976465865 59.9,-0.15705379539065312 60.0,-2.1437508791444562e-14 60.1,0.1570537953906458 60.2,0.3139525976465791 60.3,0.4705415665925564 60.4,0.6266661678215141 60.5,0.782172325201155 60.6,0.9369065729286142 60.7,1.0907162069827117 60.8,1.2434494358242634 60.9,1.3949555301961265 61.0,1.545084971874742 61.1,1.6936896012264526 61.2,1.840622763423393 61.3,1.9857394531738972 61.4,2.128896457825365 61.5,2.2699524986977266 61.6,2.408768370508576 61.7,2.5452070787518477 61.8,2.6791339748949667 61.9,2.810416889260658 62.0,2.9389262614623624 62.1,3.0645352682648856 62.2,3.1871199487434443 62.3,3.3065593266182614 62.4,3.422735529643438 62.5,3.5355339059327258 62.6,3.644843137107051 62.7,3.7505553481523086 62.8,3.852566213878939 62.9,3.95077506187845 63.0,4.04508497187474 63.1,4.135402871372806 63.2,4.221639627510077 63.3,4.303710135019715 63.4,4.38153340021931 63.5,4.455032620941836 63.6,4.52413526233009 63.7,4.588773128419902 63.8,4.648882429441256 63.9,4.704403844771123 64.0,4.755282581475766 64.1,4.801468428384716 64.2,4.842915805643159 64.3,4.879583809693738 64.4,4.911436253643445 64.5,4.938441702975689 64.6,4.960573506572389 64.7,4.9778098230154 64.8,4.990133642141357 64.9,4.997532801828657 65.0,5.0 65.1,4.997532801828658 65.2,4.990133642141358 65.3,4.9778098230154 65.4,4.960573506572389 65.5,4.93844170297569 65.6,4.911436253643447 65.7,4.87958380969374 65.8,4.842915805643156 65.9,4.801468428384713 66.0,4.755282581475764 66.1,4.704403844771126 66.2,4.648882429441253 66.3,4.588773128419905 66.4,4.524135262330101 66.5,4.455032620941839 66.6,4.381533400219323 66.7,4.303710135019719 66.8,4.221639627510072 66.9,4.135402871372801 67.0,4.045084971874735 67.1,3.950775061878455 67.2,3.8525662138789443 67.3,3.7505553481523024 67.4,3.644843137107057 67.5,3.535533905932744 67.6,3.422735529643457 67.7,3.3065593266182534 67.8,3.1871199487434643 67.9,3.064535268264878 68.0,2.9389262614623544 68.1,2.8104168892606647 68.2,2.679133974894988 68.3,2.54520707875187 68.4,2.408768370508583 68.5,2.2699524986977337 68.6,2.128896457825388 68.7,1.9857394531738881 68.8,1.8406227634233838 68.9,1.6936896012264433 69.0,1.5450849718747328 69.1,1.3949555301961511 69.2,1.2434494358242711 69.3,1.0907162069827194 69.4,0.936906572928622 69.5,0.7821723252011453 69.6,0.6266661678215396 69.7,0.47054156659256435 69.8,0.31395259764656935 69.9,0.15705379539063596 70.0,4.2862637970157365e-15 70.1,-0.15705379539062742 70.2,-0.3139525976465608 70.3,-0.4705415665925558 70.4,-0.6266661678215311 70.5,-0.7821723252011369 70.6,-0.9369065729286137 70.7,-1.0907162069827285 70.8,-1.243449435824263 70.9,-1.394955530196143 71.0,-1.5450849718747415 71.1,-1.6936896012264353 71.2,-1.8406227634233923 71.3,-1.9857394531739128 71.4,-2.1288964578253804 71.5,-2.269952498697742 71.6,-2.4087683705085756 71.7,-2.545207078751863 71.8,-2.679133974894981 71.9,-2.810416889260657 72.0,-2.9389262614623624 72.1,-3.0645352682648714 72.2,-3.1871199487434576 72.3,-3.3065593266182476 72.4,-3.4227355296434503 72.5,-3.5355339059327378 72.6,-3.644843137107051 72.7,-3.750555348152296 72.8,-3.8525662138789385 72.9,-3.95077506187845 73.0,-4.045084971874729 73.1,-4.135402871372796 73.2,-4.221639627510086 73.3,-4.303710135019714 73.4,-4.381533400219327 73.5,-4.455032620941843 73.6,-4.5241352623300894 73.7,-4.588773128419908 73.8,-4.648882429441256 73.9,-4.704403844771129 74.0,-4.755282581475772 74.1,-4.8014684283847116 74.2,-4.842915805643159 74.3,-4.879583809693737 74.4,-4.911436253643445 74.5,-4.938441702975689 74.6,-4.960573506572388 74.7,-4.9778098230154 74.8,-4.990133642141357 74.9,-4.997532801828658 75.0,-5.0 75.1,-4.997532801828658 75.2,-4.990133642141358 75.3,-4.9778098230154 75.4,-4.960573506572389 75.5,-4.93844170297569 75.6,-4.911436253643447 75.7,-4.879583809693735 75.8,-4.842915805643161 75.9,-4.801468428384709 76.0,-4.755282581475769 76.1,-4.7044038447711385 76.2,-4.648882429441253 76.3,-4.588773128419913 76.4,-4.524135262330093 76.5,-4.455032620941839 76.6,-4.381533400219332 76.7,-4.303710135019711 76.8,-4.221639627510082 76.9,-4.1354028713728015 77.0,-4.045084971874735 77.1,-3.9507750618784554 77.2,-3.8525662138789447 77.3,-3.7505553481523024 77.4,-3.644843137107057 77.5,-3.535533905932744 77.6,-3.422735529643457 77.7,-3.3065593266182676 77.8,-3.187119948743451 77.9,-3.0645352682648785 78.0,-2.9389262614623695 78.1,-2.810416889260665 78.2,-2.679133974894989 78.3,-2.5452070787518704 78.4,-2.408768370508568 78.5,-2.26995249869775 78.6,-2.1288964578253884 78.7,-1.9857394531738888 78.8,-1.8406227634234174 78.9,-1.6936896012264437 79.0,-1.5450849718747333 79.1,-1.394955530196169 79.2,-1.2434494358242718 79.3,-1.09071620698272 79.4,-0.9369065729286052 79.5,-0.7821723252011635 79.6,-0.6266661678215225 79.7,-0.47054156659256496 79.8,-0.31395259764657 79.9,-0.1570537953906366 80.0,-4.898587196589413e-15 80.1,0.1570537953906268 80.2,0.3139525976465602 80.3,0.4705415665925552 80.4,0.6266661678215129 80.5,0.7821723252011539 80.6,0.9369065729285957 80.7,1.0907162069827105 80.8,1.2434494358242623 80.9,1.3949555301961594 81.0,1.545084971874724 81.1,1.6936896012264346 81.2,1.8406227634234082 81.3,1.98573945317388 81.4,2.1288964578253795 81.5,2.2699524986977098 81.6,2.408768370508559 81.7,2.5452070787518624 81.8,2.6791339748949805 81.9,2.8104168892606425 82.0,2.9389262614623473 82.1,3.064535268264857 82.2,3.187119948743443 82.3,3.3065593266182605 82.4,3.422735529643463 82.5,3.5355339059327244 82.6,3.6448431371070504 82.7,3.750555348152296 82.8,3.8525662138789385 82.9,3.9507750618784603 83.0,4.04508497187475 83.1,4.135402871372796 83.2,4.2216396275100765 83.3,4.3037101350197045 83.4,4.381533400219327 83.5,4.455032620941843 83.6,4.5241352623300966 83.7,4.588773128419901 83.8,4.648882429441249 83.9,4.704403844771135 84.0,4.755282581475766 84.1,4.801468428384716 84.2,4.842915805643149 84.3,4.879583809693734 84.4,4.911436253643445 84.5,4.938441702975688 84.6,4.960573506572388 84.7,4.977809823015399 84.8,4.990133642141356 84.9,4.997532801828657 85.0,5.0 85.1,4.997532801828658 85.2,4.990133642141357 85.3,4.9778098230154 85.4,4.9605735065723895 85.5,4.93844170297569 85.6,4.911436253643447 85.7,4.879583809693732 85.8,4.842915805643156 85.9,4.801468428384714 86.0,4.755282581475775 86.1,4.704403844771132 86.2,4.648882429441253 86.3,4.588773128419906 86.4,4.524135262330101 86.5,4.455032620941848 86.6,4.381533400219332 86.7,4.3037101350197196 86.8,4.221639627510073 86.9,4.135402871372822 87.0,4.045084971874745 87.1,3.950775061878456 87.2,3.852566213878945 87.3,3.750555348152303 87.4,3.6448431371070455 87.5,3.5355339059327573 87.6,3.4227355296434574 87.7,3.3065593266182547 87.8,3.1871199487434647 87.9,3.064535268264865 88.0,2.9389262614623703 88.1,2.8104168892606656 88.2,2.6791339748949894 88.3,2.5452070787518712 88.4,2.408768370508553 88.5,2.2699524986977346 88.6,2.1288964578253893 88.7,1.985739453173922 88.8,1.8406227634234016 88.9,1.6936896012264444 89.0,1.545084971874734 89.1,1.3949555301961525 89.2,1.2434494358242896 89.3,1.090716206982738 89.4,0.9369065729286232 89.5,0.7821723252011465 89.6,0.6266661678215407 89.7,0.4705415665925833 89.8,0.31395259764657063 89.9,0.15705379539063719 90.0,5.5109105961630896e-15 90.1,-0.1570537953906262 90.2,-0.3139525976465419 90.3,-0.47054156659255464 90.4,-0.62666616782153 90.5,-0.7821723252011358 90.6,-0.9369065729286125 90.7,-1.0907162069827272 90.8,-1.2434494358242616 90.9,-1.3949555301961416 91.0,-1.5450849718747235 91.1,-1.693689601226434 91.2,-1.8406227634233914 91.3,-1.9857394531739117 91.4,-2.128896457825347 91.5,-2.2699524986977253 91.6,-2.4087683705085747 91.7,-2.5452070787518615 91.8,-2.67913397489498 91.9,-2.810416889260642 92.0,-2.938926261462347 92.1,-3.06453526826487 92.2,-3.1871199487434563 92.3,-3.3065593266182463 92.4,-3.4227355296434365 92.5,-3.535533905932737 92.6,-3.64484313710705 92.7,-3.7505553481522957 92.8,-3.852566213878938 92.9,-3.950775061878471 93.0,-4.045084971874728 93.1,-4.135402871372795 93.2,-4.221639627510067 93.3,-4.303710135019713 93.4,-4.381533400219326 93.5,-4.455032620941843 93.6,-4.5241352623300894 93.7,-4.5887731284199 93.8,-4.648882429441249 93.9,-4.704403844771129 94.0,-4.755282581475772 94.1,-4.801468428384711 94.2,-4.842915805643154 94.3,-4.879583809693737 94.4,-4.911436253643445 94.5,-4.938441702975688 94.6,-4.960573506572388 94.7,-4.977809823015399 94.8,-4.990133642141357 94.9,-4.997532801828658 95.0,-5.0 95.1,-4.997532801828658 95.2,-4.990133642141358 95.3,-4.977809823015401 95.4,-4.9605735065723895 95.5,-4.93844170297569 95.6,-4.911436253643447 95.7,-4.879583809693735 95.8,-4.842915805643161 95.9,-4.8014684283847195 96.0,-4.75528258147577 96.1,-4.704403844771127 96.2,-4.648882429441254 96.3,-4.588773128419913 96.4,-4.524135262330102 96.5,-4.455032620941848 96.6,-4.381533400219324 96.7,-4.303710135019711 96.8,-4.221639627510083 96.9,-4.135402871372812 97.0,-4.0450849718747355 97.1,-3.950775061878456 97.2,-3.8525662138789456 97.3,-3.7505553481523037 97.4,-3.64484313710707 97.5,-3.535533905932745 97.6,-3.4227355296434583 97.7,-3.3065593266182685 97.8,-3.187119948743452 97.9,-3.06453526826488 98.0,-2.938926261462371 98.1,-2.810416889260666 98.2,-2.67913397489499 98.3,-2.5452070787518717 98.4,-2.408768370508569 98.5,-2.269952498697751 98.6,-2.1288964578253897 98.7,-1.985739453173906 98.8,-1.8406227634233854 98.9,-1.693689601226445 99.0,-1.5450849718747346 99.1,-1.39495553019617 99.2,-1.2434494358242902 99.3,-1.0907162069827212 99.4,-0.9369065729286065 99.5,-0.7821723252011648 99.6,-0.6266661678215237 99.7,-0.47054156659256613 99.8,-0.31395259764657124 99.9,-0.15705379539063782 100.0,-6.123233995736766e-15 100.1,0.15705379539062558 100.2,0.313952597646559 100.3,0.470541566592554 100.4,0.6266661678215115 100.5,0.7821723252011527 100.6,0.9369065729286292 100.7,1.0907162069827094 100.8,1.2434494358242612 100.9,1.3949555301961412 101.0,1.5450849718747228 101.1,1.6936896012264502 101.2,1.8406227634234071 101.3,1.9857394531738786 101.4,2.1288964578253626 101.5,2.2699524986977404 101.6,2.4087683705085743 101.7,2.545207078751861 101.8,2.679133974894979 101.9,2.810416889260626 102.0,2.9389262614623752 102.1,3.0645352682648697 102.2,3.1871199487434425 102.3,3.306559326618259 102.4,3.4227355296434494 102.5,3.535533905932724 102.6,3.64484313710705 102.7,3.7505553481522953 102.8,3.8525662138789265 102.9,3.9507750618784594 103.0,4.045084971874728 103.1,4.135402871372805 103.2,4.221639627510076 103.3,4.303710135019722 103.4,4.381533400219326 103.5,4.455032620941834 103.6,4.5241352623300815 103.7,4.588773128419893 103.8,4.648882429441262 103.9,4.704403844771134 104.0,4.755282581475766 104.1,4.801468428384706 104.2,4.842915805643158 104.3,4.879583809693734 104.4,4.911436253643448 104.5,4.938441702975688 104.6,4.960573506572386 104.7,4.977809823015401 104.8,4.990133642141357 104.9,4.997532801828657 105.0,5.0 105.1,4.997532801828657 105.2,4.990133642141359 105.3,4.977809823015401 105.4,4.9605735065723895 105.5,4.938441702975693 105.6,4.911436253643441 105.7,4.87958380969374 105.8,4.842915805643157 105.9,4.801468428384714 106.0,4.755282581475765 106.1,4.704403844771133 106.2,4.64888242944126 106.3,4.58877312841992 106.4,4.52413526233011 106.5,4.455032620941832 106.6,4.381533400219324 106.7,4.30371013501972 106.8,4.221639627510092 106.9,4.135402871372802 107.0,4.045084971874746 107.1,3.9507750618784563 107.2,3.8525662138789456 107.3,3.7505553481523157 107.4,3.644843137107046 107.5,3.5355339059327457 107.6,3.422735529643446 107.7,3.306559326618256 107.8,3.1871199487434385 107.9,3.064535268264894 108.0,2.9389262614623712 108.1,2.810416889260681 108.2,2.679133974895005 108.3,2.5452070787518415 108.4,2.4087683705085854 108.5,2.269952498697736 108.6,2.12889645782539 108.7,1.9857394531738903 108.8,1.8406227634234027 108.9,1.6936896012264289 109.0,1.5450849718747688 109.1,1.3949555301961705 109.2,1.2434494358242563 109.3,1.0907162069827219 109.4,0.9369065729286246 109.5,0.7821723252011479 109.6,0.6266661678215419 109.7,0.47054156659258445 109.8,0.3139525976465718 109.9,0.15705379539063843 110.0,2.4499125789312944e-14 110.1,-0.15705379539066047 110.2,-0.3139525976465584 110.3,-0.47054156659257107 110.4,-0.6266661678215286 110.5,-0.7821723252011696 110.6,-0.9369065729286112 110.7,-1.0907162069827088 110.8,-1.2434494358242434 110.9,-1.3949555301961236 111.0,-1.5450849718747561 111.1,-1.6936896012264495 111.2,-1.84062276342339 111.3,-1.9857394531738781 111.4,-2.128896457825378 111.5,-2.269952498697724 111.6,-2.4087683705085734 111.7,-2.5452070787518606 111.8,-2.679133974894964 111.9,-2.81041688926067 112.0,-2.93892626146236 112.1,-3.0645352682648834 112.2,-3.1871199487434554 112.3,-3.306559326618246 112.4,-3.422735529643436 112.5,-3.5355339059327355 112.6,-3.644843137107037 112.7,-3.7505553481522833 112.8,-3.8525662138789594 112.9,-3.9507750618784483 113.0,-4.045084971874738 113.1,-4.135402871372794 113.2,-4.2216396275100845 113.3,-4.303710135019713 113.4,-4.381533400219317 113.5,-4.455032620941826 113.6,-4.524135262330089 113.7,-4.5887731284199145 113.8,-4.648882429441255 113.9,-4.704403844771129 114.0,-4.75528258147576 114.1,-4.801468428384711 114.2,-4.842915805643154 114.3,-4.879583809693736 114.4,-4.911436253643445 114.5,-4.938441702975686 114.6,-4.960573506572383 114.7,-4.9778098230153995 114.8,-4.990133642141358 114.9,-4.997532801828658 115.0,-5.0 115.1,-4.997532801828659 115.2,-4.990133642141358 115.3,-4.977809823015403 115.4,-4.960573506572391 115.5,-4.938441702975685 115.6,-4.911436253643444 115.7,-4.879583809693736 115.8,-4.842915805643162 115.9,-4.80146842838471 116.0,-4.75528258147577 116.1,-4.704403844771127 116.2,-4.648882429441267 116.3,-4.588773128419913 116.4,-4.524135262330088 116.5,-4.45503262094184 116.6,-4.381533400219316 116.7,-4.303710135019729 116.8,-4.221639627510083 116.9,-4.135402871372812 117.0,-4.045084971874736 117.1,-3.950775061878468 117.2,-3.8525662138789576 117.3,-3.7505553481523277 117.4,-3.644843137107059 117.5,-3.5355339059327333 117.6,-3.422735529643459 117.7,-3.3065593266182427 117.8,-3.1871199487434527 117.9,-3.0645352682648803 118.0,-2.9389262614623854 118.1,-2.810416889260667 118.2,-2.6791339748949605 118.3,-2.545207078751857 118.4,-2.4087683705085703 118.5,-2.2699524986977524 118.6,-2.1288964578253746 118.7,-1.9857394531739072 118.8,-1.8406227634233865 118.9,-1.6936896012264797 119.0,-1.5450849718747526 119.1,-1.3949555301961882 119.2,-1.243449435824274 119.3,-1.0907162069827052 119.4,-0.9369065729286076 119.5,-0.782172325201166 119.6,-0.6266661678215601 119.7,-0.4705415665925674 119.8,-0.31395259764659017 119.9,-0.15705379539065678 120.0,-4.2875017582889124e-14 120.1,0.15705379539064213 120.2,0.31395259764657546 120.3,0.47054156659255275 120.4,0.6266661678215456 120.5,0.7821723252011514 120.6,0.9369065729285931 120.7,1.0907162069826908 120.8,1.24344943582426 120.9,1.394955530196174 121.0,1.5450849718747386 121.1,1.6936896012264657 121.2,1.840622763423373 121.3,1.9857394531738937 121.4,2.1288964578253613 121.5,2.269952498697739 121.6,2.4087683705085574 121.7,2.545207078751845 121.8,2.679133974894948 121.9,2.8104168892606554 122.0,2.938926261462374 122.1,3.0645352682648683 122.2,3.1871199487434416 122.3,3.306559326618232 122.4,3.422735529643448 122.5,3.5355339059327227 122.6,3.644843137107049 122.7,3.750555348152318 122.8,3.852566213878948 122.9,3.950775061878459 123.0,4.0450849718747275 123.1,4.135402871372804 123.2,4.221639627510076 123.3,4.303710135019722 123.4,4.3815334002193085 123.5,4.455032620941834 123.6,4.524135262330081 123.7,4.588773128419907 123.8,4.648882429441262 123.9,4.7044038447711225 124.0,4.7552825814757655 124.1,4.801468428384705 124.2,4.842915805643157 124.3,4.879583809693733 124.4,4.9114362536434415 124.5,4.938441702975683 124.6,4.9605735065723895 124.7,4.977809823015401 124.8,4.990133642141357 124.9,4.997532801828658 125.0,5.0 125.1,4.997532801828658 125.2,4.990133642141359 125.3,4.977809823015401 125.4,4.960573506572385 125.5,4.9384417029756875 125.6,4.911436253643448 125.7,4.87958380969374 125.8,4.842915805643157 125.9,4.801468428384715 126.0,4.755282581475765 126.1,4.704403844771133 126.2,4.648882429441261 126.3,4.588773128419921 126.4,4.524135262330095 126.5,4.455032620941833 126.6,4.381533400219324 126.7,4.303710135019721 126.8,4.221639627510093 126.9,4.135402871372803 127.0,4.045084971874747 127.1,3.950775061878457 127.2,3.852566213878969 127.3,3.750555348152293 127.4,3.6448431371070718 127.5,3.5355339059327213 127.6,3.4227355296434463 127.7,3.3065593266182565 127.8,3.187119948743467 127.9,3.064535268264867 128.0,2.9389262614623717 128.1,2.8104168892606527 128.2,2.679133974894976 128.3,2.545207078751873 128.4,2.408768370508555 128.5,2.2699524986977373 128.6,2.128896457825359 128.7,1.9857394531739243 128.8,1.8406227634233707 128.9,1.6936896012264635 129.0,1.5450849718747361 129.1,1.3949555301961378 129.2,1.2434494358242918 129.3,1.0907162069826883 129.4,0.9369065729286257 129.5,0.7821723252011491 129.6,0.6266661678215433 129.7,0.4705415665925857 129.8,0.313952597646573 129.9,0.15705379539063966 130.0,-9.803364199544707e-15 130.1,-0.15705379539062372 130.2,-0.3139525976465217 130.3,-0.47054156659256985 130.4,-0.6266661678215274 130.5,-0.7821723252011332 130.6,-0.9369065729286101 130.7,-1.0907162069826728 130.8,-1.2434494358242765 130.9,-1.3949555301961563 131.0,-1.5450849718747213 131.1,-1.6936896012264153 131.2,-1.840622763423356 131.3,-1.9857394531739094 131.4,-2.128896457825345 131.5,-2.2699524986977546 131.6,-2.4087683705085725 131.7,-2.5452070787518286 131.8,-2.6791339748949925 131.9,-2.8104168892606394 132.0,-2.938926261462388 132.1,-3.0645352682648825 132.2,-3.187119948743455 132.3,-3.3065593266182445 132.4,-3.422735529643461 132.5,-3.535533905932735 132.6,-3.6448431371070606 132.7,-3.7505553481523055 132.8,-3.8525662138789363 132.9,-3.950775061878469 133.0,-4.045084971874737 133.1,-4.135402871372814 133.2,-4.221639627510065 133.3,-4.303710135019731 133.4,-4.3815334002193165 133.5,-4.455032620941842 133.6,-4.524135262330104 133.7,-4.5887731284199 133.8,-4.648882429441268 133.9,-4.704403844771128 134.0,-4.755282581475771 134.1,-4.801468428384711 134.2,-4.842915805643154 134.3,-4.879583809693736 134.4,-4.911436253643445 134.5,-4.938441702975691 134.6,-4.960573506572388 134.7,-4.977809823015396 134.8,-4.990133642141358 134.9,-4.997532801828658 135.0,-5.0 135.1,-4.997532801828658 135.2,-4.99013364214136 135.3,-4.9778098230153995 135.4,-4.960573506572387 135.5,-4.93844170297569 135.6,-4.911436253643451 135.7,-4.879583809693743 135.8,-4.842915805643153 135.9,-4.8014684283847195 136.0,-4.755282581475759 136.1,-4.704403844771139 136.2,-4.648882429441267 136.3,-4.588773128419899 136.4,-4.524135262330103 136.5,-4.455032620941825 136.6,-4.3815334002193325 136.7,-4.30371013501973 136.8,-4.221639627510084 136.9,-4.1354028713727935 137.0,-4.045084971874736 137.1,-3.9507750618784465 137.2,-3.8525662138789807 137.3,-3.750555348152305 137.4,-3.644843137107036 137.5,-3.535533905932734 137.6,-3.4227355296434343 137.7,-3.3065593266182702 137.8,-3.1871199487434265 137.9,-3.064535268264881 138.0,-2.938926261462358 138.1,-2.8104168892606385 138.2,-2.6791339748949916 138.3,-2.5452070787518277 138.4,-2.408768370508571 138.5,-2.2699524986977218 138.6,-2.128896457825376 138.7,-1.9857394531739083 138.8,-1.8406227634233876 138.9,-1.6936896012264473 139.0,-1.5450849718747197 139.1,-1.3949555301961554 139.2,-1.2434494358243098 139.3,-1.0907162069827063 139.4,-0.9369065729286088 139.5,-0.7821723252011671 139.6,-0.6266661678215262 139.7,-0.47054156659260393 139.8,-0.3139525976465559 139.9,-0.15705379539062253 140.0,-8.572527594031473e-15 140.1,0.15705379539060538 140.2,0.3139525976465388 140.3,0.4705415665925869 140.4,0.6266661678215092 140.5,0.7821723252011502 140.6,0.936906572928592 140.7,1.0907162069826897 140.8,1.2434494358242931 140.9,1.394955530196139 141.0,1.5450849718747037 141.1,1.6936896012264313 141.2,1.8406227634233718 141.3,1.9857394531738926 141.4,2.1288964578253924 141.5,2.269952498697738 141.6,2.4087683705085565 141.7,2.5452070787518135 141.8,2.6791339748949774 141.9,2.8104168892606833 142.0,2.938926261462373 142.1,3.064535268264896 142.2,3.187119948743413 142.3,3.306559326618284 142.4,3.4227355296434476 142.5,3.5355339059327475 142.6,3.644843137107072 142.7,3.7505553481522935 142.8,3.85256621387897 142.9,3.9507750618784576 143.0,4.045084971874748 143.1,4.135402871372803 143.2,4.221639627510074 143.3,4.303710135019721 143.4,4.3815334002193245 143.5,4.455032620941849 143.6,4.524135262330096 143.7,4.588773128419893 143.8,4.648882429441262 143.9,4.704403844771134 144.0,4.755282581475765 144.1,4.801468428384715 144.2,4.842915805643148 144.3,4.879583809693741 144.4,4.911436253643448 144.5,4.9384417029756875 144.6,4.960573506572385 144.7,4.977809823015398 144.8,4.990133642141359 144.9,4.997532801828657 145.0,5.0 145.1,4.997532801828658 145.2,4.990133642141359 145.3,4.977809823015398 145.4,4.9605735065723895 145.5,4.938441702975693 145.6,4.911436253643448 145.7,4.879583809693741 145.8,4.842915805643157 145.9,4.801468428384715 146.0,4.755282581475776 146.1,4.704403844771134 146.2,4.648882429441274 146.3,4.5887731284199065 146.4,4.524135262330081 146.5,4.455032620941849 146.6,4.3815334002193245 146.7,4.303710135019739 146.8,4.221639627510055 146.9,4.135402871372803 147.0,4.045084971874727 147.1,3.95077506187848 147.2,3.85256621387897 147.3,3.75055534815227 147.4,3.6448431371070478 147.5,3.5355339059327218 147.6,3.4227355296434476 147.7,3.3065593266183106 147.8,3.1871199487434403 147.9,3.064535268264868 148.0,2.938926261462344 148.1,2.810416889260654 148.2,2.679133974895007 148.3,2.5452070787518437 148.4,2.4087683705085565 148.5,2.269952498697738 148.6,2.1288964578253604 148.7,1.9857394531739252 148.8,1.8406227634233718 148.9,1.6936896012264313 149.0,1.5450849718747373 149.1,1.3949555301961731 149.2,1.2434494358242931 149.3,1.0907162069826897 149.4,0.9369065729286269 149.5,0.7821723252011502 149.6,0.6266661678215445 149.7,0.4705415665925869 149.8,0.3139525976465388 149.9,0.15705379539064088 150.0,2.6948419387607653e-14 150.1,-0.15705379539062253 150.2,-0.3139525976465559 150.3,-0.4705415665925686 150.4,-0.6266661678215262 150.5,-0.7821723252011321 150.6,-0.9369065729286088 150.7,-1.0907162069826717 150.8,-1.2434494358242754 150.9,-1.3949555301961212 151.0,-1.5450849718747197 151.1,-1.6936896012264473 151.2,-1.8406227634233545 151.3,-1.9857394531739412 151.4,-2.128896457825376 151.5,-2.2699524986977218 151.6,-2.40876837050854 151.7,-2.5452070787518277 151.8,-2.679133974895022 151.9,-2.810416889260668 152.0,-2.938926261462358 152.1,-3.0645352682648537 152.2,-3.1871199487433985 152.3,-3.3065593266182702 152.4,-3.4227355296434596 152.5,-3.535533905932759 152.6,-3.644843137107036 152.7,-3.750555348152258 152.8,-3.8525662138789585 152.9,-3.9507750618784683 153.0,-4.045084971874736 153.1,-4.135402871372813 153.2,-4.221639627510045 153.3,-4.30371013501973 153.4,-4.3815334002193325 153.5,-4.455032620941841 153.6,-4.524135262330088 153.7,-4.588773128419899 153.8,-4.648882429441267 153.9,-4.704403844771127 154.0,-4.75528258147577 154.1,-4.80146842838471 154.2,-4.842915805643153 154.3,-4.879583809693743 154.4,-4.911436253643444 154.5,-4.938441702975685 154.6,-4.960573506572387 154.7,-4.9778098230153995 154.8,-4.990133642141358 154.9,-4.997532801828658 155.0,-5.0 155.1,-4.997532801828658 155.2,-4.99013364214136 155.3,-4.9778098230153995 155.4,-4.960573506572392 155.5,-4.938441702975691 155.6,-4.911436253643445 155.7,-4.879583809693744 155.8,-4.842915805643154 155.9,-4.80146842838472 156.0,-4.755282581475771 156.1,-4.70440384477114 156.2,-4.648882429441268 156.3,-4.588773128419886 156.4,-4.524135262330104 156.5,-4.455032620941842 156.6,-4.381533400219333 156.7,-4.303710135019749 156.8,-4.221639627510065 156.9,-4.135402871372794 157.0,-4.045084971874759 157.1,-3.950775061878469 157.2,-3.8525662138789816 157.3,-3.7505553481522824 157.4,-3.6448431371070362 157.5,-3.535533905932735 157.6,-3.4227355296434867 157.7,-3.3065593266182978 157.8,-3.187119948743427 157.9,-3.064535268264854 158.0,-2.938926261462359 158.1,-2.810416889260669 158.2,-2.6791339748950227 158.3,-2.5452070787518286 158.4,-2.4087683705085725 158.5,-2.269952498697723 158.6,-2.128896457825377 158.7,-1.9857394531739094 158.8,-1.840622763423356 158.9,-1.6936896012264486 159.0,-1.5450849718747548 159.1,-1.3949555301961563 159.2,-1.2434494358242765 159.3,-1.0907162069827074 159.4,-0.9369065729286101 159.5,-0.7821723252011683 159.6,-0.6266661678215274 159.7,-0.4705415665926052 159.8,-0.31395259764655714 159.9,-0.15705379539065925 160.0,-9.797174393178826e-15 160.1,0.15705379539063966 160.2,0.3139525976465376 160.3,0.4705415665925857 160.4,0.626666167821508 160.5,0.7821723252011491 160.6,0.9369065729285908 160.7,1.0907162069826883 160.8,1.2434494358242574 160.9,1.3949555301961378 161.0,1.5450849718747361 161.1,1.6936896012264302 161.2,1.8406227634233376 161.3,1.9857394531738914 161.4,2.128896457825359 161.5,2.2699524986977053 161.6,2.408768370508555 161.7,2.545207078751812 161.8,2.679133974895006 161.9,2.8104168892606527 162.0,2.9389262614623437 162.1,3.0645352682648386 162.2,3.187119948743412 162.3,3.306559326618283 162.4,3.4227355296434725 162.5,3.5355339059327213 162.6,3.644843137107023 162.7,3.750555348152269 162.8,3.852566213878969 162.9,3.950775061878457 163.0,4.045084971874705 163.1,4.135402871372783 163.2,4.221639627510055 163.3,4.303710135019739 163.4,4.381533400219324 163.5,4.455032620941833 163.6,4.524135262330095 163.7,4.5887731284199065 163.8,4.648882429441247 163.9,4.704403844771109 164.0,4.755282581475754 164.1,4.8014684283847044 164.2,4.842915805643139 164.3,4.87958380969374 164.4,4.911436253643441 164.5,4.9384417029756875 164.6,4.9605735065723895 164.7,4.977809823015398 164.8,4.990133642141361 164.9,4.997532801828658 165.0,5.0 165.1,4.99753280182866 165.2,4.990133642141359 165.3,4.977809823015401 165.4,4.9605735065723895 165.5,4.938441702975688 165.6,4.911436253643448 165.7,4.879583809693749 165.8,4.842915805643148 165.9,4.801468428384705 166.0,4.755282581475754 166.1,4.7044038447711225 166.2,4.648882429441274 166.3,4.588773128419907 166.4,4.5241352623300966 166.5,4.45503262094185 166.6,4.381533400219342 166.7,4.30371013501974 166.8,4.221639627510056 166.9,4.135402871372785 167.0,4.0450849718747275 167.1,3.950775061878459 167.2,3.852566213878948 167.3,3.750555348152295 167.4,3.644843137107073 167.5,3.535533905932773 167.6,3.4227355296434743 167.7,3.3065593266182853 167.8,3.1871199487434145 167.9,3.0645352682648683 168.0,2.938926261462374 168.1,2.8104168892606554 168.2,2.6791339748949783 168.3,2.5452070787518757 168.4,2.4087683705086196 168.5,2.269952498697771 168.6,2.1288964578253937 168.7,1.985739453173959 168.8,1.840622763423373 168.9,1.6936896012264657 169.0,1.5450849718747386 169.1,1.39495553019614 169.2,1.2434494358242942 169.3,1.09071620698276 169.4,0.936906572928663 169.5,0.7821723252011865 169.6,0.6266661678215808 169.7,0.47054156659258817 169.8,0.31395259764657546 169.9,0.15705379539064213 170.0,-7.354070601250003e-15 170.1,-0.1570537953906213 170.2,-0.3139525976465193 170.3,-0.47054156659260277 170.4,-0.6266661678215603 170.5,-0.7821723252010958 170.6,-0.9369065729286076 170.7,-1.0907162069826706 170.8,-1.243449435824274 170.9,-1.394955530196154 171.0,-1.5450849718747186 171.1,-1.6936896012264127 171.2,-1.8406227634233536 171.3,-1.98573945317394 171.4,-2.128896457825407 171.5,-2.2699524986977524 171.6,-2.4087683705085703 171.7,-2.545207078751827 171.8,-2.6791339748949907 171.9,-2.810416889260638 172.0,-2.9389262614623286 172.1,-3.0645352682648523 172.2,-3.187119948743425 172.3,-3.3065593266182964 172.4,-3.422735529643459 172.5,-3.5355339059327333 172.6,-3.644843137107059 172.7,-3.750555348152304 172.8,-3.8525662138789354 172.9,-3.9507750618784243 173.0,-4.045084971874715 173.1,-4.135402871372793 173.2,-4.2216396275100445 173.3,-4.303710135019729 173.4,-4.381533400219316 173.5,-4.45503262094184 173.6,-4.524135262330102 173.7,-4.588773128419899 173.8,-4.64888242944124 173.9,-4.704403844771115 174.0,-4.755282581475759 174.1,-4.8014684283847 174.2,-4.842915805643153 174.3,-4.879583809693736 174.4,-4.911436253643444 174.5,-4.93844170297569 174.6,-4.960573506572387 174.7,-4.977809823015396 174.8,-4.99013364214136 174.9,-4.9975328018286564 175.0,-5.0 175.1,-4.997532801828658 175.2,-4.99013364214136 175.3,-4.9778098230153995 175.4,-4.960573506572388 175.5,-4.938441702975691 175.6,-4.911436253643451 175.7,-4.879583809693744 175.8,-4.842915805643145 175.9,-4.801468428384701 176.0,-4.755282581475771 176.1,-4.70440384477114 176.2,-4.648882429441269 176.3,-4.5887731284199 176.4,-4.524135262330104 176.5,-4.455032620941858 176.6,-4.381533400219334 176.7,-4.303710135019731 176.8,-4.221639627510047 176.9,-4.135402871372794 177.0,-4.045084971874738 177.1,-3.9507750618784483 177.2,-3.8525662138789825 177.3,-3.750555348152307 177.4,-3.6448431371070855 177.5,-3.5355339059327613 177.6,-3.4227355296434614 177.7,-3.306559326618299 177.8,-3.1871199487434283 177.9,-3.0645352682648834 178.0,-2.93892626146236 178.1,-2.8104168892606407 178.2,-2.679133974894994 178.3,-2.545207078751891 178.4,-2.4087683705086045 178.5,-2.2699524986977555 178.6,-2.12889645782541 178.7,-1.9857394531739105 178.8,-1.84062276342339 178.9,-1.6936896012264495 179.0,-1.5450849718747222 179.1,-1.3949555301961578 179.2,-1.2434494358243122 179.3,-1.0907162069827434 179.4,-0.9369065729286462 179.5,-0.7821723252012047 179.6,-0.6266661678215286 179.7,-0.4705415665926064 179.8,-0.31395259764655836 179.9,-0.15705379539062495 180.0,-1.1021821192326179e-14 180.1,0.1570537953906029 180.2,0.3139525976465363 180.3,0.47054156659261986 180.4,0.6266661678214714 180.5,0.7821723252011479 180.6,0.9369065729285896 180.7,1.0907162069826872 180.8,1.2434494358242907 180.9,1.3949555301961363 181.0,1.5450849718747013 181.1,1.6936896012264289 181.2,1.8406227634233696 181.3,1.9857394531739556 181.4,2.12889645782539 181.5,2.269952498697736 181.6,2.4087683705085543 181.7,2.545207078751811 181.8,2.6791339748949747 181.9,2.8104168892606225 182.0,2.9389262614623424 182.1,3.0645352682648657 182.2,3.187119948743411 182.3,3.3065593266182827 182.4,3.422735529643446 182.5,3.535533905932745 182.6,3.6448431371070704 182.7,3.750555348152292 182.8,3.852566213878923 182.9,3.950775061878435 183.0,4.045084971874725 183.1,4.135402871372783 183.2,4.221639627510073 183.3,4.30371013501972 183.4,4.381533400219324 183.5,4.455032620941848 183.6,4.524135262330095 183.7,4.588773128419891 183.8,4.6488824294412465 183.9,4.704403844771121 184.0,4.755282581475753 184.1,4.801468428384714 184.2,4.842915805643148 184.3,4.87958380969374 184.4,4.911436253643448 184.5,4.9384417029756875 184.6,4.960573506572385 184.7,4.977809823015398 184.8,4.990133642141357 184.9,4.9975328018286564 185.0,5.0 185.1,4.997532801828658 185.2,4.99013364214136 185.3,4.977809823015399 185.4,4.9605735065723895 185.5,4.938441702975694 185.6,4.911436253643448 185.7,4.879583809693741 185.8,4.84291580564314 185.9,4.801468428384716 186.0,4.755282581475777 186.1,4.704403844771134 186.2,4.648882429441275 186.3,4.588773128419908 186.4,4.524135262330112 186.5,4.455032620941851 186.6,4.381533400219326 186.7,4.303710135019741 186.8,4.221639627510056 186.9,4.135402871372805 187.0,4.045084971874728 187.1,3.9507750618784816 187.2,3.852566213878972 187.3,3.750555348152319 187.4,3.644843137107074 187.5,3.535533905932749 187.6,3.422735529643475 187.7,3.306559326618259 187.8,3.1871199487434425 187.9,3.0645352682648697 188.0,2.9389262614623464 188.1,2.810416889260656 188.2,2.6791339748950094 188.3,2.5452070787518766 188.4,2.40876837050859 188.5,2.269952498697772 188.6,2.1288964578253626 188.7,1.9857394531739274 188.8,1.840622763423374 188.9,1.6936896012264335 189.0,1.5450849718747397 189.1,1.3949555301961754 189.2,1.2434494358242956 189.3,1.0907162069827268 189.4,0.9369065729286642 189.5,0.7821723252011527 189.6,0.6266661678215468 189.7,0.47054156659258933 189.8,0.31395259764654126 189.9,0.15705379539064335 190.0,2.9397712985902356e-14 190.1,-0.15705379539062006 190.2,-0.3139525976465535 190.3,-0.4705415665925308 190.4,-0.6266661678215237 190.5,-0.7821723252011297 190.6,-0.9369065729286065 190.7,-1.0907162069826692 190.8,-1.243449435824273 190.9,-1.394955530196119 191.0,-1.5450849718747175 191.1,-1.693689601226445 191.2,-1.8406227634233523 191.3,-1.985739453173939 191.4,-2.1288964578253737 191.5,-2.2699524986977195 191.6,-2.408768370508538 191.7,-2.5452070787518255 191.8,-2.6791339748949596 191.9,-2.8104168892606367 192.0,-2.938926261462356 192.1,-3.0645352682648515 192.2,-3.187119948743452 192.3,-3.3065593266182685 192.4,-3.4227355296434583 192.5,-3.5355339059327577 192.6,-3.644843137107034 192.7,-3.750555348152256 192.8,-3.852566213878934 192.9,-3.9507750618784456 193.0,-4.045084971874714 193.1,-4.135402871372812 193.2,-4.221639627510063 193.3,-4.303710135019728 193.4,-4.381533400219332 193.5,-4.45503262094184 193.6,-4.524135262330087 193.7,-4.5887731284198985 193.8,-4.648882429441254 193.9,-4.7044038447711145 194.0,-4.75528258147577 194.1,-4.801468428384709 194.2,-4.842915805643152 194.3,-4.879583809693743 194.4,-4.911436253643443 194.5,-4.938441702975684 194.6,-4.960573506572387 194.7,-4.9778098230153995 194.8,-4.990133642141355 194.9,-4.997532801828658 195.0,-5.0 195.1,-4.997532801828658 195.2,-4.990133642141361 195.3,-4.9778098230154 195.4,-4.960573506572392 195.5,-4.938441702975691 195.6,-4.911436253643445 195.7,-4.879583809693745 195.8,-4.842915805643154 195.9,-4.801468428384721 196.0,-4.755282581475772 196.1,-4.70440384477114 196.2,-4.648882429441269 196.3,-4.588773128419915 196.4,-4.5241352623301045 196.5,-4.455032620941843 196.6,-4.381533400219334 196.7,-4.303710135019713 196.8,-4.221639627510067 196.9,-4.135402871372795 197.0,-4.04508497187476 197.1,-3.950775061878471 197.2,-3.8525662138789833 197.3,-3.7505553481523073 197.4,-3.6448431371070624 197.5,-3.5355339059327617 197.6,-3.4227355296434365 197.7,-3.306559326618273 197.8,-3.187119948743429 197.9,-3.0645352682648563 198.0,-2.9389262614623615 198.1,-2.8104168892606713 198.2,-2.679133974895025 198.3,-2.5452070787518615 198.4,-2.408768370508606 198.5,-2.269952498697725 198.6,-2.128896457825379 198.7,-1.9857394531739117 198.8,-1.8406227634233583 198.9,-1.6936896012264508 199.0,-1.5450849718747572 199.1,-1.394955530196159 199.2,-1.243449435824279 199.3,-1.0907162069827445 199.4,-0.9369065729286125 199.5,-0.7821723252011709 199.6,-0.62666616782153 199.7,-0.47054156659260765 199.8,-0.3139525976465596 199.9,-0.1570537953906617 200.0,-1.2246467991473532e-14 200.1,0.15705379539063724 200.2,0.31395259764653516 200.3,0.4705415665925833 200.4,0.6266661678215055 200.5,0.7821723252011465 200.6,0.9369065729285885 200.7,1.0907162069826861 200.8,1.2434494358242552 200.9,1.3949555301961354 201.0,1.545084971874734 201.1,1.6936896012264278 201.2,1.8406227634234016 201.3,1.9857394531738892 201.4,2.128896457825357 201.5,2.269952498697703 201.6,2.408768370508553 201.7,2.54520707875181 201.8,2.6791339748949743 201.9,2.810416889260651 202.0,2.938926261462341 202.1,3.064535268264893 202.2,3.1871199487434376 202.3,3.3065593266182813 202.4,3.4227355296434703 202.5,3.5355339059327195 202.6,3.644843137107021 202.7,3.750555348152268 202.8,3.852566213878945 202.9,3.9507750618784336 203.0,4.045084971874745 203.1,4.135402871372802 203.2,4.221639627510073 203.3,4.303710135019737 203.4,4.381533400219323 203.5,4.455032620941831 203.6,4.524135262330094 203.7,4.588773128419877 203.8,4.648882429441233 203.9,4.704403844771132 204.0,4.755282581475775 204.1,4.8014684283847044 204.2,4.842915805643147 204.3,4.879583809693747 204.4,4.911436253643441 204.5,4.9384417029756875 204.6,4.9605735065723895 204.7,4.977809823015394 204.8,4.990133642141359 204.9,4.997532801828658 205.0,5.0 205.1,4.997532801828658 205.2,4.99013364214136 205.3,4.977809823015401 205.4,4.9605735065723895 205.5,4.938441702975688 205.6,4.911436253643455 205.7,4.879583809693734 205.8,4.842915805643149 205.9,4.801468428384726 206.0,4.755282581475777 206.1,4.704403844771135 206.2,4.6488824294412625 206.3,4.588773128419908 206.4,4.5241352623300966 206.5,4.455032620941867 206.6,4.381533400219309 206.7,4.3037101350197045 206.8,4.221639627510058 206.9,4.1354028713728255 207.0,4.04508497187475 207.1,3.9507750618784603 207.2,3.852566213878995 207.3,3.750555348152296 207.4,3.644843137107099 207.5,3.5355339059327244 207.6,3.422735529643424 207.7,3.306559326618287 207.8,3.187119948743416 207.9,3.0645352682648426 208.0,2.9389262614623757 208.1,2.8104168892607158 208.2,2.6791339748950405 208.3,2.545207078751908 208.4,2.408768370508559 208.5,2.2699524986977098 208.6,2.128896457825396 208.7,1.9857394531739287 208.8,1.840622763423342 208.9,1.6936896012264682 209.0,1.5450849718747408 209.1,1.3949555301961423 209.2,1.243449435824331 209.3,1.0907162069826932 209.4,0.9369065729285957 209.5,0.782172325201189 209.6,0.626666167821548 209.7,0.47054156659259055 209.8,0.3139525976465779 209.9,0.15705379539064454 210.0,-4.904777002955297e-15 210.1,-0.15705379539058334 210.2,-0.31395259764658767 210.3,-0.4705415665926004 210.4,-0.6266661678214873 210.5,-0.7821723252011283 210.6,-0.9369065729286052 210.7,-1.0907162069827028 210.8,-1.2434494358242718 210.9,-1.3949555301961516 211.0,-1.5450849718746826 211.1,-1.6936896012264775 211.2,-1.8406227634234174 211.3,-1.9857394531738726 211.4,-2.1288964578253404 211.5,-2.2699524986977186 211.6,-2.408768370508568 211.7,-2.545207078751794 211.8,-2.679133974894989 211.9,-2.8104168892606065 212.0,-2.938926261462384 212.1,-3.064535268264907 212.2,-3.187119948743424 212.3,-3.306559326618294 212.4,-3.4227355296434316 212.5,-3.5355339059327315 212.6,-3.6448431371070082 212.7,-3.7505553481522558 212.8,-3.8525662138789105 212.9,-3.9507750618784665 213.0,-4.045084971874756 213.1,-4.135402871372792 213.2,-4.221639627510062 213.3,-4.303710135019746 213.4,-4.381533400219314 213.5,-4.455032620941839 213.6,-4.524135262330071 213.7,-4.588773128419884 213.8,-4.648882429441266 213.9,-4.7044038447711385 214.0,-4.755282581475758 214.1,-4.801468428384709 214.2,-4.842915805643152 214.3,-4.879583809693735 214.4,-4.911436253643443 214.5,-4.93844170297569 214.6,-4.960573506572382 214.7,-4.977809823015402 214.8,-4.99013364214136 214.9,-4.9975328018286564 215.0,-5.0 215.1,-4.997532801828658 215.2,-4.990133642141358 215.3,-4.9778098230154 215.4,-4.960573506572388 215.5,-4.938441702975697 215.6,-4.911436253643439 215.7,-4.879583809693729 215.8,-4.8429158056431625 215.9,-4.801468428384721 216.0,-4.755282581475772 216.1,-4.704403844771129 216.2,-4.648882429441282 216.3,-4.588773128419901 216.4,-4.52413526233012 216.5,-4.455032620941827 216.6,-4.381533400219301 216.7,-4.303710135019733 216.8,-4.221639627510086 216.9,-4.135402871372817 217.0,-4.04508497187474 217.1,-3.950775061878493 217.2,-3.8525662138789842 217.3,-3.7505553481523317 217.4,-3.644843137107039 217.5,-3.5355339059327124 217.6,-3.4227355296434636 217.7,-3.3065593266182742 217.8,-3.1871199487434025 217.9,-3.064535268264885 218.0,-2.9389262614624196 218.1,-2.8104168892607015 218.2,-2.6791339748950262 218.3,-2.545207078751832 218.4,-2.4087683705085445 218.5,-2.2699524986977577 218.6,-2.1288964578253804 218.7,-1.9857394531739128 218.8,-1.8406227634233923 218.9,-1.6936896012264517 219.0,-1.5450849718747244 219.1,-1.394955530196194 219.2,-1.2434494358243144 219.3,-1.0907162069826764 219.4,-0.9369065729286485 219.5,-0.782172325201172 219.6,-0.6266661678215311 219.7,-0.4705415665925735 219.8,-0.3139525976465608 219.9,-0.15705379539062742 220.0,-4.899825157862589e-14 220.1,0.1570537953906715 220.2,0.3139525976466048 220.3,0.47054156659254665 220.4,0.6266661678215044 220.5,0.7821723252011454 220.6,0.936906572928622 220.7,1.0907162069826501 220.8,1.2434494358242885 220.9,1.3949555301961 221.0,1.5450849718747663 221.1,1.6936896012264935 221.2,1.8406227634233674 221.3,1.9857394531738881 221.4,2.128896457825356 221.5,2.2699524986977337 221.6,2.408768370508521 221.7,2.545207078751809 221.8,2.679133974894943 221.9,2.810416889260679 222.0,2.938926261462398 222.1,3.064535268264864 222.2,3.1871199487434367 222.3,3.3065593266182534 222.4,3.4227355296434436 222.5,3.5355339059326933 222.6,3.6448431371070207 222.7,3.750555348152267 222.8,3.852566213878967 222.9,3.9507750618784767 223.0,4.045084971874724 223.1,4.135402871372801 223.2,4.221639627510072 223.3,4.303710135019719 223.4,4.381533400219323 223.5,4.455032620941815 223.6,4.524135262330079 223.7,4.5887731284198905 223.8,4.648882429441272 223.9,4.70440384477112 224.0,4.755282581475764 224.1,4.801468428384713 224.2,4.842915805643156 224.3,4.87958380969374 224.4,4.911436253643447 224.5,4.938441702975681 224.6,4.960573506572384 224.7,4.977809823015391 224.8,4.990133642141357 224.9,4.997532801828657 225.0,5.0 225.1,4.997532801828657 225.2,4.990133642141362 225.3,4.977809823015399 225.4,4.960573506572395 225.5,4.938441702975683 225.6,4.911436253643435 225.7,4.879583809693742 225.8,4.842915805643159 225.9,4.801468428384716 226.0,4.755282581475766 226.1,4.704403844771147 226.2,4.648882429441276 226.3,4.588773128419923 226.4,4.524135262330082 226.5,4.45503262094182 226.6,4.381533400219327 226.7,4.303710135019724 226.8,4.221639627510077 226.9,4.135402871372806 227.0,4.045084971874772 227.1,3.9507750618784825 227.2,3.8525662138789727 227.3,3.7505553481522735 227.4,3.6448431371070273 227.5,3.5355339059327506 227.6,3.4227355296434507 227.7,3.3065593266182614 227.8,3.1871199487434443 227.9,3.064535268264928 228.0,2.938926261462406 228.1,2.8104168892606873 228.2,2.6791339748950116 228.3,2.545207078751817 228.4,2.4087683705085916 228.5,2.269952498697742 228.6,2.128896457825365 228.7,1.9857394531738972 228.8,1.8406227634233763 228.9,1.6936896012264357 229.0,1.545084971874776 229.1,1.3949555301961778 229.2,1.2434494358243666 229.3,1.090716206982729 229.4,0.9369065729286318 229.5,0.782172325201155 229.6,0.6266661678215141 229.7,0.47054156659262714 229.8,0.3139525976465437 229.9,0.1570537953906813 230.0,-3.920726699181296e-14 230.1,-0.15705379539068864 230.2,-0.31395259764648015 230.3,-0.47054156659256374 230.4,-0.6266661678215213 230.5,-0.7821723252011624 230.6,-0.9369065729285692 230.7,-1.0907162069826668 230.8,-1.2434494358242363 230.9,-1.3949555301961847 231.0,-1.5450849718747828 231.1,-1.6936896012264426 231.2,-1.8406227634233832 231.3,-1.9857394531739039 231.4,-2.1288964578253715 231.5,-2.269952498697686 231.6,-2.4087683705085357 231.7,-2.5452070787518237 231.8,-2.679133974895018 231.9,-2.8104168892606936 232.0,-2.938926261462354 232.1,-3.064535268264877 232.2,-3.18711994874345 232.3,-3.3065593266182667 232.4,-3.422735529643404 232.5,-3.535533905932706 232.6,-3.6448431371070322 232.7,-3.7505553481522784 232.8,-3.852566213878978 232.9,-3.950775061878444 233.0,-4.045084971874734 233.1,-4.135402871372811 233.2,-4.221639627510081 233.3,-4.303710135019692 233.4,-4.381533400219296 233.5,-4.4550326209418225 233.6,-4.524135262330086 233.7,-4.58877312841987 233.8,-4.648882429441253 233.9,-4.704403844771125 234.0,-4.755282581475769 234.1,-4.801468428384719 234.2,-4.842915805643143 234.3,-4.8795838096937425 234.4,-4.911436253643437 234.5,-4.938441702975684 234.6,-4.960573506572378 234.7,-4.977809823015392 234.8,-4.990133642141358 234.9,-4.997532801828658 235.0,-5.0 235.1,-4.997532801828659 235.2,-4.990133642141361 235.3,-4.977809823015403 235.4,-4.960573506572384 235.5,-4.93844170297568 235.6,-4.911436253643445 235.7,-4.879583809693738 235.8,-4.8429158056431545 235.9,-4.8014684283847116 236.0,-4.755282581475783 236.1,-4.704403844771142 236.2,-4.64888242944127 236.3,-4.588773128419888 236.4,-4.524135262330075 236.5,-4.455032620941844 236.6,-4.381533400219319 236.7,-4.303710135019715 236.8,-4.2216396275100685 236.9,-4.135402871372837 237.0,-4.045084971874761 237.1,-3.9507750618784723 237.2,-3.8525662138789625 237.3,-3.750555348152262 237.4,-3.6448431371070638 237.5,-3.5355339059327386 237.6,-3.4227355296434387 237.7,-3.306559326618248 237.8,-3.187119948743486 237.9,-3.064535268264914 238.0,-2.9389262614623917 238.1,-2.810416889260673 238.2,-2.6791339748950573 238.3,-2.5452070787518637 238.4,-2.4087683705085765 238.5,-2.269952498697727 238.6,-2.1288964578253493 238.7,-1.9857394531739467 238.8,-1.8406227634233605 238.9,-1.6936896012264866 239.0,-1.5450849718747595 239.1,-1.3949555301962293 239.2,-1.24344943582435 239.3,-1.0907162069827123 239.4,-0.9369065729286148 239.5,-0.7821723252011381 239.6,-0.6266661678215675 239.7,-0.47054156659261004 239.8,-0.31395259764659744 239.9,-0.15705379539059314 240.0,-8.575003516577825e-14 240.1,0.15705379539056374 240.2,0.3139525976465682 240.3,0.4705415665925808 240.4,0.6266661678215384 240.5,0.7821723252011091 240.6,0.9369065729285859 240.7,1.0907162069826837 240.8,1.2434494358243215 240.9,1.394955530196201 241.0,1.5450849718747315 241.1,1.6936896012264588 241.2,1.840622763423333 241.3,1.9857394531739199 241.4,2.1288964578253227 241.5,2.269952498697701 241.6,2.408768370508551 241.7,2.5452070787518384 241.8,2.679133974895032 241.9,2.810416889260649 242.0,2.9389262614623677 242.1,3.0645352682648914 242.2,3.1871199487434634 242.3,3.3065593266182263 242.4,3.422735529643417 242.5,3.5355339059327178 242.6,3.6448431371070438 242.7,3.750555348152243 242.8,3.8525662138789434 242.9,3.9507750618784545 243.0,4.0450849718747435 243.1,4.13540287137282 243.2,4.2216396275100525 243.3,4.303710135019701 243.4,4.381533400219305 243.5,4.4550326209418305 243.6,4.524135262330063 243.7,4.588773128419876 243.8,4.648882429441259 243.9,4.704403844771131 244.0,4.755282581475774 244.1,4.801468428384704 244.2,4.842915805643147 244.3,4.879583809693731 244.4,4.91143625364344 244.5,4.938441702975676 244.6,4.96057350657238 244.7,4.9778098230154 244.8,4.990133642141359 244.9,4.997532801828658 245.0,5.0 245.1,4.997532801828659 245.2,4.99013364214136 245.3,4.977809823015395 245.4,4.9605735065723815 245.5,4.938441702975689 245.6,4.911436253643442 245.7,4.87958380969375 245.8,4.84291580564315 245.9,4.801468428384727 246.0,4.755282581475778 246.1,4.704403844771136 246.2,4.648882429441263 246.3,4.588773128419882 246.4,4.524135262330098 246.5,4.455032620941836 246.6,4.381533400219311 246.7,4.303710135019706 246.8,4.221639627510097 246.9,4.135402871372827 247.0,4.0450849718747515 247.1,3.9507750618784616 247.2,3.8525662138789967 247.3,3.7505553481522975 247.4,3.644843137107052 247.5,3.535533905932726 247.6,3.422735529643426 247.7,3.3065593266182884 247.8,3.1871199487434727 247.9,3.0645352682649007 248.0,2.938926261462378 248.1,2.810416889260718 248.2,2.6791339748950427 248.3,2.545207078751849 248.4,2.408768370508562 248.5,2.269952498697712 248.6,2.128896457825398 248.7,1.985739453173931 248.8,1.8406227634234107 248.9,1.6936896012264704 249.0,1.5450849718748108 249.1,1.394955530196213 249.2,1.2434494358242647 249.3,1.0907162069826957 249.4,0.936906572928598 249.5,0.7821723252011914 249.6,0.6266661678215504 249.7,0.470541566592593 249.8,0.3139525976465095 249.9,0.15705379539071804 250.0,6.859879017134943e-14 250.1,-0.1570537953906519 250.2,-0.31395259764651434 250.3,-0.47054156659259794 250.4,-0.6266661678214849 250.5,-0.782172325201126 250.6,-0.9369065729286029 250.7,-1.0907162069827003 250.8,-1.2434494358243382 250.9,-1.3949555301961494 251.0,-1.545084971874748 251.1,-1.6936896012264082 251.2,-1.8406227634233492 251.3,-1.9857394531738701 251.4,-2.128896457825338 251.5,-2.2699524986977164 251.6,-2.4087683705085663 251.7,-2.545207078751792 251.8,-2.6791339748949867 251.9,-2.810416889260663 252.0,-2.938926261462382 252.1,-3.0645352682649047 252.2,-3.1871199487434216 252.3,-3.306559326618239 252.4,-3.422735529643429 252.5,-3.5355339059327298 252.6,-3.6448431371070065 252.7,-3.750555348152254 252.8,-3.8525662138789545 252.9,-3.9507750618784647 253.0,-4.045084971874754 253.1,-4.13540287137279 253.2,-4.221639627510061 253.3,-4.303710135019709 253.4,-4.381533400219313 253.5,-4.4550326209418065 253.6,-4.52413526233007 253.7,-4.588773128419911 253.8,-4.648882429441265 253.9,-4.704403844771138 254.0,-4.7552825814757576 254.1,-4.801468428384708 254.2,-4.842915805643152 254.3,-4.8795838096937345 254.4,-4.91143625364343 254.5,-4.938441702975679 254.6,-4.960573506572391 254.7,-4.977809823015395 254.8,-4.990133642141355 254.9,-4.997532801828659 255.0,-5.0 255.1,-4.997532801828658 255.2,-4.990133642141358 255.3,-4.9778098230154 255.4,-4.960573506572389 255.5,-4.938441702975686 255.6,-4.911436253643452 255.7,-4.879583809693745 255.8,-4.842915805643146 255.9,-4.801468428384702 256.0,-4.755282581475773 256.1,-4.7044038447711305 256.2,-4.648882429441256 256.3,-4.588773128419902 256.4,-4.52413526233009 256.5,-4.455032620941861 256.6,-4.381533400219337 256.7,-4.303710135019734 256.8,-4.22163962751005 256.9,-4.1354028713728574 257.0,-4.045084971874741 257.1,-3.950775061878451 257.2,-3.8525662138789403 257.3,-3.7505553481522864 257.4,-3.6448431371070895 257.5,-3.5355339059327644 257.6,-3.422735529643414 257.7,-3.3065593266182223 257.8,-3.1871199487434594 257.9,-3.0645352682649434 258.0,-2.938926261462364 258.1,-2.8104168892606447 258.2,-2.6791339748949676 258.3,-2.5452070787518952 258.4,-2.408768370508609 258.5,-2.2699524986976964 258.6,-2.1288964578253182 258.7,-1.985739453173915 258.8,-1.8406227634233945 258.9,-1.6936896012264544 259.0,-1.545084971874727 259.1,-1.3949555301961283 259.2,-1.2434494358243169 259.3,-1.0907162069827483 259.4,-0.936906572928651 259.5,-0.7821723252011042 259.6,-0.6266661678215335 259.7,-0.47054156659257595 259.8,-0.31395259764656325 259.9,-0.15705379539062986 260.0,1.9606728399089415e-14 260.1,0.15705379539059802 260.2,0.3139525976465315 260.3,0.470541566592615 260.4,0.6266661678214314 260.5,0.782172325201143 260.6,0.9369065729286197 260.7,1.0907162069827172 260.8,1.243449435824286 260.9,1.3949555301961658 261.0,1.5450849718746964 261.1,1.6936896012264244 261.2,1.840622763423365 261.3,1.9857394531739512 261.4,2.1288964578252894 261.5,2.2699524986977315 261.6,2.408768370508581 261.7,2.5452070787518677 261.8,2.679133974895001 261.9,2.8104168892606185 262.0,2.9389262614623384 262.1,3.0645352682649185 262.2,3.18711994874338 262.3,3.306559326618252 262.4,3.4227355296433903 262.5,3.5355339059327417 262.6,3.6448431371070673 262.7,3.7505553481523126 262.8,3.8525662138789203 262.9,3.9507750618784314 263.0,4.045084971874764 263.1,4.13540287137284 263.2,4.22163962751007 263.3,4.303710135019718 263.4,4.381533400219287 263.5,4.4550326209418465 263.6,4.524135262330107 263.7,4.58877312841989 263.8,4.648882429441245 263.9,4.704403844771119 264.0,4.755282581475785 264.1,4.801468428384713 264.2,4.842915805643155 264.3,4.879583809693739 264.4,4.911436253643446 264.5,4.938441702975692 264.6,4.960573506572384 264.7,4.977809823015397 264.8,4.990133642141361 264.9,4.997532801828656 265.0,5.0 265.1,4.997532801828658 265.2,4.990133642141357 265.3,4.977809823015399 265.4,4.960573506572386 265.5,4.938441702975695 265.6,4.9114362536434495 265.7,4.8795838096937425 265.8,4.842915805643141 265.9,4.801468428384737 266.0,4.755282581475767 266.1,4.704403844771124 266.2,4.648882429441251 266.3,4.588773128419896 266.4,4.524135262330113 266.5,4.455032620941853 266.6,4.381533400219294 266.7,4.303710135019761 266.8,4.221639627510078 266.9,4.135402871372848 267.0,4.045084971874731 267.1,3.9507750618784403 267.2,3.8525662138789296 267.3,3.7505553481523224 267.4,3.644843137107077 267.5,3.535533905932702 267.6,3.422735529643401 267.7,3.3065593266183164 267.8,3.187119948743446 267.9,3.0645352682649296 268.0,2.93892626146235 268.1,2.8104168892606305 268.2,2.6791339748950134 268.3,2.5452070787518806 268.4,2.408768370508594 268.5,2.2699524986976813 268.6,2.128896457825367 268.7,1.9857394531738994 268.8,1.8406227634233787 268.9,1.6936896012265048 269.0,1.5450849718747106 269.1,1.39495553019618 269.2,1.2434494358243002 269.3,1.0907162069826621 269.4,0.9369065729287039 269.5,0.7821723252011575 269.6,0.6266661678215164 269.7,0.47054156659255886 269.8,0.31395259764654615 269.9,0.1570537953906127 270.0,3.4296300182491775e-14 270.1,-0.15705379539061515 270.2,-0.3139525976465486 270.3,-0.4705415665926321 270.4,-0.6266661678214485 270.5,-0.7821723252011599 270.6,-0.9369065729286365 270.7,-1.0907162069827339 270.8,-1.2434494358243025 270.9,-1.394955530196114 271.0,-1.5450849718747128 271.1,-1.6936896012265072 271.2,-1.840622763423315 271.3,-1.9857394531739017 271.4,-2.128896457825305 271.5,-2.2699524986977466 271.6,-2.408768370508596 271.7,-2.545207078751883 271.8,-2.6791339748949556 271.9,-2.8104168892606323 272.0,-2.9389262614624094 272.1,-3.064535268264932 272.2,-3.187119948743393 272.3,-3.306559326618265 272.4,-3.4227355296434023 272.5,-3.5355339059327537 272.6,-3.644843137107079 272.7,-3.750555348152277 272.8,-3.852566213878931 272.9,-3.950775061878442 273.0,-4.045084971874775 273.1,-4.1354028713728095 273.2,-4.221639627510042 273.3,-4.303710135019727 273.4,-4.381533400219295 273.5,-4.455032620941854 273.6,-4.524135262330084 273.7,-4.588773128419897 273.8,-4.648882429441278 273.9,-4.704403844771101 274.0,-4.755282581475768 274.1,-4.801468428384718 274.2,-4.84291580564316 274.3,-4.8795838096937425 274.4,-4.911436253643423 274.5,-4.938441702975684 274.6,-4.960573506572387 274.7,-4.977809823015399 274.8,-4.990133642141362 274.9,-4.997532801828656 275.0,-5.0 275.1,-4.997532801828657 275.2,-4.990133642141356 275.3,-4.977809823015397 275.4,-4.960573506572393 275.5,-4.938441702975692 275.6,-4.911436253643433 275.7,-4.879583809693754 275.8,-4.8429158056431545 275.9,-4.801468428384732 276.0,-4.755282581475762 276.1,-4.704403844771118 276.2,-4.648882429441245 276.3,-4.588773128419917 276.4,-4.524135262330106 276.5,-4.455032620941845 276.6,-4.381533400219285 276.7,-4.303710135019752 276.8,-4.221639627510069 276.9,-4.135402871372838 277.0,-4.045084971874721 277.1,-3.9507750618784296 277.2,-3.852566213878964 277.3,-3.750555348152311 277.4,-3.6448431371070655 277.5,-3.5355339059326902 277.6,-3.4227355296434405 277.7,-3.3065593266183035 277.8,-3.187119948743433 277.9,-3.0645352682649163 278.0,-2.938926261462336 278.1,-2.810416889260675 278.2,-2.6791339748949987 278.3,-2.5452070787518046 278.4,-2.408768370508641 278.5,-2.2699524986977293 278.6,-2.1288964578253515 278.7,-1.9857394531738837 278.8,-1.8406227634233627 278.9,-1.6936896012265557 279.0,-1.5450849718747617 279.1,-1.3949555301961636 279.2,-1.2434494358242836 279.3,-1.0907162069826453 279.4,-0.9369065729286872 279.5,-0.7821723252011406 279.6,-0.6266661678214995 279.7,-0.47054156659254176 279.8,-0.31395259764652905 279.9,-0.15705379539066658 280.0,-1.7145055188062946e-14 280.1,0.15705379539070333 280.2,0.31395259764649475 280.3,0.47054156659257834 280.4,0.6266661678214653 280.5,0.7821723252011769 280.6,0.9369065729286534 280.7,1.0907162069827505 280.8,1.2434494358242505 280.9,1.3949555301961305 281.0,1.5450849718747293 281.1,1.6936896012265235 281.2,1.8406227634233308 281.3,1.9857394531739176 281.4,2.1288964578253204 281.5,2.269952498697762 281.6,2.408768370508611 281.7,2.545207078751836 281.8,2.67913397489497 281.9,2.810416889260647 282.0,2.9389262614623086 282.1,3.064535268264889 282.2,3.1871199487434065 282.3,3.3065593266182782 282.4,3.422735529643415 282.5,3.535533905932766 282.6,3.644843137107042 282.7,3.7505553481522877 282.8,3.8525662138789873 282.9,3.950775061878409 283.0,4.045084971874743 283.1,4.135402871372818 283.2,4.221639627510051 283.3,4.303710135019735 283.4,4.381533400219269 283.5,4.45503262094183 283.6,4.524135262330092 283.7,4.588773128419904 283.8,4.648882429441284 283.9,4.7044038447711065 284.0,4.7552825814757735 284.1,4.801468428384722 284.2,4.842915805643164 284.3,4.879583809693746 284.4,4.911436253643426 284.5,4.938441702975687 284.6,4.9605735065723975 284.7,4.977809823015394 284.8,4.990133642141358 284.9,4.9975328018286564 285.0,5.0 285.1,4.9975328018286564 285.2,4.990133642141355 285.3,4.977809823015402 285.4,4.96057350657239 285.5,4.938441702975689 285.6,4.911436253643429 285.7,4.87958380969375 285.8,4.842915805643151 285.9,4.8014684283847275 286.0,4.755282581475757 286.1,4.704403844771113 286.2,4.648882429441264 286.3,4.58877312841991 286.4,4.524135262330099 286.5,4.45503262094187 286.6,4.381533400219312 286.7,4.3037101350197435 286.8,4.22163962751006 286.9,4.135402871372829 287.0,4.0450849718747115 287.1,3.9507750618784634 287.2,3.852566213878953 287.3,3.750555348152252 287.4,3.6448431371071024 287.5,3.5355339059327786 287.6,3.4227355296434276 287.7,3.3065593266182907 287.8,3.18711994874342 287.9,3.064535268264959 288.0,2.93892626146238 288.1,2.8104168892606607 288.2,2.6791339748949845 288.3,2.54520707875179 288.4,2.408768370508626 288.5,2.269952498697714 288.6,2.128896457825336 288.7,1.9857394531739332 288.8,1.840622763423347 288.9,1.6936896012265397 289.0,1.5450849718747457 289.1,1.394955530196079 289.2,1.2434494358243358 289.3,1.0907162069826979 289.4,0.9369065729286702 289.5,0.7821723252011237 289.6,0.6266661678214824 289.7,0.4705415665925247 289.8,0.31395259764658284 289.9,0.15705379539072045 290.0,-6.189806365883577e-18 290.1,-0.1570537953907205 290.2,-0.3139525976465119 290.3,-0.47054156659259544 290.4,-0.6266661678214824 290.5,-0.7821723252011937 290.6,-0.9369065729286702 290.7,-1.0907162069826979 290.8,-1.243449435824267 290.9,-1.394955530196147 291.0,-1.5450849718746777 291.1,-1.6936896012264726 291.2,-1.840622763423347 291.3,-1.9857394531739332 291.4,-2.128896457825336 291.5,-2.2699524986977773 291.6,-2.4087683705085636 291.7,-2.545207078751851 291.8,-2.6791339748949845 291.9,-2.8104168892606025 292.0,-2.9389262614623224 292.1,-3.064535268264903 292.2,-3.18711994874342 292.3,-3.3065593266182907 292.4,-3.4227355296433757 292.5,-3.535533905932728 292.6,-3.644843137107054 292.7,-3.7505553481522993 292.8,-3.8525662138789984 292.9,-3.95077506187842 293.0,-4.0450849718747115 293.1,-4.135402871372829 293.2,-4.22163962751006 293.3,-4.3037101350197435 293.4,-4.381533400219277 293.5,-4.455032620941838 293.6,-4.524135262330129 293.7,-4.588773128419882 293.8,-4.648882429441264 293.9,-4.704403844771113 294.0,-4.755282581475779 294.1,-4.8014684283847275 294.2,-4.842915805643133 294.3,-4.8795838096937345 294.4,-4.911436253643429 294.5,-4.938441702975689 294.6,-4.960573506572399 294.7,-4.977809823015395 294.8,-4.99013364214136 294.9,-4.9975328018286564 295.0,-5.0 295.1,-4.9975328018286564 295.2,-4.990133642141358 295.3,-4.9778098230154 295.4,-4.960573506572406 295.5,-4.938441702975698 295.6,-4.91143625364344 295.7,-4.879583809693746 295.8,-4.8429158056431465 295.9,-4.801468428384722 296.0,-4.755282581475751 296.1,-4.7044038447711305 296.2,-4.648882429441258 296.3,-4.588773128419904 296.4,-4.524135262330122 296.5,-4.455032620941862 296.6,-4.381533400219303 296.7,-4.303710135019735 296.8,-4.221639627510051 296.9,-4.135402871372858 297.0,-4.045084971874743 297.1,-3.9507750618784527 297.2,-3.8525662138789416 297.3,-3.7505553481523353 297.4,-3.6448431371070904 297.5,-3.535533905932766 297.6,-3.422735529643415 297.7,-3.3065593266182782 297.8,-3.1871199487434065 297.9,-3.064535268264945 298.0,-2.9389262614623664 298.1,-2.810416889260588 298.2,-2.67913397489503 298.3,-2.545207078751836 298.4,-2.408768370508611 298.5,-2.269952498697762 298.6,-2.1288964578253204 298.7,-1.9857394531739825 298.8,-1.8406227634233967 298.9,-1.6936896012265235 299.0,-1.5450849718747293 299.1,-1.3949555301960623 299.2,-1.2434494358243193 299.3,-1.0907162069826812 299.4,-0.9369065729286534 299.5,-0.7821723252011066 299.6,-0.6266661678214653 299.7,-0.4705415665926491 299.8,-0.3139525976465657 299.9,-0.15705379539077435 300.0,-5.3896838775215307e-14 300.1,0.1570537953906666 300.2,0.31395259764652905 300.3,0.4705415665926126 300.4,0.6266661678214995 300.5,0.7821723252012107 300.6,0.9369065729286173 300.7,1.0907162069827148 300.8,1.2434494358242838 300.9,1.394955530196027 301.0,1.5450849718746942 301.1,1.6936896012264888 301.2,1.8406227634233627 301.3,1.985739453173949 301.4,2.128896457825287 301.5,2.2699524986977293 301.6,2.4087683705085787 301.7,2.545207078751866 301.8,2.6791339748949388 301.9,2.8104168892606163 302.0,2.938926261462336 302.1,3.0645352682649163 302.2,3.187119948743433 302.3,3.3065593266183035 302.4,3.4227355296433886 302.5,3.5355339059327404 302.6,3.6448431371071144 302.7,3.7505553481522638 302.8,3.852566213878964 302.9,3.9507750618784305 303.0,4.045084971874721 303.1,4.135402871372838 303.2,4.221639627510031 303.3,4.303710135019717 303.4,4.381533400219285 303.5,4.455032620941845 303.6,4.5241352623301365 303.7,4.588773128419889 303.8,4.6488824294412705 303.9,4.704403844771118 304.0,4.755282581475762 304.1,4.801468428384732 304.2,4.842915805643137 304.3,4.879583809693738 304.4,4.911436253643419 304.5,4.938441702975681 304.6,4.960573506572393 304.7,4.977809823015397 304.8,4.990133642141361 304.9,4.997532801828657 305.0,5.0 305.1,4.997532801828658 305.2,4.990133642141362 305.3,4.977809823015399 305.4,4.960573506572405 305.5,4.938441702975695 305.6,4.911436253643436 305.7,4.8795838096937425 305.8,4.842915805643142 305.9,4.801468428384737 306.0,4.755282581475768 306.1,4.704403844771125 306.2,4.648882429441252 306.3,4.588773128419924 306.4,4.524135262330145 306.5,4.455032620941854 306.6,4.381533400219295 306.7,4.303710135019727 306.8,4.221639627510042 306.9,4.1354028713728495 307.0,4.045084971874733 307.1,3.9507750618783986 307.2,3.8525662138789762 307.3,3.7505553481523233 307.4,3.644843137107079 307.5,3.5355339059327537 307.6,3.4227355296434023 307.7,3.306559326618318 307.8,3.1871199487434483 307.9,3.064535268264932 308.0,2.9389262614623526 308.1,2.810416889260574 308.2,2.6791339748950156 308.3,2.5452070787518215 308.4,2.408768370508596 308.5,2.2699524986977466 308.6,2.128896457825305 308.7,1.985739453173967 308.8,1.840622763423381 308.9,1.6936896012265743 309.0,1.5450849718747806 309.1,1.394955530196114 309.2,1.2434494358243025 309.3,1.0907162069826646 309.4,0.9369065729286364 309.5,0.7821723252010897 309.6,0.626666167821519 309.7,0.4705415665926321 309.8,0.31395259764654854 309.9,0.1570537953907572 310.0,3.674559378078648e-14 310.1,-0.15705379539068376 310.2,-0.31395259764654615 310.3,-0.47054156659262963 310.4,-0.6266661678214459 310.5,-0.7821723252011575 310.6,-0.9369065729286341 310.7,-1.0907162069827314 310.8,-1.2434494358242314 310.9,-1.3949555301960435 311.0,-1.5450849718747106 311.1,-1.6936896012265048 311.2,-1.8406227634233787 311.3,-1.9857394531739647 311.4,-2.1288964578253027 311.5,-2.2699524986977444 311.6,-2.408768370508594 311.7,-2.5452070787518193 311.8,-2.6791339748949534 311.9,-2.8104168892606305 312.0,-2.93892626146235 312.1,-3.0645352682649296 312.2,-3.1871199487433914 312.3,-3.306559326618263 312.4,-3.422735529643401 312.5,-3.5355339059327524 312.6,-3.644843137107126 312.7,-3.7505553481522753 312.8,-3.8525662138789296 312.9,-3.9507750618784403 313.0,-4.045084971874731 313.1,-4.135402871372848 313.2,-4.22163962751004 313.3,-4.303710135019725 313.4,-4.38153340021926 313.5,-4.455032620941821 313.6,-4.524135262330113 313.7,-4.588773128419896 313.8,-4.648882429441277 313.9,-4.704403844771124 314.0,-4.755282581475745 314.1,-4.801468428384717 314.2,-4.842915805643141 314.3,-4.8795838096937425 314.4,-4.911436253643423 314.5,-4.938441702975683 314.6,-4.960573506572395 314.7,-4.977809823015399 314.8,-4.990133642141362 314.9,-4.997532801828656 315.0,-5.0 315.1,-4.997532801828657 315.2,-4.990133642141365 315.3,-4.977809823015404 315.4,-4.960573506572402 315.5,-4.938441702975692 315.6,-4.9114362536434335 315.7,-4.879583809693739 315.8,-4.842915805643138 315.9,-4.801468428384733 316.0,-4.755282581475763 316.1,-4.704403844771119 316.2,-4.648882429441271 316.3,-4.588773128419918 316.4,-4.524135262330137 316.5,-4.4550326209418465 316.6,-4.381533400219287 316.7,-4.303710135019754 316.8,-4.22163962751007 316.9,-4.13540287137284 317.0,-4.045084971874722 317.1,-3.9507750618784754 317.2,-3.852566213878965 317.3,-3.7505553481523126 317.4,-3.6448431371070673 317.5,-3.5355339059327417 317.6,-3.4227355296433903 317.7,-3.3065593266183053 317.8,-3.187119948743435 317.9,-3.0645352682649745 318.0,-2.9389262614623957 318.1,-2.8104168892606185 318.2,-2.679133974895001 318.3,-2.5452070787518677 318.4,-2.408768370508581 318.5,-2.269952498697795 318.6,-2.1288964578253537 318.7,-1.9857394531739512 318.8,-1.840622763423365 318.9,-1.6936896012265579 319.0,-1.5450849718747641 319.1,-1.3949555301960976 319.2,-1.243449435824286 319.3,-1.0907162069826477 319.4,-0.9369065729286895 319.5,-0.7821723252012132 319.6,-0.6266661678215019 319.7,-0.4705415665926857 319.8,-0.3139525976466024 319.9,-0.15705379539074005 320.0,-1.9594348786357652e-14 320.1,0.15705379539070088 320.2,0.31395259764656325 320.3,0.4705415665926467 320.4,0.626666167821463 320.5,0.7821723252011745 320.6,0.936906572928651 320.7,1.0907162069826095 320.8,1.243449435824248 320.9,1.3949555301960601 321.0,1.545084971874727 321.1,1.6936896012265212 321.2,1.8406227634233285 321.3,1.9857394531739154 321.4,2.1288964578253182 321.5,2.26995249869776 321.6,2.4087683705085468 321.7,2.5452070787518344 321.8,2.6791339748949676 321.9,2.8104168892605856 322.0,2.938926261462364 322.1,3.0645352682649434 322.2,3.1871199487434048 322.3,3.3065593266182756 322.4,3.4227355296433615 322.5,3.5355339059327138 322.6,3.6448431371070407 322.7,3.7505553481522864 322.8,3.8525662138789403 322.9,3.950775061878451 323.0,4.045084971874699 323.1,4.1354028713728175 323.2,4.22163962751005 323.3,4.303710135019734 323.4,4.381533400219268 323.5,4.455032620941829 323.6,4.524135262330121 323.7,4.588773128419902 323.8,4.648882429441256 323.9,4.704403844771106 324.0,4.755282581475751 324.1,4.801468428384722 324.2,4.842915805643128 324.3,4.87958380969373 324.4,4.9114362536434255 324.5,4.938441702975686 324.6,4.9605735065723975 324.7,4.9778098230154 324.8,4.9901336421413625 324.9,4.9975328018286564 325.0,5.0 325.1,4.9975328018286564 325.2,4.990133642141364 325.3,4.977809823015402 325.4,4.9605735065724 325.5,4.938441702975689 325.6,4.91143625364343 325.7,4.8795838096937505 325.8,4.842915805643152 325.9,4.801468428384728 326.0,4.755282581475802 326.1,4.70440384477109 326.2,4.648882429441291 326.3,4.5887731284198825 326.4,4.52413526233013 326.5,4.4550326209418065 326.6,4.381533400219278 326.7,4.303710135019709 326.8,4.221639627510061 326.9,4.13540287137287 327.0,4.045084971874754 327.1,3.9507750618784647 327.2,3.8525662138789545 327.3,3.7505553481523006 327.4,3.6448431371070553 327.5,3.53553390593278 327.6,3.4227355296434814 327.7,3.3065593266182924 327.8,3.187119948743531 327.9,3.0645352682649607 328.0,2.9389262614624396 328.1,2.810416889260604 328.2,2.6791339748950467 328.3,2.545207078751792 328.4,2.4087683705086906 328.5,2.2699524986977164 328.6,2.128896457825338 328.7,1.9857394531738701 328.8,1.8406227634234151 328.9,1.6936896012264748 329.0,1.545084971874748 329.1,1.3949555301961494 329.2,1.2434494358242694 329.3,1.0907162069827696 329.4,0.9369065729286727 329.5,0.7821723252011963 329.6,0.6266661678214143 329.7,0.47054156659266866 329.8,0.31395259764651434 329.9,0.15705379539072292 330.0,7.349737736793884e-14 330.1,-0.15705379539071804 330.2,-0.31395259764643857 330.3,-0.470541566592593 330.4,-0.6266661678214801 330.5,-0.7821723252011914 330.6,-0.936906572928598 330.7,-1.0907162069826957 330.8,-1.2434494358242647 330.9,-1.3949555301961447 331.0,-1.545084971874743 331.1,-1.6936896012264036 331.2,-1.8406227634233447 331.3,-1.9857394531738657 331.4,-2.1288964578252694 331.5,-2.2699524986976485 331.6,-2.408768370508624 331.7,-2.5452070787517878 331.8,-2.6791339748950427 331.9,-2.8104168892605412 332.0,-2.9389262614624356 332.1,-3.0645352682649007 332.2,-3.1871199487434727 332.3,-3.3065593266182884 332.4,-3.4227355296433744 332.5,-3.535533905932726 332.6,-3.644843137107052 332.7,-3.7505553481522975 332.8,-3.8525662138789514 332.9,-3.950775061878418 333.0,-4.04508497187471 333.1,-4.135402871372787 333.2,-4.2216396275100205 333.3,-4.303710135019671 333.4,-4.3815334002192765 333.5,-4.455032620941804 333.6,-4.5241352623301285 333.7,-4.588773128419853 333.8,-4.648882429441289 333.9,-4.704403844771112 334.0,-4.755282581475778 334.1,-4.801468428384727 334.2,-4.84291580564315 334.3,-4.879583809693734 334.4,-4.911436253643442 334.5,-4.938441702975689 334.6,-4.96057350657239 334.7,-4.977809823015395 334.8,-4.990133642141355 334.9,-4.9975328018286564 335.0,-5.0 335.1,-4.997532801828654 335.2,-4.990133642141363 335.3,-4.977809823015394 335.4,-4.9605735065723975 335.5,-4.93844170297571 335.6,-4.911436253643426 335.7,-4.879583809693747 335.8,-4.842915805643147 335.9,-4.801468428384743 336.0,-4.755282581475774 336.1,-4.704403844771131 336.2,-4.648882429441259 336.3,-4.588773128419905 336.4,-4.524135262330093 336.5,-4.4550326209418625 336.6,-4.381533400219339 336.7,-4.303710135019736 336.8,-4.221639627510128 336.9,-4.13540287137286 337.0,-4.045084971874785 337.1,-3.9507750618784105 337.2,-3.852566213878989 337.3,-3.750555348152243 337.4,-3.644843137107141 337.5,-3.5355339059327178 337.6,-3.422735529643417 337.7,-3.3065593266182263 337.8,-3.1871199487434634 337.9,-3.0645352682649474 338.0,-2.9389262614623677 338.1,-2.810416889260649 338.2,-2.679133974894972 338.3,-2.545207078751899 338.4,-2.4087683705086134 338.5,-2.2699524986977644 338.6,-2.128896457825451 338.7,-1.985739453173985 338.8,-1.840622763423465 338.9,-1.6936896012265257 339.0,-1.5450849718747992 339.1,-1.3949555301960648 339.2,-1.2434494358243904 339.3,-1.0907162069826837 339.4,-0.9369065729286558 339.5,-0.7821723252011091 339.6,-0.6266661678215384 339.7,-0.4705415665925808 339.8,-0.31395259764656813 339.9,-0.15705379539063477 340.0,1.4708141202500006e-14 340.1,0.15705379539059314 340.2,0.3139525976465266 340.3,0.4705415665925394 340.4,0.6266661678214265 340.5,0.782172325201068 340.6,0.9369065729286846 340.7,1.090716206982643 340.8,1.24344943582435 340.9,1.3949555301960248 341.0,1.5450849718746242 341.1,1.6936896012264866 341.2,1.8406227634233605 341.3,1.9857394531739467 341.4,2.128896457825285 341.5,2.269952498697727 341.6,2.4087683705085765 341.7,2.5452070787518637 341.8,2.679133974894997 341.9,2.8104168892606145 342.0,2.938926261462335 342.1,3.064535268264858 342.2,3.1871199487433763 342.3,3.3065593266181947 342.4,3.4227355296433863 342.5,3.5355339059326885 342.6,3.6448431371071126 342.7,3.7505553481522154 342.8,3.8525662138790073 342.9,3.9507750618784288 343.0,4.045084971874761 343.1,4.135402871372837 343.2,4.2216396275100685 343.3,4.303710135019715 343.4,4.3815334002192845 343.5,4.455032620941844 343.6,4.524135262330105 343.7,4.588773128419888 343.8,4.648882429441244 343.9,4.704403844771117 344.0,4.75528258147574 344.1,4.801468428384692 344.2,4.842915805643137 344.3,4.879583809693722 344.4,4.911436253643432 344.5,4.93844170297567 344.6,4.960573506572402 344.7,4.977809823015397 344.8,4.990133642141361 344.9,4.997532801828655 345.0,5.0 345.1,4.997532801828658 345.2,4.990133642141358 345.3,4.977809823015399 345.4,4.960573506572387 345.5,4.9384417029756955 345.6,4.91143625364345 345.7,4.8795838096937425 345.8,4.8429158056431785 345.9,4.801468428384738 346.0,4.755282581475791 346.1,4.704403844771102 346.2,4.6488824294412785 346.3,4.588773128419869 346.4,4.524135262330146 346.5,4.455032620941855 346.6,4.381533400219296 346.7,4.303710135019764 346.8,4.221639627510081 346.9,4.13540287137285 347.0,4.045084971874734 347.1,3.950775061878444 347.2,3.8525662138789323 347.3,3.750555348152325 347.4,3.644843137107081 347.5,3.5355339059327555 347.6,3.422735529643508 347.7,3.30655932661832 347.8,3.1871199487435047 347.9,3.0645352682649336 348.0,2.9389262614624116 348.1,2.810416889260576 348.2,2.6791339748950778 348.3,2.5452070787518237 348.4,2.4087683705085983 348.5,2.269952498697686 348.6,2.1288964578253715 348.7,1.9857394531739039 348.8,1.8406227634233832 348.9,1.6936896012265095 349.0,1.5450849718747153 349.1,1.3949555301961847 349.2,1.243449435824305 349.3,1.0907162069827363 349.4,0.9369065729287087 349.5,0.7821723252012325 349.6,0.6266661678214508 349.7,0.47054156659263446 349.8,0.313952597646622 349.9,0.15705379539075967 350.0,1.102491609550912e-13 350.1,-0.1570537953906813 350.2,-0.3139525976465437 350.3,-0.47054156659262714 350.4,-0.6266661678214436 350.5,-0.782172325201155 350.6,-0.9369065729286318 350.7,-1.090716206982729 350.8,-1.2434494358242978 350.9,-1.3949555301961094 351.0,-1.5450849718747082 351.1,-1.6936896012264357 351.2,-1.84062276342331 351.3,-1.985739453173832 351.4,-2.1288964578253005 351.5,-2.269952498697679 351.6,-2.408768370508654 351.7,-2.5452070787517562 351.8,-2.6791339748950715 351.9,-2.8104168892606287 352.0,-2.938926261462348 352.1,-3.064535268264928 352.2,-3.187119948743389 352.3,-3.3065593266182614 352.4,-3.422735529643399 352.5,-3.5355339059327506 352.6,-3.6448431371070757 352.7,-3.7505553481522735 352.8,-3.852566213878928 352.9,-3.9507750618784394 353.0,-4.0450849718746875 353.1,-4.135402871372767 353.2,-4.221639627510039 353.3,-4.303710135019688 353.4,-4.381533400219293 353.5,-4.455032620941787 353.6,-4.524135262330143 353.7,-4.588773128419895 353.8,-4.648882429441276 353.9,-4.704403844771099 354.0,-4.755282581475766 354.1,-4.801468428384716 354.2,-4.842915805643159 354.3,-4.879583809693742 354.4,-4.911436253643422 354.5,-4.938441702975683 354.6,-4.960573506572386 354.7,-4.977809823015399 354.8,-4.990133642141353 354.9,-4.997532801828656 355.0,-5.0 355.1,-4.997532801828656 355.2,-4.990133642141361 355.3,-4.97780982301541 355.4,-4.960573506572402 355.5,-4.938441702975693 355.6,-4.9114362536434335 355.7,-4.879583809693755 355.8,-4.842915805643156 355.9,-4.801468428384734 356.0,-4.755282581475764 356.1,-4.70440384477112 356.2,-4.6488824294412465 356.3,-4.588773128419919 356.4,-4.524135262330108 356.5,-4.455032620941847 356.6,-4.3815334002193564 356.7,-4.303710135019755 356.8,-4.221639627510109 356.9,-4.135402871372841 357.0,-4.045084971874766 357.1,-3.9507750618783892 357.2,-3.852566213879012 357.3,-3.750555348152267 357.4,-3.6448431371070686 357.5,-3.5355339059326933 357.6,-3.4227355296434436 357.7,-3.3065593266183066 357.8,-3.1871199487434367 357.9,-3.0645352682649203 358.0,-2.93892626146234 358.1,-2.810416889260679 358.2,-2.679133974895003 358.3,-2.54520707875187 358.4,-2.4087683705086453 358.5,-2.269952498697797 358.6,-2.1288964578254204 358.7,-1.9857394531739534 358.8,-1.8406227634234336 358.9,-1.6936896012265603 359.0,-1.545084971874834 359.1,-1.3949555301961 359.2,-1.2434494358242885 359.3,-1.0907162069826501 359.4,-0.9369065729286918 359.5,-0.7821723252011453 359.6,-0.6266661678215044 359.7,-0.47054156659254665 359.8,-0.31395259764653394 359.9,-0.15705379539067146 360.0,-2.2043642384652358e-14 360.1,0.15705379539062742 360.2,0.3139525976464899 360.3,0.4705415665925028 360.4,0.6266661678214605 360.5,0.7821723252011019 360.6,0.9369065729287184 360.7,1.090716206982607 360.8,1.2434494358241768 360.9,1.3949555301961258 361.0,1.5450849718747244 361.1,1.6936896012265188 361.2,1.8406227634233263 361.3,1.9857394531739128 361.4,2.128896457825316 361.5,2.2699524986977577 361.6,2.4087683705086067 361.7,2.545207078751832 361.8,2.679133974894966 361.9,2.810416889260643 362.0,2.9389262614623046 362.1,3.0645352682648292 362.2,3.1871199487434025 362.3,3.306559326618221 362.4,3.422735529643411 362.5,3.5355339059326623 362.6,3.644843137107136 362.7,3.7505553481522846 362.8,3.8525662138789842 362.9,3.950775061878406 363.0,4.04508497187474 363.1,4.135402871372817 363.2,4.221639627510048 363.3,4.303710135019733 363.4,4.381533400219267 363.5,4.455032620941827 363.6,4.5241352623300894 363.7,4.588773128419901 363.8,4.64888242944123 363.9,4.704403844771105 364.0,4.75528258147575 364.1,4.801468428384702 364.2,4.842915805643146 364.3,4.879583809693714 364.4,4.9114362536434255 364.5,4.938441702975686 364.6,4.960573506572397 364.7,4.977809823015393 364.8,4.990133642141358 364.9,4.997532801828656 365.0,5.0 365.1,4.9975328018286564 365.2,4.990133642141355 365.3,4.977809823015402 365.4,4.960573506572391 365.5,4.93844170297569 365.6,4.911436253643457 365.7,4.879583809693751 365.8,4.84291580564317 365.9,4.801468428384728 366.0,4.755282581475781 366.1,4.70440384477109 366.2,4.648882429441292 366.3,4.588773128419913 366.4,4.524135262330101 366.5,4.455032620941871 366.6,4.381533400219314 366.7,4.303710135019746 366.8,4.221639627510062 366.9,4.135402871372832 367.0,4.045084971874714 367.1,3.950775061878466 367.2,3.8525662138789563 367.3,3.7505553481523024 367.4,3.644843137107106 367.5,3.5355339059327817 367.6,3.422735529643483 367.7,3.306559326618294 367.8,3.187119948743478 367.9,3.064535268264963 368.0,2.9389262614624414 368.1,2.8104168892606065 368.2,2.679133974894989 368.3,2.545207078751794 368.4,2.4087683705086302 368.5,2.2699524986977186 368.6,2.1288964578253404 368.7,1.9857394531739376 368.8,1.8406227634233514 368.9,1.6936896012265443 369.0,1.5450849718747501 369.1,1.3949555301961516 369.2,1.2434494358243406 369.3,1.090716206982772 369.4,0.9369065729286751 369.5,0.7821723252011986 369.6,0.6266661678215578 369.7,0.47054156659267105 369.8,0.3139525976466586 369.9,0.15705379539065434 370.0,4.892397390223529e-15 370.1,-0.15705379539071557 370.2,-0.31395259764650707 370.3,-0.47054156659259055 370.4,-0.6266661678214775 370.5,-0.782172325201189 370.6,-0.9369065729286654 370.7,-1.0907162069826932 370.8,-1.2434494358242623 370.9,-1.3949555301961425 371.0,-1.545084971874673 371.1,-1.6936896012264013 371.2,-1.840622763423342 371.3,-1.9857394531738635 371.4,-2.1288964578253315 371.5,-2.2699524986976463 371.6,-2.408768370508684 371.7,-2.5452070787518464 371.8,-2.6791339748949805 371.9,-2.810416889260598 372.0,-2.9389262614623184 372.1,-3.064535268264899 372.2,-3.187119948743416 372.3,-3.306559326618287 372.4,-3.4227355296433726 372.5,-3.5355339059327244 372.6,-3.6448431371070504 372.7,-3.750555348152296 372.8,-3.8525662138789047 372.9,-3.9507750618784163 373.0,-4.045084971874708 373.1,-4.1354028713727855 373.2,-4.221639627510058 373.3,-4.303710135019669 373.4,-4.381533400219276 373.5,-4.455032620941835 373.6,-4.524135262330128 373.7,-4.58877312841988 373.8,-4.6488824294412625 373.9,-4.704403844771111 374.0,-4.755282581475777 374.1,-4.801468428384726 374.2,-4.842915805643131 374.3,-4.879583809693734 374.4,-4.911436253643428 374.5,-4.938441702975688 374.6,-4.960573506572381 374.7,-4.977809823015395 374.8,-4.990133642141355 374.9,-4.9975328018286564 375.0,-5.0 375.1,-4.997532801828661 375.2,-4.990133642141363 375.3,-4.9778098230154 375.4,-4.9605735065723895 375.5,-4.938441702975698 375.6,-4.911436253643441 375.7,-4.879583809693747 375.8,-4.842915805643147 375.9,-4.801468428384724 376.0,-4.755282581475753 376.1,-4.704403844771132 376.2,-4.64888242944126 376.3,-4.588773128419906 376.4,-4.524135262330124 376.5,-4.455032620941864 376.6,-4.3815334002193405 376.7,-4.303710135019737 376.8,-4.221639627510092 376.9,-4.135402871372861 377.0,-4.045084971874787 377.1,-3.950775061878412 377.2,-3.852566213878945 377.3,-3.750555348152338 377.4,-3.644843137107094 377.5,-3.5355339059327697 377.6,-3.4227355296434188 377.7,-3.3065593266182813 377.8,-3.1871199487434105 377.9,-3.064535268264949 378.0,-2.9389262614623703 378.1,-2.810416889260651 378.2,-2.6791339748950342 378.3,-2.5452070787519014 378.4,-2.4087683705086156 378.5,-2.2699524986977666 378.6,-2.1288964578253893 378.7,-1.9857394531739871 378.8,-1.8406227634234675 378.9,-1.6936896012264613 379.0,-1.545084971874734 379.1,-1.394955530196067 379.2,-1.243449435824324 379.3,-1.0907162069826861 379.4,-0.9369065729286583 379.5,-0.7821723252011115 379.6,-0.6266661678214702 379.7,-0.470541566592654 379.8,-0.31395259764657063 379.9,-0.15705379539077924 380.0,-5.879542597180471e-14 380.1,0.1570537953905907 380.2,0.3139525976465241 380.3,0.47054156659253693 380.4,0.6266661678214946 380.5,0.7821723252010655 380.6,0.9369065729285426 380.7,1.0907162069827099 380.8,1.243449435824279 380.9,1.3949555301960905 381.0,1.5450849718746895 381.1,1.6936896012264844 381.2,1.8406227634233583 381.3,1.9857394531739445 381.4,2.1288964578252827 381.5,2.2699524986977253 381.6,2.4087683705085747 381.7,2.5452070787518615 381.8,2.6791339748949348 381.9,2.8104168892606123 382.0,2.938926261462332 382.1,3.0645352682648563 382.2,3.187119948743429 382.3,3.306559326618193 382.4,3.4227355296433846 382.5,3.535533905932737 382.6,3.6448431371071113 382.7,3.75055534815226 382.8,3.8525662138789607 382.9,3.950775061878427 383.0,4.045084971874719 383.1,4.135402871372835 383.2,4.2216396275100285 383.3,4.303710135019713 383.4,4.381533400219284 383.5,4.455032620941843 383.6,4.524135262330074 383.7,4.588773128419887 383.8,4.648882429441242 383.9,4.704403844771116 384.0,4.75528258147576 384.1,4.801468428384691 384.2,4.842915805643136 384.3,4.879583809693737 384.4,4.911436253643445 384.5,4.93844170297568 384.6,4.960573506572392 384.7,4.977809823015397 384.8,4.990133642141361 384.9,4.9975328018286564 385.0,5.0 385.1,4.997532801828658 385.2,4.9901336421413625 385.3,4.9778098230153995 385.4,4.960573506572405 385.5,4.938441702975696 385.6,4.91143625364345 385.7,4.879583809693743 385.8,4.842915805643161 385.9,4.801468428384739 386.0,4.755282581475791 386.1,4.704403844771127 386.2,4.648882429441254 386.3,4.588773128419927 386.4,4.524135262330117 386.5,4.455032620941856 386.6,4.381533400219298 386.7,4.303710135019728 386.8,4.2216396275100445 386.9,4.135402871372852 387.0,4.0450849718747355 387.1,3.9507750618784456 387.2,3.85256621387898 387.3,3.750555348152327 387.4,3.644843137107083 387.5,3.5355339059327573 387.6,3.4227355296434583 387.7,3.3065593266183217 387.8,3.1871199487435065 387.9,3.06453526826488 388.0,2.938926261462356 388.1,2.810416889260578 388.2,2.67913397489502 388.3,2.5452070787518255 388.4,2.4087683705086005 388.5,2.269952498697751 388.6,2.1288964578253093 388.7,1.9857394531739714 388.8,1.8406227634233854 388.9,1.6936896012265787 389.0,1.545084971874785 389.1,1.3949555301961871 389.2,1.2434494358243073 389.3,1.0907162069827385 389.4,0.9369065729286413 389.5,0.7821723252012349 389.6,0.6266661678215943 389.7,0.47054156659256613 389.8,0.3139525976465535 389.9,0.1570537953906911 390.0,4.164418097737589e-14 390.1,-0.15705379539067887 390.2,-0.31395259764654126 390.3,-0.4705415665926247 390.4,-0.6266661678214411 390.5,-0.7821723252011527 390.6,-0.9369065729286294 390.7,-1.0907162069827268 390.8,-1.2434494358242267 390.9,-1.394955530196039 391.0,-1.545084971874706 391.1,-1.6936896012264335 391.2,-1.840622763423374 391.3,-1.9857394531738297 391.4,-2.1288964578252982 391.5,-2.2699524986977404 391.6,-2.40876837050859 391.7,-2.545207078751815 391.8,-2.6791339748949494 391.9,-2.810416889260626 392.0,-2.9389262614623464 392.1,-3.0645352682649256 392.2,-3.187119948743388 392.3,-3.306559326618259 392.4,-3.4227355296433974 392.5,-3.535533905932749 392.6,-3.6448431371070256 392.7,-3.7505553481522718 392.8,-3.8525662138789265 392.9,-3.9507750618784376 393.0,-4.045084971874728 393.1,-4.135402871372765 393.2,-4.221639627510037 393.3,-4.303710135019722 393.4,-4.381533400219326 393.5,-4.455032620941818 393.6,-4.524135262330112 393.7,-4.588773128419893 393.8,-4.648882429441275 393.9,-4.7044038447711225 394.0,-4.755282581475743 394.1,-4.801468428384716 394.2,-4.84291580564314 394.3,-4.879583809693741 394.4,-4.911436253643421 394.5,-4.938441702975683 394.6,-4.960573506572386 394.7,-4.977809823015399 394.8,-4.990133642141357 394.9,-4.997532801828656 395.0,-5.0 395.1,-4.997532801828657 395.2,-4.990133642141357 395.3,-4.977809823015404 395.4,-4.960573506572394 395.5,-4.938441702975693 395.6,-4.911436253643434 395.7,-4.87958380969374 395.8,-4.842915805643139 395.9,-4.801468428384734 396.0,-4.755282581475765 396.1,-4.704403844771121 396.2,-4.648882429441273 396.3,-4.58877312841992 396.4,-4.524135262330139 396.5,-4.455032620941848 396.6,-4.381533400219324 396.7,-4.303710135019757 396.8,-4.221639627510111 396.9,-4.135402871372802 397.0,-4.045084971874725 397.1,-3.950775061878478 397.2,-3.8525662138789682 397.3,-3.7505553481523157 397.4,-3.6448431371070704 397.5,-3.5355339059327457 397.6,-3.4227355296433934 397.7,-3.3065593266183093 397.8,-3.1871199487434385 397.9,-3.0645352682649785 398.0,-2.9389262614623997 398.1,-2.810416889260681 398.2,-2.679133974895005 398.3,-2.545207078751872 398.4,-2.4087683705085854 398.5,-2.2699524986977995 398.6,-2.1288964578254226 398.7,-1.9857394531738903 398.8,-1.8406227634233696 398.9,-1.6936896012264957 399.0,-1.5450849718747688 399.1,-1.3949555301961023 399.2,-1.2434494358242907 399.3,-1.0907162069826526 399.4,-0.9369065729286943 399.5,-0.782172325201218 399.6,-0.6266661678215067 399.7,-0.47054156659269053 399.8,-0.31395259764660727 399.9,-0.15705379539074496 400.0,-2.4492935982947064e-14" stroke-width="1" stroke-linecap="round" stroke="#000000" fill="none"  />
<!-- Footer -->
</svg>
