<!-- Header -->
<svg
    version="1.1"
    baseProfile="full"
    xmlns="http://www.w3.org/2000/svg"
    xmlns:xlink="http://www.w3.org/1999/xlink"
    xmlns:ev="http://www.w3.org/2001/xml-events"
    width="110.0"
    height="20.0"
    viewBox="-5.0 -10.0 110.0 20.0"
    preserveAspectRatio="none"
>
<!-- Body -->
<!-- polyline -->
<polyline points="0.0,0.0 0.1,0.06283019941676304 0.2,0.1256504772166874 0.3,0.1884509133496727 0.4,0.25122159089884777 0.5,0.31395259764656686 0.6,0.3766340276396636 0.7,0.4392559827537158 0.8,0.5018085742560745 0.9,0.5642819243674084 1.0,0.6266661678215213 1.1,0.6889514534231904 1.2,0.7511279456037854 1.3,0.8131858259744179 1.4,0.8751152948763802 1.5,0.936906572928623 1.6,0.9985499025720351 1.7,1.0600355496102734 1.8,1.1213538047469058 1.9,1.1824949851186233 2.0,1.243449435824274 2.1,1.3042075314494848 2.2,1.3647596775866262 2.3,1.4250963123498803 2.4,1.4852079078851745 2.5,1.545084971874737 2.6,1.6047180490360473 2.7,1.6640977226149332 2.8,1.7232146158725854 2.9,1.7820593935662534 3.0,1.8406227634233896 3.1,1.8988954776090052 3.2,1.9568683341860122 3.3,2.014532178568313 3.4,2.0718779049664207 3.5,2.1288964578253635 3.6,2.1855788332546644 3.7,2.241916080450161 3.8,2.297899303107439 3.9,2.3535196608266626 4.0,2.4087683705085765 4.1,2.4636367077414576 4.2,2.518116008178804 4.3,2.572197668907532 4.4,2.6258731498064787 4.5,2.679133974894983 4.6,2.731971733671345 4.7,2.7843780824409397 4.8,2.8363447456337827 4.9,2.887863517111338 5.0,2.938926261462366 5.1,2.9895249152875936 5.2,3.039651488473027 5.3,3.089298065451671 5.4,3.1384568064535023 5.5,3.1871199487434483 5.6,3.2352798078472214 5.7,3.2829287787647825 5.8,3.330059337171258 5.9,3.3766640406051223 6.0,3.422735529643443 6.1,3.4682665290640244 6.2,3.5132498489942456 6.3,3.557678386046427 6.4,3.601545124439535 6.5,3.644843137107058 6.6,3.6875655867908694 6.7,3.7297057271209106 6.8,3.771256903680519 6.9,3.8122125550572394 7.0,3.852566213878946 7.1,3.8923115078351165 7.2,3.9314421606830945 7.3,3.9699519932391762 7.4,4.007834924354382 7.5,4.045084971874736 7.6,4.081696253585919 7.7,4.117662988142137 7.8,4.1529794959790625 7.9,4.1876402002107085 8.0,4.221639627510076 8.1,4.254972408973459 8.2,4.287633280968261 8.3,4.319617085964176 8.4,4.350918773347629 8.5,4.381533400219318 8.6,4.4114561321747665 8.7,4.440682244067722 8.8,4.469207120756319 8.9,4.497026257831855 9.0,4.524135262330098 9.1,4.550529853424978 9.2,4.576205863104587 9.3,4.601159236829352 9.4,4.6253860341722906 9.5,4.648882429441256 9.6,4.67164471228306 9.7,4.69366928826937 9.8,4.714952679464322 9.9,4.735491524973722 10.0,4.755282581475767 10.1,4.774322723733214 10.2,4.792608945086879 10.3,4.8101383579304295 10.4,4.82690819416637 10.5,4.842915805643155 10.6,4.858158664573369 10.7,4.872634363932885 10.8,4.886340617840967 10.9,4.899275261921234 11.0,4.911436253643443 11.1,4.922821672646027 11.2,4.9334297210393405 11.3,4.943258723689571 11.4,4.952307128483256 11.5,4.960573506572389 11.6,4.968056552600042 11.7,4.9747550849065005 11.8,4.980668045715863 11.9,4.98579450130307 12.0,4.990133642141358 12.1,4.993684783030087 12.2,4.996447363202946 12.3,4.9984209464165 12.4,4.99960522101908 12.5,5.0 12.6,4.99960522101908 12.7,4.9984209464165 12.8,4.996447363202946 12.9,4.993684783030087 13.0,4.990133642141358 13.1,4.98579450130307 13.2,4.980668045715863 13.3,4.9747550849065005 13.4,4.968056552600042 13.5,4.9605735065723895 13.6,4.952307128483256 13.7,4.943258723689571 13.8,4.9334297210393405 13.9,4.922821672646027 14.0,4.911436253643443 14.1,4.899275261921234 14.2,4.886340617840967 14.3,4.872634363932885 14.4,4.85815866457337 14.5,4.842915805643155 14.6,4.82690819416637 14.7,4.8101383579304295 14.8,4.792608945086879 14.9,4.774322723733214 15.0,4.755282581475768 15.1,4.735491524973722 15.2,4.714952679464322 15.3,4.69366928826937 15.4,4.67164471228306 15.5,4.648882429441257 15.6,4.6253860341722906 15.7,4.601159236829352 15.8,4.576205863104588 15.9,4.550529853424979 16.0,4.524135262330097 16.1,4.4970262578318545 16.2,4.4692071207563195 16.3,4.440682244067723 16.4,4.411456132174767 16.5,4.381533400219317 16.6,4.350918773347629 16.7,4.319617085964177 16.8,4.287633280968261 16.9,4.25497240897346 17.0,4.221639627510075 17.1,4.1876402002107085 17.2,4.152979495979063 17.3,4.117662988142136 17.4,4.08169625358592 17.5,4.045084971874737 17.6,4.007834924354382 17.7,3.9699519932391776 17.8,3.931442160683094 17.9,3.8923115078351174 18.0,3.852566213878946 18.1,3.812212555057239 18.2,3.77125690368052 18.3,3.7297057271209093 18.4,3.6875655867908708 18.5,3.644843137107057 18.6,3.6015451244395336 18.7,3.5576783860464274 18.8,3.513249848994246 18.9,3.468266529064026 19.0,3.422735529643444 19.1,3.3766640406051214 19.2,3.3300593371712583 19.3,3.282928778764782 19.4,3.2352798078472227 19.5,3.187119948743449 19.6,3.138456806453501 19.7,3.0892980654516733 19.8,3.0396514884730266 19.9,2.9895249152875953 20.0,2.9389262614623664 20.1,2.887863517111338 20.2,2.8363447456337836 20.3,2.784378082440939 20.4,2.731971733671348 20.5,2.679133974894985 20.6,2.6258731498064765 20.7,2.572197668907533 20.8,2.5181160081788043 20.9,2.463636707741458 21.0,2.408768370508576 21.1,2.353519660826662 21.2,2.297899303107442 21.3,2.2419160804501597 21.4,2.185578833254666 21.5,2.1288964578253644 21.6,2.0718779049664215 21.7,2.014532178568314 21.8,1.9568683341860118 21.9,1.898895477609007 22.0,1.8406227634233907 22.1,1.7820593935662519 22.2,1.7232146158725872 22.3,1.6640977226149347 22.4,1.6047180490360486 22.5,1.5450849718747375 22.6,1.4852079078851745 22.7,1.4250963123498823 22.8,1.3647596775866253 22.9,1.3042075314494852 23.0,1.2434494358242763 23.1,1.1824949851186253 23.2,1.1213538047469072 23.3,1.060035549610274 23.4,0.9985499025720375 23.5,0.9369065729286229 23.6,0.8751152948763794 23.7,0.8131858259744189 23.8,0.7511279456037856 23.9,0.6889514534231923 24.0,0.6266661678215226 24.1,0.5642819243674093 24.2,0.501808574256075 24.3,0.43925598275371575 24.4,0.3766340276396652 24.5,0.3139525976465679 24.6,0.2512215908988461 24.7,0.18845091334967268 24.8,0.12565047721668907 24.9,0.06283019941676418 25.0,6.123233995736766e-16 25.1,-0.06283019941676296 25.2,-0.12565047721668562 25.3,-0.18845091334967368 25.4,-0.2512215908988471 25.5,-0.31395259764656674 25.6,-0.37663402763966397 25.7,-0.4392559827537146 25.8,-0.5018085742560736 25.9,-0.564281924367406 26.0,-0.6266661678215214 26.1,-0.6889514534231911 26.2,-0.7511279456037844 26.3,-0.8131858259744176 26.4,-0.8751152948763805 26.5,-0.9369065729286239 26.6,-0.9985499025720341 26.7,-1.0600355496102707 26.8,-1.121353804746906 26.9,-1.182494985118622 27.0,-1.243449435824273 27.1,-1.304207531449484 27.2,-1.3647596775866262 27.3,-1.425096312349881 27.4,-1.4852079078851712 27.5,-1.5450849718747364 27.6,-1.6047180490360473 27.7,-1.6640977226149314 27.8,-1.723214615872584 27.9,-1.782059393566253 28.0,-1.8406227634233896 28.1,-1.898895477609006 28.2,-1.956868334186013 28.3,-2.014532178568315 28.4,-2.071877904966418 28.5,-2.1288964578253613 28.6,-2.1855788332546653 28.7,-2.24191608045016 28.8,-2.297899303107439 28.9,-2.353519660826663 29.0,-2.408768370508577 29.1,-2.463636707741459 29.2,-2.5181160081788017 29.3,-2.572197668907532 29.4,-2.625873149806477 29.5,-2.6791339748949823 29.6,-2.731971733671345 29.7,-2.7843780824409397 29.8,-2.8363447456337827 29.9,-2.8878635171113354 30.0,-2.9389262614623632 30.1,-2.989524915287596 30.2,-3.0396514884730252 30.3,-3.0892980654516706 30.4,-3.138456806453502 30.5,-3.1871199487434483 30.6,-3.235279807847222 30.7,-3.2829287787647807 30.8,-3.330059337171259 30.9,-3.37666404060512 31.0,-3.422735529643442 31.1,-3.4682665290640236 31.2,-3.5132498489942456 31.3,-3.557678386046426 31.4,-3.601545124439533 31.5,-3.644843137107058 31.6,-3.6875655867908703 31.7,-3.729705727120909 31.8,-3.7712569036805177 31.9,-3.8122125550572394 32.0,-3.852566213878947 32.1,-3.892311507835118 32.2,-3.931442160683096 32.3,-3.9699519932391754 32.4,-4.007834924354382 32.5,-4.045084971874736 32.6,-4.081696253585919 32.7,-4.117662988142137 32.8,-4.152979495979061 32.9,-4.187640200210709 33.0,-4.2216396275100765 33.1,-4.25497240897346 33.2,-4.287633280968261 33.3,-4.319617085964175 33.4,-4.350918773347628 33.5,-4.381533400219318 33.6,-4.4114561321747665 33.7,-4.440682244067723 33.8,-4.469207120756318 33.9,-4.4970262578318545 34.0,-4.524135262330099 34.1,-4.550529853424978 34.2,-4.576205863104588 34.3,-4.60115923682935 34.4,-4.6253860341722906 34.5,-4.648882429441257 34.6,-4.671644712283061 34.7,-4.693669288269371 34.8,-4.7149526794643215 34.9,-4.735491524973721 35.0,-4.755282581475767 35.1,-4.774322723733214 35.2,-4.792608945086879 35.3,-4.810138357930429 35.4,-4.826908194166369 35.5,-4.842915805643156 35.6,-4.85815866457337 35.7,-4.872634363932886 35.8,-4.8863406178409665 35.9,-4.899275261921234 36.0,-4.911436253643443 36.1,-4.922821672646027 36.2,-4.9334297210393405 36.3,-4.94325872368957 36.4,-4.952307128483256 36.5,-4.960573506572389 36.6,-4.968056552600043 36.7,-4.974755084906501 36.8,-4.980668045715862 36.9,-4.98579450130307 37.0,-4.990133642141358 37.1,-4.993684783030087 37.2,-4.996447363202947 37.3,-4.9984209464165 37.4,-4.99960522101908 37.5,-5.0 37.6,-4.99960522101908 37.7,-4.9984209464165 37.8,-4.996447363202947 37.9,-4.993684783030088 38.0,-4.990133642141358 38.1,-4.98579450130307 38.2,-4.980668045715862 38.3,-4.974755084906501 38.4,-4.968056552600042 38.5,-4.9605735065723895 38.6,-4.952307128483256 38.7,-4.94325872368957 38.8,-4.9334297210393405 38.9,-4.922821672646027 39.0,-4.911436253643443 39.1,-4.899275261921235 39.2,-4.8863406178409665 39.3,-4.872634363932887 39.4,-4.85815866457337 39.5,-4.842915805643155 39.6,-4.826908194166369 39.7,-4.810138357930429 39.8,-4.792608945086879 39.9,-4.774322723733215 40.0,-4.755282581475768 40.1,-4.735491524973722 40.2,-4.714952679464322 40.3,-4.693669288269372 40.4,-4.6716447122830616 40.5,-4.648882429441258 40.6,-4.62538603417229 40.7,-4.601159236829351 40.8,-4.57620586310459 40.9,-4.550529853424979 41.0,-4.524135262330099 41.1,-4.4970262578318545 41.2,-4.469207120756317 41.3,-4.440682244067724 41.4,-4.411456132174767 41.5,-4.3815334002193165 41.6,-4.350918773347629 41.7,-4.3196170859641745 41.8,-4.287633280968262 41.9,-4.254972408973462 42.0,-4.221639627510075 42.1,-4.18764020021071 42.2,-4.1529794959790625 42.3,-4.117662988142138 42.4,-4.081696253585923 42.5,-4.045084971874738 42.6,-4.0078349243543805 42.7,-3.969951993239177 42.8,-3.9314421606830967 42.9,-3.892311507835116 43.0,-3.852566213878948 43.1,-3.8122125550572377 43.2,-3.77125690368052 43.3,-3.7297057271209146 43.4,-3.6875655867908703 43.5,-3.6448431371070606 43.6,-3.601545124439534 43.7,-3.557678386046423 43.8,-3.5132498489942483 43.9,-3.468266529064027 44.0,-3.422735529643445 44.1,-3.3766640406051236 44.2,-3.3300593371712557 44.3,-3.282928778764786 44.4,-3.235279807847225 44.5,-3.1871199487434483 44.6,-3.138456806453505 44.7,-3.0892980654516706 44.8,-3.0396514884730284 44.9,-2.989524915287596 45.0,-2.938926261462367 45.1,-2.887863517111342 45.2,-2.8363447456337827 45.3,-2.784378082440943 45.4,-2.7319717336713483 45.5,-2.6791339748949854 45.6,-2.625873149806477 45.7,-2.572197668907534 45.8,-2.518116008178805 45.9,-2.4636367077414585 46.0,-2.4087683705085805 46.1,-2.3535196608266626 46.2,-2.2978993031074424 46.3,-2.241916080450164 46.4,-2.185578833254667 46.5,-2.128896457825365 46.6,-2.071877904966422 46.7,-2.0145321785683103 46.8,-1.9568683341860167 46.9,-1.8988954776090095 47.0,-1.8406227634233894 47.1,-1.7820593935662565 47.2,-1.7232146158725836 47.3,-1.6640977226149354 47.4,-1.604718049036049 47.5,-1.5450849718747381 47.6,-1.4852079078851752 47.7,-1.4250963123498808 47.8,-1.36475967758663 47.9,-1.304207531449488 48.0,-1.2434494358242767 48.1,-1.1824949851186215 48.2,-1.1213538047469078 48.3,-1.0600355496102745 48.4,-0.9985499025720359 48.5,-0.9369065729286234 48.6,-0.8751152948763801 48.7,-0.8131858259744217 48.8,-0.7511279456037884 48.9,-0.6889514534231929 49.0,-0.6266661678215233 49.1,-0.56428192436741 49.2,-0.5018085742560711 49.3,-0.4392559827537208 49.4,-0.3766340276396636 49.5,-0.3139525976465663 49.6,-0.2512215908988511 49.7,-0.18845091334967107 49.8,-0.12565047721668968 49.9,-0.06283019941676479 50.0,-1.2246467991473533e-15 50.1,0.06283019941676235 50.2,0.12565047721668723 50.3,0.18845091334967307 50.4,0.2512215908988442 50.5,0.3139525976465639 50.6,0.3766340276396656 50.7,0.43925598275371397 50.8,0.5018085742560731 50.9,0.5642819243674075 51.0,0.6266661678215208 51.1,0.6889514534231905 51.2,0.751127945603786 51.3,0.8131858259744149 51.4,0.8751152948763775 51.5,0.936906572928621 51.6,0.9985499025720335 51.7,1.0600355496102765 51.8,1.121353804746901 51.9,1.1824949851186233 52.0,1.2434494358242745 52.1,1.3042075314494856 52.2,1.3647596775866278 52.3,1.425096312349874 52.4,1.485207907885173 52.5,1.545084971874736 52.6,1.6047180490360469 52.7,1.6640977226149332 52.8,1.7232146158725856 52.9,1.78205939356625 53.0,1.840622763423391 53.1,1.898895477609003 53.2,1.9568683341860102 53.3,2.014532178568312 53.4,2.0718779049664158 53.5,2.1288964578253626 53.6,2.185578833254665 53.7,2.241916080450162 53.8,2.297899303107436 53.9,2.3535196608266644 54.0,2.4087683705085743 54.1,2.4636367077414563 54.2,2.5181160081788034 54.3,2.5721976689075277 54.4,2.6258731498064787 54.5,2.67913397489498 54.6,2.731971733671346 54.7,2.7843780824409414 54.8,2.836344745633777 54.9,2.8878635171113363 55.0,2.9389262614623646 55.1,2.9895249152875936 55.2,3.039651488473027 55.3,3.089298065451672 55.4,3.1384568064534997 55.5,3.18711994874345 55.6,3.2352798078472196 55.7,3.2829287787647843 55.8,3.3300593371712575 55.9,3.3766640406051183 56.0,3.422735529643443 56.1,3.4682665290640244 56.2,3.5132498489942465 56.3,3.5576783860464243 56.4,3.601545124439536 56.5,3.644843137107056 56.6,3.687565586790871 56.7,3.72970572712091 56.8,3.7712569036805155 56.9,3.8122125550572394 57.0,3.8525662138789434 57.1,3.892311507835118 57.2,3.931442160683096 57.3,3.9699519932391727 57.4,4.007834924354381 57.5,4.045084971874739 57.6,4.081696253585919 57.7,4.117662988142136 57.8,4.152979495979063 57.9,4.187640200210707 58.0,4.221639627510076 58.1,4.254972408973458 58.2,4.2876332809682625 58.3,4.319617085964175 58.4,4.350918773347626 58.5,4.381533400219318 58.6,4.4114561321747665 58.7,4.440682244067723 58.8,4.469207120756317 58.9,4.497026257831856 59.0,4.5241352623300966 59.1,4.55052985342498 59.2,4.576205863104587 59.3,4.60115923682935 59.4,4.6253860341722906 59.5,4.648882429441255 59.6,4.671644712283061 59.7,4.693669288269371 59.8,4.71495267946432 59.9,4.735491524973721 60.0,4.755282581475766 60.1,4.774322723733214 60.2,4.792608945086881 60.3,4.810138357930428 60.4,4.826908194166368 60.5,4.842915805643156 60.6,4.858158664573368 60.7,4.872634363932886 60.8,4.8863406178409665 60.9,4.899275261921233 61.0,4.911436253643443 61.1,4.922821672646026 61.2,4.9334297210393405 61.3,4.94325872368957 61.4,4.952307128483256 61.5,4.960573506572389 61.6,4.968056552600043 61.7,4.9747550849065005 61.8,4.980668045715862 61.9,4.98579450130307 62.0,4.990133642141358 62.1,4.993684783030087 62.2,4.996447363202946 62.3,4.9984209464165 62.4,4.99960522101908 62.5,5.0 62.6,4.99960522101908 62.7,4.9984209464165 62.8,4.996447363202947 62.9,4.993684783030088 63.0,4.990133642141358 63.1,4.98579450130307 63.2,4.980668045715862 63.3,4.9747550849065005 63.4,4.968056552600043 63.5,4.9605735065723895 63.6,4.952307128483256 63.7,4.943258723689571 63.8,4.9334297210393405 63.9,4.922821672646027 64.0,4.911436253643443 64.1,4.899275261921235 64.2,4.8863406178409665 64.3,4.872634363932886 64.4,4.858158664573368 64.5,4.842915805643155 64.6,4.8269081941663705 64.7,4.810138357930429 64.8,4.79260894508688 64.9,4.774322723733214 65.0,4.755282581475768 65.1,4.735491524973724 65.2,4.714952679464322 65.3,4.693669288269372 65.4,4.67164471228306 65.5,4.648882429441258 65.6,4.625386034172293 65.7,4.601159236829353 65.8,4.576205863104587 65.9,4.550529853424979 66.0,4.5241352623300966 66.1,4.497026257831855 66.2,4.469207120756317 66.3,4.440682244067722 66.4,4.411456132174768 66.5,4.3815334002193165 66.6,4.350918773347629 66.7,4.319617085964175 66.8,4.287633280968262 66.9,4.254972408973457 67.0,4.221639627510076 67.1,4.18764020021071 67.2,4.1529794959790625 67.3,4.117662988142138 67.4,4.0816962535859185 67.5,4.045084971874738 67.6,4.007834924354386 67.7,3.969951993239177 67.8,3.9314421606830976 67.9,3.8923115078351165 68.0,3.852566213878943 68.1,3.812212555057244 68.2,3.7712569036805204 68.3,3.729705727120915 68.4,3.6875655867908703 68.5,3.644843137107055 68.6,3.6015451244395407 68.7,3.5576783860464234 68.8,3.5132498489942456 68.9,3.468266529064021 69.0,3.422735529643442 69.1,3.3766640406051236 69.2,3.330059337171256 69.3,3.2829287787647834 69.4,3.2352798078472182 69.5,3.1871199487434487 69.6,3.1384568064535054 69.7,3.089298065451671 69.8,3.0396514884730292 69.9,2.9895249152875927 70.0,2.938926261462367 70.1,2.8878635171113425 70.2,2.836344745633783 70.3,2.7843780824409436 70.4,2.731971733671345 70.5,2.6791339748949863 70.6,2.625873149806485 70.7,2.5721976689075268 70.8,2.5181160081788097 70.9,2.463636707741459 71.0,2.4087683705085734 71.1,2.353519660826671 71.2,2.2978993031074353 71.3,2.2419160804501606 71.4,2.1855788332546595 71.5,2.1288964578253617 71.6,2.0718779049664224 71.7,2.014532178568311 71.8,1.956868334186013 71.9,1.898895477609002 72.0,1.8406227634233898 72.1,1.7820593935662572 72.2,1.723214615872584 72.3,1.6640977226149358 72.4,1.6047180490360455 72.5,1.545084971874739 72.6,1.4852079078851799 72.7,1.4250963123498814 72.8,1.3647596775866306 72.9,1.3042075314494843 73.0,1.2434494358242774 73.1,1.1824949851186308 73.2,1.1213538047468998 73.3,1.0600355496102796 73.4,0.9985499025720278 73.5,0.9369065729286197 73.6,0.8751152948763894 73.7,0.8131858259744135 73.8,0.7511279456037846 73.9,0.6889514534231846 74.0,0.6266661678215195 74.1,0.5642819243674106 74.2,0.5018085742560716 74.3,0.439255982753717 74.4,0.3766340276396598 74.5,0.3139525976465669 74.6,0.25122159089885177 74.7,0.18845091334967168 74.8,0.1256504772166903 74.9,0.06283019941676096 75.0,1.8369701987210296e-15 75.1,-0.0628301994167573 75.2,-0.12565047721668662 75.3,-0.18845091334966801 75.4,-0.25122159089884805 75.5,-0.31395259764656325 75.6,-0.37663402763965614 75.7,-0.43925598275372213 75.8,-0.5018085742560681 75.9,-0.5642819243674158 76.0,-0.6266661678215159 76.1,-0.6889514534231811 76.2,-0.7511279456037898 76.3,-0.8131858259744098 76.4,-0.8751152948763857 76.5,-0.9369065729286248 76.6,-0.9985499025720241 76.7,-1.060035549610276 76.8,-1.1213538047469047 76.9,-1.182494985118627 77.0,-1.2434494358242738 77.1,-1.3042075314494808 77.2,-1.364759677586627 77.3,-1.4250963123498779 77.4,-1.4852079078851765 77.5,-1.5450849718747353 77.6,-1.604718049036042 77.7,-1.6640977226149325 77.8,-1.723214615872581 77.9,-1.7820593935662536 78.0,-1.8406227634233863 78.1,-1.8988954776089986 78.2,-1.9568683341860096 78.3,-2.0145321785683072 78.4,-2.0718779049664273 78.5,-2.128896457825358 78.6,-2.185578833254656 78.7,-2.2419160804501654 78.8,-2.2978993031074317 78.9,-2.3535196608266675 79.0,-2.408768370508578 79.1,-2.4636367077414483 79.2,-2.518116008178807 79.3,-2.572197668907531 79.4,-2.625873149806482 79.5,-2.6791339748949827 79.6,-2.731971733671342 79.7,-2.784378082440941 79.8,-2.83634474563378 79.9,-2.88786351711134 80.0,-2.938926261462364 80.1,-2.9895249152875896 80.2,-3.0396514884730266 80.3,-3.0892980654516675 80.4,-3.1384568064535023 80.5,-3.1871199487434456 80.6,-3.2352798078472156 80.7,-3.2829287787647803 80.8,-3.3300593371712535 80.9,-3.376664040605127 81.0,-3.422735529643439 81.1,-3.4682665290640182 81.2,-3.513249848994249 81.3,-3.5576783860464207 81.4,-3.601545124439538 81.5,-3.6448431371070527 81.6,-3.687565586790862 81.7,-3.729705727120913 81.8,-3.771256903680518 81.9,-3.8122125550572363 82.0,-3.8525662138789403 82.1,-3.892311507835109 82.2,-3.931442160683095 82.3,-3.9699519932391745 82.4,-4.007834924354389 82.5,-4.045084971874731 82.6,-4.081696253585917 82.7,-4.117662988142136 82.8,-4.152979495979061 82.9,-4.187640200210713 83.0,-4.221639627510078 83.1,-4.2549724089734555 83.2,-4.28763328096826 83.3,-4.319617085964173 83.4,-4.350918773347631 83.5,-4.38153340021932 83.6,-4.411456132174766 83.7,-4.4406822440677205 83.8,-4.469207120756315 83.9,-4.497026257831857 84.0,-4.524135262330098 84.1,-4.550529853424977 84.2,-4.576205863104585 84.3,-4.601159236829347 84.4,-4.625386034172292 84.5,-4.648882429441256 84.6,-4.671644712283058 84.7,-4.693669288269367 84.8,-4.714952679464318 84.9,-4.735491524973722 85.0,-4.755282581475767 85.1,-4.7743227237332135 85.2,-4.792608945086882 85.3,-4.810138357930428 85.4,-4.82690819416637 85.5,-4.8429158056431545 85.6,-4.858158664573367 85.7,-4.872634363932887 85.8,-4.886340617840968 85.9,-4.899275261921233 86.0,-4.911436253643442 86.1,-4.922821672646025 86.2,-4.933429721039341 86.3,-4.943258723689571 86.4,-4.952307128483255 86.5,-4.960573506572389 86.6,-4.968056552600041 86.7,-4.9747550849065005 86.8,-4.980668045715862 86.9,-4.985794501303069 87.0,-4.990133642141357 87.1,-4.993684783030087 87.2,-4.996447363202946 87.3,-4.9984209464165 87.4,-4.99960522101908 87.5,-5.0 87.6,-4.99960522101908 87.7,-4.9984209464165 87.8,-4.996447363202947 87.9,-4.993684783030087 88.0,-4.990133642141358 88.1,-4.9857945013030704 88.2,-4.980668045715863 88.3,-4.974755084906501 88.4,-4.968056552600041 88.5,-4.960573506572389 88.6,-4.952307128483257 88.7,-4.943258723689571 88.8,-4.933429721039342 88.9,-4.922821672646026 89.0,-4.911436253643443 89.1,-4.899275261921235 89.2,-4.886340617840968 89.3,-4.872634363932888 89.4,-4.858158664573368 89.5,-4.842915805643156 89.6,-4.8269081941663705 89.7,-4.810138357930432 89.8,-4.79260894508688 89.9,-4.774322723733214 90.0,-4.755282581475769 90.1,-4.735491524973724 90.2,-4.714952679464326 90.3,-4.693669288269372 90.4,-4.67164471228306 90.5,-4.648882429441258 90.6,-4.625386034172293 90.7,-4.601159236829349 90.8,-4.57620586310459 90.9,-4.55052985342498 91.0,-4.5241352623301 91.1,-4.497026257831859 91.2,-4.469207120756317 91.3,-4.440682244067722 91.4,-4.411456132174768 91.5,-4.381533400219322 91.6,-4.3509187733476296 91.7,-4.319617085964175 91.8,-4.2876332809682625 91.9,-4.254972408973462 92.0,-4.22163962751008 92.1,-4.187640200210711 92.2,-4.1529794959790625 92.3,-4.117662988142139 92.4,-4.081696253585924 92.5,-4.045084971874738 92.6,-4.007834924354387 92.7,-3.9699519932391776 92.8,-3.9314421606830976 92.9,-3.8923115078351116 93.0,-3.852566213878949 93.1,-3.8122125550572443 93.2,-3.771256903680521 93.3,-3.729705727120915 93.4,-3.6875655867908645 93.5,-3.6448431371070553 93.6,-3.601545124439541 93.7,-3.55767838604643 93.8,-3.513249848994252 93.9,-3.4682665290640213 94.0,-3.4227355296434423 94.1,-3.376664040605124 94.2,-3.330059337171263 94.3,-3.2829287787647834 94.4,-3.2352798078472187 94.5,-3.1871199487434487 94.6,-3.1384568064535054 94.7,-3.089298065451678 94.8,-3.0396514884730297 94.9,-2.989524915287593 95.0,-2.9389262614623672 95.1,-2.8878635171113434 95.2,-2.8363447456337836 95.3,-2.784378082440944 95.4,-2.7319717336713456 95.5,-2.6791339748949867 95.6,-2.6258731498064853 95.7,-2.572197668907527 95.8,-2.51811600817881 95.9,-2.4636367077414594 96.0,-2.4087683705085814 96.1,-2.3535196608266635 96.2,-2.2978993031074357 96.3,-2.241916080450169 96.4,-2.185578833254668 96.5,-2.12889645782537 96.6,-2.0718779049664233 96.7,-2.0145321785683112 96.8,-1.9568683341860136 96.9,-1.8988954776090106 97.0,-1.8406227634233905 97.1,-1.7820593935662576 97.2,-1.7232146158725847 97.3,-1.6640977226149365 97.4,-1.6047180490360544 97.5,-1.5450849718747395 97.6,-1.4852079078851808 97.7,-1.4250963123498819 97.8,-1.364759677586631 97.9,-1.304207531449485 98.0,-1.243449435824278 98.1,-1.1824949851186313 98.2,-1.121353804746909 98.3,-1.06003554961028 98.4,-0.9985499025720285 98.5,-0.936906572928629 98.6,-0.8751152948763901 98.7,-0.8131858259744229 98.8,-0.7511279456037852 98.9,-0.6889514534231854 99.0,-0.6266661678215201 99.1,-0.5642819243674201 99.2,-0.5018085742560812 99.3,-0.4392559827537176 99.4,-0.37663402763966036 99.5,-0.3139525976465676 99.6,-0.2512215908988524 99.7,-0.1884509133496723 99.8,-0.1256504772166909 99.9,-0.06283019941676157 100.0,-2.4492935982947065e-15" stroke-width="1" stroke-linecap="round" stroke="#000000" fill="none"  />
<!-- Footer -->
</svg>
