<!-- Header -->
<svg
    version="1.1"
    baseProfile="full"
    xmlns="http://www.w3.org/2000/svg"
    xmlns:xlink="http://www.w3.org/1999/xlink"
    xmlns:ev="http://www.w3.org/2001/xml-events"
    width="210.0"
    height="20.0"
    viewBox="-5.0 -10.0 210.0 20.0"
    preserveAspectRatio="none"
>
<!-- Body -->
<!-- polyline -->
<polyline points="0.0,0.0 0.1,0.015707937429397818 0.2,0.03141571982779476 0.3,0.04712319216572003 0.4,0.06283019941676304 0.5,0.07853658655910338 0.6,0.09424219857704087 0.7,0.10994688046252553 0.8,0.1256504772166874 0.9,0.14135283385136627 1.0,0.15705379539064146 1.1,0.17275320687236137 1.2,0.1884509133496727 1.3,0.20414675989255 1.4,0.2198405915893245 1.5,0.23553225354821328 1.6,0.25122159089884777 1.7,0.2669084487938024 1.8,0.28259267241012265 1.9,0.2982741069508535 2.0,0.31395259764656686 2.1,0.3296279897568893 2.2,0.34530012857202896 2.3,0.3609688594143029 2.4,0.3766340276396636 2.5,0.3922954786392247 2.6,0.4079530578407877 2.7,0.4236066107103672 2.8,0.4392559827537158 2.9,0.45490101951784956 3.0,0.47054156659257157 3.1,0.4861774696119966 3.2,0.5018085742560745 3.3,0.5174347262521126 3.4,0.5330557713762996 3.5,0.5486715554552264 3.6,0.5642819243674084 3.7,0.5798867240448068 3.8,0.5954858004743486 3.9,0.6110789996994471 4.0,0.6266661678215213 4.1,0.6422471510015142 4.2,0.6578217954614125 4.3,0.673389947485763 4.4,0.6889514534231904 4.5,0.7045061596879133 4.6,0.7200539127612606 4.7,0.7355945591931868 4.8,0.7511279456037854 4.9,0.7666539186848033 5.0,0.7821723252011543 5.1,0.7976830119924314 5.2,0.8131858259744179 5.3,0.8286806141405983 5.4,0.8441672235636694 5.5,0.8596455013970477 5.6,0.8751152948763802 5.7,0.8905764513210507 5.8,0.9060288181356867 5.9,0.9214722428116666 6.0,0.936906572928623 6.1,0.9523316561559493 6.2,0.9677473402543012 6.3,0.9831534730771002 6.4,0.9985499025720351 6.5,1.0139364767825625 6.6,1.0293130438494067 6.7,1.0446794520120586 6.8,1.0600355496102734 6.9,1.0753811850855668 7.0,1.0907162069827128 7.1,1.1060404639512353 7.2,1.1213538047469058 7.3,1.136656078233232 7.4,1.151947133382953 7.5,1.1672268192795268 7.6,1.1824949851186233 7.7,1.1977514802096092 7.8,1.212996153977037 7.9,1.2282288559621317 8.0,1.243449435824274 8.1,1.2586577433424853 8.2,1.2738536284169104 8.3,1.2890369410702993 8.4,1.3042075314494848 8.5,1.3193652498268647 8.6,1.334509946601878 8.7,1.3496414723024817 8.8,1.3647596775866262 8.9,1.3798644132437288 9.0,1.3949555301961465 9.1,1.410032879500647 9.2,1.4250963123498803 9.3,1.440145680073846 9.4,1.455180834141359 9.5,1.4702016261615198 9.6,1.4852079078851745 9.7,1.500199531206381 9.8,1.51517634816387 9.9,1.530138210942504 10.0,1.545084971874737 10.1,1.560016483442074 10.2,1.5749325982765237 10.3,1.589833169162055 10.4,1.6047180490360473 10.5,1.619587090990747 10.6,1.634440148274712 10.7,1.6492770742942642 10.8,1.6640977226149332 10.9,1.6789019469629032 11.0,1.6936896012264568 11.1,1.7084605394574162 11.2,1.7232146158725854 11.3,1.7379516848551853 11.4,1.752671600956295 11.5,1.7673742188962853 11.6,1.7820593935662534 11.7,1.796726980029453 11.8,1.8113768335227285 11.9,1.8260088094579392 12.0,1.8406227634233896 12.1,1.855218551185255 12.2,1.8697960286890019 12.3,1.8843550520608134 12.4,1.8988954776090052 12.5,1.913417161825449 12.6,1.9279199613869824 12.7,1.9424037331568302 12.8,1.9568683341860122 12.9,1.9713136217147547 13.0,1.985739453173903 13.1,2.0001456861863236 13.2,2.014532178568313 13.3,2.028898788331 13.4,2.0432453736817453 13.5,2.0575717930255437 13.6,2.0718779049664207 13.7,2.086163568308826 13.8,2.1004286420590312 13.9,2.114672985426516 14.0,2.1288964578253635 14.1,2.143098918875642 14.2,2.1572802284047947 14.3,2.171440246449023 14.4,2.1855788332546644 14.5,2.1996958492795757 14.6,2.213791155194507 14.7,2.227864611884481 14.8,2.241916080450161 14.9,2.2559454222092254 15.0,2.2699524986977337 15.1,2.2839371716714973 15.2,2.297899303107439 15.3,2.311838755204959 15.4,2.325755390387292 15.5,2.339649071302867 15.6,2.3535196608266626 15.7,2.3673670220615604 15.8,2.3811910183396954 15.9,2.394991513223805 16.0,2.4087683705085765 16.1,2.42252145422199 16.2,2.436250628626661 16.3,2.449955758221183 16.4,2.4636367077414576 16.5,2.477293342162038 16.6,2.490925526697454 16.7,2.5045331268035493 16.8,2.518116008178804 16.9,2.5316740367656627 17.0,2.5452070787518566 17.1,2.5587150005717247 17.2,2.572197668907532 17.3,2.585654950690786 17.4,2.599086713103547 17.5,2.612492823579744 17.6,2.6258731498064787 17.7,2.639227559725332 17.8,2.6525559215336703 17.9,2.665858103685943 18.0,2.679133974894983 18.1,2.692383404133301 18.2,2.705606260634379 18.3,2.718802413893963 18.4,2.731971733671345 18.5,2.745114089990659 18.6,2.7582293531421516 18.7,2.77131739368347 18.8,2.7843780824409397 18.9,2.7974112905108344 19.0,2.8104168892606527 19.1,2.823394750330386 19.2,2.8363447456337827 19.3,2.8492667473596187 19.4,2.862160627972954 19.5,2.875026260216393 19.6,2.887863517111338 19.7,2.9006722719592464 19.8,2.913452398342881 19.9,2.9262037701275503 20.0,2.938926261462366 20.1,2.9516197467814727 20.2,2.9642841008052963 20.3,2.9769191985417747 20.4,2.9895249152875936 20.5,3.0021011266294195 20.6,3.014647708445124 20.7,3.0271645369050066 20.8,3.039651488473027 20.9,3.0521084399080127 21.0,3.0645352682648825 21.1,3.076931850895858 21.2,3.089298065451671 21.3,3.1016337898827806 21.4,3.1139389024405624 21.5,3.1262132816785253 21.6,3.1384568064535023 21.7,3.1506693559268455 21.8,3.1628508095656223 21.9,3.1750010471438026 22.0,3.1871199487434483 22.1,3.1992073947558923 22.2,3.2112632658829217 22.3,3.2232874431379566 22.4,3.2352798078472214 22.5,3.2472402416509185 22.6,3.259168626504394 22.7,3.271064844679305 22.8,3.2829287787647825 22.9,3.2947603116685844 23.0,3.306559326618259 23.1,3.3183257071622925 23.2,3.330059337171258 23.3,3.3417601008389655 23.4,3.3534278826835995 23.5,3.3650625675488666 23.6,3.3766640406051223 23.7,3.388232187350511 23.8,3.399766893612096 23.9,3.411268045546982 24.0,3.422735529643443 24.1,3.4341692327220406 24.2,3.4455690419367424 24.3,3.4569348447760317 24.4,3.4682665290640244 24.5,3.4795639829615714 24.6,3.4908270949673637 24.7,3.5020557539190316 24.8,3.5132498489942456 24.9,3.524409269711807 25.0,3.5355339059327373 25.1,3.5466236478613693 25.2,3.557678386046427 25.3,3.568698011382107 25.4,3.5796824151091555 25.5,3.5906314888159443 25.6,3.601545124439535 25.7,3.612423214266749 25.8,3.623265650935233 25.9,3.634072327434514 26.0,3.644843137107058 26.1,3.6555779736493204 26.2,3.6662767311128004 26.3,3.676939303905079 26.4,3.6875655867908694 26.5,3.6981554748930483 26.6,3.708708863693696 26.7,3.719225649035125 26.8,3.7297057271209106 26.9,3.740148994516912 27.0,3.7505553481522975 27.1,3.760924685320557 27.2,3.771256903680519 27.3,3.7815519012573597 27.4,3.791809576443609 27.5,3.8020298280001548 27.6,3.8122125550572394 27.7,3.822357657115458 27.8,3.8324650340467494 27.9,3.842534586095383 28.0,3.852566213878946 28.1,3.862559818389322 28.2,3.872515300993669 28.3,3.882432563435393 28.4,3.8923115078351165 28.5,3.9021520366916485 28.6,3.9119540528829404 28.7,3.9217174596670503 28.8,3.9314421606830945 28.9,3.9411280599522005 29.0,3.950775061878452 29.1,3.9603830712498356 29.2,3.9699519932391762 29.3,3.979481733405079 29.4,3.988972197692855 29.5,3.9984232924354526 29.6,4.007834924354382 29.7,4.017207000560638 29.8,4.02653942855561 29.9,4.035832116232001 30.0,4.045084971874736 30.1,4.054297904161867 30.2,4.06347082216547 30.3,4.0726036353525465 30.4,4.081696253585919 30.5,4.090748587125117 30.6,4.0997605466272615 30.7,4.108732043147951 30.8,4.117662988142137 30.9,4.1265532934649976 31.0,4.1354028713728095 31.1,4.14421163452381 31.2,4.1529794959790625 31.3,4.1617063692033165 31.4,4.170392168065856 31.5,4.179036806841351 31.6,4.1876402002107085 31.7,4.196202263261908 31.8,4.204722911490845 31.9,4.213202060802161 32.0,4.221639627510076 32.1,4.2300355283392115 32.2,4.238389680425416 32.3,4.246702001316582 32.4,4.254972408973459 32.5,4.263200821770461 32.6,4.271387158496475 32.7,4.279531338355665 32.8,4.287633280968261 32.9,4.295692906371363 33.0,4.303710135019719 33.1,4.3116848877865195 33.2,4.319617085964176 33.3,4.327506651265095 33.4,4.33535350582245 33.5,4.3431575721909566 33.6,4.350918773347629 33.7,4.3586370326925445 33.8,4.3663122740496005 33.9,4.373944421667264 34.0,4.381533400219318 34.1,4.389079134805608 34.2,4.3965815509527815 34.3,4.404040574615017 34.4,4.4114561321747665 34.5,4.418828150443467 34.6,4.426156556662276 34.7,4.433441278502783 34.8,4.440682244067722 34.9,4.447879381891689 35.0,4.455032620941839 35.1,4.4621418906185895 35.2,4.469207120756319 35.3,4.4762282416240575 35.4,4.483205183926179 35.5,4.490137878803078 35.6,4.497026257831855 35.7,4.5038702530269905 35.8,4.5106697968410145 35.9,4.517424822165174 36.0,4.524135262330098 36.1,4.530801051106449 36.2,4.537422122705585 36.3,4.5439984117802 36.4,4.550529853424978 36.5,4.557016383177226 36.6,4.563457937017514 36.7,4.569854451370307 36.8,4.576205863104587 36.9,4.58251210953449 37.0,4.588773128419906 37.1,4.594988857967107 37.2,4.601159236829352 37.3,4.607284204107492 37.4,4.6133636993505736 37.5,4.619397662556434 37.6,4.6253860341722906 37.7,4.631328755095333 37.8,4.637225766673306 37.9,4.6430770107050865 38.0,4.648882429441256 38.1,4.654641965584679 38.2,4.6603555622910555 38.3,4.666023163169493 38.4,4.67164471228306 38.5,4.677220154149336 38.6,4.682749433740962 38.7,4.688232496486179 38.8,4.69366928826937 38.9,4.699059755431598 39.0,4.704403844771127 39.1,4.709701503543953 39.2,4.714952679464322 39.3,4.7201573207052485 39.4,4.725315375899024 39.5,4.730426794137727 39.6,4.735491524973722 39.7,4.74050951842016 39.8,4.745480724951473 39.9,4.750405095503859 40.0,4.755282581475767 40.1,4.760113134728384 40.2,4.764896707586094 40.3,4.769633252836967 40.4,4.774322723733214 40.5,4.7789650739916505 40.6,4.783560257794153 40.7,4.7881082297881115 40.8,4.792608945086879 40.9,4.797062359270214 41.0,4.801468428384715 41.1,4.80582710894426 41.2,4.8101383579304295 41.3,4.814402132792938 41.4,4.818618391450048 41.5,4.822787092288991 41.6,4.82690819416637 41.7,4.830981656408574 41.8,4.835007438812175 41.9,4.838985501644327 42.0,4.842915805643155 42.1,4.846798312018146 42.2,4.85063298245053 42.3,4.854419779093655 42.4,4.858158664573369 42.5,4.861849601988383 42.6,4.865492554910633 42.7,4.869087487385644 42.8,4.872634363932885 42.9,4.876133149546117 43.0,4.879583809693736 43.1,4.882986310319123 43.2,4.886340617840967 43.3,4.889646699153609 43.4,4.892904521627361 43.5,4.896114053108828 43.6,4.899275261921234 43.7,4.9023881168647225 43.8,4.90545258721667 43.9,4.908468642731994 44.0,4.911436253643443 44.1,4.914355390661896 44.2,4.917226024976649 44.3,4.920048128255699 44.4,4.922821672646027 44.5,4.92554663077387 44.6,4.9282229757449905 44.7,4.930850681144944 44.8,4.9334297210393405 44.9,4.9359600699740955 45.0,4.938441702975689 45.1,4.940874595551402 45.2,4.943258723689571 45.3,4.945594063859809 45.4,4.947880593013255 45.5,4.950118288582788 45.6,4.952307128483256 45.7,4.954447091111693 45.8,4.956538155347533 45.9,4.958580300552814 46.0,4.960573506572389 46.1,4.962517753734119 46.2,4.964413022849069 46.3,4.966259295211697 46.4,4.968056552600042 46.5,4.969804777275899 46.6,4.971503951984994 46.7,4.973154059957162 46.8,4.9747550849065005 46.9,4.976307011031541 47.0,4.9778098230154 47.1,4.979263506025928 47.2,4.980668045715863 47.3,4.982023428222962 47.4,4.983329640170149 47.5,4.9845866686656395 47.6,4.98579450130307 47.7,4.986953126161619 47.8,4.9880625318061265 47.9,4.9891227072872075 48.0,4.990133642141358 48.1,4.991095326391059 48.2,4.992007750544875 48.3,4.992870905597549 48.4,4.993684783030087 48.5,4.99444937480985 48.6,4.995164673390623 48.7,4.9958306717127 48.8,4.996447363202946 48.9,4.997014741774865 49.0,4.997532801828658 49.1,4.998001538251283 49.2,4.9984209464165 49.3,4.99879102218492 49.4,4.999111761904045 49.5,4.999383162408303 49.6,4.99960522101908 49.7,4.999777935544749 49.8,4.9999013042806855 49.9,4.999975326009291 50.0,5.0 50.1,4.999975326009291 50.2,4.9999013042806855 50.3,4.999777935544749 50.4,4.99960522101908 50.5,4.999383162408303 50.6,4.999111761904045 50.7,4.99879102218492 50.8,4.9984209464165 50.9,4.998001538251283 51.0,4.997532801828658 51.1,4.997014741774865 51.2,4.996447363202946 51.3,4.9958306717127 51.4,4.995164673390623 51.5,4.99444937480985 51.6,4.993684783030087 51.7,4.992870905597549 51.8,4.992007750544875 51.9,4.991095326391059 52.0,4.990133642141358 52.1,4.9891227072872075 52.2,4.9880625318061265 52.3,4.986953126161619 52.4,4.98579450130307 52.5,4.9845866686656395 52.6,4.983329640170149 52.7,4.982023428222962 52.8,4.980668045715863 52.9,4.979263506025928 53.0,4.9778098230154 53.1,4.976307011031541 53.2,4.9747550849065005 53.3,4.973154059957162 53.4,4.971503951984994 53.5,4.969804777275899 53.6,4.968056552600042 53.7,4.966259295211697 53.8,4.964413022849069 53.9,4.962517753734119 54.0,4.9605735065723895 54.1,4.958580300552814 54.2,4.956538155347533 54.3,4.954447091111694 54.4,4.952307128483256 54.5,4.950118288582789 54.6,4.947880593013255 54.7,4.945594063859809 54.8,4.943258723689571 54.9,4.940874595551403 55.0,4.938441702975689 55.1,4.9359600699740955 55.2,4.9334297210393405 55.3,4.930850681144944 55.4,4.9282229757449905 55.5,4.925546630773869 55.6,4.922821672646027 55.7,4.920048128255699 55.8,4.917226024976649 55.9,4.914355390661896 56.0,4.911436253643443 56.1,4.908468642731995 56.2,4.90545258721667 56.3,4.9023881168647225 56.4,4.899275261921234 56.5,4.896114053108829 56.6,4.892904521627361 56.7,4.889646699153609 56.8,4.886340617840967 56.9,4.882986310319123 57.0,4.879583809693737 57.1,4.876133149546117 57.2,4.872634363932885 57.3,4.869087487385645 57.4,4.865492554910633 57.5,4.861849601988383 57.6,4.85815866457337 57.7,4.854419779093655 57.8,4.850632982450529 57.9,4.846798312018147 58.0,4.842915805643155 58.1,4.838985501644327 58.2,4.835007438812175 58.3,4.830981656408574 58.4,4.82690819416637 58.5,4.822787092288991 58.6,4.818618391450048 58.7,4.814402132792938 58.8,4.8101383579304295 58.9,4.80582710894426 59.0,4.801468428384715 59.1,4.797062359270214 59.2,4.792608945086879 59.3,4.7881082297881115 59.4,4.783560257794152 59.5,4.778965073991651 59.6,4.774322723733214 59.7,4.769633252836968 59.8,4.764896707586095 59.9,4.760113134728384 60.0,4.755282581475768 60.1,4.750405095503859 60.2,4.745480724951473 60.3,4.74050951842016 60.4,4.735491524973722 60.5,4.730426794137727 60.6,4.725315375899025 60.7,4.7201573207052485 60.8,4.714952679464322 60.9,4.709701503543954 61.0,4.704403844771127 61.1,4.699059755431599 61.2,4.69366928826937 61.3,4.688232496486179 61.4,4.682749433740962 61.5,4.677220154149337 61.6,4.67164471228306 61.7,4.666023163169493 61.8,4.6603555622910555 61.9,4.654641965584679 62.0,4.648882429441257 62.1,4.6430770107050865 62.2,4.637225766673307 62.3,4.631328755095334 62.4,4.6253860341722906 62.5,4.619397662556434 62.6,4.613363699350574 62.7,4.607284204107492 62.8,4.601159236829352 62.9,4.594988857967107 63.0,4.588773128419906 63.1,4.58251210953449 63.2,4.576205863104588 63.3,4.569854451370306 63.4,4.563457937017515 63.5,4.557016383177227 63.6,4.550529853424979 63.7,4.5439984117802 63.8,4.537422122705585 63.9,4.530801051106449 64.0,4.524135262330097 64.1,4.517424822165174 64.2,4.510669796841014 64.3,4.5038702530269905 64.4,4.4970262578318545 64.5,4.490137878803078 64.6,4.48320518392618 64.7,4.476228241624058 64.8,4.4692071207563195 64.9,4.4621418906185895 65.0,4.455032620941839 65.1,4.44787938189169 65.2,4.440682244067723 65.3,4.433441278502783 65.4,4.426156556662276 65.5,4.418828150443467 65.6,4.411456132174767 65.7,4.404040574615019 65.8,4.3965815509527815 65.9,4.389079134805608 66.0,4.381533400219317 66.1,4.3739444216672645 66.2,4.3663122740496005 66.3,4.3586370326925445 66.4,4.350918773347629 66.5,4.343157572190956 66.6,4.335353505822451 66.7,4.327506651265095 66.8,4.319617085964177 66.9,4.3116848877865195 67.0,4.303710135019719 67.1,4.295692906371363 67.2,4.287633280968261 67.3,4.279531338355666 67.4,4.271387158496475 67.5,4.263200821770462 67.6,4.25497240897346 67.7,4.246702001316583 67.8,4.238389680425417 67.9,4.2300355283392115 68.0,4.221639627510075 68.1,4.213202060802162 68.2,4.204722911490846 68.3,4.19620226326191 68.4,4.1876402002107085 68.5,4.179036806841351 68.6,4.170392168065858 68.7,4.1617063692033165 68.8,4.152979495979063 68.9,4.144211634523809 69.0,4.135402871372809 69.1,4.126553293464998 69.2,4.117662988142136 69.3,4.108732043147951 69.4,4.099760546627261 69.5,4.090748587125117 69.6,4.08169625358592 69.7,4.0726036353525465 69.8,4.0634708221654705 69.9,4.054297904161867 70.0,4.045084971874737 70.1,4.035832116232002 70.2,4.02653942855561 70.3,4.017207000560639 70.4,4.007834924354382 70.5,3.998423292435453 70.6,3.9889721976928563 70.7,3.979481733405078 70.8,3.9699519932391776 70.9,3.9603830712498356 71.0,3.9507750618784514 71.1,3.9411280599522014 71.2,3.931442160683094 71.3,3.9217174596670503 71.4,3.9119540528829395 71.5,3.9021520366916485 71.6,3.8923115078351174 71.7,3.8824325634353922 71.8,3.872515300993669 71.9,3.8625598183893217 72.0,3.852566213878946 72.1,3.8425345860953835 72.2,3.8324650340467494 72.3,3.8223576571154583 72.4,3.812212555057239 72.5,3.8020298280001548 72.6,3.79180957644361 72.7,3.78155190125736 72.8,3.77125690368052 72.9,3.760924685320557 73.0,3.750555348152298 73.1,3.7401489945169137 73.2,3.7297057271209093 73.3,3.719225649035126 73.4,3.708708863693695 73.5,3.698155474893048 73.6,3.6875655867908708 73.7,3.6769393039050784 73.8,3.6662767311127995 73.9,3.6555779736493195 74.0,3.644843137107057 74.1,3.6340723274345144 74.2,3.623265650935233 74.3,3.6124232142667494 74.4,3.6015451244395336 74.5,3.5906314888159443 74.6,3.579682415109157 74.7,3.5686980113821063 74.8,3.5576783860464274 74.9,3.546623647861369 75.0,3.5355339059327378 75.1,3.524409269711808 75.2,3.513249848994246 75.3,3.502055753919033 75.4,3.4908270949673637 75.5,3.4795639829615723 75.6,3.468266529064026 75.7,3.456934844776031 75.8,3.4455690419367437 75.9,3.4341692327220397 76.0,3.422735529643444 76.1,3.4112680455469837 76.2,3.399766893612095 76.3,3.388232187350513 76.4,3.3766640406051214 76.5,3.3650625675488666 76.6,3.353427882683602 76.7,3.3417601008389646 76.8,3.3300593371712583 76.9,3.318325707162292 77.0,3.306559326618259 77.1,3.2947603116685853 77.2,3.282928778764782 77.3,3.271064844679306 77.4,3.2591686265043935 77.5,3.247240241650919 77.6,3.2352798078472227 77.7,3.223287443137957 77.8,3.2112632658829225 77.9,3.199207394755892 78.0,3.187119948743449 78.1,3.1750010471438044 78.2,3.1628508095656227 78.3,3.150669355926847 78.4,3.138456806453501 78.5,3.126213281678527 78.6,3.1139389024405646 78.7,3.1016337898827793 78.8,3.0892980654516733 78.9,3.0769318508958565 79.0,3.0645352682648817 79.1,3.052108439908015 79.2,3.0396514884730266 79.3,3.027164536905007 79.4,3.014647708445123 79.5,3.00210112662942 79.6,2.9895249152875953 79.7,2.9769191985417742 79.8,2.9642841008052967 79.9,2.9516197467814727 80.0,2.9389262614623664 80.1,2.9262037701275516 80.2,2.913452398342881 80.3,2.900672271959248 80.4,2.887863517111338 80.5,2.8750262602163934 80.6,2.862160627972956 80.7,2.8492667473596196 80.8,2.8363447456337836 80.9,2.8233947503303836 81.0,2.810416889260654 81.1,2.7974112905108366 81.2,2.784378082440939 81.3,2.7713173936834723 81.4,2.75822935314215 81.5,2.7451140899906603 81.6,2.731971733671348 81.7,2.718802413893962 81.8,2.7056062606343794 81.9,2.6923834041333023 82.0,2.679133974894985 82.1,2.6658581036859457 82.2,2.6525559215336703 82.3,2.6392275597253327 82.4,2.6258731498064765 82.5,2.6124928235797467 82.6,2.599086713103549 82.7,2.585654950690786 82.8,2.572197668907533 82.9,2.558715000571723 83.0,2.5452070787518553 83.1,2.531674036765664 83.2,2.5181160081788043 83.3,2.504533126803551 83.4,2.4909255266974526 83.5,2.477293342162037 83.6,2.463636707741458 83.7,2.4499557582211837 83.8,2.4362506286266634 83.9,2.4225214542219886 84.0,2.408768370508576 84.1,2.3949915132238058 84.2,2.381191018339697 84.3,2.367367022061563 84.4,2.353519660826662 84.5,2.339649071302867 84.6,2.3257553903872927 84.7,2.3118387552049606 84.8,2.297899303107442 84.9,2.283937171671497 85.0,2.269952498697734 85.1,2.2559454222092263 85.2,2.2419160804501597 85.3,2.2278646118844825 85.4,2.2137911551945075 85.5,2.1996958492795766 85.6,2.185578833254666 85.7,2.1714402464490217 85.8,2.1572802284047943 85.9,2.1430989188756424 86.0,2.1288964578253644 86.1,2.1146729854265183 86.2,2.1004286420590303 86.3,2.0861635683088267 86.4,2.0718779049664215 86.5,2.0575717930255455 86.6,2.043245373681748 86.7,2.0288987883309995 86.8,2.014532178568314 86.9,2.000145686186325 87.0,1.9857394531739052 87.1,1.971313621714756 87.2,1.9568683341860118 87.3,1.9424037331568311 87.4,1.9279199613869802 87.5,1.9134171618254514 87.6,1.898895477609007 87.7,1.8843550520608134 87.8,1.8697960286890034 87.9,1.8552185511852533 88.0,1.8406227634233907 88.1,1.8260088094579408 88.2,1.811376833522729 88.3,1.796726980029455 88.4,1.7820593935662519 88.5,1.7673742188962849 88.6,1.7526716009562973 88.7,1.7379516848551861 88.8,1.7232146158725872 88.9,1.7084605394574153 89.0,1.6936896012264566 89.1,1.6789019469629038 89.2,1.6640977226149347 89.3,1.6492770742942668 89.4,1.6344401482747115 89.5,1.6195870909907473 89.6,1.6047180490360486 89.7,1.5898331691620569 89.8,1.5749325982765248 89.9,1.5600164834420738 90.0,1.5450849718747375 90.1,1.5301382109425052 90.2,1.5151763481638723 90.3,1.5001995312063823 90.4,1.4852079078851745 90.5,1.4702016261615207 90.6,1.455180834141361 90.7,1.4401456800738446 90.8,1.4250963123498823 90.9,1.4100328795006476 91.0,1.3949555301961478 91.1,1.379864413243731 91.2,1.3647596775866253 91.3,1.3496414723024817 91.4,1.3345099466018786 91.5,1.3193652498268662 91.6,1.3042075314494852 91.7,1.2890369410702986 91.8,1.2738536284169113 91.9,1.2586577433424866 92.0,1.2434494358242763 92.1,1.2282288559621328 92.2,1.212996153977037 92.3,1.1977514802096099 92.4,1.1824949851186253 92.5,1.1672268192795276 92.6,1.1519471333829543 92.7,1.1366560782332324 92.8,1.1213538047469072 92.9,1.1060404639512336 93.0,1.0907162069827139 93.1,1.0753811850855688 93.2,1.060035549610274 93.3,1.0446794520120601 93.4,1.029313043849405 93.5,1.0139364767825616 93.6,0.9985499025720375 93.7,0.9831534730771014 93.8,0.9677473402543034 93.9,0.9523316561559482 94.0,0.9369065729286229 94.1,0.9214722428116672 94.2,0.9060288181356884 94.3,0.8905764513210511 94.4,0.8751152948763794 94.5,0.8596455013970479 94.6,0.8441672235636705 94.7,0.8286806141406006 94.8,0.8131858259744189 94.9,0.7976830119924311 95.0,0.7821723252011549 95.1,0.7666539186848047 95.2,0.7511279456037856 95.3,0.7355945591931881 95.4,0.7200539127612609 95.5,0.7045061596879143 95.6,0.6889514534231923 95.7,0.6733899474857616 95.8,0.6578217954614142 95.9,0.6422471510015147 96.0,0.6266661678215226 96.1,0.6110789996994475 96.2,0.5954858004743477 96.3,0.579886724044809 96.4,0.5642819243674093 96.5,0.5486715554552282 96.6,0.5330557713763002 96.7,0.5174347262521121 96.8,0.501808574256075 96.9,0.48617746961199804 97.0,0.47054156659257174 97.1,0.4549010195178507 97.2,0.43925598275371575 97.3,0.4236066107103681 97.4,0.4079530578407896 97.5,0.3922954786392253 97.6,0.3766340276396652 97.7,0.36096885941430334 97.8,0.3453001285720303 97.9,0.32962798975688934 98.0,0.3139525976465679 98.1,0.2982741069508555 98.2,0.2825926724101234 98.3,0.2669084487938041 98.4,0.2512215908988461 98.5,0.23553225354821478 98.6,0.21984059158932698 98.7,0.2041467598925512 98.8,0.18845091334967268 98.9,0.17275320687236007 99.0,0.15705379539064118 99.1,0.14135283385136918 99.2,0.12565047721668907 99.3,0.10994688046252599 99.4,0.09424219857704008 99.5,0.07853658655910355 99.6,0.06283019941676418 99.7,0.04712319216571993 99.8,0.03141571982779563 99.9,0.01570793742939745 100.0,6.123233995736766e-16 100.1,-0.015707937429396225 100.2,-0.03141571982779441 100.3,-0.04712319216571871 100.4,-0.06283019941676296 100.5,-0.07853658655910231 100.6,-0.09424219857704107 100.7,-0.10994688046252475 100.8,-0.12565047721668562 100.9,-0.14135283385136574 101.0,-0.15705379539063996 101.1,-0.1727532068723611 101.2,-0.18845091334967368 101.3,-0.20414675989254777 101.4,-0.21984059158932354 101.5,-0.23553225354821355 101.6,-0.2512215908988471 101.7,-0.2669084487938029 101.8,-0.2825926724101222 101.9,-0.29827410695085205 102.0,-0.31395259764656674 102.1,-0.3296279897568882 102.2,-0.3453001285720291 102.3,-0.3609688594143021 102.4,-0.37663402763966397 102.5,-0.3922954786392241 102.6,-0.40795305784078617 102.7,-0.42360661071036687 102.8,-0.4392559827537146 102.9,-0.45490101951784945 103.0,-0.4705415665925705 103.1,-0.48617746961199465 103.2,-0.5018085742560736 103.3,-0.5174347262521131 103.4,-0.5330557713763012 103.5,-0.5486715554552248 103.6,-0.564281924367406 103.7,-0.5798867240448056 103.8,-0.5954858004743486 103.9,-0.6110789996994483 104.0,-0.6266661678215214 104.1,-0.6422471510015113 104.2,-0.6578217954614131 104.3,-0.6733899474857625 104.4,-0.6889514534231911 104.5,-0.7045061596879131 104.6,-0.7200539127612575 104.7,-0.735594559193187 104.8,-0.7511279456037844 104.9,-0.7666539186848036 105.0,-0.7821723252011537 105.1,-0.7976830119924322 105.2,-0.8131858259744176 105.3,-0.8286806141405972 105.4,-0.8441672235636692 105.5,-0.8596455013970467 105.6,-0.8751152948763805 105.7,-0.8905764513210499 105.8,-0.906028818135685 105.9,-0.9214722428116661 106.0,-0.9369065729286239 106.1,-0.9523316561559492 106.2,-0.9677473402543001 106.3,-0.9831534730770981 106.4,-0.9985499025720341 106.5,-1.0139364767825625 106.6,-1.029313043849406 106.7,-1.044679452012059 106.8,-1.0600355496102707 106.9,-1.0753811850855677 107.0,-1.0907162069827125 107.1,-1.1060404639512345 107.2,-1.121353804746906 107.3,-1.1366560782332313 107.4,-1.1519471333829532 107.5,-1.1672268192795263 107.6,-1.182494985118622 107.7,-1.1977514802096088 107.8,-1.212996153977038 107.9,-1.2282288559621315 108.0,-1.243449435824273 108.1,-1.2586577433424835 108.2,-1.27385362841691 108.3,-1.2890369410702998 108.4,-1.304207531449484 108.5,-1.3193652498268629 108.6,-1.3345099466018753 108.7,-1.3496414723024825 108.8,-1.3647596775866262 108.9,-1.3798644132437299 109.0,-1.3949555301961445 109.1,-1.4100328795006443 109.2,-1.425096312349881 109.3,-1.4401456800738455 109.4,-1.45518083414136 109.5,-1.4702016261615194 109.6,-1.4852079078851712 109.7,-1.5001995312063812 109.8,-1.515176348163869 109.9,-1.530138210942504 110.0,-1.5450849718747364 110.1,-1.5600164834420749 110.2,-1.5749325982765237 110.3,-1.5898331691620535 110.4,-1.6047180490360473 110.5,-1.6195870909907482 110.6,-1.6344401482747126 110.7,-1.6492770742942637 110.8,-1.6640977226149314 110.9,-1.6789019469629027 111.0,-1.6936896012264575 111.1,-1.7084605394574162 111.2,-1.723214615872584 111.3,-1.737951684855183 111.4,-1.7526716009562961 111.5,-1.7673742188962858 111.6,-1.782059393566253 111.7,-1.7967269800294539 111.8,-1.811376833522726 111.9,-1.8260088094579396 112.0,-1.8406227634233896 112.1,-1.855218551185254 112.2,-1.8697960286890023 112.3,-1.8843550520608106 112.4,-1.898895477609006 112.5,-1.9134171618254483 112.6,-1.9279199613869813 112.7,-1.94240373315683 112.8,-1.956868334186013 112.9,-1.9713136217147547 113.0,-1.985739453173902 113.1,-2.000145686186322 113.2,-2.014532178568315 113.3,-2.0288987883310003 113.4,-2.043245373681745 113.5,-2.0575717930255424 113.6,-2.071877904966418 113.7,-2.086163568308827 113.8,-2.1004286420590312 113.9,-2.114672985426515 114.0,-2.1288964578253613 114.1,-2.143098918875639 114.2,-2.1572802284047956 114.3,-2.1714402464490226 114.4,-2.1855788332546653 114.5,-2.1996958492795735 114.6,-2.2137911551945044 114.7,-2.227864611884481 114.8,-2.24191608045016 114.9,-2.2559454222092254 115.0,-2.2699524986977355 115.1,-2.283937171671494 115.2,-2.297899303107439 115.3,-2.3118387552049575 115.4,-2.3257553903872914 115.5,-2.3396490713028677 115.6,-2.353519660826663 115.7,-2.36736702206156 115.8,-2.381191018339694 115.9,-2.3949915132238067 116.0,-2.408768370508577 116.1,-2.4225214542219895 116.2,-2.4362506286266603 116.3,-2.449955758221181 116.4,-2.463636707741459 116.5,-2.477293342162038 116.6,-2.4909255266974535 116.7,-2.504533126803548 116.8,-2.5181160081788017 116.9,-2.531674036765663 117.0,-2.545207078751856 117.1,-2.5587150005717234 117.2,-2.572197668907532 117.3,-2.5856549506907833 117.4,-2.5990867131035476 117.5,-2.6124928235797436 117.6,-2.625873149806477 117.7,-2.6392275597253336 117.8,-2.6525559215336707 117.9,-2.665858103685943 118.0,-2.6791339748949823 118.1,-2.692383404133299 118.2,-2.7056062606343803 118.3,-2.718802413893963 118.4,-2.731971733671345 118.5,-2.745114089990657 118.6,-2.7582293531421493 118.7,-2.7713173936834714 118.8,-2.7843780824409397 118.9,-2.797411290510834 119.0,-2.8104168892606514 119.1,-2.823394750330383 119.2,-2.8363447456337827 119.3,-2.8492667473596183 119.4,-2.862160627972955 119.5,-2.8750262602163907 119.6,-2.8878635171113354 119.7,-2.9006722719592473 119.8,-2.9134523983428795 119.9,-2.9262037701275507 120.0,-2.9389262614623632 120.1,-2.9516197467814713 120.2,-2.964284100805296 120.3,-2.976919198541774 120.4,-2.989524915287596 120.5,-3.0021011266294213 120.6,-3.0146477084451218 120.7,-3.0271645369050058 120.8,-3.0396514884730252 120.9,-3.052108439908014 121.0,-3.064535268264883 121.1,-3.076931850895857 121.2,-3.0892980654516706 121.3,-3.1016337898827784 121.4,-3.1139389024405633 121.5,-3.1262132816785257 121.6,-3.138456806453502 121.7,-3.150669355926844 121.8,-3.16285080956562 121.9,-3.175001047143804 122.0,-3.1871199487434483 122.1,-3.1992073947558914 122.2,-3.2112632658829203 122.3,-3.2232874431379543 122.4,-3.235279807847222 122.5,-3.2472402416509176 122.6,-3.259168626504392 122.7,-3.271064844679307 122.8,-3.2829287787647807 122.9,-3.2947603116685844 123.0,-3.3065593266182587 123.1,-3.3183257071622907 123.2,-3.330059337171259 123.3,-3.3417601008389655 123.4,-3.3534278826835995 123.5,-3.3650625675488657 123.6,-3.37666404060512 123.7,-3.3882321873505115 123.8,-3.399766893612096 123.9,-3.411268045546981 124.0,-3.422735529643442 124.1,-3.4341692327220392 124.2,-3.4455690419367424 124.3,-3.4569348447760317 124.4,-3.4682665290640236 124.5,-3.4795639829615697 124.6,-3.4908270949673623 124.7,-3.5020557539190316 124.8,-3.5132498489942456 124.9,-3.524409269711809 125.0,-3.5355339059327355 125.1,-3.5466236478613684 125.2,-3.557678386046426 125.3,-3.5686980113821054 125.4,-3.5796824151091573 125.5,-3.5906314888159447 125.6,-3.601545124439533 125.7,-3.6124232142667485 125.8,-3.623265650935232 125.9,-3.6340723274345157 126.0,-3.644843137107058 126.1,-3.6555779736493204 126.2,-3.666276731112799 126.3,-3.6769393039050775 126.4,-3.6875655867908703 126.5,-3.6981554748930483 126.6,-3.7087088636936953 126.7,-3.719225649035124 126.8,-3.729705727120909 126.9,-3.740148994516913 127.0,-3.7505553481522975 127.1,-3.7609246853205565 127.2,-3.7712569036805177 127.3,-3.781551901257359 127.4,-3.7918095764436077 127.5,-3.8020298280001557 127.6,-3.8122125550572394 127.7,-3.822357657115458 127.8,-3.832465034046748 127.9,-3.8425345860953843 128.0,-3.852566213878947 128.1,-3.862559818389322 128.2,-3.8725153009936686 128.3,-3.882432563435392 128.4,-3.892311507835118 128.5,-3.902152036691649 128.6,-3.9119540528829404 128.7,-3.9217174596670494 128.8,-3.931442160683096 128.9,-3.941128059952201 129.0,-3.950775061878452 129.1,-3.9603830712498347 129.2,-3.9699519932391754 129.3,-3.9794817334050805 129.4,-3.9889721976928554 129.5,-3.9984232924354526 129.6,-4.007834924354382 129.7,-4.017207000560637 129.8,-4.02653942855561 129.9,-4.035832116232002 130.0,-4.045084971874736 130.1,-4.054297904161866 130.2,-4.063470822165468 130.3,-4.072603635352547 130.4,-4.081696253585919 130.5,-4.090748587125116 130.6,-4.099760546627261 130.7,-4.10873204314795 130.8,-4.117662988142137 130.9,-4.1265532934649976 131.0,-4.135402871372808 131.1,-4.144211634523808 131.2,-4.152979495979061 131.3,-4.1617063692033165 131.4,-4.170392168065855 131.5,-4.179036806841353 131.6,-4.187640200210709 131.7,-4.196202263261906 131.8,-4.204722911490845 131.9,-4.2132020608021605 132.0,-4.2216396275100765 132.1,-4.2300355283392115 132.2,-4.238389680425416 132.3,-4.246702001316582 132.4,-4.25497240897346 132.5,-4.263200821770462 132.6,-4.271387158496475 132.7,-4.279531338355665 132.8,-4.287633280968261 132.9,-4.295692906371363 133.0,-4.303710135019719 133.1,-4.3116848877865195 133.2,-4.319617085964175 133.3,-4.327506651265097 133.4,-4.335353505822451 133.5,-4.3431575721909566 133.6,-4.350918773347628 133.7,-4.358637032692544 133.8,-4.366312274049601 133.9,-4.3739444216672645 134.0,-4.381533400219318 134.1,-4.389079134805608 134.2,-4.396581550952781 134.3,-4.404040574615019 134.4,-4.4114561321747665 134.5,-4.418828150443467 134.6,-4.426156556662276 134.7,-4.433441278502782 134.8,-4.440682244067723 134.9,-4.44787938189169 135.0,-4.455032620941839 135.1,-4.462141890618589 135.2,-4.469207120756318 135.3,-4.476228241624058 135.4,-4.483205183926179 135.5,-4.490137878803077 135.6,-4.4970262578318545 135.7,-4.503870253026989 135.8,-4.5106697968410145 135.9,-4.517424822165173 136.0,-4.524135262330099 136.1,-4.530801051106447 136.2,-4.537422122705584 136.3,-4.5439984117802 136.4,-4.550529853424978 136.5,-4.557016383177227 136.6,-4.563457937017513 136.7,-4.569854451370304 136.8,-4.576205863104588 136.9,-4.582512109534491 137.0,-4.5887731284199065 137.1,-4.594988857967107 137.2,-4.60115923682935 137.3,-4.607284204107492 137.4,-4.613363699350575 137.5,-4.619397662556434 137.6,-4.6253860341722906 137.7,-4.631328755095333 137.8,-4.637225766673307 137.9,-4.643077010705087 138.0,-4.648882429441257 138.1,-4.654641965584679 138.2,-4.660355562291054 138.3,-4.666023163169494 138.4,-4.671644712283061 138.5,-4.677220154149337 138.6,-4.682749433740962 138.7,-4.688232496486178 138.8,-4.693669288269371 138.9,-4.699059755431599 139.0,-4.704403844771127 139.1,-4.709701503543952 139.2,-4.7149526794643215 139.3,-4.720157320705249 139.4,-4.725315375899025 139.5,-4.730426794137727 139.6,-4.735491524973721 139.7,-4.7405095184201596 139.8,-4.745480724951474 139.9,-4.750405095503859 140.0,-4.755282581475767 140.1,-4.760113134728383 140.2,-4.764896707586093 140.3,-4.769633252836968 140.4,-4.774322723733214 140.5,-4.77896507399165 140.6,-4.783560257794152 140.7,-4.78810822978811 140.8,-4.792608945086879 140.9,-4.797062359270214 141.0,-4.801468428384715 141.1,-4.805827108944259 141.2,-4.810138357930429 141.3,-4.814402132792938 141.4,-4.81861839145005 141.5,-4.822787092288991 141.6,-4.826908194166369 141.7,-4.830981656408573 141.8,-4.835007438812175 141.9,-4.838985501644328 142.0,-4.842915805643156 142.1,-4.846798312018147 142.2,-4.850632982450528 142.3,-4.854419779093655 142.4,-4.85815866457337 142.5,-4.861849601988383 142.6,-4.865492554910633 142.7,-4.869087487385644 142.8,-4.872634363932886 142.9,-4.876133149546117 143.0,-4.879583809693737 143.1,-4.882986310319123 143.2,-4.8863406178409665 143.3,-4.88964669915361 143.4,-4.892904521627361 143.5,-4.896114053108828 143.6,-4.899275261921234 143.7,-4.902388116864722 143.8,-4.905452587216671 143.9,-4.908468642731995 144.0,-4.911436253643443 144.1,-4.914355390661896 144.2,-4.917226024976648 144.3,-4.920048128255699 144.4,-4.922821672646027 144.5,-4.925546630773869 144.6,-4.92822297574499 144.7,-4.9308506811449435 144.8,-4.9334297210393405 144.9,-4.9359600699740955 145.0,-4.938441702975688 145.1,-4.940874595551402 145.2,-4.94325872368957 145.3,-4.945594063859809 145.4,-4.947880593013255 145.5,-4.950118288582788 145.6,-4.952307128483256 145.7,-4.9544470911116925 145.8,-4.956538155347533 145.9,-4.958580300552814 146.0,-4.960573506572389 146.1,-4.962517753734118 146.2,-4.964413022849068 146.3,-4.966259295211697 146.4,-4.968056552600043 146.5,-4.969804777275898 146.6,-4.971503951984994 146.7,-4.973154059957161 146.8,-4.974755084906501 146.9,-4.976307011031542 147.0,-4.9778098230154 147.1,-4.979263506025928 147.2,-4.980668045715862 147.3,-4.982023428222963 147.4,-4.983329640170149 147.5,-4.9845866686656395 147.6,-4.98579450130307 147.7,-4.986953126161618 147.8,-4.9880625318061265 147.9,-4.9891227072872075 148.0,-4.990133642141358 148.1,-4.991095326391059 148.2,-4.992007750544875 148.3,-4.992870905597549 148.4,-4.993684783030087 148.5,-4.99444937480985 148.6,-4.995164673390623 148.7,-4.9958306717127 148.8,-4.996447363202947 148.9,-4.997014741774865 149.0,-4.997532801828658 149.1,-4.998001538251283 149.2,-4.9984209464165 149.3,-4.99879102218492 149.4,-4.999111761904045 149.5,-4.999383162408303 149.6,-4.99960522101908 149.7,-4.999777935544749 149.8,-4.9999013042806855 149.9,-4.999975326009291 150.0,-5.0 150.1,-4.999975326009291 150.2,-4.9999013042806855 150.3,-4.999777935544749 150.4,-4.99960522101908 150.5,-4.999383162408303 150.6,-4.999111761904045 150.7,-4.99879102218492 150.8,-4.9984209464165 150.9,-4.998001538251283 151.0,-4.997532801828658 151.1,-4.997014741774865 151.2,-4.996447363202947 151.3,-4.9958306717127 151.4,-4.995164673390623 151.5,-4.99444937480985 151.6,-4.993684783030088 151.7,-4.992870905597549 151.8,-4.992007750544875 151.9,-4.991095326391059 152.0,-4.990133642141358 152.1,-4.9891227072872075 152.2,-4.9880625318061265 152.3,-4.986953126161618 152.4,-4.98579450130307 152.5,-4.9845866686656395 152.6,-4.98332964017015 152.7,-4.982023428222963 152.8,-4.980668045715862 152.9,-4.979263506025928 153.0,-4.9778098230154 153.1,-4.976307011031541 153.2,-4.974755084906501 153.3,-4.973154059957162 153.4,-4.971503951984994 153.5,-4.969804777275899 153.6,-4.968056552600042 153.7,-4.966259295211698 153.8,-4.964413022849068 153.9,-4.962517753734119 154.0,-4.9605735065723895 154.1,-4.958580300552814 154.2,-4.956538155347533 154.3,-4.954447091111693 154.4,-4.952307128483256 154.5,-4.950118288582788 154.6,-4.947880593013255 154.7,-4.94559406385981 154.8,-4.94325872368957 154.9,-4.940874595551403 155.0,-4.938441702975689 155.1,-4.935960069974096 155.2,-4.9334297210393405 155.3,-4.930850681144944 155.4,-4.9282229757449905 155.5,-4.92554663077387 155.6,-4.922821672646027 155.7,-4.920048128255699 155.8,-4.917226024976649 155.9,-4.914355390661896 156.0,-4.911436253643443 156.1,-4.908468642731995 156.2,-4.905452587216671 156.3,-4.902388116864721 156.4,-4.899275261921235 156.5,-4.896114053108829 156.6,-4.8929045216273614 156.7,-4.88964669915361 156.8,-4.8863406178409665 156.9,-4.882986310319122 157.0,-4.879583809693738 157.1,-4.876133149546118 157.2,-4.872634363932887 157.3,-4.869087487385643 157.4,-4.865492554910632 157.5,-4.861849601988383 157.6,-4.85815866457337 157.7,-4.854419779093656 157.8,-4.850632982450528 157.9,-4.846798312018146 158.0,-4.842915805643155 158.1,-4.838985501644327 158.2,-4.835007438812177 158.3,-4.830981656408573 158.4,-4.826908194166369 158.5,-4.822787092288991 158.6,-4.818618391450048 158.7,-4.814402132792938 158.8,-4.810138357930429 158.9,-4.80582710894426 159.0,-4.801468428384715 159.1,-4.797062359270214 159.2,-4.792608945086879 159.3,-4.788108229788111 159.4,-4.783560257794152 159.5,-4.7789650739916505 159.6,-4.774322723733215 159.7,-4.769633252836968 159.8,-4.764896707586094 159.9,-4.760113134728384 160.0,-4.755282581475768 160.1,-4.750405095503859 160.2,-4.745480724951474 160.3,-4.74050951842016 160.4,-4.735491524973722 160.5,-4.730426794137727 160.6,-4.725315375899025 160.7,-4.72015732070525 160.8,-4.714952679464322 160.9,-4.709701503543953 161.0,-4.704403844771128 161.1,-4.699059755431599 161.2,-4.693669288269372 161.3,-4.688232496486179 161.4,-4.682749433740962 161.5,-4.677220154149337 161.6,-4.6716447122830616 161.7,-4.666023163169494 161.8,-4.660355562291054 161.9,-4.65464196558468 162.0,-4.648882429441258 162.1,-4.643077010705088 162.2,-4.637225766673309 162.3,-4.631328755095332 162.4,-4.62538603417229 162.5,-4.619397662556435 162.6,-4.613363699350575 162.7,-4.607284204107494 162.8,-4.601159236829351 162.9,-4.594988857967106 163.0,-4.588773128419907 163.1,-4.582512109534492 163.2,-4.57620586310459 163.3,-4.569854451370305 163.4,-4.563457937017514 163.5,-4.557016383177226 163.6,-4.550529853424979 163.7,-4.543998411780201 163.8,-4.5374221227055855 163.9,-4.530801051106451 164.0,-4.524135262330099 164.1,-4.517424822165176 164.2,-4.510669796841017 164.3,-4.50387025302699 164.4,-4.4970262578318545 164.5,-4.490137878803078 164.6,-4.48320518392618 164.7,-4.476228241624059 164.8,-4.469207120756317 164.9,-4.462141890618588 165.0,-4.455032620941842 165.1,-4.447879381891693 165.2,-4.440682244067724 165.3,-4.433441278502782 165.4,-4.426156556662276 165.5,-4.418828150443468 165.6,-4.411456132174767 165.7,-4.40404057461502 165.8,-4.396581550952779 165.9,-4.389079134805607 166.0,-4.3815334002193165 166.1,-4.373944421667263 166.2,-4.366312274049602 166.3,-4.3586370326925445 166.4,-4.350918773347629 166.5,-4.343157572190957 166.6,-4.335353505822452 166.7,-4.3275066512650975 166.8,-4.3196170859641745 166.9,-4.311684887786519 167.0,-4.303710135019717 167.1,-4.295692906371362 167.2,-4.287633280968262 167.3,-4.279531338355666 167.4,-4.271387158496477 167.5,-4.263200821770463 167.6,-4.254972408973462 167.7,-4.246702001316586 167.8,-4.238389680425414 167.9,-4.23003552833921 168.0,-4.221639627510075 168.1,-4.213202060802161 168.2,-4.204722911490847 168.3,-4.19620226326191 168.4,-4.18764020021071 168.5,-4.179036806841354 168.6,-4.170392168065859 168.7,-4.161706369203321 168.8,-4.1529794959790625 168.9,-4.144211634523809 169.0,-4.1354028713728095 169.1,-4.126553293464998 169.2,-4.117662988142138 169.3,-4.108732043147953 169.4,-4.099760546627264 169.5,-4.09074858712512 169.6,-4.081696253585923 169.7,-4.072603635352548 169.8,-4.063470822165469 169.9,-4.054297904161867 170.0,-4.045084971874738 170.1,-4.035832116232003 170.2,-4.026539428555612 170.3,-4.017207000560635 170.4,-4.0078349243543805 170.5,-3.998423292435456 170.6,-3.9889721976928567 170.7,-3.9794817334050814 170.8,-3.969951993239177 170.9,-3.9603830712498356 171.0,-3.950775061878453 171.1,-3.941128059952202 171.2,-3.9314421606830967 171.3,-3.9217174596670477 171.4,-3.9119540528829386 171.5,-3.902152036691647 171.6,-3.892311507835116 171.7,-3.882432563435396 171.8,-3.87251530099367 171.9,-3.8625598183893235 172.0,-3.852566213878948 172.1,-3.8425345860953852 172.2,-3.8324650340467525 172.3,-3.822357657115456 172.4,-3.8122125550572377 172.5,-3.802029828000154 172.6,-3.791809576443609 172.7,-3.78155190125736 172.8,-3.77125690368052 172.9,-3.760924685320559 173.0,-3.7505553481523 173.1,-3.740148994516916 173.2,-3.7297057271209146 173.3,-3.719225649035124 173.4,-3.708708863693695 173.5,-3.6981554748930483 173.6,-3.6875655867908703 173.7,-3.67693930390508 173.8,-3.666276731112802 173.9,-3.655577973649323 174.0,-3.6448431371070606 174.1,-3.6340723274345175 174.2,-3.6232656509352346 174.3,-3.612423214266748 174.4,-3.601545124439534 174.5,-3.5906314888159447 174.6,-3.579682415109157 174.7,-3.568698011382108 174.8,-3.557678386046423 174.9,-3.546623647861373 175.0,-3.5355339059327417 175.1,-3.5244092697118083 175.2,-3.5132498489942483 175.3,-3.502055753919031 175.4,-3.4908270949673637 175.5,-3.4795639829615728 175.6,-3.468266529064027 175.7,-3.4569348447760344 175.8,-3.4455690419367393 175.9,-3.434169232722039 176.0,-3.422735529643445 176.1,-3.4112680455469846 176.2,-3.399766893612099 176.3,-3.3882321873505115 176.4,-3.3766640406051236 176.5,-3.365062567548869 176.6,-3.3534278826836026 176.7,-3.3417601008389686 176.8,-3.3300593371712557 176.9,-3.3183257071622907 177.0,-3.306559326618258 177.1,-3.2947603116685844 177.2,-3.282928778764786 177.3,-3.271064844679306 177.4,-3.2591686265043958 177.5,-3.2472402416509203 177.6,-3.235279807847225 177.7,-3.223287443137961 177.8,-3.21126326588292 177.9,-3.1992073947558906 178.0,-3.1871199487434483 178.1,-3.1750010471438035 178.2,-3.162850809565623 178.3,-3.1506693559268473 178.4,-3.138456806453505 178.5,-3.1262132816785293 178.6,-3.113938902440567 178.7,-3.101633789882782 178.8,-3.0892980654516706 178.9,-3.076931850895857 179.0,-3.0645352682648825 179.1,-3.0521084399080136 179.2,-3.0396514884730284 179.3,-3.0271645369050093 179.4,-3.0146477084451266 179.5,-3.0021011266294244 179.6,-2.989524915287596 179.7,-2.9769191985417764 179.8,-2.964284100805296 179.9,-2.951619746781473 180.0,-2.938926261462367 180.1,-2.926203770127552 180.2,-2.9134523983428826 180.3,-2.9006722719592433 180.4,-2.887863517111342 180.5,-2.875026260216394 180.6,-2.8621606279729566 180.7,-2.849266747359622 180.8,-2.8363447456337827 180.9,-2.8233947503303862 181.0,-2.8104168892606545 181.1,-2.797411290510837 181.2,-2.784378082440943 181.3,-2.7713173936834674 181.4,-2.7582293531421485 181.5,-2.7451140899906568 181.6,-2.7319717336713483 181.7,-2.718802413893966 181.8,-2.7056062606343803 181.9,-2.692383404133303 182.0,-2.6791339748949854 182.1,-2.665858103685946 182.2,-2.6525559215336743 182.3,-2.6392275597253296 182.4,-2.625873149806477 182.5,-2.6124928235797436 182.6,-2.599086713103547 182.7,-2.5856549506907864 182.8,-2.572197668907534 182.9,-2.558715000571727 183.0,-2.5452070787518597 183.1,-2.531674036765667 183.2,-2.518116008178805 183.3,-2.5045331268035476 183.4,-2.490925526697453 183.5,-2.4772933421620373 183.6,-2.4636367077414585 183.7,-2.4499557582211846 183.8,-2.436250628626664 183.9,-2.422521454221993 184.0,-2.4087683705085805 184.1,-2.394991513223806 184.2,-2.3811910183396976 184.3,-2.3673670220615595 184.4,-2.3535196608266626 184.5,-2.3396490713028677 184.6,-2.325755390387293 184.7,-2.3118387552049615 184.8,-2.2978993031074424 184.9,-2.2839371716715013 185.0,-2.2699524986977346 185.1,-2.2559454222092272 185.2,-2.241916080450164 185.3,-2.227864611884481 185.4,-2.2137911551945084 185.5,-2.199695849279577 185.6,-2.185578833254667 185.7,-2.171440246449026 185.8,-2.157280228404791 185.9,-2.143098918875643 186.0,-2.128896457825365 186.1,-2.1146729854265187 186.2,-2.100428642059035 186.3,-2.086163568308827 186.4,-2.071877904966422 186.5,-2.057571793025546 186.6,-2.0432453736817484 186.7,-2.028898788331004 186.8,-2.0145321785683103 186.9,-2.0001456861863214 187.0,-1.9857394531739017 187.1,-1.9713136217147587 187.2,-1.9568683341860167 187.3,-1.9424037331568318 187.4,-1.9279199613869848 187.5,-1.913417161825452 187.6,-1.8988954776090095 187.7,-1.884355052060814 187.8,-1.8697960286889996 187.9,-1.8552185511852537 188.0,-1.8406227634233894 188.1,-1.8260088094579394 188.2,-1.8113768335227296 188.3,-1.7967269800294554 188.4,-1.7820593935662565 188.5,-1.7673742188962895 188.6,-1.752671600956296 188.7,-1.7379516848551868 188.8,-1.7232146158725836 188.9,-1.708460539457416 189.0,-1.693689601226457 189.1,-1.6789019469629043 189.2,-1.6640977226149354 189.3,-1.6492770742942675 189.4,-1.6344401482747164 189.5,-1.619587090990748 189.6,-1.604718049036049 189.7,-1.5898331691620573 189.8,-1.5749325982765234 189.9,-1.5600164834420744 190.0,-1.5450849718747381 190.1,-1.5301382109425057 190.2,-1.5151763481638727 190.3,-1.5001995312063852 190.4,-1.4852079078851752 190.5,-1.4702016261615214 190.6,-1.4551808341413617 190.7,-1.4401456800738495 190.8,-1.4250963123498808 190.9,-1.410032879500648 191.0,-1.3949555301961483 191.1,-1.3798644132437317 191.2,-1.36475967758663 191.3,-1.349641472302478 191.4,-1.334509946601875 191.5,-1.3193652498268669 191.6,-1.304207531449488 191.7,-1.2890369410703038 191.8,-1.273853628416912 191.9,-1.2586577433424873 192.0,-1.2434494358242767 192.1,-1.2282288559621355 192.2,-1.2129961539770375 192.3,-1.1977514802096063 192.4,-1.1824949851186215 192.5,-1.1672268192795259 192.6,-1.1519471333829572 192.7,-1.1366560782332376 192.8,-1.1213538047469078 192.9,-1.1060404639512385 193.0,-1.0907162069827165 193.1,-1.0753811850855672 193.2,-1.0600355496102745 193.3,-1.0446794520120564 193.4,-1.0293130438494056 193.5,-1.0139364767825623 193.6,-0.9985499025720359 193.7,-0.983153473077102 193.8,-0.9677473402543041 193.9,-0.9523316561559532 194.0,-0.9369065729286234 194.1,-0.9214722428116678 194.2,-0.906028818135689 194.3,-0.8905764513210495 194.4,-0.8751152948763801 194.5,-0.8596455013970484 194.6,-0.844167223563671 194.7,-0.8286806141406011 194.8,-0.8131858259744217 194.9,-0.7976830119924317 195.0,-0.7821723252011556 195.1,-0.7666539186848054 195.2,-0.7511279456037884 195.3,-0.7355945591931866 195.4,-0.7200539127612615 195.5,-0.704506159687915 195.6,-0.6889514534231929 195.7,-0.6733899474857665 195.8,-0.6578217954614127 195.9,-0.6422471510015153 196.0,-0.6266661678215233 196.1,-0.6110789996994502 196.2,-0.5954858004743526 196.3,-0.5798867240448075 196.4,-0.56428192436741 196.5,-0.5486715554552288 196.6,-0.5330557713763031 196.7,-0.5174347262521127 196.8,-0.5018085742560711 196.9,-0.4861774696119942 197.0,-0.4705415665925745 197.1,-0.4549010195178535 197.2,-0.4392559827537208 197.3,-0.4236066107103687 197.4,-0.4079530578407902 197.5,-0.3922954786392281 197.6,-0.3766340276396636 197.7,-0.36096885941430396 197.8,-0.34530012857202647 197.9,-0.32962798975688773 198.0,-0.3139525976465663 198.1,-0.2982741069508539 198.2,-0.2825926724101285 198.3,-0.2669084487938047 198.4,-0.2512215908988511 198.5,-0.2355322535482132 198.6,-0.21984059158932537 198.7,-0.20414675989255182 198.8,-0.18845091334967107 198.9,-0.1727532068723607 199.0,-0.1570537953906418 199.1,-0.14135283385136757 199.2,-0.12565047721668968 199.3,-0.1099468804625288 199.4,-0.09424219857704069 199.5,-0.07853658655910416 199.6,-0.06283019941676479 199.7,-0.04712319216572277 199.8,-0.03141571982779403 199.9,-0.015707937429398064 200.0,-1.2246467991473533e-15" stroke-width="1" stroke-linecap="round" stroke-linejoin="round" stroke="#000000" fill="none"  />
<!-- Footer -->
</svg>
