<!-- Header -->
<svg
    version="1.1"
    baseProfile="full"
    xmlns="http://www.w3.org/2000/svg"
    xmlns:xlink="http://www.w3.org/1999/xlink"
    xmlns:ev="http://www.w3.org/2001/xml-events"
    width="210.0"
    height="20.0"
    viewBox="-5.0 -10.0 210.0 20.0"
    preserveAspectRatio="none"
>
<!-- Body -->
<!-- polyline -->
<polyline points="0.0,0.0 0.1,0.07853658655910338 0.2,0.15705379539064146 0.3,0.23553225354821328 0.4,0.31395259764656686 0.5,0.3922954786392247 0.6,0.47054156659257157 0.7,0.5486715554552263 0.8,0.6266661678215213 0.9,0.7045061596879133 1.0,0.7821723252011543 1.1,0.8596455013970478 1.2,0.936906572928623 1.3,1.0139364767825625 1.4,1.0907162069827125 1.5,1.167226819279527 1.6,1.243449435824274 1.7,1.3193652498268644 1.8,1.3949555301961465 1.9,1.4702016261615198 2.0,1.545084971874737 2.1,1.619587090990747 2.2,1.693689601226457 2.3,1.7673742188962853 2.4,1.8406227634233896 2.5,1.913417161825449 2.6,1.985739453173903 2.7,2.0575717930255437 2.8,2.128896457825363 2.9,2.1996958492795753 3.0,2.2699524986977337 3.1,2.339649071302867 3.2,2.4087683705085765 3.3,2.477293342162038 3.4,2.5452070787518566 3.5,2.612492823579744 3.6,2.679133974894983 3.7,2.745114089990659 3.8,2.8104168892606527 3.9,2.875026260216393 4.0,2.938926261462366 4.1,3.0021011266294195 4.2,3.0645352682648825 4.3,3.1262132816785257 4.4,3.1871199487434487 4.5,3.2472402416509185 4.6,3.306559326618259 4.7,3.3650625675488666 4.8,3.422735529643443 4.9,3.4795639829615723 5.0,3.5355339059327373 5.1,3.5906314888159434 5.2,3.644843137107058 5.3,3.698155474893048 5.4,3.7505553481522975 5.5,3.8020298280001548 5.6,3.8525662138789456 5.7,3.9021520366916485 5.8,3.9507750618784514 5.9,3.998423292435453 6.0,4.045084971874737 6.1,4.090748587125117 6.2,4.1354028713728095 6.3,4.179036806841351 6.4,4.221639627510076 6.5,4.263200821770461 6.6,4.303710135019719 6.7,4.3431575721909566 6.8,4.381533400219318 6.9,4.418828150443467 7.0,4.455032620941839 7.1,4.490137878803077 7.2,4.524135262330098 7.3,4.557016383177226 7.4,4.588773128419906 7.5,4.619397662556433 7.6,4.648882429441256 7.7,4.677220154149336 7.8,4.704403844771127 7.9,4.730426794137727 8.0,4.755282581475767 8.1,4.7789650739916505 8.2,4.801468428384715 8.3,4.822787092288991 8.4,4.842915805643155 8.5,4.861849601988383 8.6,4.879583809693737 8.7,4.896114053108828 8.8,4.911436253643443 8.9,4.92554663077387 9.0,4.938441702975689 9.1,4.950118288582788 9.2,4.960573506572389 9.3,4.969804777275899 9.4,4.9778098230154 9.5,4.9845866686656395 9.6,4.990133642141358 9.7,4.99444937480985 9.8,4.997532801828658 9.9,4.999383162408303 10.0,5.0 10.1,4.999383162408303 10.2,4.997532801828658 10.3,4.994449374809849 10.4,4.990133642141358 10.5,4.9845866686656395 10.6,4.9778098230154 10.7,4.969804777275899 10.8,4.9605735065723895 10.9,4.950118288582788 11.0,4.938441702975689 11.1,4.92554663077387 11.2,4.911436253643443 11.3,4.896114053108828 11.4,4.879583809693737 11.5,4.861849601988383 11.6,4.842915805643156 11.7,4.822787092288991 11.8,4.801468428384715 11.9,4.7789650739916505 12.0,4.755282581475768 12.1,4.730426794137727 12.2,4.704403844771128 12.3,4.677220154149336 12.4,4.648882429441257 12.5,4.619397662556434 12.6,4.5887731284199065 12.7,4.557016383177227 12.8,4.524135262330097 12.9,4.490137878803078 13.0,4.455032620941839 13.1,4.418828150443467 13.2,4.381533400219317 13.3,4.343157572190957 13.4,4.303710135019719 13.5,4.263200821770462 13.6,4.221639627510076 13.7,4.179036806841352 13.8,4.135402871372809 13.9,4.090748587125117 14.0,4.045084971874737 14.1,3.9984232924354517 14.2,3.9507750618784527 14.3,3.9021520366916485 14.4,3.852566213878946 14.5,3.8020298280001548 14.6,3.750555348152298 14.7,3.6981554748930496 14.8,3.644843137107057 14.9,3.5906314888159443 15.0,3.5355339059327395 15.1,3.4795639829615723 15.2,3.422735529643444 15.3,3.3650625675488666 15.4,3.306559326618259 15.5,3.247240241650919 15.6,3.187119948743449 15.7,3.126213281678527 15.8,3.0645352682648817 15.9,3.002101126629422 16.0,2.9389262614623664 16.1,2.8750262602163916 16.2,2.810416889260654 16.3,2.7451140899906585 16.4,2.679133974894985 16.5,2.6124928235797427 16.6,2.545207078751857 16.7,2.477293342162037 16.8,2.408768370508576 16.9,2.339649071302869 17.0,2.2699524986977324 17.1,2.1996958492795766 17.2,2.1288964578253626 17.3,2.0575717930255437 17.4,1.9857394531739052 17.5,1.9134171618254494 17.6,1.8406227634233887 17.7,1.7673742188962869 17.8,1.6936896012264566 17.9,1.6195870909907473 18.0,1.5450849718747375 18.1,1.4702016261615185 18.2,1.3949555301961478 18.3,1.3193652498268622 18.4,1.2434494358242763 18.5,1.1672268192795254 18.6,1.0907162069827117 18.7,1.0139364767825638 18.8,0.9369065729286229 18.9,0.8596455013970501 19.0,0.7821723252011549 19.1,0.7045061596879121 19.2,0.6266661678215226 19.3,0.5486715554552261 19.4,0.47054156659257396 19.5,0.3922954786392253 19.6,0.3139525976465657 19.7,0.235532253548217 19.8,0.15705379539064118 19.9,0.07853658655910355 20.0,6.123233995736766e-16 20.1,-0.07853658655910231 20.2,-0.15705379539063996 20.3,-0.23553225354821578 20.4,-0.3139525976465645 20.5,-0.3922954786392219 20.6,-0.47054156659257496 20.7,-0.5486715554552248 20.8,-0.6266661678215214 20.9,-0.7045061596879131 21.0,-0.7821723252011537 21.1,-0.8596455013970489 21.2,-0.9369065729286195 21.3,-1.0139364767825647 21.4,-1.0907162069827103 21.5,-1.1672268192795243 21.6,-1.243449435824273 21.7,-1.319365249826865 21.8,-1.3949555301961465 21.9,-1.4702016261615176 22.0,-1.5450849718747364 22.1,-1.6195870909907504 22.2,-1.6936896012264555 22.3,-1.7673742188962838 22.4,-1.8406227634233874 22.5,-1.9134171618254483 22.6,-1.9857394531739039 22.7,-2.0575717930255424 22.8,-2.1288964578253635 22.9,-2.1996958492795753 23.0,-2.269952498697731 23.1,-2.339649071302866 23.2,-2.408768370508575 23.3,-2.477293342162036 23.4,-2.5452070787518544 23.5,-2.6124928235797458 23.6,-2.6791339748949836 23.7,-2.745114089990657 23.8,-2.8104168892606527 23.9,-2.8750262602163907 24.0,-2.938926261462365 24.1,-3.0021011266294195 24.2,-3.064535268264881 24.3,-3.1262132816785257 24.4,-3.1871199487434465 24.5,-3.2472402416509176 24.6,-3.3065593266182605 24.7,-3.365062567548867 24.8,-3.422735529643442 24.9,-3.4795639829615714 25.0,-3.5355339059327373 25.1,-3.5906314888159434 25.2,-3.6448431371070567 25.3,-3.69815547489305 25.4,-3.7505553481522975 25.5,-3.8020298280001557 25.6,-3.852566213878947 25.7,-3.9021520366916462 25.8,-3.950775061878452 25.9,-3.9984232924354495 26.0,-4.045084971874736 26.1,-4.09074858712512 26.2,-4.135402871372808 26.3,-4.17903680684135 26.4,-4.2216396275100765 26.5,-4.263200821770462 26.6,-4.303710135019717 26.7,-4.343157572190954 26.8,-4.381533400219318 26.9,-4.418828150443467 27.0,-4.455032620941839 27.1,-4.490137878803077 27.2,-4.5241352623300966 27.3,-4.557016383177227 27.4,-4.588773128419905 27.5,-4.619397662556432 27.6,-4.648882429441257 27.7,-4.677220154149335 27.8,-4.704403844771127 27.9,-4.730426794137727 28.0,-4.755282581475767 28.1,-4.77896507399165 28.2,-4.801468428384716 28.3,-4.822787092288991 28.4,-4.8429158056431545 28.5,-4.861849601988382 28.6,-4.879583809693737 28.7,-4.896114053108828 28.8,-4.911436253643443 28.9,-4.925546630773869 29.0,-4.938441702975688 29.1,-4.950118288582789 29.2,-4.960573506572389 29.3,-4.969804777275898 29.4,-4.9778098230154 29.5,-4.9845866686656395 29.6,-4.990133642141358 29.7,-4.99444937480985 29.8,-4.997532801828658 29.9,-4.999383162408303 30.0,-5.0 30.1,-4.999383162408303 30.2,-4.997532801828658 30.3,-4.99444937480985 30.4,-4.990133642141358 30.5,-4.9845866686656395 30.6,-4.9778098230154 30.7,-4.969804777275899 30.8,-4.9605735065723895 30.9,-4.950118288582789 31.0,-4.938441702975689 31.1,-4.92554663077387 31.2,-4.911436253643443 31.3,-4.896114053108829 31.4,-4.879583809693738 31.5,-4.861849601988383 31.6,-4.842915805643155 31.7,-4.8227870922889915 31.8,-4.801468428384716 31.9,-4.7789650739916505 32.0,-4.755282581475768 32.1,-4.730426794137726 32.2,-4.704403844771127 32.3,-4.677220154149337 32.4,-4.648882429441258 32.5,-4.619397662556433 32.6,-4.588773128419906 32.7,-4.557016383177226 32.8,-4.524135262330099 32.9,-4.490137878803078 33.0,-4.455032620941838 33.1,-4.418828150443465 33.2,-4.381533400219319 33.3,-4.343157572190957 33.4,-4.303710135019717 33.5,-4.26320082177046 33.6,-4.221639627510075 33.7,-4.179036806841351 33.8,-4.135402871372811 33.9,-4.09074858712512 34.0,-4.045084971874735 34.1,-3.9984232924354535 34.2,-3.950775061878453 34.3,-3.902152036691653 34.4,-3.852566213878945 34.5,-3.802029828000154 34.6,-3.7505553481522975 34.7,-3.6981554748930483 34.8,-3.6448431371070606 34.9,-3.5906314888159447 35.0,-3.5355339059327386 35.1,-3.4795639829615728 35.2,-3.4227355296434414 35.3,-3.365062567548869 35.4,-3.3065593266182614 35.5,-3.247240241650917 35.6,-3.1871199487434483 35.7,-3.126213281678522 35.8,-3.0645352682648825 35.9,-3.0021011266294204 36.0,-2.938926261462367 36.1,-2.8750262602163907 36.2,-2.810416889260651 36.3,-2.7451140899906608 36.4,-2.6791339748949854 36.5,-2.612492823579747 36.6,-2.545207078751852 36.7,-2.4772933421620333 36.8,-2.4087683705085805 36.9,-2.3396490713028677 37.0,-2.269952498697731 37.1,-2.199695849279573 37.2,-2.128896457825361 37.3,-2.057571793025546 37.4,-1.9857394531739059 37.5,-1.913417161825452 37.6,-1.8406227634233894 37.7,-1.7673742188962853 37.8,-1.6936896012264613 37.9,-1.619587090990752 38.0,-1.5450849718747381 38.1,-1.470201626161517 38.2,-1.3949555301961438 38.3,-1.3193652498268713 38.4,-1.2434494358242767 38.5,-1.1672268192795259 38.6,-1.090716206982712 38.7,-1.0139364767825623 38.8,-0.9369065729286279 38.9,-0.8596455013970484 39.0,-0.7821723252011556 39.1,-0.704506159687915 39.2,-0.626666167821519 39.3,-0.5486715554552333 39.4,-0.47054156659257895 39.5,-0.39229547863922376 39.6,-0.3139525976465663 39.7,-0.23553225354820875 39.8,-0.1570537953906418 39.9,-0.07853658655910416 40.0,-1.2246467991473533e-15 40.1,0.07853658655910171 40.2,0.15705379539063935 40.3,0.2355322535482063 40.4,0.3139525976465639 40.5,0.39229547863922126 40.6,0.47054156659257657 40.7,0.5486715554552308 40.8,0.6266661678215164 40.9,0.7045061596879125 41.0,0.7821723252011487 41.1,0.8596455013970461 41.2,0.9369065729286298 41.3,1.0139364767825598 41.4,1.0907162069827097 41.5,1.1672268192795323 41.6,1.2434494358242745 41.7,1.3193652498268689 41.8,1.3949555301961458 41.9,1.4702016261615147 42.0,1.545084971874736 42.1,1.6195870909907413 42.2,1.693689601226459 42.3,1.767374218896283 42.4,1.840622763423383 42.5,1.9134171618254499 42.6,1.9857394531739074 42.7,2.0575717930255437 42.8,2.128896457825359 42.9,2.199695849279575 43.0,2.269952498697729 43.1,2.339649071302869 43.2,2.4087683705085743 43.3,2.4772933421620316 43.4,2.545207078751858 43.5,2.6124928235797413 43.6,2.679133974894983 43.7,2.745114089990662 43.8,2.810416889260649 43.9,2.8750262602163885 44.0,2.9389262614623646 44.1,3.002101126629419 44.2,3.064535268264888 44.3,3.1262132816785204 44.4,3.187119948743446 44.5,3.247240241650919 44.6,3.3065593266182565 44.7,3.3650625675488666 44.8,3.4227355296434396 44.9,3.479563982961571 45.0,3.535533905932737 45.1,3.59063148881594 45.2,3.6448431371070593 45.3,3.6981554748930465 45.4,3.7505553481522957 45.5,3.8020298280001525 45.6,3.852566213878946 45.7,3.902152036691646 45.8,3.9507750618784514 45.9,3.9984232924354526 46.0,4.045084971874734 46.1,4.090748587125119 46.2,4.135402871372808 46.3,4.179036806841349 46.4,4.221639627510074 46.5,4.263200821770459 46.6,4.303710135019716 46.7,4.343157572190958 46.8,4.381533400219316 46.9,4.418828150443464 47.0,4.45503262094184 47.1,4.490137878803077 47.2,4.524135262330098 47.3,4.557016383177225 47.4,4.588773128419905 47.5,4.619397662556432 47.6,4.648882429441257 47.7,4.677220154149336 47.8,4.704403844771125 47.9,4.730426794137725 48.0,4.755282581475767 48.1,4.778965073991651 48.2,4.801468428384715 48.3,4.82278709228899 48.4,4.8429158056431545 48.5,4.861849601988383 48.6,4.879583809693737 48.7,4.896114053108828 48.8,4.911436253643442 48.9,4.925546630773869 49.0,4.938441702975688 49.1,4.950118288582788 49.2,4.9605735065723895 49.3,4.969804777275898 49.4,4.9778098230154 49.5,4.9845866686656395 49.6,4.990133642141358 49.7,4.99444937480985 49.8,4.997532801828658 49.9,4.999383162408303 50.0,5.0 50.1,4.999383162408303 50.2,4.997532801828658 50.3,4.994449374809849 50.4,4.990133642141358 50.5,4.98458666866564 50.6,4.9778098230153995 50.7,4.969804777275899 50.8,4.9605735065723895 50.9,4.950118288582789 51.0,4.938441702975688 51.1,4.92554663077387 51.2,4.911436253643443 51.3,4.896114053108829 51.4,4.879583809693739 51.5,4.861849601988384 51.6,4.842915805643155 51.7,4.822787092288989 51.8,4.801468428384718 51.9,4.77896507399165 52.0,4.755282581475768 52.1,4.730426794137726 52.2,4.704403844771125 52.3,4.677220154149339 52.4,4.648882429441258 52.5,4.619397662556434 52.6,4.588773128419907 52.7,4.557016383177227 52.8,4.5241352623300966 52.9,4.490137878803079 53.0,4.455032620941838 53.1,4.418828150443468 53.2,4.381533400219321 53.3,4.343157572190957 53.4,4.303710135019722 53.5,4.263200821770463 53.6,4.221639627510076 53.7,4.179036806841349 53.8,4.1354028713728095 53.9,4.090748587125115 54.0,4.045084971874738 54.1,3.998423292435457 54.2,3.950775061878453 54.3,3.9021520366916533 54.4,3.8525662138789487 54.5,3.80202982800016 54.6,3.750555348152295 54.7,3.6981554748930483 54.8,3.644843137107061 54.9,3.590631488815945 55.0,3.5355339059327417 55.1,3.479563982961573 55.2,3.422735529643442 55.3,3.365062567548869 55.4,3.3065593266182653 55.5,3.2472402416509145 55.6,3.1871199487434487 55.7,3.1262132816785226 55.8,3.064535268264883 55.9,3.002101126629425 56.0,2.938926261462367 56.1,2.875026260216391 56.2,2.8104168892606554 56.3,2.745114089990665 56.4,2.6791339748949783 56.5,2.612492823579744 56.6,2.5452070787518526 56.7,2.477293342162038 56.8,2.408768370508581 56.9,2.339649071302868 57.0,2.2699524986977395 57.1,2.1996958492795775 57.2,2.1288964578253617 57.3,2.057571793025555 57.4,1.9857394531739023 57.5,1.913417161825444 57.6,1.8406227634233898 57.7,1.7673742188962902 57.8,1.6936896012264577 57.9,1.6195870909907526 58.0,1.545084971874739 58.1,1.470201626161526 58.2,1.3949555301961403 58.3,1.319365249826863 58.4,1.2434494358242774 58.5,1.1672268192795268 58.6,1.0907162069827172 58.7,1.013936476782563 58.8,0.9369065729286284 58.9,0.859645501397049 59.0,0.7821723252011604 59.1,0.7045061596879068 59.2,0.6266661678215195 59.3,0.5486715554552295 59.4,0.47054156659257074 59.5,0.39229547863922876 59.6,0.3139525976465669 59.7,0.23553225354820936 59.8,0.15705379539065129 59.9,0.07853658655910921 60.0,1.0718754395722281e-14 60.1,-0.07853658655910553 60.2,-0.1570537953906476 60.3,-0.2355322535482057 60.4,-0.31395259764656325 60.5,-0.3922954786392251 60.6,-0.47054156659256713 60.7,-0.5486715554552258 60.8,-0.6266661678215159 60.9,-0.7045061596879031 61.0,-0.7821723252011569 61.1,-0.8596455013970454 61.2,-0.9369065729286248 61.3,-1.0139364767825594 61.4,-1.0907162069827134 61.5,-1.167226819279523 61.6,-1.2434494358242738 61.7,-1.3193652498268595 61.8,-1.3949555301961367 61.9,-1.4702016261615225 62.0,-1.5450849718747353 62.1,-1.6195870909907488 62.2,-1.6936896012264544 62.3,-1.7673742188962869 62.4,-1.8406227634233863 62.5,-1.913417161825441 62.6,-1.985739453173899 62.7,-2.0575717930255513 62.8,-2.128896457825358 62.9,-2.1996958492795744 63.0,-2.2699524986977364 63.1,-2.3396490713028646 63.2,-2.408768370508578 63.3,-2.477293342162035 63.4,-2.5452070787518495 63.5,-2.612492823579741 63.6,-2.6791339748949756 63.7,-2.7451140899906545 63.8,-2.8104168892606523 63.9,-2.875026260216388 64.0,-2.938926261462364 64.1,-3.0021011266294217 64.2,-3.0645352682648874 64.3,-3.126213281678527 64.4,-3.1871199487434527 64.5,-3.2472402416509185 64.6,-3.306559326618256 64.7,-3.365062567548866 64.8,-3.422735529643439 64.9,-3.4795639829615705 65.0,-3.5355339059327395 65.1,-3.5906314888159363 65.2,-3.644843137107059 65.3,-3.698155474893046 65.4,-3.750555348152298 65.5,-3.802029828000152 65.6,-3.8525662138789403 65.7,-3.902152036691646 65.8,-3.950775061878451 65.9,-3.9984232924354544 66.0,-4.045084971874741 66.1,-4.090748587125118 66.2,-4.135402871372812 66.3,-4.179036806841352 66.4,-4.221639627510073 66.5,-4.263200821770462 66.6,-4.303710135019716 66.7,-4.343157572190956 66.8,-4.38153340021932 66.9,-4.4188281504434705 67.0,-4.45503262094184 67.1,-4.490137878803077 67.2,-4.524135262330098 67.3,-4.557016383177225 67.4,-4.588773128419906 67.5,-4.619397662556432 67.6,-4.648882429441254 67.7,-4.677220154149338 67.8,-4.704403844771124 67.9,-4.730426794137728 68.0,-4.75528258147577 68.1,-4.778965073991649 68.2,-4.801468428384715 68.3,-4.822787092288988 68.4,-4.8429158056431545 68.5,-4.861849601988383 68.6,-4.879583809693734 68.7,-4.89611405310883 68.8,-4.911436253643444 68.9,-4.925546630773871 69.0,-4.938441702975689 69.1,-4.950118288582788 69.2,-4.9605735065723895 69.3,-4.969804777275898 69.4,-4.9778098230154 69.5,-4.98458666866564 69.6,-4.990133642141357 69.7,-4.99444937480985 69.8,-4.997532801828658 69.9,-4.999383162408303 70.0,-5.0 70.1,-4.999383162408303 70.2,-4.997532801828658 70.3,-4.99444937480985 70.4,-4.990133642141357 70.5,-4.98458666866564 70.6,-4.9778098230154 70.7,-4.969804777275898 70.8,-4.9605735065723895 70.9,-4.950118288582789 71.0,-4.938441702975688 71.1,-4.925546630773871 71.2,-4.911436253643443 71.3,-4.896114053108827 71.4,-4.8795838096937345 71.5,-4.861849601988382 71.6,-4.842915805643156 71.7,-4.822787092288989 71.8,-4.801468428384716 71.9,-4.77896507399165 72.0,-4.755282581475769 72.1,-4.7304267941377285 72.2,-4.704403844771125 72.3,-4.67722015414934 72.4,-4.648882429441255 72.5,-4.619397662556434 72.6,-4.588773128419907 72.7,-4.557016383177227 72.8,-4.5241352623301 72.9,-4.490137878803079 73.0,-4.455032620941842 73.1,-4.418828150443472 73.2,-4.381533400219313 73.3,-4.343157572190958 73.4,-4.303710135019713 73.5,-4.263200821770459 73.6,-4.22163962751008 73.7,-4.179036806841349 73.8,-4.1354028713728095 73.9,-4.090748587125116 74.0,-4.045084971874734 74.1,-3.998423292435457 74.2,-3.9507750618784483 74.3,-3.902152036691648 74.4,-3.852566213878943 74.5,-3.8020298280001548 74.6,-3.7505553481523006 74.7,-3.698155474893049 74.8,-3.6448431371070615 74.9,-3.59063148881594 75.0,-3.535533905932742 75.1,-3.4795639829615737 75.2,-3.4227355296434423 75.3,-3.3650625675488692 75.4,-3.306559326618259 75.5,-3.2472402416509216 75.6,-3.187119948743456 75.7,-3.126213281678523 75.8,-3.0645352682648905 75.9,-3.002101126629411 76.0,-2.9389262614623672 76.1,-2.8750262602164063 76.2,-2.8104168892606483 76.3,-2.7451140899906656 76.4,-2.6791339748949787 76.5,-2.6124928235797444 76.6,-2.545207078751868 76.7,-2.4772933421620307 76.8,-2.4087683705085814 76.9,-2.3396490713028606 77.0,-2.269952498697732 77.1,-2.1996958492795784 77.2,-2.128896457825362 77.3,-2.0575717930255473 77.4,-1.9857394531739028 77.5,-1.913417161825453 77.6,-1.8406227634233985 77.7,-1.7673742188962906 77.8,-1.6936896012264582 77.9,-1.6195870909907448 78.0,-1.5450849718747395 78.1,-1.4702016261615267 78.2,-1.3949555301961494 78.3,-1.3193652498268724 78.4,-1.2434494358242694 78.5,-1.1672268192795359 78.6,-1.0907162069827265 78.7,-1.013936476782555 78.8,-0.9369065729286377 78.9,-0.859645501397041 79.0,-0.7821723252011524 79.1,-0.704506159687925 79.2,-0.6266661678215201 79.3,-0.54867155545523 79.4,-0.4705415665925625 79.5,-0.39229547863922937 79.6,-0.3139525976465676 79.7,-0.23553225354820995 79.8,-0.15705379539064301 79.9,-0.07853658655910095 80.0,-2.4492935982947065e-15 80.1,0.07853658655909604 80.2,0.15705379539063813 80.3,0.23553225354820506 80.4,0.31395259764656264 80.5,0.39229547863922454 80.6,0.47054156659255764 80.7,0.5486715554552253 80.8,0.6266661678215152 80.9,0.7045061596879201 81.0,0.7821723252011475 81.1,0.8596455013970361 81.2,0.9369065729286329 81.3,1.01393647678255 81.4,1.0907162069827216 81.5,1.1672268192795139 81.6,1.2434494358242647 81.7,1.3193652498268675 81.8,1.3949555301961447 81.9,1.4702016261615136 82.0,1.5450849718747262 82.1,1.6195870909907317 82.2,1.6936896012264537 82.3,1.7673742188962862 82.4,1.8406227634234025 82.5,1.9134171618254403 82.6,1.9857394531738983 82.7,2.057571793025543 82.8,2.1288964578253577 82.9,2.199695849279582 83.0,2.2699524986977435 83.1,2.3396490713028566 83.2,2.408768370508577 83.3,2.4772933421620267 83.4,2.545207078751864 83.5,2.612492823579748 83.6,2.6791339748949823 83.7,2.745114089990654 83.8,2.810416889260644 83.9,2.8750262602164023 84.0,2.9389262614623632 84.1,3.0021011266294213 84.2,3.0645352682648728 84.3,3.1262132816785195 84.4,3.187119948743452 84.5,3.2472402416509176 84.6,3.306559326618255 84.7,3.3650625675488595 84.8,3.4227355296434325 84.9,3.4795639829615697 85.0,3.535533905932739 85.1,3.590631488815936 85.2,3.644843137107064 85.3,3.698155474893046 85.4,3.7505553481522975 85.5,3.802029828000151 85.6,3.8525662138789403 85.7,3.902152036691656 85.8,3.950775061878451 85.9,3.998423292435454 86.0,4.045084971874731 86.1,4.0907485871251135 86.2,4.135402871372812 86.3,4.179036806841351 86.4,4.221639627510073 86.5,4.2632008217704565 86.6,4.303710135019711 86.7,4.343157572190956 86.8,4.381533400219319 86.9,4.418828150443462 87.0,4.455032620941836 87.1,4.490137878803076 87.2,4.524135262330098 87.3,4.557016383177225 87.4,4.588773128419909 87.5,4.619397662556429 87.6,4.648882429441254 87.7,4.677220154149337 87.8,4.704403844771124 87.9,4.73042679413773 88.0,4.755282581475767 88.1,4.778965073991649 88.2,4.801468428384714 88.3,4.822787092288988 88.4,4.842915805643159 88.5,4.861849601988383 88.6,4.879583809693734 88.7,4.896114053108827 88.8,4.911436253643442 88.9,4.92554663077387 89.0,4.938441702975689 89.1,4.950118288582787 89.2,4.960573506572389 89.3,4.969804777275897 89.4,4.9778098230154 89.5,4.98458666866564 89.6,4.990133642141357 89.7,4.994449374809849 89.8,4.997532801828658 89.9,4.999383162408303 90.0,5.0 90.1,4.999383162408303 90.2,4.997532801828658 90.3,4.99444937480985 90.4,4.990133642141358 90.5,4.98458666866564 90.6,4.9778098230154 90.7,4.969804777275898 90.8,4.9605735065723895 90.9,4.950118288582789 91.0,4.93844170297569 91.1,4.925546630773871 91.2,4.911436253643443 91.3,4.896114053108828 91.4,4.879583809693739 91.5,4.861849601988385 91.6,4.842915805643156 91.7,4.82278709228899 91.8,4.801468428384716 91.9,4.778965073991653 92.0,4.755282581475772 92.1,4.730426794137729 92.2,4.704403844771125 92.3,4.67722015414934 92.4,4.648882429441259 92.5,4.619397662556434 92.6,4.588773128419908 92.7,4.557016383177227 92.8,4.524135262330101 92.9,4.490137878803072 93.0,4.455032620941843 93.1,4.418828150443473 93.2,4.381533400219322 93.3,4.343157572190958 93.4,4.303710135019713 93.5,4.263200821770459 93.6,4.221639627510081 93.7,4.179036806841355 93.8,4.135402871372815 93.9,4.090748587125116 94.0,4.045084971874734 94.1,3.9984232924354575 94.2,3.9507750618784545 94.3,3.9021520366916485 94.4,3.8525662138789434 94.5,3.802029828000155 94.6,3.750555348152301 94.7,3.6981554748930554 94.8,3.6448431371070624 94.9,3.59063148881594 95.0,3.535533905932743 95.1,3.479563982961574 95.2,3.422735529643443 95.3,3.36506256754887 95.4,3.3065593266182596 95.5,3.247240241650922 95.6,3.1871199487434563 95.7,3.126213281678524 95.8,3.0645352682648914 95.9,3.0021011266294257 96.0,2.9389262614623677 96.1,2.8750262602163916 96.2,2.810416889260649 96.3,2.745114089990666 96.4,2.679133974894987 96.5,2.6124928235797524 96.6,2.5452070787518615 96.7,2.4772933421620316 96.8,2.4087683705085823 96.9,2.339649071302869 97.0,2.269952498697733 97.1,2.199695849279579 97.2,2.1288964578253626 97.3,2.0575717930255477 97.4,1.9857394531739114 97.5,1.9134171618254536 97.6,1.840622763423399 97.7,1.7673742188962913 97.8,1.6936896012264588 97.9,1.6195870909907453 98.0,1.54508497187474 98.1,1.4702016261615272 98.2,1.39495553019615 98.3,1.3193652498268729 98.4,1.24344943582427 98.5,1.1672268192795365 98.6,1.090716206982727 98.7,1.013936476782564 98.8,0.9369065729286209 98.9,0.8596455013970415 99.0,0.782172325201153 99.1,0.7045061596879255 99.2,0.6266661678215295 99.3,0.5486715554552307 99.4,0.4705415665925632 99.5,0.39229547863923 99.6,0.31395259764656813 99.7,0.23553225354821059 99.8,0.15705379539064365 99.9,0.07853658655910156 100.0,3.061616997868383e-15 100.1,-0.07853658655909543 100.2,-0.15705379539063752 100.3,-0.23553225354820448 100.4,-0.313952597646562 100.5,-0.39229547863922387 100.6,-0.47054156659257473 100.7,-0.5486715554552246 100.8,-0.6266661678215146 100.9,-0.7045061596879107 101.0,-0.7821723252011469 101.1,-0.8596455013970443 101.2,-0.9369065729286323 101.3,-1.0139364767825494 101.4,-1.0907162069827123 101.5,-1.1672268192795305 101.6,-1.2434494358242727 101.7,-1.319365249826867 101.8,-1.3949555301961443 101.9,-1.4702016261615045 102.0,-1.5450849718747426 102.1,-1.6195870909907395 102.2,-1.6936896012264533 102.3,-1.7673742188962858 102.4,-1.8406227634233936 102.5,-1.9134171618254396 102.6,-1.9857394531738979 102.7,-2.0575717930255424 102.8,-2.1288964578253493 102.9,-2.199695849279581 103.0,-2.269952498697727 103.1,-2.3396490713028637 103.2,-2.4087683705085765 103.3,-2.477293342162042 103.4,-2.5452070787518637 103.5,-2.6124928235797396 103.6,-2.679133974894967 103.7,-2.745114089990646 103.8,-2.8104168892606585 103.9,-2.875026260216402 104.0,-2.938926261462363 104.1,-3.0021011266294066 104.2,-3.064535268264886 104.3,-3.1262132816785186 104.4,-3.187119948743459 104.5,-3.2472402416509176 104.6,-3.306559326618248 104.7,-3.365062567548872 104.8,-3.4227355296434387 104.9,-3.4795639829615697 105.0,-3.5355339059327386 105.1,-3.5906314888159474 105.2,-3.6448431371070518 105.3,-3.6981554748930456 105.4,-3.7505553481522975 105.5,-3.802029828000145 105.6,-3.8525662138789505 105.7,-3.9021520366916445 105.8,-3.9507750618784505 105.9,-3.9984232924354535 106.0,-4.045084971874741 106.1,-4.090748587125113 106.2,-4.135402871372807 106.3,-4.179036806841341 106.4,-4.2216396275100685 106.5,-4.263200821770465 106.6,-4.303710135019715 106.7,-4.343157572190956 106.8,-4.38153340021931 106.9,-4.4188281504434705 107.0,-4.455032620941836 107.1,-4.490137878803076 107.2,-4.524135262330098 107.3,-4.557016383177221 107.4,-4.588773128419909 107.5,-4.619397662556431 107.6,-4.648882429441256 107.7,-4.677220154149337 107.8,-4.70440384477113 107.9,-4.730426794137724 108.0,-4.755282581475767 108.1,-4.778965073991646 108.2,-4.8014684283847116 108.3,-4.822787092288992 108.4,-4.8429158056431545 108.5,-4.861849601988383 108.6,-4.879583809693734 108.7,-4.89611405310883 108.8,-4.911436253643442 108.9,-4.925546630773872 109.0,-4.938441702975686 109.1,-4.950118288582786 109.2,-4.96057350657239 109.3,-4.969804777275898 109.4,-4.9778098230154 109.5,-4.98458666866564 109.6,-4.990133642141357 109.7,-4.994449374809849 109.8,-4.997532801828657 109.9,-4.999383162408303 110.0,-5.0 110.1,-4.999383162408303 110.2,-4.997532801828658 110.3,-4.99444937480985 110.4,-4.990133642141358 110.5,-4.9845866686656395 110.6,-4.9778098230154 110.7,-4.969804777275899 110.8,-4.960573506572391 110.9,-4.9501182885827895 111.0,-4.9384417029756875 111.1,-4.92554663077387 111.2,-4.911436253643443 111.3,-4.896114053108832 111.4,-4.8795838096937345 111.5,-4.861849601988385 111.6,-4.842915805643156 111.7,-4.82278709228899 111.8,-4.801468428384719 111.9,-4.778965073991648 112.0,-4.755282581475769 112.1,-4.730426794137727 112.2,-4.704403844771125 112.3,-4.67722015414934 112.4,-4.648882429441259 112.5,-4.619397662556434 112.6,-4.588773128419912 112.7,-4.557016383177231 112.8,-4.524135262330093 112.9,-4.490137878803079 113.0,-4.455032620941839 113.1,-4.418828150443473 113.2,-4.381533400219314 113.3,-4.343157572190959 113.4,-4.303710135019719 113.5,-4.263200821770469 113.6,-4.221639627510081 113.7,-4.179036806841346 113.8,-4.135402871372811 113.9,-4.090748587125116 114.0,-4.045084971874744 114.1,-3.998423292435458 114.2,-3.9507750618784545 114.3,-3.902152036691649 114.4,-3.8525662138789443 114.5,-3.8020298280001614 114.6,-3.7505553481523135 114.7,-3.69815547489305 114.8,-3.6448431371070567 114.9,-3.5906314888159403 115.0,-3.5355339059327306 115.1,-3.479563982961587 115.2,-3.4227355296434436 115.3,-3.3650625675488763 115.4,-3.3065593266182667 115.5,-3.2472402416509096 115.6,-3.18711994874345 115.7,-3.1262132816785244 115.8,-3.064535268264892 115.9,-3.0021011266294124 116.0,-2.9389262614623686 116.1,-2.8750262602163925 116.2,-2.8104168892606642 116.3,-2.7451140899906665 116.4,-2.679133974894973 116.5,-2.6124928235797458 116.6,-2.5452070787518544 116.7,-2.4772933421620476 116.8,-2.4087683705085827 116.9,-2.33964907130287 117.0,-2.2699524986977333 117.1,-2.1996958492795873 117.2,-2.1288964578253715 117.3,-2.0575717930255646 117.4,-1.9857394531739039 117.5,-1.913417161825446 117.6,-1.8406227634233998 117.7,-1.767374218896275 117.8,-1.6936896012264593 117.9,-1.619587090990746 118.0,-1.5450849718747488 118.1,-1.4702016261615278 118.2,-1.3949555301961336 118.3,-1.3193652498268649 118.4,-1.2434494358242705 118.5,-1.167226819279537 118.6,-1.090716206982719 118.7,-1.0139364767825647 118.8,-0.9369065729286215 118.9,-0.8596455013970596 119.0,-0.7821723252011624 119.1,-0.704506159687935 119.2,-0.6266661678215213 119.3,-0.5486715554552225 119.4,-0.47054156659256374 119.5,-0.39229547863923064 119.6,-0.3139525976465865 119.7,-0.23553225354821122 119.8,-0.15705379539065312 119.9,-0.07853658655911104 120.0,-2.1437508791444562e-14 120.1,0.0785365865591037 120.2,0.1570537953906458 120.3,0.23553225354820384 120.4,0.3139525976465791 120.5,0.39229547863922326 120.6,0.4705415665925564 120.7,0.5486715554552152 120.8,0.6266661678215141 120.9,0.7045061596879276 121.0,0.782172325201155 121.1,0.8596455013970523 121.2,0.9369065729286142 121.3,1.0139364767825574 121.4,1.0907162069827117 121.5,1.1672268192795299 121.6,1.2434494358242634 121.7,1.319365249826858 121.8,1.3949555301961265 121.9,1.4702016261615207 122.0,1.545084971874742 122.1,1.619587090990739 122.2,1.6936896012264526 122.3,1.7673742188962684 122.4,1.840622763423393 122.5,1.9134171618254392 122.6,1.9857394531738972 122.7,2.0575717930255575 122.8,2.128896457825365 122.9,2.1996958492795806 123.0,2.2699524986977266 123.1,2.3396490713028633 123.2,2.408768370508576 123.3,2.477293342162041 123.4,2.5452070787518477 123.5,2.612492823579739 123.6,2.6791339748949667 123.7,2.7451140899906603 123.8,2.810416889260658 123.9,2.8750262602163863 124.0,2.9389262614623624 124.1,3.002101126629406 124.2,3.0645352682648856 124.3,3.126213281678518 124.4,3.1871199487434443 124.5,3.2472402416509034 124.6,3.3065593266182614 124.7,3.3650625675488715 124.8,3.422735529643438 124.9,3.479563982961582 125.0,3.5355339059327258 125.1,3.5906314888159354 125.2,3.644843137107051 125.3,3.698155474893045 125.4,3.7505553481523086 125.5,3.8020298280001565 125.6,3.852566213878939 125.7,3.9021520366916445 125.8,3.95077506187845 125.9,3.9984232924354535 126.0,4.04508497187474 126.1,4.090748587125112 126.2,4.135402871372806 126.3,4.179036806841341 126.4,4.221639627510077 126.5,4.263200821770464 126.6,4.303710135019715 126.7,4.343157572190955 126.8,4.38153340021931 126.9,4.41882815044347 127.0,4.455032620941836 127.1,4.490137878803076 127.2,4.52413526233009 127.3,4.557016383177228 127.4,4.588773128419902 127.5,4.619397662556438 127.6,4.648882429441256 127.7,4.677220154149337 127.8,4.704403844771123 127.9,4.730426794137729 128.0,4.755282581475766 128.1,4.7789650739916505 128.2,4.801468428384716 128.3,4.822787092288988 128.4,4.842915805643159 128.5,4.861849601988383 128.6,4.879583809693738 128.7,4.8961140531088265 128.8,4.911436253643445 128.9,4.9255466307738685 129.0,4.938441702975689 129.1,4.950118288582789 129.2,4.960573506572389 129.3,4.9698047772758995 129.4,4.9778098230154 129.5,4.9845866686656395 129.6,4.990133642141357 129.7,4.994449374809849 129.8,4.997532801828657 129.9,4.999383162408303 130.0,5.0 130.1,4.999383162408303 130.2,4.997532801828658 130.3,4.99444937480985 130.4,4.990133642141358 130.5,4.984586668665641 130.6,4.9778098230154 130.7,4.9698047772759 130.8,4.960573506572389 130.9,4.950118288582787 131.0,4.93844170297569 131.1,4.925546630773873 131.2,4.911436253643447 131.3,4.896114053108828 131.4,4.87958380969374 131.5,4.86184960198838 131.6,4.842915805643156 131.7,4.822787092288995 131.8,4.801468428384713 131.9,4.778965073991653 132.0,4.755282581475764 132.1,4.730426794137727 132.2,4.704403844771126 132.3,4.677220154149341 132.4,4.648882429441253 132.5,4.619397662556434 132.6,4.588773128419905 132.7,4.557016383177224 132.8,4.524135262330101 132.9,4.490137878803072 133.0,4.455032620941839 133.1,4.418828150443465 133.2,4.381533400219323 133.3,4.34315757219095 133.4,4.303710135019719 133.5,4.26320082177046 133.6,4.221639627510072 133.7,4.1790368068413555 133.8,4.135402871372801 133.9,4.090748587125116 134.0,4.045084971874735 134.1,3.998423292435458 134.2,3.950775061878455 134.3,3.90215203669165 134.4,3.8525662138789443 134.5,3.8020298280001503 134.6,3.7505553481523024 134.7,3.6981554748930625 134.8,3.644843137107057 134.9,3.5906314888159407 135.0,3.535533905932744 135.1,3.479563982961575 135.2,3.422735529643457 135.3,3.3650625675488643 135.4,3.3065593266182534 135.5,3.2472402416509234 135.6,3.1871199487434643 135.7,3.1262132816785386 135.8,3.064535268264878 135.9,3.0021011266294266 136.0,2.9389262614623544 136.1,2.875026260216407 136.2,2.8104168892606647 136.3,2.7451140899906523 136.4,2.679133974894988 136.5,2.6124928235797307 136.6,2.54520707875187 136.7,2.477293342162048 136.8,2.408768370508583 136.9,2.3396490713028544 137.0,2.2699524986977337 137.1,2.1996958492795717 137.2,2.128896457825388 137.3,2.0575717930255486 137.4,1.9857394531738881 137.5,1.9134171618254467 137.6,1.8406227634233838 137.7,1.7673742188962924 137.8,1.6936896012264433 137.9,1.6195870909907464 138.0,1.5450849718747328 138.1,1.4702016261615114 138.2,1.3949555301961511 138.3,1.3193652498268484 138.4,1.2434494358242711 138.5,1.1672268192795205 138.6,1.0907162069827194 138.7,1.0139364767825652 138.8,0.936906572928622 138.9,0.8596455013970428 139.0,0.7821723252011453 139.1,0.7045061596879179 139.2,0.6266661678215396 139.3,0.5486715554552231 139.4,0.47054156659256435 139.5,0.3922954786392312 139.6,0.31395259764656935 139.7,0.23553225354822957 139.8,0.15705379539063596 139.9,0.07853658655909389 140.0,4.2862637970157365e-15 140.1,-0.07853658655908533 140.2,-0.15705379539062742 140.3,-0.235532253548221 140.4,-0.3139525976465608 140.5,-0.39229547863922265 140.6,-0.4705415665925558 140.7,-0.5486715554552145 140.8,-0.6266661678215311 140.9,-0.7045061596879094 141.0,-0.7821723252011369 141.1,-0.8596455013970343 141.2,-0.9369065729286137 141.3,-1.013936476782557 141.4,-1.0907162069827285 141.5,-1.1672268192795294 141.6,-1.243449435824263 141.7,-1.3193652498268402 141.8,-1.394955530196143 141.9,-1.4702016261615372 142.0,-1.5450849718747415 142.1,-1.619587090990755 142.2,-1.6936896012264353 142.3,-1.7673742188963009 142.4,-1.8406227634233923 142.5,-1.913417161825455 142.6,-1.9857394531739128 142.7,-2.057571793025541 142.8,-2.1288964578253804 142.9,-2.19969584927958 143.0,-2.269952498697742 143.1,-2.3396490713028624 143.2,-2.4087683705085756 143.3,-2.4772933421620404 143.4,-2.545207078751863 143.5,-2.612492823579754 143.6,-2.679133974894981 143.7,-2.745114089990645 143.8,-2.810416889260657 143.9,-2.8750262602164005 144.0,-2.9389262614623624 144.1,-3.00210112662942 144.2,-3.0645352682648714 144.3,-3.1262132816785315 144.4,-3.1871199487434576 144.5,-3.2472402416509167 144.6,-3.3065593266182476 144.7,-3.3650625675488577 144.8,-3.4227355296434503 144.9,-3.4795639829615688 145.0,-3.5355339059327378 145.1,-3.5906314888159345 145.2,-3.644843137107051 145.3,-3.6981554748930563 145.4,-3.750555348152296 145.5,-3.8020298280001446 145.6,-3.8525662138789385 145.7,-3.902152036691644 145.8,-3.95077506187845 145.9,-3.998423292435453 146.0,-4.045084971874729 146.1,-4.090748587125112 146.2,-4.135402871372796 146.3,-4.179036806841351 146.4,-4.221639627510086 146.5,-4.263200821770456 146.6,-4.303710135019714 146.7,-4.343157572190946 146.8,-4.381533400219327 146.9,-4.41882815044347 147.0,-4.455032620941843 147.1,-4.490137878803068 147.2,-4.5241352623300894 147.3,-4.557016383177235 147.4,-4.588773128419908 147.5,-4.619397662556438 147.6,-4.648882429441256 147.7,-4.677220154149325 147.8,-4.704403844771129 147.9,-4.730426794137729 148.0,-4.755282581475772 148.1,-4.7789650739916505 148.2,-4.8014684283847116 148.3,-4.822787092288992 148.4,-4.842915805643159 148.5,-4.861849601988382 148.6,-4.879583809693737 148.7,-4.8961140531088265 148.8,-4.911436253643445 148.9,-4.925546630773872 149.0,-4.938441702975689 149.1,-4.950118288582786 149.2,-4.960573506572388 149.3,-4.9698047772758995 149.4,-4.9778098230154 149.5,-4.9845866686656395 149.6,-4.990133642141357 149.7,-4.994449374809849 149.8,-4.997532801828658 149.9,-4.999383162408303 150.0,-5.0 150.1,-4.999383162408303 150.2,-4.997532801828658 150.3,-4.99444937480985 150.4,-4.990133642141358 150.5,-4.984586668665641 150.6,-4.9778098230154 150.7,-4.9698047772759 150.8,-4.960573506572389 150.9,-4.9501182885827895 151.0,-4.93844170297569 151.1,-4.92554663077387 151.2,-4.911436253643447 151.3,-4.896114053108825 151.4,-4.879583809693735 151.5,-4.861849601988385 151.6,-4.842915805643161 151.7,-4.822787092288995 151.8,-4.801468428384709 151.9,-4.778965073991648 152.0,-4.755282581475769 152.1,-4.730426794137733 152.2,-4.7044038447711385 152.3,-4.677220154149334 152.4,-4.648882429441253 152.5,-4.619397662556429 152.6,-4.588773128419913 152.7,-4.557016383177238 152.8,-4.524135262330093 152.9,-4.490137878803072 153.0,-4.455032620941839 153.1,-4.418828150443465 153.2,-4.381533400219332 153.3,-4.34315757219095 153.4,-4.303710135019711 153.5,-4.26320082177046 153.6,-4.221639627510082 153.7,-4.1790368068413555 153.8,-4.1354028713728015 153.9,-4.090748587125117 154.0,-4.045084971874735 154.1,-3.9984232924354584 154.2,-3.9507750618784554 154.3,-3.9021520366916382 154.4,-3.8525662138789447 154.5,-3.802029828000162 154.6,-3.7505553481523024 154.7,-3.6981554748930505 154.8,-3.644843137107057 154.9,-3.590631488815941 155.0,-3.535533905932744 155.1,-3.4795639829615754 155.2,-3.422735529643457 155.3,-3.3650625675488643 155.4,-3.3065593266182676 155.5,-3.247240241650924 155.6,-3.187119948743451 155.7,-3.1262132816785386 155.8,-3.0645352682648785 155.9,-3.0021011266294275 156.0,-2.9389262614623695 156.1,-2.8750262602164076 156.2,-2.810416889260665 156.3,-2.745114089990638 156.4,-2.679133974894989 156.5,-2.6124928235797467 156.6,-2.5452070787518704 156.7,-2.477293342162064 156.8,-2.408768370508568 156.9,-2.339649071302855 157.0,-2.26995249869775 157.1,-2.1996958492795886 157.2,-2.1288964578253884 157.3,-2.0575717930255335 157.4,-1.9857394531738888 157.5,-1.9134171618254472 157.6,-1.8406227634234174 157.7,-1.7673742188963095 157.8,-1.6936896012264437 157.9,-1.6195870909907304 158.0,-1.5450849718747333 158.1,-1.4702016261615292 158.2,-1.394955530196169 158.3,-1.319365249826849 158.4,-1.2434494358242718 158.5,-1.167226819279521 158.6,-1.09071620698272 158.7,-1.013936476782566 158.8,-0.9369065729286052 158.9,-0.8596455013970433 159.0,-0.7821723252011635 159.1,-0.7045061596879186 159.2,-0.6266661678215225 159.3,-0.5486715554552237 159.4,-0.47054156659256496 159.5,-0.3922954786392318 159.6,-0.31395259764657 159.7,-0.23553225354823015 159.8,-0.1570537953906366 159.9,-0.07853658655911228 160.0,-4.898587196589413e-15 160.1,0.07853658655910248 160.2,0.1570537953906268 160.3,0.23553225354822038 160.4,0.3139525976465602 160.5,0.392295478639222 160.6,0.4705415665925552 160.7,0.548671555455214 160.8,0.6266661678215129 160.9,0.7045061596879089 161.0,0.7821723252011539 161.1,0.8596455013970338 161.2,0.9369065729285957 161.3,1.0139364767825563 161.4,1.0907162069827105 161.5,1.1672268192795114 161.6,1.2434494358242623 161.7,1.3193652498268396 161.8,1.3949555301961594 161.9,1.4702016261615198 162.0,1.545084971874724 162.1,1.6195870909907208 162.2,1.6936896012264346 162.3,1.7673742188963004 162.4,1.8406227634234082 162.5,1.913417161825438 162.6,1.98573945317388 162.7,2.0575717930255246 162.8,2.1288964578253795 162.9,2.1996958492795797 163.0,2.2699524986977098 163.1,2.3396490713028464 163.2,2.408768370508559 163.3,2.477293342162055 163.4,2.5452070787518624 163.5,2.612492823579738 163.6,2.6791339748949805 163.7,2.7451140899906594 163.8,2.8104168892606425 163.9,2.8750262602163708 164.0,2.9389262614623473 164.1,3.0021011266294053 164.2,3.064535268264857 164.3,3.1262132816785315 164.4,3.187119948743443 164.5,3.247240241650916 164.6,3.3065593266182605 164.7,3.3650625675488577 164.8,3.422735529643463 164.9,3.479563982961581 165.0,3.5355339059327244 165.1,3.590631488815922 165.2,3.6448431371070504 165.3,3.698155474893044 165.4,3.750555348152296 165.5,3.8020298280001557 165.6,3.8525662138789385 165.7,3.9021520366916325 165.8,3.9507750618784603 165.9,3.9984232924354632 166.0,4.04508497187475 166.1,4.0907485871251215 166.2,4.135402871372796 166.3,4.17903680684135 166.4,4.2216396275100765 166.5,4.263200821770455 166.6,4.3037101350197045 166.7,4.343157572190945 166.8,4.381533400219327 166.9,4.418828150443478 167.0,4.455032620941843 167.1,4.4901378788030755 167.2,4.5241352623300966 167.3,4.557016383177227 167.4,4.588773128419901 167.5,4.619397662556424 167.6,4.648882429441249 167.7,4.677220154149331 167.8,4.704403844771135 167.9,4.730426794137729 168.0,4.755282581475766 168.1,4.77896507399165 168.2,4.801468428384716 168.3,4.822787092288988 168.4,4.842915805643149 168.5,4.861849601988379 168.6,4.879583809693734 168.7,4.896114053108823 168.8,4.911436253643445 168.9,4.9255466307738685 169.0,4.938441702975688 169.1,4.950118288582789 169.2,4.960573506572388 169.3,4.969804777275896 169.4,4.977809823015399 169.5,4.984586668665639 169.6,4.990133642141356 169.7,4.994449374809849 169.8,4.997532801828657 169.9,4.999383162408303 170.0,5.0 170.1,4.999383162408303 170.2,4.997532801828658 170.3,4.994449374809849 170.4,4.990133642141357 170.5,4.984586668665642 170.6,4.9778098230154 170.7,4.9698047772759 170.8,4.9605735065723895 170.9,4.950118288582787 171.0,4.93844170297569 171.1,4.925546630773874 171.2,4.911436253643447 171.3,4.896114053108825 171.4,4.879583809693732 171.5,4.86184960198838 171.6,4.842915805643156 171.7,4.822787092288995 171.8,4.801468428384714 171.9,4.778965073991653 172.0,4.755282581475775 172.1,4.730426794137733 172.2,4.704403844771132 172.3,4.677220154149328 172.4,4.648882429441253 172.5,4.619397662556435 172.6,4.588773128419906 172.7,4.557016383177224 172.8,4.524135262330101 172.9,4.490137878803088 173.0,4.455032620941848 173.1,4.418828150443474 173.2,4.381533400219332 173.3,4.34315757219095 173.4,4.3037101350197196 173.5,4.26320082177046 173.6,4.221639627510073 173.7,4.1790368068413555 173.8,4.135402871372822 173.9,4.090748587125128 174.0,4.045084971874745 174.1,3.9984232924354695 174.2,3.950775061878456 174.3,3.9021520366916502 174.4,3.852566213878945 174.5,3.8020298280001508 174.6,3.750555348152303 174.7,3.6981554748930634 174.8,3.6448431371070455 174.9,3.590631488815954 175.0,3.5355339059327573 175.1,3.479563982961576 175.2,3.4227355296434574 175.3,3.365062567548865 175.4,3.3065593266182547 175.5,3.247240241650924 175.6,3.1871199487434647 175.7,3.126213281678539 175.8,3.064535268264865 175.9,3.0021011266293995 176.0,2.9389262614623703 176.1,2.8750262602164085 176.2,2.8104168892606656 176.3,2.745114089990653 176.4,2.6791339748949894 176.5,2.612492823579762 176.6,2.5452070787518712 176.7,2.477293342162049 176.8,2.408768370508553 176.9,2.3396490713028557 177.0,2.2699524986977346 177.1,2.199695849279573 177.2,2.1288964578253893 177.3,2.05757179302555 177.4,1.985739453173922 177.5,1.913417161825464 177.6,1.8406227634234016 177.7,1.7673742188963102 177.8,1.6936896012264444 177.9,1.6195870909907475 178.0,1.545084971874734 178.1,1.4702016261615127 178.2,1.3949555301961525 178.3,1.3193652498268837 178.4,1.2434494358242896 178.5,1.167226819279539 178.6,1.090716206982738 178.7,1.0139364767825665 178.8,0.9369065729286232 178.9,0.8596455013970439 179.0,0.7821723252011465 179.1,0.7045061596879192 179.2,0.6266661678215407 179.3,0.5486715554552419 179.4,0.4705415665925833 179.5,0.39229547863925013 179.6,0.31395259764657063 179.7,0.23553225354823076 179.8,0.15705379539063719 179.9,0.07853658655909512 180.0,5.5109105961630896e-15 180.1,-0.0785365865590841 180.2,-0.1570537953906262 180.3,-0.2355322535482375 180.4,-0.3139525976465419 180.5,-0.39229547863922143 180.6,-0.47054156659255464 180.7,-0.5486715554552134 180.8,-0.62666616782153 180.9,-0.7045061596879082 181.0,-0.7821723252011358 181.1,-0.859645501397033 181.2,-0.9369065729286125 181.3,-1.0139364767825905 181.4,-1.0907162069827272 181.5,-1.167226819279528 181.6,-1.2434494358242616 181.7,-1.3193652498268391 181.8,-1.3949555301961416 181.9,-1.4702016261615023 182.0,-1.5450849718747235 182.1,-1.6195870909907373 182.2,-1.693689601226434 182.3,-1.7673742188963 182.4,-1.8406227634233914 182.5,-1.9134171618254538 182.6,-1.9857394531739117 182.7,-2.0575717930255397 182.8,-2.128896457825347 182.9,-2.1996958492795633 183.0,-2.2699524986977253 183.1,-2.339649071302846 183.2,-2.4087683705085747 183.3,-2.4772933421620396 183.4,-2.5452070787518615 183.5,-2.612492823579753 183.6,-2.67913397489498 183.7,-2.745114089990644 183.8,-2.810416889260642 183.9,-2.875026260216385 184.0,-2.938926261462347 184.1,-3.002101126629419 184.2,-3.06453526826487 184.3,-3.126213281678531 184.4,-3.1871199487434563 184.5,-3.2472402416509154 184.6,-3.3065593266182463 184.7,-3.365062567548857 184.8,-3.4227355296434365 184.9,-3.4795639829615554 185.0,-3.535533905932737 185.1,-3.5906314888159336 185.2,-3.64484313710705 185.3,-3.6981554748930554 185.4,-3.7505553481522957 185.5,-3.8020298280001437 185.6,-3.852566213878938 185.7,-3.9021520366916436 185.8,-3.950775061878471 185.9,-3.9984232924354526 186.0,-4.045084971874728 186.1,-4.090748587125111 186.2,-4.135402871372795 186.3,-4.179036806841349 186.4,-4.221639627510067 186.5,-4.263200821770455 186.6,-4.303710135019713 186.7,-4.343157572190945 186.8,-4.381533400219326 186.9,-4.418828150443469 187.0,-4.455032620941843 187.1,-4.4901378788030675 187.2,-4.5241352623300894 187.3,-4.55701638317722 187.4,-4.5887731284199 187.5,-4.619397662556431 187.6,-4.648882429441249 187.7,-4.677220154149336 187.8,-4.704403844771129 187.9,-4.730426794137729 188.0,-4.755282581475772 188.1,-4.77896507399165 188.2,-4.801468428384711 188.3,-4.822787092288988 188.4,-4.842915805643154 188.5,-4.861849601988378 188.6,-4.879583809693737 188.7,-4.896114053108826 188.8,-4.911436253643445 188.9,-4.925546630773871 189.0,-4.938441702975688 189.1,-4.950118288582786 189.2,-4.960573506572388 189.3,-4.969804777275898 189.4,-4.977809823015399 189.5,-4.9845866686656395 189.6,-4.990133642141357 189.7,-4.994449374809849 189.8,-4.997532801828658 189.9,-4.999383162408303 190.0,-5.0 190.1,-4.999383162408303 190.2,-4.997532801828658 190.3,-4.99444937480985 190.4,-4.990133642141358 190.5,-4.984586668665641 190.6,-4.977809823015401 190.7,-4.9698047772759 190.8,-4.9605735065723895 190.9,-4.9501182885827895 191.0,-4.93844170297569 191.1,-4.92554663077387 191.2,-4.911436253643447 191.3,-4.896114053108825 191.4,-4.879583809693735 191.5,-4.861849601988385 191.6,-4.842915805643161 191.7,-4.822787092288995 191.8,-4.8014684283847195 191.9,-4.778965073991653 192.0,-4.75528258147577 192.1,-4.730426794137733 192.2,-4.704403844771127 192.3,-4.677220154149334 192.4,-4.648882429441254 192.5,-4.619397662556429 192.6,-4.588773128419913 192.7,-4.557016383177239 192.8,-4.524135262330102 192.9,-4.490137878803081 193.0,-4.455032620941848 193.1,-4.418828150443466 193.2,-4.381533400219324 193.3,-4.343157572190951 193.4,-4.303710135019711 193.5,-4.263200821770461 193.6,-4.221639627510083 193.7,-4.179036806841356 193.8,-4.135402871372812 193.9,-4.090748587125129 194.0,-4.0450849718747355 194.1,-3.998423292435459 194.2,-3.950775061878456 194.3,-3.9021520366916396 194.4,-3.8525662138789456 194.5,-3.8020298280001628 194.6,-3.7505553481523037 194.7,-3.698155474893052 194.8,-3.64484313710707 194.9,-3.5906314888159416 195.0,-3.535533905932745 195.1,-3.479563982961576 195.2,-3.4227355296434583 195.3,-3.3650625675488657 195.4,-3.3065593266182685 195.5,-3.2472402416509243 195.6,-3.187119948743452 195.7,-3.12621328167854 195.8,-3.06453526826488 195.9,-3.0021011266294284 196.0,-2.938926261462371 196.1,-2.875026260216409 196.2,-2.810416889260666 196.3,-2.7451140899906683 196.4,-2.67913397489499 196.5,-2.612492823579747 196.6,-2.5452070787518717 196.7,-2.4772933421620342 196.8,-2.408768370508569 196.9,-2.339649071302856 197.0,-2.269952498697751 197.1,-2.1996958492795895 197.2,-2.1288964578253897 197.3,-2.0575717930255504 197.4,-1.985739453173906 197.5,-1.9134171618254647 197.6,-1.8406227634233854 197.7,-1.7673742188962942 197.8,-1.693689601226445 197.9,-1.6195870909907315 198.0,-1.5450849718747346 198.1,-1.4702016261615303 198.2,-1.39495553019617 198.3,-1.3193652498268673 198.4,-1.2434494358242902 198.5,-1.1672268192795223 198.6,-1.0907162069827212 198.7,-1.013936476782567 198.8,-0.9369065729286065 198.9,-0.8596455013970445 199.0,-0.7821723252011648 199.1,-0.7045061596879197 199.2,-0.6266661678215237 199.3,-0.5486715554552426 199.4,-0.47054156659256613 199.5,-0.39229547863923303 199.6,-0.31395259764657124 199.7,-0.2355322535482314 199.8,-0.15705379539063782 199.9,-0.0785365865591135 200.0,-6.123233995736766e-15" stroke-width="1" stroke-linecap="round" stroke-linejoin="round" stroke="#000000" fill="none"  />
<!-- Footer -->
</svg>
