<!-- Header -->
<svg
    version="1.1"
    baseProfile="full"
    xmlns="http://www.w3.org/2000/svg"
    xmlns:xlink="http://www.w3.org/1999/xlink"
    xmlns:ev="http://www.w3.org/2001/xml-events"
    width="210.0"
    height="20.0"
    viewBox="-5.0 -10.0 210.0 20.0"
    preserveAspectRatio="none"
>
<!-- Body -->
<!-- polyline -->
<polyline points="0.0,0.0 0.1,0.15705379539064146 0.2,0.31395259764656686 0.3,0.47054156659257157 0.4,0.6266661678215213 0.5,0.7821723252011543 0.6,0.936906572928623 0.7,1.0907162069827125 0.8,1.243449435824274 0.9,1.3949555301961465 1.0,1.545084971874737 1.1,1.693689601226457 1.2,1.8406227634233896 1.3,1.985739453173903 1.4,2.128896457825363 1.5,2.2699524986977337 1.6,2.4087683705085765 1.7,2.5452070787518566 1.8,2.679133974894983 1.9,2.8104168892606527 2.0,2.938926261462366 2.1,3.0645352682648825 2.2,3.1871199487434487 2.3,3.306559326618259 2.4,3.422735529643443 2.5,3.5355339059327373 2.6,3.644843137107058 2.7,3.7505553481522975 2.8,3.8525662138789456 2.9,3.9507750618784514 3.0,4.045084971874737 3.1,4.1354028713728095 3.2,4.221639627510076 3.3,4.303710135019719 3.4,4.381533400219318 3.5,4.455032620941839 3.6,4.524135262330098 3.7,4.588773128419906 3.8,4.648882429441256 3.9,4.704403844771127 4.0,4.755282581475767 4.1,4.801468428384715 4.2,4.842915805643155 4.3,4.879583809693737 4.4,4.911436253643443 4.5,4.938441702975689 4.6,4.960573506572389 4.7,4.9778098230154 4.8,4.990133642141358 4.9,4.997532801828658 5.0,5.0 5.1,4.997532801828658 5.2,4.990133642141358 5.3,4.9778098230154 5.4,4.9605735065723895 5.5,4.938441702975689 5.6,4.911436253643443 5.7,4.879583809693737 5.8,4.842915805643156 5.9,4.801468428384715 6.0,4.755282581475768 6.1,4.704403844771128 6.2,4.648882429441257 6.3,4.5887731284199065 6.4,4.524135262330097 6.5,4.455032620941839 6.6,4.381533400219317 6.7,4.303710135019719 6.8,4.221639627510076 6.9,4.135402871372809 7.0,4.045084971874737 7.1,3.9507750618784527 7.2,3.852566213878946 7.3,3.750555348152298 7.4,3.644843137107057 7.5,3.5355339059327395 7.6,3.422735529643444 7.7,3.306559326618259 7.8,3.187119948743449 7.9,3.0645352682648817 8.0,2.9389262614623664 8.1,2.810416889260654 8.2,2.679133974894985 8.3,2.545207078751857 8.4,2.408768370508576 8.5,2.2699524986977324 8.6,2.1288964578253626 8.7,1.9857394531739052 8.8,1.8406227634233887 8.9,1.6936896012264566 9.0,1.5450849718747375 9.1,1.3949555301961478 9.2,1.2434494358242763 9.3,1.0907162069827117 9.4,0.9369065729286229 9.5,0.7821723252011549 9.6,0.6266661678215226 9.7,0.47054156659257396 9.8,0.3139525976465657 9.9,0.15705379539064118 10.0,6.123233995736766e-16 10.1,-0.15705379539063996 10.2,-0.3139525976465645 10.3,-0.47054156659257496 10.4,-0.6266661678215214 10.5,-0.7821723252011537 10.6,-0.9369065729286195 10.7,-1.0907162069827103 10.8,-1.243449435824273 10.9,-1.3949555301961465 11.0,-1.5450849718747364 11.1,-1.6936896012264555 11.2,-1.8406227634233874 11.3,-1.9857394531739039 11.4,-2.1288964578253635 11.5,-2.269952498697731 11.6,-2.408768370508575 11.7,-2.5452070787518544 11.8,-2.6791339748949836 11.9,-2.8104168892606527 12.0,-2.938926261462365 12.1,-3.064535268264881 12.2,-3.1871199487434465 12.3,-3.3065593266182605 12.4,-3.422735529643442 12.5,-3.5355339059327373 12.6,-3.6448431371070567 12.7,-3.7505553481522975 12.8,-3.852566213878947 12.9,-3.950775061878452 13.0,-4.045084971874736 13.1,-4.135402871372808 13.2,-4.2216396275100765 13.3,-4.303710135019717 13.4,-4.381533400219318 13.5,-4.455032620941839 13.6,-4.5241352623300966 13.7,-4.588773128419905 13.8,-4.648882429441257 13.9,-4.704403844771127 14.0,-4.755282581475767 14.1,-4.801468428384716 14.2,-4.8429158056431545 14.3,-4.879583809693737 14.4,-4.911436253643443 14.5,-4.938441702975688 14.6,-4.960573506572389 14.7,-4.9778098230154 14.8,-4.990133642141358 14.9,-4.997532801828658 15.0,-5.0 15.1,-4.997532801828658 15.2,-4.990133642141358 15.3,-4.9778098230154 15.4,-4.9605735065723895 15.5,-4.938441702975689 15.6,-4.911436253643443 15.7,-4.879583809693738 15.8,-4.842915805643155 15.9,-4.801468428384716 16.0,-4.755282581475768 16.1,-4.704403844771127 16.2,-4.648882429441258 16.3,-4.588773128419906 16.4,-4.524135262330099 16.5,-4.455032620941838 16.6,-4.381533400219319 16.7,-4.303710135019717 16.8,-4.221639627510075 16.9,-4.135402871372811 17.0,-4.045084971874735 17.1,-3.950775061878453 17.2,-3.852566213878945 17.3,-3.7505553481522975 17.4,-3.6448431371070606 17.5,-3.5355339059327386 17.6,-3.4227355296434414 17.7,-3.3065593266182614 17.8,-3.1871199487434483 17.9,-3.0645352682648825 18.0,-2.938926261462367 18.1,-2.810416889260651 18.2,-2.6791339748949854 18.3,-2.545207078751852 18.4,-2.4087683705085805 18.5,-2.269952498697731 18.6,-2.128896457825361 18.7,-1.9857394531739059 18.8,-1.8406227634233894 18.9,-1.6936896012264613 19.0,-1.5450849718747381 19.1,-1.3949555301961438 19.2,-1.2434494358242767 19.3,-1.090716206982712 19.4,-0.9369065729286279 19.5,-0.7821723252011556 19.6,-0.626666167821519 19.7,-0.47054156659257895 19.8,-0.3139525976465663 19.9,-0.1570537953906418 20.0,-1.2246467991473533e-15 20.1,0.15705379539063935 20.2,0.3139525976465639 20.3,0.47054156659257657 20.4,0.6266661678215164 20.5,0.7821723252011487 20.6,0.9369065729286298 20.7,1.0907162069827097 20.8,1.2434494358242745 20.9,1.3949555301961458 21.0,1.545084971874736 21.1,1.693689601226459 21.2,1.840622763423383 21.3,1.9857394531739074 21.4,2.128896457825359 21.5,2.269952498697729 21.6,2.4087683705085743 21.7,2.545207078751858 21.8,2.679133974894983 21.9,2.810416889260649 22.0,2.9389262614623646 22.1,3.064535268264888 22.2,3.187119948743446 22.3,3.3065593266182565 22.4,3.4227355296434396 22.5,3.535533905932737 22.6,3.6448431371070593 22.7,3.7505553481522957 22.8,3.852566213878946 22.9,3.9507750618784514 23.0,4.045084971874734 23.1,4.135402871372808 23.2,4.221639627510074 23.3,4.303710135019716 23.4,4.381533400219316 23.5,4.45503262094184 23.6,4.524135262330098 23.7,4.588773128419905 23.8,4.648882429441257 23.9,4.704403844771125 24.0,4.755282581475767 24.1,4.801468428384715 24.2,4.8429158056431545 24.3,4.879583809693737 24.4,4.911436253643442 24.5,4.938441702975688 24.6,4.9605735065723895 24.7,4.9778098230154 24.8,4.990133642141358 24.9,4.997532801828658 25.0,5.0 25.1,4.997532801828658 25.2,4.990133642141358 25.3,4.9778098230153995 25.4,4.9605735065723895 25.5,4.938441702975688 25.6,4.911436253643443 25.7,4.879583809693739 25.8,4.842915805643155 25.9,4.801468428384718 26.0,4.755282581475768 26.1,4.704403844771125 26.2,4.648882429441258 26.3,4.588773128419907 26.4,4.5241352623300966 26.5,4.455032620941838 26.6,4.381533400219321 26.7,4.303710135019722 26.8,4.221639627510076 26.9,4.1354028713728095 27.0,4.045084971874738 27.1,3.950775061878453 27.2,3.8525662138789487 27.3,3.750555348152295 27.4,3.644843137107061 27.5,3.5355339059327417 27.6,3.422735529643442 27.7,3.3065593266182653 27.8,3.1871199487434487 27.9,3.064535268264883 28.0,2.938926261462367 28.1,2.8104168892606554 28.2,2.6791339748949783 28.3,2.5452070787518526 28.4,2.408768370508581 28.5,2.2699524986977395 28.6,2.1288964578253617 28.7,1.9857394531739023 28.8,1.8406227634233898 28.9,1.6936896012264577 29.0,1.545084971874739 29.1,1.3949555301961403 29.2,1.2434494358242774 29.3,1.0907162069827172 29.4,0.9369065729286284 29.5,0.7821723252011604 29.6,0.6266661678215195 29.7,0.47054156659257074 29.8,0.3139525976465669 29.9,0.15705379539065129 30.0,1.0718754395722281e-14 30.1,-0.1570537953906476 30.2,-0.31395259764656325 30.3,-0.47054156659256713 30.4,-0.6266661678215159 30.5,-0.7821723252011569 30.6,-0.9369065729286248 30.7,-1.0907162069827134 30.8,-1.2434494358242738 30.9,-1.3949555301961367 31.0,-1.5450849718747353 31.1,-1.6936896012264544 31.2,-1.8406227634233863 31.3,-1.985739453173899 31.4,-2.128896457825358 31.5,-2.2699524986977364 31.6,-2.408768370508578 31.7,-2.5452070787518495 31.8,-2.6791339748949756 31.9,-2.8104168892606523 32.0,-2.938926261462364 32.1,-3.0645352682648874 32.2,-3.1871199487434527 32.3,-3.306559326618256 32.4,-3.422735529643439 32.5,-3.5355339059327395 32.6,-3.644843137107059 32.7,-3.750555348152298 32.8,-3.8525662138789403 32.9,-3.950775061878451 33.0,-4.045084971874741 33.1,-4.135402871372812 33.2,-4.221639627510073 33.3,-4.303710135019716 33.4,-4.38153340021932 33.5,-4.45503262094184 33.6,-4.524135262330098 33.7,-4.588773128419906 33.8,-4.648882429441254 33.9,-4.704403844771124 34.0,-4.75528258147577 34.1,-4.801468428384715 34.2,-4.8429158056431545 34.3,-4.879583809693734 34.4,-4.911436253643444 34.5,-4.938441702975689 34.6,-4.9605735065723895 34.7,-4.9778098230154 34.8,-4.990133642141357 34.9,-4.997532801828658 35.0,-5.0 35.1,-4.997532801828658 35.2,-4.990133642141357 35.3,-4.9778098230154 35.4,-4.9605735065723895 35.5,-4.938441702975688 35.6,-4.911436253643443 35.7,-4.8795838096937345 35.8,-4.842915805643156 35.9,-4.801468428384716 36.0,-4.755282581475769 36.1,-4.704403844771125 36.2,-4.648882429441255 36.3,-4.588773128419907 36.4,-4.5241352623301 36.5,-4.455032620941842 36.6,-4.381533400219313 36.7,-4.303710135019713 36.8,-4.22163962751008 36.9,-4.1354028713728095 37.0,-4.045084971874734 37.1,-3.9507750618784483 37.2,-3.852566213878943 37.3,-3.7505553481523006 37.4,-3.6448431371070615 37.5,-3.535533905932742 37.6,-3.4227355296434423 37.7,-3.306559326618259 37.8,-3.187119948743456 37.9,-3.0645352682648905 38.0,-2.9389262614623672 38.1,-2.8104168892606483 38.2,-2.6791339748949787 38.3,-2.545207078751868 38.4,-2.4087683705085814 38.5,-2.269952498697732 38.6,-2.128896457825362 38.7,-1.9857394531739028 38.8,-1.8406227634233985 38.9,-1.6936896012264582 39.0,-1.5450849718747395 39.1,-1.3949555301961494 39.2,-1.2434494358242694 39.3,-1.0907162069827265 39.4,-0.9369065729286377 39.5,-0.7821723252011524 39.6,-0.6266661678215201 39.7,-0.4705415665925625 39.8,-0.3139525976465676 39.9,-0.15705379539064301 40.0,-2.4492935982947065e-15 40.1,0.15705379539063813 40.2,0.31395259764656264 40.3,0.47054156659255764 40.4,0.6266661678215152 40.5,0.7821723252011475 40.6,0.9369065729286329 40.7,1.0907162069827216 40.8,1.2434494358242647 40.9,1.3949555301961447 41.0,1.5450849718747262 41.1,1.6936896012264537 41.2,1.8406227634234025 41.3,1.9857394531738983 41.4,2.1288964578253577 41.5,2.2699524986977435 41.6,2.408768370508577 41.7,2.545207078751864 41.8,2.6791339748949823 41.9,2.810416889260644 42.0,2.9389262614623632 42.1,3.0645352682648728 42.2,3.187119948743452 42.3,3.306559326618255 42.4,3.4227355296434325 42.5,3.535533905932739 42.6,3.644843137107064 42.7,3.7505553481522975 42.8,3.8525662138789403 42.9,3.950775061878451 43.0,4.045084971874731 43.1,4.135402871372812 43.2,4.221639627510073 43.3,4.303710135019711 43.4,4.381533400219319 43.5,4.455032620941836 43.6,4.524135262330098 43.7,4.588773128419909 43.8,4.648882429441254 43.9,4.704403844771124 44.0,4.755282581475767 44.1,4.801468428384714 44.2,4.842915805643159 44.3,4.879583809693734 44.4,4.911436253643442 44.5,4.938441702975689 44.6,4.960573506572389 44.7,4.9778098230154 44.8,4.990133642141357 44.9,4.997532801828658 45.0,5.0 45.1,4.997532801828658 45.2,4.990133642141358 45.3,4.9778098230154 45.4,4.9605735065723895 45.5,4.93844170297569 45.6,4.911436253643443 45.7,4.879583809693739 45.8,4.842915805643156 45.9,4.801468428384716 46.0,4.755282581475772 46.1,4.704403844771125 46.2,4.648882429441259 46.3,4.588773128419908 46.4,4.524135262330101 46.5,4.455032620941843 46.6,4.381533400219322 46.7,4.303710135019713 46.8,4.221639627510081 46.9,4.135402871372815 47.0,4.045084971874734 47.1,3.9507750618784545 47.2,3.8525662138789434 47.3,3.750555348152301 47.4,3.6448431371070624 47.5,3.535533905932743 47.6,3.422735529643443 47.7,3.3065593266182596 47.8,3.1871199487434563 47.9,3.0645352682648914 48.0,2.9389262614623677 48.1,2.810416889260649 48.2,2.679133974894987 48.3,2.5452070787518615 48.4,2.4087683705085823 48.5,2.269952498697733 48.6,2.1288964578253626 48.7,1.9857394531739114 48.8,1.840622763423399 48.9,1.6936896012264588 49.0,1.54508497187474 49.1,1.39495553019615 49.2,1.24344943582427 49.3,1.090716206982727 49.4,0.9369065729286209 49.5,0.782172325201153 49.6,0.6266661678215295 49.7,0.4705415665925632 49.8,0.31395259764656813 49.9,0.15705379539064365 50.0,3.061616997868383e-15 50.1,-0.15705379539063752 50.2,-0.313952597646562 50.3,-0.47054156659257473 50.4,-0.6266661678215146 50.5,-0.7821723252011469 50.6,-0.9369065729286323 50.7,-1.0907162069827123 50.8,-1.2434494358242727 50.9,-1.3949555301961443 51.0,-1.5450849718747426 51.1,-1.6936896012264533 51.2,-1.8406227634233936 51.3,-1.9857394531738979 51.4,-2.1288964578253493 51.5,-2.269952498697727 51.6,-2.4087683705085765 51.7,-2.5452070787518637 51.8,-2.679133974894967 51.9,-2.8104168892606585 52.0,-2.938926261462363 52.1,-3.064535268264886 52.2,-3.187119948743459 52.3,-3.306559326618248 52.4,-3.4227355296434387 52.5,-3.5355339059327386 52.6,-3.6448431371070518 52.7,-3.7505553481522975 52.8,-3.8525662138789505 52.9,-3.9507750618784505 53.0,-4.045084971874741 53.1,-4.135402871372807 53.2,-4.2216396275100685 53.3,-4.303710135019715 53.4,-4.38153340021931 53.5,-4.455032620941836 53.6,-4.524135262330098 53.7,-4.588773128419909 53.8,-4.648882429441256 53.9,-4.70440384477113 54.0,-4.755282581475767 54.1,-4.8014684283847116 54.2,-4.8429158056431545 54.3,-4.879583809693734 54.4,-4.911436253643442 54.5,-4.938441702975686 54.6,-4.96057350657239 54.7,-4.9778098230154 54.8,-4.990133642141357 54.9,-4.997532801828657 55.0,-5.0 55.1,-4.997532801828658 55.2,-4.990133642141358 55.3,-4.9778098230154 55.4,-4.960573506572391 55.5,-4.9384417029756875 55.6,-4.911436253643443 55.7,-4.8795838096937345 55.8,-4.842915805643156 55.9,-4.801468428384719 56.0,-4.755282581475769 56.1,-4.704403844771125 56.2,-4.648882429441259 56.3,-4.588773128419912 56.4,-4.524135262330093 56.5,-4.455032620941839 56.6,-4.381533400219314 56.7,-4.303710135019719 56.8,-4.221639627510081 56.9,-4.135402871372811 57.0,-4.045084971874744 57.1,-3.9507750618784545 57.2,-3.8525662138789443 57.3,-3.7505553481523135 57.4,-3.6448431371070567 57.5,-3.5355339059327306 57.6,-3.4227355296434436 57.7,-3.3065593266182667 57.8,-3.18711994874345 57.9,-3.064535268264892 58.0,-2.9389262614623686 58.1,-2.8104168892606642 58.2,-2.679133974894973 58.3,-2.5452070787518544 58.4,-2.4087683705085827 58.5,-2.2699524986977333 58.6,-2.1288964578253715 58.7,-1.9857394531739039 58.8,-1.8406227634233998 58.9,-1.6936896012264593 59.0,-1.5450849718747488 59.1,-1.3949555301961336 59.2,-1.2434494358242705 59.3,-1.090716206982719 59.4,-0.9369065729286215 59.5,-0.7821723252011624 59.6,-0.6266661678215213 59.7,-0.47054156659256374 59.8,-0.3139525976465865 59.9,-0.15705379539065312 60.0,-2.1437508791444562e-14 60.1,0.1570537953906458 60.2,0.3139525976465791 60.3,0.4705415665925564 60.4,0.6266661678215141 60.5,0.782172325201155 60.6,0.9369065729286142 60.7,1.0907162069827117 60.8,1.2434494358242634 60.9,1.3949555301961265 61.0,1.545084971874742 61.1,1.6936896012264526 61.2,1.840622763423393 61.3,1.9857394531738972 61.4,2.128896457825365 61.5,2.2699524986977266 61.6,2.408768370508576 61.7,2.5452070787518477 61.8,2.6791339748949667 61.9,2.810416889260658 62.0,2.9389262614623624 62.1,3.0645352682648856 62.2,3.1871199487434443 62.3,3.3065593266182614 62.4,3.422735529643438 62.5,3.5355339059327258 62.6,3.644843137107051 62.7,3.7505553481523086 62.8,3.852566213878939 62.9,3.95077506187845 63.0,4.04508497187474 63.1,4.135402871372806 63.2,4.221639627510077 63.3,4.303710135019715 63.4,4.38153340021931 63.5,4.455032620941836 63.6,4.52413526233009 63.7,4.588773128419902 63.8,4.648882429441256 63.9,4.704403844771123 64.0,4.755282581475766 64.1,4.801468428384716 64.2,4.842915805643159 64.3,4.879583809693738 64.4,4.911436253643445 64.5,4.938441702975689 64.6,4.960573506572389 64.7,4.9778098230154 64.8,4.990133642141357 64.9,4.997532801828657 65.0,5.0 65.1,4.997532801828658 65.2,4.990133642141358 65.3,4.9778098230154 65.4,4.960573506572389 65.5,4.93844170297569 65.6,4.911436253643447 65.7,4.87958380969374 65.8,4.842915805643156 65.9,4.801468428384713 66.0,4.755282581475764 66.1,4.704403844771126 66.2,4.648882429441253 66.3,4.588773128419905 66.4,4.524135262330101 66.5,4.455032620941839 66.6,4.381533400219323 66.7,4.303710135019719 66.8,4.221639627510072 66.9,4.135402871372801 67.0,4.045084971874735 67.1,3.950775061878455 67.2,3.8525662138789443 67.3,3.7505553481523024 67.4,3.644843137107057 67.5,3.535533905932744 67.6,3.422735529643457 67.7,3.3065593266182534 67.8,3.1871199487434643 67.9,3.064535268264878 68.0,2.9389262614623544 68.1,2.8104168892606647 68.2,2.679133974894988 68.3,2.54520707875187 68.4,2.408768370508583 68.5,2.2699524986977337 68.6,2.128896457825388 68.7,1.9857394531738881 68.8,1.8406227634233838 68.9,1.6936896012264433 69.0,1.5450849718747328 69.1,1.3949555301961511 69.2,1.2434494358242711 69.3,1.0907162069827194 69.4,0.936906572928622 69.5,0.7821723252011453 69.6,0.6266661678215396 69.7,0.47054156659256435 69.8,0.31395259764656935 69.9,0.15705379539063596 70.0,4.2862637970157365e-15 70.1,-0.15705379539062742 70.2,-0.3139525976465608 70.3,-0.4705415665925558 70.4,-0.6266661678215311 70.5,-0.7821723252011369 70.6,-0.9369065729286137 70.7,-1.0907162069827285 70.8,-1.243449435824263 70.9,-1.394955530196143 71.0,-1.5450849718747415 71.1,-1.6936896012264353 71.2,-1.8406227634233923 71.3,-1.9857394531739128 71.4,-2.1288964578253804 71.5,-2.269952498697742 71.6,-2.4087683705085756 71.7,-2.545207078751863 71.8,-2.679133974894981 71.9,-2.810416889260657 72.0,-2.9389262614623624 72.1,-3.0645352682648714 72.2,-3.1871199487434576 72.3,-3.3065593266182476 72.4,-3.4227355296434503 72.5,-3.5355339059327378 72.6,-3.644843137107051 72.7,-3.750555348152296 72.8,-3.8525662138789385 72.9,-3.95077506187845 73.0,-4.045084971874729 73.1,-4.135402871372796 73.2,-4.221639627510086 73.3,-4.303710135019714 73.4,-4.381533400219327 73.5,-4.455032620941843 73.6,-4.5241352623300894 73.7,-4.588773128419908 73.8,-4.648882429441256 73.9,-4.704403844771129 74.0,-4.755282581475772 74.1,-4.8014684283847116 74.2,-4.842915805643159 74.3,-4.879583809693737 74.4,-4.911436253643445 74.5,-4.938441702975689 74.6,-4.960573506572388 74.7,-4.9778098230154 74.8,-4.990133642141357 74.9,-4.997532801828658 75.0,-5.0 75.1,-4.997532801828658 75.2,-4.990133642141358 75.3,-4.9778098230154 75.4,-4.960573506572389 75.5,-4.93844170297569 75.6,-4.911436253643447 75.7,-4.879583809693735 75.8,-4.842915805643161 75.9,-4.801468428384709 76.0,-4.755282581475769 76.1,-4.7044038447711385 76.2,-4.648882429441253 76.3,-4.588773128419913 76.4,-4.524135262330093 76.5,-4.455032620941839 76.6,-4.381533400219332 76.7,-4.303710135019711 76.8,-4.221639627510082 76.9,-4.1354028713728015 77.0,-4.045084971874735 77.1,-3.9507750618784554 77.2,-3.8525662138789447 77.3,-3.7505553481523024 77.4,-3.644843137107057 77.5,-3.535533905932744 77.6,-3.422735529643457 77.7,-3.3065593266182676 77.8,-3.187119948743451 77.9,-3.0645352682648785 78.0,-2.9389262614623695 78.1,-2.810416889260665 78.2,-2.679133974894989 78.3,-2.5452070787518704 78.4,-2.408768370508568 78.5,-2.26995249869775 78.6,-2.1288964578253884 78.7,-1.9857394531738888 78.8,-1.8406227634234174 78.9,-1.6936896012264437 79.0,-1.5450849718747333 79.1,-1.394955530196169 79.2,-1.2434494358242718 79.3,-1.09071620698272 79.4,-0.9369065729286052 79.5,-0.7821723252011635 79.6,-0.6266661678215225 79.7,-0.47054156659256496 79.8,-0.31395259764657 79.9,-0.1570537953906366 80.0,-4.898587196589413e-15 80.1,0.1570537953906268 80.2,0.3139525976465602 80.3,0.4705415665925552 80.4,0.6266661678215129 80.5,0.7821723252011539 80.6,0.9369065729285957 80.7,1.0907162069827105 80.8,1.2434494358242623 80.9,1.3949555301961594 81.0,1.545084971874724 81.1,1.6936896012264346 81.2,1.8406227634234082 81.3,1.98573945317388 81.4,2.1288964578253795 81.5,2.2699524986977098 81.6,2.408768370508559 81.7,2.5452070787518624 81.8,2.6791339748949805 81.9,2.8104168892606425 82.0,2.9389262614623473 82.1,3.064535268264857 82.2,3.187119948743443 82.3,3.3065593266182605 82.4,3.422735529643463 82.5,3.5355339059327244 82.6,3.6448431371070504 82.7,3.750555348152296 82.8,3.8525662138789385 82.9,3.9507750618784603 83.0,4.04508497187475 83.1,4.135402871372796 83.2,4.2216396275100765 83.3,4.3037101350197045 83.4,4.381533400219327 83.5,4.455032620941843 83.6,4.5241352623300966 83.7,4.588773128419901 83.8,4.648882429441249 83.9,4.704403844771135 84.0,4.755282581475766 84.1,4.801468428384716 84.2,4.842915805643149 84.3,4.879583809693734 84.4,4.911436253643445 84.5,4.938441702975688 84.6,4.960573506572388 84.7,4.977809823015399 84.8,4.990133642141356 84.9,4.997532801828657 85.0,5.0 85.1,4.997532801828658 85.2,4.990133642141357 85.3,4.9778098230154 85.4,4.9605735065723895 85.5,4.93844170297569 85.6,4.911436253643447 85.7,4.879583809693732 85.8,4.842915805643156 85.9,4.801468428384714 86.0,4.755282581475775 86.1,4.704403844771132 86.2,4.648882429441253 86.3,4.588773128419906 86.4,4.524135262330101 86.5,4.455032620941848 86.6,4.381533400219332 86.7,4.3037101350197196 86.8,4.221639627510073 86.9,4.135402871372822 87.0,4.045084971874745 87.1,3.950775061878456 87.2,3.852566213878945 87.3,3.750555348152303 87.4,3.6448431371070455 87.5,3.5355339059327573 87.6,3.4227355296434574 87.7,3.3065593266182547 87.8,3.1871199487434647 87.9,3.064535268264865 88.0,2.9389262614623703 88.1,2.8104168892606656 88.2,2.6791339748949894 88.3,2.5452070787518712 88.4,2.408768370508553 88.5,2.2699524986977346 88.6,2.1288964578253893 88.7,1.985739453173922 88.8,1.8406227634234016 88.9,1.6936896012264444 89.0,1.545084971874734 89.1,1.3949555301961525 89.2,1.2434494358242896 89.3,1.090716206982738 89.4,0.9369065729286232 89.5,0.7821723252011465 89.6,0.6266661678215407 89.7,0.4705415665925833 89.8,0.31395259764657063 89.9,0.15705379539063719 90.0,5.5109105961630896e-15 90.1,-0.1570537953906262 90.2,-0.3139525976465419 90.3,-0.47054156659255464 90.4,-0.62666616782153 90.5,-0.7821723252011358 90.6,-0.9369065729286125 90.7,-1.0907162069827272 90.8,-1.2434494358242616 90.9,-1.3949555301961416 91.0,-1.5450849718747235 91.1,-1.693689601226434 91.2,-1.8406227634233914 91.3,-1.9857394531739117 91.4,-2.128896457825347 91.5,-2.2699524986977253 91.6,-2.4087683705085747 91.7,-2.5452070787518615 91.8,-2.67913397489498 91.9,-2.810416889260642 92.0,-2.938926261462347 92.1,-3.06453526826487 92.2,-3.1871199487434563 92.3,-3.3065593266182463 92.4,-3.4227355296434365 92.5,-3.535533905932737 92.6,-3.64484313710705 92.7,-3.7505553481522957 92.8,-3.852566213878938 92.9,-3.950775061878471 93.0,-4.045084971874728 93.1,-4.135402871372795 93.2,-4.221639627510067 93.3,-4.303710135019713 93.4,-4.381533400219326 93.5,-4.455032620941843 93.6,-4.5241352623300894 93.7,-4.5887731284199 93.8,-4.648882429441249 93.9,-4.704403844771129 94.0,-4.755282581475772 94.1,-4.801468428384711 94.2,-4.842915805643154 94.3,-4.879583809693737 94.4,-4.911436253643445 94.5,-4.938441702975688 94.6,-4.960573506572388 94.7,-4.977809823015399 94.8,-4.990133642141357 94.9,-4.997532801828658 95.0,-5.0 95.1,-4.997532801828658 95.2,-4.990133642141358 95.3,-4.977809823015401 95.4,-4.9605735065723895 95.5,-4.93844170297569 95.6,-4.911436253643447 95.7,-4.879583809693735 95.8,-4.842915805643161 95.9,-4.8014684283847195 96.0,-4.75528258147577 96.1,-4.704403844771127 96.2,-4.648882429441254 96.3,-4.588773128419913 96.4,-4.524135262330102 96.5,-4.455032620941848 96.6,-4.381533400219324 96.7,-4.303710135019711 96.8,-4.221639627510083 96.9,-4.135402871372812 97.0,-4.0450849718747355 97.1,-3.950775061878456 97.2,-3.8525662138789456 97.3,-3.7505553481523037 97.4,-3.64484313710707 97.5,-3.535533905932745 97.6,-3.4227355296434583 97.7,-3.3065593266182685 97.8,-3.187119948743452 97.9,-3.06453526826488 98.0,-2.938926261462371 98.1,-2.810416889260666 98.2,-2.67913397489499 98.3,-2.5452070787518717 98.4,-2.408768370508569 98.5,-2.269952498697751 98.6,-2.1288964578253897 98.7,-1.985739453173906 98.8,-1.8406227634233854 98.9,-1.693689601226445 99.0,-1.5450849718747346 99.1,-1.39495553019617 99.2,-1.2434494358242902 99.3,-1.0907162069827212 99.4,-0.9369065729286065 99.5,-0.7821723252011648 99.6,-0.6266661678215237 99.7,-0.47054156659256613 99.8,-0.31395259764657124 99.9,-0.15705379539063782 100.0,-6.123233995736766e-15 100.1,0.15705379539062558 100.2,0.313952597646559 100.3,0.470541566592554 100.4,0.6266661678215115 100.5,0.7821723252011527 100.6,0.9369065729286292 100.7,1.0907162069827094 100.8,1.2434494358242612 100.9,1.3949555301961412 101.0,1.5450849718747228 101.1,1.6936896012264502 101.2,1.8406227634234071 101.3,1.9857394531738786 101.4,2.1288964578253626 101.5,2.2699524986977404 101.6,2.4087683705085743 101.7,2.545207078751861 101.8,2.679133974894979 101.9,2.810416889260626 102.0,2.9389262614623752 102.1,3.0645352682648697 102.2,3.1871199487434425 102.3,3.306559326618259 102.4,3.4227355296434494 102.5,3.535533905932724 102.6,3.64484313710705 102.7,3.7505553481522953 102.8,3.8525662138789265 102.9,3.9507750618784594 103.0,4.045084971874728 103.1,4.135402871372805 103.2,4.221639627510076 103.3,4.303710135019722 103.4,4.381533400219326 103.5,4.455032620941834 103.6,4.5241352623300815 103.7,4.588773128419893 103.8,4.648882429441262 103.9,4.704403844771134 104.0,4.755282581475766 104.1,4.801468428384706 104.2,4.842915805643158 104.3,4.879583809693734 104.4,4.911436253643448 104.5,4.938441702975688 104.6,4.960573506572386 104.7,4.977809823015401 104.8,4.990133642141357 104.9,4.997532801828657 105.0,5.0 105.1,4.997532801828657 105.2,4.990133642141359 105.3,4.977809823015401 105.4,4.9605735065723895 105.5,4.938441702975693 105.6,4.911436253643441 105.7,4.87958380969374 105.8,4.842915805643157 105.9,4.801468428384714 106.0,4.755282581475765 106.1,4.704403844771133 106.2,4.64888242944126 106.3,4.58877312841992 106.4,4.52413526233011 106.5,4.455032620941832 106.6,4.381533400219324 106.7,4.30371013501972 106.8,4.221639627510092 106.9,4.135402871372802 107.0,4.045084971874746 107.1,3.9507750618784563 107.2,3.8525662138789456 107.3,3.7505553481523157 107.4,3.644843137107046 107.5,3.5355339059327457 107.6,3.422735529643446 107.7,3.306559326618256 107.8,3.1871199487434385 107.9,3.064535268264894 108.0,2.9389262614623712 108.1,2.810416889260681 108.2,2.679133974895005 108.3,2.5452070787518415 108.4,2.4087683705085854 108.5,2.269952498697736 108.6,2.12889645782539 108.7,1.9857394531738903 108.8,1.8406227634234027 108.9,1.6936896012264289 109.0,1.5450849718747688 109.1,1.3949555301961705 109.2,1.2434494358242563 109.3,1.0907162069827219 109.4,0.9369065729286246 109.5,0.7821723252011479 109.6,0.6266661678215419 109.7,0.47054156659258445 109.8,0.3139525976465718 109.9,0.15705379539063843 110.0,2.4499125789312944e-14 110.1,-0.15705379539066047 110.2,-0.3139525976465584 110.3,-0.47054156659257107 110.4,-0.6266661678215286 110.5,-0.7821723252011696 110.6,-0.9369065729286112 110.7,-1.0907162069827088 110.8,-1.2434494358242434 110.9,-1.3949555301961236 111.0,-1.5450849718747561 111.1,-1.6936896012264495 111.2,-1.84062276342339 111.3,-1.9857394531738781 111.4,-2.128896457825378 111.5,-2.269952498697724 111.6,-2.4087683705085734 111.7,-2.5452070787518606 111.8,-2.679133974894964 111.9,-2.81041688926067 112.0,-2.93892626146236 112.1,-3.0645352682648834 112.2,-3.1871199487434554 112.3,-3.306559326618246 112.4,-3.422735529643436 112.5,-3.5355339059327355 112.6,-3.644843137107037 112.7,-3.7505553481522833 112.8,-3.8525662138789594 112.9,-3.9507750618784483 113.0,-4.045084971874738 113.1,-4.135402871372794 113.2,-4.2216396275100845 113.3,-4.303710135019713 113.4,-4.381533400219317 113.5,-4.455032620941826 113.6,-4.524135262330089 113.7,-4.5887731284199145 113.8,-4.648882429441255 113.9,-4.704403844771129 114.0,-4.75528258147576 114.1,-4.801468428384711 114.2,-4.842915805643154 114.3,-4.879583809693736 114.4,-4.911436253643445 114.5,-4.938441702975686 114.6,-4.960573506572383 114.7,-4.9778098230153995 114.8,-4.990133642141358 114.9,-4.997532801828658 115.0,-5.0 115.1,-4.997532801828659 115.2,-4.990133642141358 115.3,-4.977809823015403 115.4,-4.960573506572391 115.5,-4.938441702975685 115.6,-4.911436253643444 115.7,-4.879583809693736 115.8,-4.842915805643162 115.9,-4.80146842838471 116.0,-4.75528258147577 116.1,-4.704403844771127 116.2,-4.648882429441267 116.3,-4.588773128419913 116.4,-4.524135262330088 116.5,-4.45503262094184 116.6,-4.381533400219316 116.7,-4.303710135019729 116.8,-4.221639627510083 116.9,-4.135402871372812 117.0,-4.045084971874736 117.1,-3.950775061878468 117.2,-3.8525662138789576 117.3,-3.7505553481523277 117.4,-3.644843137107059 117.5,-3.5355339059327333 117.6,-3.422735529643459 117.7,-3.3065593266182427 117.8,-3.1871199487434527 117.9,-3.0645352682648803 118.0,-2.9389262614623854 118.1,-2.810416889260667 118.2,-2.6791339748949605 118.3,-2.545207078751857 118.4,-2.4087683705085703 118.5,-2.2699524986977524 118.6,-2.1288964578253746 118.7,-1.9857394531739072 118.8,-1.8406227634233865 118.9,-1.6936896012264797 119.0,-1.5450849718747526 119.1,-1.3949555301961882 119.2,-1.243449435824274 119.3,-1.0907162069827052 119.4,-0.9369065729286076 119.5,-0.782172325201166 119.6,-0.6266661678215601 119.7,-0.4705415665925674 119.8,-0.31395259764659017 119.9,-0.15705379539065678 120.0,-4.2875017582889124e-14 120.1,0.15705379539064213 120.2,0.31395259764657546 120.3,0.47054156659255275 120.4,0.6266661678215456 120.5,0.7821723252011514 120.6,0.9369065729285931 120.7,1.0907162069826908 120.8,1.24344943582426 120.9,1.394955530196174 121.0,1.5450849718747386 121.1,1.6936896012264657 121.2,1.840622763423373 121.3,1.9857394531738937 121.4,2.1288964578253613 121.5,2.269952498697739 121.6,2.4087683705085574 121.7,2.545207078751845 121.8,2.679133974894948 121.9,2.8104168892606554 122.0,2.938926261462374 122.1,3.0645352682648683 122.2,3.1871199487434416 122.3,3.306559326618232 122.4,3.422735529643448 122.5,3.5355339059327227 122.6,3.644843137107049 122.7,3.750555348152318 122.8,3.852566213878948 122.9,3.950775061878459 123.0,4.0450849718747275 123.1,4.135402871372804 123.2,4.221639627510076 123.3,4.303710135019722 123.4,4.3815334002193085 123.5,4.455032620941834 123.6,4.524135262330081 123.7,4.588773128419907 123.8,4.648882429441262 123.9,4.7044038447711225 124.0,4.7552825814757655 124.1,4.801468428384705 124.2,4.842915805643157 124.3,4.879583809693733 124.4,4.9114362536434415 124.5,4.938441702975683 124.6,4.9605735065723895 124.7,4.977809823015401 124.8,4.990133642141357 124.9,4.997532801828658 125.0,5.0 125.1,4.997532801828658 125.2,4.990133642141359 125.3,4.977809823015401 125.4,4.960573506572385 125.5,4.9384417029756875 125.6,4.911436253643448 125.7,4.87958380969374 125.8,4.842915805643157 125.9,4.801468428384715 126.0,4.755282581475765 126.1,4.704403844771133 126.2,4.648882429441261 126.3,4.588773128419921 126.4,4.524135262330095 126.5,4.455032620941833 126.6,4.381533400219324 126.7,4.303710135019721 126.8,4.221639627510093 126.9,4.135402871372803 127.0,4.045084971874747 127.1,3.950775061878457 127.2,3.852566213878969 127.3,3.750555348152293 127.4,3.6448431371070718 127.5,3.5355339059327213 127.6,3.4227355296434463 127.7,3.3065593266182565 127.8,3.187119948743467 127.9,3.064535268264867 128.0,2.9389262614623717 128.1,2.8104168892606527 128.2,2.679133974894976 128.3,2.545207078751873 128.4,2.408768370508555 128.5,2.2699524986977373 128.6,2.128896457825359 128.7,1.9857394531739243 128.8,1.8406227634233707 128.9,1.6936896012264635 129.0,1.5450849718747361 129.1,1.3949555301961378 129.2,1.2434494358242918 129.3,1.0907162069826883 129.4,0.9369065729286257 129.5,0.7821723252011491 129.6,0.6266661678215433 129.7,0.4705415665925857 129.8,0.313952597646573 129.9,0.15705379539063966 130.0,-9.803364199544707e-15 130.1,-0.15705379539062372 130.2,-0.3139525976465217 130.3,-0.47054156659256985 130.4,-0.6266661678215274 130.5,-0.7821723252011332 130.6,-0.9369065729286101 130.7,-1.0907162069826728 130.8,-1.2434494358242765 130.9,-1.3949555301961563 131.0,-1.5450849718747213 131.1,-1.6936896012264153 131.2,-1.840622763423356 131.3,-1.9857394531739094 131.4,-2.128896457825345 131.5,-2.2699524986977546 131.6,-2.4087683705085725 131.7,-2.5452070787518286 131.8,-2.6791339748949925 131.9,-2.8104168892606394 132.0,-2.938926261462388 132.1,-3.0645352682648825 132.2,-3.187119948743455 132.3,-3.3065593266182445 132.4,-3.422735529643461 132.5,-3.535533905932735 132.6,-3.6448431371070606 132.7,-3.7505553481523055 132.8,-3.8525662138789363 132.9,-3.950775061878469 133.0,-4.045084971874737 133.1,-4.135402871372814 133.2,-4.221639627510065 133.3,-4.303710135019731 133.4,-4.3815334002193165 133.5,-4.455032620941842 133.6,-4.524135262330104 133.7,-4.5887731284199 133.8,-4.648882429441268 133.9,-4.704403844771128 134.0,-4.755282581475771 134.1,-4.801468428384711 134.2,-4.842915805643154 134.3,-4.879583809693736 134.4,-4.911436253643445 134.5,-4.938441702975691 134.6,-4.960573506572388 134.7,-4.977809823015396 134.8,-4.990133642141358 134.9,-4.997532801828658 135.0,-5.0 135.1,-4.997532801828658 135.2,-4.99013364214136 135.3,-4.9778098230153995 135.4,-4.960573506572387 135.5,-4.93844170297569 135.6,-4.911436253643451 135.7,-4.879583809693743 135.8,-4.842915805643153 135.9,-4.8014684283847195 136.0,-4.755282581475759 136.1,-4.704403844771139 136.2,-4.648882429441267 136.3,-4.588773128419899 136.4,-4.524135262330103 136.5,-4.455032620941825 136.6,-4.3815334002193325 136.7,-4.30371013501973 136.8,-4.221639627510084 136.9,-4.1354028713727935 137.0,-4.045084971874736 137.1,-3.9507750618784465 137.2,-3.8525662138789807 137.3,-3.750555348152305 137.4,-3.644843137107036 137.5,-3.535533905932734 137.6,-3.4227355296434343 137.7,-3.3065593266182702 137.8,-3.1871199487434265 137.9,-3.064535268264881 138.0,-2.938926261462358 138.1,-2.8104168892606385 138.2,-2.6791339748949916 138.3,-2.5452070787518277 138.4,-2.408768370508571 138.5,-2.2699524986977218 138.6,-2.128896457825376 138.7,-1.9857394531739083 138.8,-1.8406227634233876 138.9,-1.6936896012264473 139.0,-1.5450849718747197 139.1,-1.3949555301961554 139.2,-1.2434494358243098 139.3,-1.0907162069827063 139.4,-0.9369065729286088 139.5,-0.7821723252011671 139.6,-0.6266661678215262 139.7,-0.47054156659260393 139.8,-0.3139525976465559 139.9,-0.15705379539062253 140.0,-8.572527594031473e-15 140.1,0.15705379539060538 140.2,0.3139525976465388 140.3,0.4705415665925869 140.4,0.6266661678215092 140.5,0.7821723252011502 140.6,0.936906572928592 140.7,1.0907162069826897 140.8,1.2434494358242931 140.9,1.394955530196139 141.0,1.5450849718747037 141.1,1.6936896012264313 141.2,1.8406227634233718 141.3,1.9857394531738926 141.4,2.1288964578253924 141.5,2.269952498697738 141.6,2.4087683705085565 141.7,2.5452070787518135 141.8,2.6791339748949774 141.9,2.8104168892606833 142.0,2.938926261462373 142.1,3.064535268264896 142.2,3.187119948743413 142.3,3.306559326618284 142.4,3.4227355296434476 142.5,3.5355339059327475 142.6,3.644843137107072 142.7,3.7505553481522935 142.8,3.85256621387897 142.9,3.9507750618784576 143.0,4.045084971874748 143.1,4.135402871372803 143.2,4.221639627510074 143.3,4.303710135019721 143.4,4.3815334002193245 143.5,4.455032620941849 143.6,4.524135262330096 143.7,4.588773128419893 143.8,4.648882429441262 143.9,4.704403844771134 144.0,4.755282581475765 144.1,4.801468428384715 144.2,4.842915805643148 144.3,4.879583809693741 144.4,4.911436253643448 144.5,4.9384417029756875 144.6,4.960573506572385 144.7,4.977809823015398 144.8,4.990133642141359 144.9,4.997532801828657 145.0,5.0 145.1,4.997532801828658 145.2,4.990133642141359 145.3,4.977809823015398 145.4,4.9605735065723895 145.5,4.938441702975693 145.6,4.911436253643448 145.7,4.879583809693741 145.8,4.842915805643157 145.9,4.801468428384715 146.0,4.755282581475776 146.1,4.704403844771134 146.2,4.648882429441274 146.3,4.5887731284199065 146.4,4.524135262330081 146.5,4.455032620941849 146.6,4.3815334002193245 146.7,4.303710135019739 146.8,4.221639627510055 146.9,4.135402871372803 147.0,4.045084971874727 147.1,3.95077506187848 147.2,3.85256621387897 147.3,3.75055534815227 147.4,3.6448431371070478 147.5,3.5355339059327218 147.6,3.4227355296434476 147.7,3.3065593266183106 147.8,3.1871199487434403 147.9,3.064535268264868 148.0,2.938926261462344 148.1,2.810416889260654 148.2,2.679133974895007 148.3,2.5452070787518437 148.4,2.4087683705085565 148.5,2.269952498697738 148.6,2.1288964578253604 148.7,1.9857394531739252 148.8,1.8406227634233718 148.9,1.6936896012264313 149.0,1.5450849718747373 149.1,1.3949555301961731 149.2,1.2434494358242931 149.3,1.0907162069826897 149.4,0.9369065729286269 149.5,0.7821723252011502 149.6,0.6266661678215445 149.7,0.4705415665925869 149.8,0.3139525976465388 149.9,0.15705379539064088 150.0,2.6948419387607653e-14 150.1,-0.15705379539062253 150.2,-0.3139525976465559 150.3,-0.4705415665925686 150.4,-0.6266661678215262 150.5,-0.7821723252011321 150.6,-0.9369065729286088 150.7,-1.0907162069826717 150.8,-1.2434494358242754 150.9,-1.3949555301961212 151.0,-1.5450849718747197 151.1,-1.6936896012264473 151.2,-1.8406227634233545 151.3,-1.9857394531739412 151.4,-2.128896457825376 151.5,-2.2699524986977218 151.6,-2.40876837050854 151.7,-2.5452070787518277 151.8,-2.679133974895022 151.9,-2.810416889260668 152.0,-2.938926261462358 152.1,-3.0645352682648537 152.2,-3.1871199487433985 152.3,-3.3065593266182702 152.4,-3.4227355296434596 152.5,-3.535533905932759 152.6,-3.644843137107036 152.7,-3.750555348152258 152.8,-3.8525662138789585 152.9,-3.9507750618784683 153.0,-4.045084971874736 153.1,-4.135402871372813 153.2,-4.221639627510045 153.3,-4.30371013501973 153.4,-4.3815334002193325 153.5,-4.455032620941841 153.6,-4.524135262330088 153.7,-4.588773128419899 153.8,-4.648882429441267 153.9,-4.704403844771127 154.0,-4.75528258147577 154.1,-4.80146842838471 154.2,-4.842915805643153 154.3,-4.879583809693743 154.4,-4.911436253643444 154.5,-4.938441702975685 154.6,-4.960573506572387 154.7,-4.9778098230153995 154.8,-4.990133642141358 154.9,-4.997532801828658 155.0,-5.0 155.1,-4.997532801828658 155.2,-4.99013364214136 155.3,-4.9778098230153995 155.4,-4.960573506572392 155.5,-4.938441702975691 155.6,-4.911436253643445 155.7,-4.879583809693744 155.8,-4.842915805643154 155.9,-4.80146842838472 156.0,-4.755282581475771 156.1,-4.70440384477114 156.2,-4.648882429441268 156.3,-4.588773128419886 156.4,-4.524135262330104 156.5,-4.455032620941842 156.6,-4.381533400219333 156.7,-4.303710135019749 156.8,-4.221639627510065 156.9,-4.135402871372794 157.0,-4.045084971874759 157.1,-3.950775061878469 157.2,-3.8525662138789816 157.3,-3.7505553481522824 157.4,-3.6448431371070362 157.5,-3.535533905932735 157.6,-3.4227355296434867 157.7,-3.3065593266182978 157.8,-3.187119948743427 157.9,-3.064535268264854 158.0,-2.938926261462359 158.1,-2.810416889260669 158.2,-2.6791339748950227 158.3,-2.5452070787518286 158.4,-2.4087683705085725 158.5,-2.269952498697723 158.6,-2.128896457825377 158.7,-1.9857394531739094 158.8,-1.840622763423356 158.9,-1.6936896012264486 159.0,-1.5450849718747548 159.1,-1.3949555301961563 159.2,-1.2434494358242765 159.3,-1.0907162069827074 159.4,-0.9369065729286101 159.5,-0.7821723252011683 159.6,-0.6266661678215274 159.7,-0.4705415665926052 159.8,-0.31395259764655714 159.9,-0.15705379539065925 160.0,-9.797174393178826e-15 160.1,0.15705379539063966 160.2,0.3139525976465376 160.3,0.4705415665925857 160.4,0.626666167821508 160.5,0.7821723252011491 160.6,0.9369065729285908 160.7,1.0907162069826883 160.8,1.2434494358242574 160.9,1.3949555301961378 161.0,1.5450849718747361 161.1,1.6936896012264302 161.2,1.8406227634233376 161.3,1.9857394531738914 161.4,2.128896457825359 161.5,2.2699524986977053 161.6,2.408768370508555 161.7,2.545207078751812 161.8,2.679133974895006 161.9,2.8104168892606527 162.0,2.9389262614623437 162.1,3.0645352682648386 162.2,3.187119948743412 162.3,3.306559326618283 162.4,3.4227355296434725 162.5,3.5355339059327213 162.6,3.644843137107023 162.7,3.750555348152269 162.8,3.852566213878969 162.9,3.950775061878457 163.0,4.045084971874705 163.1,4.135402871372783 163.2,4.221639627510055 163.3,4.303710135019739 163.4,4.381533400219324 163.5,4.455032620941833 163.6,4.524135262330095 163.7,4.5887731284199065 163.8,4.648882429441247 163.9,4.704403844771109 164.0,4.755282581475754 164.1,4.8014684283847044 164.2,4.842915805643139 164.3,4.87958380969374 164.4,4.911436253643441 164.5,4.9384417029756875 164.6,4.9605735065723895 164.7,4.977809823015398 164.8,4.990133642141361 164.9,4.997532801828658 165.0,5.0 165.1,4.99753280182866 165.2,4.990133642141359 165.3,4.977809823015401 165.4,4.9605735065723895 165.5,4.938441702975688 165.6,4.911436253643448 165.7,4.879583809693749 165.8,4.842915805643148 165.9,4.801468428384705 166.0,4.755282581475754 166.1,4.7044038447711225 166.2,4.648882429441274 166.3,4.588773128419907 166.4,4.5241352623300966 166.5,4.45503262094185 166.6,4.381533400219342 166.7,4.30371013501974 166.8,4.221639627510056 166.9,4.135402871372785 167.0,4.0450849718747275 167.1,3.950775061878459 167.2,3.852566213878948 167.3,3.750555348152295 167.4,3.644843137107073 167.5,3.535533905932773 167.6,3.4227355296434743 167.7,3.3065593266182853 167.8,3.1871199487434145 167.9,3.0645352682648683 168.0,2.938926261462374 168.1,2.8104168892606554 168.2,2.6791339748949783 168.3,2.5452070787518757 168.4,2.4087683705086196 168.5,2.269952498697771 168.6,2.1288964578253937 168.7,1.985739453173959 168.8,1.840622763423373 168.9,1.6936896012264657 169.0,1.5450849718747386 169.1,1.39495553019614 169.2,1.2434494358242942 169.3,1.09071620698276 169.4,0.936906572928663 169.5,0.7821723252011865 169.6,0.6266661678215808 169.7,0.47054156659258817 169.8,0.31395259764657546 169.9,0.15705379539064213 170.0,-7.354070601250003e-15 170.1,-0.1570537953906213 170.2,-0.3139525976465193 170.3,-0.47054156659260277 170.4,-0.6266661678215603 170.5,-0.7821723252010958 170.6,-0.9369065729286076 170.7,-1.0907162069826706 170.8,-1.243449435824274 170.9,-1.394955530196154 171.0,-1.5450849718747186 171.1,-1.6936896012264127 171.2,-1.8406227634233536 171.3,-1.98573945317394 171.4,-2.128896457825407 171.5,-2.2699524986977524 171.6,-2.4087683705085703 171.7,-2.545207078751827 171.8,-2.6791339748949907 171.9,-2.810416889260638 172.0,-2.9389262614623286 172.1,-3.0645352682648523 172.2,-3.187119948743425 172.3,-3.3065593266182964 172.4,-3.422735529643459 172.5,-3.5355339059327333 172.6,-3.644843137107059 172.7,-3.750555348152304 172.8,-3.8525662138789354 172.9,-3.9507750618784243 173.0,-4.045084971874715 173.1,-4.135402871372793 173.2,-4.2216396275100445 173.3,-4.303710135019729 173.4,-4.381533400219316 173.5,-4.45503262094184 173.6,-4.524135262330102 173.7,-4.588773128419899 173.8,-4.64888242944124 173.9,-4.704403844771115 174.0,-4.755282581475759 174.1,-4.8014684283847 174.2,-4.842915805643153 174.3,-4.879583809693736 174.4,-4.911436253643444 174.5,-4.93844170297569 174.6,-4.960573506572387 174.7,-4.977809823015396 174.8,-4.99013364214136 174.9,-4.9975328018286564 175.0,-5.0 175.1,-4.997532801828658 175.2,-4.99013364214136 175.3,-4.9778098230153995 175.4,-4.960573506572388 175.5,-4.938441702975691 175.6,-4.911436253643451 175.7,-4.879583809693744 175.8,-4.842915805643145 175.9,-4.801468428384701 176.0,-4.755282581475771 176.1,-4.70440384477114 176.2,-4.648882429441269 176.3,-4.5887731284199 176.4,-4.524135262330104 176.5,-4.455032620941858 176.6,-4.381533400219334 176.7,-4.303710135019731 176.8,-4.221639627510047 176.9,-4.135402871372794 177.0,-4.045084971874738 177.1,-3.9507750618784483 177.2,-3.8525662138789825 177.3,-3.750555348152307 177.4,-3.6448431371070855 177.5,-3.5355339059327613 177.6,-3.4227355296434614 177.7,-3.306559326618299 177.8,-3.1871199487434283 177.9,-3.0645352682648834 178.0,-2.93892626146236 178.1,-2.8104168892606407 178.2,-2.679133974894994 178.3,-2.545207078751891 178.4,-2.4087683705086045 178.5,-2.2699524986977555 178.6,-2.12889645782541 178.7,-1.9857394531739105 178.8,-1.84062276342339 178.9,-1.6936896012264495 179.0,-1.5450849718747222 179.1,-1.3949555301961578 179.2,-1.2434494358243122 179.3,-1.0907162069827434 179.4,-0.9369065729286462 179.5,-0.7821723252012047 179.6,-0.6266661678215286 179.7,-0.4705415665926064 179.8,-0.31395259764655836 179.9,-0.15705379539062495 180.0,-1.1021821192326179e-14 180.1,0.1570537953906029 180.2,0.3139525976465363 180.3,0.47054156659261986 180.4,0.6266661678214714 180.5,0.7821723252011479 180.6,0.9369065729285896 180.7,1.0907162069826872 180.8,1.2434494358242907 180.9,1.3949555301961363 181.0,1.5450849718747013 181.1,1.6936896012264289 181.2,1.8406227634233696 181.3,1.9857394531739556 181.4,2.12889645782539 181.5,2.269952498697736 181.6,2.4087683705085543 181.7,2.545207078751811 181.8,2.6791339748949747 181.9,2.8104168892606225 182.0,2.9389262614623424 182.1,3.0645352682648657 182.2,3.187119948743411 182.3,3.3065593266182827 182.4,3.422735529643446 182.5,3.535533905932745 182.6,3.6448431371070704 182.7,3.750555348152292 182.8,3.852566213878923 182.9,3.950775061878435 183.0,4.045084971874725 183.1,4.135402871372783 183.2,4.221639627510073 183.3,4.30371013501972 183.4,4.381533400219324 183.5,4.455032620941848 183.6,4.524135262330095 183.7,4.588773128419891 183.8,4.6488824294412465 183.9,4.704403844771121 184.0,4.755282581475753 184.1,4.801468428384714 184.2,4.842915805643148 184.3,4.87958380969374 184.4,4.911436253643448 184.5,4.9384417029756875 184.6,4.960573506572385 184.7,4.977809823015398 184.8,4.990133642141357 184.9,4.9975328018286564 185.0,5.0 185.1,4.997532801828658 185.2,4.99013364214136 185.3,4.977809823015399 185.4,4.9605735065723895 185.5,4.938441702975694 185.6,4.911436253643448 185.7,4.879583809693741 185.8,4.84291580564314 185.9,4.801468428384716 186.0,4.755282581475777 186.1,4.704403844771134 186.2,4.648882429441275 186.3,4.588773128419908 186.4,4.524135262330112 186.5,4.455032620941851 186.6,4.381533400219326 186.7,4.303710135019741 186.8,4.221639627510056 186.9,4.135402871372805 187.0,4.045084971874728 187.1,3.9507750618784816 187.2,3.852566213878972 187.3,3.750555348152319 187.4,3.644843137107074 187.5,3.535533905932749 187.6,3.422735529643475 187.7,3.306559326618259 187.8,3.1871199487434425 187.9,3.0645352682648697 188.0,2.9389262614623464 188.1,2.810416889260656 188.2,2.6791339748950094 188.3,2.5452070787518766 188.4,2.40876837050859 188.5,2.269952498697772 188.6,2.1288964578253626 188.7,1.9857394531739274 188.8,1.840622763423374 188.9,1.6936896012264335 189.0,1.5450849718747397 189.1,1.3949555301961754 189.2,1.2434494358242956 189.3,1.0907162069827268 189.4,0.9369065729286642 189.5,0.7821723252011527 189.6,0.6266661678215468 189.7,0.47054156659258933 189.8,0.31395259764654126 189.9,0.15705379539064335 190.0,2.9397712985902356e-14 190.1,-0.15705379539062006 190.2,-0.3139525976465535 190.3,-0.4705415665925308 190.4,-0.6266661678215237 190.5,-0.7821723252011297 190.6,-0.9369065729286065 190.7,-1.0907162069826692 190.8,-1.243449435824273 190.9,-1.394955530196119 191.0,-1.5450849718747175 191.1,-1.693689601226445 191.2,-1.8406227634233523 191.3,-1.985739453173939 191.4,-2.1288964578253737 191.5,-2.2699524986977195 191.6,-2.408768370508538 191.7,-2.5452070787518255 191.8,-2.6791339748949596 191.9,-2.8104168892606367 192.0,-2.938926261462356 192.1,-3.0645352682648515 192.2,-3.187119948743452 192.3,-3.3065593266182685 192.4,-3.4227355296434583 192.5,-3.5355339059327577 192.6,-3.644843137107034 192.7,-3.750555348152256 192.8,-3.852566213878934 192.9,-3.9507750618784456 193.0,-4.045084971874714 193.1,-4.135402871372812 193.2,-4.221639627510063 193.3,-4.303710135019728 193.4,-4.381533400219332 193.5,-4.45503262094184 193.6,-4.524135262330087 193.7,-4.5887731284198985 193.8,-4.648882429441254 193.9,-4.7044038447711145 194.0,-4.75528258147577 194.1,-4.801468428384709 194.2,-4.842915805643152 194.3,-4.879583809693743 194.4,-4.911436253643443 194.5,-4.938441702975684 194.6,-4.960573506572387 194.7,-4.9778098230153995 194.8,-4.990133642141355 194.9,-4.997532801828658 195.0,-5.0 195.1,-4.997532801828658 195.2,-4.990133642141361 195.3,-4.9778098230154 195.4,-4.960573506572392 195.5,-4.938441702975691 195.6,-4.911436253643445 195.7,-4.879583809693745 195.8,-4.842915805643154 195.9,-4.801468428384721 196.0,-4.755282581475772 196.1,-4.70440384477114 196.2,-4.648882429441269 196.3,-4.588773128419915 196.4,-4.5241352623301045 196.5,-4.455032620941843 196.6,-4.381533400219334 196.7,-4.303710135019713 196.8,-4.221639627510067 196.9,-4.135402871372795 197.0,-4.04508497187476 197.1,-3.950775061878471 197.2,-3.8525662138789833 197.3,-3.7505553481523073 197.4,-3.6448431371070624 197.5,-3.5355339059327617 197.6,-3.4227355296434365 197.7,-3.306559326618273 197.8,-3.187119948743429 197.9,-3.0645352682648563 198.0,-2.9389262614623615 198.1,-2.8104168892606713 198.2,-2.679133974895025 198.3,-2.5452070787518615 198.4,-2.408768370508606 198.5,-2.269952498697725 198.6,-2.128896457825379 198.7,-1.9857394531739117 198.8,-1.8406227634233583 198.9,-1.6936896012264508 199.0,-1.5450849718747572 199.1,-1.394955530196159 199.2,-1.243449435824279 199.3,-1.0907162069827445 199.4,-0.9369065729286125 199.5,-0.7821723252011709 199.6,-0.62666616782153 199.7,-0.47054156659260765 199.8,-0.3139525976465596 199.9,-0.1570537953906617 200.0,-1.2246467991473532e-14" stroke-width="1" stroke-linecap="round" stroke-linejoin="round" stroke="#000000" fill="none"  />
<!-- Footer -->
</svg>
