<!-- Header -->
<svg
    version="1.1"
    baseProfile="full"
    xmlns="http://www.w3.org/2000/svg"
    xmlns:xlink="http://www.w3.org/1999/xlink"
    xmlns:ev="http://www.w3.org/2001/xml-events"
    width="210.0"
    height="20.0"
    viewBox="-5.0 -10.0 210.0 20.0"
    preserveAspectRatio="none"
>
<!-- Body -->
<!-- polyline -->
<polyline points="0.0,0.0 0.1,0.31395259764656686 0.2,0.6266661678215213 0.3,0.936906572928623 0.4,1.243449435824274 0.5,1.545084971874737 0.6,1.8406227634233896 0.7,2.128896457825363 0.8,2.4087683705085765 0.9,2.679133974894983 1.0,2.938926261462366 1.1,3.1871199487434487 1.2,3.422735529643443 1.3,3.644843137107058 1.4,3.8525662138789456 1.5,4.045084971874737 1.6,4.221639627510076 1.7,4.381533400219318 1.8,4.524135262330098 1.9,4.648882429441256 2.0,4.755282581475767 2.1,4.842915805643155 2.2,4.911436253643443 2.3,4.960573506572389 2.4,4.990133642141358 2.5,5.0 2.6,4.990133642141358 2.7,4.9605735065723895 2.8,4.911436253643443 2.9,4.842915805643156 3.0,4.755282581475768 3.1,4.648882429441257 3.2,4.524135262330097 3.3,4.381533400219317 3.4,4.221639627510076 3.5,4.045084971874737 3.6,3.852566213878946 3.7,3.644843137107057 3.8,3.422735529643444 3.9,3.187119948743449 4.0,2.9389262614623664 4.1,2.679133974894985 4.2,2.408768370508576 4.3,2.1288964578253626 4.4,1.8406227634233887 4.5,1.5450849718747375 4.6,1.2434494358242763 4.7,0.9369065729286229 4.8,0.6266661678215226 4.9,0.3139525976465657 5.0,6.123233995736766e-16 5.1,-0.3139525976465645 5.2,-0.6266661678215214 5.3,-0.9369065729286195 5.4,-1.243449435824273 5.5,-1.5450849718747364 5.6,-1.8406227634233874 5.7,-2.1288964578253635 5.8,-2.408768370508575 5.9,-2.6791339748949836 6.0,-2.938926261462365 6.1,-3.1871199487434465 6.2,-3.422735529643442 6.3,-3.6448431371070567 6.4,-3.852566213878947 6.5,-4.045084971874736 6.6,-4.2216396275100765 6.7,-4.381533400219318 6.8,-4.5241352623300966 6.9,-4.648882429441257 7.0,-4.755282581475767 7.1,-4.8429158056431545 7.2,-4.911436253643443 7.3,-4.960573506572389 7.4,-4.990133642141358 7.5,-5.0 7.6,-4.990133642141358 7.7,-4.9605735065723895 7.8,-4.911436253643443 7.9,-4.842915805643155 8.0,-4.755282581475768 8.1,-4.648882429441258 8.2,-4.524135262330099 8.3,-4.381533400219319 8.4,-4.221639627510075 8.5,-4.045084971874735 8.6,-3.852566213878945 8.7,-3.6448431371070606 8.8,-3.4227355296434414 8.9,-3.1871199487434483 9.0,-2.938926261462367 9.1,-2.6791339748949854 9.2,-2.4087683705085805 9.3,-2.128896457825361 9.4,-1.8406227634233894 9.5,-1.5450849718747381 9.6,-1.2434494358242767 9.7,-0.9369065729286279 9.8,-0.626666167821519 9.9,-0.3139525976465663 10.0,-1.2246467991473533e-15 10.1,0.3139525976465639 10.2,0.6266661678215164 10.3,0.9369065729286298 10.4,1.2434494358242745 10.5,1.545084971874736 10.6,1.840622763423383 10.7,2.128896457825359 10.8,2.4087683705085743 10.9,2.679133974894983 11.0,2.9389262614623646 11.1,3.187119948743446 11.2,3.4227355296434396 11.3,3.6448431371070593 11.4,3.852566213878946 11.5,4.045084971874734 11.6,4.221639627510074 11.7,4.381533400219316 11.8,4.524135262330098 11.9,4.648882429441257 12.0,4.755282581475767 12.1,4.8429158056431545 12.2,4.911436253643442 12.3,4.9605735065723895 12.4,4.990133642141358 12.5,5.0 12.6,4.990133642141358 12.7,4.9605735065723895 12.8,4.911436253643443 12.9,4.842915805643155 13.0,4.755282581475768 13.1,4.648882429441258 13.2,4.5241352623300966 13.3,4.381533400219321 13.4,4.221639627510076 13.5,4.045084971874738 13.6,3.8525662138789487 13.7,3.644843137107061 13.8,3.422735529643442 13.9,3.1871199487434487 14.0,2.938926261462367 14.1,2.6791339748949783 14.2,2.408768370508581 14.3,2.1288964578253617 14.4,1.8406227634233898 14.5,1.545084971874739 14.6,1.2434494358242774 14.7,0.9369065729286284 14.8,0.6266661678215195 14.9,0.3139525976465669 15.0,1.0718754395722281e-14 15.1,-0.31395259764656325 15.2,-0.6266661678215159 15.3,-0.9369065729286248 15.4,-1.2434494358242738 15.5,-1.5450849718747353 15.6,-1.8406227634233863 15.7,-2.128896457825358 15.8,-2.408768370508578 15.9,-2.6791339748949756 16.0,-2.938926261462364 16.1,-3.1871199487434527 16.2,-3.422735529643439 16.3,-3.644843137107059 16.4,-3.8525662138789403 16.5,-4.045084971874741 16.6,-4.221639627510073 16.7,-4.38153340021932 16.8,-4.524135262330098 16.9,-4.648882429441254 17.0,-4.75528258147577 17.1,-4.8429158056431545 17.2,-4.911436253643444 17.3,-4.9605735065723895 17.4,-4.990133642141357 17.5,-5.0 17.6,-4.990133642141357 17.7,-4.9605735065723895 17.8,-4.911436253643443 17.9,-4.842915805643156 18.0,-4.755282581475769 18.1,-4.648882429441255 18.2,-4.5241352623301 18.3,-4.381533400219313 18.4,-4.22163962751008 18.5,-4.045084971874734 18.6,-3.852566213878943 18.7,-3.6448431371070615 18.8,-3.4227355296434423 18.9,-3.187119948743456 19.0,-2.9389262614623672 19.1,-2.6791339748949787 19.2,-2.4087683705085814 19.3,-2.128896457825362 19.4,-1.8406227634233985 19.5,-1.5450849718747395 19.6,-1.2434494358242694 19.7,-0.9369065729286377 19.8,-0.6266661678215201 19.9,-0.3139525976465676 20.0,-2.4492935982947065e-15 20.1,0.31395259764656264 20.2,0.6266661678215152 20.3,0.9369065729286329 20.4,1.2434494358242647 20.5,1.5450849718747262 20.6,1.8406227634234025 20.7,2.1288964578253577 20.8,2.408768370508577 20.9,2.6791339748949823 21.0,2.9389262614623632 21.1,3.187119948743452 21.2,3.4227355296434325 21.3,3.644843137107064 21.4,3.8525662138789403 21.5,4.045084971874731 21.6,4.221639627510073 21.7,4.381533400219319 21.8,4.524135262330098 21.9,4.648882429441254 22.0,4.755282581475767 22.1,4.842915805643159 22.2,4.911436253643442 22.3,4.960573506572389 22.4,4.990133642141357 22.5,5.0 22.6,4.990133642141358 22.7,4.9605735065723895 22.8,4.911436253643443 22.9,4.842915805643156 23.0,4.755282581475772 23.1,4.648882429441259 23.2,4.524135262330101 23.3,4.381533400219322 23.4,4.221639627510081 23.5,4.045084971874734 23.6,3.8525662138789434 23.7,3.6448431371070624 23.8,3.422735529643443 23.9,3.1871199487434563 24.0,2.9389262614623677 24.1,2.679133974894987 24.2,2.4087683705085823 24.3,2.1288964578253626 24.4,1.840622763423399 24.5,1.54508497187474 24.6,1.24344943582427 24.7,0.9369065729286209 24.8,0.6266661678215295 24.9,0.31395259764656813 25.0,3.061616997868383e-15 25.1,-0.313952597646562 25.2,-0.6266661678215146 25.3,-0.9369065729286323 25.4,-1.2434494358242727 25.5,-1.5450849718747426 25.6,-1.8406227634233936 25.7,-2.1288964578253493 25.8,-2.4087683705085765 25.9,-2.679133974894967 26.0,-2.938926261462363 26.1,-3.187119948743459 26.2,-3.4227355296434387 26.3,-3.6448431371070518 26.4,-3.8525662138789505 26.5,-4.045084971874741 26.6,-4.2216396275100685 26.7,-4.38153340021931 26.8,-4.524135262330098 26.9,-4.648882429441256 27.0,-4.755282581475767 27.1,-4.8429158056431545 27.2,-4.911436253643442 27.3,-4.96057350657239 27.4,-4.990133642141357 27.5,-5.0 27.6,-4.990133642141358 27.7,-4.960573506572391 27.8,-4.911436253643443 27.9,-4.842915805643156 28.0,-4.755282581475769 28.1,-4.648882429441259 28.2,-4.524135262330093 28.3,-4.381533400219314 28.4,-4.221639627510081 28.5,-4.045084971874744 28.6,-3.8525662138789443 28.7,-3.6448431371070567 28.8,-3.4227355296434436 28.9,-3.18711994874345 29.0,-2.9389262614623686 29.1,-2.679133974894973 29.2,-2.4087683705085827 29.3,-2.1288964578253715 29.4,-1.8406227634233998 29.5,-1.5450849718747488 29.6,-1.2434494358242705 29.7,-0.9369065729286215 29.8,-0.6266661678215213 29.9,-0.3139525976465865 30.0,-2.1437508791444562e-14 30.1,0.3139525976465791 30.2,0.6266661678215141 30.3,0.9369065729286142 30.4,1.2434494358242634 30.5,1.545084971874742 30.6,1.840622763423393 30.7,2.128896457825365 30.8,2.408768370508576 30.9,2.6791339748949667 31.0,2.9389262614623624 31.1,3.1871199487434443 31.2,3.422735529643438 31.3,3.644843137107051 31.4,3.852566213878939 31.5,4.04508497187474 31.6,4.221639627510077 31.7,4.38153340021931 31.8,4.52413526233009 31.9,4.648882429441256 32.0,4.755282581475766 32.1,4.842915805643159 32.2,4.911436253643445 32.3,4.960573506572389 32.4,4.990133642141357 32.5,5.0 32.6,4.990133642141358 32.7,4.960573506572389 32.8,4.911436253643447 32.9,4.842915805643156 33.0,4.755282581475764 33.1,4.648882429441253 33.2,4.524135262330101 33.3,4.381533400219323 33.4,4.221639627510072 33.5,4.045084971874735 33.6,3.8525662138789443 33.7,3.644843137107057 33.8,3.422735529643457 33.9,3.1871199487434643 34.0,2.9389262614623544 34.1,2.679133974894988 34.2,2.408768370508583 34.3,2.128896457825388 34.4,1.8406227634233838 34.5,1.5450849718747328 34.6,1.2434494358242711 34.7,0.936906572928622 34.8,0.6266661678215396 34.9,0.31395259764656935 35.0,4.2862637970157365e-15 35.1,-0.3139525976465608 35.2,-0.6266661678215311 35.3,-0.9369065729286137 35.4,-1.243449435824263 35.5,-1.5450849718747415 35.6,-1.8406227634233923 35.7,-2.1288964578253804 35.8,-2.4087683705085756 35.9,-2.679133974894981 36.0,-2.9389262614623624 36.1,-3.1871199487434576 36.2,-3.4227355296434503 36.3,-3.644843137107051 36.4,-3.8525662138789385 36.5,-4.045084971874729 36.6,-4.221639627510086 36.7,-4.381533400219327 36.8,-4.5241352623300894 36.9,-4.648882429441256 37.0,-4.755282581475772 37.1,-4.842915805643159 37.2,-4.911436253643445 37.3,-4.960573506572388 37.4,-4.990133642141357 37.5,-5.0 37.6,-4.990133642141358 37.7,-4.960573506572389 37.8,-4.911436253643447 37.9,-4.842915805643161 38.0,-4.755282581475769 38.1,-4.648882429441253 38.2,-4.524135262330093 38.3,-4.381533400219332 38.4,-4.221639627510082 38.5,-4.045084971874735 38.6,-3.8525662138789447 38.7,-3.644843137107057 38.8,-3.422735529643457 38.9,-3.187119948743451 39.0,-2.9389262614623695 39.1,-2.679133974894989 39.2,-2.408768370508568 39.3,-2.1288964578253884 39.4,-1.8406227634234174 39.5,-1.5450849718747333 39.6,-1.2434494358242718 39.7,-0.9369065729286052 39.8,-0.6266661678215225 39.9,-0.31395259764657 40.0,-4.898587196589413e-15 40.1,0.3139525976465602 40.2,0.6266661678215129 40.3,0.9369065729285957 40.4,1.2434494358242623 40.5,1.545084971874724 40.6,1.8406227634234082 40.7,2.1288964578253795 40.8,2.408768370508559 40.9,2.6791339748949805 41.0,2.9389262614623473 41.1,3.187119948743443 41.2,3.422735529643463 41.3,3.6448431371070504 41.4,3.8525662138789385 41.5,4.04508497187475 41.6,4.2216396275100765 41.7,4.381533400219327 41.8,4.5241352623300966 41.9,4.648882429441249 42.0,4.755282581475766 42.1,4.842915805643149 42.2,4.911436253643445 42.3,4.960573506572388 42.4,4.990133642141356 42.5,5.0 42.6,4.990133642141357 42.7,4.9605735065723895 42.8,4.911436253643447 42.9,4.842915805643156 43.0,4.755282581475775 43.1,4.648882429441253 43.2,4.524135262330101 43.3,4.381533400219332 43.4,4.221639627510073 43.5,4.045084971874745 43.6,3.852566213878945 43.7,3.6448431371070455 43.8,3.4227355296434574 43.9,3.1871199487434647 44.0,2.9389262614623703 44.1,2.6791339748949894 44.2,2.408768370508553 44.3,2.1288964578253893 44.4,1.8406227634234016 44.5,1.545084971874734 44.6,1.2434494358242896 44.7,0.9369065729286232 44.8,0.6266661678215407 44.9,0.31395259764657063 45.0,5.5109105961630896e-15 45.1,-0.3139525976465419 45.2,-0.62666616782153 45.3,-0.9369065729286125 45.4,-1.2434494358242616 45.5,-1.5450849718747235 45.6,-1.8406227634233914 45.7,-2.128896457825347 45.8,-2.4087683705085747 45.9,-2.67913397489498 46.0,-2.938926261462347 46.1,-3.1871199487434563 46.2,-3.4227355296434365 46.3,-3.64484313710705 46.4,-3.852566213878938 46.5,-4.045084971874728 46.6,-4.221639627510067 46.7,-4.381533400219326 46.8,-4.5241352623300894 46.9,-4.648882429441249 47.0,-4.755282581475772 47.1,-4.842915805643154 47.2,-4.911436253643445 47.3,-4.960573506572388 47.4,-4.990133642141357 47.5,-5.0 47.6,-4.990133642141358 47.7,-4.9605735065723895 47.8,-4.911436253643447 47.9,-4.842915805643161 48.0,-4.75528258147577 48.1,-4.648882429441254 48.2,-4.524135262330102 48.3,-4.381533400219324 48.4,-4.221639627510083 48.5,-4.0450849718747355 48.6,-3.8525662138789456 48.7,-3.64484313710707 48.8,-3.4227355296434583 48.9,-3.187119948743452 49.0,-2.938926261462371 49.1,-2.67913397489499 49.2,-2.408768370508569 49.3,-2.1288964578253897 49.4,-1.8406227634233854 49.5,-1.5450849718747346 49.6,-1.2434494358242902 49.7,-0.9369065729286065 49.8,-0.6266661678215237 49.9,-0.31395259764657124 50.0,-6.123233995736766e-15 50.1,0.313952597646559 50.2,0.6266661678215115 50.3,0.9369065729286292 50.4,1.2434494358242612 50.5,1.5450849718747228 50.6,1.8406227634234071 50.7,2.1288964578253626 50.8,2.4087683705085743 50.9,2.679133974894979 51.0,2.9389262614623752 51.1,3.1871199487434425 51.2,3.4227355296434494 51.3,3.64484313710705 51.4,3.8525662138789265 51.5,4.045084971874728 51.6,4.221639627510076 51.7,4.381533400219326 51.8,4.5241352623300815 51.9,4.648882429441262 52.0,4.755282581475766 52.1,4.842915805643158 52.2,4.911436253643448 52.3,4.960573506572386 52.4,4.990133642141357 52.5,5.0 52.6,4.990133642141359 52.7,4.9605735065723895 52.8,4.911436253643441 52.9,4.842915805643157 53.0,4.755282581475765 53.1,4.64888242944126 53.2,4.52413526233011 53.3,4.381533400219324 53.4,4.221639627510092 53.5,4.045084971874746 53.6,3.8525662138789456 53.7,3.644843137107046 53.8,3.422735529643446 53.9,3.1871199487434385 54.0,2.9389262614623712 54.1,2.679133974895005 54.2,2.4087683705085854 54.3,2.12889645782539 54.4,1.8406227634234027 54.5,1.5450849718747688 54.6,1.2434494358242563 54.7,0.9369065729286246 54.8,0.6266661678215419 54.9,0.3139525976465718 55.0,2.4499125789312944e-14 55.1,-0.3139525976465584 55.2,-0.6266661678215286 55.3,-0.9369065729286112 55.4,-1.2434494358242434 55.5,-1.5450849718747561 55.6,-1.84062276342339 55.7,-2.128896457825378 55.8,-2.4087683705085734 55.9,-2.679133974894964 56.0,-2.93892626146236 56.1,-3.1871199487434554 56.2,-3.422735529643436 56.3,-3.644843137107037 56.4,-3.8525662138789594 56.5,-4.045084971874738 56.6,-4.2216396275100845 56.7,-4.381533400219317 56.8,-4.524135262330089 56.9,-4.648882429441255 57.0,-4.75528258147576 57.1,-4.842915805643154 57.2,-4.911436253643445 57.3,-4.960573506572383 57.4,-4.990133642141358 57.5,-5.0 57.6,-4.990133642141358 57.7,-4.960573506572391 57.8,-4.911436253643444 57.9,-4.842915805643162 58.0,-4.75528258147577 58.1,-4.648882429441267 58.2,-4.524135262330088 58.3,-4.381533400219316 58.4,-4.221639627510083 58.5,-4.045084971874736 58.6,-3.8525662138789576 58.7,-3.644843137107059 58.8,-3.422735529643459 58.9,-3.1871199487434527 59.0,-2.9389262614623854 59.1,-2.6791339748949605 59.2,-2.4087683705085703 59.3,-2.1288964578253746 59.4,-1.8406227634233865 59.5,-1.5450849718747526 59.6,-1.243449435824274 59.7,-0.9369065729286076 59.8,-0.6266661678215601 59.9,-0.31395259764659017 60.0,-4.2875017582889124e-14 60.1,0.31395259764657546 60.2,0.6266661678215456 60.3,0.9369065729285931 60.4,1.24344943582426 60.5,1.5450849718747386 60.6,1.840622763423373 60.7,2.1288964578253613 60.8,2.4087683705085574 60.9,2.679133974894948 61.0,2.938926261462374 61.1,3.1871199487434416 61.2,3.422735529643448 61.3,3.644843137107049 61.4,3.852566213878948 61.5,4.0450849718747275 61.6,4.221639627510076 61.7,4.3815334002193085 61.8,4.524135262330081 61.9,4.648882429441262 62.0,4.7552825814757655 62.1,4.842915805643157 62.2,4.9114362536434415 62.3,4.9605735065723895 62.4,4.990133642141357 62.5,5.0 62.6,4.990133642141359 62.7,4.960573506572385 62.8,4.911436253643448 62.9,4.842915805643157 63.0,4.755282581475765 63.1,4.648882429441261 63.2,4.524135262330095 63.3,4.381533400219324 63.4,4.221639627510093 63.5,4.045084971874747 63.6,3.852566213878969 63.7,3.6448431371070718 63.8,3.4227355296434463 63.9,3.187119948743467 64.0,2.9389262614623717 64.1,2.679133974894976 64.2,2.408768370508555 64.3,2.128896457825359 64.4,1.8406227634233707 64.5,1.5450849718747361 64.6,1.2434494358242918 64.7,0.9369065729286257 64.8,0.6266661678215433 64.9,0.313952597646573 65.0,-9.803364199544707e-15 65.1,-0.3139525976465217 65.2,-0.6266661678215274 65.3,-0.9369065729286101 65.4,-1.2434494358242765 65.5,-1.5450849718747213 65.6,-1.840622763423356 65.7,-2.128896457825345 65.8,-2.4087683705085725 65.9,-2.6791339748949925 66.0,-2.938926261462388 66.1,-3.187119948743455 66.2,-3.422735529643461 66.3,-3.6448431371070606 66.4,-3.8525662138789363 66.5,-4.045084971874737 66.6,-4.221639627510065 66.7,-4.3815334002193165 66.8,-4.524135262330104 66.9,-4.648882429441268 67.0,-4.755282581475771 67.1,-4.842915805643154 67.2,-4.911436253643445 67.3,-4.960573506572388 67.4,-4.990133642141358 67.5,-5.0 67.6,-4.99013364214136 67.7,-4.960573506572387 67.8,-4.911436253643451 67.9,-4.842915805643153 68.0,-4.755282581475759 68.1,-4.648882429441267 68.2,-4.524135262330103 68.3,-4.3815334002193325 68.4,-4.221639627510084 68.5,-4.045084971874736 68.6,-3.8525662138789807 68.7,-3.644843137107036 68.8,-3.4227355296434343 68.9,-3.1871199487434265 69.0,-2.938926261462358 69.1,-2.6791339748949916 69.2,-2.408768370508571 69.3,-2.128896457825376 69.4,-1.8406227634233876 69.5,-1.5450849718747197 69.6,-1.2434494358243098 69.7,-0.9369065729286088 69.8,-0.6266661678215262 69.9,-0.3139525976465559 70.0,-8.572527594031473e-15 70.1,0.3139525976465388 70.2,0.6266661678215092 70.3,0.936906572928592 70.4,1.2434494358242931 70.5,1.5450849718747037 70.6,1.8406227634233718 70.7,2.1288964578253924 70.8,2.4087683705085565 70.9,2.6791339748949774 71.0,2.938926261462373 71.1,3.187119948743413 71.2,3.4227355296434476 71.3,3.644843137107072 71.4,3.85256621387897 71.5,4.045084971874748 71.6,4.221639627510074 71.7,4.3815334002193245 71.8,4.524135262330096 71.9,4.648882429441262 72.0,4.755282581475765 72.1,4.842915805643148 72.2,4.911436253643448 72.3,4.960573506572385 72.4,4.990133642141359 72.5,5.0 72.6,4.990133642141359 72.7,4.9605735065723895 72.8,4.911436253643448 72.9,4.842915805643157 73.0,4.755282581475776 73.1,4.648882429441274 73.2,4.524135262330081 73.3,4.3815334002193245 73.4,4.221639627510055 73.5,4.045084971874727 73.6,3.85256621387897 73.7,3.6448431371070478 73.8,3.4227355296434476 73.9,3.1871199487434403 74.0,2.938926261462344 74.1,2.679133974895007 74.2,2.4087683705085565 74.3,2.1288964578253604 74.4,1.8406227634233718 74.5,1.5450849718747373 74.6,1.2434494358242931 74.7,0.9369065729286269 74.8,0.6266661678215445 74.9,0.3139525976465388 75.0,2.6948419387607653e-14 75.1,-0.3139525976465559 75.2,-0.6266661678215262 75.3,-0.9369065729286088 75.4,-1.2434494358242754 75.5,-1.5450849718747197 75.6,-1.8406227634233545 75.7,-2.128896457825376 75.8,-2.40876837050854 75.9,-2.679133974895022 76.0,-2.938926261462358 76.1,-3.1871199487433985 76.2,-3.4227355296434596 76.3,-3.644843137107036 76.4,-3.8525662138789585 76.5,-4.045084971874736 76.6,-4.221639627510045 76.7,-4.3815334002193325 76.8,-4.524135262330088 76.9,-4.648882429441267 77.0,-4.75528258147577 77.1,-4.842915805643153 77.2,-4.911436253643444 77.3,-4.960573506572387 77.4,-4.990133642141358 77.5,-5.0 77.6,-4.99013364214136 77.7,-4.960573506572392 77.8,-4.911436253643445 77.9,-4.842915805643154 78.0,-4.755282581475771 78.1,-4.648882429441268 78.2,-4.524135262330104 78.3,-4.381533400219333 78.4,-4.221639627510065 78.5,-4.045084971874759 78.6,-3.8525662138789816 78.7,-3.6448431371070362 78.8,-3.4227355296434867 78.9,-3.187119948743427 79.0,-2.938926261462359 79.1,-2.6791339748950227 79.2,-2.4087683705085725 79.3,-2.128896457825377 79.4,-1.840622763423356 79.5,-1.5450849718747548 79.6,-1.2434494358242765 79.7,-0.9369065729286101 79.8,-0.6266661678215274 79.9,-0.31395259764655714 80.0,-9.797174393178826e-15 80.1,0.3139525976465376 80.2,0.626666167821508 80.3,0.9369065729285908 80.4,1.2434494358242574 80.5,1.5450849718747361 80.6,1.8406227634233376 80.7,2.128896457825359 80.8,2.408768370508555 80.9,2.679133974895006 81.0,2.9389262614623437 81.1,3.187119948743412 81.2,3.4227355296434725 81.3,3.644843137107023 81.4,3.852566213878969 81.5,4.045084971874705 81.6,4.221639627510055 81.7,4.381533400219324 81.8,4.524135262330095 81.9,4.648882429441247 82.0,4.755282581475754 82.1,4.842915805643139 82.2,4.911436253643441 82.3,4.9605735065723895 82.4,4.990133642141361 82.5,5.0 82.6,4.990133642141359 82.7,4.9605735065723895 82.8,4.911436253643448 82.9,4.842915805643148 83.0,4.755282581475754 83.1,4.648882429441274 83.2,4.5241352623300966 83.3,4.381533400219342 83.4,4.221639627510056 83.5,4.0450849718747275 83.6,3.852566213878948 83.7,3.644843137107073 83.8,3.4227355296434743 83.9,3.1871199487434145 84.0,2.938926261462374 84.1,2.6791339748949783 84.2,2.4087683705086196 84.3,2.1288964578253937 84.4,1.840622763423373 84.5,1.5450849718747386 84.6,1.2434494358242942 84.7,0.936906572928663 84.8,0.6266661678215808 84.9,0.31395259764657546 85.0,-7.354070601250003e-15 85.1,-0.3139525976465193 85.2,-0.6266661678215603 85.3,-0.9369065729286076 85.4,-1.243449435824274 85.5,-1.5450849718747186 85.6,-1.8406227634233536 85.7,-2.128896457825407 85.8,-2.4087683705085703 85.9,-2.6791339748949907 86.0,-2.9389262614623286 86.1,-3.187119948743425 86.2,-3.422735529643459 86.3,-3.644843137107059 86.4,-3.8525662138789354 86.5,-4.045084971874715 86.6,-4.2216396275100445 86.7,-4.381533400219316 86.8,-4.524135262330102 86.9,-4.64888242944124 87.0,-4.755282581475759 87.1,-4.842915805643153 87.2,-4.911436253643444 87.3,-4.960573506572387 87.4,-4.99013364214136 87.5,-5.0 87.6,-4.99013364214136 87.7,-4.960573506572388 87.8,-4.911436253643451 87.9,-4.842915805643145 88.0,-4.755282581475771 88.1,-4.648882429441269 88.2,-4.524135262330104 88.3,-4.381533400219334 88.4,-4.221639627510047 88.5,-4.045084971874738 88.6,-3.8525662138789825 88.7,-3.6448431371070855 88.8,-3.4227355296434614 88.9,-3.1871199487434283 89.0,-2.93892626146236 89.1,-2.679133974894994 89.2,-2.4087683705086045 89.3,-2.12889645782541 89.4,-1.84062276342339 89.5,-1.5450849718747222 89.6,-1.2434494358243122 89.7,-0.9369065729286462 89.8,-0.6266661678215286 89.9,-0.31395259764655836 90.0,-1.1021821192326179e-14 90.1,0.3139525976465363 90.2,0.6266661678214714 90.3,0.9369065729285896 90.4,1.2434494358242907 90.5,1.5450849718747013 90.6,1.8406227634233696 90.7,2.12889645782539 90.8,2.4087683705085543 90.9,2.6791339748949747 91.0,2.9389262614623424 91.1,3.187119948743411 91.2,3.422735529643446 91.3,3.6448431371070704 91.4,3.852566213878923 91.5,4.045084971874725 91.6,4.221639627510073 91.7,4.381533400219324 91.8,4.524135262330095 91.9,4.6488824294412465 92.0,4.755282581475753 92.1,4.842915805643148 92.2,4.911436253643448 92.3,4.960573506572385 92.4,4.990133642141357 92.5,5.0 92.6,4.99013364214136 92.7,4.9605735065723895 92.8,4.911436253643448 92.9,4.84291580564314 93.0,4.755282581475777 93.1,4.648882429441275 93.2,4.524135262330112 93.3,4.381533400219326 93.4,4.221639627510056 93.5,4.045084971874728 93.6,3.852566213878972 93.7,3.644843137107074 93.8,3.422735529643475 93.9,3.1871199487434425 94.0,2.9389262614623464 94.1,2.6791339748950094 94.2,2.40876837050859 94.3,2.1288964578253626 94.4,1.840622763423374 94.5,1.5450849718747397 94.6,1.2434494358242956 94.7,0.9369065729286642 94.8,0.6266661678215468 94.9,0.31395259764654126 95.0,2.9397712985902356e-14 95.1,-0.3139525976465535 95.2,-0.6266661678215237 95.3,-0.9369065729286065 95.4,-1.243449435824273 95.5,-1.5450849718747175 95.6,-1.8406227634233523 95.7,-2.1288964578253737 95.8,-2.408768370508538 95.9,-2.6791339748949596 96.0,-2.938926261462356 96.1,-3.187119948743452 96.2,-3.4227355296434583 96.3,-3.644843137107034 96.4,-3.852566213878934 96.5,-4.045084971874714 96.6,-4.221639627510063 96.7,-4.381533400219332 96.8,-4.524135262330087 96.9,-4.648882429441254 97.0,-4.75528258147577 97.1,-4.842915805643152 97.2,-4.911436253643443 97.3,-4.960573506572387 97.4,-4.990133642141355 97.5,-5.0 97.6,-4.990133642141361 97.7,-4.960573506572392 97.8,-4.911436253643445 97.9,-4.842915805643154 98.0,-4.755282581475772 98.1,-4.648882429441269 98.2,-4.5241352623301045 98.3,-4.381533400219334 98.4,-4.221639627510067 98.5,-4.04508497187476 98.6,-3.8525662138789833 98.7,-3.6448431371070624 98.8,-3.4227355296434365 98.9,-3.187119948743429 99.0,-2.9389262614623615 99.1,-2.679133974895025 99.2,-2.408768370508606 99.3,-2.128896457825379 99.4,-1.8406227634233583 99.5,-1.5450849718747572 99.6,-1.243449435824279 99.7,-0.9369065729286125 99.8,-0.62666616782153 99.9,-0.3139525976465596 100.0,-1.2246467991473532e-14 100.1,0.31395259764653516 100.2,0.6266661678215055 100.3,0.9369065729285885 100.4,1.2434494358242552 100.5,1.545084971874734 100.6,1.8406227634234016 100.7,2.128896457825357 100.8,2.408768370508553 100.9,2.6791339748949743 101.0,2.938926261462341 101.1,3.1871199487434376 101.2,3.4227355296434703 101.3,3.644843137107021 101.4,3.852566213878945 101.5,4.045084971874745 101.6,4.221639627510073 101.7,4.381533400219323 101.8,4.524135262330094 101.9,4.648882429441233 102.0,4.755282581475775 102.1,4.842915805643147 102.2,4.911436253643441 102.3,4.9605735065723895 102.4,4.990133642141359 102.5,5.0 102.6,4.99013364214136 102.7,4.9605735065723895 102.8,4.911436253643455 102.9,4.842915805643149 103.0,4.755282581475777 103.1,4.6488824294412625 103.2,4.5241352623300966 103.3,4.381533400219309 103.4,4.221639627510058 103.5,4.04508497187475 103.6,3.852566213878995 103.7,3.644843137107099 103.8,3.422735529643424 103.9,3.187119948743416 104.0,2.9389262614623757 104.1,2.6791339748950405 104.2,2.408768370508559 104.3,2.128896457825396 104.4,1.840622763423342 104.5,1.5450849718747408 104.6,1.243449435824331 104.7,0.9369065729285957 104.8,0.626666167821548 104.9,0.3139525976465779 105.0,-4.904777002955297e-15 105.1,-0.31395259764658767 105.2,-0.6266661678214873 105.3,-0.9369065729286052 105.4,-1.2434494358242718 105.5,-1.5450849718746826 105.6,-1.8406227634234174 105.7,-2.1288964578253404 105.8,-2.408768370508568 105.9,-2.679133974894989 106.0,-2.938926261462384 106.1,-3.187119948743424 106.2,-3.4227355296434316 106.3,-3.6448431371070082 106.4,-3.8525662138789105 106.5,-4.045084971874756 106.6,-4.221639627510062 106.7,-4.381533400219314 106.8,-4.524135262330071 106.9,-4.648882429441266 107.0,-4.755282581475758 107.1,-4.842915805643152 107.2,-4.911436253643443 107.3,-4.960573506572382 107.4,-4.99013364214136 107.5,-5.0 107.6,-4.990133642141358 107.7,-4.960573506572388 107.8,-4.911436253643439 107.9,-4.8429158056431625 108.0,-4.755282581475772 108.1,-4.648882429441282 108.2,-4.52413526233012 108.3,-4.381533400219301 108.4,-4.221639627510086 108.5,-4.04508497187474 108.6,-3.8525662138789842 108.7,-3.644843137107039 108.8,-3.4227355296434636 108.9,-3.1871199487434025 109.0,-2.9389262614624196 109.1,-2.6791339748950262 109.2,-2.4087683705085445 109.3,-2.1288964578253804 109.4,-1.8406227634233923 109.5,-1.5450849718747244 109.6,-1.2434494358243144 109.7,-0.9369065729286485 109.8,-0.6266661678215311 109.9,-0.3139525976465608 110.0,-4.899825157862589e-14 110.1,0.3139525976466048 110.2,0.6266661678215044 110.3,0.936906572928622 110.4,1.2434494358242885 110.5,1.5450849718747663 110.6,1.8406227634233674 110.7,2.128896457825356 110.8,2.408768370508521 110.9,2.679133974894943 111.0,2.938926261462398 111.1,3.1871199487434367 111.2,3.4227355296434436 111.3,3.6448431371070207 111.4,3.852566213878967 111.5,4.045084971874724 111.6,4.221639627510072 111.7,4.381533400219323 111.8,4.524135262330079 111.9,4.648882429441272 112.0,4.755282581475764 112.1,4.842915805643156 112.2,4.911436253643447 112.3,4.960573506572384 112.4,4.990133642141357 112.5,5.0 112.6,4.990133642141362 112.7,4.960573506572395 112.8,4.911436253643435 112.9,4.842915805643159 113.0,4.755282581475766 113.1,4.648882429441276 113.2,4.524135262330082 113.3,4.381533400219327 113.4,4.221639627510077 113.5,4.045084971874772 113.6,3.8525662138789727 113.7,3.6448431371070273 113.8,3.4227355296434507 113.9,3.1871199487434443 114.0,2.938926261462406 114.1,2.6791339748950116 114.2,2.4087683705085916 114.3,2.128896457825365 114.4,1.8406227634233763 114.5,1.545084971874776 114.6,1.2434494358243666 114.7,0.9369065729286318 114.8,0.6266661678215141 114.9,0.3139525976465437 115.0,-3.920726699181296e-14 115.1,-0.31395259764648015 115.2,-0.6266661678215213 115.3,-0.9369065729285692 115.4,-1.2434494358242363 115.5,-1.5450849718747828 115.6,-1.8406227634233832 115.7,-2.1288964578253715 115.8,-2.4087683705085357 115.9,-2.679133974895018 116.0,-2.938926261462354 116.1,-3.18711994874345 116.2,-3.422735529643404 116.3,-3.6448431371070322 116.4,-3.852566213878978 116.5,-4.045084971874734 116.6,-4.221639627510081 116.7,-4.381533400219296 116.8,-4.524135262330086 116.9,-4.648882429441253 117.0,-4.755282581475769 117.1,-4.842915805643143 117.2,-4.911436253643437 117.3,-4.960573506572378 117.4,-4.990133642141358 117.5,-5.0 117.6,-4.990133642141361 117.7,-4.960573506572384 117.8,-4.911436253643445 117.9,-4.8429158056431545 118.0,-4.755282581475783 118.1,-4.64888242944127 118.2,-4.524135262330075 118.3,-4.381533400219319 118.4,-4.2216396275100685 118.5,-4.045084971874761 118.6,-3.8525662138789625 118.7,-3.6448431371070638 118.8,-3.4227355296434387 118.9,-3.187119948743486 119.0,-2.9389262614623917 119.1,-2.6791339748950573 119.2,-2.4087683705085765 119.3,-2.1288964578253493 119.4,-1.8406227634233605 119.5,-1.5450849718747595 119.6,-1.24344943582435 119.7,-0.9369065729286148 119.8,-0.6266661678215675 119.9,-0.31395259764659744 120.0,-8.575003516577825e-14 120.1,0.3139525976465682 120.2,0.6266661678215384 120.3,0.9369065729285859 120.4,1.2434494358243215 120.5,1.5450849718747315 120.6,1.840622763423333 120.7,2.1288964578253227 120.8,2.408768370508551 120.9,2.679133974895032 121.0,2.9389262614623677 121.1,3.1871199487434634 121.2,3.422735529643417 121.3,3.6448431371070438 121.4,3.8525662138789434 121.5,4.0450849718747435 121.6,4.2216396275100525 121.7,4.381533400219305 121.8,4.524135262330063 121.9,4.648882429441259 122.0,4.755282581475774 122.1,4.842915805643147 122.2,4.91143625364344 122.3,4.96057350657238 122.4,4.990133642141359 122.5,5.0 122.6,4.99013364214136 122.7,4.9605735065723815 122.8,4.911436253643442 122.9,4.84291580564315 123.0,4.755282581475778 123.1,4.648882429441263 123.2,4.524135262330098 123.3,4.381533400219311 123.4,4.221639627510097 123.5,4.0450849718747515 123.6,3.8525662138789967 123.7,3.644843137107052 123.8,3.422735529643426 123.9,3.1871199487434727 124.0,2.938926261462378 124.1,2.6791339748950427 124.2,2.408768370508562 124.3,2.128896457825398 124.4,1.8406227634234107 124.5,1.5450849718748108 124.6,1.2434494358242647 124.7,0.936906572928598 124.8,0.6266661678215504 124.9,0.3139525976465095 125.0,6.859879017134943e-14 125.1,-0.31395259764651434 125.2,-0.6266661678214849 125.3,-0.9369065729286029 125.4,-1.2434494358243382 125.5,-1.545084971874748 125.6,-1.8406227634233492 125.7,-2.128896457825338 125.8,-2.4087683705085663 125.9,-2.6791339748949867 126.0,-2.938926261462382 126.1,-3.1871199487434216 126.2,-3.422735529643429 126.3,-3.6448431371070065 126.4,-3.8525662138789545 126.5,-4.045084971874754 126.6,-4.221639627510061 126.7,-4.381533400219313 126.8,-4.52413526233007 126.9,-4.648882429441265 127.0,-4.7552825814757576 127.1,-4.842915805643152 127.2,-4.91143625364343 127.3,-4.960573506572391 127.4,-4.990133642141355 127.5,-5.0 127.6,-4.990133642141358 127.7,-4.960573506572389 127.8,-4.911436253643452 127.9,-4.842915805643146 128.0,-4.755282581475773 128.1,-4.648882429441256 128.2,-4.52413526233009 128.3,-4.381533400219337 128.4,-4.22163962751005 128.5,-4.045084971874741 128.6,-3.8525662138789403 128.7,-3.6448431371070895 128.8,-3.422735529643414 128.9,-3.1871199487434594 129.0,-2.938926261462364 129.1,-2.6791339748949676 129.2,-2.408768370508609 129.3,-2.1288964578253182 129.4,-1.8406227634233945 129.5,-1.545084971874727 129.6,-1.2434494358243169 129.7,-0.936906572928651 129.8,-0.6266661678215335 129.9,-0.31395259764656325 130.0,1.9606728399089415e-14 130.1,0.3139525976465315 130.2,0.6266661678214314 130.3,0.9369065729286197 130.4,1.243449435824286 130.5,1.5450849718746964 130.6,1.840622763423365 130.7,2.1288964578252894 130.8,2.408768370508581 130.9,2.679133974895001 131.0,2.9389262614623384 131.1,3.18711994874338 131.2,3.4227355296433903 131.3,3.6448431371070673 131.4,3.8525662138789203 131.5,4.045084971874764 131.6,4.22163962751007 131.7,4.381533400219287 131.8,4.524135262330107 131.9,4.648882429441245 132.0,4.755282581475785 132.1,4.842915805643155 132.2,4.911436253643446 132.3,4.960573506572384 132.4,4.990133642141361 132.5,5.0 132.6,4.990133642141357 132.7,4.960573506572386 132.8,4.9114362536434495 132.9,4.842915805643141 133.0,4.755282581475767 133.1,4.648882429441251 133.2,4.524135262330113 133.3,4.381533400219294 133.4,4.221639627510078 133.5,4.045084971874731 133.6,3.8525662138789296 133.7,3.644843137107077 133.8,3.422735529643401 133.9,3.187119948743446 134.0,2.93892626146235 134.1,2.6791339748950134 134.2,2.408768370508594 134.3,2.128896457825367 134.4,1.8406227634233787 134.5,1.5450849718747106 134.6,1.2434494358243002 134.7,0.9369065729287039 134.8,0.6266661678215164 134.9,0.31395259764654615 135.0,3.4296300182491775e-14 135.1,-0.3139525976465486 135.2,-0.6266661678214485 135.3,-0.9369065729286365 135.4,-1.2434494358243025 135.5,-1.5450849718747128 135.6,-1.840622763423315 135.7,-2.128896457825305 135.8,-2.408768370508596 135.9,-2.6791339748949556 136.0,-2.9389262614624094 136.1,-3.187119948743393 136.2,-3.4227355296434023 136.3,-3.644843137107079 136.4,-3.852566213878931 136.5,-4.045084971874775 136.6,-4.221639627510042 136.7,-4.381533400219295 136.8,-4.524135262330084 136.9,-4.648882429441278 137.0,-4.755282581475768 137.1,-4.84291580564316 137.2,-4.911436253643423 137.3,-4.960573506572387 137.4,-4.990133642141362 137.5,-5.0 137.6,-4.990133642141356 137.7,-4.960573506572393 137.8,-4.911436253643433 137.9,-4.8429158056431545 138.0,-4.755282581475762 138.1,-4.648882429441245 138.2,-4.524135262330106 138.3,-4.381533400219285 138.4,-4.221639627510069 138.5,-4.045084971874721 138.6,-3.852566213878964 138.7,-3.6448431371070655 138.8,-3.4227355296434405 138.9,-3.187119948743433 139.0,-2.938926261462336 139.1,-2.6791339748949987 139.2,-2.408768370508641 139.3,-2.1288964578253515 139.4,-1.8406227634233627 139.5,-1.5450849718747617 139.6,-1.2434494358242836 139.7,-0.9369065729286872 139.8,-0.6266661678214995 139.9,-0.31395259764652905 140.0,-1.7145055188062946e-14 140.1,0.31395259764649475 140.2,0.6266661678214653 140.3,0.9369065729286534 140.4,1.2434494358242505 140.5,1.5450849718747293 140.6,1.8406227634233308 140.7,2.1288964578253204 140.8,2.408768370508611 140.9,2.67913397489497 141.0,2.9389262614623086 141.1,3.1871199487434065 141.2,3.422735529643415 141.3,3.644843137107042 141.4,3.8525662138789873 141.5,4.045084971874743 141.6,4.221639627510051 141.7,4.381533400219269 141.8,4.524135262330092 141.9,4.648882429441284 142.0,4.7552825814757735 142.1,4.842915805643164 142.2,4.911436253643426 142.3,4.9605735065723975 142.4,4.990133642141358 142.5,5.0 142.6,4.990133642141355 142.7,4.96057350657239 142.8,4.911436253643429 142.9,4.842915805643151 143.0,4.755282581475757 143.1,4.648882429441264 143.2,4.524135262330099 143.3,4.381533400219312 143.4,4.22163962751006 143.5,4.0450849718747115 143.6,3.852566213878953 143.7,3.6448431371071024 143.8,3.4227355296434276 143.9,3.18711994874342 144.0,2.93892626146238 144.1,2.6791339748949845 144.2,2.408768370508626 144.3,2.128896457825336 144.4,1.840622763423347 144.5,1.5450849718747457 144.6,1.2434494358243358 144.7,0.9369065729286702 144.8,0.6266661678214824 144.9,0.31395259764658284 145.0,-6.189806365883577e-18 145.1,-0.3139525976465119 145.2,-0.6266661678214824 145.3,-0.9369065729286702 145.4,-1.243449435824267 145.5,-1.5450849718746777 145.6,-1.840622763423347 145.7,-2.128896457825336 145.8,-2.4087683705085636 145.9,-2.6791339748949845 146.0,-2.9389262614623224 146.1,-3.18711994874342 146.2,-3.4227355296433757 146.3,-3.644843137107054 146.4,-3.8525662138789984 146.5,-4.0450849718747115 146.6,-4.22163962751006 146.7,-4.381533400219277 146.8,-4.524135262330129 146.9,-4.648882429441264 147.0,-4.755282581475779 147.1,-4.842915805643133 147.2,-4.911436253643429 147.3,-4.960573506572399 147.4,-4.99013364214136 147.5,-5.0 147.6,-4.990133642141358 147.7,-4.960573506572406 147.8,-4.91143625364344 147.9,-4.8429158056431465 148.0,-4.755282581475751 148.1,-4.648882429441258 148.2,-4.524135262330122 148.3,-4.381533400219303 148.4,-4.221639627510051 148.5,-4.045084971874743 148.6,-3.8525662138789416 148.7,-3.6448431371070904 148.8,-3.422735529643415 148.9,-3.1871199487434065 149.0,-2.9389262614623664 149.1,-2.67913397489503 149.2,-2.408768370508611 149.3,-2.1288964578253204 149.4,-1.8406227634233967 149.5,-1.5450849718747293 149.6,-1.2434494358243193 149.7,-0.9369065729286534 149.8,-0.6266661678214653 149.9,-0.3139525976465657 150.0,-5.3896838775215307e-14 150.1,0.31395259764652905 150.2,0.6266661678214995 150.3,0.9369065729286173 150.4,1.2434494358242838 150.5,1.5450849718746942 150.6,1.8406227634233627 150.7,2.128896457825287 150.8,2.4087683705085787 150.9,2.6791339748949388 151.0,2.938926261462336 151.1,3.187119948743433 151.2,3.4227355296433886 151.3,3.6448431371071144 151.4,3.852566213878964 151.5,4.045084971874721 151.6,4.221639627510031 151.7,4.381533400219285 151.8,4.5241352623301365 151.9,4.6488824294412705 152.0,4.755282581475762 152.1,4.842915805643137 152.2,4.911436253643419 152.3,4.960573506572393 152.4,4.990133642141361 152.5,5.0 152.6,4.990133642141362 152.7,4.960573506572405 152.8,4.911436253643436 152.9,4.842915805643142 153.0,4.755282581475768 153.1,4.648882429441252 153.2,4.524135262330145 153.3,4.381533400219295 153.4,4.221639627510042 153.5,4.045084971874733 153.6,3.8525662138789762 153.7,3.644843137107079 153.8,3.4227355296434023 153.9,3.1871199487434483 154.0,2.9389262614623526 154.1,2.6791339748950156 154.2,2.408768370508596 154.3,2.128896457825305 154.4,1.840622763423381 154.5,1.5450849718747806 154.6,1.2434494358243025 154.7,0.9369065729286364 154.8,0.626666167821519 154.9,0.31395259764654854 155.0,3.674559378078648e-14 155.1,-0.31395259764654615 155.2,-0.6266661678214459 155.3,-0.9369065729286341 155.4,-1.2434494358242314 155.5,-1.5450849718747106 155.6,-1.8406227634233787 155.7,-2.1288964578253027 155.8,-2.408768370508594 155.9,-2.6791339748949534 156.0,-2.93892626146235 156.1,-3.1871199487433914 156.2,-3.422735529643401 156.3,-3.644843137107126 156.4,-3.8525662138789296 156.5,-4.045084971874731 156.6,-4.22163962751004 156.7,-4.38153340021926 156.8,-4.524135262330113 156.9,-4.648882429441277 157.0,-4.755282581475745 157.1,-4.842915805643141 157.2,-4.911436253643423 157.3,-4.960573506572395 157.4,-4.990133642141362 157.5,-5.0 157.6,-4.990133642141365 157.7,-4.960573506572402 157.8,-4.9114362536434335 157.9,-4.842915805643138 158.0,-4.755282581475763 158.1,-4.648882429441271 158.2,-4.524135262330137 158.3,-4.381533400219287 158.4,-4.22163962751007 158.5,-4.045084971874722 158.6,-3.852566213878965 158.7,-3.6448431371070673 158.8,-3.4227355296433903 158.9,-3.187119948743435 159.0,-2.9389262614623957 159.1,-2.679133974895001 159.2,-2.408768370508581 159.3,-2.1288964578253537 159.4,-1.840622763423365 159.5,-1.5450849718747641 159.6,-1.243449435824286 159.7,-0.9369065729286895 159.8,-0.6266661678215019 159.9,-0.3139525976466024 160.0,-1.9594348786357652e-14 160.1,0.31395259764656325 160.2,0.626666167821463 160.3,0.936906572928651 160.4,1.243449435824248 160.5,1.545084971874727 160.6,1.8406227634233285 160.7,2.1288964578253182 160.8,2.4087683705085468 160.9,2.6791339748949676 161.0,2.938926261462364 161.1,3.1871199487434048 161.2,3.4227355296433615 161.3,3.6448431371070407 161.4,3.8525662138789403 161.5,4.045084971874699 161.6,4.22163962751005 161.7,4.381533400219268 161.8,4.524135262330121 161.9,4.648882429441256 162.0,4.755282581475751 162.1,4.842915805643128 162.2,4.9114362536434255 162.3,4.9605735065723975 162.4,4.9901336421413625 162.5,5.0 162.6,4.990133642141364 162.7,4.9605735065724 162.8,4.91143625364343 162.9,4.842915805643152 163.0,4.755282581475802 163.1,4.648882429441291 163.2,4.52413526233013 163.3,4.381533400219278 163.4,4.221639627510061 163.5,4.045084971874754 163.6,3.8525662138789545 163.7,3.6448431371070553 163.8,3.4227355296434814 163.9,3.187119948743531 164.0,2.9389262614624396 164.1,2.6791339748950467 164.2,2.4087683705086906 164.3,2.128896457825338 164.4,1.8406227634234151 164.5,1.545084971874748 164.6,1.2434494358242694 164.7,0.9369065729286727 164.8,0.6266661678214143 164.9,0.31395259764651434 165.0,7.349737736793884e-14 165.1,-0.31395259764643857 165.2,-0.6266661678214801 165.3,-0.936906572928598 165.4,-1.2434494358242647 165.5,-1.545084971874743 165.6,-1.8406227634233447 165.7,-2.1288964578252694 165.8,-2.408768370508624 165.9,-2.6791339748950427 166.0,-2.9389262614624356 166.1,-3.1871199487434727 166.2,-3.4227355296433744 166.3,-3.644843137107052 166.4,-3.8525662138789514 166.5,-4.04508497187471 166.6,-4.2216396275100205 166.7,-4.3815334002192765 166.8,-4.5241352623301285 166.9,-4.648882429441289 167.0,-4.755282581475778 167.1,-4.84291580564315 167.2,-4.911436253643442 167.3,-4.96057350657239 167.4,-4.990133642141355 167.5,-5.0 167.6,-4.990133642141363 167.7,-4.9605735065723975 167.8,-4.911436253643426 167.9,-4.842915805643147 168.0,-4.755282581475774 168.1,-4.648882429441259 168.2,-4.524135262330093 168.3,-4.381533400219339 168.4,-4.221639627510128 168.5,-4.045084971874785 168.6,-3.852566213878989 168.7,-3.644843137107141 168.8,-3.422735529643417 168.9,-3.1871199487434634 169.0,-2.9389262614623677 169.1,-2.679133974894972 169.2,-2.4087683705086134 169.3,-2.128896457825451 169.4,-1.840622763423465 169.5,-1.5450849718747992 169.6,-1.2434494358243904 169.7,-0.9369065729286558 169.8,-0.6266661678215384 169.9,-0.31395259764656813 170.0,1.4708141202500006e-14 170.1,0.3139525976465266 170.2,0.6266661678214265 170.3,0.9369065729286846 170.4,1.24344943582435 170.5,1.5450849718746242 170.6,1.8406227634233605 170.7,2.128896457825285 170.8,2.4087683705085765 170.9,2.679133974894997 171.0,2.938926261462335 171.1,3.1871199487433763 171.2,3.4227355296433863 171.3,3.6448431371071126 171.4,3.8525662138790073 171.5,4.045084971874761 171.6,4.2216396275100685 171.7,4.3815334002192845 171.8,4.524135262330105 171.9,4.648882429441244 172.0,4.75528258147574 172.1,4.842915805643137 172.2,4.911436253643432 172.3,4.960573506572402 172.4,4.990133642141361 172.5,5.0 172.6,4.990133642141358 172.7,4.960573506572387 172.8,4.91143625364345 172.9,4.8429158056431785 173.0,4.755282581475791 173.1,4.6488824294412785 173.2,4.524135262330146 173.3,4.381533400219296 173.4,4.221639627510081 173.5,4.045084971874734 173.6,3.8525662138789323 173.7,3.644843137107081 173.8,3.422735529643508 173.9,3.1871199487435047 174.0,2.9389262614624116 174.1,2.6791339748950778 174.2,2.4087683705085983 174.3,2.1288964578253715 174.4,1.8406227634233832 174.5,1.5450849718747153 174.6,1.243449435824305 174.7,0.9369065729287087 174.8,0.6266661678214508 174.9,0.313952597646622 175.0,1.102491609550912e-13 175.1,-0.3139525976465437 175.2,-0.6266661678214436 175.3,-0.9369065729286318 175.4,-1.2434494358242978 175.5,-1.5450849718747082 175.6,-1.84062276342331 175.7,-2.1288964578253005 175.8,-2.408768370508654 175.9,-2.6791339748950715 176.0,-2.938926261462348 176.1,-3.187119948743389 176.2,-3.422735529643399 176.3,-3.6448431371070757 176.4,-3.852566213878928 176.5,-4.0450849718746875 176.6,-4.221639627510039 176.7,-4.381533400219293 176.8,-4.524135262330143 176.9,-4.648882429441276 177.0,-4.755282581475766 177.1,-4.842915805643159 177.2,-4.911436253643422 177.3,-4.960573506572386 177.4,-4.990133642141353 177.5,-5.0 177.6,-4.990133642141361 177.7,-4.960573506572402 177.8,-4.9114362536434335 177.9,-4.842915805643156 178.0,-4.755282581475764 178.1,-4.6488824294412465 178.2,-4.524135262330108 178.3,-4.3815334002193564 178.4,-4.221639627510109 178.5,-4.045084971874766 178.6,-3.852566213879012 178.7,-3.6448431371070686 178.8,-3.4227355296434436 178.9,-3.1871199487434367 179.0,-2.93892626146234 179.1,-2.679133974895003 179.2,-2.4087683705086453 179.3,-2.1288964578254204 179.4,-1.8406227634234336 179.5,-1.545084971874834 179.6,-1.2434494358242885 179.7,-0.9369065729286918 179.8,-0.6266661678215044 179.9,-0.31395259764653394 180.0,-2.2043642384652358e-14 180.1,0.3139525976464899 180.2,0.6266661678214605 180.3,0.9369065729287184 180.4,1.2434494358241768 180.5,1.5450849718747244 180.6,1.8406227634233263 180.7,2.128896457825316 180.8,2.4087683705086067 180.9,2.679133974894966 181.0,2.9389262614623046 181.1,3.1871199487434025 181.2,3.422735529643411 181.3,3.644843137107136 181.4,3.8525662138789842 181.5,4.04508497187474 181.6,4.221639627510048 181.7,4.381533400219267 181.8,4.5241352623300894 181.9,4.64888242944123 182.0,4.75528258147575 182.1,4.842915805643146 182.2,4.9114362536434255 182.3,4.960573506572397 182.4,4.990133642141358 182.5,5.0 182.6,4.990133642141355 182.7,4.960573506572391 182.8,4.911436253643457 182.9,4.84291580564317 183.0,4.755282581475781 183.1,4.648882429441292 183.2,4.524135262330101 183.3,4.381533400219314 183.4,4.221639627510062 183.5,4.045084971874714 183.6,3.8525662138789563 183.7,3.644843137107106 183.8,3.422735529643483 183.9,3.187119948743478 184.0,2.9389262614624414 184.1,2.679133974894989 184.2,2.4087683705086302 184.3,2.1288964578253404 184.4,1.8406227634233514 184.5,1.5450849718747501 184.6,1.2434494358243406 184.7,0.9369065729286751 184.8,0.6266661678215578 184.9,0.3139525976466586 185.0,4.892397390223529e-15 185.1,-0.31395259764650707 185.2,-0.6266661678214775 185.3,-0.9369065729286654 185.4,-1.2434494358242623 185.5,-1.545084971874673 185.6,-1.840622763423342 185.7,-2.1288964578253315 185.8,-2.408768370508684 185.9,-2.6791339748949805 186.0,-2.9389262614623184 186.1,-3.187119948743416 186.2,-3.4227355296433726 186.3,-3.6448431371070504 186.4,-3.8525662138789047 186.5,-4.045084971874708 186.6,-4.221639627510058 186.7,-4.381533400219276 186.8,-4.524135262330128 186.9,-4.6488824294412625 187.0,-4.755282581475777 187.1,-4.842915805643131 187.2,-4.911436253643428 187.3,-4.960573506572381 187.4,-4.990133642141355 187.5,-5.0 187.6,-4.990133642141363 187.7,-4.9605735065723895 187.8,-4.911436253643441 187.9,-4.842915805643147 188.0,-4.755282581475753 188.1,-4.64888242944126 188.2,-4.524135262330124 188.3,-4.3815334002193405 188.4,-4.221639627510092 188.5,-4.045084971874787 188.6,-3.852566213878945 188.7,-3.644843137107094 188.8,-3.4227355296434188 188.9,-3.1871199487434105 189.0,-2.9389262614623703 189.1,-2.6791339748950342 189.2,-2.4087683705086156 189.3,-2.1288964578253893 189.4,-1.8406227634234675 189.5,-1.545084971874734 189.6,-1.243449435824324 189.7,-0.9369065729286583 189.8,-0.6266661678214702 189.9,-0.31395259764657063 190.0,-5.879542597180471e-14 190.1,0.3139525976465241 190.2,0.6266661678214946 190.3,0.9369065729285426 190.4,1.243449435824279 190.5,1.5450849718746895 190.6,1.8406227634233583 190.7,2.1288964578252827 190.8,2.4087683705085747 190.9,2.6791339748949348 191.0,2.938926261462332 191.1,3.187119948743429 191.2,3.4227355296433846 191.3,3.6448431371071113 191.4,3.8525662138789607 191.5,4.045084971874719 191.6,4.2216396275100285 191.7,4.381533400219284 191.8,4.524135262330074 191.9,4.648882429441242 192.0,4.75528258147576 192.1,4.842915805643136 192.2,4.911436253643445 192.3,4.960573506572392 192.4,4.990133642141361 192.5,5.0 192.6,4.9901336421413625 192.7,4.960573506572405 192.8,4.91143625364345 192.9,4.842915805643161 193.0,4.755282581475791 193.1,4.648882429441254 193.2,4.524135262330117 193.3,4.381533400219298 193.4,4.2216396275100445 193.5,4.0450849718747355 193.6,3.85256621387898 193.7,3.644843137107083 193.8,3.4227355296434583 193.9,3.1871199487435065 194.0,2.938926261462356 194.1,2.67913397489502 194.2,2.4087683705086005 194.3,2.1288964578253093 194.4,1.8406227634233854 194.5,1.545084971874785 194.6,1.2434494358243073 194.7,0.9369065729286413 194.8,0.6266661678215943 194.9,0.3139525976465535 195.0,4.164418097737589e-14 195.1,-0.31395259764654126 195.2,-0.6266661678214411 195.3,-0.9369065729286294 195.4,-1.2434494358242267 195.5,-1.545084971874706 195.6,-1.840622763423374 195.7,-2.1288964578252982 195.8,-2.40876837050859 195.9,-2.6791339748949494 196.0,-2.9389262614623464 196.1,-3.187119948743388 196.2,-3.4227355296433974 196.3,-3.6448431371070256 196.4,-3.8525662138789265 196.5,-4.045084971874728 196.6,-4.221639627510037 196.7,-4.381533400219326 196.8,-4.524135262330112 196.9,-4.648882429441275 197.0,-4.755282581475743 197.1,-4.84291580564314 197.2,-4.911436253643421 197.3,-4.960573506572386 197.4,-4.990133642141357 197.5,-5.0 197.6,-4.990133642141357 197.7,-4.960573506572394 197.8,-4.911436253643434 197.9,-4.842915805643139 198.0,-4.755282581475765 198.1,-4.648882429441273 198.2,-4.524135262330139 198.3,-4.381533400219324 198.4,-4.221639627510111 198.5,-4.045084971874725 198.6,-3.8525662138789682 198.7,-3.6448431371070704 198.8,-3.4227355296433934 198.9,-3.1871199487434385 199.0,-2.9389262614623997 199.1,-2.679133974895005 199.2,-2.4087683705085854 199.3,-2.1288964578254226 199.4,-1.8406227634233696 199.5,-1.5450849718747688 199.6,-1.2434494358242907 199.7,-0.9369065729286943 199.8,-0.6266661678215067 199.9,-0.31395259764660727 200.0,-2.4492935982947064e-14" stroke-width="1" stroke-linecap="round" stroke="#000000" fill="none"  />
<!-- Footer -->
</svg>
