<!-- Header -->
<svg
    version="1.1"
    baseProfile="full"
    xmlns="http://www.w3.org/2000/svg"
    xmlns:xlink="http://www.w3.org/1999/xlink"
    xmlns:ev="http://www.w3.org/2001/xml-events"
    width="109.98026728428273"
    height="19.960534568565457"
    viewBox="-4.990133642141364 -9.980267284282728 109.98026728428273 19.960534568565457"
    preserveAspectRatio="none"
>
<!-- Body -->
<!-- polyline -->
<polyline points="0.0,0.0 0.1,0.6266661678215213 0.2,1.243449435824274 0.3,1.8406227634233896 0.4,2.4087683705085765 0.5,2.938926261462366 0.6,3.422735529643443 0.7,3.8525662138789456 0.8,4.221639627510076 0.9,4.524135262330098 1.0,4.755282581475767 1.1,4.911436253643443 1.2,4.990133642141358 1.3,4.990133642141358 1.4,4.911436253643443 1.5,4.755282581475768 1.6,4.524135262330097 1.7,4.221639627510076 1.8,3.852566213878946 1.9,3.422735529643444 2.0,2.9389262614623664 2.1,2.408768370508576 2.2,1.8406227634233887 2.3,1.2434494358242763 2.4,0.6266661678215226 2.5,6.123233995736766e-16 2.6,-0.6266661678215214 2.7,-1.243449435824273 2.8,-1.8406227634233874 2.9,-2.408768370508575 3.0,-2.938926261462365 3.1,-3.422735529643442 3.2,-3.852566213878947 3.3,-4.2216396275100765 3.4,-4.5241352623300966 3.5,-4.755282581475767 3.6,-4.911436253643443 3.7,-4.990133642141358 3.8,-4.990133642141358 3.9,-4.911436253643443 4.0,-4.755282581475768 4.1,-4.524135262330099 4.2,-4.221639627510075 4.3,-3.852566213878945 4.4,-3.4227355296434414 4.5,-2.938926261462367 4.6,-2.4087683705085805 4.7,-1.8406227634233894 4.8,-1.2434494358242767 4.9,-0.626666167821519 5.0,-1.2246467991473533e-15 5.1,0.6266661678215164 5.2,1.2434494358242745 5.3,1.840622763423383 5.4,2.4087683705085743 5.5,2.9389262614623646 5.6,3.4227355296434396 5.7,3.852566213878946 5.8,4.221639627510074 5.9,4.524135262330098 6.0,4.755282581475767 6.1,4.911436253643442 6.2,4.990133642141358 6.3,4.990133642141358 6.4,4.911436253643443 6.5,4.755282581475768 6.6,4.5241352623300966 6.7,4.221639627510076 6.8,3.8525662138789487 6.9,3.422735529643442 7.0,2.938926261462367 7.1,2.408768370508581 7.2,1.8406227634233898 7.3,1.2434494358242774 7.4,0.6266661678215195 7.5,1.0718754395722281e-14 7.6,-0.6266661678215159 7.7,-1.2434494358242738 7.8,-1.8406227634233863 7.9,-2.408768370508578 8.0,-2.938926261462364 8.1,-3.422735529643439 8.2,-3.8525662138789403 8.3,-4.221639627510073 8.4,-4.524135262330098 8.5,-4.75528258147577 8.6,-4.911436253643444 8.7,-4.990133642141357 8.8,-4.990133642141357 8.9,-4.911436253643443 9.0,-4.755282581475769 9.1,-4.5241352623301 9.2,-4.22163962751008 9.3,-3.852566213878943 9.4,-3.4227355296434423 9.5,-2.9389262614623672 9.6,-2.4087683705085814 9.7,-1.8406227634233985 9.8,-1.2434494358242694 9.9,-0.6266661678215201 10.0,-2.4492935982947065e-15 10.1,0.6266661678215152 10.2,1.2434494358242647 10.3,1.8406227634234025 10.4,2.408768370508577 10.5,2.9389262614623632 10.6,3.4227355296434325 10.7,3.8525662138789403 10.8,4.221639627510073 10.9,4.524135262330098 11.0,4.755282581475767 11.1,4.911436253643442 11.2,4.990133642141357 11.3,4.990133642141358 11.4,4.911436253643443 11.5,4.755282581475772 11.6,4.524135262330101 11.7,4.221639627510081 11.8,3.8525662138789434 11.9,3.422735529643443 12.0,2.9389262614623677 12.1,2.4087683705085823 12.2,1.840622763423399 12.3,1.24344943582427 12.4,0.6266661678215295 12.5,3.061616997868383e-15 12.6,-0.6266661678215146 12.7,-1.2434494358242727 12.8,-1.8406227634233936 12.9,-2.4087683705085765 13.0,-2.938926261462363 13.1,-3.4227355296434387 13.2,-3.8525662138789505 13.3,-4.2216396275100685 13.4,-4.524135262330098 13.5,-4.755282581475767 13.6,-4.911436253643442 13.7,-4.990133642141357 13.8,-4.990133642141358 13.9,-4.911436253643443 14.0,-4.755282581475769 14.1,-4.524135262330093 14.2,-4.221639627510081 14.3,-3.8525662138789443 14.4,-3.4227355296434436 14.5,-2.9389262614623686 14.6,-2.4087683705085827 14.7,-1.8406227634233998 14.8,-1.2434494358242705 14.9,-0.6266661678215213 15.0,-2.1437508791444562e-14 15.1,0.6266661678215141 15.2,1.2434494358242634 15.3,1.840622763423393 15.4,2.408768370508576 15.5,2.9389262614623624 15.6,3.422735529643438 15.7,3.852566213878939 15.8,4.221639627510077 15.9,4.52413526233009 16.0,4.755282581475766 16.1,4.911436253643445 16.2,4.990133642141357 16.3,4.990133642141358 16.4,4.911436253643447 16.5,4.755282581475764 16.6,4.524135262330101 16.7,4.221639627510072 16.8,3.8525662138789443 16.9,3.422735529643457 17.0,2.9389262614623544 17.1,2.408768370508583 17.2,1.8406227634233838 17.3,1.2434494358242711 17.4,0.6266661678215396 17.5,4.2862637970157365e-15 17.6,-0.6266661678215311 17.7,-1.243449435824263 17.8,-1.8406227634233923 17.9,-2.4087683705085756 18.0,-2.9389262614623624 18.1,-3.4227355296434503 18.2,-3.8525662138789385 18.3,-4.221639627510086 18.4,-4.5241352623300894 18.5,-4.755282581475772 18.6,-4.911436253643445 18.7,-4.990133642141357 18.8,-4.990133642141358 18.9,-4.911436253643447 19.0,-4.755282581475769 19.1,-4.524135262330093 19.2,-4.221639627510082 19.3,-3.8525662138789447 19.4,-3.422735529643457 19.5,-2.9389262614623695 19.6,-2.408768370508568 19.7,-1.8406227634234174 19.8,-1.2434494358242718 19.9,-0.6266661678215225 20.0,-4.898587196589413e-15 20.1,0.6266661678215129 20.2,1.2434494358242623 20.3,1.8406227634234082 20.4,2.408768370508559 20.5,2.9389262614623473 20.6,3.422735529643463 20.7,3.8525662138789385 20.8,4.2216396275100765 20.9,4.5241352623300966 21.0,4.755282581475766 21.1,4.911436253643445 21.2,4.990133642141356 21.3,4.990133642141357 21.4,4.911436253643447 21.5,4.755282581475775 21.6,4.524135262330101 21.7,4.221639627510073 21.8,3.852566213878945 21.9,3.4227355296434574 22.0,2.9389262614623703 22.1,2.408768370508553 22.2,1.8406227634234016 22.3,1.2434494358242896 22.4,0.6266661678215407 22.5,5.5109105961630896e-15 22.6,-0.62666616782153 22.7,-1.2434494358242616 22.8,-1.8406227634233914 22.9,-2.4087683705085747 23.0,-2.938926261462347 23.1,-3.4227355296434365 23.2,-3.852566213878938 23.3,-4.221639627510067 23.4,-4.5241352623300894 23.5,-4.755282581475772 23.6,-4.911436253643445 23.7,-4.990133642141357 23.8,-4.990133642141358 23.9,-4.911436253643447 24.0,-4.75528258147577 24.1,-4.524135262330102 24.2,-4.221639627510083 24.3,-3.8525662138789456 24.4,-3.4227355296434583 24.5,-2.938926261462371 24.6,-2.408768370508569 24.7,-1.8406227634233854 24.8,-1.2434494358242902 24.9,-0.6266661678215237 25.0,-6.123233995736766e-15 25.1,0.6266661678215115 25.2,1.2434494358242612 25.3,1.8406227634234071 25.4,2.4087683705085743 25.5,2.9389262614623752 25.6,3.4227355296434494 25.7,3.8525662138789265 25.8,4.221639627510076 25.9,4.5241352623300815 26.0,4.755282581475766 26.1,4.911436253643448 26.2,4.990133642141357 26.3,4.990133642141359 26.4,4.911436253643441 26.5,4.755282581475765 26.6,4.52413526233011 26.7,4.221639627510092 26.8,3.8525662138789456 26.9,3.422735529643446 27.0,2.9389262614623712 27.1,2.4087683705085854 27.2,1.8406227634234027 27.3,1.2434494358242563 27.4,0.6266661678215419 27.5,2.4499125789312944e-14 27.6,-0.6266661678215286 27.7,-1.2434494358242434 27.8,-1.84062276342339 27.9,-2.4087683705085734 28.0,-2.93892626146236 28.1,-3.422735529643436 28.2,-3.8525662138789594 28.3,-4.2216396275100845 28.4,-4.524135262330089 28.5,-4.75528258147576 28.6,-4.911436253643445 28.7,-4.990133642141358 28.8,-4.990133642141358 28.9,-4.911436253643444 29.0,-4.75528258147577 29.1,-4.524135262330088 29.2,-4.221639627510083 29.3,-3.8525662138789576 29.4,-3.422735529643459 29.5,-2.9389262614623854 29.6,-2.4087683705085703 29.7,-1.8406227634233865 29.8,-1.243449435824274 29.9,-0.6266661678215601 30.0,-4.2875017582889124e-14 30.1,0.6266661678215456 30.2,1.24344943582426 30.3,1.840622763423373 30.4,2.4087683705085574 30.5,2.938926261462374 30.6,3.422735529643448 30.7,3.852566213878948 30.8,4.221639627510076 30.9,4.524135262330081 31.0,4.7552825814757655 31.1,4.9114362536434415 31.2,4.990133642141357 31.3,4.990133642141359 31.4,4.911436253643448 31.5,4.755282581475765 31.6,4.524135262330095 31.7,4.221639627510093 31.8,3.852566213878969 31.9,3.4227355296434463 32.0,2.9389262614623717 32.1,2.408768370508555 32.2,1.8406227634233707 32.3,1.2434494358242918 32.4,0.6266661678215433 32.5,-9.803364199544707e-15 32.6,-0.6266661678215274 32.7,-1.2434494358242765 32.8,-1.840622763423356 32.9,-2.4087683705085725 33.0,-2.938926261462388 33.1,-3.422735529643461 33.2,-3.8525662138789363 33.3,-4.221639627510065 33.4,-4.524135262330104 33.5,-4.755282581475771 33.6,-4.911436253643445 33.7,-4.990133642141358 33.8,-4.99013364214136 33.9,-4.911436253643451 34.0,-4.755282581475759 34.1,-4.524135262330103 34.2,-4.221639627510084 34.3,-3.8525662138789807 34.4,-3.4227355296434343 34.5,-2.938926261462358 34.6,-2.408768370508571 34.7,-1.8406227634233876 34.8,-1.2434494358243098 34.9,-0.6266661678215262 35.0,-8.572527594031473e-15 35.1,0.6266661678215092 35.2,1.2434494358242931 35.3,1.8406227634233718 35.4,2.4087683705085565 35.5,2.938926261462373 35.6,3.4227355296434476 35.7,3.85256621387897 35.8,4.221639627510074 35.9,4.524135262330096 36.0,4.755282581475765 36.1,4.911436253643448 36.2,4.990133642141359 36.3,4.990133642141359 36.4,4.911436253643448 36.5,4.755282581475776 36.6,4.524135262330081 36.7,4.221639627510055 36.8,3.85256621387897 36.9,3.4227355296434476 37.0,2.938926261462344 37.1,2.4087683705085565 37.2,1.8406227634233718 37.3,1.2434494358242931 37.4,0.6266661678215445 37.5,2.6948419387607653e-14 37.6,-0.6266661678215262 37.7,-1.2434494358242754 37.8,-1.8406227634233545 37.9,-2.40876837050854 38.0,-2.938926261462358 38.1,-3.4227355296434596 38.2,-3.8525662138789585 38.3,-4.221639627510045 38.4,-4.524135262330088 38.5,-4.75528258147577 38.6,-4.911436253643444 38.7,-4.990133642141358 38.8,-4.99013364214136 38.9,-4.911436253643445 39.0,-4.755282581475771 39.1,-4.524135262330104 39.2,-4.221639627510065 39.3,-3.8525662138789816 39.4,-3.4227355296434867 39.5,-2.938926261462359 39.6,-2.4087683705085725 39.7,-1.840622763423356 39.8,-1.2434494358242765 39.9,-0.6266661678215274 40.0,-9.797174393178826e-15 40.1,0.626666167821508 40.2,1.2434494358242574 40.3,1.8406227634233376 40.4,2.408768370508555 40.5,2.9389262614623437 40.6,3.4227355296434725 40.7,3.852566213878969 40.8,4.221639627510055 40.9,4.524135262330095 41.0,4.755282581475754 41.1,4.911436253643441 41.2,4.990133642141361 41.3,4.990133642141359 41.4,4.911436253643448 41.5,4.755282581475754 41.6,4.5241352623300966 41.7,4.221639627510056 41.8,3.852566213878948 41.9,3.4227355296434743 42.0,2.938926261462374 42.1,2.4087683705086196 42.2,1.840622763423373 42.3,1.2434494358242942 42.4,0.6266661678215808 42.5,-7.354070601250003e-15 42.6,-0.6266661678215603 42.7,-1.243449435824274 42.8,-1.8406227634233536 42.9,-2.4087683705085703 43.0,-2.9389262614623286 43.1,-3.422735529643459 43.2,-3.8525662138789354 43.3,-4.2216396275100445 43.4,-4.524135262330102 43.5,-4.755282581475759 43.6,-4.911436253643444 43.7,-4.99013364214136 43.8,-4.99013364214136 43.9,-4.911436253643451 44.0,-4.755282581475771 44.1,-4.524135262330104 44.2,-4.221639627510047 44.3,-3.8525662138789825 44.4,-3.4227355296434614 44.5,-2.93892626146236 44.6,-2.4087683705086045 44.7,-1.84062276342339 44.8,-1.2434494358243122 44.9,-0.6266661678215286 45.0,-1.1021821192326179e-14 45.1,0.6266661678214714 45.2,1.2434494358242907 45.3,1.8406227634233696 45.4,2.4087683705085543 45.5,2.9389262614623424 45.6,3.422735529643446 45.7,3.852566213878923 45.8,4.221639627510073 45.9,4.524135262330095 46.0,4.755282581475753 46.1,4.911436253643448 46.2,4.990133642141357 46.3,4.99013364214136 46.4,4.911436253643448 46.5,4.755282581475777 46.6,4.524135262330112 46.7,4.221639627510056 46.8,3.852566213878972 46.9,3.422735529643475 47.0,2.9389262614623464 47.1,2.40876837050859 47.2,1.840622763423374 47.3,1.2434494358242956 47.4,0.6266661678215468 47.5,2.9397712985902356e-14 47.6,-0.6266661678215237 47.7,-1.243449435824273 47.8,-1.8406227634233523 47.9,-2.408768370508538 48.0,-2.938926261462356 48.1,-3.4227355296434583 48.2,-3.852566213878934 48.3,-4.221639627510063 48.4,-4.524135262330087 48.5,-4.75528258147577 48.6,-4.911436253643443 48.7,-4.990133642141355 48.8,-4.990133642141361 48.9,-4.911436253643445 49.0,-4.755282581475772 49.1,-4.5241352623301045 49.2,-4.221639627510067 49.3,-3.8525662138789833 49.4,-3.4227355296434365 49.5,-2.9389262614623615 49.6,-2.408768370508606 49.7,-1.8406227634233583 49.8,-1.243449435824279 49.9,-0.62666616782153 50.0,-1.2246467991473532e-14 50.1,0.6266661678215055 50.2,1.2434494358242552 50.3,1.8406227634234016 50.4,2.408768370508553 50.5,2.938926261462341 50.6,3.4227355296434703 50.7,3.852566213878945 50.8,4.221639627510073 50.9,4.524135262330094 51.0,4.755282581475775 51.1,4.911436253643441 51.2,4.990133642141359 51.3,4.99013364214136 51.4,4.911436253643455 51.5,4.755282581475777 51.6,4.5241352623300966 51.7,4.221639627510058 51.8,3.852566213878995 51.9,3.422735529643424 52.0,2.9389262614623757 52.1,2.408768370508559 52.2,1.840622763423342 52.3,1.243449435824331 52.4,0.626666167821548 52.5,-4.904777002955297e-15 52.6,-0.6266661678214873 52.7,-1.2434494358242718 52.8,-1.8406227634234174 52.9,-2.408768370508568 53.0,-2.938926261462384 53.1,-3.4227355296434316 53.2,-3.8525662138789105 53.3,-4.221639627510062 53.4,-4.524135262330071 53.5,-4.755282581475758 53.6,-4.911436253643443 53.7,-4.99013364214136 53.8,-4.990133642141358 53.9,-4.911436253643439 54.0,-4.755282581475772 54.1,-4.52413526233012 54.2,-4.221639627510086 54.3,-3.8525662138789842 54.4,-3.4227355296434636 54.5,-2.9389262614624196 54.6,-2.4087683705085445 54.7,-1.8406227634233923 54.8,-1.2434494358243144 54.9,-0.6266661678215311 55.0,-4.899825157862589e-14 55.1,0.6266661678215044 55.2,1.2434494358242885 55.3,1.8406227634233674 55.4,2.408768370508521 55.5,2.938926261462398 55.6,3.4227355296434436 55.7,3.852566213878967 55.8,4.221639627510072 55.9,4.524135262330079 56.0,4.755282581475764 56.1,4.911436253643447 56.2,4.990133642141357 56.3,4.990133642141362 56.4,4.911436253643435 56.5,4.755282581475766 56.6,4.524135262330082 56.7,4.221639627510077 56.8,3.8525662138789727 56.9,3.4227355296434507 57.0,2.938926261462406 57.1,2.4087683705085916 57.2,1.8406227634233763 57.3,1.2434494358243666 57.4,0.6266661678215141 57.5,-3.920726699181296e-14 57.6,-0.6266661678215213 57.7,-1.2434494358242363 57.8,-1.8406227634233832 57.9,-2.4087683705085357 58.0,-2.938926261462354 58.1,-3.422735529643404 58.2,-3.852566213878978 58.3,-4.221639627510081 58.4,-4.524135262330086 58.5,-4.755282581475769 58.6,-4.911436253643437 58.7,-4.990133642141358 58.8,-4.990133642141361 58.9,-4.911436253643445 59.0,-4.755282581475783 59.1,-4.524135262330075 59.2,-4.2216396275100685 59.3,-3.8525662138789625 59.4,-3.4227355296434387 59.5,-2.9389262614623917 59.6,-2.4087683705085765 59.7,-1.8406227634233605 59.8,-1.24344943582435 59.9,-0.6266661678215675 60.0,-8.575003516577825e-14 60.1,0.6266661678215384 60.2,1.2434494358243215 60.3,1.840622763423333 60.4,2.408768370508551 60.5,2.9389262614623677 60.6,3.422735529643417 60.7,3.8525662138789434 60.8,4.2216396275100525 60.9,4.524135262330063 61.0,4.755282581475774 61.1,4.91143625364344 61.2,4.990133642141359 61.3,4.99013364214136 61.4,4.911436253643442 61.5,4.755282581475778 61.6,4.524135262330098 61.7,4.221639627510097 61.8,3.8525662138789967 61.9,3.422735529643426 62.0,2.938926261462378 62.1,2.408768370508562 62.2,1.8406227634234107 62.3,1.2434494358242647 62.4,0.6266661678215504 62.5,6.859879017134943e-14 62.6,-0.6266661678214849 62.7,-1.2434494358243382 62.8,-1.8406227634233492 62.9,-2.4087683705085663 63.0,-2.938926261462382 63.1,-3.422735529643429 63.2,-3.8525662138789545 63.3,-4.221639627510061 63.4,-4.52413526233007 63.5,-4.7552825814757576 63.6,-4.91143625364343 63.7,-4.990133642141355 63.8,-4.990133642141358 63.9,-4.911436253643452 64.0,-4.755282581475773 64.1,-4.52413526233009 64.2,-4.22163962751005 64.3,-3.8525662138789403 64.4,-3.422735529643414 64.5,-2.938926261462364 64.6,-2.408768370508609 64.7,-1.8406227634233945 64.8,-1.2434494358243169 64.9,-0.6266661678215335 65.0,1.9606728399089415e-14 65.1,0.6266661678214314 65.2,1.243449435824286 65.3,1.840622763423365 65.4,2.408768370508581 65.5,2.9389262614623384 65.6,3.4227355296433903 65.7,3.8525662138789203 65.8,4.22163962751007 65.9,4.524135262330107 66.0,4.755282581475785 66.1,4.911436253643446 66.2,4.990133642141361 66.3,4.990133642141357 66.4,4.9114362536434495 66.5,4.755282581475767 66.6,4.524135262330113 66.7,4.221639627510078 66.8,3.8525662138789296 66.9,3.422735529643401 67.0,2.93892626146235 67.1,2.408768370508594 67.2,1.8406227634233787 67.3,1.2434494358243002 67.4,0.6266661678215164 67.5,3.4296300182491775e-14 67.6,-0.6266661678214485 67.7,-1.2434494358243025 67.8,-1.840622763423315 67.9,-2.408768370508596 68.0,-2.9389262614624094 68.1,-3.4227355296434023 68.2,-3.852566213878931 68.3,-4.221639627510042 68.4,-4.524135262330084 68.5,-4.755282581475768 68.6,-4.911436253643423 68.7,-4.990133642141362 68.8,-4.990133642141356 68.9,-4.911436253643433 69.0,-4.755282581475762 69.1,-4.524135262330106 69.2,-4.221639627510069 69.3,-3.852566213878964 69.4,-3.4227355296434405 69.5,-2.938926261462336 69.6,-2.408768370508641 69.7,-1.8406227634233627 69.8,-1.2434494358242836 69.9,-0.6266661678214995 70.0,-1.7145055188062946e-14 70.1,0.6266661678214653 70.2,1.2434494358242505 70.3,1.8406227634233308 70.4,2.408768370508611 70.5,2.9389262614623086 70.6,3.422735529643415 70.7,3.8525662138789873 70.8,4.221639627510051 70.9,4.524135262330092 71.0,4.7552825814757735 71.1,4.911436253643426 71.2,4.990133642141358 71.3,4.990133642141355 71.4,4.911436253643429 71.5,4.755282581475757 71.6,4.524135262330099 71.7,4.22163962751006 71.8,3.852566213878953 71.9,3.4227355296434276 72.0,2.93892626146238 72.1,2.408768370508626 72.2,1.840622763423347 72.3,1.2434494358243358 72.4,0.6266661678214824 72.5,-6.189806365883577e-18 72.6,-0.6266661678214824 72.7,-1.243449435824267 72.8,-1.840622763423347 72.9,-2.4087683705085636 73.0,-2.9389262614623224 73.1,-3.4227355296433757 73.2,-3.8525662138789984 73.3,-4.22163962751006 73.4,-4.524135262330129 73.5,-4.755282581475779 73.6,-4.911436253643429 73.7,-4.99013364214136 73.8,-4.990133642141358 73.9,-4.91143625364344 74.0,-4.755282581475751 74.1,-4.524135262330122 74.2,-4.221639627510051 74.3,-3.8525662138789416 74.4,-3.422735529643415 74.5,-2.9389262614623664 74.6,-2.408768370508611 74.7,-1.8406227634233967 74.8,-1.2434494358243193 74.9,-0.6266661678214653 75.0,-5.3896838775215307e-14 75.1,0.6266661678214995 75.2,1.2434494358242838 75.3,1.8406227634233627 75.4,2.4087683705085787 75.5,2.938926261462336 75.6,3.4227355296433886 75.7,3.852566213878964 75.8,4.221639627510031 75.9,4.5241352623301365 76.0,4.755282581475762 76.1,4.911436253643419 76.2,4.990133642141361 76.3,4.990133642141362 76.4,4.911436253643436 76.5,4.755282581475768 76.6,4.524135262330145 76.7,4.221639627510042 76.8,3.8525662138789762 76.9,3.4227355296434023 77.0,2.9389262614623526 77.1,2.408768370508596 77.2,1.840622763423381 77.3,1.2434494358243025 77.4,0.626666167821519 77.5,3.674559378078648e-14 77.6,-0.6266661678214459 77.7,-1.2434494358242314 77.8,-1.8406227634233787 77.9,-2.408768370508594 78.0,-2.93892626146235 78.1,-3.422735529643401 78.2,-3.8525662138789296 78.3,-4.22163962751004 78.4,-4.524135262330113 78.5,-4.755282581475745 78.6,-4.911436253643423 78.7,-4.990133642141362 78.8,-4.990133642141365 78.9,-4.9114362536434335 79.0,-4.755282581475763 79.1,-4.524135262330137 79.2,-4.22163962751007 79.3,-3.852566213878965 79.4,-3.4227355296433903 79.5,-2.9389262614623957 79.6,-2.408768370508581 79.7,-1.840622763423365 79.8,-1.243449435824286 79.9,-0.6266661678215019 80.0,-1.9594348786357652e-14 80.1,0.626666167821463 80.2,1.243449435824248 80.3,1.8406227634233285 80.4,2.4087683705085468 80.5,2.938926261462364 80.6,3.4227355296433615 80.7,3.8525662138789403 80.8,4.22163962751005 80.9,4.524135262330121 81.0,4.755282581475751 81.1,4.9114362536434255 81.2,4.9901336421413625 81.3,4.990133642141364 81.4,4.91143625364343 81.5,4.755282581475802 81.6,4.52413526233013 81.7,4.221639627510061 81.8,3.8525662138789545 81.9,3.4227355296434814 82.0,2.9389262614624396 82.1,2.4087683705086906 82.2,1.8406227634234151 82.3,1.2434494358242694 82.4,0.6266661678214143 82.5,7.349737736793884e-14 82.6,-0.6266661678214801 82.7,-1.2434494358242647 82.8,-1.8406227634233447 82.9,-2.408768370508624 83.0,-2.9389262614624356 83.1,-3.4227355296433744 83.2,-3.8525662138789514 83.3,-4.2216396275100205 83.4,-4.5241352623301285 83.5,-4.755282581475778 83.6,-4.911436253643442 83.7,-4.990133642141355 83.8,-4.990133642141363 83.9,-4.911436253643426 84.0,-4.755282581475774 84.1,-4.524135262330093 84.2,-4.221639627510128 84.3,-3.852566213878989 84.4,-3.422735529643417 84.5,-2.9389262614623677 84.6,-2.4087683705086134 84.7,-1.840622763423465 84.8,-1.2434494358243904 84.9,-0.6266661678215384 85.0,1.4708141202500006e-14 85.1,0.6266661678214265 85.2,1.24344943582435 85.3,1.8406227634233605 85.4,2.4087683705085765 85.5,2.938926261462335 85.6,3.4227355296433863 85.7,3.8525662138790073 85.8,4.2216396275100685 85.9,4.524135262330105 86.0,4.75528258147574 86.1,4.911436253643432 86.2,4.990133642141361 86.3,4.990133642141358 86.4,4.91143625364345 86.5,4.755282581475791 86.6,4.524135262330146 86.7,4.221639627510081 86.8,3.8525662138789323 86.9,3.422735529643508 87.0,2.9389262614624116 87.1,2.4087683705085983 87.2,1.8406227634233832 87.3,1.243449435824305 87.4,0.6266661678214508 87.5,1.102491609550912e-13 87.6,-0.6266661678214436 87.7,-1.2434494358242978 87.8,-1.84062276342331 87.9,-2.408768370508654 88.0,-2.938926261462348 88.1,-3.422735529643399 88.2,-3.852566213878928 88.3,-4.221639627510039 88.4,-4.524135262330143 88.5,-4.755282581475766 88.6,-4.911436253643422 88.7,-4.990133642141353 88.8,-4.990133642141361 88.9,-4.9114362536434335 89.0,-4.755282581475764 89.1,-4.524135262330108 89.2,-4.221639627510109 89.3,-3.852566213879012 89.4,-3.4227355296434436 89.5,-2.93892626146234 89.6,-2.4087683705086453 89.7,-1.8406227634234336 89.8,-1.2434494358242885 89.9,-0.6266661678215044 90.0,-2.2043642384652358e-14 90.1,0.6266661678214605 90.2,1.2434494358241768 90.3,1.8406227634233263 90.4,2.4087683705086067 90.5,2.9389262614623046 90.6,3.422735529643411 90.7,3.8525662138789842 90.8,4.221639627510048 90.9,4.5241352623300894 91.0,4.75528258147575 91.1,4.9114362536434255 91.2,4.990133642141358 91.3,4.990133642141355 91.4,4.911436253643457 91.5,4.755282581475781 91.6,4.524135262330101 91.7,4.221639627510062 91.8,3.8525662138789563 91.9,3.422735529643483 92.0,2.9389262614624414 92.1,2.4087683705086302 92.2,1.8406227634233514 92.3,1.2434494358243406 92.4,0.6266661678215578 92.5,4.892397390223529e-15 92.6,-0.6266661678214775 92.7,-1.2434494358242623 92.8,-1.840622763423342 92.9,-2.408768370508684 93.0,-2.9389262614623184 93.1,-3.4227355296433726 93.2,-3.8525662138789047 93.3,-4.221639627510058 93.4,-4.524135262330128 93.5,-4.755282581475777 93.6,-4.911436253643428 93.7,-4.990133642141355 93.8,-4.990133642141363 93.9,-4.911436253643441 94.0,-4.755282581475753 94.1,-4.524135262330124 94.2,-4.221639627510092 94.3,-3.852566213878945 94.4,-3.4227355296434188 94.5,-2.9389262614623703 94.6,-2.4087683705086156 94.7,-1.8406227634234675 94.8,-1.243449435824324 94.9,-0.6266661678214702 95.0,-5.879542597180471e-14 95.1,0.6266661678214946 95.2,1.243449435824279 95.3,1.8406227634233583 95.4,2.4087683705085747 95.5,2.938926261462332 95.6,3.4227355296433846 95.7,3.8525662138789607 95.8,4.2216396275100285 95.9,4.524135262330074 96.0,4.75528258147576 96.1,4.911436253643445 96.2,4.990133642141361 96.3,4.9901336421413625 96.4,4.91143625364345 96.5,4.755282581475791 96.6,4.524135262330117 96.7,4.2216396275100445 96.8,3.85256621387898 96.9,3.4227355296434583 97.0,2.938926261462356 97.1,2.4087683705086005 97.2,1.8406227634233854 97.3,1.2434494358243073 97.4,0.6266661678215943 97.5,4.164418097737589e-14 97.6,-0.6266661678214411 97.7,-1.2434494358242267 97.8,-1.840622763423374 97.9,-2.40876837050859 98.0,-2.9389262614623464 98.1,-3.4227355296433974 98.2,-3.8525662138789265 98.3,-4.221639627510037 98.4,-4.524135262330112 98.5,-4.755282581475743 98.6,-4.911436253643421 98.7,-4.990133642141357 98.8,-4.990133642141357 98.9,-4.911436253643434 99.0,-4.755282581475765 99.1,-4.524135262330139 99.2,-4.221639627510111 99.3,-3.8525662138789682 99.4,-3.4227355296433934 99.5,-2.9389262614623997 99.6,-2.4087683705085854 99.7,-1.8406227634233696 99.8,-1.2434494358242907 99.9,-0.6266661678215067 100.0,-2.4492935982947064e-14" stroke-width="1" stroke-linecap="round" stroke="#000000" fill="none"  />
<!-- Footer -->
</svg>
