<!-- Header -->
<svg
    version="1.1"
    baseProfile="full"
    xmlns="http://www.w3.org/2000/svg"
    xmlns:xlink="http://www.w3.org/1999/xlink"
    xmlns:ev="http://www.w3.org/2001/xml-events"
    width="410.0"
    height="20.0"
    viewBox="-5.0 -10.0 410.0 20.0"
    preserveAspectRatio="none"
>
<!-- Body -->
<!-- polyline -->
<polyline points="0.0,0.0 0.1,0.015707937429397818 0.2,0.03141571982779476 0.3,0.04712319216572003 0.4,0.06283019941676304 0.5,0.07853658655910338 0.6,0.09424219857704087 0.7,0.10994688046252553 0.8,0.1256504772166874 0.9,0.14135283385136627 1.0,0.15705379539064146 1.1,0.17275320687236137 1.2,0.1884509133496727 1.3,0.20414675989255 1.4,0.2198405915893245 1.5,0.23553225354821328 1.6,0.25122159089884777 1.7,0.2669084487938024 1.8,0.28259267241012265 1.9,0.2982741069508535 2.0,0.31395259764656686 2.1,0.3296279897568893 2.2,0.34530012857202896 2.3,0.3609688594143029 2.4,0.3766340276396636 2.5,0.3922954786392247 2.6,0.4079530578407877 2.7,0.4236066107103672 2.8,0.4392559827537158 2.9,0.45490101951784956 3.0,0.47054156659257157 3.1,0.4861774696119966 3.2,0.5018085742560745 3.3,0.5174347262521126 3.4,0.5330557713762996 3.5,0.5486715554552264 3.6,0.5642819243674084 3.7,0.5798867240448068 3.8,0.5954858004743486 3.9,0.6110789996994471 4.0,0.6266661678215213 4.1,0.6422471510015142 4.2,0.6578217954614125 4.3,0.673389947485763 4.4,0.6889514534231904 4.5,0.7045061596879133 4.6,0.7200539127612606 4.7,0.7355945591931868 4.8,0.7511279456037854 4.9,0.7666539186848033 5.0,0.7821723252011543 5.1,0.7976830119924314 5.2,0.8131858259744179 5.3,0.8286806141405983 5.4,0.8441672235636694 5.5,0.8596455013970477 5.6,0.8751152948763802 5.7,0.8905764513210507 5.8,0.9060288181356867 5.9,0.9214722428116666 6.0,0.936906572928623 6.1,0.9523316561559493 6.2,0.9677473402543012 6.3,0.9831534730771002 6.4,0.9985499025720351 6.5,1.0139364767825625 6.6,1.0293130438494067 6.7,1.0446794520120586 6.8,1.0600355496102734 6.9,1.0753811850855668 7.0,1.0907162069827128 7.1,1.1060404639512353 7.2,1.1213538047469058 7.3,1.136656078233232 7.4,1.151947133382953 7.5,1.1672268192795268 7.6,1.1824949851186233 7.7,1.1977514802096092 7.8,1.212996153977037 7.9,1.2282288559621317 8.0,1.243449435824274 8.1,1.2586577433424853 8.2,1.2738536284169104 8.3,1.2890369410702993 8.4,1.3042075314494848 8.5,1.3193652498268647 8.6,1.334509946601878 8.7,1.3496414723024817 8.8,1.3647596775866262 8.9,1.3798644132437288 9.0,1.3949555301961465 9.1,1.410032879500647 9.2,1.4250963123498803 9.3,1.440145680073846 9.4,1.455180834141359 9.5,1.4702016261615198 9.6,1.4852079078851745 9.7,1.500199531206381 9.8,1.51517634816387 9.9,1.530138210942504 10.0,1.545084971874737 10.1,1.560016483442074 10.2,1.5749325982765237 10.3,1.589833169162055 10.4,1.6047180490360473 10.5,1.619587090990747 10.6,1.634440148274712 10.7,1.6492770742942642 10.8,1.6640977226149332 10.9,1.6789019469629032 11.0,1.6936896012264568 11.1,1.7084605394574162 11.2,1.7232146158725854 11.3,1.7379516848551853 11.4,1.752671600956295 11.5,1.7673742188962853 11.6,1.7820593935662534 11.7,1.796726980029453 11.8,1.8113768335227285 11.9,1.8260088094579392 12.0,1.8406227634233896 12.1,1.855218551185255 12.2,1.8697960286890019 12.3,1.8843550520608134 12.4,1.8988954776090052 12.5,1.913417161825449 12.6,1.9279199613869824 12.7,1.9424037331568302 12.8,1.9568683341860122 12.9,1.9713136217147547 13.0,1.985739453173903 13.1,2.0001456861863236 13.2,2.014532178568313 13.3,2.028898788331 13.4,2.0432453736817453 13.5,2.0575717930255437 13.6,2.0718779049664207 13.7,2.086163568308826 13.8,2.1004286420590312 13.9,2.114672985426516 14.0,2.1288964578253635 14.1,2.143098918875642 14.2,2.1572802284047947 14.3,2.171440246449023 14.4,2.1855788332546644 14.5,2.1996958492795757 14.6,2.213791155194507 14.7,2.227864611884481 14.8,2.241916080450161 14.9,2.2559454222092254 15.0,2.2699524986977337 15.1,2.2839371716714973 15.2,2.297899303107439 15.3,2.311838755204959 15.4,2.325755390387292 15.5,2.339649071302867 15.6,2.3535196608266626 15.7,2.3673670220615604 15.8,2.3811910183396954 15.9,2.394991513223805 16.0,2.4087683705085765 16.1,2.42252145422199 16.2,2.436250628626661 16.3,2.449955758221183 16.4,2.4636367077414576 16.5,2.477293342162038 16.6,2.490925526697454 16.7,2.5045331268035493 16.8,2.518116008178804 16.9,2.5316740367656627 17.0,2.5452070787518566 17.1,2.5587150005717247 17.2,2.572197668907532 17.3,2.585654950690786 17.4,2.599086713103547 17.5,2.612492823579744 17.6,2.6258731498064787 17.7,2.639227559725332 17.8,2.6525559215336703 17.9,2.665858103685943 18.0,2.679133974894983 18.1,2.692383404133301 18.2,2.705606260634379 18.3,2.718802413893963 18.4,2.731971733671345 18.5,2.745114089990659 18.6,2.7582293531421516 18.7,2.77131739368347 18.8,2.7843780824409397 18.9,2.7974112905108344 19.0,2.8104168892606527 19.1,2.823394750330386 19.2,2.8363447456337827 19.3,2.8492667473596187 19.4,2.862160627972954 19.5,2.875026260216393 19.6,2.887863517111338 19.7,2.9006722719592464 19.8,2.913452398342881 19.9,2.9262037701275503 20.0,2.938926261462366 20.1,2.9516197467814727 20.2,2.9642841008052963 20.3,2.9769191985417747 20.4,2.9895249152875936 20.5,3.0021011266294195 20.6,3.014647708445124 20.7,3.0271645369050066 20.8,3.039651488473027 20.9,3.0521084399080127 21.0,3.0645352682648825 21.1,3.076931850895858 21.2,3.089298065451671 21.3,3.1016337898827806 21.4,3.1139389024405624 21.5,3.1262132816785253 21.6,3.1384568064535023 21.7,3.1506693559268455 21.8,3.1628508095656223 21.9,3.1750010471438026 22.0,3.1871199487434483 22.1,3.1992073947558923 22.2,3.2112632658829217 22.3,3.2232874431379566 22.4,3.2352798078472214 22.5,3.2472402416509185 22.6,3.259168626504394 22.7,3.271064844679305 22.8,3.2829287787647825 22.9,3.2947603116685844 23.0,3.306559326618259 23.1,3.3183257071622925 23.2,3.330059337171258 23.3,3.3417601008389655 23.4,3.3534278826835995 23.5,3.3650625675488666 23.6,3.3766640406051223 23.7,3.388232187350511 23.8,3.399766893612096 23.9,3.411268045546982 24.0,3.422735529643443 24.1,3.4341692327220406 24.2,3.4455690419367424 24.3,3.4569348447760317 24.4,3.4682665290640244 24.5,3.4795639829615714 24.6,3.4908270949673637 24.7,3.5020557539190316 24.8,3.5132498489942456 24.9,3.524409269711807 25.0,3.5355339059327373 25.1,3.5466236478613693 25.2,3.557678386046427 25.3,3.568698011382107 25.4,3.5796824151091555 25.5,3.5906314888159443 25.6,3.601545124439535 25.7,3.612423214266749 25.8,3.623265650935233 25.9,3.634072327434514 26.0,3.644843137107058 26.1,3.6555779736493204 26.2,3.6662767311128004 26.3,3.676939303905079 26.4,3.6875655867908694 26.5,3.6981554748930483 26.6,3.708708863693696 26.7,3.719225649035125 26.8,3.7297057271209106 26.9,3.740148994516912 27.0,3.7505553481522975 27.1,3.760924685320557 27.2,3.771256903680519 27.3,3.7815519012573597 27.4,3.791809576443609 27.5,3.8020298280001548 27.6,3.8122125550572394 27.7,3.822357657115458 27.8,3.8324650340467494 27.9,3.842534586095383 28.0,3.852566213878946 28.1,3.862559818389322 28.2,3.872515300993669 28.3,3.882432563435393 28.4,3.8923115078351165 28.5,3.9021520366916485 28.6,3.9119540528829404 28.7,3.9217174596670503 28.8,3.9314421606830945 28.9,3.9411280599522005 29.0,3.950775061878452 29.1,3.9603830712498356 29.2,3.9699519932391762 29.3,3.979481733405079 29.4,3.988972197692855 29.5,3.9984232924354526 29.6,4.007834924354382 29.7,4.017207000560638 29.8,4.02653942855561 29.9,4.035832116232001 30.0,4.045084971874736 30.1,4.054297904161867 30.2,4.06347082216547 30.3,4.0726036353525465 30.4,4.081696253585919 30.5,4.090748587125117 30.6,4.0997605466272615 30.7,4.108732043147951 30.8,4.117662988142137 30.9,4.1265532934649976 31.0,4.1354028713728095 31.1,4.14421163452381 31.2,4.1529794959790625 31.3,4.1617063692033165 31.4,4.170392168065856 31.5,4.179036806841351 31.6,4.1876402002107085 31.7,4.196202263261908 31.8,4.204722911490845 31.9,4.213202060802161 32.0,4.221639627510076 32.1,4.2300355283392115 32.2,4.238389680425416 32.3,4.246702001316582 32.4,4.254972408973459 32.5,4.263200821770461 32.6,4.271387158496475 32.7,4.279531338355665 32.8,4.287633280968261 32.9,4.295692906371363 33.0,4.303710135019719 33.1,4.3116848877865195 33.2,4.319617085964176 33.3,4.327506651265095 33.4,4.33535350582245 33.5,4.3431575721909566 33.6,4.350918773347629 33.7,4.3586370326925445 33.8,4.3663122740496005 33.9,4.373944421667264 34.0,4.381533400219318 34.1,4.389079134805608 34.2,4.3965815509527815 34.3,4.404040574615017 34.4,4.4114561321747665 34.5,4.418828150443467 34.6,4.426156556662276 34.7,4.433441278502783 34.8,4.440682244067722 34.9,4.447879381891689 35.0,4.455032620941839 35.1,4.4621418906185895 35.2,4.469207120756319 35.3,4.4762282416240575 35.4,4.483205183926179 35.5,4.490137878803078 35.6,4.497026257831855 35.7,4.5038702530269905 35.8,4.5106697968410145 35.9,4.517424822165174 36.0,4.524135262330098 36.1,4.530801051106449 36.2,4.537422122705585 36.3,4.5439984117802 36.4,4.550529853424978 36.5,4.557016383177226 36.6,4.563457937017514 36.7,4.569854451370307 36.8,4.576205863104587 36.9,4.58251210953449 37.0,4.588773128419906 37.1,4.594988857967107 37.2,4.601159236829352 37.3,4.607284204107492 37.4,4.6133636993505736 37.5,4.619397662556434 37.6,4.6253860341722906 37.7,4.631328755095333 37.8,4.637225766673306 37.9,4.6430770107050865 38.0,4.648882429441256 38.1,4.654641965584679 38.2,4.6603555622910555 38.3,4.666023163169493 38.4,4.67164471228306 38.5,4.677220154149336 38.6,4.682749433740962 38.7,4.688232496486179 38.8,4.69366928826937 38.9,4.699059755431598 39.0,4.704403844771127 39.1,4.709701503543953 39.2,4.714952679464322 39.3,4.7201573207052485 39.4,4.725315375899024 39.5,4.730426794137727 39.6,4.735491524973722 39.7,4.74050951842016 39.8,4.745480724951473 39.9,4.750405095503859 40.0,4.755282581475767 40.1,4.760113134728384 40.2,4.764896707586094 40.3,4.769633252836967 40.4,4.774322723733214 40.5,4.7789650739916505 40.6,4.783560257794153 40.7,4.7881082297881115 40.8,4.792608945086879 40.9,4.797062359270214 41.0,4.801468428384715 41.1,4.80582710894426 41.2,4.8101383579304295 41.3,4.814402132792938 41.4,4.818618391450048 41.5,4.822787092288991 41.6,4.82690819416637 41.7,4.830981656408574 41.8,4.835007438812175 41.9,4.838985501644327 42.0,4.842915805643155 42.1,4.846798312018146 42.2,4.85063298245053 42.3,4.854419779093655 42.4,4.858158664573369 42.5,4.861849601988383 42.6,4.865492554910633 42.7,4.869087487385644 42.8,4.872634363932885 42.9,4.876133149546117 43.0,4.879583809693736 43.1,4.882986310319123 43.2,4.886340617840967 43.3,4.889646699153609 43.4,4.892904521627361 43.5,4.896114053108828 43.6,4.899275261921234 43.7,4.9023881168647225 43.8,4.90545258721667 43.9,4.908468642731994 44.0,4.911436253643443 44.1,4.914355390661896 44.2,4.917226024976649 44.3,4.920048128255699 44.4,4.922821672646027 44.5,4.92554663077387 44.6,4.9282229757449905 44.7,4.930850681144944 44.8,4.9334297210393405 44.9,4.9359600699740955 45.0,4.938441702975689 45.1,4.940874595551402 45.2,4.943258723689571 45.3,4.945594063859809 45.4,4.947880593013255 45.5,4.950118288582788 45.6,4.952307128483256 45.7,4.954447091111693 45.8,4.956538155347533 45.9,4.958580300552814 46.0,4.960573506572389 46.1,4.962517753734119 46.2,4.964413022849069 46.3,4.966259295211697 46.4,4.968056552600042 46.5,4.969804777275899 46.6,4.971503951984994 46.7,4.973154059957162 46.8,4.9747550849065005 46.9,4.976307011031541 47.0,4.9778098230154 47.1,4.979263506025928 47.2,4.980668045715863 47.3,4.982023428222962 47.4,4.983329640170149 47.5,4.9845866686656395 47.6,4.98579450130307 47.7,4.986953126161619 47.8,4.9880625318061265 47.9,4.9891227072872075 48.0,4.990133642141358 48.1,4.991095326391059 48.2,4.992007750544875 48.3,4.992870905597549 48.4,4.993684783030087 48.5,4.99444937480985 48.6,4.995164673390623 48.7,4.9958306717127 48.8,4.996447363202946 48.9,4.997014741774865 49.0,4.997532801828658 49.1,4.998001538251283 49.2,4.9984209464165 49.3,4.99879102218492 49.4,4.999111761904045 49.5,4.999383162408303 49.6,4.99960522101908 49.7,4.999777935544749 49.8,4.9999013042806855 49.9,4.999975326009291 50.0,5.0 50.1,4.999975326009291 50.2,4.9999013042806855 50.3,4.999777935544749 50.4,4.99960522101908 50.5,4.999383162408303 50.6,4.999111761904045 50.7,4.99879102218492 50.8,4.9984209464165 50.9,4.998001538251283 51.0,4.997532801828658 51.1,4.997014741774865 51.2,4.996447363202946 51.3,4.9958306717127 51.4,4.995164673390623 51.5,4.99444937480985 51.6,4.993684783030087 51.7,4.992870905597549 51.8,4.992007750544875 51.9,4.991095326391059 52.0,4.990133642141358 52.1,4.9891227072872075 52.2,4.9880625318061265 52.3,4.986953126161619 52.4,4.98579450130307 52.5,4.9845866686656395 52.6,4.983329640170149 52.7,4.982023428222962 52.8,4.980668045715863 52.9,4.979263506025928 53.0,4.9778098230154 53.1,4.976307011031541 53.2,4.9747550849065005 53.3,4.973154059957162 53.4,4.971503951984994 53.5,4.969804777275899 53.6,4.968056552600042 53.7,4.966259295211697 53.8,4.964413022849069 53.9,4.962517753734119 54.0,4.9605735065723895 54.1,4.958580300552814 54.2,4.956538155347533 54.3,4.954447091111694 54.4,4.952307128483256 54.5,4.950118288582789 54.6,4.947880593013255 54.7,4.945594063859809 54.8,4.943258723689571 54.9,4.940874595551403 55.0,4.938441702975689 55.1,4.9359600699740955 55.2,4.9334297210393405 55.3,4.930850681144944 55.4,4.9282229757449905 55.5,4.925546630773869 55.6,4.922821672646027 55.7,4.920048128255699 55.8,4.917226024976649 55.9,4.914355390661896 56.0,4.911436253643443 56.1,4.908468642731995 56.2,4.90545258721667 56.3,4.9023881168647225 56.4,4.899275261921234 56.5,4.896114053108829 56.6,4.892904521627361 56.7,4.889646699153609 56.8,4.886340617840967 56.9,4.882986310319123 57.0,4.879583809693737 57.1,4.876133149546117 57.2,4.872634363932885 57.3,4.869087487385645 57.4,4.865492554910633 57.5,4.861849601988383 57.6,4.85815866457337 57.7,4.854419779093655 57.8,4.850632982450529 57.9,4.846798312018147 58.0,4.842915805643155 58.1,4.838985501644327 58.2,4.835007438812175 58.3,4.830981656408574 58.4,4.82690819416637 58.5,4.822787092288991 58.6,4.818618391450048 58.7,4.814402132792938 58.8,4.8101383579304295 58.9,4.80582710894426 59.0,4.801468428384715 59.1,4.797062359270214 59.2,4.792608945086879 59.3,4.7881082297881115 59.4,4.783560257794152 59.5,4.778965073991651 59.6,4.774322723733214 59.7,4.769633252836968 59.8,4.764896707586095 59.9,4.760113134728384 60.0,4.755282581475768 60.1,4.750405095503859 60.2,4.745480724951473 60.3,4.74050951842016 60.4,4.735491524973722 60.5,4.730426794137727 60.6,4.725315375899025 60.7,4.7201573207052485 60.8,4.714952679464322 60.9,4.709701503543954 61.0,4.704403844771127 61.1,4.699059755431599 61.2,4.69366928826937 61.3,4.688232496486179 61.4,4.682749433740962 61.5,4.677220154149337 61.6,4.67164471228306 61.7,4.666023163169493 61.8,4.6603555622910555 61.9,4.654641965584679 62.0,4.648882429441257 62.1,4.6430770107050865 62.2,4.637225766673307 62.3,4.631328755095334 62.4,4.6253860341722906 62.5,4.619397662556434 62.6,4.613363699350574 62.7,4.607284204107492 62.8,4.601159236829352 62.9,4.594988857967107 63.0,4.588773128419906 63.1,4.58251210953449 63.2,4.576205863104588 63.3,4.569854451370306 63.4,4.563457937017515 63.5,4.557016383177227 63.6,4.550529853424979 63.7,4.5439984117802 63.8,4.537422122705585 63.9,4.530801051106449 64.0,4.524135262330097 64.1,4.517424822165174 64.2,4.510669796841014 64.3,4.5038702530269905 64.4,4.4970262578318545 64.5,4.490137878803078 64.6,4.48320518392618 64.7,4.476228241624058 64.8,4.4692071207563195 64.9,4.4621418906185895 65.0,4.455032620941839 65.1,4.44787938189169 65.2,4.440682244067723 65.3,4.433441278502783 65.4,4.426156556662276 65.5,4.418828150443467 65.6,4.411456132174767 65.7,4.404040574615019 65.8,4.3965815509527815 65.9,4.389079134805608 66.0,4.381533400219317 66.1,4.3739444216672645 66.2,4.3663122740496005 66.3,4.3586370326925445 66.4,4.350918773347629 66.5,4.343157572190956 66.6,4.335353505822451 66.7,4.327506651265095 66.8,4.319617085964177 66.9,4.3116848877865195 67.0,4.303710135019719 67.1,4.295692906371363 67.2,4.287633280968261 67.3,4.279531338355666 67.4,4.271387158496475 67.5,4.263200821770462 67.6,4.25497240897346 67.7,4.246702001316583 67.8,4.238389680425417 67.9,4.2300355283392115 68.0,4.221639627510075 68.1,4.213202060802162 68.2,4.204722911490846 68.3,4.19620226326191 68.4,4.1876402002107085 68.5,4.179036806841351 68.6,4.170392168065858 68.7,4.1617063692033165 68.8,4.152979495979063 68.9,4.144211634523809 69.0,4.135402871372809 69.1,4.126553293464998 69.2,4.117662988142136 69.3,4.108732043147951 69.4,4.099760546627261 69.5,4.090748587125117 69.6,4.08169625358592 69.7,4.0726036353525465 69.8,4.0634708221654705 69.9,4.054297904161867 70.0,4.045084971874737 70.1,4.035832116232002 70.2,4.02653942855561 70.3,4.017207000560639 70.4,4.007834924354382 70.5,3.998423292435453 70.6,3.9889721976928563 70.7,3.979481733405078 70.8,3.9699519932391776 70.9,3.9603830712498356 71.0,3.9507750618784514 71.1,3.9411280599522014 71.2,3.931442160683094 71.3,3.9217174596670503 71.4,3.9119540528829395 71.5,3.9021520366916485 71.6,3.8923115078351174 71.7,3.8824325634353922 71.8,3.872515300993669 71.9,3.8625598183893217 72.0,3.852566213878946 72.1,3.8425345860953835 72.2,3.8324650340467494 72.3,3.8223576571154583 72.4,3.812212555057239 72.5,3.8020298280001548 72.6,3.79180957644361 72.7,3.78155190125736 72.8,3.77125690368052 72.9,3.760924685320557 73.0,3.750555348152298 73.1,3.7401489945169137 73.2,3.7297057271209093 73.3,3.719225649035126 73.4,3.708708863693695 73.5,3.698155474893048 73.6,3.6875655867908708 73.7,3.6769393039050784 73.8,3.6662767311127995 73.9,3.6555779736493195 74.0,3.644843137107057 74.1,3.6340723274345144 74.2,3.623265650935233 74.3,3.6124232142667494 74.4,3.6015451244395336 74.5,3.5906314888159443 74.6,3.579682415109157 74.7,3.5686980113821063 74.8,3.5576783860464274 74.9,3.546623647861369 75.0,3.5355339059327378 75.1,3.524409269711808 75.2,3.513249848994246 75.3,3.502055753919033 75.4,3.4908270949673637 75.5,3.4795639829615723 75.6,3.468266529064026 75.7,3.456934844776031 75.8,3.4455690419367437 75.9,3.4341692327220397 76.0,3.422735529643444 76.1,3.4112680455469837 76.2,3.399766893612095 76.3,3.388232187350513 76.4,3.3766640406051214 76.5,3.3650625675488666 76.6,3.353427882683602 76.7,3.3417601008389646 76.8,3.3300593371712583 76.9,3.318325707162292 77.0,3.306559326618259 77.1,3.2947603116685853 77.2,3.282928778764782 77.3,3.271064844679306 77.4,3.2591686265043935 77.5,3.247240241650919 77.6,3.2352798078472227 77.7,3.223287443137957 77.8,3.2112632658829225 77.9,3.199207394755892 78.0,3.187119948743449 78.1,3.1750010471438044 78.2,3.1628508095656227 78.3,3.150669355926847 78.4,3.138456806453501 78.5,3.126213281678527 78.6,3.1139389024405646 78.7,3.1016337898827793 78.8,3.0892980654516733 78.9,3.0769318508958565 79.0,3.0645352682648817 79.1,3.052108439908015 79.2,3.0396514884730266 79.3,3.027164536905007 79.4,3.014647708445123 79.5,3.00210112662942 79.6,2.9895249152875953 79.7,2.9769191985417742 79.8,2.9642841008052967 79.9,2.9516197467814727 80.0,2.9389262614623664 80.1,2.9262037701275516 80.2,2.913452398342881 80.3,2.900672271959248 80.4,2.887863517111338 80.5,2.8750262602163934 80.6,2.862160627972956 80.7,2.8492667473596196 80.8,2.8363447456337836 80.9,2.8233947503303836 81.0,2.810416889260654 81.1,2.7974112905108366 81.2,2.784378082440939 81.3,2.7713173936834723 81.4,2.75822935314215 81.5,2.7451140899906603 81.6,2.731971733671348 81.7,2.718802413893962 81.8,2.7056062606343794 81.9,2.6923834041333023 82.0,2.679133974894985 82.1,2.6658581036859457 82.2,2.6525559215336703 82.3,2.6392275597253327 82.4,2.6258731498064765 82.5,2.6124928235797467 82.6,2.599086713103549 82.7,2.585654950690786 82.8,2.572197668907533 82.9,2.558715000571723 83.0,2.5452070787518553 83.1,2.531674036765664 83.2,2.5181160081788043 83.3,2.504533126803551 83.4,2.4909255266974526 83.5,2.477293342162037 83.6,2.463636707741458 83.7,2.4499557582211837 83.8,2.4362506286266634 83.9,2.4225214542219886 84.0,2.408768370508576 84.1,2.3949915132238058 84.2,2.381191018339697 84.3,2.367367022061563 84.4,2.353519660826662 84.5,2.339649071302867 84.6,2.3257553903872927 84.7,2.3118387552049606 84.8,2.297899303107442 84.9,2.283937171671497 85.0,2.269952498697734 85.1,2.2559454222092263 85.2,2.2419160804501597 85.3,2.2278646118844825 85.4,2.2137911551945075 85.5,2.1996958492795766 85.6,2.185578833254666 85.7,2.1714402464490217 85.8,2.1572802284047943 85.9,2.1430989188756424 86.0,2.1288964578253644 86.1,2.1146729854265183 86.2,2.1004286420590303 86.3,2.0861635683088267 86.4,2.0718779049664215 86.5,2.0575717930255455 86.6,2.043245373681748 86.7,2.0288987883309995 86.8,2.014532178568314 86.9,2.000145686186325 87.0,1.9857394531739052 87.1,1.971313621714756 87.2,1.9568683341860118 87.3,1.9424037331568311 87.4,1.9279199613869802 87.5,1.9134171618254514 87.6,1.898895477609007 87.7,1.8843550520608134 87.8,1.8697960286890034 87.9,1.8552185511852533 88.0,1.8406227634233907 88.1,1.8260088094579408 88.2,1.811376833522729 88.3,1.796726980029455 88.4,1.7820593935662519 88.5,1.7673742188962849 88.6,1.7526716009562973 88.7,1.7379516848551861 88.8,1.7232146158725872 88.9,1.7084605394574153 89.0,1.6936896012264566 89.1,1.6789019469629038 89.2,1.6640977226149347 89.3,1.6492770742942668 89.4,1.6344401482747115 89.5,1.6195870909907473 89.6,1.6047180490360486 89.7,1.5898331691620569 89.8,1.5749325982765248 89.9,1.5600164834420738 90.0,1.5450849718747375 90.1,1.5301382109425052 90.2,1.5151763481638723 90.3,1.5001995312063823 90.4,1.4852079078851745 90.5,1.4702016261615207 90.6,1.455180834141361 90.7,1.4401456800738446 90.8,1.4250963123498823 90.9,1.4100328795006476 91.0,1.3949555301961478 91.1,1.379864413243731 91.2,1.3647596775866253 91.3,1.3496414723024817 91.4,1.3345099466018786 91.5,1.3193652498268662 91.6,1.3042075314494852 91.7,1.2890369410702986 91.8,1.2738536284169113 91.9,1.2586577433424866 92.0,1.2434494358242763 92.1,1.2282288559621328 92.2,1.212996153977037 92.3,1.1977514802096099 92.4,1.1824949851186253 92.5,1.1672268192795276 92.6,1.1519471333829543 92.7,1.1366560782332324 92.8,1.1213538047469072 92.9,1.1060404639512336 93.0,1.0907162069827139 93.1,1.0753811850855688 93.2,1.060035549610274 93.3,1.0446794520120601 93.4,1.029313043849405 93.5,1.0139364767825616 93.6,0.9985499025720375 93.7,0.9831534730771014 93.8,0.9677473402543034 93.9,0.9523316561559482 94.0,0.9369065729286229 94.1,0.9214722428116672 94.2,0.9060288181356884 94.3,0.8905764513210511 94.4,0.8751152948763794 94.5,0.8596455013970479 94.6,0.8441672235636705 94.7,0.8286806141406006 94.8,0.8131858259744189 94.9,0.7976830119924311 95.0,0.7821723252011549 95.1,0.7666539186848047 95.2,0.7511279456037856 95.3,0.7355945591931881 95.4,0.7200539127612609 95.5,0.7045061596879143 95.6,0.6889514534231923 95.7,0.6733899474857616 95.8,0.6578217954614142 95.9,0.6422471510015147 96.0,0.6266661678215226 96.1,0.6110789996994475 96.2,0.5954858004743477 96.3,0.579886724044809 96.4,0.5642819243674093 96.5,0.5486715554552282 96.6,0.5330557713763002 96.7,0.5174347262521121 96.8,0.501808574256075 96.9,0.48617746961199804 97.0,0.47054156659257174 97.1,0.4549010195178507 97.2,0.43925598275371575 97.3,0.4236066107103681 97.4,0.4079530578407896 97.5,0.3922954786392253 97.6,0.3766340276396652 97.7,0.36096885941430334 97.8,0.3453001285720303 97.9,0.32962798975688934 98.0,0.3139525976465679 98.1,0.2982741069508555 98.2,0.2825926724101234 98.3,0.2669084487938041 98.4,0.2512215908988461 98.5,0.23553225354821478 98.6,0.21984059158932698 98.7,0.2041467598925512 98.8,0.18845091334967268 98.9,0.17275320687236007 99.0,0.15705379539064118 99.1,0.14135283385136918 99.2,0.12565047721668907 99.3,0.10994688046252599 99.4,0.09424219857704008 99.5,0.07853658655910355 99.6,0.06283019941676418 99.7,0.04712319216571993 99.8,0.03141571982779563 99.9,0.01570793742939745 100.0,6.123233995736766e-16 100.1,-0.015707937429396225 100.2,-0.03141571982779441 100.3,-0.04712319216571871 100.4,-0.06283019941676296 100.5,-0.07853658655910231 100.6,-0.09424219857704107 100.7,-0.10994688046252475 100.8,-0.12565047721668562 100.9,-0.14135283385136574 101.0,-0.15705379539063996 101.1,-0.1727532068723611 101.2,-0.18845091334967368 101.3,-0.20414675989254777 101.4,-0.21984059158932354 101.5,-0.23553225354821355 101.6,-0.2512215908988471 101.7,-0.2669084487938029 101.8,-0.2825926724101222 101.9,-0.29827410695085205 102.0,-0.31395259764656674 102.1,-0.3296279897568882 102.2,-0.3453001285720291 102.3,-0.3609688594143021 102.4,-0.37663402763966397 102.5,-0.3922954786392241 102.6,-0.40795305784078617 102.7,-0.42360661071036687 102.8,-0.4392559827537146 102.9,-0.45490101951784945 103.0,-0.4705415665925705 103.1,-0.48617746961199465 103.2,-0.5018085742560736 103.3,-0.5174347262521131 103.4,-0.5330557713763012 103.5,-0.5486715554552248 103.6,-0.564281924367406 103.7,-0.5798867240448056 103.8,-0.5954858004743486 103.9,-0.6110789996994483 104.0,-0.6266661678215214 104.1,-0.6422471510015113 104.2,-0.6578217954614131 104.3,-0.6733899474857625 104.4,-0.6889514534231911 104.5,-0.7045061596879131 104.6,-0.7200539127612575 104.7,-0.735594559193187 104.8,-0.7511279456037844 104.9,-0.7666539186848036 105.0,-0.7821723252011537 105.1,-0.7976830119924322 105.2,-0.8131858259744176 105.3,-0.8286806141405972 105.4,-0.8441672235636692 105.5,-0.8596455013970467 105.6,-0.8751152948763805 105.7,-0.8905764513210499 105.8,-0.906028818135685 105.9,-0.9214722428116661 106.0,-0.9369065729286239 106.1,-0.9523316561559492 106.2,-0.9677473402543001 106.3,-0.9831534730770981 106.4,-0.9985499025720341 106.5,-1.0139364767825625 106.6,-1.029313043849406 106.7,-1.044679452012059 106.8,-1.0600355496102707 106.9,-1.0753811850855677 107.0,-1.0907162069827125 107.1,-1.1060404639512345 107.2,-1.121353804746906 107.3,-1.1366560782332313 107.4,-1.1519471333829532 107.5,-1.1672268192795263 107.6,-1.182494985118622 107.7,-1.1977514802096088 107.8,-1.212996153977038 107.9,-1.2282288559621315 108.0,-1.243449435824273 108.1,-1.2586577433424835 108.2,-1.27385362841691 108.3,-1.2890369410702998 108.4,-1.304207531449484 108.5,-1.3193652498268629 108.6,-1.3345099466018753 108.7,-1.3496414723024825 108.8,-1.3647596775866262 108.9,-1.3798644132437299 109.0,-1.3949555301961445 109.1,-1.4100328795006443 109.2,-1.425096312349881 109.3,-1.4401456800738455 109.4,-1.45518083414136 109.5,-1.4702016261615194 109.6,-1.4852079078851712 109.7,-1.5001995312063812 109.8,-1.515176348163869 109.9,-1.530138210942504 110.0,-1.5450849718747364 110.1,-1.5600164834420749 110.2,-1.5749325982765237 110.3,-1.5898331691620535 110.4,-1.6047180490360473 110.5,-1.6195870909907482 110.6,-1.6344401482747126 110.7,-1.6492770742942637 110.8,-1.6640977226149314 110.9,-1.6789019469629027 111.0,-1.6936896012264575 111.1,-1.7084605394574162 111.2,-1.723214615872584 111.3,-1.737951684855183 111.4,-1.7526716009562961 111.5,-1.7673742188962858 111.6,-1.782059393566253 111.7,-1.7967269800294539 111.8,-1.811376833522726 111.9,-1.8260088094579396 112.0,-1.8406227634233896 112.1,-1.855218551185254 112.2,-1.8697960286890023 112.3,-1.8843550520608106 112.4,-1.898895477609006 112.5,-1.9134171618254483 112.6,-1.9279199613869813 112.7,-1.94240373315683 112.8,-1.956868334186013 112.9,-1.9713136217147547 113.0,-1.985739453173902 113.1,-2.000145686186322 113.2,-2.014532178568315 113.3,-2.0288987883310003 113.4,-2.043245373681745 113.5,-2.0575717930255424 113.6,-2.071877904966418 113.7,-2.086163568308827 113.8,-2.1004286420590312 113.9,-2.114672985426515 114.0,-2.1288964578253613 114.1,-2.143098918875639 114.2,-2.1572802284047956 114.3,-2.1714402464490226 114.4,-2.1855788332546653 114.5,-2.1996958492795735 114.6,-2.2137911551945044 114.7,-2.227864611884481 114.8,-2.24191608045016 114.9,-2.2559454222092254 115.0,-2.2699524986977355 115.1,-2.283937171671494 115.2,-2.297899303107439 115.3,-2.3118387552049575 115.4,-2.3257553903872914 115.5,-2.3396490713028677 115.6,-2.353519660826663 115.7,-2.36736702206156 115.8,-2.381191018339694 115.9,-2.3949915132238067 116.0,-2.408768370508577 116.1,-2.4225214542219895 116.2,-2.4362506286266603 116.3,-2.449955758221181 116.4,-2.463636707741459 116.5,-2.477293342162038 116.6,-2.4909255266974535 116.7,-2.504533126803548 116.8,-2.5181160081788017 116.9,-2.531674036765663 117.0,-2.545207078751856 117.1,-2.5587150005717234 117.2,-2.572197668907532 117.3,-2.5856549506907833 117.4,-2.5990867131035476 117.5,-2.6124928235797436 117.6,-2.625873149806477 117.7,-2.6392275597253336 117.8,-2.6525559215336707 117.9,-2.665858103685943 118.0,-2.6791339748949823 118.1,-2.692383404133299 118.2,-2.7056062606343803 118.3,-2.718802413893963 118.4,-2.731971733671345 118.5,-2.745114089990657 118.6,-2.7582293531421493 118.7,-2.7713173936834714 118.8,-2.7843780824409397 118.9,-2.797411290510834 119.0,-2.8104168892606514 119.1,-2.823394750330383 119.2,-2.8363447456337827 119.3,-2.8492667473596183 119.4,-2.862160627972955 119.5,-2.8750262602163907 119.6,-2.8878635171113354 119.7,-2.9006722719592473 119.8,-2.9134523983428795 119.9,-2.9262037701275507 120.0,-2.9389262614623632 120.1,-2.9516197467814713 120.2,-2.964284100805296 120.3,-2.976919198541774 120.4,-2.989524915287596 120.5,-3.0021011266294213 120.6,-3.0146477084451218 120.7,-3.0271645369050058 120.8,-3.0396514884730252 120.9,-3.052108439908014 121.0,-3.064535268264883 121.1,-3.076931850895857 121.2,-3.0892980654516706 121.3,-3.1016337898827784 121.4,-3.1139389024405633 121.5,-3.1262132816785257 121.6,-3.138456806453502 121.7,-3.150669355926844 121.8,-3.16285080956562 121.9,-3.175001047143804 122.0,-3.1871199487434483 122.1,-3.1992073947558914 122.2,-3.2112632658829203 122.3,-3.2232874431379543 122.4,-3.235279807847222 122.5,-3.2472402416509176 122.6,-3.259168626504392 122.7,-3.271064844679307 122.8,-3.2829287787647807 122.9,-3.2947603116685844 123.0,-3.3065593266182587 123.1,-3.3183257071622907 123.2,-3.330059337171259 123.3,-3.3417601008389655 123.4,-3.3534278826835995 123.5,-3.3650625675488657 123.6,-3.37666404060512 123.7,-3.3882321873505115 123.8,-3.399766893612096 123.9,-3.411268045546981 124.0,-3.422735529643442 124.1,-3.4341692327220392 124.2,-3.4455690419367424 124.3,-3.4569348447760317 124.4,-3.4682665290640236 124.5,-3.4795639829615697 124.6,-3.4908270949673623 124.7,-3.5020557539190316 124.8,-3.5132498489942456 124.9,-3.524409269711809 125.0,-3.5355339059327355 125.1,-3.5466236478613684 125.2,-3.557678386046426 125.3,-3.5686980113821054 125.4,-3.5796824151091573 125.5,-3.5906314888159447 125.6,-3.601545124439533 125.7,-3.6124232142667485 125.8,-3.623265650935232 125.9,-3.6340723274345157 126.0,-3.644843137107058 126.1,-3.6555779736493204 126.2,-3.666276731112799 126.3,-3.6769393039050775 126.4,-3.6875655867908703 126.5,-3.6981554748930483 126.6,-3.7087088636936953 126.7,-3.719225649035124 126.8,-3.729705727120909 126.9,-3.740148994516913 127.0,-3.7505553481522975 127.1,-3.7609246853205565 127.2,-3.7712569036805177 127.3,-3.781551901257359 127.4,-3.7918095764436077 127.5,-3.8020298280001557 127.6,-3.8122125550572394 127.7,-3.822357657115458 127.8,-3.832465034046748 127.9,-3.8425345860953843 128.0,-3.852566213878947 128.1,-3.862559818389322 128.2,-3.8725153009936686 128.3,-3.882432563435392 128.4,-3.892311507835118 128.5,-3.902152036691649 128.6,-3.9119540528829404 128.7,-3.9217174596670494 128.8,-3.931442160683096 128.9,-3.941128059952201 129.0,-3.950775061878452 129.1,-3.9603830712498347 129.2,-3.9699519932391754 129.3,-3.9794817334050805 129.4,-3.9889721976928554 129.5,-3.9984232924354526 129.6,-4.007834924354382 129.7,-4.017207000560637 129.8,-4.02653942855561 129.9,-4.035832116232002 130.0,-4.045084971874736 130.1,-4.054297904161866 130.2,-4.063470822165468 130.3,-4.072603635352547 130.4,-4.081696253585919 130.5,-4.090748587125116 130.6,-4.099760546627261 130.7,-4.10873204314795 130.8,-4.117662988142137 130.9,-4.1265532934649976 131.0,-4.135402871372808 131.1,-4.144211634523808 131.2,-4.152979495979061 131.3,-4.1617063692033165 131.4,-4.170392168065855 131.5,-4.179036806841353 131.6,-4.187640200210709 131.7,-4.196202263261906 131.8,-4.204722911490845 131.9,-4.2132020608021605 132.0,-4.2216396275100765 132.1,-4.2300355283392115 132.2,-4.238389680425416 132.3,-4.246702001316582 132.4,-4.25497240897346 132.5,-4.263200821770462 132.6,-4.271387158496475 132.7,-4.279531338355665 132.8,-4.287633280968261 132.9,-4.295692906371363 133.0,-4.303710135019719 133.1,-4.3116848877865195 133.2,-4.319617085964175 133.3,-4.327506651265097 133.4,-4.335353505822451 133.5,-4.3431575721909566 133.6,-4.350918773347628 133.7,-4.358637032692544 133.8,-4.366312274049601 133.9,-4.3739444216672645 134.0,-4.381533400219318 134.1,-4.389079134805608 134.2,-4.396581550952781 134.3,-4.404040574615019 134.4,-4.4114561321747665 134.5,-4.418828150443467 134.6,-4.426156556662276 134.7,-4.433441278502782 134.8,-4.440682244067723 134.9,-4.44787938189169 135.0,-4.455032620941839 135.1,-4.462141890618589 135.2,-4.469207120756318 135.3,-4.476228241624058 135.4,-4.483205183926179 135.5,-4.490137878803077 135.6,-4.4970262578318545 135.7,-4.503870253026989 135.8,-4.5106697968410145 135.9,-4.517424822165173 136.0,-4.524135262330099 136.1,-4.530801051106447 136.2,-4.537422122705584 136.3,-4.5439984117802 136.4,-4.550529853424978 136.5,-4.557016383177227 136.6,-4.563457937017513 136.7,-4.569854451370304 136.8,-4.576205863104588 136.9,-4.582512109534491 137.0,-4.5887731284199065 137.1,-4.594988857967107 137.2,-4.60115923682935 137.3,-4.607284204107492 137.4,-4.613363699350575 137.5,-4.619397662556434 137.6,-4.6253860341722906 137.7,-4.631328755095333 137.8,-4.637225766673307 137.9,-4.643077010705087 138.0,-4.648882429441257 138.1,-4.654641965584679 138.2,-4.660355562291054 138.3,-4.666023163169494 138.4,-4.671644712283061 138.5,-4.677220154149337 138.6,-4.682749433740962 138.7,-4.688232496486178 138.8,-4.693669288269371 138.9,-4.699059755431599 139.0,-4.704403844771127 139.1,-4.709701503543952 139.2,-4.7149526794643215 139.3,-4.720157320705249 139.4,-4.725315375899025 139.5,-4.730426794137727 139.6,-4.735491524973721 139.7,-4.7405095184201596 139.8,-4.745480724951474 139.9,-4.750405095503859 140.0,-4.755282581475767 140.1,-4.760113134728383 140.2,-4.764896707586093 140.3,-4.769633252836968 140.4,-4.774322723733214 140.5,-4.77896507399165 140.6,-4.783560257794152 140.7,-4.78810822978811 140.8,-4.792608945086879 140.9,-4.797062359270214 141.0,-4.801468428384715 141.1,-4.805827108944259 141.2,-4.810138357930429 141.3,-4.814402132792938 141.4,-4.81861839145005 141.5,-4.822787092288991 141.6,-4.826908194166369 141.7,-4.830981656408573 141.8,-4.835007438812175 141.9,-4.838985501644328 142.0,-4.842915805643156 142.1,-4.846798312018147 142.2,-4.850632982450528 142.3,-4.854419779093655 142.4,-4.85815866457337 142.5,-4.861849601988383 142.6,-4.865492554910633 142.7,-4.869087487385644 142.8,-4.872634363932886 142.9,-4.876133149546117 143.0,-4.879583809693737 143.1,-4.882986310319123 143.2,-4.8863406178409665 143.3,-4.88964669915361 143.4,-4.892904521627361 143.5,-4.896114053108828 143.6,-4.899275261921234 143.7,-4.902388116864722 143.8,-4.905452587216671 143.9,-4.908468642731995 144.0,-4.911436253643443 144.1,-4.914355390661896 144.2,-4.917226024976648 144.3,-4.920048128255699 144.4,-4.922821672646027 144.5,-4.925546630773869 144.6,-4.92822297574499 144.7,-4.9308506811449435 144.8,-4.9334297210393405 144.9,-4.9359600699740955 145.0,-4.938441702975688 145.1,-4.940874595551402 145.2,-4.94325872368957 145.3,-4.945594063859809 145.4,-4.947880593013255 145.5,-4.950118288582788 145.6,-4.952307128483256 145.7,-4.9544470911116925 145.8,-4.956538155347533 145.9,-4.958580300552814 146.0,-4.960573506572389 146.1,-4.962517753734118 146.2,-4.964413022849068 146.3,-4.966259295211697 146.4,-4.968056552600043 146.5,-4.969804777275898 146.6,-4.971503951984994 146.7,-4.973154059957161 146.8,-4.974755084906501 146.9,-4.976307011031542 147.0,-4.9778098230154 147.1,-4.979263506025928 147.2,-4.980668045715862 147.3,-4.982023428222963 147.4,-4.983329640170149 147.5,-4.9845866686656395 147.6,-4.98579450130307 147.7,-4.986953126161618 147.8,-4.9880625318061265 147.9,-4.9891227072872075 148.0,-4.990133642141358 148.1,-4.991095326391059 148.2,-4.992007750544875 148.3,-4.992870905597549 148.4,-4.993684783030087 148.5,-4.99444937480985 148.6,-4.995164673390623 148.7,-4.9958306717127 148.8,-4.996447363202947 148.9,-4.997014741774865 149.0,-4.997532801828658 149.1,-4.998001538251283 149.2,-4.9984209464165 149.3,-4.99879102218492 149.4,-4.999111761904045 149.5,-4.999383162408303 149.6,-4.99960522101908 149.7,-4.999777935544749 149.8,-4.9999013042806855 149.9,-4.999975326009291 150.0,-5.0 150.1,-4.999975326009291 150.2,-4.9999013042806855 150.3,-4.999777935544749 150.4,-4.99960522101908 150.5,-4.999383162408303 150.6,-4.999111761904045 150.7,-4.99879102218492 150.8,-4.9984209464165 150.9,-4.998001538251283 151.0,-4.997532801828658 151.1,-4.997014741774865 151.2,-4.996447363202947 151.3,-4.9958306717127 151.4,-4.995164673390623 151.5,-4.99444937480985 151.6,-4.993684783030088 151.7,-4.992870905597549 151.8,-4.992007750544875 151.9,-4.991095326391059 152.0,-4.990133642141358 152.1,-4.9891227072872075 152.2,-4.9880625318061265 152.3,-4.986953126161618 152.4,-4.98579450130307 152.5,-4.9845866686656395 152.6,-4.98332964017015 152.7,-4.982023428222963 152.8,-4.980668045715862 152.9,-4.979263506025928 153.0,-4.9778098230154 153.1,-4.976307011031541 153.2,-4.974755084906501 153.3,-4.973154059957162 153.4,-4.971503951984994 153.5,-4.969804777275899 153.6,-4.968056552600042 153.7,-4.966259295211698 153.8,-4.964413022849068 153.9,-4.962517753734119 154.0,-4.9605735065723895 154.1,-4.958580300552814 154.2,-4.956538155347533 154.3,-4.954447091111693 154.4,-4.952307128483256 154.5,-4.950118288582788 154.6,-4.947880593013255 154.7,-4.94559406385981 154.8,-4.94325872368957 154.9,-4.940874595551403 155.0,-4.938441702975689 155.1,-4.935960069974096 155.2,-4.9334297210393405 155.3,-4.930850681144944 155.4,-4.9282229757449905 155.5,-4.92554663077387 155.6,-4.922821672646027 155.7,-4.920048128255699 155.8,-4.917226024976649 155.9,-4.914355390661896 156.0,-4.911436253643443 156.1,-4.908468642731995 156.2,-4.905452587216671 156.3,-4.902388116864721 156.4,-4.899275261921235 156.5,-4.896114053108829 156.6,-4.8929045216273614 156.7,-4.88964669915361 156.8,-4.8863406178409665 156.9,-4.882986310319122 157.0,-4.879583809693738 157.1,-4.876133149546118 157.2,-4.872634363932887 157.3,-4.869087487385643 157.4,-4.865492554910632 157.5,-4.861849601988383 157.6,-4.85815866457337 157.7,-4.854419779093656 157.8,-4.850632982450528 157.9,-4.846798312018146 158.0,-4.842915805643155 158.1,-4.838985501644327 158.2,-4.835007438812177 158.3,-4.830981656408573 158.4,-4.826908194166369 158.5,-4.822787092288991 158.6,-4.818618391450048 158.7,-4.814402132792938 158.8,-4.810138357930429 158.9,-4.80582710894426 159.0,-4.801468428384715 159.1,-4.797062359270214 159.2,-4.792608945086879 159.3,-4.788108229788111 159.4,-4.783560257794152 159.5,-4.7789650739916505 159.6,-4.774322723733215 159.7,-4.769633252836968 159.8,-4.764896707586094 159.9,-4.760113134728384 160.0,-4.755282581475768 160.1,-4.750405095503859 160.2,-4.745480724951474 160.3,-4.74050951842016 160.4,-4.735491524973722 160.5,-4.730426794137727 160.6,-4.725315375899025 160.7,-4.72015732070525 160.8,-4.714952679464322 160.9,-4.709701503543953 161.0,-4.704403844771128 161.1,-4.699059755431599 161.2,-4.693669288269372 161.3,-4.688232496486179 161.4,-4.682749433740962 161.5,-4.677220154149337 161.6,-4.6716447122830616 161.7,-4.666023163169494 161.8,-4.660355562291054 161.9,-4.65464196558468 162.0,-4.648882429441258 162.1,-4.643077010705088 162.2,-4.637225766673309 162.3,-4.631328755095332 162.4,-4.62538603417229 162.5,-4.619397662556435 162.6,-4.613363699350575 162.7,-4.607284204107494 162.8,-4.601159236829351 162.9,-4.594988857967106 163.0,-4.588773128419907 163.1,-4.582512109534492 163.2,-4.57620586310459 163.3,-4.569854451370305 163.4,-4.563457937017514 163.5,-4.557016383177226 163.6,-4.550529853424979 163.7,-4.543998411780201 163.8,-4.5374221227055855 163.9,-4.530801051106451 164.0,-4.524135262330099 164.1,-4.517424822165176 164.2,-4.510669796841017 164.3,-4.50387025302699 164.4,-4.4970262578318545 164.5,-4.490137878803078 164.6,-4.48320518392618 164.7,-4.476228241624059 164.8,-4.469207120756317 164.9,-4.462141890618588 165.0,-4.455032620941842 165.1,-4.447879381891693 165.2,-4.440682244067724 165.3,-4.433441278502782 165.4,-4.426156556662276 165.5,-4.418828150443468 165.6,-4.411456132174767 165.7,-4.40404057461502 165.8,-4.396581550952779 165.9,-4.389079134805607 166.0,-4.3815334002193165 166.1,-4.373944421667263 166.2,-4.366312274049602 166.3,-4.3586370326925445 166.4,-4.350918773347629 166.5,-4.343157572190957 166.6,-4.335353505822452 166.7,-4.3275066512650975 166.8,-4.3196170859641745 166.9,-4.311684887786519 167.0,-4.303710135019717 167.1,-4.295692906371362 167.2,-4.287633280968262 167.3,-4.279531338355666 167.4,-4.271387158496477 167.5,-4.263200821770463 167.6,-4.254972408973462 167.7,-4.246702001316586 167.8,-4.238389680425414 167.9,-4.23003552833921 168.0,-4.221639627510075 168.1,-4.213202060802161 168.2,-4.204722911490847 168.3,-4.19620226326191 168.4,-4.18764020021071 168.5,-4.179036806841354 168.6,-4.170392168065859 168.7,-4.161706369203321 168.8,-4.1529794959790625 168.9,-4.144211634523809 169.0,-4.1354028713728095 169.1,-4.126553293464998 169.2,-4.117662988142138 169.3,-4.108732043147953 169.4,-4.099760546627264 169.5,-4.09074858712512 169.6,-4.081696253585923 169.7,-4.072603635352548 169.8,-4.063470822165469 169.9,-4.054297904161867 170.0,-4.045084971874738 170.1,-4.035832116232003 170.2,-4.026539428555612 170.3,-4.017207000560635 170.4,-4.0078349243543805 170.5,-3.998423292435456 170.6,-3.9889721976928567 170.7,-3.9794817334050814 170.8,-3.969951993239177 170.9,-3.9603830712498356 171.0,-3.950775061878453 171.1,-3.941128059952202 171.2,-3.9314421606830967 171.3,-3.9217174596670477 171.4,-3.9119540528829386 171.5,-3.902152036691647 171.6,-3.892311507835116 171.7,-3.882432563435396 171.8,-3.87251530099367 171.9,-3.8625598183893235 172.0,-3.852566213878948 172.1,-3.8425345860953852 172.2,-3.8324650340467525 172.3,-3.822357657115456 172.4,-3.8122125550572377 172.5,-3.802029828000154 172.6,-3.791809576443609 172.7,-3.78155190125736 172.8,-3.77125690368052 172.9,-3.760924685320559 173.0,-3.7505553481523 173.1,-3.740148994516916 173.2,-3.7297057271209146 173.3,-3.719225649035124 173.4,-3.708708863693695 173.5,-3.6981554748930483 173.6,-3.6875655867908703 173.7,-3.67693930390508 173.8,-3.666276731112802 173.9,-3.655577973649323 174.0,-3.6448431371070606 174.1,-3.6340723274345175 174.2,-3.6232656509352346 174.3,-3.612423214266748 174.4,-3.601545124439534 174.5,-3.5906314888159447 174.6,-3.579682415109157 174.7,-3.568698011382108 174.8,-3.557678386046423 174.9,-3.546623647861373 175.0,-3.5355339059327417 175.1,-3.5244092697118083 175.2,-3.5132498489942483 175.3,-3.502055753919031 175.4,-3.4908270949673637 175.5,-3.4795639829615728 175.6,-3.468266529064027 175.7,-3.4569348447760344 175.8,-3.4455690419367393 175.9,-3.434169232722039 176.0,-3.422735529643445 176.1,-3.4112680455469846 176.2,-3.399766893612099 176.3,-3.3882321873505115 176.4,-3.3766640406051236 176.5,-3.365062567548869 176.6,-3.3534278826836026 176.7,-3.3417601008389686 176.8,-3.3300593371712557 176.9,-3.3183257071622907 177.0,-3.306559326618258 177.1,-3.2947603116685844 177.2,-3.282928778764786 177.3,-3.271064844679306 177.4,-3.2591686265043958 177.5,-3.2472402416509203 177.6,-3.235279807847225 177.7,-3.223287443137961 177.8,-3.21126326588292 177.9,-3.1992073947558906 178.0,-3.1871199487434483 178.1,-3.1750010471438035 178.2,-3.162850809565623 178.3,-3.1506693559268473 178.4,-3.138456806453505 178.5,-3.1262132816785293 178.6,-3.113938902440567 178.7,-3.101633789882782 178.8,-3.0892980654516706 178.9,-3.076931850895857 179.0,-3.0645352682648825 179.1,-3.0521084399080136 179.2,-3.0396514884730284 179.3,-3.0271645369050093 179.4,-3.0146477084451266 179.5,-3.0021011266294244 179.6,-2.989524915287596 179.7,-2.9769191985417764 179.8,-2.964284100805296 179.9,-2.951619746781473 180.0,-2.938926261462367 180.1,-2.926203770127552 180.2,-2.9134523983428826 180.3,-2.9006722719592433 180.4,-2.887863517111342 180.5,-2.875026260216394 180.6,-2.8621606279729566 180.7,-2.849266747359622 180.8,-2.8363447456337827 180.9,-2.8233947503303862 181.0,-2.8104168892606545 181.1,-2.797411290510837 181.2,-2.784378082440943 181.3,-2.7713173936834674 181.4,-2.7582293531421485 181.5,-2.7451140899906568 181.6,-2.7319717336713483 181.7,-2.718802413893966 181.8,-2.7056062606343803 181.9,-2.692383404133303 182.0,-2.6791339748949854 182.1,-2.665858103685946 182.2,-2.6525559215336743 182.3,-2.6392275597253296 182.4,-2.625873149806477 182.5,-2.6124928235797436 182.6,-2.599086713103547 182.7,-2.5856549506907864 182.8,-2.572197668907534 182.9,-2.558715000571727 183.0,-2.5452070787518597 183.1,-2.531674036765667 183.2,-2.518116008178805 183.3,-2.5045331268035476 183.4,-2.490925526697453 183.5,-2.4772933421620373 183.6,-2.4636367077414585 183.7,-2.4499557582211846 183.8,-2.436250628626664 183.9,-2.422521454221993 184.0,-2.4087683705085805 184.1,-2.394991513223806 184.2,-2.3811910183396976 184.3,-2.3673670220615595 184.4,-2.3535196608266626 184.5,-2.3396490713028677 184.6,-2.325755390387293 184.7,-2.3118387552049615 184.8,-2.2978993031074424 184.9,-2.2839371716715013 185.0,-2.2699524986977346 185.1,-2.2559454222092272 185.2,-2.241916080450164 185.3,-2.227864611884481 185.4,-2.2137911551945084 185.5,-2.199695849279577 185.6,-2.185578833254667 185.7,-2.171440246449026 185.8,-2.157280228404791 185.9,-2.143098918875643 186.0,-2.128896457825365 186.1,-2.1146729854265187 186.2,-2.100428642059035 186.3,-2.086163568308827 186.4,-2.071877904966422 186.5,-2.057571793025546 186.6,-2.0432453736817484 186.7,-2.028898788331004 186.8,-2.0145321785683103 186.9,-2.0001456861863214 187.0,-1.9857394531739017 187.1,-1.9713136217147587 187.2,-1.9568683341860167 187.3,-1.9424037331568318 187.4,-1.9279199613869848 187.5,-1.913417161825452 187.6,-1.8988954776090095 187.7,-1.884355052060814 187.8,-1.8697960286889996 187.9,-1.8552185511852537 188.0,-1.8406227634233894 188.1,-1.8260088094579394 188.2,-1.8113768335227296 188.3,-1.7967269800294554 188.4,-1.7820593935662565 188.5,-1.7673742188962895 188.6,-1.752671600956296 188.7,-1.7379516848551868 188.8,-1.7232146158725836 188.9,-1.708460539457416 189.0,-1.693689601226457 189.1,-1.6789019469629043 189.2,-1.6640977226149354 189.3,-1.6492770742942675 189.4,-1.6344401482747164 189.5,-1.619587090990748 189.6,-1.604718049036049 189.7,-1.5898331691620573 189.8,-1.5749325982765234 189.9,-1.5600164834420744 190.0,-1.5450849718747381 190.1,-1.5301382109425057 190.2,-1.5151763481638727 190.3,-1.5001995312063852 190.4,-1.4852079078851752 190.5,-1.4702016261615214 190.6,-1.4551808341413617 190.7,-1.4401456800738495 190.8,-1.4250963123498808 190.9,-1.410032879500648 191.0,-1.3949555301961483 191.1,-1.3798644132437317 191.2,-1.36475967758663 191.3,-1.349641472302478 191.4,-1.334509946601875 191.5,-1.3193652498268669 191.6,-1.304207531449488 191.7,-1.2890369410703038 191.8,-1.273853628416912 191.9,-1.2586577433424873 192.0,-1.2434494358242767 192.1,-1.2282288559621355 192.2,-1.2129961539770375 192.3,-1.1977514802096063 192.4,-1.1824949851186215 192.5,-1.1672268192795259 192.6,-1.1519471333829572 192.7,-1.1366560782332376 192.8,-1.1213538047469078 192.9,-1.1060404639512385 193.0,-1.0907162069827165 193.1,-1.0753811850855672 193.2,-1.0600355496102745 193.3,-1.0446794520120564 193.4,-1.0293130438494056 193.5,-1.0139364767825623 193.6,-0.9985499025720359 193.7,-0.983153473077102 193.8,-0.9677473402543041 193.9,-0.9523316561559532 194.0,-0.9369065729286234 194.1,-0.9214722428116678 194.2,-0.906028818135689 194.3,-0.8905764513210495 194.4,-0.8751152948763801 194.5,-0.8596455013970484 194.6,-0.844167223563671 194.7,-0.8286806141406011 194.8,-0.8131858259744217 194.9,-0.7976830119924317 195.0,-0.7821723252011556 195.1,-0.7666539186848054 195.2,-0.7511279456037884 195.3,-0.7355945591931866 195.4,-0.7200539127612615 195.5,-0.704506159687915 195.6,-0.6889514534231929 195.7,-0.6733899474857665 195.8,-0.6578217954614127 195.9,-0.6422471510015153 196.0,-0.6266661678215233 196.1,-0.6110789996994502 196.2,-0.5954858004743526 196.3,-0.5798867240448075 196.4,-0.56428192436741 196.5,-0.5486715554552288 196.6,-0.5330557713763031 196.7,-0.5174347262521127 196.8,-0.5018085742560711 196.9,-0.4861774696119942 197.0,-0.4705415665925745 197.1,-0.4549010195178535 197.2,-0.4392559827537208 197.3,-0.4236066107103687 197.4,-0.4079530578407902 197.5,-0.3922954786392281 197.6,-0.3766340276396636 197.7,-0.36096885941430396 197.8,-0.34530012857202647 197.9,-0.32962798975688773 198.0,-0.3139525976465663 198.1,-0.2982741069508539 198.2,-0.2825926724101285 198.3,-0.2669084487938047 198.4,-0.2512215908988511 198.5,-0.2355322535482132 198.6,-0.21984059158932537 198.7,-0.20414675989255182 198.8,-0.18845091334967107 198.9,-0.1727532068723607 199.0,-0.1570537953906418 199.1,-0.14135283385136757 199.2,-0.12565047721668968 199.3,-0.1099468804625288 199.4,-0.09424219857704069 199.5,-0.07853658655910416 199.6,-0.06283019941676479 199.7,-0.04712319216572277 199.8,-0.03141571982779403 199.9,-0.015707937429398064 200.0,-1.2246467991473533e-15 200.1,0.015707937429395614 200.2,0.03141571982779158 200.3,0.047123192165720314 200.4,0.06283019941676235 200.5,0.07853658655910171 200.6,0.09424219857703824 200.7,0.10994688046252192 200.8,0.12565047721668723 200.9,0.14135283385136513 201.0,0.15705379539063935 201.1,0.17275320687235823 201.2,0.18845091334967307 201.3,0.20414675989254938 201.4,0.21984059158932295 201.5,0.23553225354821075 201.6,0.2512215908988442 201.7,0.2669084487937978 201.8,0.28259267241012154 201.9,0.2982741069508515 202.0,0.3139525976465639 202.1,0.3296279897568898 202.2,0.3453001285720285 202.3,0.36096885941430595 202.4,0.3766340276396656 202.5,0.39229547863922126 202.6,0.40795305784078334 202.7,0.4236066107103619 202.8,0.43925598275371397 202.9,0.4549010195178466 203.0,0.4705415665925721 203.1,0.48617746961199626 203.2,0.5018085742560731 203.3,0.5174347262521146 203.4,0.5330557713763006 203.5,0.5486715554552264 203.6,0.5642819243674075 203.7,0.5798867240448006 203.8,0.5954858004743458 203.9,0.6110789996994478 204.0,0.6266661678215208 204.1,0.6422471510015129 204.2,0.6578217954614102 204.3,0.6733899474857641 204.4,0.6889514534231905 204.5,0.7045061596879125 204.6,0.7200539127612591 204.7,0.7355945591931843 204.8,0.751127945603786 204.9,0.7666539186848029 205.0,0.7821723252011531 205.1,0.7976830119924293 205.2,0.8131858259744149 205.3,0.8286806141405988 205.4,0.8441672235636687 205.5,0.8596455013970461 205.6,0.8751152948763775 205.7,0.8905764513210513 205.8,0.9060288181356866 205.9,0.9214722428116653 206.0,0.936906572928621 206.1,0.9523316561559464 206.2,0.9677473402542973 206.3,0.9831534730770997 206.4,0.9985499025720335 206.5,1.0139364767825598 206.6,1.0293130438494074 206.7,1.0446794520120584 206.8,1.0600355496102765 206.9,1.0753811850855648 207.0,1.0907162069827097 207.1,1.1060404639512318 207.2,1.121353804746901 207.3,1.1366560782332307 207.4,1.1519471333829505 207.5,1.1672268192795279 207.6,1.1824949851186233 207.7,1.1977514802096083 207.8,1.2129961539770395 207.9,1.228228855962133 208.0,1.2434494358242745 208.1,1.2586577433424806 208.2,1.2738536284169053 208.3,1.289036941070297 208.4,1.3042075314494856 208.5,1.3193652498268647 208.6,1.334509946601877 208.7,1.3496414723024799 208.8,1.3647596775866278 208.9,1.3798644132437294 209.0,1.3949555301961458 209.1,1.4100328795006458 209.2,1.425096312349874 209.3,1.4401456800738472 209.4,1.4551808341413595 209.5,1.470201626161519 209.6,1.485207907885173 209.7,1.5001995312063785 209.8,1.5151763481638705 209.9,1.5301382109425032 210.0,1.545084971874736 210.1,1.5600164834420722 210.2,1.574932598276525 210.3,1.5898331691620549 210.4,1.6047180490360469 210.5,1.6195870909907453 210.6,1.6344401482747097 210.7,1.6492770742942608 210.8,1.6640977226149332 210.9,1.678901946962902 211.0,1.6936896012264548 211.1,1.708460539457418 211.2,1.7232146158725856 211.3,1.7379516848551846 211.4,1.7526716009562935 211.5,1.767374218896283 211.6,1.78205939356625 211.7,1.7967269800294492 211.8,1.8113768335227274 211.9,1.8260088094579372 212.0,1.840622763423391 212.1,1.8552185511852555 212.2,1.8697960286890016 212.3,1.8843550520608159 212.4,1.898895477609003 212.5,1.9134171618254456 212.6,1.9279199613869786 212.7,1.9424037331568256 212.8,1.9568683341860102 212.9,1.9713136217147564 213.0,1.9857394531739034 213.1,2.000145686186323 213.2,2.014532178568312 213.3,2.0288987883310017 213.4,2.043245373681746 213.5,2.0575717930255437 213.6,2.0718779049664158 213.7,2.0861635683088204 213.8,2.1004286420590326 213.9,2.114672985426517 214.0,2.1288964578253626 214.1,2.1430989188756406 214.2,2.157280228404793 214.3,2.171440246449024 214.4,2.185578833254665 214.5,2.199695849279575 214.6,2.213791155194506 214.7,2.227864611884483 214.8,2.241916080450162 214.9,2.255945422209225 215.0,2.269952498697733 215.1,2.2839371716714956 215.2,2.297899303107436 215.3,2.311838755204959 215.4,2.325755390387291 215.5,2.3396490713028655 215.6,2.3535196608266644 215.7,2.3673670220615612 215.8,2.3811910183396954 215.9,2.394991513223804 216.0,2.4087683705085743 216.1,2.422521454221987 216.2,2.436250628626658 216.3,2.4499557582211824 216.4,2.4636367077414563 216.5,2.477293342162039 216.6,2.490925526697455 216.7,2.5045331268035493 216.8,2.5181160081788034 216.9,2.531674036765661 217.0,2.545207078751854 217.1,2.558715000571721 217.2,2.5721976689075277 217.3,2.5856549506907847 217.4,2.599086713103549 217.5,2.6124928235797453 217.6,2.6258731498064787 217.7,2.639227559725331 217.8,2.6525559215336725 217.9,2.665858103685941 218.0,2.67913397489498 218.1,2.6923834041332966 218.2,2.7056062606343745 218.3,2.718802413893964 218.4,2.731971733671346 218.5,2.745114089990659 218.6,2.7582293531421502 218.7,2.7713173936834687 218.8,2.7843780824409414 218.9,2.7974112905108353 219.0,2.8104168892606527 219.1,2.8233947503303805 219.2,2.836344745633777 219.3,2.84926674735962 219.4,2.8621606279729543 219.5,2.8750262602163925 219.6,2.8878635171113363 219.7,2.9006722719592446 219.8,2.913452398342881 219.9,2.9262037701275503 220.0,2.9389262614623646 220.1,2.951619746781474 220.2,2.964284100805297 220.3,2.9769191985417747 220.4,2.9895249152875936 220.5,3.002101126629419 220.6,3.0146477084451213 220.7,3.027164536905004 220.8,3.039651488473027 220.9,3.052108439908012 221.0,3.0645352682648843 221.1,3.0769318508958583 221.2,3.089298065451672 221.3,3.1016337898827793 221.4,3.113938902440561 221.5,3.126213281678524 221.6,3.1384568064534997 221.7,3.1506693559268415 221.8,3.1628508095656214 221.9,3.1750010471438053 222.0,3.18711994874345 222.1,3.1992073947558923 222.2,3.2112632658829217 222.3,3.2232874431379557 222.4,3.2352798078472196 222.5,3.2472402416509154 222.6,3.2591686265043904 222.7,3.271064844679301 222.8,3.2829287787647843 222.9,3.2947603116685857 223.0,3.3065593266182596 223.1,3.318325707162292 223.2,3.3300593371712575 223.3,3.341760100838967 223.4,3.353427882683601 223.5,3.365062567548863 223.6,3.3766640406051183 223.7,3.3882321873505066 223.8,3.3997668936120973 223.9,3.4112680455469824 224.0,3.422735529643443 224.1,3.43416923272204 224.2,3.4455690419367406 224.3,3.4569348447760326 224.4,3.4682665290640244 224.5,3.479563982961571 224.6,3.4908270949673588 224.7,3.5020557539190267 224.8,3.5132498489942465 224.9,3.524409269711807 225.0,3.535533905932737 225.1,3.5466236478613675 225.2,3.5576783860464243 225.3,3.5686980113821063 225.4,3.5796824151091555 225.5,3.590631488815946 225.6,3.601545124439536 225.7,3.6124232142667494 225.8,3.623265650935233 225.9,3.634072327434513 226.0,3.644843137107056 226.1,3.655577973649318 226.2,3.666276731112797 226.3,3.676939303905079 226.4,3.687565586790871 226.5,3.6981554748930496 226.6,3.7087088636936967 226.7,3.719225649035125 226.8,3.72970572712091 226.9,3.740148994516911 227.0,3.7505553481522957 227.1,3.7609246853205542 227.2,3.7712569036805155 227.3,3.781551901257361 227.4,3.7918095764436104 227.5,3.802029828000155 227.6,3.8122125550572394 227.7,3.8223576571154574 227.8,3.8324650340467477 227.9,3.8425345860953812 228.0,3.8525662138789434 228.1,3.862559818389319 228.2,3.8725153009936655 228.3,3.882432563435394 228.4,3.892311507835118 228.5,3.9021520366916485 228.6,3.91195405288294 228.7,3.921717459667049 228.8,3.931442160683096 228.9,3.9411280599522005 229.0,3.9507750618784487 229.1,3.9603830712498316 229.2,3.9699519932391727 229.3,3.9794817334050796 229.4,3.988972197692855 229.5,3.9984232924354526 229.6,4.007834924354381 229.7,4.017207000560637 229.8,4.02653942855561 229.9,4.035832116232001 230.0,4.045084971874739 230.1,4.054297904161869 230.2,4.063470822165465 230.3,4.0726036353525465 230.4,4.081696253585919 230.5,4.090748587125116 230.6,4.099760546627261 230.7,4.108732043147949 230.8,4.117662988142136 230.9,4.126553293464999 231.0,4.13540287137281 231.1,4.14421163452381 231.2,4.152979495979063 231.3,4.1617063692033165 231.4,4.170392168065855 231.5,4.179036806841349 231.6,4.187640200210707 231.7,4.196202263261906 231.8,4.2047229114908475 231.9,4.213202060802162 232.0,4.221639627510076 232.1,4.2300355283392115 232.2,4.238389680425415 232.3,4.2467020013165815 232.4,4.254972408973458 232.5,4.263200821770459 232.6,4.2713871584964735 232.7,4.279531338355662 232.8,4.2876332809682625 232.9,4.295692906371363 233.0,4.303710135019719 233.1,4.3116848877865195 233.2,4.319617085964175 233.3,4.327506651265093 233.4,4.335353505822448 233.5,4.343157572190954 233.6,4.350918773347626 233.7,4.358637032692541 233.8,4.366312274049601 233.9,4.3739444216672645 234.0,4.381533400219318 234.1,4.389079134805607 234.2,4.39658155095278 234.3,4.404040574615019 234.4,4.4114561321747665 234.5,4.418828150443464 234.6,4.4261565566622725 234.7,4.433441278502778 234.8,4.440682244067723 234.9,4.447879381891689 235.0,4.455032620941839 235.1,4.462141890618589 235.2,4.469207120756317 235.3,4.476228241624058 235.4,4.483205183926181 235.5,4.490137878803079 235.6,4.497026257831856 235.7,4.503870253026989 235.8,4.5106697968410145 235.9,4.517424822165173 236.0,4.5241352623300966 236.1,4.530801051106447 236.2,4.537422122705583 236.3,4.543998411780202 236.4,4.55052985342498 236.5,4.557016383177227 236.6,4.563457937017514 236.7,4.569854451370306 236.8,4.576205863104587 236.9,4.582512109534489 237.0,4.588773128419905 237.1,4.594988857967105 237.2,4.60115923682935 237.3,4.6072842041074935 237.4,4.613363699350575 237.5,4.619397662556434 237.6,4.6253860341722906 237.7,4.631328755095333 237.8,4.637225766673306 237.9,4.643077010705086 238.0,4.648882429441255 238.1,4.654641965584677 238.2,4.660355562291053 238.3,4.666023163169494 238.4,4.671644712283061 238.5,4.677220154149336 238.6,4.682749433740962 238.7,4.688232496486178 238.8,4.693669288269371 238.9,4.699059755431597 239.0,4.704403844771125 239.1,4.709701503543951 239.2,4.71495267946432 239.3,4.7201573207052485 239.4,4.725315375899024 239.5,4.730426794137727 239.6,4.735491524973721 239.7,4.740509518420159 239.8,4.745480724951473 239.9,4.75040509550386 240.0,4.755282581475766 240.1,4.760113134728381 240.2,4.764896707586093 240.3,4.769633252836968 240.4,4.774322723733214 240.5,4.77896507399165 240.6,4.783560257794152 240.7,4.78810822978811 240.8,4.792608945086881 240.9,4.797062359270215 241.0,4.801468428384716 241.1,4.80582710894426 241.2,4.810138357930428 241.3,4.814402132792938 241.4,4.818618391450048 241.5,4.82278709228899 241.6,4.826908194166368 241.7,4.830981656408572 241.8,4.835007438812176 241.9,4.838985501644328 242.0,4.842915805643156 242.1,4.846798312018146 242.2,4.850632982450529 242.3,4.8544197790936545 242.4,4.858158664573368 242.5,4.861849601988382 242.6,4.865492554910632 242.7,4.869087487385643 242.8,4.872634363932886 242.9,4.876133149546117 243.0,4.879583809693737 243.1,4.882986310319123 243.2,4.8863406178409665 243.3,4.889646699153609 243.4,4.89290452162736 243.5,4.896114053108828 243.6,4.899275261921233 243.7,4.902388116864721 243.8,4.90545258721667 243.9,4.908468642731995 244.0,4.911436253643443 244.1,4.914355390661896 244.2,4.917226024976648 244.3,4.920048128255699 244.4,4.922821672646026 244.5,4.9255466307738685 244.6,4.928222975744989 244.7,4.9308506811449435 244.8,4.9334297210393405 244.9,4.9359600699740955 245.0,4.938441702975688 245.1,4.940874595551402 245.2,4.94325872368957 245.3,4.94559406385981 245.4,4.947880593013255 245.5,4.950118288582789 245.6,4.952307128483256 245.7,4.9544470911116925 245.8,4.956538155347533 245.9,4.958580300552814 246.0,4.960573506572389 246.1,4.962517753734118 246.2,4.964413022849068 246.3,4.966259295211698 246.4,4.968056552600043 246.5,4.969804777275899 246.6,4.971503951984994 246.7,4.973154059957162 246.8,4.9747550849065005 246.9,4.976307011031541 247.0,4.9778098230154 247.1,4.979263506025928 247.2,4.980668045715862 247.3,4.982023428222963 247.4,4.983329640170149 247.5,4.9845866686656395 247.6,4.98579450130307 247.7,4.986953126161618 247.8,4.9880625318061265 247.9,4.989122707287207 248.0,4.990133642141358 248.1,4.991095326391059 248.2,4.992007750544875 248.3,4.992870905597549 248.4,4.993684783030087 248.5,4.99444937480985 248.6,4.995164673390623 248.7,4.9958306717127 248.8,4.996447363202946 248.9,4.997014741774865 249.0,4.997532801828657 249.1,4.998001538251283 249.2,4.9984209464165 249.3,4.99879102218492 249.4,4.999111761904045 249.5,4.999383162408303 249.6,4.99960522101908 249.7,4.999777935544749 249.8,4.9999013042806855 249.9,4.999975326009291 250.0,5.0 250.1,4.999975326009291 250.2,4.9999013042806855 250.3,4.999777935544749 250.4,4.99960522101908 250.5,4.999383162408303 250.6,4.999111761904046 250.7,4.99879102218492 250.8,4.9984209464165 250.9,4.998001538251283 251.0,4.997532801828657 251.1,4.997014741774865 251.2,4.996447363202947 251.3,4.9958306717127 251.4,4.995164673390623 251.5,4.99444937480985 251.6,4.993684783030088 251.7,4.992870905597549 251.8,4.992007750544875 251.9,4.991095326391059 252.0,4.990133642141358 252.1,4.9891227072872075 252.2,4.9880625318061265 252.3,4.986953126161619 252.4,4.98579450130307 252.5,4.98458666866564 252.6,4.98332964017015 252.7,4.982023428222963 252.8,4.980668045715862 252.9,4.979263506025928 253.0,4.9778098230154 253.1,4.976307011031541 253.2,4.9747550849065005 253.3,4.973154059957162 253.4,4.971503951984994 253.5,4.969804777275899 253.6,4.968056552600043 253.7,4.966259295211698 253.8,4.964413022849068 253.9,4.962517753734119 254.0,4.9605735065723895 254.1,4.958580300552814 254.2,4.956538155347533 254.3,4.954447091111694 254.4,4.952307128483256 254.5,4.950118288582789 254.6,4.947880593013255 254.7,4.94559406385981 254.8,4.943258723689571 254.9,4.940874595551402 255.0,4.938441702975688 255.1,4.9359600699740955 255.2,4.9334297210393405 255.3,4.930850681144944 255.4,4.9282229757449905 255.5,4.92554663077387 255.6,4.922821672646027 255.7,4.9200481282557 255.8,4.917226024976648 255.9,4.914355390661895 256.0,4.911436253643443 256.1,4.908468642731994 256.2,4.90545258721667 256.3,4.9023881168647225 256.4,4.899275261921235 256.5,4.896114053108829 256.6,4.8929045216273614 256.7,4.8896466991536105 256.8,4.8863406178409665 256.9,4.882986310319125 257.0,4.879583809693736 257.1,4.876133149546117 257.2,4.872634363932886 257.3,4.869087487385645 257.4,4.865492554910634 257.5,4.861849601988384 257.6,4.858158664573368 257.7,4.8544197790936545 257.8,4.850632982450528 257.9,4.846798312018149 258.0,4.842915805643155 258.1,4.838985501644327 258.2,4.835007438812175 258.3,4.830981656408574 258.4,4.8269081941663705 258.5,4.822787092288989 258.6,4.818618391450047 258.7,4.814402132792938 258.8,4.810138357930429 258.9,4.80582710894426 259.0,4.801468428384715 259.1,4.797062359270214 259.2,4.79260894508688 259.3,4.788108229788112 259.4,4.783560257794154 259.5,4.77896507399165 259.6,4.774322723733214 259.7,4.769633252836967 259.8,4.764896707586094 259.9,4.760113134728384 260.0,4.755282581475768 260.1,4.75040509550386 260.2,4.745480724951474 260.3,4.740509518420159 260.4,4.735491524973724 260.5,4.730426794137726 260.6,4.725315375899023 260.7,4.7201573207052485 260.8,4.714952679464322 260.9,4.709701503543954 261.0,4.704403844771129 261.1,4.699059755431599 261.2,4.693669288269372 261.3,4.688232496486177 261.4,4.682749433740964 261.5,4.677220154149336 261.6,4.67164471228306 261.7,4.666023163169493 261.8,4.6603555622910555 261.9,4.65464196558468 262.0,4.648882429441258 262.1,4.643077010705085 262.2,4.637225766673309 262.3,4.631328755095333 262.4,4.625386034172293 262.5,4.619397662556434 262.6,4.613363699350574 262.7,4.607284204107493 262.8,4.601159236829353 262.9,4.594988857967108 263.0,4.588773128419904 263.1,4.5825121095344885 263.2,4.576205863104587 263.3,4.569854451370306 263.4,4.5634579370175175 263.5,4.557016383177227 263.6,4.550529853424979 263.7,4.543998411780201 263.8,4.537422122705586 263.9,4.530801051106451 264.0,4.5241352623300966 264.1,4.517424822165173 264.2,4.510669796841014 264.3,4.50387025302699 264.4,4.497026257831855 264.5,4.490137878803079 264.6,4.483205183926181 264.7,4.476228241624059 264.8,4.469207120756317 264.9,4.462141890618591 265.0,4.455032620941838 265.1,4.447879381891689 265.2,4.440682244067722 265.3,4.433441278502783 265.4,4.426156556662277 265.5,4.418828150443468 265.6,4.411456132174768 265.7,4.40404057461502 265.8,4.39658155095278 265.9,4.389079134805611 266.0,4.3815334002193165 266.1,4.373944421667264 266.2,4.3663122740496005 266.3,4.358637032692545 266.4,4.350918773347629 266.5,4.343157572190957 266.6,4.335353505822448 266.7,4.3275066512650975 266.8,4.319617085964175 266.9,4.311684887786523 267.0,4.303710135019718 267.1,4.295692906371362 267.2,4.287633280968262 267.3,4.279531338355666 267.4,4.271387158496477 267.5,4.263200821770459 267.6,4.254972408973457 267.7,4.246702001316586 267.8,4.238389680425415 267.9,4.230035528339215 268.0,4.221639627510076 268.1,4.213202060802161 268.2,4.204722911490847 268.3,4.19620226326191 268.4,4.18764020021071 268.5,4.179036806841349 268.6,4.170392168065854 268.7,4.161706369203316 268.8,4.1529794959790625 268.9,4.144211634523814 269.0,4.1354028713728095 269.1,4.126553293464999 269.2,4.117662988142138 269.3,4.108732043147948 269.4,4.099760546627264 269.5,4.090748587125115 269.6,4.0816962535859185 269.7,4.0726036353525465 269.8,4.06347082216547 269.9,4.054297904161867 270.0,4.045084971874738 270.1,4.035832116232003 270.2,4.026539428555612 270.3,4.017207000560635 270.4,4.007834924354386 270.5,3.9984232924354512 270.6,3.9889721976928545 270.7,3.979481733405079 270.8,3.969951993239177 270.9,3.960383071249836 271.0,3.950775061878453 271.1,3.941128059952197 271.2,3.9314421606830976 271.3,3.9217174596670485 271.4,3.9119540528829444 271.5,3.902152036691648 271.6,3.8923115078351165 271.7,3.8824325634353936 271.8,3.8725153009936704 271.9,3.862559818389324 272.0,3.852566213878943 272.1,3.8425345860953803 272.2,3.8324650340467525 272.3,3.8223576571154565 272.4,3.812212555057244 272.5,3.802029828000154 272.6,3.7918095764436095 272.7,3.7815519012573606 272.8,3.7712569036805204 272.9,3.760924685320559 273.0,3.750555348152295 273.1,3.74014899451691 273.2,3.729705727120915 273.3,3.7192256490351245 273.4,3.7087088636937016 273.5,3.6981554748930483 273.6,3.6875655867908703 273.7,3.6769393039050806 273.8,3.6662767311127964 273.9,3.655577973649323 274.0,3.644843137107055 274.1,3.634072327434512 274.2,3.623265650935232 274.3,3.612423214266749 274.4,3.6015451244395407 274.5,3.590631488815945 274.6,3.5796824151091573 274.7,3.568698011382109 274.8,3.5576783860464234 274.9,3.5466236478613733 275.0,3.5355339059327355 275.1,3.5244092697118057 275.2,3.5132498489942456 275.3,3.5020557539190316 275.4,3.490827094967364 275.5,3.479563982961573 275.6,3.468266529064021 275.7,3.4569348447760353 275.8,3.4455690419367397 275.9,3.434169232722046 276.0,3.422735529643442 276.1,3.411268045546981 276.2,3.399766893612096 276.3,3.3882321873505123 276.4,3.3766640406051236 276.5,3.365062567548869 276.6,3.353427882683597 276.7,3.341760100838969 276.8,3.330059337171256 276.9,3.318325707162298 277.0,3.3065593266182587 277.1,3.294760311668585 277.2,3.2829287787647834 277.3,3.271064844679307 277.4,3.259168626504396 277.5,3.2472402416509145 277.6,3.2352798078472182 277.7,3.223287443137961 277.8,3.2112632658829203 277.9,3.199207394755898 278.0,3.1871199487434487 278.1,3.175001047143804 278.2,3.162850809565624 278.3,3.1506693559268406 278.4,3.1384568064535054 278.5,3.1262132816785226 278.6,3.11393890244056 278.7,3.1016337898827784 278.8,3.089298065451671 278.9,3.076931850895864 279.0,3.064535268264883 279.1,3.052108439908014 279.2,3.0396514884730292 279.3,3.0271645369050026 279.4,3.0146477084451275 279.5,3.0021011266294177 279.6,2.9895249152875927 279.7,2.976919198541774 279.8,2.9642841008052963 279.9,2.951619746781473 280.0,2.938926261462367 280.1,2.926203770127546 280.2,2.9134523983428835 280.3,2.9006722719592437 280.4,2.8878635171113425 280.5,2.875026260216391 280.6,2.8621606279729535 280.7,2.8492667473596183 280.8,2.836344745633783 280.9,2.8233947503303867 281.0,2.8104168892606554 281.1,2.797411290510831 281.2,2.7843780824409436 281.3,2.771317393683468 281.4,2.7582293531421564 281.5,2.745114089990657 281.6,2.731971733671345 281.7,2.718802413893963 281.8,2.7056062606343807 281.9,2.6923834041333032 282.0,2.6791339748949863 282.1,2.66585810368594 282.2,2.6525559215336747 282.3,2.63922755972533 282.4,2.625873149806485 282.5,2.612492823579744 282.6,2.5990867131035476 282.7,2.5856549506907873 282.8,2.5721976689075268 282.9,2.5587150005717274 283.0,2.5452070787518526 283.1,2.5316740367656596 283.2,2.5181160081788097 283.3,2.504533126803548 283.4,2.4909255266974615 283.5,2.477293342162038 283.6,2.463636707741459 283.7,2.449955758221185 283.8,2.4362506286266568 283.9,2.4225214542219935 284.0,2.4087683705085734 284.1,2.3949915132238027 284.2,2.381191018339694 284.3,2.36736702206156 284.4,2.353519660826671 284.5,2.339649071302868 284.6,2.325755390387286 284.7,2.311838755204962 284.8,2.2978993031074353 284.9,2.2839371716715022 285.0,2.2699524986977315 285.1,2.2559454222092237 285.2,2.2419160804501606 285.3,2.2278646118844816 285.4,2.213791155194509 285.5,2.1996958492795775 285.6,2.1855788332546595 285.7,2.171440246449027 285.8,2.1572802284047916 285.9,2.1430989188756473 286.0,2.1288964578253617 286.1,2.1146729854265156 286.2,2.1004286420590317 286.3,2.0861635683088275 286.4,2.0718779049664224 286.5,2.057571793025547 286.6,2.043245373681741 286.7,2.0288987883310043 286.8,2.014532178568311 286.9,2.0001456861863303 287.0,1.9857394531739023 287.1,1.971313621714755 287.2,1.956868334186013 287.3,1.9424037331568242 287.4,1.9279199613869855 287.5,1.9134171618254525 287.6,1.898895477609002 287.7,1.8843550520608188 287.8,1.8697960286890003 287.9,1.8552185511852624 288.0,1.8406227634233898 288.1,1.8260088094579399 288.2,1.8113768335227305 288.3,1.7967269800294479 288.4,1.7820593935662572 288.5,1.7673742188962818 288.6,1.7526716009562924 288.7,1.7379516848551915 288.8,1.723214615872584 288.9,1.7084605394574248 289.0,1.6936896012264577 289.1,1.6789019469628965 289.2,1.6640977226149358 289.3,1.6492770742942597 289.4,1.634440148274717 289.5,1.6195870909907442 289.6,1.6047180490360455 289.7,1.5898331691620537 289.8,1.5749325982765239 289.9,1.5600164834420835 290.0,1.545084971874739 290.1,1.5301382109424977 290.2,1.5151763481638734 290.3,1.5001995312063774 290.4,1.4852079078851799 290.5,1.4702016261615178 290.6,1.4551808341413581 290.7,1.4401456800738457 290.8,1.4250963123498814 290.9,1.4100328795006487 291.0,1.394955530196149 291.1,1.3798644132437237 291.2,1.3647596775866306 291.3,1.3496414723024786 291.4,1.3345099466018842 291.5,1.319365249826863 291.6,1.3042075314494843 291.7,1.2890369410702998 291.8,1.2738536284169124 291.9,1.2586577433424881 292.0,1.2434494358242774 292.1,1.2282288559621275 292.2,1.2129961539770424 292.3,1.197751480209607 292.4,1.1824949851186308 292.5,1.1672268192795268 292.6,1.1519471333829534 292.7,1.1366560782332338 292.8,1.1213538047468998 292.9,1.1060404639512391 293.0,1.0907162069827172 293.1,1.0753811850855635 293.2,1.0600355496102796 293.3,1.044679452012057 293.4,1.029313043849415 293.5,1.013936476782563 293.6,0.9985499025720278 293.7,0.9831534730771028 293.8,0.9677473402542959 293.9,0.9523316561559537 294.0,0.9369065729286197 294.1,0.9214722428116641 294.2,0.906028818135694 294.3,0.8905764513210501 294.4,0.8751152948763894 294.5,0.859645501397049 294.6,0.844167223563663 294.7,0.8286806141406018 294.8,0.8131858259744135 294.9,0.7976830119924367 295.0,0.7821723252011517 295.1,0.7666539186848015 295.2,0.7511279456037846 295.3,0.7355945591931872 295.4,0.7200539127612708 295.5,0.7045061596879155 295.6,0.6889514534231846 295.7,0.6733899474857672 295.8,0.657821795461409 295.9,0.6422471510015204 296.0,0.6266661678215195 296.1,0.6110789996994465 296.2,0.595485800474349 296.3,0.579886724044808 296.4,0.5642819243674106 296.5,0.5486715554552295 296.6,0.5330557713762949 296.7,0.5174347262521177 296.8,0.5018085742560716 296.9,0.48617746961200364 297.0,0.47054156659257074 297.1,0.45490101951784967 297.2,0.439255982753717 297.3,0.42360661071036926 297.4,0.40795305784079083 297.5,0.39229547863922876 297.6,0.3766340276396598 297.7,0.360968859414309 297.8,0.3453001285720271 297.9,0.3296279897568972 298.0,0.3139525976465669 298.1,0.29827410695084566 298.2,0.28259267241012465 298.3,0.2669084487937965 298.4,0.25122159089885177 298.5,0.23553225354821825 298.6,0.21984059158932157 298.7,0.20414675989255687 298.8,0.18845091334967168 298.9,0.17275320687237017 299.0,0.1570537953906424 299.1,0.1413528338513593 299.2,0.1256504772166903 299.3,0.10994688046252053 299.4,0.09424219857704573 299.5,0.07853658655910033 299.6,0.06283019941676096 299.7,0.047123192165727815 299.8,0.03141571982779464 299.9,0.015707937429407556 300.0,1.8369701987210296e-15 300.1,-0.015707937429403886 300.2,-0.03141571982779096 300.3,-0.04712319216572415 300.4,-0.0628301994167573 300.5,-0.07853658655910553 300.6,-0.09424219857704205 300.7,-0.10994688046252575 300.8,-0.12565047721668662 300.9,-0.14135283385135564 301.0,-0.15705379539063874 301.1,-0.17275320687236653 301.2,-0.18845091334966801 301.3,-0.2041467598925532 301.4,-0.21984059158931787 301.5,-0.23553225354821458 301.6,-0.25122159089884805 301.7,-0.26690844879380166 301.8,-0.282592672410121 301.9,-0.2982741069508509 302.0,-0.31395259764656325 302.1,-0.32962798975689356 302.2,-0.3453001285720234 302.3,-0.36096885941430534 302.4,-0.37663402763965614 302.5,-0.3922954786392251 302.6,-0.40795305784079605 302.7,-0.42360661071036565 302.8,-0.43925598275372213 302.9,-0.45490101951784606 303.0,-0.47054156659256713 303.1,-0.48617746961200003 303.2,-0.5018085742560681 303.3,-0.5174347262521141 303.4,-0.5330557713762911 303.5,-0.5486715554552258 303.6,-0.5642819243674158 303.7,-0.5798867240448045 303.8,-0.5954858004743541 303.9,-0.6110789996994428 304.0,-0.6266661678215159 304.1,-0.6422471510015166 304.2,-0.6578217954614052 304.3,-0.6733899474857635 304.4,-0.6889514534231811 304.5,-0.704506159687912 304.6,-0.7200539127612672 304.7,-0.7355945591931835 304.8,-0.7511279456037898 304.9,-0.7666539186847978 305.0,-0.7821723252011569 305.1,-0.7976830119924332 305.2,-0.8131858259744098 305.3,-0.8286806141405982 305.4,-0.8441672235636594 305.5,-0.8596455013970454 305.6,-0.8751152948763857 305.7,-0.8905764513210466 305.8,-0.9060288181356904 305.9,-0.9214722428116605 306.0,-0.9369065729286248 306.1,-0.9523316561559502 306.2,-0.9677473402543011 306.3,-0.9831534730770991 306.4,-0.9985499025720241 306.5,-1.0139364767825594 306.6,-1.0293130438494111 306.7,-1.0446794520120535 306.8,-1.060035549610276 306.9,-1.07538118508556 307.0,-1.0907162069827134 307.1,-1.1060404639512442 307.2,-1.1213538047469047 307.3,-1.13665607823323 307.4,-1.1519471333829499 307.5,-1.167226819279523 307.6,-1.182494985118627 307.7,-1.1977514802096032 307.8,-1.212996153977039 307.9,-1.228228855962124 308.0,-1.2434494358242738 308.1,-1.258657743342493 308.2,-1.2738536284169089 308.3,-1.289036941070305 308.4,-1.3042075314494808 308.5,-1.3193652498268595 308.6,-1.3345099466018806 308.7,-1.349641472302475 308.8,-1.364759677586627 308.9,-1.3798644132437201 309.0,-1.3949555301961452 309.1,-1.4100328795006536 309.2,-1.4250963123498779 309.3,-1.4401456800738508 309.4,-1.4551808341413544 309.5,-1.4702016261615225 309.6,-1.4852079078851765 309.7,-1.5001995312063738 309.8,-1.51517634816387 309.9,-1.5301382109424944 310.0,-1.5450849718747353 310.1,-1.5600164834420798 310.2,-1.5749325982765203 310.3,-1.5898331691620584 310.4,-1.604718049036042 310.5,-1.6195870909907488 310.6,-1.6344401482747135 310.7,-1.6492770742942644 310.8,-1.6640977226149325 310.9,-1.6789019469628932 311.0,-1.6936896012264544 311.1,-1.7084605394574215 311.2,-1.723214615872581 311.3,-1.7379516848551881 311.4,-1.7526716009562886 311.5,-1.7673742188962869 311.6,-1.7820593935662536 311.7,-1.7967269800294527 311.8,-1.8113768335227267 311.9,-1.8260088094579365 312.0,-1.8406227634233863 312.1,-1.855218551185259 312.2,-1.869796028688997 312.3,-1.8843550520608154 312.4,-1.8988954776089986 312.5,-1.9134171618254492 312.6,-1.9279199613869902 312.7,-1.942403733156829 312.8,-1.9568683341860096 312.9,-1.9713136217147518 313.0,-1.985739453173899 313.1,-2.0001456861863267 313.2,-2.0145321785683072 313.3,-2.0288987883310012 313.4,-2.0432453736817373 313.5,-2.0575717930255433 313.6,-2.0718779049664273 313.7,-2.086163568308824 313.8,-2.100428642059036 313.9,-2.1146729854265125 314.0,-2.128896457825358 314.1,-2.1430989188756437 314.2,-2.157280228404788 314.3,-2.1714402464490234 314.4,-2.185578833254656 314.5,-2.1996958492795744 314.6,-2.2137911551945133 314.7,-2.2278646118844785 314.8,-2.2419160804501654 314.9,-2.2559454222092206 315.0,-2.2699524986977364 315.1,-2.2839371716714987 315.2,-2.2978993031074317 315.3,-2.3118387552049584 315.4,-2.3257553903872825 315.5,-2.3396490713028646 315.6,-2.3535196608266675 315.7,-2.367367022061557 315.8,-2.3811910183396985 315.9,-2.3949915132237996 316.0,-2.408768370508578 316.1,-2.4225214542219904 316.2,-2.436250628626661 316.3,-2.449955758221182 316.4,-2.4636367077414483 316.5,-2.477293342162035 316.6,-2.490925526697458 316.7,-2.504533126803545 316.8,-2.518116008178807 316.9,-2.5316740367656565 317.0,-2.545207078751857 317.1,-2.5587150005717247 317.2,-2.572197668907531 317.3,-2.5856549506907838 317.4,-2.5990867131035444 317.5,-2.612492823579741 317.6,-2.625873149806482 317.7,-2.6392275597253265 317.8,-2.652555921533672 317.9,-2.6658581036859363 318.0,-2.6791339748949827 318.1,-2.6923834041333072 318.2,-2.705606260634377 318.3,-2.7188024138939597 318.4,-2.731971733671342 318.5,-2.7451140899906545 318.6,-2.758229353142154 318.7,-2.7713173936834643 318.8,-2.784378082440941 318.9,-2.7974112905108273 319.0,-2.8104168892606523 319.1,-2.8233947503303907 319.2,-2.83634474563378 319.3,-2.8492667473596227 319.4,-2.8621606279729503 319.5,-2.875026260216388 319.6,-2.88786351711134 319.7,-2.90067227195924 319.8,-2.91345239834288 319.9,-2.9262037701275423 320.0,-2.938926261462364 320.1,-2.9516197467814775 320.2,-2.9642841008052927 320.3,-2.976919198541778 320.4,-2.9895249152875896 320.5,-3.0021011266294217 320.6,-3.0146477084451244 320.7,-3.027164536905 320.8,-3.0396514884730266 320.9,-3.052108439908004 321.0,-3.0645352682648803 321.1,-3.0769318508958614 321.2,-3.0892980654516675 321.3,-3.1016337898827824 321.4,-3.113938902440557 321.5,-3.126213281678527 321.6,-3.1384568064535023 321.7,-3.150669355926845 321.8,-3.162850809565621 321.9,-3.1750010471437937 322.0,-3.1871199487434456 322.1,-3.199207394755895 322.2,-3.2112632658829177 322.3,-3.2232874431379583 322.4,-3.2352798078472156 322.5,-3.2472402416509185 322.6,-3.2591686265043935 322.7,-3.271064844679304 322.8,-3.2829287787647803 322.9,-3.2947603116685817 323.0,-3.306559326618256 323.1,-3.318325707162295 323.2,-3.3300593371712535 323.3,-3.3417601008389664 323.4,-3.3534278826835937 323.5,-3.365062567548866 323.6,-3.376664040605127 323.7,-3.3882321873505097 323.8,-3.3997668936120933 323.9,-3.4112680455469793 324.0,-3.422735529643439 324.1,-3.434169232722043 324.2,-3.4455690419367366 324.3,-3.456934844776032 324.4,-3.4682665290640182 324.5,-3.4795639829615705 324.6,-3.490827094967368 324.7,-3.5020557539190293 324.8,-3.513249848994249 324.9,-3.5244092697118035 325.0,-3.535533905932733 325.1,-3.5466236478613706 325.2,-3.5576783860464207 325.3,-3.5686980113821063 325.4,-3.5796824151091484 325.5,-3.5906314888159425 325.6,-3.601545124439538 325.7,-3.6124232142667463 325.8,-3.6232656509352354 325.9,-3.63407232743451 326.0,-3.6448431371070527 326.1,-3.655577973649327 326.2,-3.6662767311127937 326.3,-3.6769393039050846 326.4,-3.687565586790862 326.5,-3.6981554748930523 326.6,-3.7087088636936993 326.7,-3.7192256490351276 326.8,-3.729705727120913 326.9,-3.7401489945169075 327.0,-3.750555348152298 327.1,-3.760924685320557 327.2,-3.771256903680518 327.3,-3.7815519012573584 327.4,-3.7918095764436073 327.5,-3.802029828000152 327.6,-3.8122125550572363 327.7,-3.822357657115454 327.8,-3.832465034046745 327.9,-3.842534586095378 328.0,-3.8525662138789403 328.1,-3.8625598183893266 328.2,-3.872515300993662 328.3,-3.8824325634353967 328.4,-3.892311507835109 328.5,-3.902152036691651 328.6,-3.911954052882942 328.7,-3.921717459667051 328.8,-3.931442160683095 328.9,-3.9411280599522005 329.0,-3.950775061878451 329.1,-3.960383071249834 329.2,-3.9699519932391745 329.3,-3.979481733405077 329.4,-3.9889721976928523 329.5,-3.998423292435449 329.6,-4.007834924354389 329.7,-4.017207000560633 329.8,-4.026539428555615 329.9,-4.035832116231996 330.0,-4.045084971874731 330.1,-4.054297904161871 330.2,-4.063470822165462 330.3,-4.072603635352549 330.4,-4.081696253585917 330.5,-4.090748587125118 330.6,-4.099760546627262 330.7,-4.108732043147951 330.8,-4.117662988142136 330.9,-4.126553293464997 331.0,-4.135402871372808 331.1,-4.144211634523807 331.2,-4.152979495979061 331.3,-4.161706369203314 331.4,-4.1703921680658524 331.5,-4.179036806841347 331.6,-4.187640200210713 331.7,-4.196202263261903 331.8,-4.204722911490849 331.9,-4.213202060802155 332.0,-4.221639627510078 332.1,-4.230035528339213 332.2,-4.238389680425418 332.3,-4.246702001316584 332.4,-4.2549724089734555 332.5,-4.263200821770462 332.6,-4.271387158496475 332.7,-4.279531338355664 332.8,-4.28763328096826 332.9,-4.29569290637136 333.0,-4.303710135019716 333.1,-4.311684887786517 333.2,-4.319617085964173 333.3,-4.327506651265091 333.4,-4.335353505822447 333.5,-4.343157572190951 333.6,-4.350918773347631 333.7,-4.358637032692539 333.8,-4.366312274049603 333.9,-4.373944421667262 334.0,-4.38153340021932 334.1,-4.38907913480561 334.2,-4.3965815509527815 334.3,-4.404040574615018 334.4,-4.411456132174766 334.5,-4.418828150443466 334.6,-4.426156556662274 334.7,-4.433441278502781 334.8,-4.4406822440677205 334.9,-4.4478793818916875 335.0,-4.455032620941836 335.1,-4.462141890618594 335.2,-4.469207120756315 335.3,-4.476228241624062 335.4,-4.483205183926175 335.5,-4.490137878803074 335.6,-4.497026257831857 335.7,-4.503870253026989 335.8,-4.510669796841016 335.9,-4.517424822165172 336.0,-4.524135262330098 336.1,-4.530801051106449 336.2,-4.537422122705585 336.3,-4.5439984117802 336.4,-4.550529853424977 336.5,-4.557016383177225 336.6,-4.563457937017512 336.7,-4.569854451370304 336.8,-4.576205863104585 336.9,-4.582512109534487 337.0,-4.588773128419902 337.1,-4.59498885796711 337.2,-4.601159236829347 337.3,-4.607284204107494 337.4,-4.613363699350569 337.5,-4.619397662556436 337.6,-4.625386034172292 337.7,-4.631328755095334 337.8,-4.637225766673307 337.9,-4.643077010705083 338.0,-4.648882429441256 338.1,-4.654641965584679 338.2,-4.660355562291054 338.3,-4.666023163169491 338.4,-4.671644712283058 338.5,-4.677220154149334 338.6,-4.68274943374096 338.7,-4.688232496486176 338.8,-4.693669288269367 338.9,-4.699059755431596 339.0,-4.704403844771124 339.1,-4.709701503543956 339.2,-4.714952679464318 339.3,-4.72015732070525 339.4,-4.725315375899022 339.5,-4.730426794137728 339.6,-4.735491524973722 339.7,-4.74050951842016 339.8,-4.745480724951473 339.9,-4.750405095503859 340.0,-4.755282581475767 340.1,-4.760113134728382 340.2,-4.764896707586093 340.3,-4.769633252836966 340.4,-4.7743227237332135 340.5,-4.778965073991649 340.6,-4.783560257794155 340.7,-4.788108229788108 340.8,-4.792608945086882 340.9,-4.797062359270211 341.0,-4.801468428384712 341.1,-4.8058271089442615 341.2,-4.810138357930428 341.3,-4.814402132792939 341.4,-4.8186183914500464 341.5,-4.822787092288991 341.6,-4.82690819416637 341.7,-4.830981656408573 341.8,-4.835007438812175 341.9,-4.838985501644327 342.0,-4.8429158056431545 342.1,-4.846798312018145 342.2,-4.850632982450528 342.3,-4.854419779093654 342.4,-4.858158664573367 342.5,-4.861849601988381 342.6,-4.8654925549106345 342.7,-4.8690874873856425 342.8,-4.872634363932887 342.9,-4.876133149546116 343.0,-4.879583809693738 343.1,-4.882986310319123 343.2,-4.886340617840968 343.3,-4.889646699153609 343.4,-4.892904521627359 343.5,-4.896114053108828 343.6,-4.899275261921233 343.7,-4.902388116864722 343.8,-4.90545258721667 343.9,-4.908468642731993 344.0,-4.911436253643442 344.1,-4.914355390661894 344.2,-4.917226024976647 344.3,-4.920048128255697 344.4,-4.922821672646025 344.5,-4.925546630773868 344.6,-4.928222975744991 344.7,-4.9308506811449435 344.8,-4.933429721039341 344.9,-4.9359600699740955 345.0,-4.938441702975689 345.1,-4.940874595551403 345.2,-4.943258723689571 345.3,-4.945594063859809 345.4,-4.947880593013255 345.5,-4.950118288582788 345.6,-4.952307128483255 345.7,-4.9544470911116925 345.8,-4.956538155347532 345.9,-4.958580300552813 346.0,-4.960573506572389 346.1,-4.96251775373412 346.2,-4.964413022849067 346.3,-4.966259295211698 346.4,-4.968056552600041 346.5,-4.969804777275898 346.6,-4.971503951984995 346.7,-4.973154059957161 346.8,-4.9747550849065005 346.9,-4.976307011031541 347.0,-4.9778098230154 347.1,-4.979263506025928 347.2,-4.980668045715862 347.3,-4.982023428222962 347.4,-4.983329640170149 347.5,-4.9845866686656395 347.6,-4.985794501303069 347.7,-4.986953126161618 347.8,-4.988062531806126 347.9,-4.989122707287207 348.0,-4.990133642141357 348.1,-4.99109532639106 348.2,-4.992007750544874 348.3,-4.992870905597549 348.4,-4.993684783030087 348.5,-4.99444937480985 348.6,-4.995164673390623 348.7,-4.9958306717127 348.8,-4.996447363202946 348.9,-4.997014741774864 349.0,-4.997532801828658 349.1,-4.998001538251283 349.2,-4.9984209464165 349.3,-4.99879102218492 349.4,-4.999111761904045 349.5,-4.999383162408303 349.6,-4.99960522101908 349.7,-4.999777935544749 349.8,-4.9999013042806855 349.9,-4.999975326009291 350.0,-5.0 350.1,-4.999975326009291 350.2,-4.9999013042806855 350.3,-4.999777935544749 350.4,-4.99960522101908 350.5,-4.999383162408303 350.6,-4.999111761904045 350.7,-4.99879102218492 350.8,-4.9984209464165 350.9,-4.998001538251283 351.0,-4.997532801828658 351.1,-4.997014741774865 351.2,-4.996447363202947 351.3,-4.995830671712701 351.4,-4.995164673390624 351.5,-4.99444937480985 351.6,-4.993684783030087 351.7,-4.992870905597549 351.8,-4.992007750544874 351.9,-4.991095326391059 352.0,-4.990133642141358 352.1,-4.989122707287207 352.2,-4.9880625318061265 352.3,-4.986953126161618 352.4,-4.9857945013030704 352.5,-4.9845866686656395 352.6,-4.983329640170149 352.7,-4.982023428222962 352.8,-4.980668045715863 352.9,-4.979263506025929 353.0,-4.9778098230154 353.1,-4.976307011031542 353.2,-4.974755084906501 353.3,-4.973154059957163 353.4,-4.971503951984995 353.5,-4.9698047772758995 353.6,-4.968056552600041 353.7,-4.966259295211698 353.8,-4.964413022849068 353.9,-4.962517753734119 354.0,-4.960573506572389 354.1,-4.958580300552814 354.2,-4.956538155347533 354.3,-4.954447091111693 354.4,-4.952307128483257 354.5,-4.950118288582789 354.6,-4.947880593013255 354.7,-4.94559406385981 354.8,-4.943258723689571 354.9,-4.940874595551403 355.0,-4.938441702975689 355.1,-4.935960069974094 355.2,-4.933429721039342 355.3,-4.930850681144946 355.4,-4.928222975744992 355.5,-4.92554663077387 355.6,-4.922821672646026 355.7,-4.9200481282557 355.8,-4.917226024976648 355.9,-4.914355390661898 356.0,-4.911436253643443 356.1,-4.908468642731994 356.2,-4.90545258721667 356.3,-4.9023881168647225 356.4,-4.899275261921235 356.5,-4.89611405310883 356.6,-4.8929045216273614 356.7,-4.8896466991536105 356.8,-4.886340617840968 356.9,-4.882986310319125 357.0,-4.879583809693739 357.1,-4.876133149546115 357.2,-4.872634363932888 357.3,-4.869087487385643 357.4,-4.865492554910634 357.5,-4.861849601988382 357.6,-4.858158664573368 357.7,-4.854419779093656 357.8,-4.850632982450529 357.9,-4.846798312018149 358.0,-4.842915805643156 358.1,-4.838985501644328 358.2,-4.835007438812176 358.3,-4.830981656408574 358.4,-4.8269081941663705 358.5,-4.822787092288992 358.6,-4.81861839145005 358.7,-4.81440213279294 358.8,-4.810138357930432 358.9,-4.805827108944262 359.0,-4.801468428384718 359.1,-4.797062359270212 359.2,-4.79260894508688 359.3,-4.78810822978811 359.4,-4.783560257794154 359.5,-4.77896507399165 359.6,-4.774322723733214 359.7,-4.769633252836968 359.8,-4.764896707586094 359.9,-4.760113134728384 360.0,-4.755282581475769 360.1,-4.75040509550386 360.2,-4.745480724951474 360.3,-4.740509518420161 360.4,-4.735491524973724 360.5,-4.7304267941377285 360.6,-4.725315375899021 360.7,-4.720157320705251 360.8,-4.714952679464326 360.9,-4.709701503543954 361.0,-4.704403844771129 361.1,-4.6990597554315965 361.2,-4.693669288269372 361.3,-4.688232496486177 361.4,-4.682749433740964 361.5,-4.677220154149336 361.6,-4.67164471228306 361.7,-4.666023163169493 361.8,-4.6603555622910555 361.9,-4.65464196558468 362.0,-4.648882429441258 362.1,-4.643077010705088 362.2,-4.637225766673309 362.3,-4.6313287550953355 362.4,-4.625386034172293 362.5,-4.6193976625564375 362.6,-4.613363699350571 362.7,-4.607284204107493 362.8,-4.601159236829349 362.9,-4.594988857967108 363.0,-4.588773128419904 363.1,-4.5825121095344885 363.2,-4.57620586310459 363.3,-4.569854451370306 363.4,-4.5634579370175175 363.5,-4.557016383177227 363.6,-4.55052985342498 363.7,-4.543998411780202 363.8,-4.537422122705586 363.9,-4.530801051106451 364.0,-4.5241352623301 364.1,-4.517424822165177 364.2,-4.510669796841017 364.3,-4.503870253026994 364.4,-4.497026257831859 364.5,-4.490137878803079 364.6,-4.483205183926176 364.7,-4.47622824162406 364.8,-4.469207120756317 364.9,-4.462141890618592 365.0,-4.4550326209418385 365.1,-4.447879381891689 365.2,-4.440682244067722 365.3,-4.433441278502783 365.4,-4.426156556662277 365.5,-4.418828150443469 365.6,-4.411456132174768 365.7,-4.404040574615021 365.8,-4.396581550952784 365.9,-4.389079134805611 366.0,-4.381533400219322 366.1,-4.373944421667259 366.2,-4.366312274049606 366.3,-4.358637032692545 366.4,-4.3509187733476296 366.5,-4.343157572190958 366.6,-4.335353505822448 366.7,-4.3275066512650975 366.8,-4.319617085964175 366.9,-4.311684887786524 367.0,-4.303710135019719 367.1,-4.295692906371363 367.2,-4.2876332809682625 367.3,-4.279531338355666 367.4,-4.271387158496477 367.5,-4.2632008217704636 367.6,-4.254972408973462 367.7,-4.246702001316586 367.8,-4.23838968042542 367.9,-4.230035528339215 368.0,-4.22163962751008 368.1,-4.213202060802157 368.2,-4.204722911490847 368.3,-4.196202263261906 368.4,-4.187640200210711 368.5,-4.179036806841349 368.6,-4.170392168065854 368.7,-4.161706369203321 368.8,-4.1529794959790625 368.9,-4.144211634523815 369.0,-4.1354028713728095 369.1,-4.126553293464999 369.2,-4.117662988142139 369.3,-4.1087320431479535 369.4,-4.099760546627264 369.5,-4.090748587125121 369.6,-4.081696253585924 369.7,-4.072603635352552 369.8,-4.063470822165475 369.9,-4.054297904161868 370.0,-4.045084971874738 370.1,-4.035832116231998 370.2,-4.026539428555612 370.3,-4.017207000560636 370.4,-4.007834924354387 370.5,-3.9984232924354517 370.6,-3.9889721976928545 370.7,-3.979481733405079 370.8,-3.9699519932391776 370.9,-3.9603830712498365 371.0,-3.9507750618784536 371.1,-3.9411280599522023 371.2,-3.9314421606830976 371.3,-3.921717459667054 371.4,-3.911954052882945 371.5,-3.9021520366916542 371.6,-3.8923115078351116 371.7,-3.8824325634353936 371.8,-3.8725153009936704 371.9,-3.862559818389324 372.0,-3.852566213878949 372.1,-3.842534586095381 372.2,-3.832465034046753 372.3,-3.8223576571154565 372.4,-3.8122125550572443 372.5,-3.8020298280001548 372.6,-3.79180957644361 372.7,-3.781551901257361 372.8,-3.771256903680521 372.9,-3.7609246853205596 373.0,-3.7505553481523006 373.1,-3.7401489945169164 373.2,-3.729705727120915 373.3,-3.7192256490351303 373.4,-3.708708863693702 373.5,-3.698155474893049 373.6,-3.6875655867908645 373.7,-3.6769393039050815 373.8,-3.666276731112797 373.9,-3.655577973649324 374.0,-3.6448431371070553 374.1,-3.6340723274345126 374.2,-3.6232656509352386 374.3,-3.612423214266749 374.4,-3.601545124439541 374.5,-3.590631488815945 374.6,-3.5796824151091577 374.7,-3.5686980113821094 374.8,-3.55767838604643 374.9,-3.5466236478613733 375.0,-3.535533905932742 375.1,-3.5244092697118123 375.2,-3.513249848994252 375.3,-3.5020557539190325 375.4,-3.490827094967365 375.5,-3.4795639829615737 375.6,-3.4682665290640213 375.7,-3.4569348447760357 375.8,-3.44556904193674 375.9,-3.4341692327220463 376.0,-3.4227355296434423 376.1,-3.411268045546982 376.2,-3.399766893612097 376.3,-3.388232187350513 376.4,-3.376664040605124 376.5,-3.3650625675488692 376.6,-3.3534278826836035 376.7,-3.34176010083897 376.8,-3.330059337171263 376.9,-3.318325707162298 377.0,-3.306559326618266 377.1,-3.2947603116685786 377.2,-3.2829287787647834 377.3,-3.2710648446793074 377.4,-3.2591686265043966 377.5,-3.2472402416509216 377.6,-3.2352798078472187 377.7,-3.2232874431379614 377.8,-3.2112632658829208 377.9,-3.1992073947558985 378.0,-3.1871199487434487 378.1,-3.1750010471438044 378.2,-3.1628508095656245 378.3,-3.1506693559268486 378.4,-3.1384568064535054 378.5,-3.1262132816785297 378.6,-3.1139389024405673 378.7,-3.1016337898827864 378.8,-3.089298065451678 378.9,-3.076931850895858 379.0,-3.0645352682648834 379.1,-3.0521084399080074 379.2,-3.0396514884730297 379.3,-3.027164536905003 379.4,-3.014647708445128 379.5,-3.0021011266294186 379.6,-2.989524915287593 379.7,-2.9769191985417813 379.8,-2.9642841008052967 379.9,-2.951619746781481 380.0,-2.9389262614623672 380.1,-2.9262037701275534 380.2,-2.913452398342884 380.3,-2.900672271959251 380.4,-2.8878635171113434 380.5,-2.8750262602163987 380.6,-2.862160627972961 380.7,-2.8492667473596187 380.8,-2.8363447456337836 380.9,-2.8233947503303876 381.0,-2.810416889260656 381.1,-2.7974112905108313 381.2,-2.784378082440944 381.3,-2.771317393683468 381.4,-2.758229353142157 381.5,-2.7451140899906576 381.6,-2.7319717336713456 381.7,-2.7188024138939633 381.8,-2.705606260634381 381.9,-2.692383404133304 382.0,-2.6791339748949867 382.1,-2.6658581036859474 382.2,-2.652555921533675 382.3,-2.639227559725338 382.4,-2.6258731498064853 382.5,-2.6124928235797444 382.6,-2.5990867131035404 382.7,-2.5856549506907878 382.8,-2.572197668907527 382.9,-2.558715000571728 383.0,-2.545207078751861 383.1,-2.5316740367656605 383.2,-2.51811600817881 383.3,-2.5045331268035484 383.4,-2.490925526697462 383.5,-2.4772933421620387 383.6,-2.4636367077414594 383.7,-2.4499557582211855 383.8,-2.4362506286266647 383.9,-2.422521454221994 384.0,-2.4087683705085814 384.1,-2.394991513223811 384.2,-2.3811910183397025 384.3,-2.3673670220615604 384.4,-2.3535196608266635 384.5,-2.3396490713028686 384.6,-2.3257553903872865 384.7,-2.3118387552049624 384.8,-2.2978993031074357 384.9,-2.2839371716715027 385.0,-2.269952498697732 385.1,-2.255945422209224 385.2,-2.241916080450169 385.3,-2.227864611884482 385.4,-2.2137911551945173 385.5,-2.1996958492795784 385.6,-2.185578833254668 385.7,-2.1714402464490274 385.8,-2.1572802284048 385.9,-2.1430989188756477 386.0,-2.12889645782537 386.1,-2.114672985426516 386.2,-2.100428642059032 386.3,-2.086163568308828 386.4,-2.0718779049664233 386.5,-2.0575717930255473 386.6,-2.0432453736817413 386.7,-2.028898788331005 386.8,-2.0145321785683112 386.9,-2.0001456861863307 387.0,-1.9857394531739028 387.1,-1.9713136217147555 387.2,-1.9568683341860136 387.3,-1.9424037331568327 387.4,-1.927919961386986 387.5,-1.913417161825453 387.6,-1.8988954776090106 387.7,-1.8843550520608194 387.8,-1.8697960286890092 387.9,-1.8552185511852548 388.0,-1.8406227634233905 388.1,-1.826008809457932 388.2,-1.811376833522731 388.3,-1.7967269800294483 388.4,-1.7820593935662576 388.5,-1.7673742188962906 388.6,-1.7526716009562928 388.7,-1.7379516848551921 388.8,-1.7232146158725847 388.9,-1.7084605394574255 389.0,-1.6936896012264582 389.1,-1.6789019469629054 389.2,-1.6640977226149365 389.3,-1.6492770742942686 389.4,-1.6344401482747175 389.5,-1.619587090990753 389.6,-1.6047180490360544 389.7,-1.5898331691620542 389.8,-1.5749325982765243 389.9,-1.5600164834420758 390.0,-1.5450849718747395 390.1,-1.5301382109424981 390.2,-1.5151763481638738 390.3,-1.5001995312063778 390.4,-1.4852079078851808 390.5,-1.4702016261615183 390.6,-1.4551808341413586 390.7,-1.4401456800738464 390.8,-1.4250963123498819 390.9,-1.4100328795006578 391.0,-1.3949555301961494 391.1,-1.3798644132437325 391.2,-1.364759677586631 391.3,-1.3496414723024877 391.4,-1.3345099466018848 391.5,-1.3193652498268638 391.6,-1.304207531449485 391.7,-1.2890369410703006 391.8,-1.273853628416913 391.9,-1.2586577433424886 392.0,-1.243449435824278 392.1,-1.2282288559621282 392.2,-1.212996153977043 392.3,-1.1977514802096074 392.4,-1.1824949851186313 392.5,-1.1672268192795272 392.6,-1.151947133382954 392.7,-1.1366560782332342 392.8,-1.121353804746909 392.9,-1.1060404639512396 393.0,-1.0907162069827177 393.1,-1.0753811850855728 393.2,-1.06003554961028 393.3,-1.0446794520120577 393.4,-1.0293130438494067 393.5,-1.0139364767825634 393.6,-0.9985499025720285 393.7,-0.9831534730771032 393.8,-0.9677473402542967 393.9,-0.9523316561559543 394.0,-0.936906572928629 394.1,-0.9214722428116646 394.2,-0.9060288181356946 394.3,-0.8905764513210507 394.4,-0.8751152948763901 394.5,-0.8596455013970496 394.6,-0.8441672235636722 394.7,-0.8286806141406023 394.8,-0.8131858259744229 394.9,-0.7976830119924373 395.0,-0.7821723252011612 395.1,-0.7666539186848021 395.2,-0.7511279456037852 395.3,-0.7355945591931878 395.4,-0.7200539127612626 395.5,-0.7045061596879161 395.6,-0.6889514534231854 395.7,-0.6733899474857679 395.8,-0.6578217954614095 395.9,-0.642247151001521 396.0,-0.6266661678215201 396.1,-0.611078999699447 396.2,-0.5954858004743495 396.3,-0.5798867240448087 396.4,-0.5642819243674201 396.5,-0.54867155545523 396.6,-0.5330557713763042 396.7,-0.5174347262521183 396.8,-0.5018085742560812 396.9,-0.4861774696119955 397.0,-0.47054156659257135 397.1,-0.45490101951785034 397.2,-0.4392559827537176 397.3,-0.42360661071036987 397.4,-0.40795305784079144 397.5,-0.39229547863922937 397.6,-0.37663402763966036 397.7,-0.36096885941430956 397.8,-0.34530012857202774 397.9,-0.3296279897568978 398.0,-0.3139525976465676 398.1,-0.2982741069508551 398.2,-0.28259267241012526 398.3,-0.26690844879380593 398.4,-0.2512215908988524 398.5,-0.23553225354821883 398.6,-0.21984059158933103 398.7,-0.20414675989254863 398.8,-0.1884509133496723 398.9,-0.17275320687236193 399.0,-0.15705379539064301 399.1,-0.1413528338513599 399.2,-0.1256504772166909 399.3,-0.10994688046252116 399.4,-0.09424219857704634 399.5,-0.0785365865591098 399.6,-0.06283019941676157 399.7,-0.04712319216572843 399.8,-0.03141571982779525 399.9,-0.01570793742940817 400.0,-2.4492935982947065e-15" stroke-width="1" stroke-linecap="round" stroke-linejoin="round" stroke="#000000" fill="none"  />
<!-- Footer -->
</svg>
