<!-- Header -->
<svg
    version="1.1"
    baseProfile="full"
    xmlns="http://www.w3.org/2000/svg"
    xmlns:xlink="http://www.w3.org/1999/xlink"
    xmlns:ev="http://www.w3.org/2001/xml-events"
    width="110.0"
    height="20.0"
    viewBox="-5.0 -10.0 110.0 20.0"
    preserveAspectRatio="none"
>
<!-- Body -->
<!-- polyline -->
<polyline points="0.0,0.0 0.1,0.31395259764656686 0.2,0.6266661678215213 0.3,0.936906572928623 0.4,1.243449435824274 0.5,1.545084971874737 0.6,1.8406227634233896 0.7,2.128896457825363 0.8,2.4087683705085765 0.9,2.679133974894983 1.0,2.938926261462366 1.1,3.1871199487434487 1.2,3.422735529643443 1.3,3.644843137107058 1.4,3.8525662138789456 1.5,4.045084971874737 1.6,4.221639627510076 1.7,4.381533400219318 1.8,4.524135262330098 1.9,4.648882429441256 2.0,4.755282581475767 2.1,4.842915805643155 2.2,4.911436253643443 2.3,4.960573506572389 2.4,4.990133642141358 2.5,5.0 2.6,4.990133642141358 2.7,4.9605735065723895 2.8,4.911436253643443 2.9,4.842915805643156 3.0,4.755282581475768 3.1,4.648882429441257 3.2,4.524135262330097 3.3,4.381533400219317 3.4,4.221639627510076 3.5,4.045084971874737 3.6,3.852566213878946 3.7,3.644843137107057 3.8,3.422735529643444 3.9,3.187119948743449 4.0,2.9389262614623664 4.1,2.679133974894985 4.2,2.408768370508576 4.3,2.1288964578253626 4.4,1.8406227634233887 4.5,1.5450849718747375 4.6,1.2434494358242763 4.7,0.9369065729286229 4.8,0.6266661678215226 4.9,0.3139525976465657 5.0,6.123233995736766e-16 5.1,-0.3139525976465645 5.2,-0.6266661678215214 5.3,-0.9369065729286195 5.4,-1.243449435824273 5.5,-1.5450849718747364 5.6,-1.8406227634233874 5.7,-2.1288964578253635 5.8,-2.408768370508575 5.9,-2.6791339748949836 6.0,-2.938926261462365 6.1,-3.1871199487434465 6.2,-3.422735529643442 6.3,-3.6448431371070567 6.4,-3.852566213878947 6.5,-4.045084971874736 6.6,-4.2216396275100765 6.7,-4.381533400219318 6.8,-4.5241352623300966 6.9,-4.648882429441257 7.0,-4.755282581475767 7.1,-4.8429158056431545 7.2,-4.911436253643443 7.3,-4.960573506572389 7.4,-4.990133642141358 7.5,-5.0 7.6,-4.990133642141358 7.7,-4.9605735065723895 7.8,-4.911436253643443 7.9,-4.842915805643155 8.0,-4.755282581475768 8.1,-4.648882429441258 8.2,-4.524135262330099 8.3,-4.381533400219319 8.4,-4.221639627510075 8.5,-4.045084971874735 8.6,-3.852566213878945 8.7,-3.6448431371070606 8.8,-3.4227355296434414 8.9,-3.1871199487434483 9.0,-2.938926261462367 9.1,-2.6791339748949854 9.2,-2.4087683705085805 9.3,-2.128896457825361 9.4,-1.8406227634233894 9.5,-1.5450849718747381 9.6,-1.2434494358242767 9.7,-0.9369065729286279 9.8,-0.626666167821519 9.9,-0.3139525976465663 10.0,-1.2246467991473533e-15 10.1,0.3139525976465639 10.2,0.6266661678215164 10.3,0.9369065729286298 10.4,1.2434494358242745 10.5,1.545084971874736 10.6,1.840622763423383 10.7,2.128896457825359 10.8,2.4087683705085743 10.9,2.679133974894983 11.0,2.9389262614623646 11.1,3.187119948743446 11.2,3.4227355296434396 11.3,3.6448431371070593 11.4,3.852566213878946 11.5,4.045084971874734 11.6,4.221639627510074 11.7,4.381533400219316 11.8,4.524135262330098 11.9,4.648882429441257 12.0,4.755282581475767 12.1,4.8429158056431545 12.2,4.911436253643442 12.3,4.9605735065723895 12.4,4.990133642141358 12.5,5.0 12.6,4.990133642141358 12.7,4.9605735065723895 12.8,4.911436253643443 12.9,4.842915805643155 13.0,4.755282581475768 13.1,4.648882429441258 13.2,4.5241352623300966 13.3,4.381533400219321 13.4,4.221639627510076 13.5,4.045084971874738 13.6,3.8525662138789487 13.7,3.644843137107061 13.8,3.422735529643442 13.9,3.1871199487434487 14.0,2.938926261462367 14.1,2.6791339748949783 14.2,2.408768370508581 14.3,2.1288964578253617 14.4,1.8406227634233898 14.5,1.545084971874739 14.6,1.2434494358242774 14.7,0.9369065729286284 14.8,0.6266661678215195 14.9,0.3139525976465669 15.0,1.0718754395722281e-14 15.1,-0.31395259764656325 15.2,-0.6266661678215159 15.3,-0.9369065729286248 15.4,-1.2434494358242738 15.5,-1.5450849718747353 15.6,-1.8406227634233863 15.7,-2.128896457825358 15.8,-2.408768370508578 15.9,-2.6791339748949756 16.0,-2.938926261462364 16.1,-3.1871199487434527 16.2,-3.422735529643439 16.3,-3.644843137107059 16.4,-3.8525662138789403 16.5,-4.045084971874741 16.6,-4.221639627510073 16.7,-4.38153340021932 16.8,-4.524135262330098 16.9,-4.648882429441254 17.0,-4.75528258147577 17.1,-4.8429158056431545 17.2,-4.911436253643444 17.3,-4.9605735065723895 17.4,-4.990133642141357 17.5,-5.0 17.6,-4.990133642141357 17.7,-4.9605735065723895 17.8,-4.911436253643443 17.9,-4.842915805643156 18.0,-4.755282581475769 18.1,-4.648882429441255 18.2,-4.5241352623301 18.3,-4.381533400219313 18.4,-4.22163962751008 18.5,-4.045084971874734 18.6,-3.852566213878943 18.7,-3.6448431371070615 18.8,-3.4227355296434423 18.9,-3.187119948743456 19.0,-2.9389262614623672 19.1,-2.6791339748949787 19.2,-2.4087683705085814 19.3,-2.128896457825362 19.4,-1.8406227634233985 19.5,-1.5450849718747395 19.6,-1.2434494358242694 19.7,-0.9369065729286377 19.8,-0.6266661678215201 19.9,-0.3139525976465676 20.0,-2.4492935982947065e-15 20.1,0.31395259764656264 20.2,0.6266661678215152 20.3,0.9369065729286329 20.4,1.2434494358242647 20.5,1.5450849718747262 20.6,1.8406227634234025 20.7,2.1288964578253577 20.8,2.408768370508577 20.9,2.6791339748949823 21.0,2.9389262614623632 21.1,3.187119948743452 21.2,3.4227355296434325 21.3,3.644843137107064 21.4,3.8525662138789403 21.5,4.045084971874731 21.6,4.221639627510073 21.7,4.381533400219319 21.8,4.524135262330098 21.9,4.648882429441254 22.0,4.755282581475767 22.1,4.842915805643159 22.2,4.911436253643442 22.3,4.960573506572389 22.4,4.990133642141357 22.5,5.0 22.6,4.990133642141358 22.7,4.9605735065723895 22.8,4.911436253643443 22.9,4.842915805643156 23.0,4.755282581475772 23.1,4.648882429441259 23.2,4.524135262330101 23.3,4.381533400219322 23.4,4.221639627510081 23.5,4.045084971874734 23.6,3.8525662138789434 23.7,3.6448431371070624 23.8,3.422735529643443 23.9,3.1871199487434563 24.0,2.9389262614623677 24.1,2.679133974894987 24.2,2.4087683705085823 24.3,2.1288964578253626 24.4,1.840622763423399 24.5,1.54508497187474 24.6,1.24344943582427 24.7,0.9369065729286209 24.8,0.6266661678215295 24.9,0.31395259764656813 25.0,3.061616997868383e-15 25.1,-0.313952597646562 25.2,-0.6266661678215146 25.3,-0.9369065729286323 25.4,-1.2434494358242727 25.5,-1.5450849718747426 25.6,-1.8406227634233936 25.7,-2.1288964578253493 25.8,-2.4087683705085765 25.9,-2.679133974894967 26.0,-2.938926261462363 26.1,-3.187119948743459 26.2,-3.4227355296434387 26.3,-3.6448431371070518 26.4,-3.8525662138789505 26.5,-4.045084971874741 26.6,-4.2216396275100685 26.7,-4.38153340021931 26.8,-4.524135262330098 26.9,-4.648882429441256 27.0,-4.755282581475767 27.1,-4.8429158056431545 27.2,-4.911436253643442 27.3,-4.96057350657239 27.4,-4.990133642141357 27.5,-5.0 27.6,-4.990133642141358 27.7,-4.960573506572391 27.8,-4.911436253643443 27.9,-4.842915805643156 28.0,-4.755282581475769 28.1,-4.648882429441259 28.2,-4.524135262330093 28.3,-4.381533400219314 28.4,-4.221639627510081 28.5,-4.045084971874744 28.6,-3.8525662138789443 28.7,-3.6448431371070567 28.8,-3.4227355296434436 28.9,-3.18711994874345 29.0,-2.9389262614623686 29.1,-2.679133974894973 29.2,-2.4087683705085827 29.3,-2.1288964578253715 29.4,-1.8406227634233998 29.5,-1.5450849718747488 29.6,-1.2434494358242705 29.7,-0.9369065729286215 29.8,-0.6266661678215213 29.9,-0.3139525976465865 30.0,-2.1437508791444562e-14 30.1,0.3139525976465791 30.2,0.6266661678215141 30.3,0.9369065729286142 30.4,1.2434494358242634 30.5,1.545084971874742 30.6,1.840622763423393 30.7,2.128896457825365 30.8,2.408768370508576 30.9,2.6791339748949667 31.0,2.9389262614623624 31.1,3.1871199487434443 31.2,3.422735529643438 31.3,3.644843137107051 31.4,3.852566213878939 31.5,4.04508497187474 31.6,4.221639627510077 31.7,4.38153340021931 31.8,4.52413526233009 31.9,4.648882429441256 32.0,4.755282581475766 32.1,4.842915805643159 32.2,4.911436253643445 32.3,4.960573506572389 32.4,4.990133642141357 32.5,5.0 32.6,4.990133642141358 32.7,4.960573506572389 32.8,4.911436253643447 32.9,4.842915805643156 33.0,4.755282581475764 33.1,4.648882429441253 33.2,4.524135262330101 33.3,4.381533400219323 33.4,4.221639627510072 33.5,4.045084971874735 33.6,3.8525662138789443 33.7,3.644843137107057 33.8,3.422735529643457 33.9,3.1871199487434643 34.0,2.9389262614623544 34.1,2.679133974894988 34.2,2.408768370508583 34.3,2.128896457825388 34.4,1.8406227634233838 34.5,1.5450849718747328 34.6,1.2434494358242711 34.7,0.936906572928622 34.8,0.6266661678215396 34.9,0.31395259764656935 35.0,4.2862637970157365e-15 35.1,-0.3139525976465608 35.2,-0.6266661678215311 35.3,-0.9369065729286137 35.4,-1.243449435824263 35.5,-1.5450849718747415 35.6,-1.8406227634233923 35.7,-2.1288964578253804 35.8,-2.4087683705085756 35.9,-2.679133974894981 36.0,-2.9389262614623624 36.1,-3.1871199487434576 36.2,-3.4227355296434503 36.3,-3.644843137107051 36.4,-3.8525662138789385 36.5,-4.045084971874729 36.6,-4.221639627510086 36.7,-4.381533400219327 36.8,-4.5241352623300894 36.9,-4.648882429441256 37.0,-4.755282581475772 37.1,-4.842915805643159 37.2,-4.911436253643445 37.3,-4.960573506572388 37.4,-4.990133642141357 37.5,-5.0 37.6,-4.990133642141358 37.7,-4.960573506572389 37.8,-4.911436253643447 37.9,-4.842915805643161 38.0,-4.755282581475769 38.1,-4.648882429441253 38.2,-4.524135262330093 38.3,-4.381533400219332 38.4,-4.221639627510082 38.5,-4.045084971874735 38.6,-3.8525662138789447 38.7,-3.644843137107057 38.8,-3.422735529643457 38.9,-3.187119948743451 39.0,-2.9389262614623695 39.1,-2.679133974894989 39.2,-2.408768370508568 39.3,-2.1288964578253884 39.4,-1.8406227634234174 39.5,-1.5450849718747333 39.6,-1.2434494358242718 39.7,-0.9369065729286052 39.8,-0.6266661678215225 39.9,-0.31395259764657 40.0,-4.898587196589413e-15 40.1,0.3139525976465602 40.2,0.6266661678215129 40.3,0.9369065729285957 40.4,1.2434494358242623 40.5,1.545084971874724 40.6,1.8406227634234082 40.7,2.1288964578253795 40.8,2.408768370508559 40.9,2.6791339748949805 41.0,2.9389262614623473 41.1,3.187119948743443 41.2,3.422735529643463 41.3,3.6448431371070504 41.4,3.8525662138789385 41.5,4.04508497187475 41.6,4.2216396275100765 41.7,4.381533400219327 41.8,4.5241352623300966 41.9,4.648882429441249 42.0,4.755282581475766 42.1,4.842915805643149 42.2,4.911436253643445 42.3,4.960573506572388 42.4,4.990133642141356 42.5,5.0 42.6,4.990133642141357 42.7,4.9605735065723895 42.8,4.911436253643447 42.9,4.842915805643156 43.0,4.755282581475775 43.1,4.648882429441253 43.2,4.524135262330101 43.3,4.381533400219332 43.4,4.221639627510073 43.5,4.045084971874745 43.6,3.852566213878945 43.7,3.6448431371070455 43.8,3.4227355296434574 43.9,3.1871199487434647 44.0,2.9389262614623703 44.1,2.6791339748949894 44.2,2.408768370508553 44.3,2.1288964578253893 44.4,1.8406227634234016 44.5,1.545084971874734 44.6,1.2434494358242896 44.7,0.9369065729286232 44.8,0.6266661678215407 44.9,0.31395259764657063 45.0,5.5109105961630896e-15 45.1,-0.3139525976465419 45.2,-0.62666616782153 45.3,-0.9369065729286125 45.4,-1.2434494358242616 45.5,-1.5450849718747235 45.6,-1.8406227634233914 45.7,-2.128896457825347 45.8,-2.4087683705085747 45.9,-2.67913397489498 46.0,-2.938926261462347 46.1,-3.1871199487434563 46.2,-3.4227355296434365 46.3,-3.64484313710705 46.4,-3.852566213878938 46.5,-4.045084971874728 46.6,-4.221639627510067 46.7,-4.381533400219326 46.8,-4.5241352623300894 46.9,-4.648882429441249 47.0,-4.755282581475772 47.1,-4.842915805643154 47.2,-4.911436253643445 47.3,-4.960573506572388 47.4,-4.990133642141357 47.5,-5.0 47.6,-4.990133642141358 47.7,-4.9605735065723895 47.8,-4.911436253643447 47.9,-4.842915805643161 48.0,-4.75528258147577 48.1,-4.648882429441254 48.2,-4.524135262330102 48.3,-4.381533400219324 48.4,-4.221639627510083 48.5,-4.0450849718747355 48.6,-3.8525662138789456 48.7,-3.64484313710707 48.8,-3.4227355296434583 48.9,-3.187119948743452 49.0,-2.938926261462371 49.1,-2.67913397489499 49.2,-2.408768370508569 49.3,-2.1288964578253897 49.4,-1.8406227634233854 49.5,-1.5450849718747346 49.6,-1.2434494358242902 49.7,-0.9369065729286065 49.8,-0.6266661678215237 49.9,-0.31395259764657124 50.0,-6.123233995736766e-15 50.1,0.313952597646559 50.2,0.6266661678215115 50.3,0.9369065729286292 50.4,1.2434494358242612 50.5,1.5450849718747228 50.6,1.8406227634234071 50.7,2.1288964578253626 50.8,2.4087683705085743 50.9,2.679133974894979 51.0,2.9389262614623752 51.1,3.1871199487434425 51.2,3.4227355296434494 51.3,3.64484313710705 51.4,3.8525662138789265 51.5,4.045084971874728 51.6,4.221639627510076 51.7,4.381533400219326 51.8,4.5241352623300815 51.9,4.648882429441262 52.0,4.755282581475766 52.1,4.842915805643158 52.2,4.911436253643448 52.3,4.960573506572386 52.4,4.990133642141357 52.5,5.0 52.6,4.990133642141359 52.7,4.9605735065723895 52.8,4.911436253643441 52.9,4.842915805643157 53.0,4.755282581475765 53.1,4.64888242944126 53.2,4.52413526233011 53.3,4.381533400219324 53.4,4.221639627510092 53.5,4.045084971874746 53.6,3.8525662138789456 53.7,3.644843137107046 53.8,3.422735529643446 53.9,3.1871199487434385 54.0,2.9389262614623712 54.1,2.679133974895005 54.2,2.4087683705085854 54.3,2.12889645782539 54.4,1.8406227634234027 54.5,1.5450849718747688 54.6,1.2434494358242563 54.7,0.9369065729286246 54.8,0.6266661678215419 54.9,0.3139525976465718 55.0,2.4499125789312944e-14 55.1,-0.3139525976465584 55.2,-0.6266661678215286 55.3,-0.9369065729286112 55.4,-1.2434494358242434 55.5,-1.5450849718747561 55.6,-1.84062276342339 55.7,-2.128896457825378 55.8,-2.4087683705085734 55.9,-2.679133974894964 56.0,-2.93892626146236 56.1,-3.1871199487434554 56.2,-3.422735529643436 56.3,-3.644843137107037 56.4,-3.8525662138789594 56.5,-4.045084971874738 56.6,-4.2216396275100845 56.7,-4.381533400219317 56.8,-4.524135262330089 56.9,-4.648882429441255 57.0,-4.75528258147576 57.1,-4.842915805643154 57.2,-4.911436253643445 57.3,-4.960573506572383 57.4,-4.990133642141358 57.5,-5.0 57.6,-4.990133642141358 57.7,-4.960573506572391 57.8,-4.911436253643444 57.9,-4.842915805643162 58.0,-4.75528258147577 58.1,-4.648882429441267 58.2,-4.524135262330088 58.3,-4.381533400219316 58.4,-4.221639627510083 58.5,-4.045084971874736 58.6,-3.8525662138789576 58.7,-3.644843137107059 58.8,-3.422735529643459 58.9,-3.1871199487434527 59.0,-2.9389262614623854 59.1,-2.6791339748949605 59.2,-2.4087683705085703 59.3,-2.1288964578253746 59.4,-1.8406227634233865 59.5,-1.5450849718747526 59.6,-1.243449435824274 59.7,-0.9369065729286076 59.8,-0.6266661678215601 59.9,-0.31395259764659017 60.0,-4.2875017582889124e-14 60.1,0.31395259764657546 60.2,0.6266661678215456 60.3,0.9369065729285931 60.4,1.24344943582426 60.5,1.5450849718747386 60.6,1.840622763423373 60.7,2.1288964578253613 60.8,2.4087683705085574 60.9,2.679133974894948 61.0,2.938926261462374 61.1,3.1871199487434416 61.2,3.422735529643448 61.3,3.644843137107049 61.4,3.852566213878948 61.5,4.0450849718747275 61.6,4.221639627510076 61.7,4.3815334002193085 61.8,4.524135262330081 61.9,4.648882429441262 62.0,4.7552825814757655 62.1,4.842915805643157 62.2,4.9114362536434415 62.3,4.9605735065723895 62.4,4.990133642141357 62.5,5.0 62.6,4.990133642141359 62.7,4.960573506572385 62.8,4.911436253643448 62.9,4.842915805643157 63.0,4.755282581475765 63.1,4.648882429441261 63.2,4.524135262330095 63.3,4.381533400219324 63.4,4.221639627510093 63.5,4.045084971874747 63.6,3.852566213878969 63.7,3.6448431371070718 63.8,3.4227355296434463 63.9,3.187119948743467 64.0,2.9389262614623717 64.1,2.679133974894976 64.2,2.408768370508555 64.3,2.128896457825359 64.4,1.8406227634233707 64.5,1.5450849718747361 64.6,1.2434494358242918 64.7,0.9369065729286257 64.8,0.6266661678215433 64.9,0.313952597646573 65.0,-9.803364199544707e-15 65.1,-0.3139525976465217 65.2,-0.6266661678215274 65.3,-0.9369065729286101 65.4,-1.2434494358242765 65.5,-1.5450849718747213 65.6,-1.840622763423356 65.7,-2.128896457825345 65.8,-2.4087683705085725 65.9,-2.6791339748949925 66.0,-2.938926261462388 66.1,-3.187119948743455 66.2,-3.422735529643461 66.3,-3.6448431371070606 66.4,-3.8525662138789363 66.5,-4.045084971874737 66.6,-4.221639627510065 66.7,-4.3815334002193165 66.8,-4.524135262330104 66.9,-4.648882429441268 67.0,-4.755282581475771 67.1,-4.842915805643154 67.2,-4.911436253643445 67.3,-4.960573506572388 67.4,-4.990133642141358 67.5,-5.0 67.6,-4.99013364214136 67.7,-4.960573506572387 67.8,-4.911436253643451 67.9,-4.842915805643153 68.0,-4.755282581475759 68.1,-4.648882429441267 68.2,-4.524135262330103 68.3,-4.3815334002193325 68.4,-4.221639627510084 68.5,-4.045084971874736 68.6,-3.8525662138789807 68.7,-3.644843137107036 68.8,-3.4227355296434343 68.9,-3.1871199487434265 69.0,-2.938926261462358 69.1,-2.6791339748949916 69.2,-2.408768370508571 69.3,-2.128896457825376 69.4,-1.8406227634233876 69.5,-1.5450849718747197 69.6,-1.2434494358243098 69.7,-0.9369065729286088 69.8,-0.6266661678215262 69.9,-0.3139525976465559 70.0,-8.572527594031473e-15 70.1,0.3139525976465388 70.2,0.6266661678215092 70.3,0.936906572928592 70.4,1.2434494358242931 70.5,1.5450849718747037 70.6,1.8406227634233718 70.7,2.1288964578253924 70.8,2.4087683705085565 70.9,2.6791339748949774 71.0,2.938926261462373 71.1,3.187119948743413 71.2,3.4227355296434476 71.3,3.644843137107072 71.4,3.85256621387897 71.5,4.045084971874748 71.6,4.221639627510074 71.7,4.3815334002193245 71.8,4.524135262330096 71.9,4.648882429441262 72.0,4.755282581475765 72.1,4.842915805643148 72.2,4.911436253643448 72.3,4.960573506572385 72.4,4.990133642141359 72.5,5.0 72.6,4.990133642141359 72.7,4.9605735065723895 72.8,4.911436253643448 72.9,4.842915805643157 73.0,4.755282581475776 73.1,4.648882429441274 73.2,4.524135262330081 73.3,4.3815334002193245 73.4,4.221639627510055 73.5,4.045084971874727 73.6,3.85256621387897 73.7,3.6448431371070478 73.8,3.4227355296434476 73.9,3.1871199487434403 74.0,2.938926261462344 74.1,2.679133974895007 74.2,2.4087683705085565 74.3,2.1288964578253604 74.4,1.8406227634233718 74.5,1.5450849718747373 74.6,1.2434494358242931 74.7,0.9369065729286269 74.8,0.6266661678215445 74.9,0.3139525976465388 75.0,2.6948419387607653e-14 75.1,-0.3139525976465559 75.2,-0.6266661678215262 75.3,-0.9369065729286088 75.4,-1.2434494358242754 75.5,-1.5450849718747197 75.6,-1.8406227634233545 75.7,-2.128896457825376 75.8,-2.40876837050854 75.9,-2.679133974895022 76.0,-2.938926261462358 76.1,-3.1871199487433985 76.2,-3.4227355296434596 76.3,-3.644843137107036 76.4,-3.8525662138789585 76.5,-4.045084971874736 76.6,-4.221639627510045 76.7,-4.3815334002193325 76.8,-4.524135262330088 76.9,-4.648882429441267 77.0,-4.75528258147577 77.1,-4.842915805643153 77.2,-4.911436253643444 77.3,-4.960573506572387 77.4,-4.990133642141358 77.5,-5.0 77.6,-4.99013364214136 77.7,-4.960573506572392 77.8,-4.911436253643445 77.9,-4.842915805643154 78.0,-4.755282581475771 78.1,-4.648882429441268 78.2,-4.524135262330104 78.3,-4.381533400219333 78.4,-4.221639627510065 78.5,-4.045084971874759 78.6,-3.8525662138789816 78.7,-3.6448431371070362 78.8,-3.4227355296434867 78.9,-3.187119948743427 79.0,-2.938926261462359 79.1,-2.6791339748950227 79.2,-2.4087683705085725 79.3,-2.128896457825377 79.4,-1.840622763423356 79.5,-1.5450849718747548 79.6,-1.2434494358242765 79.7,-0.9369065729286101 79.8,-0.6266661678215274 79.9,-0.31395259764655714 80.0,-9.797174393178826e-15 80.1,0.3139525976465376 80.2,0.626666167821508 80.3,0.9369065729285908 80.4,1.2434494358242574 80.5,1.5450849718747361 80.6,1.8406227634233376 80.7,2.128896457825359 80.8,2.408768370508555 80.9,2.679133974895006 81.0,2.9389262614623437 81.1,3.187119948743412 81.2,3.4227355296434725 81.3,3.644843137107023 81.4,3.852566213878969 81.5,4.045084971874705 81.6,4.221639627510055 81.7,4.381533400219324 81.8,4.524135262330095 81.9,4.648882429441247 82.0,4.755282581475754 82.1,4.842915805643139 82.2,4.911436253643441 82.3,4.9605735065723895 82.4,4.990133642141361 82.5,5.0 82.6,4.990133642141359 82.7,4.9605735065723895 82.8,4.911436253643448 82.9,4.842915805643148 83.0,4.755282581475754 83.1,4.648882429441274 83.2,4.5241352623300966 83.3,4.381533400219342 83.4,4.221639627510056 83.5,4.0450849718747275 83.6,3.852566213878948 83.7,3.644843137107073 83.8,3.4227355296434743 83.9,3.1871199487434145 84.0,2.938926261462374 84.1,2.6791339748949783 84.2,2.4087683705086196 84.3,2.1288964578253937 84.4,1.840622763423373 84.5,1.5450849718747386 84.6,1.2434494358242942 84.7,0.936906572928663 84.8,0.6266661678215808 84.9,0.31395259764657546 85.0,-7.354070601250003e-15 85.1,-0.3139525976465193 85.2,-0.6266661678215603 85.3,-0.9369065729286076 85.4,-1.243449435824274 85.5,-1.5450849718747186 85.6,-1.8406227634233536 85.7,-2.128896457825407 85.8,-2.4087683705085703 85.9,-2.6791339748949907 86.0,-2.9389262614623286 86.1,-3.187119948743425 86.2,-3.422735529643459 86.3,-3.644843137107059 86.4,-3.8525662138789354 86.5,-4.045084971874715 86.6,-4.2216396275100445 86.7,-4.381533400219316 86.8,-4.524135262330102 86.9,-4.64888242944124 87.0,-4.755282581475759 87.1,-4.842915805643153 87.2,-4.911436253643444 87.3,-4.960573506572387 87.4,-4.99013364214136 87.5,-5.0 87.6,-4.99013364214136 87.7,-4.960573506572388 87.8,-4.911436253643451 87.9,-4.842915805643145 88.0,-4.755282581475771 88.1,-4.648882429441269 88.2,-4.524135262330104 88.3,-4.381533400219334 88.4,-4.221639627510047 88.5,-4.045084971874738 88.6,-3.8525662138789825 88.7,-3.6448431371070855 88.8,-3.4227355296434614 88.9,-3.1871199487434283 89.0,-2.93892626146236 89.1,-2.679133974894994 89.2,-2.4087683705086045 89.3,-2.12889645782541 89.4,-1.84062276342339 89.5,-1.5450849718747222 89.6,-1.2434494358243122 89.7,-0.9369065729286462 89.8,-0.6266661678215286 89.9,-0.31395259764655836 90.0,-1.1021821192326179e-14 90.1,0.3139525976465363 90.2,0.6266661678214714 90.3,0.9369065729285896 90.4,1.2434494358242907 90.5,1.5450849718747013 90.6,1.8406227634233696 90.7,2.12889645782539 90.8,2.4087683705085543 90.9,2.6791339748949747 91.0,2.9389262614623424 91.1,3.187119948743411 91.2,3.422735529643446 91.3,3.6448431371070704 91.4,3.852566213878923 91.5,4.045084971874725 91.6,4.221639627510073 91.7,4.381533400219324 91.8,4.524135262330095 91.9,4.6488824294412465 92.0,4.755282581475753 92.1,4.842915805643148 92.2,4.911436253643448 92.3,4.960573506572385 92.4,4.990133642141357 92.5,5.0 92.6,4.99013364214136 92.7,4.9605735065723895 92.8,4.911436253643448 92.9,4.84291580564314 93.0,4.755282581475777 93.1,4.648882429441275 93.2,4.524135262330112 93.3,4.381533400219326 93.4,4.221639627510056 93.5,4.045084971874728 93.6,3.852566213878972 93.7,3.644843137107074 93.8,3.422735529643475 93.9,3.1871199487434425 94.0,2.9389262614623464 94.1,2.6791339748950094 94.2,2.40876837050859 94.3,2.1288964578253626 94.4,1.840622763423374 94.5,1.5450849718747397 94.6,1.2434494358242956 94.7,0.9369065729286642 94.8,0.6266661678215468 94.9,0.31395259764654126 95.0,2.9397712985902356e-14 95.1,-0.3139525976465535 95.2,-0.6266661678215237 95.3,-0.9369065729286065 95.4,-1.243449435824273 95.5,-1.5450849718747175 95.6,-1.8406227634233523 95.7,-2.1288964578253737 95.8,-2.408768370508538 95.9,-2.6791339748949596 96.0,-2.938926261462356 96.1,-3.187119948743452 96.2,-3.4227355296434583 96.3,-3.644843137107034 96.4,-3.852566213878934 96.5,-4.045084971874714 96.6,-4.221639627510063 96.7,-4.381533400219332 96.8,-4.524135262330087 96.9,-4.648882429441254 97.0,-4.75528258147577 97.1,-4.842915805643152 97.2,-4.911436253643443 97.3,-4.960573506572387 97.4,-4.990133642141355 97.5,-5.0 97.6,-4.990133642141361 97.7,-4.960573506572392 97.8,-4.911436253643445 97.9,-4.842915805643154 98.0,-4.755282581475772 98.1,-4.648882429441269 98.2,-4.5241352623301045 98.3,-4.381533400219334 98.4,-4.221639627510067 98.5,-4.04508497187476 98.6,-3.8525662138789833 98.7,-3.6448431371070624 98.8,-3.4227355296434365 98.9,-3.187119948743429 99.0,-2.9389262614623615 99.1,-2.679133974895025 99.2,-2.408768370508606 99.3,-2.128896457825379 99.4,-1.8406227634233583 99.5,-1.5450849718747572 99.6,-1.243449435824279 99.7,-0.9369065729286125 99.8,-0.62666616782153 99.9,-0.3139525976465596 100.0,-1.2246467991473532e-14" stroke-width="1" stroke-linecap="round" stroke="#000000" fill="none"  />
<!-- Footer -->
</svg>
