<!-- Header -->
<svg
    version="1.1"
    baseProfile="full"
    xmlns="http://www.w3.org/2000/svg"
    xmlns:xlink="http://www.w3.org/1999/xlink"
    xmlns:ev="http://www.w3.org/2001/xml-events"
    width="410.0"
    height="20.0"
    viewBox="-5.0 -10.0 410.0 20.0"
    preserveAspectRatio="none"
>
<!-- Body -->
<!-- polyline -->
<polyline points="0.0,0.0 0.1,0.02356185769686711 0.2,0.04712319216572003 0.3,0.07068348019016367 0.4,0.09424219857704087 0.5,0.11779882416805076 0.6,0.14135283385136627 0.7,0.16490370457325065 0.8,0.1884509133496727 0.9,0.21199393727792049 1.0,0.23553225354821333 1.1,0.2590653394553112 1.2,0.28259267241012265 1.3,0.3061137299513096 1.4,0.3296279897568893 1.5,0.3531349296558334 1.6,0.3766340276396636 1.7,0.40012476187404356 1.8,0.4236066107103672 1.9,0.44707905269734255 2.0,0.4705415665925716 2.1,0.49399363137412505 2.2,0.5174347262521126 2.3,0.5408643306802479 2.4,0.5642819243674084 2.5,0.5876869872891882 2.6,0.6110789996994471 2.7,0.6344574421418521 2.8,0.6578217954614125 2.9,0.6811715408160085 3.0,0.7045061596879132 3.1,0.7278251338953072 3.2,0.7511279456037854 3.3,0.7744140773378556 3.4,0.7976830119924315 3.5,0.8209342328443148 3.6,0.8441672235636694 3.7,0.8673814682254886 3.8,0.8905764513210506 3.9,0.9137516577693677 4.0,0.9369065729286231 4.1,0.9600406826076 4.2,0.9831534730771003 4.3,1.0062444310813516 4.4,1.0293130438494067 4.5,1.0523587991065284 4.6,1.0753811850855666 4.7,1.0983796905383238 4.8,1.1213538047469058 4.9,1.1443030175350648 5.0,1.167226819279527 5.1,1.1901247009213125 5.2,1.212996153977037 5.3,1.2358406705502043 5.4,1.2586577433424853 5.5,1.2814468656649831 5.6,1.3042075314494848 5.7,1.3269392352596991 5.8,1.3496414723024817 5.9,1.3723137384390436 6.0,1.394955530196146 6.1,1.4175663447772835 6.2,1.4401456800738457 6.3,1.4626930346762699 6.4,1.4852079078851745 6.5,1.5076897997224785 6.6,1.530138210942504 6.7,1.5525526430430616 6.8,1.5749325982765239 6.9,1.5972775796608745 7.0,1.619587090990747 7.1,1.6418606368484425 7.2,1.6640977226149332 7.3,1.686297854480843 7.4,1.7084605394574166 7.5,1.7305852853874646 7.6,1.7526716009562948 7.7,1.7747189957026208 7.8,1.7967269800294532 7.9,1.818695065214975 8.0,1.8406227634233898 8.1,1.8625095877157591 8.2,1.884355052060813 8.3,1.9061586713457452 8.4,1.9279199613869826 8.5,1.9496384389409416 8.6,1.9713136217147547 8.7,1.9929450283769856 8.8,2.014532178568313 8.9,2.0360745929122017 9.0,2.057571793025544 9.1,2.079023301529287 9.2,2.100428642059031 9.3,2.1217873392756097 9.4,2.1430989188756415 9.5,2.1643629076020696 9.6,2.1855788332546644 9.7,2.206746224700513 9.8,2.2278646118844816 9.9,2.248933525839651 10.0,2.2699524986977337 10.1,2.2909210636994635 10.2,2.3118387552049584 10.3,2.3327051087040642 10.4,2.3535196608266626 10.5,2.374281949352973 10.6,2.394991513223805 10.7,2.415647892550804 10.8,2.436250628626661 10.9,2.4567992639353005 11.0,2.4772933421620373 11.1,2.497732408203714 11.2,2.518116008178804 11.3,2.538443689437492 11.4,2.558715000571725 11.5,2.578929491425237 11.6,2.599086713103547 11.7,2.6191862179839243 11.8,2.6392275597253323 11.9,2.6592102932783335 12.0,2.6791339748949827 12.1,2.698998162138673 12.2,2.718802413893962 12.3,2.738546290376373 12.4,2.758229353142151 12.5,2.777851165098011 12.6,2.7974112905108344 12.7,2.8169092950173513 12.8,2.8363447456337827 12.9,2.855717210765456 13.0,2.875026260216393 13.1,2.894271465198857 13.2,2.913452398342881 13.3,2.9325686337057504 13.4,2.9516197467814727 13.5,2.9706053145101925 13.6,2.989524915287594 13.7,3.008378128974261 13.8,3.0271645369050066 13.9,3.0458837218981705 14.0,3.0645352682648825 14.1,3.0831187618182954 14.2,3.1016337898827793 14.3,3.120079941303093 14.4,3.1384568064535023 14.5,3.1567639772468885 14.6,3.1750010471438026 14.7,3.1931676111614986 14.8,3.211263265882922 14.9,3.22928760946567 15.0,3.2472402416509176 15.1,3.2651207637723036 15.2,3.282928778764782 15.3,3.300663891173443 15.4,3.3183257071622925 15.5,3.3359138345229984 15.6,3.3534278826836 15.7,3.3708674627171824 15.8,3.3882321873505115 15.9,3.4055216709726337 16.0,3.4227355296434436 16.1,3.4398733811022018 16.2,3.4569348447760317 16.3,3.4739195417883666 16.4,3.490827094967363 16.5,3.5076571288542784 16.6,3.524409269711807 16.7,3.54108314553238 16.8,3.557678386046427 16.9,3.574194622730597 17.0,3.5906314888159447 17.1,3.6069886192960707 17.2,3.623265650935233 17.3,3.639462222276409 17.4,3.6555779736493204 17.5,3.6716125471784276 17.6,3.6875655867908694 17.7,3.703436738224374 17.8,3.7192256490351254 17.9,3.734931968605588 18.0,3.750555348152298 18.1,3.7660954407335994 18.2,3.7815519012573597 18.3,3.796924386488624 18.4,3.812212555057238 18.5,3.8274160674654407 18.6,3.8425345860953835 18.7,3.857567775216642 18.8,3.872515300993669 18.9,3.887376831493204 19.0,3.9021520366916485 19.1,3.916840588482391 19.2,3.9314421606830945 19.3,3.9459564290429423 19.4,3.960383071249835 19.5,3.97472176693755 19.6,3.9889721976928554 19.7,4.003134047062578 19.8,4.017207000560639 19.9,4.031190745675024 20.0,4.045084971874737 20.1,4.058889370616688 20.2,4.0726036353525465 20.3,4.086227461535549 20.4,4.0997605466272615 20.5,4.113202590104298 20.6,4.126553293464998 20.7,4.1398123602360455 20.8,4.1529794959790625 20.9,4.166054408297145 21.0,4.179036806841351 21.1,4.191926403317155 21.2,4.204722911490845 21.3,4.217426047195883 21.4,4.230035528339211 21.5,4.242551074907518 21.6,4.254972408973459 21.7,4.267299254701824 21.8,4.279531338355665 21.9,4.291668388302375 22.0,4.303710135019718 22.1,4.315656311101819 22.2,4.327506651265095 22.3,4.339260892354153 22.4,4.350918773347629 22.5,4.362480035363985 22.6,4.373944421667264 22.7,4.38531167767278 22.8,4.3965815509527815 22.9,4.407753791242051 23.0,4.418828150443467 23.1,4.429804382633509 23.2,4.440682244067722 23.3,4.4514614931861285 23.4,4.462141890618589 23.5,4.472723199190125 23.6,4.483205183926179 23.7,4.493587612057836 23.8,4.5038702530269905 23.9,4.514052878491468 24.0,4.524135262330097 24.1,4.534117180647726 24.2,4.5439984117802 24.3,4.55377873629928 24.4,4.563457937017514 24.5,4.573035798993067 24.6,4.58251210953449 24.7,4.591886658205438 24.8,4.601159236829352 24.9,4.610329639494076 25.0,4.619397662556434 25.1,4.628363104646746 25.2,4.637225766673306 25.3,4.645985451826801 25.4,4.654641965584679 25.5,4.663195115715471 25.6,4.67164471228306 25.7,4.6799905676509 25.8,4.688232496486178 25.9,4.696370315763935 26.0,4.704403844771128 26.1,4.71233290511064 26.2,4.7201573207052485 26.3,4.727876917801531 26.4,4.735491524973722 26.5,4.743000973127523 26.6,4.750405095503859 26.7,4.757703727682575 26.8,4.764896707586094 26.9,4.771983875483013 27.0,4.7789650739916505 27.1,4.785840148083541 27.2,4.792608945086879 27.3,4.799271314689909 27.4,4.80582710894426 27.5,4.812276182268237 27.6,4.818618391450048 27.7,4.824853595650991 27.8,4.830981656408573 27.9,4.837002437639592 28.0,4.842915805643155 28.1,4.848721629103649 28.2,4.854419779093655 28.3,4.860010129076813 28.4,4.865492554910633 28.5,4.870866934849246 28.6,4.876133149546117 28.7,4.881291082056685 28.8,4.886340617840967 28.9,4.8912816447661 29.0,4.896114053108828 29.1,4.900837735557946 29.2,4.90545258721667 29.3,4.909958505604982 29.4,4.914355390661896 29.5,4.918643144747679 29.6,4.922821672646027 29.7,4.926890881566171 29.8,4.930850681144944 29.9,4.934700983448784 30.0,4.938441702975688 30.1,4.942072756657112 30.2,4.945594063859809 30.3,4.949005546387631 30.4,4.952307128483256 30.5,4.955498736829874 30.6,4.958580300552814 30.7,4.961551751221121 30.8,4.964413022849069 30.9,4.967164051897633 31.0,4.969804777275899 31.1,4.972335140342415 31.2,4.9747550849065005 31.3,4.9770645572294905 31.4,4.979263506025928 31.5,4.981351882464706 31.6,4.983329640170149 31.7,4.985196735223044 31.8,4.986953126161618 31.9,4.988598773982453 32.0,4.990133642141358 32.1,4.991557696554177 32.2,4.992870905597549 32.3,4.994073240109605 32.4,4.995164673390623 32.5,4.996145181203614 32.6,4.997014741774865 32.7,4.997773335794417 32.8,4.9984209464165 32.9,4.998957559259906 33.0,4.999383162408303 33.1,4.999697746410507 33.2,4.9999013042806855 33.3,4.999993831498518 33.4,4.999975326009291 33.5,4.999845788223948 33.6,4.99960522101908 33.7,4.999253629736859 33.8,4.99879102218492 33.9,4.99821740863619 34.0,4.997532801828658 34.1,4.996737216965092 34.2,4.9958306717127 34.3,4.994813186202745 34.4,4.993684783030087 34.5,4.99244548725269 34.6,4.991095326391059 34.7,4.989634330427635 34.8,4.9880625318061265 34.9,4.986379965430785 35.0,4.9845866686656395 35.1,4.982682681333657 35.2,4.980668045715863 35.3,4.978542806550401 35.4,4.976307011031541 35.5,4.973960708808632 35.6,4.971503951984994 35.7,4.968936795116767 35.8,4.966259295211698 35.9,4.963471511727869 36.0,4.960573506572389 36.1,4.957565344100009 36.2,4.954447091111693 36.3,4.951218816853144 36.4,4.947880593013255 36.5,4.944432493722523 36.6,4.940874595551402 36.7,4.9372069775086045 36.8,4.9334297210393405 36.9,4.929542910023517 37.0,4.925546630773869 37.1,4.921440972034049 37.2,4.917226024976648 37.3,4.9129018832011795 37.4,4.908468642731995 37.5,4.903926402016152 37.6,4.899275261921234 37.7,4.894515325733103 37.8,4.889646699153609 37.9,4.8846694902982435 38.0,4.879583809693737 38.1,4.874389770275606 38.2,4.869087487385644 38.3,4.863677078769363 38.4,4.85815866457337 38.5,4.852532367342713 38.6,4.846798312018146 38.7,4.840956625933366 38.8,4.835007438812175 38.9,4.828950882765607 39.0,4.822787092288991 39.1,4.816516204258963 39.2,4.810138357930429 39.3,4.803653694933475 39.4,4.797062359270214 39.5,4.790364497311596 39.6,4.783560257794152 39.7,4.776649791816697 39.8,4.769633252836968 39.9,4.762510796668221 40.0,4.755282581475768 40.1,4.747948767773468 40.2,4.74050951842016 40.3,4.732964998616047 40.4,4.725315375899025 40.5,4.717560820140968 40.6,4.709701503543952 40.7,4.701737600636434 40.8,4.693669288269371 40.9,4.685496745612294 41.0,4.677220154149337 41.1,4.668839697675196 41.2,4.660355562291054 41.3,4.65176793640045 41.4,4.6430770107050865 41.5,4.634282978200604 41.6,4.6253860341722906 41.7,4.616386376190745 41.8,4.607284204107493 41.9,4.598079720050544 42.0,4.588773128419906 42.1,4.579364635883048 42.2,4.569854451370306 42.3,4.560242786070248 42.4,4.55052985342498 42.5,4.540715869125408 42.6,4.530801051106448 42.7,4.520785619542195 42.8,4.5106697968410145 42.9,4.500453807640619 43.0,4.490137878803078 43.1,4.4797222394097735 43.2,4.4692071207563195 43.3,4.458592756347421 43.4,4.44787938189169 43.5,4.437067235296418 43.6,4.426156556662276 43.7,4.415147588278004 43.8,4.404040574615019 43.9,4.392835762321977 44.0,4.381533400219318 44.1,4.370133739293722 44.2,4.3586370326925445 44.3,4.347043535718192 44.4,4.335353505822452 44.5,4.323567202600776 44.6,4.31168488778652 44.7,4.299706825245124 44.8,4.287633280968261 44.9,4.275464523067921 45.0,4.263200821770462 45.1,4.250842449410612 45.2,4.238389680425417 45.3,4.225842791348149 45.4,4.213202060802162 45.5,4.20046776949471 45.6,4.187640200210708 45.7,4.174719637806458 45.8,4.161706369203318 45.9,4.148600683381329 46.0,4.13540287137281 46.1,4.122113226255878 46.2,4.108732043147953 46.3,4.095259619199197 46.4,4.08169625358592 46.5,4.068042247503935 46.6,4.054297904161867 46.7,4.0404635287744215 46.8,4.026539428555611 46.9,4.0125259127119195 47.0,3.998423292435453 47.1,3.9842318808970214 47.2,3.9699519932391762 47.3,3.9555839465692317 47.4,3.9411280599522005 47.5,3.926584654403724 47.6,3.9119540528829413 47.7,3.8972365802853077 47.8,3.882432563435394 47.9,3.8675423310796164 48.0,3.8525662138789474 48.1,3.83750454440156 48.2,3.8223576571154583 48.3,3.8071258883810346 48.4,3.791809576443609 48.5,3.7764090614259183 48.6,3.760924685320557 48.7,3.745356791982391 48.8,3.729705727120911 48.9,3.7139718382925704 49.0,3.6981554748930496 49.1,3.6822569881495126 49.2,3.6662767311127986 49.3,3.6502150586495903 49.4,3.6340723274345144 49.5,3.6178488959422466 49.6,3.6015451244395353 49.7,3.5851613749772016 49.8,3.568698011382108 49.9,3.552155399249068 50.0,3.5355339059327378 50.1,3.5188339005394527 50.2,3.502055753919031 50.3,3.485199838656542 50.4,3.468266529064026 50.5,3.4512562011721863 50.6,3.4341692327220414 50.7,3.417006003156533 50.8,3.399766893612097 50.9,3.3824522869102065 51.0,3.3650625675488666 51.1,3.347598121694077 51.2,3.3300593371712583 51.3,3.312446603456634 51.4,3.2947603116685853 51.5,3.2770008545589695 51.6,3.259168626504395 51.7,3.2412640234974557 51.8,3.223287443137959 51.9,3.2052392846240623 52.0,3.1871199487434474 52.1,3.1689298378643933 52.2,3.150669355926845 52.3,3.1323389084334563 52.4,3.113938902440563 52.5,3.095469746549171 52.6,3.0769318508958583 52.7,3.0583256271436805 52.8,3.0396514884730266 52.9,3.020909849572443 53.0,3.00210112662942 53.1,2.9832257373211624 53.2,2.9642841008052967 53.3,2.9452766377105806 53.4,2.9262037701275516 53.5,2.9070659215991537 53.6,2.887863517111338 53.7,2.8685969830836218 53.8,2.8492667473596196 53.9,2.829873239197538 54.0,2.810416889260654 54.1,2.7908981296077378 54.2,2.77131739368347 54.3,2.751675116308813 54.4,2.731971733671346 54.5,2.7122076833155955 54.6,2.6923834041333 54.7,2.6724993363536855 54.8,2.652555921533672 54.9,2.6325536025480663 55.0,2.6124928235797444 55.1,2.592374030109776 55.2,2.572197668907533 55.3,2.551964188020766 55.4,2.531674036765664 55.5,2.5113276657168617 55.6,2.4909255266974544 55.7,2.4704680727689414 55.8,2.4499557582211837 55.9,2.429389038562305 56.0,2.408768370508576 56.1,2.3880942119742885 56.2,2.3673670220615612 56.3,2.3465872610501664 56.4,2.3257553903872905 56.5,2.304871872677312 56.6,2.283937171671497 56.7,2.2629517522577283 56.8,2.241916080450163 56.9,2.220830623378893 57.0,2.1996958492795766 57.1,2.178512227483025 57.2,2.1572802284047943 57.3,2.136000323534738 57.4,2.1146729854265165 57.5,2.09329868768714 57.6,2.0718779049664215 57.7,2.0504111129464424 57.8,2.0288987883309995 57.9,2.0073414088350106 58.0,1.985739453173903 58.1,1.9640934010529962 58.2,1.9424037331568291 58.3,1.920670931138513 58.4,1.898895477609007 58.5,1.8770778561264159 58.6,1.855218551185255 58.7,1.8333180482056832 58.8,1.811376833522729 58.9,1.789395394375482 59.0,1.7673742188962869 59.1,1.7453137960998863 59.2,1.7232146158725854 59.3,1.7010771689613458 59.4,1.6789019469629038 59.5,1.656689442312857 59.6,1.6344401482747115 59.7,1.6121545589289552 59.8,1.5898331691620569 59.9,1.5674764746554917 60.0,1.5450849718747397 60.1,1.5226591580582414 60.2,1.5001995312063805 60.3,1.4777065900704058 60.4,1.455180834141361 60.5,1.4326227636389905 60.6,1.4100328795006476 60.7,1.3874116833701422 60.8,1.364759677586627 60.9,1.3420773651734255 61.0,1.319365249826864 61.1,1.2966238359051039 61.2,1.2738536284169113 61.3,1.25105513301047 61.4,1.2282288559621328 61.5,1.2053753041651936 61.6,1.182494985118623 61.7,1.1595884069158024 61.8,1.1366560782332347 61.9,1.11369850831925 62.0,1.0907162069827139 62.1,1.0677096845816747 62.2,1.0446794520120601 62.3,1.0216260206963101 62.4,0.9985499025720352 62.5,0.9754516100806431 62.6,0.9523316561559504 62.7,0.9291905542128052 62.8,0.9060288181356884 62.9,0.8828469622672753 63.0,0.8596455013970479 63.1,0.8364249507498454 63.2,0.8131858259744167 63.3,0.7899286431319942 63.4,0.7666539186848047 63.5,0.7433621694846158 63.6,0.7200539127612631 63.7,0.696729666111149 63.8,0.6733899474857616 63.9,0.6500352751801751 64.0,0.6266661678215204 64.1,0.6032831443574928 64.2,0.5798867240448068 64.3,0.5564774264376847 64.4,0.533055771376298 64.5,0.5096222789752501 64.6,0.48617746961199804 64.7,0.4627218639153097 64.8,0.43925598275371575 64.9,0.4157803472239142 65.0,0.3922954786392253 65.1,0.3688018985179969 65.2,0.3453001285720303 65.3,0.3217906906950014 65.4,0.29827410695085327 65.5,0.27475089956223003 65.6,0.25122159089885054 65.7,0.22768670346592224 65.8,0.204146759892549 65.9,0.18060228292010747 66.0,0.15705379539064118 66.1,0.13350182023526322 66.2,0.10994688046252377 66.3,0.08638949914682252 66.4,0.06283019941676418 66.5,0.03926950444355484 66.6,0.01570793742939745 66.7,-0.007853978404155514 66.8,-0.03141571982779441 66.9,-0.054976763616091516 67.0,-0.07853658655910231 67.1,-0.10209466547399974 67.2,-0.12565047721668784 67.3,-0.14920349869340344 67.4,-0.1727532068723633 67.5,-0.19629907879534353 67.6,-0.21984059158932354 67.7,-0.24337722247808186 67.8,-0.26690844879380066 67.9,-0.2904337479886881 68.0,-0.31395259764656896 68.1,-0.3374644754944788 68.2,-0.3609688594143021 68.3,-0.38446522745430695 68.4,-0.4079530578407884 68.5,-0.43143182898961824 68.6,-0.4549010195178472 68.7,-0.4783601082552921 68.8,-0.5018085742560736 68.9,-0.5252458968102268 69.0,-0.5486715554552271 69.1,-0.572085029987578 69.2,-0.5954858004743508 69.3,-0.618873347264717 69.4,-0.6422471510015157 69.5,-0.6656066926327618 69.6,-0.6889514534231889 69.7,-0.7122809149657623 69.8,-0.7355945591931847 69.9,-0.758891868389418 70.0,-0.7821723252011537 70.1,-0.80543541264933 70.2,-0.8286806141405993 70.3,-0.8519074134787865 70.4,-0.8751152948763805 70.5,-0.8983037429659614 70.6,-0.9214722428116638 70.7,-0.9446202799206082 70.8,-0.9677473402542979 70.9,-0.9908529102400964 71.0,-1.0139364767825647 71.1,-1.036997527274886 71.2,-1.060035549610275 71.3,-1.0830500321932859 71.4,-1.1060404639512367 71.5,-1.129006334345518 71.6,-1.151947133382951 71.7,-1.174862351627108 71.8,-1.1977514802096088 71.9,-1.220614010841454 72.0,-1.2434494358242751 72.1,-1.26625724806164 72.2,-1.2890369410702998 72.3,-1.311788008991429 72.4,-1.3345099466018775 72.5,-1.3572022493253697 72.6,-1.3798644132437254 72.7,-1.4024959351080475 72.8,-1.4250963123498788 72.9,-1.4476650430923965 73.0,-1.4702016261615194 73.1,-1.4927055610970696 73.2,-1.5151763481638711 73.3,-1.5376134883628345 73.4,-1.5600164834420769 73.5,-1.5823848359079318 73.6,-1.6047180490360429 73.7,-1.6270156268823937 73.8,-1.6492770742942655 73.9,-1.671501896921306 74.0,-1.6936896012264575 74.1,-1.71583969449694 74.2,-1.7379516848551853 74.3,-1.7600250812697535 74.4,-1.782059393566255 74.5,-1.804054132438209 74.6,-1.8260088094579376 74.7,-1.8479229370873993 74.8,-1.8697960286890023 74.9,-1.8916275985364392 75.0,-1.9134171618254483 75.1,-1.9351642346845945 75.2,-1.9568683341860107 75.3,-1.9785289783561135 75.4,-2.000145686186324 75.5,-2.021717977643724 75.6,-2.0432453736817426 75.7,-2.0647273962507855 75.8,-2.0861635683088253 75.9,-2.1075534138320466 76.0,-2.1288964578253613 76.1,-2.150192226333002 76.2,-2.1714402464490243 76.3,-2.1926400463277913 76.4,-2.2137911551945106 76.5,-2.234893103355607 76.6,-2.2559454222092215 76.7,-2.2769476442556003 76.8,-2.297899303107439 76.9,-2.318799933500291 77.0,-2.339649071302866 77.1,-2.3604462535273525 77.2,-2.381191018339696 77.3,-2.401882905069842 77.4,-2.4225214542219913 77.5,-2.443106207484775 77.6,-2.463636707741457 77.7,-2.484112499080072 77.8,-2.504533126803548 77.9,-2.524898137439813 78.0,-2.5452070787518544 78.1,-2.5654594997477704 78.2,-2.585654950690785 78.3,-2.60579298310922 78.4,-2.625873149806481 78.5,-2.6458950048709524 78.6,-2.6658581036859412 78.7,-2.685762002939522 78.8,-2.7056062606343767 78.9,-2.725390436097644 79.0,-2.745114089990659 79.1,-2.764776784318745 79.2,-2.784378082440942 79.3,-2.8039175490796557 79.4,-2.8233947503303862 79.5,-2.8428092536713194 79.6,-2.8621606279729535 79.7,-2.8814484435076637 79.8,-2.9006722719592446 79.9,-2.919831686432433 80.0,-2.938926261462365 80.1,-2.9579555730240505 80.2,-2.9769191985417756 80.3,-2.9958167168984784 80.4,-3.0146477084451235 80.5,-3.033411755009997 80.6,-3.0521084399080105 80.7,-3.070737347949945 80.8,-3.089298065451669 80.9,-3.107790180243341 81.0,-3.1262132816785244 81.1,-3.144566960643363 81.2,-3.162850809565624 81.3,-3.1810644224237454 81.4,-3.199207394755893 81.5,-3.217279323668892 81.6,-3.2352798078472182 81.7,-3.2532084475618825 81.8,-3.271064844679305 81.9,-3.288848602670178 82.0,-3.306559326618257 82.1,-3.3241966232291316 82.2,-3.3417601008389655 82.3,-3.3592493694231758 82.4,-3.3766640406051254 82.5,-3.3940037276647055 82.6,-3.4112680455469797 82.7,-3.428456610870679 82.8,-3.445569041936741 82.9,-3.462604958736795 83.0,-3.479563982961573 83.1,-3.49644573800934 83.2,-3.5132498489942456 83.3,-3.5299759427546378 83.4,-3.5466236478613715 83.5,-3.563192594626028 83.6,-3.5796824151091555 83.7,-3.5960927431284215 83.8,-3.6124232142667467 83.9,-3.6286734658804054 84.0,-3.644843137107058 84.1,-3.6609318688737917 84.2,-3.6769393039050775 84.3,-3.692865086730709 84.4,-3.708708863693697 84.5,-3.72447028295811 84.6,-3.7401489945169115 84.7,-3.7557446501997136 84.8,-3.771256903680516 84.9,-3.7866854104853997 85.0,-3.802029828000153 85.1,-3.817289815477926 85.2,-3.832465034046751 85.3,-3.847555146717088 85.4,-3.862559818389322 85.5,-3.877478715861171 85.6,-3.8923115078351156 85.7,-3.907057864925741 85.8,-3.921717459667052 85.9,-3.936289966519744 86.0,-3.950775061878452 86.1,-3.9651724240788977 86.2,-3.9794817334050805 86.3,-3.9937026720963247 86.4,-4.007834924354382 86.5,-4.0218781763504206 86.6,-4.035832116231999 86.7,-4.049696434129996 86.8,-4.063470822165468 86.9,-4.077154974456534 87.0,-4.0907485871251135 87.1,-4.104251358303722 87.2,-4.117662988142137 87.3,-4.130983178814075 87.4,-4.144211634523813 87.5,-4.157348061512724 87.6,-4.170392168065855 87.7,-4.183343664518348 87.8,-4.196202263261909 87.9,-4.208967678751178 88.0,-4.221639627510074 88.1,-4.234217828138101 88.2,-4.246702001316582 88.3,-4.259091869814861 88.4,-4.271387158496475 88.5,-4.28358759432525 88.6,-4.295692906371361 88.7,-4.307702825817373 88.8,-4.319617085964174 88.9,-4.331435422236939 89.0,-4.3431575721909566 89.1,-4.354783275517504 89.2,-4.3663122740496 89.3,-4.377744311767745 89.4,-4.38907913480561 89.5,-4.4003164914556585 89.6,-4.4114561321747665 89.7,-4.422497809589728 89.8,-4.433441278502782 89.9,-4.444286295897028 90.0,-4.455032620941839 90.1,-4.465680014998211 90.2,-4.476228241624057 90.3,-4.486677066579456 90.4,-4.4970262578318545 90.5,-4.507275585561229 90.6,-4.517424822165172 90.7,-4.527473742263973 90.8,-4.537422122705584 90.9,-4.547269742570618 91.0,-4.557016383177225 91.1,-4.56666182808596 91.2,-4.576205863104589 91.3,-4.585648276292835 91.4,-4.594988857967107 91.5,-4.604227400705129 91.6,-4.6133636993505736 91.7,-4.622397551017591 91.8,-4.631328755095333 91.9,-4.640157113252402 92.0,-4.648882429441255 92.1,-4.657504509902561 92.2,-4.666023163169492 92.3,-4.674438200071992 92.4,-4.68274943374096 92.5,-4.6909566796124205 92.6,-4.699059755431597 92.7,-4.707058481256984 92.8,-4.7149526794643215 92.9,-4.722742174750557 93.0,-4.730426794137727 93.1,-4.7380063669767996 93.2,-4.745480724951474 93.3,-4.752849702081898 93.4,-4.760113134728384 93.5,-4.767270861595007 93.6,-4.7743227237332135 93.7,-4.781268564545346 93.8,-4.78810822978811 93.9,-4.794841567576011 94.0,-4.801468428384715 94.1,-4.807988665054387 94.2,-4.814402132792937 94.3,-4.820708689179258 94.4,-4.82690819416637 94.5,-4.833000510084537 94.6,-4.838985501644327 94.7,-4.844863035939614 94.8,-4.850632982450529 94.9,-4.856295213046356 95.0,-4.861849601988383 95.1,-4.867296025932688 95.2,-4.872634363932885 95.3,-4.877864497442803 95.4,-4.882986310319123 95.5,-4.887999688823953 95.6,-4.89290452162736 95.7,-4.897700699809838 95.8,-4.902388116864722 95.9,-4.906966668700567 96.0,-4.911436253643442 96.1,-4.915796772439208 96.2,-4.920048128255699 96.3,-4.924190226684891 96.4,-4.92822297574499 96.5,-4.932146285882477 96.6,-4.9359600699740955 96.7,-4.939664243328787 96.8,-4.943258723689571 96.9,-4.946743431235369 97.0,-4.950118288582788 97.1,-4.953383220787822 97.2,-4.956538155347533 97.3,-4.959583022201646 97.4,-4.962517753734118 97.5,-4.965342284774631 97.6,-4.968056552600042 97.7,-4.970660496935776 97.8,-4.973154059957161 97.9,-4.9755371862907225 98.0,-4.9778098230154 98.1,-4.979971919663729 98.2,-4.982023428222962 98.3,-4.983964303136133 98.4,-4.9857945013030704 98.5,-4.98751398208135 98.6,-4.989122707287207 98.7,-4.990620641196372 98.8,-4.992007750544875 98.9,-4.993284004529775 99.0,-4.99444937480985 99.1,-4.9955038355062245 99.2,-4.996447363202946 99.3,-4.997279936947501 99.4,-4.998001538251283 99.5,-4.998612151090002 99.6,-4.999111761904045 99.7,-4.999500359598768 99.8,-4.999777935544749 99.9,-4.99994448357798 100.0,-5.0 100.1,-4.99994448357798 100.2,-4.999777935544749 100.3,-4.999500359598768 100.4,-4.999111761904045 100.5,-4.998612151090002 100.6,-4.998001538251283 100.7,-4.997279936947501 100.8,-4.996447363202947 100.9,-4.9955038355062245 101.0,-4.99444937480985 101.1,-4.993284004529775 101.2,-4.992007750544875 101.3,-4.990620641196373 101.4,-4.9891227072872075 101.5,-4.987513982081351 101.6,-4.98579450130307 101.7,-4.983964303136133 101.8,-4.982023428222962 101.9,-4.979971919663729 102.0,-4.9778098230154 102.1,-4.975537186290723 102.2,-4.973154059957162 102.3,-4.970660496935776 102.4,-4.968056552600042 102.5,-4.965342284774631 102.6,-4.962517753734119 102.7,-4.959583022201647 102.8,-4.956538155347533 102.9,-4.953383220787822 103.0,-4.950118288582788 103.1,-4.94674343123537 103.2,-4.943258723689571 103.3,-4.939664243328787 103.4,-4.9359600699740955 103.5,-4.932146285882478 103.6,-4.9282229757449905 103.7,-4.924190226684892 103.8,-4.920048128255699 103.9,-4.915796772439208 104.0,-4.911436253643443 104.1,-4.906966668700567 104.2,-4.9023881168647225 104.3,-4.897700699809837 104.4,-4.892904521627361 104.5,-4.887999688823953 104.6,-4.882986310319124 104.7,-4.877864497442803 104.8,-4.872634363932885 104.9,-4.8672960259326885 105.0,-4.861849601988384 105.1,-4.856295213046357 105.2,-4.85063298245053 105.3,-4.844863035939616 105.4,-4.838985501644327 105.5,-4.833000510084537 105.6,-4.826908194166369 105.7,-4.820708689179258 105.8,-4.814402132792938 105.9,-4.807988665054387 106.0,-4.801468428384715 106.1,-4.794841567576011 106.2,-4.788108229788112 106.3,-4.781268564545348 106.4,-4.774322723733215 106.5,-4.767270861595006 106.6,-4.760113134728384 106.7,-4.752849702081899 106.8,-4.745480724951474 106.9,-4.7380063669768 107.0,-4.730426794137727 107.1,-4.722742174750558 107.2,-4.714952679464322 107.3,-4.7070584812569845 107.4,-4.699059755431597 107.5,-4.6909566796124205 107.6,-4.682749433740962 107.7,-4.674438200071992 107.8,-4.666023163169493 107.9,-4.657504509902562 108.0,-4.648882429441258 108.1,-4.640157113252404 108.2,-4.631328755095334 108.3,-4.62239755101759 108.4,-4.6133636993505736 108.5,-4.604227400705131 108.6,-4.594988857967108 108.7,-4.585648276292836 108.8,-4.5762058631045885 108.9,-4.5666618280859606 109.0,-4.557016383177228 109.1,-4.547269742570621 109.2,-4.537422122705584 109.3,-4.527473742263972 109.4,-4.517424822165173 109.5,-4.50727558556123 109.6,-4.497026257831857 109.7,-4.486677066579457 109.8,-4.476228241624059 109.9,-4.465680014998212 110.0,-4.45503262094184 110.1,-4.444286295897026 110.2,-4.433441278502782 110.3,-4.422497809589731 110.4,-4.411456132174767 110.5,-4.400316491455659 110.6,-4.389079134805609 110.7,-4.3777443117677475 110.8,-4.366312274049602 110.9,-4.354783275517505 111.0,-4.343157572190955 111.1,-4.331435422236937 111.2,-4.319617085964177 111.3,-4.3077028258173735 111.4,-4.295692906371362 111.5,-4.283587594325249 111.6,-4.271387158496477 111.7,-4.2590918698148625 111.8,-4.246702001316586 111.9,-4.234217828138102 112.0,-4.221639627510075 112.1,-4.208967678751177 112.2,-4.19620226326191 112.3,-4.183343664518351 112.4,-4.170392168065856 112.5,-4.157348061512727 112.6,-4.144211634523812 112.7,-4.130983178814076 112.8,-4.117662988142135 112.9,-4.104251358303723 113.0,-4.090748587125118 113.1,-4.077154974456535 113.2,-4.063470822165469 113.3,-4.049696434129994 113.4,-4.035832116232003 113.5,-4.021878176350425 113.6,-4.007834924354386 113.7,-3.9937026720963233 113.8,-3.9794817334050787 113.9,-3.965172424078901 114.0,-3.950775061878453 114.1,-3.936289966519748 114.2,-3.9217174596670508 114.3,-3.907057864925742 114.4,-3.892311507835116 114.5,-3.8774787158611757 114.6,-3.862559818389326 114.7,-3.8475551467170894 114.8,-3.8324650340467494 114.9,-3.8172898154779267 115.0,-3.802029828000154 115.1,-3.7866854104854006 115.2,-3.77125690368052 115.3,-3.7557446501997176 115.4,-3.7401489945169124 115.5,-3.7244702829581082 115.6,-3.708708863693695 115.7,-3.692865086730712 115.8,-3.67693930390508 115.9,-3.6609318688737913 116.0,-3.644843137107058 116.1,-3.6286734658804054 116.2,-3.612423214266751 116.3,-3.5960927431284255 116.4,-3.5796824151091537 116.5,-3.563192594626026 116.6,-3.5466236478613693 116.7,-3.529975942754641 116.8,-3.5132498489942483 116.9,-3.496445738009341 117.0,-3.4795639829615728 117.1,-3.4626049587367946 117.2,-3.4455690419367424 117.3,-3.4284566108706835 117.4,-3.411268045546981 117.5,-3.3940037276647086 117.6,-3.3766640406051236 117.7,-3.359249369423175 117.8,-3.3417601008389655 117.9,-3.324196623229136 118.0,-3.3065593266182614 118.1,-3.288848602670183 118.2,-3.271064844679303 118.3,-3.253208447561881 118.4,-3.235279807847222 118.5,-3.2172793236688957 118.6,-3.199207394755894 118.7,-3.1810644224237468 118.8,-3.162850809565623 118.9,-3.1445669606433677 119.0,-3.1262132816785293 119.1,-3.1077901802433425 119.2,-3.0892980654516706 119.3,-3.070737347949946 119.4,-3.0521084399080136 119.5,-3.0334117550100004 119.6,-3.0146477084451266 119.7,-2.99581671689848 119.8,-2.9769191985417764 119.9,-2.9579555730240514 120.0,-2.9389262614623703 120.1,-2.9198316864324347 120.2,-2.9006722719592464 120.3,-2.8814484435076655 120.4,-2.862160627972953 120.5,-2.8428092536713194 120.6,-2.8233947503303862 120.7,-2.8039175490796575 120.8,-2.784378082440943 120.9,-2.7647767843187463 121.0,-2.7451140899906568 121.1,-2.7253904360976424 121.2,-2.7056062606343803 121.3,-2.6857620029395237 121.4,-2.6658581036859426 121.5,-2.6458950048709537 121.6,-2.625873149806481 121.7,-2.605792983109225 121.8,-2.5856549506907904 121.9,-2.5654594997477718 122.0,-2.545207078751856 122.1,-2.524898137439815 122.2,-2.5045331268035516 122.3,-2.484112499080076 122.4,-2.4636367077414585 122.5,-2.4431062074847767 122.6,-2.422521454221993 122.7,-2.4018829050698396 122.8,-2.3811910183396976 122.9,-2.360446253527354 123.0,-2.3396490713028677 123.1,-2.3187999335002925 123.2,-2.2978993031074384 123.3,-2.2769476442556 123.4,-2.2559454222092272 123.5,-2.234893103355609 123.6,-2.213791155194512 123.7,-2.192640046327793 123.8,-2.171440246449022 123.9,-2.1501922263330058 124.0,-2.128896457825365 124.1,-2.1075534138320484 124.2,-2.086163568308827 124.3,-2.064727396250785 124.4,-2.0432453736817484 124.5,-2.0217179776437293 124.6,-2.000145686186326 124.7,-1.9785289783561153 124.8,-1.9568683341860125 124.9,-1.9351642346845943 125.0,-1.913417161825452 125.1,-1.8916275985364388 125.2,-1.8697960286890039 125.3,-1.8479229370874009 125.4,-1.8260088094579352 125.5,-1.8040541324382064 125.6,-1.7820593935662565 125.7,-1.760025081269755 125.8,-1.7379516848551868 125.9,-1.7158396944969394 126.0,-1.693689601226457 126.1,-1.6715018969213056 126.2,-1.6492770742942675 126.3,-1.6270156268823954 126.4,-1.6047180490360449 126.5,-1.5823848359079293 126.6,-1.5600164834420744 126.7,-1.5376134883628385 126.8,-1.5151763481638727 126.9,-1.4927055610970714 127.0,-1.4702016261615214 127.1,-1.4476650430923985 127.2,-1.425096312349885 127.3,-1.402495935108049 127.4,-1.3798644132437317 127.5,-1.3572022493253713 127.6,-1.334509946601875 127.7,-1.3117880089914329 127.8,-1.2890369410702993 127.9,-1.2662572480616376 128.0,-1.2434494358242725 128.1,-1.2206140108414516 128.2,-1.1977514802096105 128.3,-1.1748623516271097 128.4,-1.151947133382953 128.5,-1.1290063343455154 128.6,-1.1060404639512385 128.7,-1.0830500321932854 128.8,-1.0600355496102702 128.9,-1.036997527274888 129.0,-1.0139364767825623 129.1,-0.9908529102400981 129.2,-0.9677473402543041 129.3,-0.9446202799206055 129.4,-0.9214722428116634 129.5,-0.8983037429659655 129.6,-0.8751152948763801 129.7,-0.8519074134787927 129.8,-0.8286806141405968 129.9,-0.8054354126493318 130.0,-0.7821723252011556 130.1,-0.7588918683894198 130.2,-0.735594559193191 130.3,-0.7122809149657598 130.4,-0.6889514534231929 130.5,-0.6656066926327614 130.6,-0.6422471510015197 130.7,-0.6188733472647188 130.8,-0.5954858004743483 130.9,-0.5720850299875798 131.0,-0.5486715554552288 131.1,-0.5252458968102287 131.2,-0.5018085742560798 131.3,-0.478360108255294 131.4,-0.45490101951784906 131.5,-0.43143182898961346 131.6,-0.4079530578407858 131.7,-0.3844652274543176 131.8,-0.36096885941430396 131.9,-0.337464475494485 132.0,-0.3139525976465663 132.1,-0.2904337479886855 132.2,-0.2669084487938047 132.3,-0.24337722247808147 132.4,-0.21984059158932093 132.5,-0.19629907879534092 132.6,-0.1727532068723607 132.7,-0.14920349869340527 132.8,-0.12565047721668968 132.9,-0.10209466547400159 133.0,-0.07853658655909972 133.1,-0.054976763616093355 133.2,-0.03141571982779403 133.3,-0.00785397840415069 133.4,0.015707937429400055 133.5,0.039269504443557444 133.6,0.06283019941676235 133.7,0.08638949914682068 133.8,0.10994688046252636 133.9,0.13350182023526583 134.0,0.15705379539063935 134.1,0.18060228292010785 134.2,0.20414675989254494 134.3,0.22768670346592484 134.4,0.25122159089884866 134.5,0.2747508995622282 134.6,0.2982741069508515 134.7,0.3217906906949951 134.8,0.34530012857203296 134.9,0.36880189851799283 135.0,0.3922954786392257 135.1,0.4157803472239102 135.2,0.43925598275371397 135.3,0.46272186391531234 135.4,0.48617746961199626 135.5,0.5096222789752483 135.6,0.5330557713762962 135.7,0.5564774264376785 135.8,0.579886724044805 135.9,0.6032831443574931 136.0,0.6266661678215253 136.1,0.6500352751801732 136.2,0.6733899474857553 136.3,0.6967296661111472 136.4,0.7200539127612591 136.5,0.7433621694846161 136.6,0.7666539186847986 136.7,0.7899286431319881 136.8,0.8131858259744194 136.9,0.8364249507498478 137.0,0.8596455013970504 137.1,0.8828469622672758 137.2,0.9060288181356823 137.3,0.9291905542128054 137.4,0.9523316561559507 137.5,0.9754516100806455 137.6,0.9985499025720335 137.7,1.0216260206963104 137.8,1.0446794520120628 137.9,1.0677096845816771 138.0,1.090716206982714 138.1,1.1136985083192505 138.2,1.1366560782332307 138.3,1.1595884069158027 138.4,1.1824949851186277 138.5,1.2053753041651918 138.6,1.228228855962133 138.7,1.2510551330104638 138.8,1.273853628416914 138.9,1.296623835905104 139.0,1.3193652498268647 139.1,1.3420773651734217 139.2,1.3647596775866233 139.3,1.3874116833701469 139.4,1.4100328795006458 139.5,1.432622763638993 139.6,1.455180834141355 139.7,1.4777065900704043 139.8,1.500199531206383 139.9,1.5226591580582416 140.0,1.545084971874736 140.1,1.5674764746554881 140.2,1.5898331691620506 140.3,1.6121545589289534 140.4,1.634440148274714 140.5,1.6566894423128509 140.6,1.678901946962902 140.7,1.7010771689613378 140.8,1.7232146158725856 140.9,1.7453137960998866 141.0,1.767374218896283 141.1,1.7893953943754781 141.2,1.8113768335227232 141.3,1.8333180482056857 141.4,1.8552185511852595 141.5,1.8770778561264185 141.6,1.8988954776089992 141.7,1.9206709311385093 141.8,1.9424037331568296 141.9,1.9640934010529965 142.0,1.9857394531739074 142.1,2.007341408835009 142.2,2.0288987883309937 142.3,2.050411112946447 142.4,2.0718779049664238 142.5,2.0932986876871422 142.6,2.114672985426517 142.7,2.1360003235347342 142.8,2.157280228404797 142.9,2.1785122274830293 143.0,2.199695849279575 143.1,2.220830623378895 143.2,2.241916080450158 143.3,2.2629517522577305 143.4,2.283937171671499 143.5,2.3048718726773125 143.6,2.325755390387291 143.7,2.3465872610501624 143.8,2.3673670220615652 143.9,2.388094211974287 144.0,2.4087683705085783 144.1,2.4293890385622996 144.2,2.4499557582211824 144.3,2.4704680727689436 144.4,2.490925526697455 144.5,2.511327665716862 144.6,2.531674036765661 144.7,2.551964188020763 144.8,2.5721976689075317 144.9,2.592374030109778 145.0,2.6124928235797413 145.1,2.6325536025480645 145.2,2.652555921533665 145.3,2.6724993363536873 145.4,2.6923834041333006 145.5,2.7122076833155924 145.6,2.731971733671342 145.7,2.7516751163088076 145.8,2.7713173936834723 145.9,2.7908981296077346 146.0,2.8104168892606527 146.1,2.829873239197533 146.2,2.849266747359616 146.3,2.8685969830836218 146.4,2.88786351711134 146.5,2.90706592159915 146.6,2.9262037701275467 146.7,2.9452766377105757 146.8,2.9642841008053007 146.9,2.9832257373211646 147.0,3.002101126629422 147.1,3.0209098495724396 147.2,3.0396514884730195 147.3,3.0583256271436827 147.4,3.0769318508958623 147.5,3.0954697465491696 147.6,3.1139389024405646 147.7,3.132338908433448 147.8,3.150669355926849 147.9,3.1689298378643955 148.0,3.18711994874345 148.1,3.2052392846240623 148.2,3.2232874431379557 148.3,3.241264023497461 148.4,3.259168626504394 148.5,3.2770008545589717 148.6,3.2947603116685826 148.7,3.3124466034566327 148.8,3.3300593371712606 148.9,3.3475981216940793 149.0,3.3650625675488666 149.1,3.3824522869102047 149.2,3.399766893612094 149.3,3.4170060031565317 149.4,3.4341692327220437 149.5,3.4512562011721837 149.6,3.4682665290640244 149.7,3.4851998386565377 149.8,3.502055753919033 149.9,3.518833900539453 150.0,3.535533905932737 150.1,3.552155399249065 150.2,3.5686980113821036 150.3,3.5851613749772033 150.4,3.6015451244395322 150.5,3.6178488959422466 150.6,3.63407232743451 150.7,3.6502150586495876 150.8,3.6662767311128004 150.9,3.6822569881495113 151.0,3.6981554748930465 151.1,3.713971838292566 151.2,3.729705727120907 151.3,3.7453567919823936 151.4,3.7609246853205605 151.5,3.7764090614259143 151.6,3.7918095764436077 151.7,3.807125888381029 151.8,3.82235765711546 151.9,3.8375045444015643 152.0,3.8525662138789434 152.1,3.8675423310796124 152.2,3.8824325634353887 152.3,3.8972365802853104 152.4,3.9119540528829426 152.5,3.926584654403726 152.6,3.941128059952195 152.7,3.9555839465692277 152.8,3.9699519932391802 152.9,3.98423188089702 153.0,3.9984232924354544 153.1,4.012525912711917 153.2,4.026539428555605 153.3,4.040463528774424 153.4,4.054297904161869 153.5,4.068042247503935 153.6,4.081696253585919 153.7,4.095259619199195 153.8,4.108732043147952 153.9,4.122113226255879 154.0,4.135402871372808 154.1,4.14860068338133 154.2,4.161706369203314 154.3,4.17471963780646 154.4,4.1876402002107085 154.5,4.2004677694947095 154.6,4.2132020608021605 154.7,4.225842791348145 154.8,4.238389680425418 154.9,4.2508424494106105 155.0,4.263200821770462 155.1,4.275464523067917 155.2,4.287633280968261 155.3,4.299706825245125 155.4,4.3116848877865195 155.5,4.323567202600774 155.6,4.335353505822448 155.7,4.347043535718188 155.8,4.358637032692544 155.9,4.370133739293722 156.0,4.381533400219316 156.1,4.392835762321976 156.2,4.404040574615014 156.3,4.415147588278007 156.4,4.426156556662275 156.5,4.437067235296414 156.6,4.4478793818916875 156.7,4.458592756347417 156.8,4.469207120756321 156.9,4.479722239409775 157.0,4.490137878803077 157.1,4.500453807640616 157.2,4.510669796841012 157.3,4.520785619542198 157.4,4.530801051106449 157.5,4.540715869125409 157.6,4.550529853424976 157.7,4.560242786070244 157.8,4.569854451370308 157.9,4.579364635883048 158.0,4.5887731284199065 158.1,4.598079720050543 158.2,4.607284204107488 158.3,4.6163863761907455 158.4,4.625386034172292 158.5,4.634282978200604 158.6,4.643077010705087 158.7,4.651767936400448 158.8,4.6603555622910555 158.9,4.668839697675196 159.0,4.677220154149336 159.1,4.685496745612293 159.2,4.693669288269369 159.3,4.701737600636436 159.4,4.709701503543952 159.5,4.717560820140968 159.6,4.725315375899023 159.7,4.732964998616046 159.8,4.74050951842016 159.9,4.747948767773468 160.0,4.755282581475767 160.1,4.762510796668219 160.2,4.769633252836966 160.3,4.776649791816697 160.4,4.783560257794153 160.5,4.790364497311595 160.6,4.797062359270214 160.7,4.803653694933473 160.8,4.8101383579304295 160.9,4.816516204258962 161.0,4.82278709228899 161.1,4.828950882765606 161.2,4.835007438812174 161.3,4.840956625933367 161.4,4.846798312018145 161.5,4.852532367342712 161.6,4.858158664573368 161.7,4.863677078769361 161.8,4.869087487385646 161.9,4.874389770275606 162.0,4.879583809693736 162.1,4.884669490298243 162.2,4.889646699153608 162.3,4.894515325733105 162.4,4.899275261921235 162.5,4.903926402016151 162.6,4.908468642731993 162.7,4.912901883201178 162.8,4.917226024976649 162.9,4.92144097203405 163.0,4.9255466307738685 163.1,4.929542910023516 163.2,4.933429721039339 163.3,4.9372069775086045 163.4,4.940874595551403 163.5,4.944432493722523 163.6,4.947880593013255 163.7,4.951218816853144 163.8,4.9544470911116925 163.9,4.957565344100008 164.0,4.960573506572389 164.1,4.963471511727868 164.2,4.966259295211696 164.3,4.968936795116768 164.4,4.971503951984994 164.5,4.973960708808632 164.6,4.976307011031541 164.7,4.9785428065504 164.8,4.980668045715863 164.9,4.9826826813336575 165.0,4.9845866686656395 165.1,4.986379965430785 165.2,4.988062531806126 165.3,4.989634330427635 165.4,4.991095326391059 165.5,4.99244548725269 165.6,4.993684783030087 165.7,4.994813186202745 165.8,4.995830671712701 165.9,4.996737216965092 166.0,4.997532801828658 166.1,4.99821740863619 166.2,4.99879102218492 166.3,4.999253629736859 166.4,4.99960522101908 166.5,4.999845788223948 166.6,4.999975326009291 166.7,4.999993831498518 166.8,4.9999013042806855 166.9,4.999697746410507 167.0,4.999383162408303 167.1,4.998957559259906 167.2,4.9984209464165 167.3,4.997773335794417 167.4,4.997014741774865 167.5,4.996145181203615 167.6,4.995164673390624 167.7,4.994073240109606 167.8,4.992870905597549 167.9,4.991557696554177 168.0,4.990133642141358 168.1,4.988598773982453 168.2,4.986953126161619 168.3,4.985196735223045 168.4,4.98332964017015 168.5,4.981351882464707 168.6,4.979263506025929 168.7,4.977064557229491 168.8,4.9747550849065005 168.9,4.972335140342415 169.0,4.969804777275899 169.1,4.967164051897633 169.2,4.964413022849069 169.3,4.961551751221121 169.4,4.958580300552815 169.5,4.955498736829875 169.6,4.952307128483257 169.7,4.949005546387632 169.8,4.945594063859808 169.9,4.942072756657112 170.0,4.938441702975689 170.1,4.934700983448785 170.2,4.930850681144944 170.3,4.926890881566169 170.4,4.922821672646026 170.5,4.918643144747681 170.6,4.914355390661897 170.7,4.909958505604983 170.8,4.90545258721667 170.9,4.900837735557947 171.0,4.896114053108829 171.1,4.8912816447661 171.2,4.886340617840968 171.3,4.881291082056683 171.4,4.876133149546117 171.5,4.870866934849246 171.6,4.865492554910632 171.7,4.860010129076816 171.8,4.854419779093656 171.9,4.84872162910365 172.0,4.842915805643155 172.1,4.837002437639594 172.2,4.830981656408577 172.3,4.824853595650992 172.4,4.818618391450047 172.5,4.812276182268235 172.6,4.80582710894426 172.7,4.799271314689911 172.8,4.79260894508688 172.9,4.785840148083541 173.0,4.778965073991652 173.1,4.771983875483016 173.2,4.764896707586097 173.3,4.757703727682574 173.4,4.750405095503857 173.5,4.743000973127523 173.6,4.735491524973724 173.7,4.727876917801531 173.8,4.7201573207052485 173.9,4.7123329051106415 174.0,4.704403844771131 174.1,4.696370315763938 174.2,4.6882324964861795 174.3,4.679990567650898 174.4,4.67164471228306 174.5,4.663195115715473 174.6,4.65464196558468 174.7,4.6459854518268004 174.8,4.637225766673302 174.9,4.62836310464675 175.0,4.6193976625564375 175.1,4.610329639494078 175.2,4.601159236829353 175.3,4.591886658205437 175.4,4.582512109534492 175.5,4.573035798993069 175.6,4.563457937017514 175.7,4.553778736299281 175.8,4.543998411780198 175.9,4.534117180647726 176.0,4.5241352623301 176.1,4.514052878491469 176.2,4.503870253026994 176.3,4.493587612057838 176.4,4.483205183926181 176.5,4.472723199190125 176.6,4.462141890618591 176.7,4.451461493186134 176.8,4.440682244067722 176.9,4.429804382633508 177.0,4.418828150443464 177.1,4.407753791242051 177.2,4.396581550952784 177.3,4.385311677672782 177.4,4.373944421667264 177.5,4.362480035363988 177.6,4.350918773347633 177.7,4.339260892354156 177.8,4.327506651265093 177.9,4.315656311101815 178.0,4.303710135019718 178.1,4.291668388302377 178.2,4.279531338355666 178.3,4.267299254701824 178.4,4.254972408973462 178.5,4.242551074907524 178.6,4.230035528339215 178.7,4.217426047195886 178.8,4.204722911490841 178.9,4.191926403317154 179.0,4.179036806841355 179.1,4.166054408297146 179.2,4.1529794959790625 179.3,4.139812360236048 179.4,4.126553293465004 179.5,4.1132025901043034 179.6,4.099760546627264 179.7,4.08622746153555 179.8,4.0726036353525465 179.9,4.058889370616691 180.0,4.045084971874738 180.1,4.031190745675023 180.2,4.01720700056064 180.3,4.0031340470625745 180.4,3.9889721976928594 180.5,3.9747217669375527 180.6,3.960383071249836 180.7,3.945956429042947 180.8,3.9314421606830976 180.9,3.9168405884823914 181.0,3.902152036691648 181.1,3.8873768314932073 181.2,3.8725153009936757 181.3,3.857567775216641 181.4,3.8425345860953803 181.5,3.8274160674654363 181.6,3.812212555057244 181.7,3.7969243864886257 181.8,3.7815519012573606 181.9,3.766095440733599 182.0,3.7505553481523006 182.1,3.7349319686055953 182.2,3.71922564903513 182.3,3.703436738224371 182.4,3.687565586790864 182.5,3.6716125471784267 182.6,3.655577973649323 182.7,3.6394622222764097 182.8,3.623265650935232 182.9,3.606988619296074 183.0,3.5906314888159514 183.1,3.574194622730602 183.2,3.5576783860464296 183.3,3.541083145532374 183.4,3.5244092697118057 183.5,3.507657128854282 183.6,3.490827094967364 183.7,3.4739195417883657 183.8,3.4569348447760353 183.9,3.4398733811022093 184.0,3.4227355296434485 184.1,3.4055216709726372 184.2,3.3882321873505123 184.3,3.3708674627171806 184.4,3.3534278826836035 184.5,3.335913834522999 184.6,3.318325707162291 184.7,3.300663891173446 184.8,3.2829287787647896 184.9,3.265120763772309 185.0,3.247240241650921 185.1,3.229287609465671 185.2,3.211263265882927 185.3,3.193167611161502 185.4,3.175001047143804 185.5,3.1567639772468867 185.6,3.1384568064535054 185.7,3.1200799413031004 185.8,3.1016337898827784 185.9,3.083118761818298 186.0,3.064535268264883 186.1,3.045883721898176 186.2,3.0271645369050098 186.3,3.0083781289742624 186.4,2.9895249152875927 186.5,2.9706053145101956 186.6,2.95161974678148 186.7,2.932568633705756 186.8,2.9134523983428764 186.9,2.8942714651988504 187.0,2.875026260216391 187.1,2.8557172107654596 187.2,2.8363447456337902 187.3,2.8169092950173495 187.4,2.797411290510838 187.5,2.7778511650980193 187.6,2.7582293531421564 187.7,2.7385462903763753 187.8,2.7188024138939553 187.9,2.698998162138671 188.0,2.6791339748949863 188.1,2.659210293278335 188.2,2.63922755972533 188.3,2.6191862179839283 188.4,2.5990867131035555 188.5,2.5789294914252423 188.6,2.5587150005717274 188.7,2.5384436894374924 188.8,2.5181160081788017 188.9,2.497732408203717 189.0,2.477293342162038 189.1,2.4567992639352982 189.2,2.4362506286266643 189.3,2.4156478925508122 189.4,2.3949915132238107 189.5,2.374281949352976 189.6,2.353519660826663 189.7,2.332705108704069 189.8,2.311838755204962 189.9,2.290921063699464 190.0,2.2699524986977315 190.1,2.2489335258396537 190.2,2.2278646118844896 190.3,2.2067462247005185 190.4,2.1855788332546675 190.5,2.1643629076020696 190.6,2.1430989188756473 190.7,2.121787339275612 190.8,2.1004286420590317 190.9,2.0790233015292845 191.0,2.057571793025547 191.1,2.0360745929122097 191.2,2.014532178568319 191.3,1.9929450283769803 191.4,1.971313621714747 191.5,1.949638438940947 191.6,1.9279199613869855 191.7,1.9061586713457535 191.8,1.8843550520608108 191.9,1.8625095877157618 192.0,1.840622763423398 192.1,1.8186950652149803 192.2,1.796726980029456 192.3,1.7747189957026124 192.4,1.7526716009562924 192.5,1.7305852853874675 192.6,1.7084605394574248 192.7,1.6862978544808485 192.8,1.6640977226149358 192.9,1.6418606368484512 193.0,1.6195870909907526 193.1,1.5972775796608774 193.2,1.5749325982765239 193.3,1.5525526430430587 193.4,1.5301382109425063 193.5,1.507689799722478 193.6,1.4852079078851714 193.7,1.4626930346762725 193.8,1.4401456800738541 193.9,1.417566344777289 194.0,1.394955530196149 194.1,1.372313738439043 194.2,1.3496414723024872 194.3,1.3269392352597014 194.4,1.3042075314494843 194.5,1.28144686566498 194.6,1.2586577433424881 194.7,1.2358406705502127 194.8,1.2129961539770424 194.9,1.1901247009213152 195.0,1.1672268192795268 195.1,1.14430301753507 195.2,1.1213538047469083 195.3,1.0983796905383236 195.4,1.0753811850855635 195.5,1.0523587991065306 195.6,1.029313043849415 195.7,1.006244431081357 195.8,0.9831534730771028 195.9,0.9600406826075996 196.0,0.9369065729286284 196.1,0.9137516577693701 196.2,0.8905764513210589 196.3,0.867381468225485 196.4,0.8441672235636717 196.5,0.8209342328443228 196.6,0.7976830119924367 196.7,0.7744140773378578 196.8,0.7511279456037758 196.9,0.7278251338953037 197.0,0.7045061596879155 197.1,0.6811715408160166 197.2,0.6578217954614176 197.3,0.6344574421418545 197.4,0.6110789996994552 197.5,0.5876869872891933 197.6,0.5642819243674106 197.7,0.5408643306802473 197.8,0.5174347262521088 197.9,0.49399363137412716 198.0,0.47054156659257074 198.1,0.44707905269733883 198.2,0.42360661071037814 198.3,0.4001247618740516 198.4,0.3766340276396686 198.5,0.3531349296558355 198.6,0.32962798975688834 198.7,0.30611372995131453 198.8,0.28259267241012465 198.9,0.2590653394553102 199.0,0.23553225354820936 199.1,0.21199393727792248 199.2,0.18845091334968056 199.3,0.16490370457325554 199.4,0.14135283385136818 199.5,0.11779882416804971 199.6,0.09424219857704573 199.7,0.07068348019016556 199.8,0.04712319216571893 199.9,0.02356185769686304 200.0,1.8369701987210296e-15 200.1,-0.023561857696859367 200.2,-0.04712319216571527 200.3,-0.07068348019016188 200.4,-0.09424219857704205 200.5,-0.11779882416804605 200.6,-0.14135283385136452 200.7,-0.16490370457324297 200.8,-0.18845091334967687 200.9,-0.21199393727791882 201.0,-0.2355322535482057 201.1,-0.2590653394553065 201.2,-0.282592672410121 201.3,-0.3061137299513109 201.4,-0.3296279897568847 201.5,-0.35313492965583176 201.6,-0.37663402763965614 201.7,-0.400124761874039 201.8,-0.42360661071036565 201.9,-0.4470790526973351 202.0,-0.47054156659256713 202.1,-0.49399363137412344 202.2,-0.5174347262521141 202.3,-0.5408643306802524 202.4,-0.564281924367407 202.5,-0.5876869872891809 202.6,-0.6110789996994428 202.7,-0.634457442141842 202.8,-0.6578217954614052 202.9,-0.6811715408160042 203.0,-0.704506159687912 203.1,-0.7278251338953089 203.2,-0.751127945603781 203.3,-0.7744140773378543 203.4,-0.7976830119924332 203.5,-0.8209342328443192 203.6,-0.8441672235636681 203.7,-0.8673814682254812 203.8,-0.8905764513210466 203.9,-0.9137516577693665 204.0,-0.9369065729286248 204.1,-0.9600406826075959 204.2,-0.9831534730770991 204.3,-1.0062444310813534 204.4,-1.0293130438494111 204.5,-1.052358799106527 204.6,-1.07538118508556 204.7,-1.09837969053832 204.8,-1.1213538047469047 204.9,-1.1443030175350664 205.0,-1.167226819279523 205.1,-1.1901247009213116 205.2,-1.2129961539770304 205.3,-1.2358406705502092 205.4,-1.2586577433424844 205.5,-1.2814468656649765 205.6,-1.3042075314494808 205.7,-1.3269392352596983 205.8,-1.3496414723024834 205.9,-1.3723137384390396 206.0,-1.3949555301961452 206.1,-1.417566344777277 206.2,-1.4401456800738421 206.3,-1.462693034676269 206.4,-1.4852079078851679 206.5,-1.5076897997224747 206.6,-1.5301382109425026 206.7,-1.5525526430430636 206.8,-1.5749325982765288 206.9,-1.5972775796608738 207.0,-1.6195870909907406 207.1,-1.6418606368484392 207.2,-1.6640977226149238 207.3,-1.686297854480837 207.4,-1.708460539457413 207.5,-1.7305852853874644 207.6,-1.752671600956297 207.7,-1.7747189957026173 207.8,-1.7967269800294527 207.9,-1.818695065214977 208.0,-1.8406227634233945 208.1,-1.8625095877157503 208.2,-1.884355052060807 208.3,-1.9061586713457417 208.4,-1.9279199613869822 208.5,-1.9496384389409436 208.6,-1.9713136217147518 208.7,-1.992945028376985 208.8,-2.0145321785683152 208.9,-2.036074592912206 209.0,-2.0575717930255433 209.1,-2.079023301529281 209.2,-2.10042864205902 209.3,-2.121787339275609 209.4,-2.1430989188756437 209.5,-2.1643629076020665 209.6,-2.185578833254664 209.7,-2.206746224700508 209.8,-2.2278646118844865 209.9,-2.24893352583965 210.0,-2.2699524986977284 210.1,-2.290921063699461 210.2,-2.3118387552049584 210.3,-2.3327051087040656 210.4,-2.35351966082666 210.5,-2.3742819493529725 210.6,-2.3949915132237996 210.7,-2.4156478925508016 210.8,-2.436250628626661 210.9,-2.456799263935295 211.0,-2.477293342162035 211.1,-2.497732408203714 211.2,-2.518116008178807 211.3,-2.538443689437489 211.4,-2.5587150005717247 211.5,-2.578929491425232 211.6,-2.5990867131035444 211.7,-2.619186217983917 211.8,-2.6392275597253265 211.9,-2.6592102932783312 212.0,-2.6791339748949827 212.1,-2.698998162138675 212.2,-2.7188024138939597 212.3,-2.738546290376372 212.4,-2.758229353142146 212.5,-2.7778511650980087 212.6,-2.7974112905108273 212.7,-2.8169092950173464 212.8,-2.83634474563378 212.9,-2.855717210765456 213.0,-2.875026260216395 213.1,-2.8942714651988544 213.2,-2.91345239834288 213.3,-2.9325686337057535 213.4,-2.9516197467814775 213.5,-2.970605314510193 213.6,-2.9895249152875896 213.7,-3.008378128974252 213.8,-3.027164536905007 213.9,-3.0458837218981727 214.0,-3.0645352682648803 214.1,-3.0831187618182954 214.2,-3.1016337898827757 214.3,-3.1200799413030977 214.4,-3.1384568064535023 214.5,-3.156763977246884 214.6,-3.1750010471438013 214.7,-3.193167611161499 214.8,-3.2112632658829243 214.9,-3.229287609465668 215.0,-3.2472402416509185 215.1,-3.2651207637722997 215.2,-3.2829287787647803 215.3,-3.300663891173443 215.4,-3.3183257071622885 215.5,-3.3359138345229966 215.6,-3.353427882683601 215.7,-3.3708674627171846 215.8,-3.3882321873505097 215.9,-3.405521670972634 216.0,-3.422735529643439 216.1,-3.4398733811022 216.2,-3.4569348447760255 216.3,-3.473919541788363 216.4,-3.4908270949673614 216.5,-3.5076571288542793 216.6,-3.5244092697118097 216.7,-3.541083145532378 216.8,-3.5576783860464274 216.9,-3.574194622730593 217.0,-3.5906314888159425 217.1,-3.606988619296065 217.2,-3.6232656509352297 217.3,-3.6394622222764066 217.4,-3.6555779736493212 217.5,-3.67161254717843 217.6,-3.687565586790868 217.7,-3.7034367382243745 217.8,-3.7192256490351276 217.9,-3.7349319686055873 218.0,-3.750555348152292 218.1,-3.7660954407335963 218.2,-3.781551901257352 218.3,-3.796924386488624 218.4,-3.8122125550572417 218.5,-3.8274160674654394 218.6,-3.8425345860953835 218.7,-3.857567775216639 218.8,-3.8725153009936735 218.9,-3.887376831493205 219.0,-3.902152036691646 219.1,-3.916840588482384 219.2,-3.9314421606830896 219.3,-3.9459564290429445 219.4,-3.960383071249834 219.5,-3.9747217669375505 219.6,-3.9889721976928523 219.7,-4.003134047062577 219.8,-4.017207000560639 219.9,-4.031190745675021 220.0,-4.045084971874736 220.1,-4.058889370616689 220.2,-4.072603635352549 220.3,-4.0862274615355485 220.4,-4.099760546627262 220.5,-4.113202590104296 220.6,-4.126553293464997 220.7,-4.139812360236041 220.8,-4.152979495979061 220.9,-4.1660544082971445 221.0,-4.179036806841352 221.1,-4.191926403317157 221.2,-4.204722911490845 221.3,-4.217426047195883 221.4,-4.230035528339208 221.5,-4.242551074907517 221.6,-4.2549724089734555 221.7,-4.267299254701822 221.8,-4.279531338355664 221.9,-4.291668388302376 222.0,-4.30371013501972 222.1,-4.315656311101818 222.2,-4.327506651265096 222.3,-4.33926089235415 222.4,-4.350918773347628 222.5,-4.362480035363982 222.6,-4.373944421667262 222.7,-4.385311677672775 222.8,-4.3965815509527815 222.9,-4.407753791242054 223.0,-4.418828150443466 223.1,-4.42980438263351 223.2,-4.4406822440677205 223.3,-4.451461493186132 223.4,-4.46214189061859 223.5,-4.472723199190123 223.6,-4.483205183926175 223.7,-4.493587612057833 223.8,-4.503870253026992 223.9,-4.5140528784914675 224.0,-4.524135262330098 224.1,-4.5341171806477245 224.2,-4.5439984117802 224.3,-4.55377873629928 224.4,-4.563457937017512 224.5,-4.573035798993067 224.6,-4.582512109534487 224.7,-4.591886658205432 224.8,-4.601159236829352 224.9,-4.6103296394940765 225.0,-4.619397662556432 225.1,-4.628363104646746 225.2,-4.637225766673304 225.3,-4.6459854518268 225.4,-4.654641965584679 225.5,-4.663195115715471 225.6,-4.6716447122830616 225.7,-4.6799905676509 225.8,-4.688232496486179 225.9,-4.696370315763934 226.0,-4.704403844771127 226.1,-4.712332905110638 226.2,-4.720157320705248 226.3,-4.72787691780153 226.4,-4.735491524973722 226.5,-4.743000973127525 226.6,-4.750405095503859 226.7,-4.757703727682576 226.8,-4.764896707586093 226.9,-4.771983875483013 227.0,-4.778965073991649 227.1,-4.78584014808354 227.2,-4.792608945086877 227.3,-4.799271314689909 227.4,-4.8058271089442615 227.5,-4.812276182268237 227.6,-4.818618391450049 227.7,-4.82485359565099 227.8,-4.830981656408573 227.9,-4.837002437639591 228.0,-4.8429158056431545 228.1,-4.848721629103647 228.2,-4.854419779093654 228.3,-4.860010129076814 228.4,-4.865492554910633 228.5,-4.870866934849247 228.6,-4.876133149546116 228.7,-4.881291082056684 228.8,-4.886340617840968 228.9,-4.891281644766099 229.0,-4.896114053108827 229.1,-4.900837735557944 229.2,-4.9054525872166685 229.3,-4.909958505604982 229.4,-4.914355390661896 229.5,-4.918643144747678 229.6,-4.922821672646027 229.7,-4.92689088156617 229.8,-4.9308506811449435 229.9,-4.934700983448784 230.0,-4.938441702975689 230.1,-4.942072756657112 230.2,-4.945594063859808 230.3,-4.949005546387632 230.4,-4.952307128483255 230.5,-4.955498736829874 230.6,-4.958580300552813 230.7,-4.96155175122112 230.8,-4.964413022849069 230.9,-4.967164051897633 231.0,-4.969804777275899 231.1,-4.972335140342415 231.2,-4.9747550849065005 231.3,-4.9770645572294905 231.4,-4.979263506025928 231.5,-4.981351882464706 231.6,-4.983329640170149 231.7,-4.985196735223044 231.8,-4.986953126161619 231.9,-4.988598773982453 232.0,-4.990133642141358 232.1,-4.991557696554177 232.2,-4.992870905597549 232.3,-4.994073240109605 232.4,-4.995164673390623 232.5,-4.996145181203614 232.6,-4.997014741774864 232.7,-4.997773335794416 232.8,-4.9984209464165 232.9,-4.998957559259906 233.0,-4.999383162408303 233.1,-4.999697746410507 233.2,-4.9999013042806855 233.3,-4.999993831498518 233.4,-4.999975326009291 233.5,-4.999845788223949 233.6,-4.99960522101908 233.7,-4.9992536297368595 233.8,-4.99879102218492 233.9,-4.99821740863619 234.0,-4.997532801828658 234.1,-4.996737216965092 234.2,-4.995830671712701 234.3,-4.994813186202745 234.4,-4.993684783030087 234.5,-4.99244548725269 234.6,-4.99109532639106 234.7,-4.989634330427636 234.8,-4.988062531806126 234.9,-4.986379965430785 235.0,-4.9845866686656395 235.1,-4.9826826813336575 235.2,-4.980668045715863 235.3,-4.978542806550401 235.4,-4.976307011031541 235.5,-4.973960708808632 235.6,-4.971503951984994 235.7,-4.968936795116768 235.8,-4.966259295211698 235.9,-4.963471511727869 236.0,-4.9605735065723895 236.1,-4.957565344100009 236.2,-4.954447091111694 236.3,-4.951218816853143 236.4,-4.947880593013254 236.5,-4.944432493722523 236.6,-4.940874595551402 236.7,-4.9372069775086045 236.8,-4.9334297210393405 236.9,-4.9295429100235175 237.0,-4.92554663077387 237.1,-4.921440972034051 237.2,-4.9172260249766495 237.3,-4.912901883201179 237.4,-4.908468642731994 237.5,-4.903926402016151 237.6,-4.899275261921235 237.7,-4.894515325733103 237.8,-4.8896466991536105 237.9,-4.884669490298244 238.0,-4.879583809693739 238.1,-4.874389770275608 238.2,-4.869087487385647 238.3,-4.863677078769362 238.4,-4.858158664573368 238.5,-4.852532367342713 238.6,-4.846798312018146 238.7,-4.840956625933368 238.8,-4.835007438812176 238.9,-4.828950882765609 239.0,-4.822787092288992 239.1,-4.816516204258965 239.2,-4.810138357930432 239.3,-4.803653694933474 239.4,-4.797062359270215 239.5,-4.790364497311596 239.6,-4.783560257794154 239.7,-4.7766497918166975 239.8,-4.769633252836968 239.9,-4.762510796668219 240.0,-4.755282581475772 240.1,-4.747948767773471 240.2,-4.740509518420161 240.3,-4.732964998616047 240.4,-4.725315375899024 240.5,-4.71756082014097 240.6,-4.709701503543954 240.7,-4.701737600636438 240.8,-4.693669288269369 240.9,-4.6854967456122925 241.0,-4.677220154149336 241.1,-4.668839697675194 241.2,-4.6603555622910555 241.3,-4.65176793640045 241.4,-4.643077010705088 241.5,-4.634282978200605 241.6,-4.625386034172293 241.7,-4.616386376190747 241.8,-4.60728420410749 241.9,-4.598079720050542 242.0,-4.588773128419904 242.1,-4.579364635883048 242.2,-4.569854451370306 242.3,-4.5602427860702495 242.4,-4.55052985342498 242.5,-4.5407158691254095 242.6,-4.530801051106451 242.7,-4.5207856195422 242.8,-4.510669796841014 242.9,-4.500453807640618 243.0,-4.490137878803079 243.1,-4.479722239409773 243.2,-4.469207120756321 243.3,-4.458592756347421 243.4,-4.447879381891694 243.5,-4.437067235296419 243.6,-4.426156556662281 243.7,-4.415147588278009 243.8,-4.404040574615015 243.9,-4.392835762321978 244.0,-4.381533400219317 244.1,-4.370133739293724 244.2,-4.358637032692545 244.3,-4.34704353571819 244.4,-4.335353505822452 244.5,-4.32356720260078 244.6,-4.311684887786524 244.7,-4.299706825245128 244.8,-4.2876332809682625 244.9,-4.275464523067919 245.0,-4.2632008217704636 245.1,-4.250842449410611 245.2,-4.23838968042542 245.3,-4.225842791348145 245.4,-4.213202060802157 245.5,-4.200467769494709 245.6,-4.187640200210711 245.7,-4.17471963780646 245.8,-4.1617063692033165 245.9,-4.148600683381332 246.0,-4.1354028713728095 246.1,-4.12211322625588 246.2,-4.1087320431479535 246.3,-4.095259619199191 246.4,-4.0816962535859185 246.5,-4.068042247503932 246.6,-4.054297904161868 246.7,-4.0404635287744215 246.8,-4.026539428555612 246.9,-4.0125259127119195 247.0,-3.998423292435457 247.1,-3.9842318808970223 247.2,-3.969951993239183 247.3,-3.95558394656923 247.4,-3.941128059952197 247.5,-3.926584654403725 247.6,-3.9119540528829395 247.7,-3.89723658028531 247.8,-3.8824325634353936 247.9,-3.8675423310796204 248.0,-3.852566213878949 248.1,-3.8375045444015665 248.2,-3.8223576571154627 248.3,-3.807125888381031 248.4,-3.79180957644361 248.5,-3.7764090614259165 248.6,-3.7609246853205596 248.7,-3.7453567919823905 248.8,-3.729705727120915 248.9,-3.7139718382925713 249.0,-3.698155474893055 249.1,-3.682256988149517 249.2,-3.666276731112803 249.3,-3.6502150586495894 249.4,-3.6340723274345126 249.5,-3.6178488959422497 249.6,-3.6015451244395353 249.7,-3.585161374977206 249.8,-3.568698011382103 249.9,-3.5521553992490738 250.0,-3.535533905932742 250.1,-3.5188339005394553 250.2,-3.5020557539190325 250.3,-3.4851998386565404 250.4,-3.4682665290640275 250.5,-3.4512562011721863 250.6,-3.4341692327220463 250.7,-3.417006003156535 250.8,-3.39976689361209 250.9,-3.3824522869102043 251.0,-3.3650625675488626 251.1,-3.3475981216940784 251.2,-3.330059337171263 251.3,-3.3124466034566353 251.4,-3.2947603116685853 251.5,-3.277000854558975 251.6,-3.2591686265043966 251.7,-3.2412640234974637 251.8,-3.223287443137955 251.9,-3.2052392846240583 252.0,-3.1871199487434487 252.1,-3.1689298378643915 252.2,-3.1506693559268486 252.3,-3.1323389084334545 252.4,-3.1139389024405673 252.5,-3.0954697465491727 252.6,-3.076931850895865 252.7,-3.0583256271436854 252.8,-3.0396514884730226 252.9,-3.020909849572443 253.0,-3.0021011266294186 253.1,-2.9832257373211633 253.2,-2.9642841008052967 253.3,-2.9452766377105855 253.4,-2.9262037701275534 253.5,-2.90706592159916 253.6,-2.8878635171113434 253.7,-2.868596983083625 253.8,-2.8492667473596187 253.9,-2.8298732391975356 254.0,-2.810416889260656 254.1,-2.7908981296077373 254.2,-2.771317393683476 254.3,-2.7516751163088142 254.4,-2.7319717336713527 254.5,-2.712207683315599 254.6,-2.692383404133304 254.7,-2.672499336353687 254.8,-2.652555921533675 254.9,-2.63255360254806 255.0,-2.6124928235797444 255.1,-2.5923740301097737 255.2,-2.572197668907527 255.3,-2.551964188020766 255.4,-2.5316740367656676 255.5,-2.5113276657168653 255.6,-2.4909255266974544 255.7,-2.4704680727689468 255.8,-2.449955758221178 255.9,-2.429389038562303 256.0,-2.408768370508574 256.1,-2.3880942119742823 256.2,-2.3673670220615604 256.3,-2.34658726105017 256.4,-2.3257553903872945 256.5,-2.3048718726773116 256.6,-2.2839371716715027 256.7,-2.2629517522577376 256.8,-2.241916080450161 256.9,-2.220830623378898 257.0,-2.1996958492795704 257.1,-2.1785122274830244 257.2,-2.1572802284048 257.3,-2.1360003235347373 257.4,-2.114672985426516 257.5,-2.0932986876871458 257.6,-2.0718779049664153 257.7,-2.0504111129464424 257.8,-2.028898788330997 257.9,-2.0073414088350203 258.0,-1.9857394531739028 258.1,-1.9640934010529998 258.2,-1.9424037331568327 258.3,-1.9206709311385126 258.4,-1.8988954776090106 258.5,-1.8770778561264096 258.6,-1.8552185511852548 258.7,-1.8333180482056808 258.8,-1.8113768335227225 258.9,-1.7893953943754817 259.0,-1.7673742188962906 259.1,-1.7453137960998901 259.2,-1.7232146158725847 259.3,-1.7010771689613495 259.4,-1.678901946962914 259.5,-1.6566894423128544 259.6,-1.634440148274709 259.7,-1.6121545589289485 259.8,-1.5898331691620542 259.9,-1.5674764746554957 260.0,-1.5450849718747395 260.1,-1.5226591580582407 260.2,-1.5001995312063863 260.3,-1.4777065900703992 260.4,-1.4551808341413672 260.5,-1.4326227636389879 260.6,-1.410032879500641 260.7,-1.387411683370142 260.8,-1.364759677586631 260.9,-1.3420773651734252 261.0,-1.3193652498268638 261.1,-1.2966238359051077 261.2,-1.2738536284169215 261.3,-1.2510551330104676 261.4,-1.2282288559621366 261.5,-1.2053753041651867 261.6,-1.1824949851186226 261.7,-1.1595884069158062 261.8,-1.1366560782332342 261.9,-1.1136985083192499 262.0,-1.0907162069827177 262.1,-1.0677096845816678 262.2,-1.0446794520120664 262.3,-1.0216260206963055 262.4,-0.9985499025720458 262.5,-0.9754516100806404 262.6,-0.9523316561559543 262.7,-0.9291905542128089 262.8,-0.9060288181356858 262.9,-0.8828469622672794 263.0,-0.859645501397041 263.1,-0.8364249507498427 263.2,-0.813185825974414 263.3,-0.7899286431319873 263.4,-0.7666539186848197 263.5,-0.7433621694846198 263.6,-0.7200539127612626 263.7,-0.6967296661111464 263.8,-0.6733899474857679 263.9,-0.6500352751801858 264.0,-0.6266661678215201 264.1,-0.603283144357488 264.2,-0.5798867240447998 264.3,-0.5564774264376822 264.4,-0.5330557713763042 264.5,-0.5096222789752519 264.6,-0.4861774696119955 264.7,-0.462721863915316 264.8,-0.43925598275370875 264.9,-0.4157803472239227 265.0,-0.3922954786392205 265.1,-0.3688018985179876 265.2,-0.34530012857202774 265.3,-0.3217906906950032 265.4,-0.2982741069508551 265.5,-0.2747508995622274 265.6,-0.2512215908988524 265.7,-0.22768670346593295 265.8,-0.20414675989254863 265.9,-0.18060228292011152 266.0,-0.15705379539063413 266.1,-0.1335018202352606 266.2,-0.10994688046253004 266.3,-0.08638949914682435 266.4,-0.06283019941676157 266.5,-0.039269504443561115 266.6,-0.015707937429390407 266.7,0.007853978404147016 266.8,0.031415719827799234 266.9,0.054976763616080795 267.0,0.07853658655910492 267.1,0.10209466547399791 267.2,0.125650477216686 267.3,0.14920349869340602 267.4,0.172753206872357 267.5,0.19629907879535058 267.6,0.21984059158932615 267.7,0.2433772224780778 267.8,0.2669084487938099 267.9,0.290433747988673 268.0,0.31395259764656264 268.1,0.33746447549448133 268.2,0.3609688594143047 268.3,0.38446522745430506 268.4,0.40795305784077773 268.5,0.4314318289896186 268.6,0.4549010195178543 268.7,0.4783601082552991 268.8,0.5018085742560762 268.9,0.5252458968102118 269.0,0.5486715554552253 269.1,0.5720850299875806 269.2,0.5954858004743446 269.3,0.6188733472647239 269.4,0.6422471510015072 269.5,0.6656066926327665 269.6,0.688951453423198 269.7,0.712280914965765 269.8,0.735594559193183 269.9,0.7588918683894162 270.0,0.7821723252011563 270.1,0.8054354126493282 270.2,0.8286806141405888 270.3,0.8519074134787891 270.4,0.8751152948763764 270.5,0.8983037429659706 270.6,0.9214722428116685 270.7,0.9446202799206018 270.8,0.9677473402543004 270.9,0.9908529102400988 271.0,1.0139364767825587 271.1,1.0369975272748972 271.2,1.0600355496102667 271.3,1.0830500321932908 271.4,1.1060404639512262 271.5,1.1290063343455206 271.6,1.1519471333829492 271.7,1.174862351627106 271.8,1.1977514802096114 271.9,1.2206140108414478 272.0,1.2434494358242818 272.1,1.2662572480616427 272.2,1.2890369410702958 272.3,1.311788008991438 272.4,1.3345099466018628 272.5,1.3572022493253677 272.6,1.3798644132437279 272.7,1.40249593510805 272.8,1.4250963123498772 272.9,1.4476650430923863 273.0,1.470201626161522 273.1,1.4927055610970763 273.2,1.5151763481638607 273.3,1.5376134883628392 273.4,1.5600164834420625 273.5,1.5823848359079302 273.6,1.6047180490360495 273.7,1.6270156268823877 273.8,1.6492770742942722 273.9,1.671501896921298 274.0,1.6936896012264622 274.1,1.7158396944969487 274.2,1.7379516848551877 274.3,1.7600250812697518 274.4,1.7820593935662448 274.5,1.8040541324382113 274.6,1.826008809457936 274.7,1.8479229370873893 274.8,1.8697960286890047 274.9,1.8916275985364357 275.0,1.9134171618254567 275.1,1.935164234684599 275.2,1.9568683341860091 275.3,1.978528978356116 275.4,2.0001456861863263 275.5,2.021717977643722 275.6,2.0432453736817533 275.7,2.0647273962507775 275.8,2.0861635683088315 275.9,2.107553413832037 276.0,2.1288964578253657 276.1,2.1501922263330027 276.2,2.171440246449023 276.3,2.192640046327798 276.4,2.213791155194505 276.5,2.2348931033555974 276.6,2.255945422209228 276.7,2.276947644255597 276.8,2.2978993031074473 276.9,2.318799933500278 277.0,2.339649071302864 277.1,2.3604462535273547 277.2,2.381191018339698 277.3,2.4018829050698405 277.4,2.422521454221982 277.5,2.443106207484777 277.6,2.463636707741463 277.7,2.484112499080065 277.8,2.504533126803552 277.9,2.524898137439804 278.0,2.5452070787518566 278.1,2.565459499747776 278.2,2.5856549506907833 278.3,2.6057929831092292 278.4,2.6258731498064734 278.5,2.645895004870958 278.6,2.6658581036859506 278.7,2.685762002939524 278.8,2.7056062606343767 278.9,2.7253904360976353 279.0,2.745114089990661 279.1,2.764776784318747 279.2,2.784378082440933 279.3,2.803917549079658 279.4,2.823394750330383 279.5,2.8428092536713274 279.6,2.8621606279729574 279.7,2.881448443507662 279.8,2.9006722719592473 279.9,2.919831686432435 280.0,2.9389262614623632 280.1,2.9579555730240594 280.2,2.9769191985417702 280.3,2.995816716898484 280.4,3.014647708445117 280.5,3.033411755010001 280.6,3.0521084399080105 280.7,3.0707373479499465 280.8,3.0892980654516746 280.9,3.1077901802433363 281.0,3.1262132816785195 281.1,3.1445669606433686 281.2,3.1628508095656205 281.3,3.1810644224237543 281.4,3.1992073947558812 281.5,3.217279323668893 281.6,3.2352798078472222 281.7,3.253208447561885 281.8,3.2710648446793034 281.9,3.2888486026701735 282.0,3.306559326618255 282.1,3.32419662322914 282.2,3.3417601008389592 282.3,3.359249369423179 282.4,3.376664040605114 282.5,3.3940037276647095 282.6,3.4112680455469846 282.7,3.428456610870678 282.8,3.445569041936749 282.9,3.4626049587367893 283.0,3.4795639829615768 283.1,3.4964457380093483 283.2,3.513249848994236 283.3,3.5299759427546378 283.4,3.546623647861364 283.5,3.5631925946260297 283.6,3.579682415109154 283.7,3.596092743128417 283.8,3.6124232142667516 283.9,3.628673465880403 284.0,3.644843137107064 284.1,3.6609318688737953 284.2,3.676939303905078 284.3,3.692865086730712 284.4,3.7087088636936865 284.5,3.7244702829581087 284.6,3.740148994516919 284.7,3.7557446501997127 284.8,3.771256903680524 284.9,3.786685410485393 285.0,3.8020298280001574 285.1,3.8172898154779245 285.2,3.83246503404675 285.3,3.8475551467170925 285.4,3.8625598183893213 285.5,3.877478715861167 285.6,3.8923115078351196 285.7,3.90705786492574 285.8,3.9217174596670565 285.9,3.9362899665197375 286.0,3.950775061878451 286.1,3.9651724240789017 286.2,3.979481733405082 286.3,3.9937026720963233 286.4,4.007834924354378 286.5,4.02187817635042 286.6,4.035832116232005 286.7,4.049696434129989 286.8,4.063470822165472 286.9,4.077154974456528 287.0,4.090748587125118 287.1,4.104251358303727 287.2,4.117662988142136 287.3,4.130983178814081 287.4,4.144211634523807 287.5,4.157348061512725 287.6,4.170392168065861 287.7,4.1833436645183415 287.8,4.196202263261908 287.9,4.208967678751173 288.0,4.221639627510077 288.1,4.234217828138103 288.2,4.246702001316579 288.3,4.259091869814865 288.4,4.271387158496475 288.5,4.283587594325254 288.6,4.2956929063713645 288.7,4.307702825817367 288.8,4.319617085964177 288.9,4.331435422236931 289.0,4.343157572190956 289.1,4.3547832755175095 289.2,4.366312274049599 289.3,4.37774431176775 289.4,4.3890791348056055 289.5,4.400316491455662 289.6,4.411456132174766 289.7,4.422497809589731 289.8,4.433441278502785 289.9,4.444286295897019 290.0,4.455032620941836 290.1,4.465680014998215 290.2,4.4762282416240575 290.3,4.48667706657946 290.4,4.497026257831849 290.5,4.507275585561228 290.6,4.517424822165175 290.7,4.5274737422639735 290.8,4.537422122705585 290.9,4.547269742570616 291.0,4.557016383177225 291.1,4.566661828085964 291.2,4.576205863104585 291.3,4.5856482762928374 291.4,4.5949888579671025 291.5,4.604227400705132 291.6,4.613363699350576 291.7,4.622397551017591 291.8,4.631328755095331 291.9,4.6401571132524015 292.0,4.648882429441256 292.1,4.657504509902565 292.2,4.666023163169488 292.3,4.674438200071991 292.4,4.682749433740959 292.5,4.690956679612422 292.6,4.699059755431598 292.7,4.707058481256982 292.8,4.714952679464324 292.9,4.722742174750557 293.0,4.730426794137724 293.1,4.738006366976802 293.2,4.74548072495147 293.3,4.7528497020819005 293.4,4.760113134728379 293.5,4.767270861595006 293.6,4.774322723733218 293.7,4.781268564545346 293.8,4.788108229788113 293.9,4.794841567576008 294.0,4.801468428384717 294.1,4.807988665054386 294.2,4.814402132792936 294.3,4.82070868917926 294.4,4.826908194166364 294.5,4.833000510084535 294.6,4.838985501644329 294.7,4.844863035939614 294.8,4.850632982450532 294.9,4.856295213046353 295.0,4.861849601988383 295.1,4.867296025932689 295.2,4.872634363932887 295.3,4.877864497442804 295.4,4.88298631031912 295.5,4.887999688823953 295.6,4.892904521627362 295.7,4.897700699809835 295.8,4.902388116864723 295.9,4.906966668700565 296.0,4.911436253643444 296.1,4.915796772439209 296.2,4.920048128255699 296.3,4.92419022668489 296.4,4.92822297574499 296.5,4.932146285882477 296.6,4.935960069974098 296.7,4.939664243328785 296.8,4.94325872368957 296.9,4.946743431235369 297.0,4.950118288582789 297.1,4.953383220787822 297.2,4.956538155347532 297.3,4.959583022201646 297.4,4.962517753734119 297.5,4.965342284774631 297.6,4.968056552600043 297.7,4.970660496935774 297.8,4.973154059957162 297.9,4.975537186290722 298.0,4.9778098230154 298.1,4.97997191966373 298.2,4.982023428222962 298.3,4.983964303136133 298.4,4.985794501303069 298.5,4.987513982081349 298.6,4.9891227072872075 298.7,4.990620641196372 298.8,4.992007750544875 298.9,4.993284004529774 299.0,4.994449374809849 299.1,4.995503835506225 299.2,4.996447363202946 299.3,4.997279936947502 299.4,4.998001538251282 299.5,4.998612151090002 299.6,4.999111761904046 299.7,4.999500359598768 299.8,4.999777935544749 299.9,4.99994448357798 300.0,5.0 300.1,4.99994448357798 300.2,4.999777935544749 300.3,4.999500359598768 300.4,4.999111761904046 300.5,4.998612151090002 300.6,4.998001538251283 300.7,4.997279936947501 300.8,4.996447363202947 300.9,4.995503835506225 301.0,4.99444937480985 301.1,4.993284004529775 301.2,4.992007750544875 301.3,4.990620641196372 301.4,4.9891227072872075 301.5,4.98751398208135 301.6,4.98579450130307 301.7,4.983964303136133 301.8,4.982023428222963 301.9,4.979971919663729 302.0,4.9778098230154 302.1,4.9755371862907225 302.2,4.973154059957163 302.3,4.970660496935775 302.4,4.968056552600043 302.5,4.965342284774631 302.6,4.962517753734117 302.7,4.959583022201647 302.8,4.956538155347532 302.9,4.953383220787824 303.0,4.9501182885827895 303.1,4.94674343123537 303.2,4.943258723689571 303.3,4.939664243328786 303.4,4.935960069974098 303.5,4.932146285882478 303.6,4.928222975744989 303.7,4.924190226684891 303.8,4.920048128255696 303.9,4.91579677243921 304.0,4.911436253643445 304.1,4.906966668700566 304.2,4.902388116864724 304.3,4.897700699809836 304.4,4.892904521627363 304.5,4.887999688823954 304.6,4.8829863103191204 304.7,4.877864497442805 304.8,4.8726343639328835 304.9,4.867296025932691 305.0,4.861849601988382 305.1,4.856295213046355 305.2,4.850632982450533 305.3,4.844863035939616 305.4,4.83898550164433 305.5,4.833000510084537 305.6,4.826908194166366 305.7,4.820708689179262 305.8,4.814402132792938 305.9,4.8079886650543875 306.0,4.801468428384713 306.1,4.79484156757601 306.2,4.788108229788113 306.3,4.781268564545348 306.4,4.77432272373322 306.5,4.767270861595008 306.6,4.760113134728381 306.7,4.752849702081902 306.8,4.745480724951472 306.9,4.738006366976803 307.0,4.730426794137726 307.1,4.722742174750553 307.2,4.714952679464323 307.3,4.707058481256984 307.4,4.6990597554316 307.5,4.690956679612424 307.6,4.682749433740962 307.7,4.674438200071994 307.8,4.66602316316949 307.9,4.657504509902568 308.0,4.648882429441259 308.1,4.6401571132524 308.2,4.631328755095333 308.3,4.6223975510175865 308.4,4.613363699350578 308.5,4.604227400705135 308.6,4.594988857967105 308.7,4.58564827629284 308.8,4.576205863104587 308.9,4.566661828085967 309.0,4.557016383177227 309.1,4.547269742570615 309.2,4.537422122705586 309.3,4.527473742263968 309.4,4.517424822165178 309.5,4.507275585561227 309.6,4.497026257831852 309.7,4.486677066579463 309.8,4.47622824162406 309.9,4.465680014998218 310.0,4.4550326209418385 310.1,4.444286295897021 310.2,4.433441278502787 310.3,4.422497809589729 310.4,4.411456132174768 310.5,4.400316491455656 310.6,4.389079134805607 310.7,4.377744311767748 310.8,4.366312274049601 310.9,4.354783275517512 311.0,4.343157572190958 311.1,4.331435422236933 311.2,4.319617085964181 311.3,4.30770282581737 311.4,4.295692906371367 311.5,4.2835875943252475 311.6,4.271387158496478 311.7,4.259091869814863 311.8,4.2467020013165815 311.9,4.234217828138106 312.0,4.221639627510081 312.1,4.208967678751176 312.2,4.1962022632619105 312.3,4.183343664518345 312.4,4.170392168065865 312.5,4.157348061512728 312.6,4.144211634523805 312.7,4.130983178814075 312.8,4.11766298814214 312.9,4.1042513583037294 313.0,4.090748587125121 313.1,4.077154974456531 313.2,4.063470822165475 313.3,4.049696434129992 313.4,4.035832116232009 313.5,4.021878176350423 313.6,4.007834924354377 313.7,3.9937026720963265 313.8,3.9794817334050743 313.9,3.965172424078905 314.0,3.9507750618784545 314.1,3.936289966519741 314.2,3.92171745966706 314.3,3.907057864925743 314.4,3.8923115078351236 314.5,3.8774787158611708 314.6,3.8625598183893133 314.7,3.847555146717096 314.8,3.8324650340467477 314.9,3.8172898154779284 315.0,3.802029828000149 315.1,3.786685410485396 315.2,3.771256903680527 315.3,3.7557446501997163 315.4,3.740148994516923 315.5,3.7244702829581127 315.6,3.7087088636936905 315.7,3.6928650867307153 315.8,3.6769393039050757 315.9,3.6609318688737984 316.0,3.644843137107056 316.1,3.6286734658804063 316.2,3.6124232142667494 316.3,3.5960927431284206 316.4,3.5796824151091706 316.5,3.5631925946260337 316.6,3.5466236478613675 316.7,3.5299759427546418 316.8,3.51324984899424 316.9,3.4964457380093523 317.0,3.479563982961574 317.1,3.462604958736793 317.2,3.4455690419367406 317.3,3.428456610870682 317.4,3.411268045546989 317.5,3.3940037276647135 317.6,3.376664040605118 317.7,3.359249369423183 317.8,3.341760100838963 317.9,3.3241966232291436 318.0,3.3065593266182596 318.1,3.288848602670171 318.2,3.271064844679308 318.3,3.2532084475618896 318.4,3.2352798078472262 318.5,3.2172793236688975 318.6,3.1992073947558852 318.7,3.1810644224237583 318.8,3.162850809565625 318.9,3.144566960643372 319.0,3.126213281678524 319.1,3.1077901802433265 319.2,3.089298065451679 319.3,3.0707373479499447 319.4,3.052108439908015 319.5,3.0334117550100053 319.6,3.0146477084451213 319.7,2.9958167168984886 319.8,2.9769191985417747 319.9,2.957955573024064 320.0,2.9389262614623677 320.1,2.9198316864324254 320.2,2.9006722719592517 320.3,2.8814484435076593 320.4,2.862160627972962 320.5,2.842809253671317 320.6,2.8233947503303876 320.7,2.8039175490796624 320.8,2.7843780824409374 320.9,2.7647767843187667 321.0,2.745114089990666 321.1,2.7253904360976406 321.2,2.7056062606343816 321.3,2.6857620029395135 321.4,2.665858103685955 321.5,2.6458950048709555 321.6,2.6258731498064787 321.7,2.605792983109219 321.8,2.585654950690788 321.9,2.5654594997477886 322.0,2.5452070787518615 322.1,2.5248981374398087 322.2,2.504533126803557 322.3,2.48411249908007 322.4,2.463636707741468 322.5,2.4431062074847745 322.6,2.422521454221987 322.7,2.401882905069845 322.8,2.381191018339703 322.9,2.360446253527359 323.0,2.339649071302869 323.1,2.3187999335002822 323.2,2.297899303107452 323.3,2.2769476442556016 323.4,2.2559454222092326 323.5,2.2348931033556023 323.6,2.2137911551944938 323.7,2.192640046327803 323.8,2.171440246449028 323.9,2.1501922263330076 324.0,2.1288964578253706 324.1,2.107553413832042 324.2,2.086163568308837 324.3,2.0647273962507824 324.4,2.043245373681758 324.5,2.021717977643727 324.6,2.000145686186315 324.7,1.978528978356121 324.8,1.956868334186006 324.9,1.9351642346846043 325.0,1.9134171618254618 325.1,1.8916275985364406 325.2,1.8697960286890098 325.3,1.8479229370873942 325.4,1.8260088094579576 325.5,1.8040541324382164 325.6,1.7820593935662499 325.7,1.7600250812697569 325.8,1.737951684855176 325.9,1.715839694496954 326.0,1.693689601226467 326.1,1.6715018969212947 326.2,1.6492770742942775 326.3,1.6270156268823759 326.4,1.6047180490360635 326.5,1.5823848359079267 326.6,1.5600164834420678 326.7,1.5376134883628276 326.8,1.515176348163866 326.9,1.4927055610970816 327.0,1.470201626161519 327.1,1.4476650430923916 327.2,1.4250963123498825 327.3,1.402495935108055 327.4,1.3798644132437332 327.5,1.357202249325373 327.6,1.3345099466018853 327.7,1.3117880089914433 327.8,1.2890369410703097 327.9,1.266257248061648 328.0,1.2434494358242871 328.1,1.220614010841436 328.2,1.1977514802096254 328.3,1.1748623516271026 328.4,1.151947133382972 328.5,1.1290063343455086 328.6,1.1060404639512316 328.7,1.0830500321932872 328.8,1.060035549610272 328.9,1.0369975272748853 329.0,1.013936476782564 329.1,0.9908529102401042 329.2,0.9677473402543059 329.3,0.9446202799206073 329.4,0.921472242811674 329.5,0.8983037429659759 329.6,0.8751152948763643 329.7,0.8519074134787945 329.8,0.8286806141405855 329.9,0.8054354126493513 330.0,0.7821723252011704 330.1,0.7588918683894129 330.2,0.735594559193206 330.3,0.7122809149657527 330.4,0.6889514534232035 330.5,0.6656066926327632 330.6,0.6422471510015128 330.7,0.6188733472647118 330.8,0.5954858004743501 330.9,0.572085029987586 331.0,0.5486715554552307 331.1,0.525245896810226 331.2,0.5018085742560817 331.3,0.4783601082553047 331.4,0.4549010195178598 331.5,0.4314318289896241 331.6,0.4079530578407743 331.7,0.3844652274543283 331.8,0.36096885941429246 331.9,0.33746447549449565 332.0,0.3139525976465593 332.1,0.2904337479886785 332.2,0.2669084487937977 332.3,0.2433772224780833 332.4,0.21984059158933167 332.5,0.19629907879533834 332.6,0.17275320687236254 332.7,0.14920349869341154 332.8,0.1256504772166915 332.9,0.10209466547400342 333.0,0.07853658655911044 333.1,0.054976763616104075 333.2,0.03141571982780474 333.3,0.007853978404161407 333.4,-0.015707937429384897 333.5,-0.03926950444353784 333.6,-0.06283019941677383 333.7,-0.08638949914680996 333.8,-0.1099468804625334 333.9,-0.1335018202352551 334.0,-0.1570537953906464 334.1,-0.180602282920106 334.2,-0.204146759892552 334.3,-0.22768670346592745 334.4,-0.2512215908988468 334.5,-0.2747508995622219 334.6,-0.29827410695084966 334.7,-0.3217906906949977 334.8,-0.3453001285720222 334.9,-0.3688018985179822 335.0,-0.392295478639215 335.1,-0.4157803472239261 335.2,-0.43925598275370326 335.3,-0.4627218639153281 335.4,-0.4861774696119811 335.5,-0.5096222789752376 335.6,-0.5330557713763076 335.7,-0.5564774264376767 335.8,-0.579886724044812 335.9,-0.6032831443574824 336.0,-0.6266661678215235 336.1,-0.6500352751801802 336.2,-0.6733899474857623 336.3,-0.696729666111141 336.4,-0.7200539127612572 336.5,-0.7433621694846143 336.6,-0.7666539186847966 336.7,-0.7899286431319819 336.8,-0.8131858259744086 336.9,-0.8364249507498372 337.0,-0.8596455013970355 337.1,-0.8828469622672914 337.2,-0.9060288181356717 337.3,-0.9291905542128123 337.4,-0.9523316561559315 337.5,-0.9754516100806525 337.6,-0.9985499025720403 337.7,-1.0216260206963086 337.8,-1.044679452012061 337.9,-1.0677096845816625 338.0,-1.0907162069827123 338.1,-1.1136985083192446 338.2,-1.136656078233229 338.3,-1.1595884069158011 338.4,-1.1824949851186173 338.5,-1.2053753041651813 338.6,-1.2282288559621226 338.7,-1.2510551330104622 338.8,-1.273853628416899 338.9,-1.2966238359050852 339.0,-1.3193652498268498 339.1,-1.3420773651734286 339.2,-1.3647596775866089 339.3,-1.3874116833701535 339.4,-1.4100328795006356 339.5,-1.4326227636389912 339.6,-1.4551808341413701 339.7,-1.477706590070411 339.8,-1.500199531206381 339.9,-1.5226591580582358 340.0,-1.5450849718747257 340.1,-1.5674764746554903 340.2,-1.589833169162049 340.3,-1.6121545589289432 340.4,-1.6344401482747122 340.5,-1.656689442312849 340.6,-1.6789019469629254 340.7,-1.7010771689613278 340.8,-1.7232146158725965 340.9,-1.7453137960998766 341.0,-1.7673742188962691 341.1,-1.789395394375493 341.2,-1.8113768335227174 341.3,-1.8333180482056841 341.4,-1.8552185511852495 341.5,-1.877077856126421 341.6,-1.8988954776090057 341.7,-1.9206709311385075 341.8,-1.9424037331568198 341.9,-1.964093401052995 342.0,-1.9857394531738979 342.1,-2.007341408834999 342.2,-2.028898788331 342.3,-2.050411112946437 342.4,-2.07187790496641 342.5,-2.0932986876871245 342.6,-2.114672985426527 342.7,-2.1360003235347245 342.8,-2.157280228404795 342.9,-2.1785122274830195 343.0,-2.199695849279581 343.1,-2.2208306233788933 343.2,-2.241916080450172 343.3,-2.2629517522577327 343.4,-2.283937171671482 343.5,-2.3048718726773068 343.6,-2.3257553903872816 343.7,-2.346587261050165 343.8,-2.367367022061556 343.9,-2.388094211974278 344.0,-2.4087683705085765 344.1,-2.429389038562298 344.2,-2.449955758221173 344.3,-2.4704680727689263 344.4,-2.490925526697434 344.5,-2.511327665716853 344.6,-2.531674036765663 344.7,-2.551964188020761 344.8,-2.5721976689075374 344.9,-2.5923740301097764 345.0,-2.612492823579755 345.1,-2.6325536025480707 345.2,-2.6525559215336707 345.3,-2.672499336353682 345.4,-2.6923834041332917 345.5,-2.7122076833155946 345.6,-2.731971733671341 345.7,-2.7516751163088022 345.8,-2.7713173936834714 345.9,-2.790898129607733 346.0,-2.8104168892606434 346.1,-2.8298732391975534 346.2,-2.8492667473596 346.3,-2.868596983083628 346.4,-2.8878635171113243 346.5,-2.9070659215991483 346.6,-2.9262037701275556 346.7,-2.945276637710581 346.8,-2.964284100805306 346.9,-2.9832257373211526 347.0,-3.0021011266294204 347.1,-3.0209098495724387 347.2,-3.039651488473018 347.3,-3.058325627143681 347.4,-3.0769318508958534 347.5,-3.0954697465491616 347.6,-3.1139389024405633 347.7,-3.13233890843345 347.8,-3.150669355926837 347.9,-3.1689298378643804 348.0,-3.187119948743431 348.1,-3.205239284624068 348.2,-3.2232874431379437 348.3,-3.2412640234974663 348.4,-3.2591686265043855 348.5,-3.2770008545589704 348.6,-3.294760311668594 348.7,-3.312446603456638 348.8,-3.330059337171259 348.9,-3.3475981216940607 349.0,-3.3650625675488586 349.1,-3.382452286910207 349.2,-3.3997668936120924 349.3,-3.417006003156524 349.4,-3.434169232722042 349.5,-3.451256201172183 349.6,-3.468266529064042 349.7,-3.4851998386565297 349.8,-3.5020557539190156 349.9,-3.5188339005394456 350.0,-3.535533905932726 350.1,-3.5521553992490764 350.2,-3.568698011382099 350.3,-3.585161374977202 350.4,-3.6015451244395313 350.5,-3.6178488959422515 350.6,-3.634072327434515 350.7,-3.650215058649586 350.8,-3.6662767311127933 350.9,-3.682256988149513 351.0,-3.6981554748930456 351.1,-3.713971838292562 351.2,-3.7297057271209115 351.3,-3.7453567919823874 351.4,-3.7609246853205502 351.5,-3.776409061425907 351.6,-3.791809576443618 351.7,-3.807125888381027 351.8,-3.8223576571154587 351.9,-3.8375045444015576 352.0,-3.85256621387894 352.1,-3.867542331079617 352.2,-3.88243256343539 352.3,-3.897236580285312 352.4,-3.9119540528829306 352.5,-3.926584654403722 352.6,-3.9411280599521934 352.7,-3.955583946569232 352.8,-3.969951993239174 352.9,-3.9842318808970134 353.0,-3.9984232924354535 353.1,-4.012525912711916 353.2,-4.026539428555604 353.3,-4.040463528774413 353.4,-4.054297904161855 353.5,-4.068042247503929 353.6,-4.081696253585921 353.7,-4.095259619199194 353.8,-4.108732043147956 353.9,-4.122113226255878 354.0,-4.135402871372817 354.1,-4.148600683381334 354.2,-4.161706369203318 354.3,-4.174719637806456 354.4,-4.187640200210703 354.5,-4.20046776949471 354.6,-4.213202060802159 354.7,-4.225842791348143 354.8,-4.238389680425417 354.9,-4.250842449410609 355.0,-4.263200821770456 355.1,-4.275464523067931 355.2,-4.28763328096825 355.3,-4.299706825245121 355.4,-4.3116848877865115 355.5,-4.323567202600773 355.6,-4.335353505822454 355.7,-4.347043535718192 355.8,-4.358637032692551 355.9,-4.370133739293717 356.0,-4.381533400219319 356.1,-4.392835762321975 356.2,-4.4040405746150135 356.3,-4.415147588278006 356.4,-4.426156556662274 356.5,-4.437067235296412 356.6,-4.44787938189169 356.7,-4.458592756347418 356.8,-4.469207120756314 356.9,-4.479722239409767 357.0,-4.490137878803068 357.1,-4.500453807640623 357.2,-4.510669796841007 357.3,-4.520785619542201 357.4,-4.530801051106445 357.5,-4.540715869125408 357.6,-4.550529853424984 357.7,-4.560242786070243 357.8,-4.569854451370307 357.9,-4.5793646358830395 358.0,-4.588773128419902 358.1,-4.598079720050544 358.2,-4.607284204107491 358.3,-4.616386376190741 358.4,-4.625386034172291 358.5,-4.634282978200603 358.6,-4.643077010705083 358.7,-4.651767936400445 358.8,-4.660355562291047 358.9,-4.6688396976751925 359.0,-4.677220154149332 359.1,-4.6854967456123 359.2,-4.693669288269367 359.3,-4.701737600636435 359.4,-4.709701503543952 359.5,-4.717560820140971 359.6,-4.725315375899025 359.7,-4.732964998616045 359.8,-4.740509518420158 359.9,-4.747948767773469 360.0,-4.755282581475767 360.1,-4.762510796668218 360.2,-4.769633252836968 360.3,-4.776649791816697 360.4,-4.78356025779415 360.5,-4.790364497311591 360.6,-4.797062359270218 360.7,-4.803653694933472 360.8,-4.810138357930425 360.9,-4.816516204258962 361.0,-4.822787092288988 361.1,-4.828950882765608 361.2,-4.835007438812174 361.3,-4.840956625933368 361.4,-4.846798312018143 361.5,-4.852532367342712 361.6,-4.858158664573367 361.7,-4.863677078769363 361.8,-4.869087487385643 361.9,-4.874389770275604 362.0,-4.879583809693738 362.1,-4.884669490298243 362.2,-4.889646699153608 362.3,-4.8945153257331 362.4,-4.899275261921231 362.5,-4.90392640201615 362.6,-4.908468642731995 362.7,-4.912901883201179 362.8,-4.91722602497665 362.9,-4.921440972034049 363.0,-4.925546630773872 363.1,-4.929542910023518 363.2,-4.933429721039338 363.3,-4.937206977508604 363.4,-4.940874595551401 363.5,-4.944432493722523 363.6,-4.947880593013255 363.7,-4.951218816853143 363.8,-4.954447091111694 363.9,-4.957565344100008 364.0,-4.960573506572389 364.1,-4.963471511727867 364.2,-4.966259295211694 364.3,-4.9689367951167664 364.4,-4.971503951984993 364.5,-4.973960708808632 364.6,-4.976307011031543 364.7,-4.978542806550401 364.8,-4.980668045715864 364.9,-4.982682681333656 365.0,-4.98458666866564 365.1,-4.986379965430785 365.2,-4.988062531806126 365.3,-4.989634330427635 365.4,-4.991095326391059 365.5,-4.992445487252689 365.6,-4.993684783030088 365.7,-4.994813186202745 365.8,-4.9958306717127 365.9,-4.996737216965091 366.0,-4.9975328018286564 366.1,-4.99821740863619 366.2,-4.998791022184919 366.3,-4.999253629736859 366.4,-4.99960522101908 366.5,-4.999845788223948 366.6,-4.999975326009291 366.7,-4.999993831498518 366.8,-4.9999013042806855 366.9,-4.999697746410507 367.0,-4.999383162408303 367.1,-4.998957559259906 367.2,-4.9984209464165 367.3,-4.997773335794417 367.4,-4.997014741774865 367.5,-4.996145181203614 367.6,-4.995164673390624 367.7,-4.994073240109606 367.8,-4.99287090559755 367.9,-4.991557696554177 368.0,-4.990133642141359 368.1,-4.988598773982452 368.2,-4.986953126161619 368.3,-4.985196735223044 368.4,-4.983329640170149 368.5,-4.981351882464706 368.6,-4.979263506025928 368.7,-4.977064557229492 368.8,-4.974755084906501 368.9,-4.972335140342416 369.0,-4.969804777275899 369.1,-4.967164051897634 369.2,-4.964413022849068 369.3,-4.961551751221121 369.4,-4.958580300552815 369.5,-4.955498736829876 369.6,-4.952307128483259 369.7,-4.949005546387632 369.8,-4.9455940638598115 369.9,-4.942072756657112 370.0,-4.93844170297569 370.1,-4.934700983448784 370.2,-4.930850681144944 370.3,-4.92689088156617 370.4,-4.922821672646029 370.5,-4.91864314474768 370.6,-4.914355390661898 370.7,-4.909958505604982 370.8,-4.905452587216671 370.9,-4.900837735557947 371.0,-4.896114053108828 371.1,-4.8912816447661 371.2,-4.886340617840969 371.3,-4.881291082056688 371.4,-4.8761331495461215 371.5,-4.870866934849248 371.6,-4.865492554910632 371.7,-4.860010129076814 371.8,-4.854419779093656 371.9,-4.848721629103648 372.0,-4.842915805643156 372.1,-4.8370024376395895 372.2,-4.830981656408577 372.3,-4.824853595650992 372.4,-4.818618391450051 372.5,-4.812276182268235 372.6,-4.80582710894426 372.7,-4.799271314689911 372.8,-4.792608945086878 372.9,-4.785840148083541 373.0,-4.778965073991653 373.1,-4.771983875483017 373.2,-4.7648967075861 373.3,-4.7577037276825775 373.4,-4.750405095503863 373.5,-4.743000973127524 373.6,-4.7354915249737175 373.7,-4.727876917801529 373.8,-4.720157320705243 373.9,-4.712332905110642 374.0,-4.704403844771125 374.1,-4.696370315763936 374.2,-4.688232496486181 374.3,-4.679990567650899 374.4,-4.671644712283067 374.5,-4.663195115715474 374.6,-4.654641965584677 374.7,-4.645985451826801 374.8,-4.637225766673309 374.9,-4.628363104646751 375.0,-4.619397662556441 375.1,-4.610329639494079 375.2,-4.601159236829357 375.3,-4.591886658205438 375.4,-4.582512109534493 375.5,-4.573035798993066 375.6,-4.563457937017507 375.7,-4.553778736299282 375.8,-4.543998411780199 375.9,-4.534117180647735 376.0,-4.524135262330101 376.1,-4.514052878491467 376.2,-4.5038702530269905 376.3,-4.493587612057839 376.4,-4.483205183926177 376.5,-4.472723199190126 376.6,-4.462141890618593 376.7,-4.451461493186134 376.8,-4.440682244067731 376.9,-4.429804382633512 377.0,-4.418828150443473 377.1,-4.407753791242043 377.2,-4.396581550952784 377.3,-4.385311677672777 377.4,-4.3739444216672645 377.5,-4.362480035363989 377.6,-4.350918773347626 377.7,-4.339260892354162 377.8,-4.327506651265098 377.9,-4.315656311101826 378.0,-4.303710135019719 378.1,-4.291668388302378 378.2,-4.279531338355662 378.3,-4.2672992547018245 378.4,-4.254972408973463 378.5,-4.242551074907525 378.6,-4.230035528339221 378.7,-4.217426047195886 378.8,-4.204722911490852 378.9,-4.191926403317155 379.0,-4.179036806841355 379.1,-4.166054408297143 379.2,-4.152979495979063 379.3,-4.139812360236039 379.4,-4.126553293465005 379.5,-4.1132025901043 379.6,-4.099760546627265 379.7,-4.0862274615355565 379.8,-4.072603635352547 379.9,-4.058889370616693 380.0,-4.045084971874734 380.1,-4.0311907456750244 380.2,-4.017207000560642 380.3,-4.003134047062586 380.4,-3.988972197692866 380.5,-3.974721766937554 380.6,-3.9603830712498427 380.7,-3.9459564290429427 380.8,-3.9314421606830985 380.9,-3.916840588482387 381.0,-3.902152036691649 381.1,-3.887376831493197 381.2,-3.872515300993677 381.3,-3.857567775216642 381.4,-3.842534586095387 381.5,-3.827416067465437 381.6,-3.8122125550572394 381.7,-3.7969243864886275 381.8,-3.781551901257356 381.9,-3.7660954407336 382.0,-3.750555348152302 382.1,-3.7349319686055966 382.2,-3.7192256490351374 382.3,-3.7034367382243785 382.4,-3.6875655867908774 382.5,-3.6716125471784276 382.6,-3.655577973649313 382.7,-3.6394622222764044 382.8,-3.6232656509352212 382.9,-3.6069886192960747 383.0,-3.5906314888159523 383.1,-3.574194622730597 383.2,-3.5576783860464314 383.3,-3.541083145532376 383.4,-3.5244092697118194 383.5,-3.507657128854283 383.6,-3.490827094967359 383.7,-3.4739195417883666 383.8,-3.456934844776036 383.9,-3.43987338110221 384.0,-3.4227355296434565 384.1,-3.405521670972638 384.2,-3.38823218735052 384.3,-3.3708674627171824 384.4,-3.3534278826836044 384.5,-3.335913834522994 384.6,-3.318325707162279 384.7,-3.3006638911734476 384.8,-3.2829287787647776 384.9,-3.2651207637723174 385.0,-3.247240241650923 385.1,-3.2292876094656657 385.2,-3.2112632658829354 385.3,-3.193167611161503 385.4,-3.1750010471438124 385.5,-3.156763977246888 385.6,-3.1384568064535068 385.7,-3.1200799413031017 385.8,-3.101633789882794 385.9,-3.0831187618182994 386.0,-3.064535268264892 386.1,-3.0458837218981705 386.2,-3.0271645369050115 386.3,-3.0083781289742566 386.4,-2.989524915287594 386.5,-2.9706053145101974 386.6,-2.9516197467814678 386.7,-2.932568633705765 386.8,-2.9134523983428853 386.9,-2.894271465198867 387.0,-2.8750262602163925 387.1,-2.8557172107654605 387.2,-2.836344745633777 387.3,-2.8169092950173513 387.4,-2.7974112905108397 387.5,-2.77785116509802 387.6,-2.7582293531421653 387.7,-2.7385462903763766 387.8,-2.718802413893972 387.9,-2.6989981621386723 388.0,-2.6791339748949876 388.1,-2.6592102932783286 388.2,-2.639227559725332 388.3,-2.6191862179839145 388.4,-2.5990867131035573 388.5,-2.578929491425252 388.6,-2.558715000571729 388.7,-2.5384436894375013 388.8,-2.5181160081788034 388.9,-2.497732408203719 389.0,-2.477293342162032 389.1,-2.4567992639353 389.2,-2.436250628626666 389.3,-2.415647892550814 389.4,-2.39499151322382 389.5,-2.3742819493529774 389.6,-2.3535196608266724 389.7,-2.332705108704063 389.8,-2.3118387552049633 389.9,-2.2909210636994577 390.0,-2.2699524986977333 390.1,-2.2489335258396395 390.2,-2.2278646118844914 390.3,-2.2067462247005127 390.4,-2.1855788332546693 390.5,-2.1643629076020634 390.6,-2.1430989188756406 390.7,-2.1217873392756137 390.8,-2.100428642059025 390.9,-2.0790233015293023 391.0,-2.057571793025548 391.1,-2.0360745929122115 391.2,-2.0145321785683286 391.3,-1.9929450283769903 391.4,-1.9713136217147649 391.5,-1.9496384389409405 391.6,-1.927919961386987 391.7,-1.9061586713457388 391.8,-1.8843550520608123 391.9,-1.8625095877157636 392.0,-1.8406227634233998 392.1,-1.8186950652149738 392.2,-1.7967269800294576 392.3,-1.7747189957026142 392.4,-1.7526716009563106 392.5,-1.7305852853874693 392.6,-1.70846053945741 392.7,-1.6862978544808418 392.8,-1.6640977226149376 392.9,-1.641860636848453 393.0,-1.6195870909907626 393.1,-1.597277579660879 393.2,-1.5749325982765339 393.3,-1.5525526430430605 393.4,-1.530138210942508 393.5,-1.5076897997224714 393.6,-1.4852079078851563 393.7,-1.4626930346762743 393.8,-1.4401456800738388 393.9,-1.4175663447772993 394.0,-1.3949555301961505 394.1,-1.3723137384390363 394.2,-1.3496414723024974 394.3,-1.3269392352597034 394.4,-1.3042075314494948 394.5,-1.2814468656649816 394.6,-1.2586577433424897 394.7,-1.2358406705502145 394.8,-1.2129961539770528 394.9,-1.190124700921317 395.0,-1.167226819279537 395.1,-1.144303017535063 395.2,-1.12135380474691 395.3,-1.0983796905383167 395.4,-1.0753811850855652 395.5,-1.0523587991065324 395.6,-1.0293130438493994 395.7,-1.0062444310813674 395.8,-0.9831534730771045 395.9,-0.9600406826076101 396.0,-0.9369065729286215 396.1,-0.9137516577693718 396.2,-0.8905764513210432 396.3,-0.8673814682254868 396.4,-0.844167223563691 396.5,-0.8209342328443247 396.6,-0.7976830119924473 396.7,-0.7744140773378596 396.8,-0.7511279456037951 396.9,-0.7278251338953056 397.0,-0.7045061596879174 397.1,-0.6811715408160008 397.2,-0.6578217954614107 397.3,-0.6344574421418563 397.4,-0.6110789996994571 397.5,-0.587686987289204 397.6,-0.5642819243674124 397.7,-0.5408643306802579 397.8,-0.5174347262521107 397.9,-0.49399363137412894 398.0,-0.47054156659256374 398.1,-0.4470790526973406 398.2,-0.42360661071037115 398.3,-0.4001247618740534 398.4,-0.3766340276396793 398.5,-0.35313492965583726 398.6,-0.32962798975689905 398.7,-0.30611372995130753 398.8,-0.2825926724101264 398.9,-0.2590653394553032 399.0,-0.23553225354821122 399.1,-0.21199393727790658 399.2,-0.1884509133496824 399.3,-0.1649037045732485 399.4,-0.14135283385137 399.5,-0.11779882416806042 399.6,-0.0942421985770387 399.7,-0.07068348019016739 399.8,-0.0471231921657119 399.9,-0.023561857696882644 400.0,-3.673940397442059e-15" stroke-width="1" stroke-linecap="round" stroke-linejoin="round" stroke="#000000" fill="none"  />
<!-- Footer -->
</svg>
