<!-- Header -->
<svg
    version="1.1"
    baseProfile="full"
    xmlns="http://www.w3.org/2000/svg"
    xmlns:xlink="http://www.w3.org/1999/xlink"
    xmlns:ev="http://www.w3.org/2001/xml-events"
    width="410.0"
    height="20.0"
    viewBox="-5.0 -10.0 410.0 20.0"
    preserveAspectRatio="none"
>
<!-- Body -->
<!-- polyline -->
<polyline points="0.0,0.0 0.1,0.007853978404154395 0.2,0.015707937429397818 0.3,0.02356185769686711 0.4,0.03141571982779476 0.5,0.039269504443556674 0.6,0.04712319216572003 0.7,0.05497676361609111 0.8,0.06283019941676304 0.9,0.07068348019016367 1.0,0.07853658655910338 1.1,0.08638949914682284 1.2,0.09424219857704087 1.3,0.10209466547400228 1.4,0.10994688046252553 1.5,0.11779882416805075 1.6,0.1256504772166874 1.7,0.13350182023526203 1.8,0.14135283385136627 1.9,0.14920349869340443 2.0,0.15705379539064146 2.1,0.16490370457325065 2.2,0.17275320687236137 2.3,0.180602282920107 2.4,0.1884509133496727 2.5,0.19629907879534306 2.6,0.20414675989255 2.7,0.21199393727792049 2.8,0.2198405915893245 2.9,0.22768670346592246 3.0,0.23553225354821328 3.1,0.24337722247808202 3.2,0.25122159089884777 3.3,0.2590653394553112 3.4,0.2669084487938024 3.5,0.27475089956222876 3.6,0.28259267241012265 3.7,0.29043374798868904 3.8,0.2982741069508535 3.9,0.3061137299513096 4.0,0.31395259764656686 4.1,0.32179069069499855 4.2,0.3296279897568893 4.3,0.33746447549448266 4.4,0.34530012857202896 4.5,0.35313492965583343 4.6,0.3609688594143029 4.7,0.36880189851799483 4.8,0.3766340276396636 4.9,0.3844652274543093 5.0,0.3922954786392247 5.1,0.40012476187404344 5.2,0.4079530578407877 5.3,0.415780347223915 5.4,0.4236066107103672 5.5,0.43143182898961685 5.6,0.4392559827537158 5.7,0.4470790526973426 5.8,0.45490101951784956 5.9,0.4627218639153113 6.0,0.47054156659257157 6.1,0.4783601082552914 6.2,0.4861774696119966 6.3,0.493993631374125 6.4,0.5018085742560745 6.5,0.5096222789752501 6.6,0.5174347262521126 6.7,0.5252458968102247 6.8,0.5330557713762996 6.9,0.5408643306802481 7.0,0.5486715554552264 7.1,0.5564774264376833 7.2,0.5642819243674084 7.3,0.5720850299875787 7.4,0.5798867240448068 7.5,0.5876869872891881 7.6,0.5954858004743486 7.7,0.603283144357492 7.8,0.6110789996994471 7.9,0.6188733472647162 8.0,0.6266661678215213 8.1,0.6344574421418521 8.2,0.6422471510015142 8.3,0.6500352751801751 8.4,0.6578217954614125 8.5,0.6656066926327618 8.6,0.673389947485763 8.7,0.6811715408160085 8.8,0.6889514534231904 8.9,0.6967296661111476 9.0,0.7045061596879133 9.1,0.712280914965763 9.2,0.7200539127612606 9.3,0.7278251338953073 9.4,0.7355945591931868 9.5,0.7433621694846149 9.6,0.7511279456037854 9.7,0.7588918683894172 9.8,0.7666539186848033 9.9,0.7744140773378556 10.0,0.7821723252011543 10.1,0.7899286431319941 10.2,0.7976830119924314 10.3,0.8054354126493323 10.4,0.8131858259744179 10.5,0.8209342328443148 10.6,0.8286806141405983 10.7,0.8364249507498435 10.8,0.8441672235636694 10.9,0.8519074134787872 11.0,0.8596455013970477 11.1,0.8673814682254883 11.2,0.8751152948763802 11.3,0.8828469622672745 11.4,0.8905764513210507 11.5,0.8983037429659626 11.6,0.9060288181356867 11.7,0.9137516577693676 11.8,0.9214722428116666 11.9,0.929190554212807 12.0,0.936906572928623 12.1,0.9446202799206056 12.2,0.9523316561559493 12.3,0.9600406826076002 12.4,0.9677473402543012 12.5,0.9754516100806412 12.6,0.9831534730771002 12.7,0.9908529102400967 12.8,0.9985499025720351 12.9,1.0062444310813516 13.0,1.0139364767825625 13.1,1.021626020696309 13.2,1.0293130438494067 13.3,1.0369975272748895 13.4,1.0446794520120586 13.5,1.0523587991065282 13.6,1.0600355496102734 13.7,1.0677096845816743 13.8,1.0753811850855668 13.9,1.0830500321932854 14.0,1.0907162069827128 14.1,1.098379690538324 14.2,1.1060404639512353 14.3,1.1136985083192508 14.4,1.1213538047469058 14.5,1.1290063343455186 14.6,1.136656078233232 14.7,1.1443030175350646 14.8,1.151947133382953 14.9,1.1595884069158016 15.0,1.1672268192795268 15.1,1.1748623516271066 15.2,1.1824949851186233 15.3,1.1901247009213127 15.4,1.1977514802096092 15.5,1.2053753041651931 15.6,1.212996153977037 15.7,1.2206140108414514 15.8,1.2282288559621317 15.9,1.2358406705502043 16.0,1.243449435824274 16.1,1.2510551330104682 16.2,1.2586577433424853 16.3,1.2662572480616405 16.4,1.2738536284169104 16.5,1.2814468656649833 16.6,1.2890369410702993 16.7,1.2966238359051028 16.8,1.3042075314494848 16.9,1.31178800899143 17.0,1.3193652498268647 17.1,1.326939235259699 17.2,1.334509946601878 17.3,1.342077365173423 17.4,1.3496414723024817 17.5,1.3572022493253713 17.6,1.3647596775866262 17.7,1.3723137384390434 17.8,1.3798644132437288 17.9,1.3874116833701424 18.0,1.3949555301961465 18.1,1.4024959351080477 18.2,1.410032879500647 18.3,1.4175663447772837 18.4,1.4250963123498803 18.5,1.4326227636389914 18.6,1.440145680073846 18.7,1.4476650430923954 18.8,1.455180834141359 18.9,1.4626930346762699 19.0,1.4702016261615198 19.1,1.4777065900704056 19.2,1.4852079078851745 19.3,1.492705561097071 19.4,1.500199531206381 19.5,1.5076897997224783 19.6,1.51517634816387 19.7,1.5226591580582414 19.8,1.530138210942504 19.9,1.5376134883628367 20.0,1.545084971874737 20.1,1.5525526430430616 20.2,1.560016483442074 20.3,1.5674764746554906 20.4,1.5749325982765237 20.5,1.5823848359079304 20.6,1.589833169162055 20.7,1.5972775796608745 20.8,1.6047180490360473 20.9,1.6121545589289545 21.0,1.619587090990747 21.1,1.627015626882391 21.2,1.634440148274712 21.3,1.6418606368484432 21.4,1.6492770742942642 21.5,1.6566894423128549 21.6,1.6640977226149332 21.7,1.6715018969213038 21.8,1.6789019469629032 21.9,1.686297854480843 22.0,1.6936896012264568 22.1,1.7010771689613446 22.2,1.7084605394574162 22.3,1.7158396944969407 22.4,1.7232146158725854 22.5,1.7305852853874648 22.6,1.7379516848551853 22.7,1.7453137960998877 22.8,1.752671600956295 22.9,1.7600250812697549 23.0,1.7673742188962853 23.1,1.7747189957026204 23.2,1.7820593935662534 23.3,1.789395394375482 23.4,1.796726980029453 23.5,1.804054132438209 23.6,1.8113768335227285 23.7,1.8186950652149747 23.8,1.8260088094579392 23.9,1.8333180482056837 24.0,1.8406227634233896 24.1,1.8479229370873975 24.2,1.855218551185255 24.3,1.8625095877157591 24.4,1.8697960286890019 24.5,1.877077856126415 24.6,1.8843550520608134 24.7,1.8916275985364386 24.8,1.8988954776090052 24.9,1.9061586713457452 25.0,1.913417161825449 25.1,1.9206709311385128 25.2,1.9279199613869824 25.3,1.9351642346845968 25.4,1.9424037331568302 25.5,1.9496384389409414 25.6,1.9568683341860122 25.7,1.9640934010529945 25.8,1.9713136217147547 25.9,1.9785289783561157 26.0,1.985739453173903 26.1,1.9929450283769858 26.2,2.0001456861863236 26.3,2.0073414088350097 26.4,2.014532178568313 26.5,2.021717977643725 26.6,2.028898788331 26.7,2.0360745929122013 26.8,2.0432453736817453 26.9,2.0504111129464424 27.0,2.0575717930255437 27.1,2.0647273962507833 27.2,2.0718779049664207 27.3,2.079023301529287 27.4,2.086163568308826 27.5,2.0932986876871404 27.6,2.1004286420590312 27.7,2.1075534138320453 27.8,2.114672985426516 27.9,2.1217873392756093 28.0,2.1288964578253635 28.1,2.136000323534735 28.2,2.143098918875642 28.3,2.1501922263330058 28.4,2.1572802284047947 28.5,2.1643629076020696 28.6,2.171440246449023 28.7,2.1785122274830244 28.8,2.1855788332546644 28.9,2.1926400463277953 29.0,2.1996958492795757 29.1,2.2067462247005136 29.2,2.213791155194507 29.3,2.220830623378893 29.4,2.227864611884481 29.5,2.2348931033556054 29.6,2.241916080450161 29.7,2.248933525839651 29.8,2.2559454222092254 29.9,2.262951752257727 30.0,2.2699524986977337 30.1,2.2769476442556 30.2,2.2839371716714973 30.3,2.2909210636994635 30.4,2.297899303107439 30.5,2.3048718726773116 30.6,2.311838755204959 30.7,2.3187999335002907 30.8,2.325755390387292 30.9,2.3327051087040633 31.0,2.339649071302867 31.1,2.346587261050164 31.2,2.3535196608266626 31.3,2.3604462535273547 31.4,2.3673670220615604 31.5,2.374281949352973 31.6,2.3811910183396954 31.7,2.388094211974287 31.8,2.394991513223805 31.9,2.4018829050698427 32.0,2.4087683705085765 32.1,2.4156478925508047 32.2,2.42252145422199 32.3,2.4293890385623027 32.4,2.436250628626661 32.5,2.4431062074847745 32.6,2.449955758221183 32.7,2.4567992639353005 32.8,2.4636367077414576 32.9,2.470468072768942 33.0,2.477293342162038 33.1,2.484112499080073 33.2,2.490925526697454 33.3,2.497732408203714 33.4,2.5045331268035493 33.5,2.5113276657168626 33.6,2.518116008178804 33.7,2.5248981374398145 33.8,2.5316740367656627 33.9,2.538443689437492 34.0,2.5452070787518566 34.1,2.5519641880207655 34.2,2.5587150005717247 34.3,2.5654594997477735 34.4,2.572197668907532 34.5,2.5789294914252374 34.6,2.585654950690786 34.7,2.5923740301097764 34.8,2.599086713103547 34.9,2.6057929831092213 35.0,2.612492823579744 35.1,2.6191862179839247 35.2,2.6258731498064787 35.3,2.632553602548065 35.4,2.639227559725332 35.5,2.6458950048709533 35.6,2.6525559215336703 35.7,2.659210293278334 35.8,2.665858103685943 35.9,2.6724993363536864 36.0,2.679133974894983 36.1,2.685762002939521 36.2,2.692383404133301 36.3,2.6989981621386727 36.4,2.705606260634379 36.5,2.7122076833155933 36.6,2.718802413893963 36.7,2.7253904360976433 36.8,2.731971733671345 36.9,2.738546290376372 37.0,2.745114089990659 37.1,2.7516751163088116 37.2,2.7582293531421516 37.3,2.7647767843187494 37.4,2.77131739368347 37.5,2.777851165098011 37.6,2.7843780824409397 37.7,2.7908981296077373 37.8,2.7974112905108344 37.9,2.8039175490796553 38.0,2.8104168892606527 38.1,2.8169092950173518 38.2,2.823394750330386 38.3,2.8298732391975374 38.4,2.8363447456337827 38.5,2.8428092536713194 38.6,2.8492667473596187 38.7,2.855717210765456 38.8,2.862160627972954 38.9,2.8685969830836218 39.0,2.875026260216393 39.1,2.881448443507664 39.2,2.887863517111338 39.3,2.8942714651988566 39.4,2.9006722719592464 39.5,2.907065921599153 39.6,2.913452398342881 39.7,2.9198316864324325 39.8,2.9262037701275503 39.9,2.9325686337057504 40.0,2.938926261462366 40.1,2.9452766377105806 40.2,2.9516197467814727 40.3,2.9579555730240514 40.4,2.9642841008052963 40.5,2.9706053145101925 40.6,2.9769191985417747 40.7,2.9832257373211615 40.8,2.9895249152875936 40.9,2.995816716898479 41.0,3.0021011266294195 41.1,3.008378128974262 41.2,3.014647708445124 41.3,3.020909849572442 41.4,3.0271645369050066 41.5,3.0334117550099986 41.6,3.039651488473027 41.7,3.045883721898171 41.8,3.0521084399080127 41.9,3.05832562714368 42.0,3.0645352682648825 42.1,3.070737347949946 42.2,3.076931850895858 42.3,3.083118761818295 42.4,3.089298065451671 42.5,3.0954697465491696 42.6,3.1016337898827806 42.7,3.107790180243338 42.8,3.1139389024405624 42.9,3.120079941303093 43.0,3.1262132816785253 43.1,3.132338908433454 43.2,3.1384568064535023 43.3,3.144566960643365 43.4,3.1506693559268455 43.5,3.156763977246888 43.6,3.1628508095656223 43.7,3.1689298378643938 43.8,3.1750010471438026 43.9,3.1810644224237468 44.0,3.1871199487434483 44.1,3.1931676111614986 44.2,3.1992073947558923 44.3,3.2052392846240623 44.4,3.2112632658829217 44.5,3.217279323668895 44.6,3.2232874431379566 44.7,3.22928760946567 44.8,3.2352798078472214 44.9,3.2412640234974566 45.0,3.2472402416509185 45.1,3.2532084475618817 45.2,3.259168626504394 45.3,3.2651207637723036 45.4,3.271064844679305 45.5,3.277000854558969 45.6,3.2829287787647825 45.7,3.2888486026701793 45.8,3.2947603116685844 45.9,3.300663891173443 46.0,3.306559326618259 46.1,3.3124466034566327 46.2,3.3183257071622925 46.3,3.3241966232291347 46.4,3.330059337171258 46.5,3.3359138345229984 46.6,3.3417601008389655 46.7,3.347598121694078 46.8,3.3534278826835995 46.9,3.359249369423176 47.0,3.3650625675488666 47.1,3.3708674627171824 47.2,3.3766640406051223 47.3,3.3824522869102056 47.4,3.388232187350511 47.5,3.3940037276647086 47.6,3.399766893612096 47.7,3.405521670972634 47.8,3.411268045546982 47.9,3.4170060031565312 48.0,3.422735529643443 48.1,3.42845661087068 48.2,3.4341692327220406 48.3,3.4398733811022018 48.4,3.4455690419367424 48.5,3.451256201172186 48.6,3.4569348447760317 48.7,3.4626049587367924 48.8,3.4682665290640244 48.9,3.4739195417883666 49.0,3.4795639829615714 49.1,3.4851998386565413 49.2,3.4908270949673637 49.3,3.4964457380093403 49.4,3.5020557539190316 49.5,3.5076571288542784 49.6,3.5132498489942456 49.7,3.518833900539453 49.8,3.524409269711807 49.9,3.5299759427546396 50.0,3.5355339059327373 50.1,3.54108314553238 50.2,3.5466236478613693 50.3,3.5521553992490675 50.4,3.557678386046427 50.5,3.5631925946260266 50.6,3.568698011382107 50.7,3.574194622730597 50.8,3.5796824151091555 50.9,3.585161374977201 51.0,3.5906314888159443 51.1,3.5960927431284224 51.2,3.601545124439535 51.3,3.6069886192960703 51.4,3.612423214266749 51.5,3.6178488959422466 51.6,3.623265650935233 51.7,3.628673465880405 51.8,3.634072327434514 51.9,3.6394622222764084 52.0,3.644843137107058 52.1,3.650215058649589 52.2,3.6555779736493204 52.3,3.6609318688737917 52.4,3.6662767311128004 52.5,3.6716125471784276 52.6,3.676939303905079 52.7,3.6822569881495126 52.8,3.6875655867908694 52.9,3.692865086730711 53.0,3.6981554748930483 53.1,3.703436738224374 53.2,3.708708863693696 53.3,3.7139718382925686 53.4,3.719225649035125 53.5,3.72447028295811 53.6,3.7297057271209106 53.7,3.7349319686055886 53.8,3.740148994516912 53.9,3.74535679198239 54.0,3.7505553481522975 54.1,3.7557446501997154 54.2,3.760924685320557 54.3,3.7660954407335994 54.4,3.771256903680519 54.5,3.776409061425918 54.6,3.7815519012573597 54.7,3.786685410485398 54.8,3.791809576443609 54.9,3.796924386488623 55.0,3.8020298280001548 55.1,3.8071258883810346 55.2,3.8122125550572394 55.3,3.817289815477926 55.4,3.822357657115458 55.5,3.8274160674654407 55.6,3.8324650340467494 55.7,3.8375045444015603 55.8,3.842534586095383 55.9,3.8475551467170894 56.0,3.852566213878946 56.1,3.857567775216642 56.2,3.862559818389322 56.3,3.867542331079616 56.4,3.872515300993669 56.5,3.877478715861172 56.6,3.882432563435393 56.7,3.8873768314932047 56.8,3.8923115078351165 56.9,3.8972365802853077 57.0,3.9021520366916485 57.1,3.907057864925741 57.2,3.9119540528829404 57.3,3.9168405884823905 57.4,3.9217174596670503 57.5,3.9265846544037246 57.6,3.9314421606830945 57.7,3.936289966519746 57.8,3.9411280599522005 57.9,3.9459564290429423 58.0,3.950775061878452 58.1,3.955583946569231 58.2,3.9603830712498356 58.3,3.965172424078901 58.4,3.9699519932391762 58.5,3.97472176693755 58.6,3.979481733405079 58.7,3.98423188089702 58.8,3.988972197692855 58.9,3.9937026720963247 59.0,3.9984232924354526 59.1,4.003134047062579 59.2,4.007834924354382 59.3,4.012525912711919 59.4,4.017207000560638 59.5,4.021878176350421 59.6,4.02653942855561 59.7,4.0311907456750244 59.8,4.035832116232001 59.9,4.040463528774422 60.0,4.045084971874736 60.1,4.049696434129993 60.2,4.054297904161867 60.3,4.058889370616688 60.4,4.06347082216547 60.5,4.068042247503935 60.6,4.0726036353525465 60.7,4.077154974456534 60.8,4.081696253585919 60.9,4.0862274615355485 61.0,4.090748587125117 61.1,4.0952596191991955 61.2,4.0997605466272615 61.3,4.104251358303724 61.4,4.108732043147951 61.5,4.113202590104299 61.6,4.117662988142137 61.7,4.122113226255877 61.8,4.1265532934649976 61.9,4.130983178814076 62.0,4.1354028713728095 62.1,4.1398123602360455 62.2,4.14421163452381 62.3,4.148600683381329 62.4,4.1529794959790625 62.5,4.157348061512725 62.6,4.1617063692033165 62.7,4.166054408297145 62.8,4.170392168065856 62.9,4.174719637806458 63.0,4.179036806841351 63.1,4.183343664518349 63.2,4.1876402002107085 63.3,4.191926403317155 63.4,4.196202263261908 63.5,4.2004677694947095 63.6,4.204722911490845 63.7,4.208967678751176 63.8,4.213202060802161 63.9,4.217426047195883 64.0,4.221639627510076 64.1,4.225842791348147 64.2,4.2300355283392115 64.3,4.234217828138103 64.4,4.238389680425416 64.5,4.242551074907518 64.6,4.246702001316582 64.7,4.250842449410611 64.8,4.254972408973459 64.9,4.2590918698148625 65.0,4.263200821770461 65.1,4.267299254701824 65.2,4.271387158496475 65.3,4.27546452306792 65.4,4.279531338355665 65.5,4.2835875943252475 65.6,4.287633280968261 65.7,4.291668388302375 65.8,4.295692906371363 65.9,4.299706825245125 66.0,4.303710135019719 66.1,4.307702825817373 66.2,4.3116848877865195 66.3,4.315656311101819 66.4,4.319617085964176 66.5,4.323567202600776 66.6,4.327506651265095 66.7,4.331435422236937 66.8,4.33535350582245 66.9,4.339260892354153 67.0,4.3431575721909566 67.1,4.347043535718191 67.2,4.350918773347629 67.3,4.354783275517504 67.4,4.3586370326925445 67.5,4.362480035363985 67.6,4.3663122740496005 67.7,4.370133739293722 67.8,4.373944421667264 67.9,4.377744311767746 68.0,4.381533400219318 68.1,4.38531167767278 68.2,4.389079134805608 68.3,4.392835762321977 68.4,4.3965815509527815 68.5,4.400316491455659 68.6,4.404040574615017 68.7,4.407753791242052 68.8,4.4114561321747665 68.9,4.415147588278005 69.0,4.418828150443467 69.1,4.42249780958973 69.2,4.426156556662276 69.3,4.42980438263351 69.4,4.433441278502783 69.5,4.437067235296416 69.6,4.440682244067722 69.7,4.444286295897027 69.8,4.447879381891689 69.9,4.4514614931861285 70.0,4.455032620941839 70.1,4.45859275634742 70.2,4.4621418906185895 70.3,4.465680014998212 70.4,4.469207120756319 70.5,4.472723199190125 70.6,4.4762282416240575 70.7,4.479722239409774 70.8,4.483205183926179 70.9,4.486677066579456 71.0,4.490137878803078 71.1,4.493587612057835 71.2,4.497026257831855 71.3,4.5004538076406195 71.4,4.5038702530269905 71.5,4.507275585561229 71.6,4.5106697968410145 71.7,4.514052878491468 71.8,4.517424822165174 71.9,4.520785619542195 72.0,4.524135262330098 72.1,4.527473742263971 72.2,4.530801051106449 72.3,4.534117180647726 72.4,4.537422122705585 72.5,4.540715869125406 72.6,4.5439984117802 72.7,4.547269742570618 72.8,4.550529853424978 72.9,4.55377873629928 73.0,4.557016383177226 73.1,4.560242786070247 73.2,4.563457937017514 73.3,4.566661828085961 73.4,4.569854451370307 73.5,4.573035798993068 73.6,4.576205863104587 73.7,4.579364635883048 73.8,4.58251210953449 73.9,4.585648276292836 74.0,4.588773128419906 74.1,4.591886658205438 74.2,4.594988857967107 74.3,4.598079720050543 74.4,4.601159236829352 74.5,4.604227400705131 74.6,4.607284204107492 74.7,4.6103296394940765 74.8,4.6133636993505736 74.9,4.616386376190745 75.0,4.619397662556434 75.1,4.622397551017591 75.2,4.6253860341722906 75.3,4.628363104646746 75.4,4.631328755095333 75.5,4.634282978200604 75.6,4.637225766673306 75.7,4.640157113252403 75.8,4.6430770107050865 75.9,4.645985451826801 76.0,4.648882429441256 76.1,4.651767936400449 76.2,4.654641965584679 76.3,4.6575045099025605 76.4,4.6603555622910555 76.5,4.663195115715471 76.6,4.666023163169493 76.7,4.668839697675196 76.8,4.67164471228306 76.9,4.674438200071992 77.0,4.677220154149336 77.1,4.6799905676509 77.2,4.682749433740962 77.3,4.685496745612294 77.4,4.688232496486179 77.5,4.6909566796124205 77.6,4.69366928826937 77.7,4.696370315763935 77.8,4.699059755431598 77.9,4.701737600636434 78.0,4.704403844771127 78.1,4.707058481256984 78.2,4.709701503543953 78.3,4.71233290511064 78.4,4.714952679464322 78.5,4.717560820140967 78.6,4.7201573207052485 78.7,4.722742174750557 78.8,4.725315375899024 78.9,4.727876917801531 79.0,4.730426794137727 79.1,4.732964998616046 79.2,4.735491524973722 79.3,4.7380063669768 79.4,4.74050951842016 79.5,4.743000973127523 79.6,4.745480724951473 79.7,4.747948767773468 79.8,4.750405095503859 79.9,4.7528497020819 80.0,4.755282581475767 80.1,4.757703727682575 80.2,4.760113134728384 80.3,4.76251079666822 80.4,4.764896707586094 80.5,4.767270861595006 80.6,4.769633252836967 80.7,4.771983875483013 80.8,4.774322723733214 80.9,4.7766497918166975 81.0,4.7789650739916505 81.1,4.781268564545346 81.2,4.783560257794153 81.3,4.785840148083541 81.4,4.7881082297881115 81.5,4.790364497311596 81.6,4.792608945086879 81.7,4.79484156757601 81.8,4.797062359270214 81.9,4.799271314689909 82.0,4.801468428384715 82.1,4.803653694933475 82.2,4.80582710894426 82.3,4.807988665054386 82.4,4.8101383579304295 82.5,4.812276182268236 82.6,4.814402132792938 82.7,4.816516204258962 82.8,4.818618391450048 82.9,4.820708689179259 83.0,4.822787092288991 83.1,4.824853595650991 83.2,4.82690819416637 83.3,4.828950882765607 83.4,4.830981656408574 83.5,4.833000510084537 83.6,4.835007438812175 83.7,4.837002437639592 83.8,4.838985501644327 83.9,4.840956625933367 84.0,4.842915805643155 84.1,4.844863035939614 84.2,4.846798312018146 84.3,4.848721629103649 84.4,4.85063298245053 84.5,4.852532367342713 84.6,4.854419779093655 84.7,4.856295213046356 84.8,4.858158664573369 84.9,4.860010129076813 85.0,4.861849601988383 85.1,4.863677078769362 85.2,4.865492554910633 85.3,4.8672960259326885 85.4,4.869087487385644 85.5,4.870866934849246 85.6,4.872634363932885 85.7,4.874389770275606 85.8,4.876133149546117 85.9,4.877864497442804 86.0,4.879583809693736 86.1,4.881291082056684 86.2,4.882986310319123 86.3,4.8846694902982435 86.4,4.886340617840967 86.5,4.887999688823953 86.6,4.889646699153609 86.7,4.8912816447661 86.8,4.892904521627361 86.9,4.894515325733103 87.0,4.896114053108828 87.1,4.897700699809837 87.2,4.899275261921234 87.3,4.900837735557945 87.4,4.9023881168647225 87.5,4.903926402016152 87.6,4.90545258721667 87.7,4.906966668700567 87.8,4.908468642731994 87.9,4.909958505604983 88.0,4.911436253643443 88.1,4.9129018832011795 88.2,4.914355390661896 88.3,4.915796772439208 88.4,4.917226024976649 88.5,4.91864314474768 88.6,4.920048128255699 88.7,4.921440972034049 88.8,4.922821672646027 88.9,4.924190226684891 89.0,4.92554663077387 89.1,4.926890881566171 89.2,4.9282229757449905 89.3,4.929542910023517 89.4,4.930850681144944 89.5,4.932146285882477 89.6,4.9334297210393405 89.7,4.934700983448784 89.8,4.9359600699740955 89.9,4.9372069775086045 90.0,4.938441702975689 90.1,4.939664243328787 90.2,4.940874595551402 90.3,4.942072756657111 90.4,4.943258723689571 90.5,4.944432493722522 90.6,4.945594063859809 90.7,4.94674343123537 90.8,4.947880593013255 90.9,4.949005546387631 91.0,4.950118288582788 91.1,4.951218816853144 91.2,4.952307128483256 91.3,4.953383220787822 91.4,4.954447091111693 91.5,4.955498736829874 91.6,4.956538155347533 91.7,4.957565344100009 91.8,4.958580300552814 91.9,4.959583022201646 92.0,4.960573506572389 92.1,4.961551751221121 92.2,4.962517753734119 92.3,4.963471511727869 92.4,4.964413022849069 92.5,4.965342284774631 92.6,4.966259295211697 92.7,4.967164051897633 92.8,4.968056552600042 92.9,4.968936795116768 93.0,4.969804777275899 93.1,4.970660496935775 93.2,4.971503951984994 93.3,4.972335140342415 93.4,4.973154059957162 93.5,4.973960708808632 93.6,4.9747550849065005 93.7,4.9755371862907225 93.8,4.976307011031541 93.9,4.9770645572294905 94.0,4.9778098230154 94.1,4.978542806550401 94.2,4.979263506025928 94.3,4.979971919663729 94.4,4.980668045715863 94.5,4.981351882464706 94.6,4.982023428222962 94.7,4.982682681333657 94.8,4.983329640170149 94.9,4.983964303136133 95.0,4.9845866686656395 95.1,4.985196735223044 95.2,4.98579450130307 95.3,4.986379965430785 95.4,4.986953126161619 95.5,4.98751398208135 95.6,4.9880625318061265 95.7,4.988598773982453 95.8,4.9891227072872075 95.9,4.989634330427635 96.0,4.990133642141358 96.1,4.990620641196372 96.2,4.991095326391059 96.3,4.991557696554177 96.4,4.992007750544875 96.5,4.99244548725269 96.6,4.992870905597549 96.7,4.993284004529775 96.8,4.993684783030087 96.9,4.994073240109605 97.0,4.99444937480985 97.1,4.994813186202745 97.2,4.995164673390623 97.3,4.9955038355062245 97.4,4.9958306717127 97.5,4.996145181203614 97.6,4.996447363202946 97.7,4.996737216965092 97.8,4.997014741774865 97.9,4.997279936947501 98.0,4.997532801828658 98.1,4.997773335794417 98.2,4.998001538251283 98.3,4.99821740863619 98.4,4.9984209464165 98.5,4.998612151090002 98.6,4.99879102218492 98.7,4.998957559259906 98.8,4.999111761904045 98.9,4.999253629736859 99.0,4.999383162408303 99.1,4.999500359598768 99.2,4.99960522101908 99.3,4.999697746410507 99.4,4.999777935544749 99.5,4.999845788223948 99.6,4.9999013042806855 99.7,4.99994448357798 99.8,4.999975326009291 99.9,4.999993831498518 100.0,5.0 100.1,4.999993831498518 100.2,4.999975326009291 100.3,4.99994448357798 100.4,4.9999013042806855 100.5,4.999845788223948 100.6,4.999777935544749 100.7,4.999697746410507 100.8,4.99960522101908 100.9,4.999500359598768 101.0,4.999383162408303 101.1,4.999253629736859 101.2,4.999111761904045 101.3,4.998957559259906 101.4,4.99879102218492 101.5,4.998612151090002 101.6,4.9984209464165 101.7,4.99821740863619 101.8,4.998001538251283 101.9,4.997773335794417 102.0,4.997532801828658 102.1,4.997279936947501 102.2,4.997014741774865 102.3,4.996737216965092 102.4,4.996447363202946 102.5,4.996145181203614 102.6,4.9958306717127 102.7,4.9955038355062245 102.8,4.995164673390623 102.9,4.994813186202745 103.0,4.99444937480985 103.1,4.994073240109605 103.2,4.993684783030087 103.3,4.993284004529775 103.4,4.992870905597549 103.5,4.99244548725269 103.6,4.992007750544875 103.7,4.991557696554177 103.8,4.991095326391059 103.9,4.990620641196372 104.0,4.990133642141358 104.1,4.989634330427635 104.2,4.9891227072872075 104.3,4.988598773982453 104.4,4.9880625318061265 104.5,4.98751398208135 104.6,4.986953126161619 104.7,4.986379965430785 104.8,4.98579450130307 104.9,4.985196735223044 105.0,4.9845866686656395 105.1,4.983964303136133 105.2,4.983329640170149 105.3,4.9826826813336575 105.4,4.982023428222962 105.5,4.981351882464706 105.6,4.980668045715863 105.7,4.979971919663729 105.8,4.979263506025928 105.9,4.978542806550401 106.0,4.9778098230154 106.1,4.9770645572294905 106.2,4.976307011031541 106.3,4.975537186290723 106.4,4.9747550849065005 106.5,4.973960708808632 106.6,4.973154059957162 106.7,4.972335140342415 106.8,4.971503951984994 106.9,4.970660496935776 107.0,4.969804777275899 107.1,4.968936795116767 107.2,4.968056552600042 107.3,4.967164051897633 107.4,4.966259295211697 107.5,4.965342284774631 107.6,4.964413022849069 107.7,4.963471511727869 107.8,4.962517753734119 107.9,4.961551751221121 108.0,4.9605735065723895 108.1,4.959583022201647 108.2,4.958580300552814 108.3,4.957565344100009 108.4,4.956538155347533 108.5,4.955498736829874 108.6,4.954447091111694 108.7,4.953383220787822 108.8,4.952307128483256 108.9,4.951218816853144 109.0,4.950118288582789 109.1,4.949005546387632 109.2,4.947880593013255 109.3,4.94674343123537 109.4,4.945594063859809 109.5,4.944432493722523 109.6,4.943258723689571 109.7,4.942072756657112 109.8,4.940874595551403 109.9,4.939664243328787 110.0,4.938441702975689 110.1,4.9372069775086045 110.2,4.9359600699740955 110.3,4.934700983448784 110.4,4.9334297210393405 110.5,4.932146285882477 110.6,4.930850681144944 110.7,4.929542910023517 110.8,4.9282229757449905 110.9,4.926890881566171 111.0,4.925546630773869 111.1,4.924190226684891 111.2,4.922821672646027 111.3,4.921440972034049 111.4,4.920048128255699 111.5,4.918643144747679 111.6,4.917226024976649 111.7,4.915796772439208 111.8,4.914355390661896 111.9,4.9129018832011795 112.0,4.911436253643443 112.1,4.909958505604983 112.2,4.908468642731995 112.3,4.906966668700567 112.4,4.90545258721667 112.5,4.903926402016152 112.6,4.9023881168647225 112.7,4.900837735557946 112.8,4.899275261921234 112.9,4.897700699809837 113.0,4.896114053108829 113.1,4.894515325733103 113.2,4.892904521627361 113.3,4.8912816447661 113.4,4.889646699153609 113.5,4.887999688823953 113.6,4.886340617840967 113.7,4.8846694902982435 113.8,4.882986310319123 113.9,4.881291082056685 114.0,4.879583809693737 114.1,4.877864497442804 114.2,4.876133149546117 114.3,4.874389770275606 114.4,4.872634363932885 114.5,4.870866934849246 114.6,4.869087487385645 114.7,4.8672960259326885 114.8,4.865492554910633 114.9,4.863677078769362 115.0,4.861849601988383 115.1,4.860010129076814 115.2,4.85815866457337 115.3,4.856295213046357 115.4,4.854419779093655 115.5,4.852532367342713 115.6,4.850632982450529 115.7,4.8487216291036495 115.8,4.846798312018147 115.9,4.844863035939614 116.0,4.842915805643155 116.1,4.840956625933366 116.2,4.838985501644327 116.3,4.837002437639593 116.4,4.835007438812175 116.5,4.833000510084537 116.6,4.830981656408574 116.7,4.828950882765607 116.8,4.82690819416637 116.9,4.824853595650992 117.0,4.822787092288991 117.1,4.820708689179259 117.2,4.818618391450048 117.3,4.816516204258963 117.4,4.814402132792938 117.5,4.812276182268237 117.6,4.8101383579304295 117.7,4.807988665054386 117.8,4.80582710894426 117.9,4.803653694933475 118.0,4.801468428384715 118.1,4.799271314689909 118.2,4.797062359270214 118.3,4.79484156757601 118.4,4.792608945086879 118.5,4.790364497311596 118.6,4.7881082297881115 118.7,4.785840148083541 118.8,4.783560257794152 118.9,4.781268564545347 119.0,4.778965073991651 119.1,4.7766497918166975 119.2,4.774322723733214 119.3,4.771983875483014 119.4,4.769633252836968 119.5,4.767270861595007 119.6,4.764896707586095 119.7,4.762510796668221 119.8,4.760113134728384 119.9,4.757703727682575 120.0,4.755282581475768 120.1,4.7528497020819 120.2,4.750405095503859 120.3,4.747948767773468 120.4,4.745480724951473 120.5,4.743000973127523 120.6,4.74050951842016 120.7,4.7380063669768 120.8,4.735491524973722 120.9,4.732964998616046 121.0,4.730426794137727 121.1,4.727876917801531 121.2,4.725315375899025 121.3,4.722742174750557 121.4,4.7201573207052485 121.5,4.717560820140968 121.6,4.714952679464322 121.7,4.71233290511064 121.8,4.709701503543954 121.9,4.707058481256984 122.0,4.704403844771127 122.1,4.701737600636434 122.2,4.699059755431599 122.3,4.696370315763936 122.4,4.69366928826937 122.5,4.6909566796124205 122.6,4.688232496486179 122.7,4.685496745612293 122.8,4.682749433740962 122.9,4.679990567650901 123.0,4.677220154149337 123.1,4.674438200071992 123.2,4.67164471228306 123.3,4.668839697675196 123.4,4.666023163169493 123.5,4.663195115715471 123.6,4.6603555622910555 123.7,4.657504509902561 123.8,4.654641965584679 123.9,4.65176793640045 124.0,4.648882429441257 124.1,4.645985451826801 124.2,4.6430770107050865 124.3,4.640157113252402 124.4,4.637225766673307 124.5,4.634282978200605 124.6,4.631328755095334 124.7,4.628363104646746 124.8,4.6253860341722906 124.9,4.622397551017591 125.0,4.619397662556434 125.1,4.6163863761907455 125.2,4.613363699350574 125.3,4.6103296394940765 125.4,4.607284204107492 125.5,4.604227400705131 125.6,4.601159236829352 125.7,4.598079720050543 125.8,4.594988857967107 125.9,4.591886658205437 126.0,4.588773128419906 126.1,4.585648276292836 126.2,4.58251210953449 126.3,4.579364635883048 126.4,4.576205863104588 126.5,4.573035798993067 126.6,4.569854451370306 126.7,4.566661828085961 126.8,4.563457937017515 126.9,4.560242786070247 127.0,4.557016383177227 127.1,4.55377873629928 127.2,4.550529853424979 127.3,4.547269742570619 127.4,4.5439984117802 127.5,4.540715869125406 127.6,4.537422122705585 127.7,4.534117180647727 127.8,4.530801051106449 127.9,4.527473742263971 128.0,4.524135262330097 128.1,4.520785619542195 128.2,4.517424822165174 128.3,4.514052878491469 128.4,4.510669796841014 128.5,4.507275585561229 128.6,4.5038702530269905 128.7,4.5004538076406195 128.8,4.4970262578318545 128.9,4.493587612057835 129.0,4.490137878803078 129.1,4.486677066579456 129.2,4.48320518392618 129.3,4.4797222394097735 129.4,4.476228241624058 129.5,4.472723199190126 129.6,4.4692071207563195 129.7,4.465680014998213 129.8,4.4621418906185895 129.9,4.45859275634742 130.0,4.455032620941839 130.1,4.451461493186129 130.2,4.44787938189169 130.3,4.444286295897027 130.4,4.440682244067723 130.5,4.437067235296416 130.6,4.433441278502783 130.7,4.42980438263351 130.8,4.426156556662276 130.9,4.42249780958973 131.0,4.418828150443467 131.1,4.415147588278006 131.2,4.411456132174767 131.3,4.407753791242051 131.4,4.404040574615019 131.5,4.400316491455659 131.6,4.3965815509527815 131.7,4.392835762321978 131.8,4.389079134805608 131.9,4.38531167767278 132.0,4.381533400219317 132.1,4.377744311767746 132.2,4.3739444216672645 132.3,4.370133739293722 132.4,4.3663122740496005 132.5,4.362480035363985 132.6,4.3586370326925445 132.7,4.354783275517505 132.8,4.350918773347629 132.9,4.34704353571819 133.0,4.343157572190956 133.1,4.339260892354153 133.2,4.335353505822451 133.3,4.331435422236937 133.4,4.327506651265095 133.5,4.323567202600776 133.6,4.319617085964177 133.7,4.315656311101819 133.8,4.3116848877865195 133.9,4.307702825817373 134.0,4.303710135019719 134.1,4.299706825245125 134.2,4.295692906371363 134.3,4.291668388302375 134.4,4.287633280968261 134.5,4.283587594325248 134.6,4.279531338355666 134.7,4.275464523067921 134.8,4.271387158496475 134.9,4.267299254701824 135.0,4.263200821770462 135.1,4.259091869814863 135.2,4.25497240897346 135.3,4.2508424494106105 135.4,4.246702001316583 135.5,4.242551074907518 135.6,4.238389680425417 135.7,4.234217828138104 135.8,4.2300355283392115 135.9,4.225842791348148 136.0,4.221639627510075 136.1,4.217426047195883 136.2,4.213202060802162 136.3,4.2089676787511765 136.4,4.204722911490846 136.5,4.2004677694947095 136.6,4.19620226326191 136.7,4.191926403317156 136.8,4.1876402002107085 136.9,4.183343664518349 137.0,4.179036806841351 137.1,4.174719637806458 137.2,4.170392168065858 137.3,4.166054408297145 137.4,4.1617063692033165 137.5,4.157348061512725 137.6,4.152979495979063 137.7,4.148600683381329 137.8,4.144211634523809 137.9,4.139812360236045 138.0,4.135402871372809 138.1,4.130983178814076 138.2,4.126553293464998 138.3,4.122113226255876 138.4,4.117662988142136 138.5,4.113202590104299 138.6,4.108732043147951 138.7,4.104251358303724 138.8,4.099760546627261 138.9,4.0952596191991955 139.0,4.090748587125117 139.1,4.086227461535549 139.2,4.08169625358592 139.3,4.077154974456533 139.4,4.0726036353525465 139.5,4.068042247503935 139.6,4.0634708221654705 139.7,4.058889370616689 139.8,4.054297904161867 139.9,4.049696434129993 140.0,4.045084971874737 140.1,4.040463528774422 140.2,4.035832116232002 140.3,4.031190745675024 140.4,4.02653942855561 140.5,4.021878176350423 140.6,4.017207000560639 140.7,4.0125259127119195 140.8,4.007834924354382 140.9,4.003134047062579 141.0,3.998423292435453 141.1,3.993702672096325 141.2,3.9889721976928563 141.3,3.98423188089702 141.4,3.979481733405078 141.5,3.9747217669375496 141.6,3.9699519932391776 141.7,3.965172424078902 141.8,3.9603830712498356 141.9,3.9555839465692304 142.0,3.9507750618784514 142.1,3.9459564290429423 142.2,3.9411280599522014 142.3,3.9362899665197446 142.4,3.931442160683094 142.5,3.926584654403724 142.6,3.9217174596670503 142.7,3.916840588482391 142.8,3.9119540528829395 142.9,3.9070578649257404 143.0,3.9021520366916485 143.1,3.8972365802853077 143.2,3.8923115078351174 143.3,3.887376831493204 143.4,3.8824325634353922 143.5,3.877478715861172 143.6,3.872515300993669 143.7,3.8675423310796164 143.8,3.8625598183893217 143.9,3.8575677752166415 144.0,3.852566213878946 144.1,3.84755514671709 144.2,3.8425345860953835 144.3,3.83750454440156 144.4,3.8324650340467494 144.5,3.8274160674654407 144.6,3.8223576571154583 144.7,3.8172898154779267 144.8,3.812212555057239 144.9,3.8071258883810346 145.0,3.8020298280001548 145.1,3.796924386488624 145.2,3.79180957644361 145.3,3.7866854104853975 145.4,3.78155190125736 145.5,3.7764090614259183 145.6,3.77125690368052 145.7,3.766095440733601 145.8,3.760924685320557 145.9,3.7557446501997163 146.0,3.750555348152298 146.1,3.745356791982391 146.2,3.7401489945169137 146.3,3.7349319686055886 146.4,3.7297057271209093 146.5,3.7244702829581113 146.6,3.719225649035126 146.7,3.7139718382925704 146.8,3.708708863693695 146.9,3.703436738224373 147.0,3.698155474893048 147.1,3.6928650867307122 147.2,3.6875655867908708 147.3,3.682256988149511 147.4,3.6769393039050784 147.5,3.671612547178427 147.6,3.6662767311127995 147.7,3.660931868873794 147.8,3.6555779736493195 147.9,3.6502150586495885 148.0,3.644843137107057 148.1,3.6394622222764084 148.2,3.6340723274345144 148.3,3.6286734658804036 148.4,3.623265650935233 148.5,3.6178488959422466 148.6,3.6124232142667494 148.7,3.6069886192960716 148.8,3.6015451244395336 148.9,3.5960927431284224 149.0,3.5906314888159443 149.1,3.5851613749772016 149.2,3.579682415109157 149.3,3.5741946227305963 149.4,3.5686980113821063 149.5,3.5631925946260274 149.6,3.5576783860464274 149.7,3.552155399249068 149.8,3.546623647861369 149.9,3.54108314553238 150.0,3.5355339059327378 150.1,3.52997594275464 150.2,3.524409269711808 150.3,3.5188339005394527 150.4,3.513249848994246 150.5,3.5076571288542793 150.6,3.502055753919033 150.7,3.496445738009342 150.8,3.4908270949673637 150.9,3.485199838656542 151.0,3.4795639829615723 151.1,3.473919541788368 151.2,3.468266529064026 151.3,3.462604958736791 151.4,3.456934844776031 151.5,3.4512562011721863 151.6,3.4455690419367437 151.7,3.439873381102203 151.8,3.4341692327220397 151.9,3.4284566108706787 152.0,3.422735529643444 152.1,3.417006003156533 152.2,3.4112680455469837 152.3,3.4055216709726333 152.4,3.399766893612095 152.5,3.3940037276647086 152.6,3.388232187350513 152.7,3.3824522869102083 152.8,3.3766640406051214 152.9,3.370867462717182 153.0,3.3650625675488666 153.1,3.359249369423176 153.2,3.353427882683602 153.3,3.347598121694077 153.4,3.3417601008389646 153.5,3.3359138345229984 153.6,3.3300593371712583 153.7,3.3241966232291356 153.8,3.318325707162292 153.9,3.3124466034566327 154.0,3.306559326618259 154.1,3.300663891173443 154.2,3.2947603116685853 154.3,3.2888486026701793 154.4,3.282928778764782 154.5,3.2770008545589695 154.6,3.271064844679306 154.7,3.2651207637723045 154.8,3.2591686265043935 154.9,3.253208447561882 155.0,3.247240241650919 155.1,3.241264023497457 155.2,3.2352798078472227 155.3,3.22928760946567 155.4,3.223287443137957 155.5,3.2172793236688952 155.6,3.2112632658829225 155.7,3.205239284624064 155.8,3.199207394755892 155.9,3.193167611161499 156.0,3.187119948743449 156.1,3.1810644224237485 156.2,3.1750010471438044 156.3,3.1689298378643915 156.4,3.1628508095656227 156.5,3.1567639772468894 156.6,3.150669355926847 156.7,3.1445669606433673 156.8,3.138456806453501 156.9,3.1323389084334528 157.0,3.126213281678527 157.1,3.1200799413030946 157.2,3.1139389024405646 157.3,3.1077901802433368 157.4,3.1016337898827793 157.5,3.095469746549169 157.6,3.0892980654516733 157.7,3.083118761818297 157.8,3.0769318508958565 157.9,3.0707373479499456 158.0,3.0645352682648817 158.1,3.0583256271436805 158.2,3.052108439908015 158.3,3.0458837218981696 158.4,3.0396514884730266 158.5,3.033411755009998 158.6,3.027164536905007 158.7,3.020909849572443 158.8,3.014647708445123 158.9,3.008378128974261 159.0,3.00210112662942 159.1,2.9958167168984797 159.2,2.9895249152875953 159.3,2.9832257373211606 159.4,2.9769191985417742 159.5,2.970605314510193 159.6,2.9642841008052967 159.7,2.957955573024053 159.8,2.9516197467814727 159.9,2.9452766377105806 160.0,2.9389262614623664 160.1,2.9325686337057517 160.2,2.9262037701275516 160.3,2.9198316864324325 160.4,2.913452398342881 160.5,2.9070659215991537 160.6,2.900672271959248 160.7,2.8942714651988584 160.8,2.887863517111338 160.9,2.881448443507665 161.0,2.8750262602163934 161.1,2.8685969830836235 161.2,2.862160627972956 161.3,2.855717210765456 161.4,2.8492667473596196 161.5,2.8428092536713208 161.6,2.8363447456337836 161.7,2.82987323919754 161.8,2.8233947503303836 161.9,2.8169092950173527 162.0,2.810416889260654 162.1,2.803917549079657 162.2,2.7974112905108366 162.3,2.7908981296077364 162.4,2.784378082440939 162.5,2.7778511650980127 162.6,2.7713173936834723 162.7,2.7647767843187516 162.8,2.75822935314215 162.9,2.751675116308811 163.0,2.7451140899906603 163.1,2.738546290376374 163.2,2.731971733671348 163.3,2.7253904360976424 163.4,2.718802413893962 163.5,2.7122076833155937 163.6,2.7056062606343794 163.7,2.6989981621386736 163.8,2.6923834041333023 163.9,2.685762002939523 164.0,2.679133974894985 164.1,2.672499336353689 164.2,2.6658581036859457 164.3,2.6592102932783335 164.4,2.6525559215336703 164.5,2.6458950048709533 164.6,2.6392275597253327 164.7,2.6325536025480663 164.8,2.6258731498064765 164.9,2.6191862179839234 165.0,2.6124928235797467 165.1,2.605792983109225 165.2,2.599086713103549 165.3,2.592374030109776 165.4,2.585654950690786 165.5,2.578929491425238 165.6,2.572197668907533 165.7,2.5654594997477753 165.8,2.558715000571723 165.9,2.551964188020764 166.0,2.5452070787518553 166.1,2.538443689437491 166.2,2.531674036765664 166.3,2.5248981374398145 166.4,2.5181160081788043 166.5,2.5113276657168635 166.6,2.504533126803551 166.7,2.4977324082037162 166.8,2.4909255266974526 166.9,2.4841124990800716 167.0,2.477293342162037 167.1,2.4704680727689414 167.2,2.463636707741458 167.3,2.4567992639353013 167.4,2.4499557582211837 167.5,2.4431062074847762 167.6,2.4362506286266634 167.7,2.429389038562305 167.8,2.4225214542219886 167.9,2.4156478925508034 168.0,2.408768370508576 168.1,2.4018829050698427 168.2,2.3949915132238058 168.3,2.3880942119742885 168.4,2.381191018339697 168.5,2.3742819493529748 168.6,2.367367022061563 168.7,2.360446253527357 168.8,2.353519660826662 168.9,2.346587261050164 169.0,2.339649071302867 169.1,2.3327051087040642 169.2,2.3257553903872927 169.3,2.318799933500292 169.4,2.3118387552049606 169.5,2.304871872677314 169.6,2.297899303107442 169.7,2.2909210636994652 169.8,2.283937171671497 169.9,2.2769476442555994 170.0,2.269952498697734 170.1,2.2629517522577283 170.2,2.2559454222092263 170.3,2.248933525839649 170.4,2.2419160804501597 170.5,2.234893103355608 170.6,2.2278646118844825 170.7,2.2208306233788946 170.8,2.2137911551945075 170.9,2.2067462247005136 171.0,2.1996958492795766 171.1,2.1926400463277966 171.2,2.185578833254666 171.3,2.178512227483023 171.4,2.1714402464490217 171.5,2.1643629076020687 171.6,2.1572802284047943 171.7,2.150192226333007 171.8,2.1430989188756424 171.9,2.136000323534736 172.0,2.1288964578253644 172.1,2.121787339275611 172.2,2.1146729854265183 172.3,2.107553413832044 172.4,2.1004286420590303 172.5,2.09329868768714 172.6,2.0861635683088267 172.7,2.0790233015292876 172.8,2.0718779049664215 172.9,2.0647273962507846 173.0,2.0575717930255455 173.1,2.0504111129464446 173.2,2.043245373681748 173.3,2.0360745929122004 173.4,2.0288987883309995 173.5,2.021717977643725 173.6,2.014532178568314 173.7,2.0073414088350106 173.8,2.000145686186325 173.9,1.9929450283769876 174.0,1.9857394531739052 174.1,1.9785289783561189 174.2,1.971313621714756 174.3,1.964093401052994 174.4,1.9568683341860118 174.5,1.9496384389409416 174.6,1.9424037331568311 174.7,1.9351642346845979 174.8,1.9279199613869802 174.9,1.920670931138515 175.0,1.9134171618254514 175.1,1.906158671345746 175.2,1.898895477609007 175.3,1.8916275985364384 175.4,1.8843550520608134 175.5,1.8770778561264159 175.6,1.8697960286890034 175.7,1.8625095877157607 175.8,1.8552185511852533 175.9,1.8479229370873962 176.0,1.8406227634233907 176.1,1.8333180482056854 176.2,1.8260088094579408 176.3,1.818695065214975 176.4,1.811376833522729 176.5,1.80405413243821 176.6,1.796726980029455 176.7,1.789395394375484 176.8,1.7820593935662519 176.9,1.7747189957026197 177.0,1.7673742188962849 177.1,1.7600250812697547 177.2,1.7526716009562973 177.3,1.7453137960998886 177.4,1.7379516848551861 177.5,1.7305852853874666 177.6,1.7232146158725872 177.7,1.7158396944969432 177.8,1.7084605394574153 177.9,1.7010771689613435 178.0,1.6936896012264566 178.1,1.6862978544808431 178.2,1.6789019469629038 178.3,1.671501896921305 178.4,1.6640977226149347 178.5,1.656689442312857 178.6,1.6492770742942668 178.7,1.6418606368484436 178.8,1.6344401482747115 178.9,1.6270156268823908 179.0,1.6195870909907473 179.1,1.6121545589289552 179.2,1.6047180490360486 179.3,1.5972775796608762 179.4,1.5898331691620569 179.5,1.5823848359079329 179.6,1.5749325982765248 179.7,1.5674764746554917 179.8,1.5600164834420738 179.9,1.5525526430430616 180.0,1.5450849718747375 180.1,1.5376134883628378 180.2,1.5301382109425052 180.3,1.5226591580582391 180.4,1.5151763481638723 180.5,1.5076897997224792 180.6,1.5001995312063823 180.7,1.4927055610970728 180.8,1.4852079078851745 180.9,1.4777065900704058 181.0,1.4702016261615207 181.1,1.4626930346762714 181.2,1.455180834141361 181.3,1.4476650430923934 181.4,1.4401456800738446 181.5,1.4326227636389905 181.6,1.4250963123498823 181.7,1.4175663447772857 181.8,1.4100328795006476 181.9,1.4024959351080484 182.0,1.3949555301961478 182.1,1.3874116833701444 182.2,1.379864413243731 182.3,1.3723137384390418 182.4,1.3647596775866253 182.5,1.3572022493253708 182.6,1.3496414723024817 182.7,1.3420773651734237 182.8,1.3345099466018786 182.9,1.3269392352597005 183.0,1.3193652498268662 183.1,1.3117880089914324 183.2,1.3042075314494852 183.3,1.2966238359051017 183.4,1.2890369410702986 183.5,1.2814468656649831 183.6,1.2738536284169113 183.7,1.2662572480616414 183.8,1.2586577433424866 183.9,1.25105513301047 184.0,1.2434494358242763 184.1,1.2358406705502052 184.2,1.2282288559621328 184.3,1.2206140108414507 184.4,1.212996153977037 184.5,1.2053753041651936 184.6,1.1977514802096099 184.7,1.1901247009213138 184.8,1.1824949851186253 184.9,1.1748623516271088 185.0,1.1672268192795276 185.1,1.1595884069158024 185.2,1.1519471333829543 185.3,1.1443030175350644 185.4,1.1366560782332324 185.5,1.1290063343455192 185.6,1.1213538047469072 185.7,1.1136985083192523 185.8,1.1060404639512336 185.9,1.0983796905383245 186.0,1.0907162069827139 186.1,1.083050032193287 186.2,1.0753811850855688 186.3,1.0677096845816747 186.4,1.060035549610274 186.5,1.0523587991065295 186.6,1.0446794520120601 186.7,1.0369975272748917 186.8,1.029313043849405 186.9,1.021626020696308 187.0,1.0139364767825616 187.1,1.0062444310813536 187.2,0.9985499025720375 187.3,0.9908529102400975 187.4,0.9831534730771014 187.5,0.9754516100806431 187.6,0.9677473402543034 187.7,0.9600406826076004 187.8,0.9523316561559482 187.9,0.9446202799206049 188.0,0.9369065729286229 188.1,0.9291905542128072 188.2,0.9214722428116672 188.3,0.9137516577693688 188.4,0.9060288181356884 188.5,0.8983037429659648 188.6,0.8905764513210511 188.7,0.8828469622672753 188.8,0.8751152948763794 188.9,0.8673814682254881 189.0,0.8596455013970479 189.1,0.8519074134787876 189.2,0.8441672235636705 189.3,0.8364249507498454 189.4,0.8286806141406006 189.5,0.820934232844315 189.6,0.8131858259744189 189.7,0.8054354126493335 189.8,0.7976830119924311 189.9,0.7899286431319942 190.0,0.7821723252011549 190.1,0.7744140773378566 190.2,0.7666539186848047 190.3,0.7588918683894192 190.4,0.7511279456037856 190.5,0.7433621694846158 190.6,0.7355945591931881 190.7,0.7278251338953091 190.8,0.7200539127612609 190.9,0.7122809149657636 191.0,0.7045061596879143 191.1,0.696729666111149 191.2,0.6889514534231923 191.3,0.6811715408160066 191.4,0.6733899474857616 191.5,0.6656066926327631 191.6,0.6578217954614142 191.7,0.6500352751801773 191.8,0.6422471510015147 191.9,0.6344574421418532 192.0,0.6266661678215226 192.1,0.6188733472647181 192.2,0.6110789996994475 192.3,0.6032831443574905 192.4,0.5954858004743477 192.5,0.5876869872891878 192.6,0.579886724044809 192.7,0.5720850299875814 192.8,0.5642819243674093 192.9,0.5564774264376847 193.0,0.5486715554552282 193.1,0.5408643306802483 193.2,0.5330557713763002 193.3,0.5252458968102237 193.4,0.5174347262521121 193.5,0.5096222789752501 193.6,0.501808574256075 193.7,0.4939936313741259 193.8,0.48617746961199804 193.9,0.4783601082552934 194.0,0.47054156659257174 194.1,0.4627218639153119 194.2,0.4549010195178507 194.3,0.447079052697342 194.4,0.43925598275371575 194.5,0.4314318289896173 194.6,0.4236066107103681 194.7,0.41578034722391644 194.8,0.4079530578407896 194.9,0.40012476187404367 195.0,0.3922954786392253 195.1,0.38446522745431033 195.2,0.3766340276396652 195.3,0.3688018985179947 195.4,0.36096885941430334 195.5,0.3531349296558342 195.6,0.3453001285720303 195.7,0.3374644754944844 195.8,0.32962798975688934 195.9,0.32179069069499916 196.0,0.3139525976465679 196.1,0.3061137299513111 196.2,0.2982741069508555 196.3,0.2904337479886894 196.4,0.2825926724101234 196.5,0.27475089956223003 196.6,0.2669084487938041 196.7,0.2590653394553112 196.8,0.2512215908988461 196.9,0.24337722247808086 197.0,0.23553225354821478 197.1,0.22768670346592446 197.2,0.21984059158932698 197.3,0.21199393727792126 197.4,0.2041467598925512 197.5,0.19629907879534475 197.6,0.18845091334967268 197.7,0.18060228292010747 197.8,0.17275320687236007 197.9,0.16490370457324988 198.0,0.15705379539064118 198.1,0.14920349869340466 198.2,0.14135283385136918 198.3,0.13350182023526322 198.4,0.12565047721668907 198.5,0.11779882416805071 198.6,0.10994688046252599 198.7,0.1020946654740032 198.8,0.09424219857704008 198.9,0.08638949914682252 199.0,0.07853658655910355 199.1,0.07068348019016432 199.2,0.06283019941676418 199.3,0.05497676361609274 199.4,0.04712319216571993 199.5,0.03926950444355706 199.6,0.03141571982779563 199.7,0.023561857696868478 199.8,0.01570793742939745 199.9,0.007853978404154516 200.0,6.123233995736766e-16 200.1,-0.007853978404153293 200.2,-0.015707937429396225 200.3,-0.023561857696867257 200.4,-0.03141571982779441 200.5,-0.03926950444355583 200.6,-0.04712319216571871 200.7,-0.054976763616089296 200.8,-0.06283019941676296 200.9,-0.0706834801901631 201.0,-0.07853658655910231 201.1,-0.08638949914682129 201.2,-0.09424219857704107 201.3,-0.10209466547400196 201.4,-0.10994688046252475 201.5,-0.11779882416804949 201.6,-0.12565047721668562 201.7,-0.13350182023525978 201.8,-0.14135283385136574 201.9,-0.14920349869340344 202.0,-0.15705379539063996 202.1,-0.16490370457325085 202.2,-0.1727532068723611 202.3,-0.18060228292010846 202.4,-0.18845091334967368 202.5,-0.1962990787953413 202.6,-0.20414675989254777 202.7,-0.21199393727791782 202.8,-0.21984059158932354 202.9,-0.22768670346592101 203.0,-0.23553225354821355 203.1,-0.24337722247808186 203.2,-0.2512215908988471 203.3,-0.2590653394553122 203.4,-0.2669084487938029 203.5,-0.27475089956222876 203.6,-0.2825926724101222 203.7,-0.2904337479886859 203.8,-0.29827410695085205 203.9,-0.3061137299513099 204.0,-0.31395259764656674 204.1,-0.32179069069499794 204.2,-0.3296279897568882 204.3,-0.3374644754944832 204.4,-0.3453001285720291 204.5,-0.35313492965583304 204.6,-0.3609688594143021 204.7,-0.3688018985179935 204.8,-0.37663402763966397 204.9,-0.38446522745430917 205.0,-0.3922954786392241 205.1,-0.4001247618740425 205.2,-0.40795305784078617 205.3,-0.41578034722391527 205.4,-0.42360661071036687 205.5,-0.431431828989616 205.6,-0.4392559827537146 205.7,-0.44707905269734294 205.8,-0.45490101951784945 205.9,-0.4627218639153107 206.0,-0.4705415665925705 206.1,-0.47836010825528996 206.2,-0.48617746961199465 206.3,-0.4939936313741247 206.4,-0.5018085742560736 206.5,-0.5096222789752489 206.6,-0.5174347262521131 206.7,-0.5252458968102246 206.8,-0.5330557713763012 206.9,-0.5408643306802471 207.0,-0.5486715554552248 207.1,-0.5564774264376814 207.2,-0.564281924367406 207.3,-0.572085029987578 207.4,-0.5798867240448056 207.5,-0.5876869872891887 207.6,-0.5954858004743486 207.7,-0.6032831443574914 207.8,-0.6110789996994483 207.9,-0.618873347264717 208.0,-0.6266661678215214 208.1,-0.6344574421418497 208.2,-0.6422471510015113 208.3,-0.6500352751801739 208.4,-0.6578217954614131 208.5,-0.6656066926327618 208.6,-0.6733899474857625 208.7,-0.6811715408160075 208.8,-0.6889514534231911 208.9,-0.6967296661111477 209.0,-0.7045061596879131 209.1,-0.7122809149657623 209.2,-0.7200539127612575 209.3,-0.7278251338953079 209.4,-0.735594559193187 209.5,-0.7433621694846146 209.6,-0.7511279456037844 209.7,-0.7588918683894158 209.8,-0.7666539186848036 209.9,-0.7744140773378554 210.0,-0.7821723252011537 210.1,-0.7899286431319931 210.2,-0.7976830119924322 210.3,-0.8054354126493323 210.4,-0.8131858259744176 210.5,-0.8209342328443138 210.6,-0.8286806141405972 210.7,-0.8364249507498418 210.8,-0.8441672235636692 210.9,-0.8519074134787865 211.0,-0.8596455013970467 211.1,-0.867381468225489 211.2,-0.8751152948763805 211.3,-0.8828469622672742 211.4,-0.8905764513210499 211.5,-0.8983037429659614 211.6,-0.906028818135685 211.7,-0.9137516577693655 211.8,-0.9214722428116661 211.9,-0.929190554212806 212.0,-0.9369065729286239 212.1,-0.9446202799206059 212.2,-0.9523316561559492 212.3,-0.9600406826076014 212.4,-0.9677473402543001 212.5,-0.9754516100806396 212.6,-0.9831534730770981 212.7,-0.9908529102400941 212.8,-0.9985499025720341 212.9,-1.0062444310813525 213.0,-1.0139364767825625 213.1,-1.0216260206963088 213.2,-1.029313043849406 213.3,-1.0369975272748904 213.4,-1.044679452012059 213.5,-1.0523587991065284 213.6,-1.0600355496102707 213.7,-1.0677096845816714 213.8,-1.0753811850855677 213.9,-1.0830500321932859 214.0,-1.0907162069827125 214.1,-1.0983796905383234 214.2,-1.1060404639512345 214.3,-1.1136985083192512 214.4,-1.121353804746906 214.5,-1.129006334345518 214.6,-1.1366560782332313 214.7,-1.1443030175350652 214.8,-1.1519471333829532 214.9,-1.1595884069158011 215.0,-1.1672268192795263 215.1,-1.1748623516271057 215.2,-1.182494985118622 215.3,-1.1901247009213127 215.4,-1.1977514802096088 215.5,-1.2053753041651925 215.6,-1.212996153977038 215.7,-1.2206140108414518 215.8,-1.2282288559621315 215.9,-1.2358406705502039 216.0,-1.243449435824273 216.1,-1.2510551330104667 216.2,-1.2586577433424835 216.3,-1.26625724806164 216.4,-1.27385362841691 216.5,-1.281446865664984 216.6,-1.2890369410702998 216.7,-1.2966238359051028 216.8,-1.304207531449484 216.9,-1.311788008991429 217.0,-1.3193652498268629 217.1,-1.326939235259697 217.2,-1.3345099466018753 217.3,-1.3420773651734221 217.4,-1.3496414723024825 217.5,-1.3572022493253715 217.6,-1.3647596775866262 217.7,-1.372313738439043 217.8,-1.3798644132437299 217.9,-1.387411683370141 218.0,-1.3949555301961445 218.1,-1.4024959351080453 218.2,-1.4100328795006443 218.3,-1.4175663447772846 218.4,-1.425096312349881 218.5,-1.4326227636389914 218.6,-1.4401456800738455 218.7,-1.4476650430923945 218.8,-1.45518083414136 218.9,-1.4626930346762703 219.0,-1.4702016261615194 219.1,-1.4777065900704025 219.2,-1.4852079078851712 219.3,-1.4927055610970716 219.4,-1.5001995312063812 219.5,-1.507689799722478 219.6,-1.515176348163869 219.7,-1.5226591580582403 219.8,-1.530138210942504 219.9,-1.5376134883628367 220.0,-1.5450849718747364 220.1,-1.5525526430430627 220.2,-1.5600164834420749 220.3,-1.5674764746554906 220.4,-1.5749325982765237 220.5,-1.5823848359079296 220.6,-1.5898331691620535 220.7,-1.597277579660873 220.8,-1.6047180490360473 220.9,-1.612154558928954 221.0,-1.6195870909907482 221.1,-1.6270156268823914 221.2,-1.6344401482747126 221.3,-1.6418606368484425 221.4,-1.6492770742942637 221.5,-1.6566894423128535 221.6,-1.6640977226149314 221.7,-1.6715018969213018 221.8,-1.6789019469629027 221.9,-1.686297854480844 222.0,-1.6936896012264575 222.1,-1.7010771689613446 222.2,-1.7084605394574162 222.3,-1.71583969449694 222.4,-1.723214615872584 222.5,-1.730585285387463 222.6,-1.737951684855183 222.7,-1.7453137960998852 222.8,-1.7526716009562961 222.9,-1.7600250812697555 223.0,-1.7673742188962858 223.1,-1.7747189957026204 223.2,-1.782059393566253 223.3,-1.7893953943754828 223.4,-1.7967269800294539 223.5,-1.804054132438207 223.6,-1.811376833522726 223.7,-1.818695065214972 223.8,-1.8260088094579396 223.9,-1.8333180482056843 224.0,-1.8406227634233896 224.1,-1.847922937087397 224.2,-1.855218551185254 224.3,-1.8625095877157596 224.4,-1.8697960286890023 224.5,-1.8770778561264148 224.6,-1.8843550520608106 224.7,-1.891627598536435 224.8,-1.898895477609006 224.9,-1.9061586713457448 225.0,-1.9134171618254483 225.1,-1.9206709311385117 225.2,-1.9279199613869813 225.3,-1.9351642346845968 225.4,-1.94240373315683 225.5,-1.9496384389409427 225.6,-1.956868334186013 225.7,-1.9640934010529951 225.8,-1.9713136217147547 225.9,-1.9785289783561155 226.0,-1.985739453173902 226.1,-1.9929450283769843 226.2,-2.000145686186322 226.3,-2.0073414088350097 226.4,-2.014532178568315 226.5,-2.0217179776437257 226.6,-2.0288987883310003 226.7,-2.0360745929122013 226.8,-2.043245373681745 226.9,-2.0504111129464415 227.0,-2.0575717930255424 227.1,-2.064727396250781 227.2,-2.071877904966418 227.3,-2.0790233015292885 227.4,-2.086163568308827 227.5,-2.093298687687141 227.6,-2.1004286420590312 227.7,-2.107553413832045 227.8,-2.114672985426515 227.9,-2.121787339275608 228.0,-2.1288964578253613 228.1,-2.1360003235347325 228.2,-2.143098918875639 228.3,-2.150192226333006 228.4,-2.1572802284047956 228.5,-2.1643629076020696 228.6,-2.1714402464490226 228.7,-2.178512227483024 228.8,-2.1855788332546653 228.9,-2.1926400463277957 229.0,-2.1996958492795735 229.1,-2.2067462247005105 229.2,-2.2137911551945044 229.3,-2.2208306233788937 229.4,-2.227864611884481 229.5,-2.2348931033556054 229.6,-2.24191608045016 229.7,-2.2489335258396497 229.8,-2.2559454222092254 229.9,-2.262951752257727 230.0,-2.2699524986977355 230.1,-2.2769476442556003 230.2,-2.283937171671494 230.3,-2.290921063699464 230.4,-2.297899303107439 230.5,-2.304871872677311 230.6,-2.3118387552049575 230.7,-2.318799933500289 230.8,-2.3257553903872914 230.9,-2.3327051087040647 231.0,-2.3396490713028677 231.1,-2.346587261050165 231.2,-2.353519660826663 231.3,-2.3604462535273543 231.4,-2.36736702206156 231.5,-2.3742819493529717 231.6,-2.381191018339694 231.7,-2.388094211974286 231.8,-2.3949915132238067 231.9,-2.4018829050698436 232.0,-2.408768370508577 232.1,-2.4156478925508043 232.2,-2.4225214542219895 232.3,-2.4293890385623023 232.4,-2.4362506286266603 232.5,-2.443106207484773 232.6,-2.449955758221181 232.7,-2.4567992639352982 232.8,-2.463636707741459 232.9,-2.4704680727689423 233.0,-2.477293342162038 233.1,-2.484112499080072 233.2,-2.4909255266974535 233.3,-2.4977324082037136 233.4,-2.504533126803548 233.5,-2.5113276657168604 233.6,-2.5181160081788017 233.7,-2.524898137439812 233.8,-2.531674036765663 233.9,-2.538443689437492 234.0,-2.545207078751856 234.1,-2.5519641880207655 234.2,-2.5587150005717234 234.3,-2.5654594997477744 234.4,-2.572197668907532 234.5,-2.5789294914252348 234.6,-2.5856549506907833 234.7,-2.592374030109773 234.8,-2.5990867131035476 234.9,-2.6057929831092213 235.0,-2.6124928235797436 235.1,-2.6191862179839243 235.2,-2.625873149806477 235.3,-2.632553602548065 235.4,-2.6392275597253336 235.5,-2.6458950048709537 235.6,-2.6525559215336707 235.7,-2.659210293278332 235.8,-2.665858103685943 235.9,-2.672499336353686 236.0,-2.6791339748949823 236.1,-2.68576200293952 236.2,-2.692383404133299 236.3,-2.6989981621386745 236.4,-2.7056062606343803 236.5,-2.7122076833155946 236.6,-2.718802413893963 236.7,-2.725390436097643 236.8,-2.731971733671345 236.9,-2.7385462903763713 237.0,-2.745114089990657 237.1,-2.75167511630881 237.2,-2.7582293531421493 237.3,-2.7647767843187503 237.4,-2.7713173936834714 237.5,-2.7778511650980113 237.6,-2.7843780824409397 237.7,-2.790898129607737 237.8,-2.797411290510834 237.9,-2.803917549079654 238.0,-2.8104168892606514 238.1,-2.8169092950173495 238.2,-2.823394750330383 238.3,-2.829873239197539 238.4,-2.8363447456337827 238.5,-2.8428092536713194 238.6,-2.8492667473596183 238.7,-2.8557172107654556 238.8,-2.862160627972955 238.9,-2.8685969830836204 239.0,-2.8750262602163907 239.1,-2.881448443507662 239.2,-2.8878635171113354 239.3,-2.894271465198858 239.4,-2.9006722719592473 239.5,-2.9070659215991523 239.6,-2.9134523983428795 239.7,-2.919831686432431 239.8,-2.9262037701275507 239.9,-2.932568633705752 240.0,-2.9389262614623632 240.1,-2.9452766377105775 240.2,-2.9516197467814713 240.3,-2.957955573024052 240.4,-2.964284100805296 240.5,-2.970605314510192 240.6,-2.976919198541774 240.7,-2.9832257373211597 240.8,-2.989524915287596 240.9,-2.9958167168984806 241.0,-3.0021011266294213 241.1,-3.008378128974262 241.2,-3.0146477084451218 241.3,-3.020909849572442 241.4,-3.0271645369050058 241.5,-3.033411755009997 241.6,-3.0396514884730252 241.7,-3.0458837218981687 241.8,-3.052108439908014 241.9,-3.0583256271436814 242.0,-3.064535268264883 242.1,-3.0707373479499465 242.2,-3.076931850895857 242.3,-3.0831187618182945 242.4,-3.0892980654516706 242.5,-3.0954697465491687 242.6,-3.1016337898827784 242.7,-3.1077901802433363 242.8,-3.1139389024405633 242.9,-3.1200799413030933 243.0,-3.1262132816785257 243.1,-3.132338908433454 243.2,-3.138456806453502 243.3,-3.1445669606433646 243.4,-3.150669355926844 243.5,-3.1567639772468867 243.6,-3.16285080956562 243.7,-3.1689298378643906 243.8,-3.175001047143804 243.9,-3.181064422423747 244.0,-3.1871199487434483 244.1,-3.193167611161498 244.2,-3.1992073947558914 244.3,-3.2052392846240627 244.4,-3.2112632658829203 244.5,-3.217279323668892 244.6,-3.2232874431379543 244.7,-3.2292876094656693 244.8,-3.235279807847222 244.9,-3.2412640234974566 245.0,-3.2472402416509176 245.1,-3.253208447561881 245.2,-3.259168626504392 245.3,-3.2651207637723054 245.4,-3.271064844679307 245.5,-3.277000854558971 245.6,-3.2829287787647807 245.7,-3.288848602670178 245.8,-3.2947603116685844 245.9,-3.3006638911734427 246.0,-3.3065593266182587 246.1,-3.3124466034566313 246.2,-3.3183257071622907 246.3,-3.3241966232291364 246.4,-3.330059337171259 246.5,-3.335913834522999 246.6,-3.3417601008389655 246.7,-3.3475981216940776 246.8,-3.3534278826835995 246.9,-3.3592493694231758 247.0,-3.3650625675488657 247.1,-3.3708674627171806 247.2,-3.37666404060512 247.3,-3.382452286910207 247.4,-3.3882321873505115 247.5,-3.394003727664709 247.6,-3.399766893612096 247.7,-3.4055216709726337 247.8,-3.411268045546981 247.9,-3.417006003156531 248.0,-3.422735529643442 248.1,-3.4284566108706778 248.2,-3.4341692327220392 248.3,-3.4398733811022026 248.4,-3.4455690419367424 248.5,-3.451256201172186 248.6,-3.4569348447760317 248.7,-3.462604958736792 248.8,-3.4682665290640236 248.9,-3.4739195417883657 249.0,-3.4795639829615697 249.1,-3.4851998386565395 249.2,-3.4908270949673623 249.3,-3.4964457380093417 249.4,-3.5020557539190316 249.5,-3.5076571288542784 249.6,-3.5132498489942456 249.7,-3.5188339005394518 249.8,-3.524409269711809 249.9,-3.5299759427546378 250.0,-3.5355339059327355 250.1,-3.5410831455323786 250.2,-3.5466236478613684 250.3,-3.5521553992490675 250.4,-3.557678386046426 250.5,-3.563192594626026 250.6,-3.5686980113821054 250.7,-3.5741946227305954 250.8,-3.5796824151091573 250.9,-3.585161374977202 251.0,-3.5906314888159447 251.1,-3.5960927431284215 251.2,-3.601545124439533 251.3,-3.6069886192960703 251.4,-3.6124232142667485 251.5,-3.6178488959422457 251.6,-3.623265650935232 251.7,-3.6286734658804027 251.8,-3.6340723274345157 251.9,-3.6394622222764097 252.0,-3.644843137107058 252.1,-3.650215058649589 252.2,-3.6555779736493204 252.3,-3.6609318688737917 252.4,-3.666276731112799 252.5,-3.6716125471784267 252.6,-3.6769393039050775 252.7,-3.6822569881495104 252.8,-3.6875655867908703 252.9,-3.692865086730712 253.0,-3.6981554748930483 253.1,-3.703436738224374 253.2,-3.7087088636936953 253.3,-3.7139718382925677 253.4,-3.719225649035124 253.5,-3.7244702829581087 253.6,-3.729705727120909 253.7,-3.734931968605588 253.8,-3.740148994516913 253.9,-3.74535679198239 254.0,-3.7505553481522975 254.1,-3.7557446501997154 254.2,-3.7609246853205565 254.3,-3.766095440733599 254.4,-3.7712569036805177 254.5,-3.776409061425916 254.6,-3.781551901257359 254.7,-3.786685410485397 254.8,-3.7918095764436077 254.9,-3.7969243864886244 255.0,-3.8020298280001557 255.1,-3.807125888381035 255.2,-3.8122125550572394 255.3,-3.817289815477926 255.4,-3.822357657115458 255.5,-3.82741606746544 255.6,-3.832465034046748 255.7,-3.8375045444015585 255.8,-3.8425345860953843 255.9,-3.8475551467170908 256.0,-3.852566213878947 256.1,-3.8575677752166424 256.2,-3.862559818389322 256.3,-3.867542331079616 256.4,-3.8725153009936686 256.5,-3.877478715861171 256.6,-3.882432563435392 256.7,-3.887376831493203 256.8,-3.892311507835118 256.9,-3.8972365802853055 257.0,-3.902152036691649 257.1,-3.907057864925741 257.2,-3.9119540528829404 257.3,-3.9168405884823896 257.4,-3.9217174596670494 257.5,-3.9265846544037237 257.6,-3.931442160683096 257.7,-3.9362899665197473 257.8,-3.941128059952201 257.9,-3.94595642904294 258.0,-3.950775061878452 258.1,-3.955583946569231 258.2,-3.9603830712498347 258.3,-3.9651724240789004 258.4,-3.9699519932391754 258.5,-3.974721766937552 258.6,-3.9794817334050805 258.7,-3.9842318808970205 258.8,-3.9889721976928554 258.9,-3.9937026720963247 259.0,-3.9984232924354526 259.1,-4.003134047062578 259.2,-4.007834924354382 259.3,-4.012525912711917 259.4,-4.017207000560637 259.5,-4.021878176350423 259.6,-4.02653942855561 259.7,-4.0311907456750244 259.8,-4.035832116232002 259.9,-4.040463528774422 260.0,-4.045084971874736 260.1,-4.049696434129993 260.2,-4.054297904161866 260.3,-4.05888937061669 260.4,-4.063470822165468 260.5,-4.068042247503936 260.6,-4.072603635352547 260.7,-4.077154974456534 260.8,-4.081696253585919 260.9,-4.0862274615355485 261.0,-4.090748587125116 261.1,-4.095259619199195 261.2,-4.099760546627261 261.3,-4.104251358303725 261.4,-4.10873204314795 261.5,-4.1132025901043 261.6,-4.117662988142137 261.7,-4.122113226255877 261.8,-4.1265532934649976 261.9,-4.130983178814075 262.0,-4.135402871372808 262.1,-4.139812360236046 262.2,-4.144211634523808 262.3,-4.14860068338133 262.4,-4.152979495979061 262.5,-4.157348061512726 262.6,-4.1617063692033165 262.7,-4.1660544082971445 262.8,-4.170392168065855 262.9,-4.174719637806458 263.0,-4.179036806841353 263.1,-4.18334366451835 263.2,-4.187640200210709 263.3,-4.191926403317155 263.4,-4.196202263261906 263.5,-4.2004677694947095 263.6,-4.204722911490845 263.7,-4.208967678751176 263.8,-4.2132020608021605 263.9,-4.2174260471958815 264.0,-4.2216396275100765 264.1,-4.225842791348148 264.2,-4.2300355283392115 264.3,-4.234217828138104 264.4,-4.238389680425416 264.5,-4.242551074907518 264.6,-4.246702001316582 264.7,-4.2508424494106105 264.8,-4.25497240897346 264.9,-4.259091869814861 265.0,-4.263200821770462 265.1,-4.2672992547018245 265.2,-4.271387158496475 265.3,-4.27546452306792 265.4,-4.279531338355665 265.5,-4.2835875943252475 265.6,-4.287633280968261 265.7,-4.291668388302374 265.8,-4.295692906371363 265.9,-4.299706825245123 266.0,-4.303710135019719 266.1,-4.307702825817373 266.2,-4.3116848877865195 266.3,-4.315656311101818 266.4,-4.319617085964175 266.5,-4.323567202600774 266.6,-4.327506651265097 266.7,-4.331435422236936 266.8,-4.335353505822451 266.9,-4.339260892354151 267.0,-4.3431575721909566 267.1,-4.347043535718191 267.2,-4.350918773347628 267.3,-4.354783275517504 267.4,-4.358637032692544 267.5,-4.362480035363987 267.6,-4.366312274049601 267.7,-4.3701337392937205 267.8,-4.3739444216672645 267.9,-4.377744311767745 268.0,-4.381533400219318 268.1,-4.38531167767278 268.2,-4.389079134805608 268.3,-4.392835762321977 268.4,-4.396581550952781 268.5,-4.400316491455661 268.6,-4.404040574615019 268.7,-4.407753791242052 268.8,-4.4114561321747665 268.9,-4.415147588278003 269.0,-4.418828150443467 269.1,-4.42249780958973 269.2,-4.426156556662276 269.3,-4.4298043826335105 269.4,-4.433441278502782 269.5,-4.437067235296417 269.6,-4.440682244067723 269.7,-4.444286295897028 269.8,-4.44787938189169 269.9,-4.4514614931861285 270.0,-4.455032620941839 270.1,-4.45859275634742 270.2,-4.462141890618589 270.3,-4.465680014998213 270.4,-4.469207120756318 270.5,-4.472723199190126 270.6,-4.476228241624058 270.7,-4.4797222394097735 270.8,-4.483205183926179 270.9,-4.486677066579456 271.0,-4.490137878803077 271.1,-4.493587612057837 271.2,-4.4970262578318545 271.3,-4.50045380764062 271.4,-4.503870253026989 271.5,-4.507275585561229 271.6,-4.5106697968410145 271.7,-4.514052878491468 271.8,-4.517424822165173 271.9,-4.5207856195421945 272.0,-4.524135262330099 272.1,-4.527473742263973 272.2,-4.530801051106447 272.3,-4.534117180647728 272.4,-4.537422122705584 272.5,-4.540715869125407 272.6,-4.5439984117802 272.7,-4.547269742570618 272.8,-4.550529853424978 272.9,-4.553778736299279 273.0,-4.557016383177227 273.1,-4.560242786070249 273.2,-4.563457937017513 273.3,-4.566661828085961 273.4,-4.569854451370304 273.5,-4.573035798993067 273.6,-4.576205863104588 273.7,-4.5793646358830475 273.8,-4.582512109534491 273.9,-4.585648276292835 274.0,-4.5887731284199065 274.1,-4.591886658205438 274.2,-4.594988857967107 274.3,-4.598079720050543 274.4,-4.60115923682935 274.5,-4.604227400705131 274.6,-4.607284204107492 274.7,-4.610329639494076 274.8,-4.613363699350575 274.9,-4.616386376190744 275.0,-4.619397662556434 275.1,-4.622397551017591 275.2,-4.6253860341722906 275.3,-4.628363104646746 275.4,-4.631328755095333 275.5,-4.634282978200604 275.6,-4.637225766673307 275.7,-4.640157113252402 275.8,-4.643077010705087 275.9,-4.6459854518268004 276.0,-4.648882429441257 276.1,-4.65176793640045 276.2,-4.654641965584679 276.3,-4.657504509902561 276.4,-4.660355562291054 276.5,-4.66319511571547 276.6,-4.666023163169494 276.7,-4.668839697675195 276.8,-4.671644712283061 276.9,-4.67443820007199 277.0,-4.677220154149337 277.1,-4.679990567650901 277.2,-4.682749433740962 277.3,-4.685496745612293 277.4,-4.688232496486178 277.5,-4.690956679612421 277.6,-4.693669288269371 277.7,-4.696370315763934 277.8,-4.699059755431599 277.9,-4.701737600636433 278.0,-4.704403844771127 278.1,-4.707058481256984 278.2,-4.709701503543952 278.3,-4.712332905110641 278.4,-4.7149526794643215 278.5,-4.717560820140968 278.6,-4.720157320705249 278.7,-4.722742174750557 278.8,-4.725315375899025 278.9,-4.727876917801529 279.0,-4.730426794137727 279.1,-4.732964998616046 279.2,-4.735491524973721 279.3,-4.738006366976801 279.4,-4.7405095184201596 279.5,-4.743000973127524 279.6,-4.745480724951474 279.7,-4.747948767773468 279.8,-4.750405095503859 279.9,-4.7528497020819 280.0,-4.755282581475767 280.1,-4.757703727682576 280.2,-4.760113134728383 280.3,-4.762510796668221 280.4,-4.764896707586093 280.5,-4.767270861595007 280.6,-4.769633252836968 280.7,-4.771983875483014 280.8,-4.774322723733214 280.9,-4.776649791816697 281.0,-4.77896507399165 281.1,-4.781268564545348 281.2,-4.783560257794152 281.3,-4.785840148083541 281.4,-4.78810822978811 281.5,-4.790364497311596 281.6,-4.792608945086879 281.7,-4.79484156757601 281.8,-4.797062359270214 281.9,-4.799271314689908 282.0,-4.801468428384715 282.1,-4.803653694933476 282.2,-4.805827108944259 282.3,-4.807988665054387 282.4,-4.810138357930429 282.5,-4.812276182268237 282.6,-4.814402132792938 282.7,-4.816516204258962 282.8,-4.81861839145005 282.9,-4.820708689179258 283.0,-4.822787092288991 283.1,-4.824853595650992 283.2,-4.826908194166369 283.3,-4.828950882765607 283.4,-4.830981656408573 283.5,-4.833000510084537 283.6,-4.835007438812175 283.7,-4.837002437639592 283.8,-4.838985501644328 283.9,-4.840956625933365 284.0,-4.842915805643156 284.1,-4.844863035939615 284.2,-4.846798312018147 284.3,-4.8487216291036495 284.4,-4.850632982450528 284.5,-4.852532367342713 284.6,-4.854419779093655 284.7,-4.856295213046356 284.8,-4.85815866457337 284.9,-4.860010129076812 285.0,-4.861849601988383 285.1,-4.863677078769363 285.2,-4.865492554910633 285.3,-4.8672960259326885 285.4,-4.869087487385644 285.5,-4.870866934849246 285.6,-4.872634363932886 285.7,-4.874389770275606 285.8,-4.876133149546117 285.9,-4.877864497442803 286.0,-4.879583809693737 286.1,-4.881291082056685 286.2,-4.882986310319123 286.3,-4.8846694902982435 286.4,-4.8863406178409665 286.5,-4.887999688823953 286.6,-4.88964669915361 286.7,-4.891281644766099 286.8,-4.892904521627361 286.9,-4.894515325733103 287.0,-4.896114053108828 287.1,-4.897700699809837 287.2,-4.899275261921234 287.3,-4.900837735557946 287.4,-4.902388116864722 287.5,-4.903926402016151 287.6,-4.905452587216671 287.7,-4.906966668700566 287.8,-4.908468642731995 287.9,-4.909958505604982 288.0,-4.911436253643443 288.1,-4.9129018832011795 288.2,-4.914355390661896 288.3,-4.915796772439208 288.4,-4.917226024976648 288.5,-4.91864314474768 288.6,-4.920048128255699 288.7,-4.921440972034048 288.8,-4.922821672646027 288.9,-4.924190226684891 289.0,-4.925546630773869 289.1,-4.926890881566171 289.2,-4.92822297574499 289.3,-4.9295429100235175 289.4,-4.9308506811449435 289.5,-4.932146285882478 289.6,-4.9334297210393405 289.7,-4.934700983448784 289.8,-4.9359600699740955 289.9,-4.937206977508604 290.0,-4.938441702975688 290.1,-4.939664243328787 290.2,-4.940874595551402 290.3,-4.942072756657112 290.4,-4.94325872368957 290.5,-4.944432493722523 290.6,-4.945594063859809 290.7,-4.94674343123537 290.8,-4.947880593013255 290.9,-4.949005546387631 291.0,-4.950118288582788 291.1,-4.951218816853144 291.2,-4.952307128483256 291.3,-4.953383220787823 291.4,-4.9544470911116925 291.5,-4.955498736829874 291.6,-4.956538155347533 291.7,-4.957565344100009 291.8,-4.958580300552814 291.9,-4.959583022201646 292.0,-4.960573506572389 292.1,-4.961551751221121 292.2,-4.962517753734118 292.3,-4.963471511727869 292.4,-4.964413022849068 292.5,-4.965342284774631 292.6,-4.966259295211697 292.7,-4.967164051897633 292.8,-4.968056552600043 292.9,-4.968936795116767 293.0,-4.969804777275898 293.1,-4.970660496935776 293.2,-4.971503951984994 293.3,-4.972335140342415 293.4,-4.973154059957161 293.5,-4.973960708808632 293.6,-4.974755084906501 293.7,-4.9755371862907225 293.8,-4.976307011031542 293.9,-4.9770645572294905 294.0,-4.9778098230154 294.1,-4.978542806550401 294.2,-4.979263506025928 294.3,-4.979971919663729 294.4,-4.980668045715862 294.5,-4.981351882464706 294.6,-4.982023428222963 294.7,-4.982682681333657 294.8,-4.983329640170149 294.9,-4.983964303136133 295.0,-4.9845866686656395 295.1,-4.985196735223045 295.2,-4.98579450130307 295.3,-4.986379965430785 295.4,-4.986953126161618 295.5,-4.98751398208135 295.6,-4.9880625318061265 295.7,-4.988598773982453 295.8,-4.9891227072872075 295.9,-4.989634330427635 296.0,-4.990133642141358 296.1,-4.990620641196372 296.2,-4.991095326391059 296.3,-4.991557696554177 296.4,-4.992007750544875 296.5,-4.99244548725269 296.6,-4.992870905597549 296.7,-4.993284004529775 296.8,-4.993684783030087 296.9,-4.994073240109605 297.0,-4.99444937480985 297.1,-4.994813186202745 297.2,-4.995164673390623 297.3,-4.9955038355062245 297.4,-4.9958306717127 297.5,-4.996145181203614 297.6,-4.996447363202947 297.7,-4.996737216965092 297.8,-4.997014741774865 297.9,-4.997279936947501 298.0,-4.997532801828658 298.1,-4.997773335794417 298.2,-4.998001538251283 298.3,-4.99821740863619 298.4,-4.9984209464165 298.5,-4.998612151090002 298.6,-4.99879102218492 298.7,-4.998957559259906 298.8,-4.999111761904045 298.9,-4.999253629736859 299.0,-4.999383162408303 299.1,-4.999500359598768 299.2,-4.99960522101908 299.3,-4.999697746410507 299.4,-4.999777935544749 299.5,-4.999845788223948 299.6,-4.9999013042806855 299.7,-4.99994448357798 299.8,-4.999975326009291 299.9,-4.999993831498518 300.0,-5.0 300.1,-4.999993831498518 300.2,-4.999975326009291 300.3,-4.99994448357798 300.4,-4.9999013042806855 300.5,-4.999845788223948 300.6,-4.999777935544749 300.7,-4.999697746410507 300.8,-4.99960522101908 300.9,-4.999500359598768 301.0,-4.999383162408303 301.1,-4.999253629736859 301.2,-4.999111761904045 301.3,-4.998957559259906 301.4,-4.99879102218492 301.5,-4.998612151090002 301.6,-4.9984209464165 301.7,-4.99821740863619 301.8,-4.998001538251283 301.9,-4.997773335794417 302.0,-4.997532801828658 302.1,-4.997279936947501 302.2,-4.997014741774865 302.3,-4.996737216965092 302.4,-4.996447363202947 302.5,-4.996145181203614 302.6,-4.9958306717127 302.7,-4.9955038355062245 302.8,-4.995164673390623 302.9,-4.994813186202745 303.0,-4.99444937480985 303.1,-4.994073240109605 303.2,-4.993684783030088 303.3,-4.993284004529775 303.4,-4.992870905597549 303.5,-4.99244548725269 303.6,-4.992007750544875 303.7,-4.991557696554177 303.8,-4.991095326391059 303.9,-4.990620641196373 304.0,-4.990133642141358 304.1,-4.989634330427635 304.2,-4.9891227072872075 304.3,-4.988598773982453 304.4,-4.9880625318061265 304.5,-4.987513982081351 304.6,-4.986953126161618 304.7,-4.986379965430785 304.8,-4.98579450130307 304.9,-4.985196735223045 305.0,-4.9845866686656395 305.1,-4.983964303136133 305.2,-4.98332964017015 305.3,-4.982682681333657 305.4,-4.982023428222963 305.5,-4.981351882464706 305.6,-4.980668045715862 305.7,-4.979971919663729 305.8,-4.979263506025928 305.9,-4.978542806550401 306.0,-4.9778098230154 306.1,-4.9770645572294905 306.2,-4.976307011031541 306.3,-4.975537186290723 306.4,-4.974755084906501 306.5,-4.973960708808632 306.6,-4.973154059957162 306.7,-4.972335140342415 306.8,-4.971503951984994 306.9,-4.970660496935776 307.0,-4.969804777275899 307.1,-4.9689367951167664 307.2,-4.968056552600042 307.3,-4.967164051897633 307.4,-4.966259295211698 307.5,-4.965342284774631 307.6,-4.964413022849068 307.7,-4.963471511727869 307.8,-4.962517753734119 307.9,-4.961551751221121 308.0,-4.9605735065723895 308.1,-4.959583022201646 308.2,-4.958580300552814 308.3,-4.957565344100008 308.4,-4.956538155347533 308.5,-4.955498736829874 308.6,-4.954447091111693 308.7,-4.953383220787823 308.8,-4.952307128483256 308.9,-4.951218816853144 309.0,-4.950118288582788 309.1,-4.949005546387631 309.2,-4.947880593013255 309.3,-4.946743431235369 309.4,-4.94559406385981 309.5,-4.944432493722522 309.6,-4.94325872368957 309.7,-4.942072756657112 309.8,-4.940874595551403 309.9,-4.939664243328788 310.0,-4.938441702975689 310.1,-4.937206977508604 310.2,-4.935960069974096 310.3,-4.934700983448784 310.4,-4.9334297210393405 310.5,-4.932146285882477 310.6,-4.930850681144944 310.7,-4.929542910023517 310.8,-4.9282229757449905 310.9,-4.926890881566172 311.0,-4.92554663077387 311.1,-4.924190226684891 311.2,-4.922821672646027 311.3,-4.921440972034048 311.4,-4.920048128255699 311.5,-4.918643144747679 311.6,-4.917226024976649 311.7,-4.915796772439208 311.8,-4.914355390661896 311.9,-4.91290188320118 312.0,-4.911436253643443 312.1,-4.909958505604982 312.2,-4.908468642731995 312.3,-4.906966668700566 312.4,-4.905452587216671 312.5,-4.903926402016152 312.6,-4.902388116864721 312.7,-4.900837735557946 312.8,-4.899275261921235 312.9,-4.897700699809837 313.0,-4.896114053108829 313.1,-4.894515325733103 313.2,-4.8929045216273614 313.3,-4.8912816447661 313.4,-4.88964669915361 313.5,-4.887999688823953 313.6,-4.8863406178409665 313.7,-4.8846694902982435 313.8,-4.882986310319122 313.9,-4.881291082056686 314.0,-4.879583809693738 314.1,-4.877864497442803 314.2,-4.876133149546118 314.3,-4.874389770275606 314.4,-4.872634363932887 314.5,-4.870866934849246 314.6,-4.869087487385643 314.7,-4.867296025932689 314.8,-4.865492554910632 314.9,-4.863677078769363 315.0,-4.861849601988383 315.1,-4.860010129076813 315.2,-4.85815866457337 315.3,-4.856295213046357 315.4,-4.854419779093656 315.5,-4.852532367342713 315.6,-4.850632982450528 315.7,-4.8487216291036495 315.8,-4.846798312018146 315.9,-4.844863035939616 316.0,-4.842915805643155 316.1,-4.840956625933366 316.2,-4.838985501644327 316.3,-4.837002437639592 316.4,-4.835007438812177 316.5,-4.833000510084537 316.6,-4.830981656408573 316.7,-4.828950882765608 316.8,-4.826908194166369 316.9,-4.824853595650993 317.0,-4.822787092288991 317.1,-4.820708689179258 317.2,-4.818618391450048 317.3,-4.816516204258963 317.4,-4.814402132792938 317.5,-4.812276182268237 317.6,-4.810138357930429 317.7,-4.807988665054387 317.8,-4.80582710894426 317.9,-4.803653694933477 318.0,-4.801468428384715 318.1,-4.799271314689907 318.2,-4.797062359270214 318.3,-4.794841567576011 318.4,-4.792608945086879 318.5,-4.790364497311597 318.6,-4.788108229788111 318.7,-4.785840148083542 318.8,-4.783560257794152 318.9,-4.781268564545348 319.0,-4.7789650739916505 319.1,-4.776649791816697 319.2,-4.774322723733215 319.3,-4.771983875483013 319.4,-4.769633252836968 319.5,-4.767270861595007 319.6,-4.764896707586094 319.7,-4.762510796668222 319.8,-4.760113134728384 319.9,-4.757703727682577 320.0,-4.755282581475768 320.1,-4.752849702081899 320.2,-4.750405095503859 320.3,-4.747948767773468 320.4,-4.745480724951474 320.5,-4.743000973127523 320.6,-4.74050951842016 320.7,-4.738006366976802 320.8,-4.735491524973722 320.9,-4.732964998616048 321.0,-4.730426794137727 321.1,-4.727876917801529 321.2,-4.725315375899025 321.3,-4.722742174750557 321.4,-4.72015732070525 321.5,-4.717560820140967 321.6,-4.714952679464322 321.7,-4.71233290511064 321.8,-4.709701503543953 321.9,-4.707058481256986 322.0,-4.704403844771128 322.1,-4.701737600636434 322.2,-4.699059755431599 322.3,-4.696370315763935 322.4,-4.693669288269372 322.5,-4.6909566796124205 322.6,-4.688232496486179 322.7,-4.685496745612294 322.8,-4.682749433740962 322.9,-4.679990567650901 323.0,-4.677220154149337 323.1,-4.674438200071991 323.2,-4.6716447122830616 323.3,-4.668839697675196 323.4,-4.666023163169494 323.5,-4.663195115715471 323.6,-4.660355562291054 323.7,-4.657504509902562 323.8,-4.65464196558468 323.9,-4.651767936400451 324.0,-4.648882429441258 324.1,-4.6459854518268004 324.2,-4.643077010705088 324.3,-4.640157113252402 324.4,-4.637225766673309 324.5,-4.634282978200605 324.6,-4.631328755095332 324.7,-4.628363104646747 324.8,-4.62538603417229 324.9,-4.622397551017592 325.0,-4.619397662556435 325.1,-4.616386376190745 325.2,-4.613363699350575 325.3,-4.6103296394940765 325.4,-4.607284204107494 325.5,-4.604227400705131 325.6,-4.601159236829351 325.7,-4.598079720050544 325.8,-4.594988857967106 325.9,-4.591886658205439 326.0,-4.588773128419907 326.1,-4.585648276292834 326.2,-4.582512109534492 326.3,-4.579364635883047 326.4,-4.57620586310459 326.5,-4.573035798993067 326.6,-4.569854451370305 326.7,-4.5666618280859606 326.8,-4.563457937017514 326.9,-4.560242786070249 327.0,-4.557016383177226 327.1,-4.55377873629928 327.2,-4.550529853424979 327.3,-4.547269742570619 327.4,-4.543998411780201 327.5,-4.540715869125408 327.6,-4.5374221227055855 327.7,-4.534117180647728 327.8,-4.530801051106451 327.9,-4.5274737422639735 328.0,-4.524135262330099 328.1,-4.520785619542194 328.2,-4.517424822165176 328.3,-4.5140528784914675 328.4,-4.510669796841017 328.5,-4.507275585561228 328.6,-4.50387025302699 328.7,-4.5004538076406195 328.8,-4.4970262578318545 328.9,-4.493587612057836 329.0,-4.490137878803078 329.1,-4.486677066579457 329.2,-4.48320518392618 329.3,-4.479722239409774 329.4,-4.476228241624059 329.5,-4.472723199190127 329.6,-4.469207120756317 329.7,-4.465680014998215 329.8,-4.462141890618588 329.9,-4.458592756347422 330.0,-4.455032620941842 330.1,-4.451461493186127 330.2,-4.447879381891693 330.3,-4.444286295897026 330.4,-4.440682244067724 330.5,-4.437067235296416 330.6,-4.433441278502782 330.7,-4.42980438263351 330.8,-4.426156556662276 330.9,-4.422497809589731 331.0,-4.418828150443468 331.1,-4.415147588278006 331.2,-4.411456132174767 331.3,-4.407753791242053 331.4,-4.40404057461502 331.5,-4.400316491455661 331.6,-4.396581550952779 331.7,-4.39283576232198 331.8,-4.389079134805607 331.9,-4.385311677672783 332.0,-4.3815334002193165 332.1,-4.377744311767745 332.2,-4.373944421667263 332.3,-4.370133739293721 332.4,-4.366312274049602 332.5,-4.362480035363985 332.6,-4.3586370326925445 332.7,-4.354783275517505 332.8,-4.350918773347629 332.9,-4.347043535718192 333.0,-4.343157572190957 333.1,-4.3392608923541545 333.2,-4.335353505822452 333.3,-4.331435422236939 333.4,-4.3275066512650975 333.5,-4.323567202600778 333.6,-4.3196170859641745 333.7,-4.315656311101821 333.8,-4.311684887786519 333.9,-4.3077028258173735 334.0,-4.303710135019717 334.1,-4.299706825245125 334.2,-4.295692906371362 334.3,-4.291668388302375 334.4,-4.287633280968262 334.5,-4.283587594325249 334.6,-4.279531338355666 334.7,-4.275464523067921 334.8,-4.271387158496477 334.9,-4.267299254701825 335.0,-4.263200821770463 335.1,-4.25909186981486 335.2,-4.254972408973462 335.3,-4.250842449410609 335.4,-4.246702001316586 335.5,-4.242551074907521 335.6,-4.238389680425414 335.7,-4.234217828138105 335.8,-4.23003552833921 335.9,-4.22584279134815 336.0,-4.221639627510075 336.1,-4.217426047195883 336.2,-4.213202060802161 336.3,-4.208967678751177 336.4,-4.204722911490847 336.5,-4.20046776949471 336.6,-4.19620226326191 336.7,-4.191926403317156 336.8,-4.18764020021071 336.9,-4.183343664518351 337.0,-4.179036806841354 337.1,-4.174719637806456 337.2,-4.170392168065859 337.3,-4.166054408297144 337.4,-4.161706369203321 337.5,-4.157348061512725 337.6,-4.1529794959790625 337.7,-4.1486006833813285 337.8,-4.144211634523809 337.9,-4.139812360236047 338.0,-4.1354028713728095 338.1,-4.130983178814076 338.2,-4.126553293464998 338.3,-4.122113226255878 338.4,-4.117662988142138 338.5,-4.113202590104301 338.6,-4.108732043147953 338.7,-4.104251358303726 338.8,-4.099760546627264 338.9,-4.095259619199198 339.0,-4.09074858712512 339.1,-4.086227461535547 339.2,-4.081696253585923 339.3,-4.0771549744565325 339.4,-4.072603635352548 339.5,-4.068042247503934 339.6,-4.063470822165469 339.7,-4.058889370616688 339.8,-4.054297904161867 339.9,-4.049696434129994 340.0,-4.045084971874738 340.1,-4.040463528774423 340.2,-4.035832116232003 340.3,-4.031190745675025 340.4,-4.026539428555612 340.5,-4.021878176350425 340.6,-4.017207000560635 340.7,-4.012525912711921 340.8,-4.0078349243543805 340.9,-4.003134047062582 341.0,-3.998423292435456 341.1,-3.9937026720963233 341.2,-3.9889721976928567 341.3,-3.9842318808970187 341.4,-3.9794817334050814 341.5,-3.97472176693755 341.6,-3.969951993239177 341.7,-3.965172424078901 341.8,-3.9603830712498356 341.9,-3.955583946569232 342.0,-3.950775061878453 342.1,-3.945956429042944 342.2,-3.941128059952202 342.3,-3.936289966519748 342.4,-3.9314421606830967 342.5,-3.9265846544037277 342.6,-3.9217174596670477 342.7,-3.9168405884823936 342.8,-3.9119540528829386 342.9,-3.907057864925742 343.0,-3.902152036691647 343.1,-3.8972365802853064 343.2,-3.892311507835116 343.3,-3.887376831493204 343.4,-3.882432563435396 343.5,-3.877478715861172 343.6,-3.87251530099367 343.7,-3.867542331079617 343.8,-3.8625598183893235 343.9,-3.8575677752166437 344.0,-3.852566213878948 344.1,-3.847555146717092 344.2,-3.8425345860953852 344.3,-3.837504544401563 344.4,-3.8324650340467525 344.5,-3.827416067465444 344.6,-3.822357657115456 344.7,-3.8172898154779267 344.8,-3.8122125550572377 344.9,-3.807125888381036 345.0,-3.802029828000154 345.1,-3.7969243864886226 345.2,-3.791809576443609 345.3,-3.786685410485398 345.4,-3.78155190125736 345.5,-3.7764090614259187 345.6,-3.77125690368052 345.7,-3.766095440733601 345.8,-3.760924685320559 345.9,-3.7557446501997176 346.0,-3.7505553481523 346.1,-3.7453567919823865 346.2,-3.740148994516916 346.3,-3.734931968605586 346.4,-3.7297057271209146 346.5,-3.7244702829581118 346.6,-3.719225649035124 346.7,-3.713971838292571 346.8,-3.708708863693695 346.9,-3.7034367382243767 347.0,-3.6981554748930483 347.1,-3.692865086730712 347.2,-3.6875655867908703 347.3,-3.682256988149513 347.4,-3.67693930390508 347.5,-3.671612547178429 347.6,-3.666276731112802 347.7,-3.660931868873795 347.8,-3.655577973649323 347.9,-3.650215058649592 348.0,-3.6448431371070606 348.1,-3.6394622222764057 348.2,-3.6340723274345175 348.3,-3.628673465880402 348.4,-3.6232656509352346 348.5,-3.6178488959422457 348.6,-3.612423214266748 348.7,-3.6069886192960703 348.8,-3.601545124439534 348.9,-3.5960927431284255 349.0,-3.5906314888159447 349.1,-3.585161374977202 349.2,-3.579682415109157 349.3,-3.574194622730598 349.4,-3.568698011382108 349.5,-3.563192594626029 349.6,-3.557678386046423 349.7,-3.55215539924907 349.8,-3.546623647861373 349.9,-3.541083145532383 350.0,-3.5355339059327417 350.1,-3.5299759427546373 350.2,-3.5244092697118083 350.3,-3.5188339005394513 350.4,-3.5132498489942483 350.5,-3.507657128854278 350.6,-3.502055753919031 350.7,-3.496445738009341 350.8,-3.4908270949673637 350.9,-3.4851998386565426 351.0,-3.4795639829615728 351.1,-3.4739195417883684 351.2,-3.468266529064027 351.3,-3.4626049587367946 351.4,-3.4569348447760344 351.5,-3.4512562011721886 351.6,-3.4455690419367393 351.7,-3.4398733811022053 351.8,-3.434169232722039 351.9,-3.4284566108706804 352.0,-3.422735529643445 352.1,-3.4170060031565304 352.2,-3.4112680455469846 352.3,-3.4055216709726333 352.4,-3.399766893612099 352.5,-3.3940037276647086 352.6,-3.3882321873505115 352.7,-3.382452286910207 352.8,-3.3766640406051236 352.9,-3.370867462717184 353.0,-3.365062567548869 353.1,-3.3592493694231784 353.2,-3.3534278826836026 353.3,-3.347598121694081 353.4,-3.3417601008389686 353.5,-3.3359138345230024 353.6,-3.3300593371712557 353.7,-3.324196623229136 353.8,-3.3183257071622907 353.9,-3.3124466034566344 354.0,-3.306559326618258 354.1,-3.300663891173442 354.2,-3.2947603116685844 354.3,-3.2888486026701798 354.4,-3.282928778764786 354.5,-3.2770008545589704 354.6,-3.271064844679306 354.7,-3.265120763772305 354.8,-3.2591686265043958 354.9,-3.2532084475618843 355.0,-3.2472402416509203 355.1,-3.2412640234974526 355.2,-3.235279807847225 355.3,-3.229287609465674 355.4,-3.223287443137961 355.5,-3.2172793236688957 355.6,-3.21126326588292 355.7,-3.2052392846240645 355.8,-3.1992073947558906 355.9,-3.1931676111615017 356.0,-3.1871199487434483 356.1,-3.1810644224237468 356.2,-3.1750010471438035 356.3,-3.1689298378643938 356.4,-3.162850809565623 356.5,-3.15676397724689 356.6,-3.1506693559268473 356.7,-3.1445669606433677 356.8,-3.138456806453505 356.9,-3.1323389084334567 357.0,-3.1262132816785293 357.1,-3.1200799413030893 357.2,-3.113938902440567 357.3,-3.1077901802433354 357.4,-3.101633789882782 357.5,-3.0954697465491683 357.6,-3.0892980654516706 357.7,-3.0831187618182976 357.8,-3.076931850895857 357.9,-3.07073734794995 358.0,-3.0645352682648825 358.1,-3.058325627143681 358.2,-3.0521084399080136 358.3,-3.0458837218981722 358.4,-3.0396514884730284 358.5,-3.0334117550100004 358.6,-3.0271645369050093 358.7,-3.020909849572445 358.8,-3.0146477084451266 358.9,-3.008378128974265 359.0,-3.0021011266294244 359.1,-2.995816716898476 359.2,-2.989524915287596 359.3,-2.983225737321159 359.4,-2.9769191985417764 359.5,-2.970605314510191 359.6,-2.964284100805296 359.7,-2.9579555730240514 359.8,-2.951619746781473 359.9,-2.945276637710581 360.0,-2.938926261462367 360.1,-2.932568633705752 360.2,-2.926203770127552 360.3,-2.9198316864324347 360.4,-2.9134523983428826 360.5,-2.9070659215991554 360.6,-2.9006722719592433 360.7,-2.894271465198861 360.8,-2.887863517111342 360.9,-2.8814484435076655 361.0,-2.875026260216394 361.1,-2.86859698308362 361.2,-2.8621606279729566 361.3,-2.855717210765455 361.4,-2.849266747359622 361.5,-2.8428092536713194 361.6,-2.8363447456337827 361.7,-2.8298732391975383 361.8,-2.8233947503303862 361.9,-2.816909295017353 362.0,-2.8104168892606545 362.1,-2.8039175490796575 362.2,-2.797411290510837 362.3,-2.79089812960774 362.4,-2.784378082440943 362.5,-2.777851165098015 362.6,-2.7713173936834674 362.7,-2.76477678431875 362.8,-2.7582293531421485 362.9,-2.7516751163088133 363.0,-2.7451140899906568 363.1,-2.7385462903763713 363.2,-2.7319717336713483 363.3,-2.7253904360976424 363.4,-2.718802413893966 363.5,-2.7122076833155937 363.6,-2.7056062606343803 363.7,-2.6989981621386736 363.8,-2.692383404133303 363.9,-2.6857620029395237 364.0,-2.6791339748949854 364.1,-2.67249933635369 364.2,-2.665858103685946 364.3,-2.6592102932783375 364.4,-2.6525559215336743 364.5,-2.6458950048709537 364.6,-2.6392275597253296 364.7,-2.6325536025480667 364.8,-2.625873149806477 364.9,-2.619186217983928 365.0,-2.6124928235797436 365.1,-2.6057929831092213 365.2,-2.599086713103547 365.3,-2.5923740301097764 365.4,-2.5856549506907864 365.5,-2.5789294914252388 365.6,-2.572197668907534 365.7,-2.5654594997477758 365.8,-2.558715000571727 365.9,-2.5519641880207686 366.0,-2.5452070787518597 366.1,-2.538443689437488 366.2,-2.531674036765667 366.3,-2.524898137439815 366.4,-2.518116008178805 366.5,-2.5113276657168644 366.6,-2.5045331268035476 366.7,-2.4977324082037167 366.8,-2.490925526697453 366.9,-2.484112499080076 367.0,-2.4772933421620373 367.1,-2.470468072768942 367.2,-2.4636367077414585 367.3,-2.456799263935302 367.4,-2.4499557582211846 367.5,-2.4431062074847767 367.6,-2.436250628626664 367.7,-2.429389038562306 367.8,-2.422521454221993 367.9,-2.415647892550808 368.0,-2.4087683705085805 368.1,-2.4018829050698396 368.2,-2.394991513223806 368.3,-2.3880942119742854 368.4,-2.3811910183396976 368.5,-2.3742819493529717 368.6,-2.3673670220615595 368.7,-2.360446253527358 368.8,-2.3535196608266626 368.9,-2.3465872610501686 369.0,-2.3396490713028677 369.1,-2.3327051087040647 369.2,-2.325755390387293 369.3,-2.3187999335002925 369.4,-2.3118387552049615 369.5,-2.3048718726773147 369.6,-2.2978993031074424 369.7,-2.2909210636994675 369.8,-2.2839371716715013 369.9,-2.2769476442556 370.0,-2.2699524986977346 370.1,-2.2629517522577247 370.2,-2.2559454222092272 370.3,-2.2489335258396492 370.4,-2.241916080450164 370.5,-2.2348931033556045 370.6,-2.227864611884481 370.7,-2.2208306233788933 370.8,-2.2137911551945084 370.9,-2.206746224700514 371.0,-2.199695849279577 371.1,-2.1926400463277975 371.2,-2.185578833254667 371.3,-2.1785122274830275 371.4,-2.171440246449026 371.5,-2.1643629076020736 371.6,-2.157280228404791 371.7,-2.1501922263330058 371.8,-2.143098918875643 371.9,-2.1360003235347365 372.0,-2.128896457825365 372.1,-2.1217873392756075 372.2,-2.1146729854265187 372.3,-2.1075534138320444 372.4,-2.100428642059035 372.5,-2.0932986876871404 372.6,-2.086163568308827 372.7,-2.079023301529288 372.8,-2.071877904966422 372.9,-2.064727396250785 373.0,-2.057571793025546 373.1,-2.0504111129464455 373.2,-2.0432453736817484 373.3,-2.0360745929122053 373.4,-2.028898788331004 373.5,-2.0217179776437257 373.6,-2.0145321785683103 373.7,-2.007341408835011 373.8,-2.0001456861863214 373.9,-1.992945028376988 374.0,-1.9857394531739017 374.1,-1.9785289783561153 374.2,-1.9713136217147587 374.3,-1.964093401052995 374.4,-1.9568683341860167 374.5,-1.949638438940942 374.6,-1.9424037331568318 374.7,-1.9351642346845985 374.8,-1.9279199613869848 374.9,-1.9206709311385155 375.0,-1.913417161825452 375.1,-1.9061586713457488 375.2,-1.8988954776090095 375.3,-1.8916275985364388 375.4,-1.884355052060814 375.5,-1.8770778561264168 375.6,-1.8697960286889996 375.7,-1.8625095877157614 375.8,-1.8552185511852537 375.9,-1.8479229370874009 376.0,-1.8406227634233894 376.1,-1.8333180482056837 376.2,-1.8260088094579394 376.3,-1.8186950652149756 376.4,-1.8113768335227296 376.5,-1.8040541324382107 376.6,-1.7967269800294554 376.7,-1.7893953943754846 376.8,-1.7820593935662565 376.9,-1.7747189957026244 377.0,-1.7673742188962895 377.1,-1.760025081269751 377.2,-1.752671600956296 377.3,-1.745313796099889 377.4,-1.7379516848551868 377.5,-1.730585285387467 377.6,-1.7232146158725836 377.7,-1.7158396944969436 377.8,-1.708460539457416 377.9,-1.7010771689613482 378.0,-1.693689601226457 378.1,-1.6862978544808438 378.2,-1.6789019469629043 378.3,-1.6715018969213056 378.4,-1.6640977226149354 378.5,-1.6566894423128575 378.6,-1.6492770742942675 378.7,-1.6418606368484463 378.8,-1.6344401482747164 378.9,-1.6270156268823912 379.0,-1.619587090990748 379.1,-1.6121545589289514 379.2,-1.604718049036049 379.3,-1.5972775796608727 379.4,-1.5898331691620573 379.5,-1.5823848359079293 379.6,-1.5749325982765234 379.7,-1.5674764746554946 379.8,-1.5600164834420744 379.9,-1.5525526430430667 380.0,-1.5450849718747381 380.1,-1.5376134883628385 380.2,-1.5301382109425057 380.3,-1.5226591580582438 380.4,-1.5151763481638727 380.5,-1.507689799722482 380.6,-1.5001995312063852 380.7,-1.4927055610970714 380.8,-1.4852079078851752 380.9,-1.4777065900704065 381.0,-1.4702016261615214 381.1,-1.4626930346762679 381.2,-1.4551808341413617 381.3,-1.447665043092394 381.4,-1.4401456800738495 381.5,-1.4326227636389912 381.6,-1.4250963123498808 381.7,-1.4175663447772844 381.8,-1.410032879500648 381.9,-1.402495935108049 382.0,-1.3949555301961483 382.1,-1.387411683370145 382.2,-1.3798644132437317 382.3,-1.372313738439047 382.4,-1.36475967758663 382.5,-1.3572022493253713 382.6,-1.349641472302478 382.7,-1.3420773651734241 382.8,-1.334509946601875 382.9,-1.326939235259701 383.0,-1.3193652498268669 383.1,-1.3117880089914289 383.2,-1.304207531449488 383.3,-1.296623835905102 383.4,-1.2890369410703038 383.5,-1.2814468656649836 383.6,-1.273853628416912 383.7,-1.2662572480616419 383.8,-1.2586577433424873 383.9,-1.2510551330104704 384.0,-1.2434494358242767 384.1,-1.2358406705502079 384.2,-1.2282288559621355 384.3,-1.2206140108414516 384.4,-1.2129961539770375 384.5,-1.2053753041651942 384.6,-1.1977514802096063 384.7,-1.1901247009213145 384.8,-1.1824949851186215 384.9,-1.1748623516271097 385.0,-1.1672268192795259 385.1,-1.159588406915801 385.2,-1.1519471333829572 385.3,-1.1443030175350648 385.4,-1.1366560782332376 385.5,-1.1290063343455197 385.6,-1.1213538047469078 385.7,-1.113698508319253 385.8,-1.1060404639512385 385.9,-1.0983796905383274 386.0,-1.0907162069827165 386.1,-1.0830500321932854 386.2,-1.0753811850855672 386.3,-1.0677096845816751 386.4,-1.0600355496102745 386.5,-1.0523587991065302 386.6,-1.0446794520120564 386.7,-1.0369975272748921 386.8,-1.0293130438494056 386.9,-1.021626020696313 387.0,-1.0139364767825623 387.1,-1.006244431081352 387.2,-0.9985499025720359 387.3,-0.9908529102400981 387.4,-0.983153473077102 387.5,-0.9754516100806436 387.6,-0.9677473402543041 387.7,-0.9600406826076033 387.8,-0.9523316561559532 387.9,-0.9446202799206055 388.0,-0.9369065729286234 388.1,-0.9291905542128034 388.2,-0.9214722428116678 388.3,-0.9137516577693651 388.4,-0.906028818135689 388.5,-0.8983037429659655 388.6,-0.8905764513210495 388.7,-0.8828469622672781 388.8,-0.8751152948763801 388.9,-0.8673814682254931 389.0,-0.8596455013970484 389.1,-0.8519074134787884 389.2,-0.844167223563671 389.3,-0.8364249507498458 389.4,-0.8286806141406011 389.5,-0.8209342328443179 389.6,-0.8131858259744217 389.7,-0.8054354126493318 389.8,-0.7976830119924317 389.9,-0.789928643131995 390.0,-0.7821723252011556 390.1,-0.7744140773378528 390.2,-0.7666539186848054 390.3,-0.7588918683894155 390.4,-0.7511279456037884 390.5,-0.7433621694846142 390.6,-0.7355945591931866 390.7,-0.7278251338953075 390.8,-0.7200539127612615 390.9,-0.7122809149657685 391.0,-0.704506159687915 391.1,-0.6967296661111495 391.2,-0.6889514534231929 391.3,-0.6811715408160115 391.4,-0.6733899474857665 391.5,-0.6656066926327614 391.6,-0.6578217954614127 391.7,-0.6500352751801757 391.8,-0.6422471510015153 391.9,-0.6344574421418537 392.0,-0.6266661678215233 392.1,-0.6188733472647143 392.2,-0.6110789996994502 392.3,-0.6032831443574911 392.4,-0.5954858004743526 392.5,-0.5876869872891883 392.6,-0.5798867240448075 392.7,-0.5720850299875798 392.8,-0.56428192436741 392.9,-0.5564774264376854 393.0,-0.5486715554552288 393.1,-0.5408643306802511 393.2,-0.5330557713763031 393.3,-0.5252458968102243 393.4,-0.5174347262521127 393.5,-0.5096222789752507 393.6,-0.5018085742560711 393.7,-0.49399363137412655 393.8,-0.4861774696119942 393.9,-0.478360108255294 394.0,-0.4705415665925745 394.1,-0.4627218639153103 394.2,-0.4549010195178535 394.3,-0.4470790526973426 394.4,-0.4392559827537208 394.5,-0.4314318289896179 394.6,-0.4236066107103687 394.7,-0.4157803472239171 394.8,-0.4079530578407902 394.9,-0.40012476187404655 395.0,-0.3922954786392281 395.1,-0.3844652274543087 395.2,-0.3766340276396636 395.3,-0.3688018985179953 395.4,-0.36096885941430396 395.5,-0.3531349296558348 395.6,-0.34530012857202647 395.7,-0.337464475494485 395.8,-0.32962798975688773 395.9,-0.32179069069500194 396.0,-0.3139525976465663 396.1,-0.30611372995130953 396.2,-0.2982741069508539 396.3,-0.2904337479886899 396.4,-0.2825926724101285 396.5,-0.2747508995622306 396.6,-0.2669084487938047 396.7,-0.259065339455314 396.8,-0.2512215908988511 396.9,-0.24337722247808147 397.0,-0.2355322535482132 397.1,-0.22768670346592285 397.2,-0.21984059158932537 397.3,-0.21199393727792187 397.4,-0.20414675989255182 397.5,-0.19629907879534536 397.6,-0.18845091334967107 397.7,-0.18060228292011032 397.8,-0.1727532068723607 397.9,-0.1649037045732549 398.0,-0.1570537953906418 398.1,-0.14920349869340527 398.2,-0.14135283385136757 398.3,-0.13350182023526383 398.4,-0.12565047721668968 398.5,-0.11779882416805354 398.6,-0.1099468804625288 398.7,-0.10209466547400159 398.8,-0.09424219857704069 398.9,-0.08638949914682312 399.0,-0.07853658655910416 399.1,-0.0706834801901605 399.2,-0.06283019941676479 399.3,-0.054976763616088914 399.4,-0.04712319216572277 399.5,-0.03926950444355989 399.6,-0.03141571982779403 399.7,-0.02356185769687131 399.8,-0.015707937429398064 399.9,-0.007853978404159571 400.0,-1.2246467991473533e-15" stroke-width="1" stroke-linecap="round" stroke="#000000" fill="none"  />
<!-- Footer -->
</svg>
