<!-- Header -->
<svg
    version="1.1"
    baseProfile="full"
    xmlns="http://www.w3.org/2000/svg"
    xmlns:xlink="http://www.w3.org/1999/xlink"
    xmlns:ev="http://www.w3.org/2001/xml-events"
    width="400.0"
    height="20.0"
    viewBox="-2.5 -7.5 405.0 25.0"
    preserveAspectRatio="none"
>
<!-- Body -->
<!-- Path -->
<path d="M0.0,0.0 L1.0,0.23553225354821333 L2.0,0.4705415665925716 L3.0,0.7045061596879132 L4.0,0.9369065729286231 L5.0,1.167226819279527 L6.0,1.394955530196146 L7.0,1.619587090990747 L8.0,1.8406227634233898 L9.0,2.057571793025544 L10.0,2.2699524986977337 L11.0,2.4772933421620373 L12.0,2.6791339748949827 L13.0,2.875026260216393 L14.0,3.0645352682648825 L15.0,3.2472402416509176 L16.0,3.4227355296434436 L17.0,3.5906314888159447 L18.0,3.750555348152298 L19.0,3.9021520366916485 L20.0,4.045084971874737 L21.0,4.179036806841351 L22.0,4.303710135019718 L23.0,4.418828150443467 L24.0,4.524135262330097 L25.0,4.619397662556434 L26.0,4.704403844771128 L27.0,4.7789650739916505 L28.0,4.842915805643155 L29.0,4.896114053108828 L30.0,4.938441702975688 L31.0,4.969804777275899 L32.0,4.990133642141358 L33.0,4.999383162408303 L34.0,4.997532801828658 L35.0,4.9845866686656395 L36.0,4.960573506572389 L37.0,4.925546630773869 L38.0,4.879583809693737 L39.0,4.822787092288991 L40.0,4.755282581475768 L41.0,4.677220154149337 L42.0,4.588773128419906 L43.0,4.490137878803078 L44.0,4.381533400219318 L45.0,4.263200821770462 L46.0,4.13540287137281 L47.0,3.998423292435453 L48.0,3.8525662138789474 L49.0,3.6981554748930496 L50.0,3.5355339059327378 L51.0,3.3650625675488666 L52.0,3.1871199487434474 L53.0,3.00210112662942 L54.0,2.810416889260654 L55.0,2.6124928235797444 L56.0,2.408768370508576 L57.0,2.1996958492795766 L58.0,1.985739453173903 L59.0,1.7673742188962869 L60.0,1.5450849718747397 L61.0,1.319365249826864 L62.0,1.0907162069827139 L63.0,0.8596455013970479 L64.0,0.6266661678215204 L65.0,0.3922954786392253 L66.0,0.15705379539064118 L67.0,-0.07853658655910231 L68.0,-0.31395259764656896 L69.0,-0.5486715554552271 L70.0,-0.7821723252011537 L71.0,-1.0139364767825647 L72.0,-1.2434494358242751 L73.0,-1.4702016261615194 L74.0,-1.6936896012264575 L75.0,-1.9134171618254483 L76.0,-2.1288964578253613 L77.0,-2.339649071302866 L78.0,-2.5452070787518544 L79.0,-2.745114089990659 L80.0,-2.938926261462365 L81.0,-3.1262132816785244 L82.0,-3.306559326618257 L83.0,-3.479563982961573 L84.0,-3.644843137107058 L85.0,-3.802029828000153 L86.0,-3.950775061878452 L87.0,-4.0907485871251135 L88.0,-4.221639627510074 L89.0,-4.3431575721909566 L90.0,-4.455032620941839 L91.0,-4.557016383177225 L92.0,-4.648882429441255 L93.0,-4.730426794137727 L94.0,-4.801468428384715 L95.0,-4.861849601988383 L96.0,-4.911436253643442 L97.0,-4.950118288582788 L98.0,-4.9778098230154 L99.0,-4.99444937480985 L100.0,-5.0 L101.0,-4.99444937480985 L102.0,-4.9778098230154 L103.0,-4.950118288582788 L104.0,-4.911436253643443 L105.0,-4.861849601988384 L106.0,-4.801468428384715 L107.0,-4.730426794137727 L108.0,-4.648882429441258 L109.0,-4.557016383177228 L110.0,-4.45503262094184 L111.0,-4.343157572190955 L112.0,-4.221639627510075 L113.0,-4.090748587125118 L114.0,-3.950775061878453 L115.0,-3.802029828000154 L116.0,-3.644843137107058 L117.0,-3.4795639829615728 L118.0,-3.3065593266182614 L119.0,-3.1262132816785293 L120.0,-2.9389262614623703 L121.0,-2.7451140899906568 L122.0,-2.545207078751856 L123.0,-2.3396490713028677 L124.0,-2.128896457825365 L125.0,-1.913417161825452 L126.0,-1.693689601226457 L127.0,-1.4702016261615214 L128.0,-1.2434494358242725 L129.0,-1.0139364767825623 L130.0,-0.7821723252011556 L131.0,-0.5486715554552288 L132.0,-0.3139525976465663 L133.0,-0.07853658655909972 L134.0,0.15705379539063935 L135.0,0.3922954786392257 L136.0,0.6266661678215253 L137.0,0.8596455013970504 L138.0,1.090716206982714 L139.0,1.3193652498268647 L140.0,1.545084971874736 L141.0,1.767374218896283 L142.0,1.9857394531739074 L143.0,2.199695849279575 L144.0,2.4087683705085783 L145.0,2.6124928235797413 L146.0,2.8104168892606527 L147.0,3.002101126629422 L148.0,3.18711994874345 L149.0,3.3650625675488666 L150.0,3.535533905932737 L151.0,3.6981554748930465 L152.0,3.8525662138789434 L153.0,3.9984232924354544 L154.0,4.135402871372808 L155.0,4.263200821770462 L156.0,4.381533400219316 L157.0,4.490137878803077 L158.0,4.5887731284199065 L159.0,4.677220154149336 L160.0,4.755282581475767 L161.0,4.82278709228899 L162.0,4.879583809693736 L163.0,4.9255466307738685 L164.0,4.960573506572389 L165.0,4.9845866686656395 L166.0,4.997532801828658 L167.0,4.999383162408303 L168.0,4.990133642141358 L169.0,4.969804777275899 L170.0,4.938441702975689 L171.0,4.896114053108829 L172.0,4.842915805643155 L173.0,4.778965073991652 L174.0,4.704403844771131 L175.0,4.6193976625564375 L176.0,4.5241352623301 L177.0,4.418828150443464 L178.0,4.303710135019718 L179.0,4.179036806841355 L180.0,4.045084971874738 L181.0,3.902152036691648 L182.0,3.7505553481523006 L183.0,3.5906314888159514 L184.0,3.4227355296434485 L185.0,3.247240241650921 L186.0,3.064535268264883 L187.0,2.875026260216391 L188.0,2.6791339748949863 L189.0,2.477293342162038 L190.0,2.2699524986977315 L191.0,2.057571793025547 L192.0,1.840622763423398 L193.0,1.6195870909907526 L194.0,1.394955530196149 L195.0,1.1672268192795268 L196.0,0.9369065729286284 L197.0,0.7045061596879155 L198.0,0.47054156659257074 L199.0,0.23553225354820936 L200.0,1.8369701987210296e-15 L201.0,-0.2355322535482057 L202.0,-0.47054156659256713 L203.0,-0.704506159687912 L204.0,-0.9369065729286248 L205.0,-1.167226819279523 L206.0,-1.3949555301961452 L207.0,-1.6195870909907406 L208.0,-1.8406227634233945 L209.0,-2.0575717930255433 L210.0,-2.2699524986977284 L211.0,-2.477293342162035 L212.0,-2.6791339748949827 L213.0,-2.875026260216395 L214.0,-3.0645352682648803 L215.0,-3.2472402416509185 L216.0,-3.422735529643439 L217.0,-3.5906314888159425 L218.0,-3.750555348152292 L219.0,-3.902152036691646 L220.0,-4.045084971874736 L221.0,-4.179036806841352 L222.0,-4.30371013501972 L223.0,-4.418828150443466 L224.0,-4.524135262330098 L225.0,-4.619397662556432 L226.0,-4.704403844771127 L227.0,-4.778965073991649 L228.0,-4.8429158056431545 L229.0,-4.896114053108827 L230.0,-4.938441702975689 L231.0,-4.969804777275899 L232.0,-4.990133642141358 L233.0,-4.999383162408303 L234.0,-4.997532801828658 L235.0,-4.9845866686656395 L236.0,-4.9605735065723895 L237.0,-4.92554663077387 L238.0,-4.879583809693739 L239.0,-4.822787092288992 L240.0,-4.755282581475772 L241.0,-4.677220154149336 L242.0,-4.588773128419904 L243.0,-4.490137878803079 L244.0,-4.381533400219317 L245.0,-4.2632008217704636 L246.0,-4.1354028713728095 L247.0,-3.998423292435457 L248.0,-3.852566213878949 L249.0,-3.698155474893055 L250.0,-3.535533905932742 L251.0,-3.3650625675488626 L252.0,-3.1871199487434487 L253.0,-3.0021011266294186 L254.0,-2.810416889260656 L255.0,-2.6124928235797444 L256.0,-2.408768370508574 L257.0,-2.1996958492795704 L258.0,-1.9857394531739028 L259.0,-1.7673742188962906 L260.0,-1.5450849718747395 L261.0,-1.3193652498268638 L262.0,-1.0907162069827177 L263.0,-0.859645501397041 L264.0,-0.6266661678215201 L265.0,-0.3922954786392205 L266.0,-0.15705379539063413 L267.0,0.07853658655910492 L268.0,0.31395259764656264 L269.0,0.5486715554552253 L270.0,0.7821723252011563 L271.0,1.0139364767825587 L272.0,1.2434494358242818 L273.0,1.470201626161522 L274.0,1.6936896012264622 L275.0,1.9134171618254567 L276.0,2.1288964578253657 L277.0,2.339649071302864 L278.0,2.5452070787518566 L279.0,2.745114089990661 L280.0,2.9389262614623632 L281.0,3.1262132816785195 L282.0,3.306559326618255 L283.0,3.4795639829615768 L284.0,3.644843137107064 L285.0,3.8020298280001574 L286.0,3.950775061878451 L287.0,4.090748587125118 L288.0,4.221639627510077 L289.0,4.343157572190956 L290.0,4.455032620941836 L291.0,4.557016383177225 L292.0,4.648882429441256 L293.0,4.730426794137724 L294.0,4.801468428384717 L295.0,4.861849601988383 L296.0,4.911436253643444 L297.0,4.950118288582789 L298.0,4.9778098230154 L299.0,4.994449374809849 L300.0,5.0 L301.0,4.99444937480985 L302.0,4.9778098230154 L303.0,4.9501182885827895 L304.0,4.911436253643445 L305.0,4.861849601988382 L306.0,4.801468428384713 L307.0,4.730426794137726 L308.0,4.648882429441259 L309.0,4.557016383177227 L310.0,4.4550326209418385 L311.0,4.343157572190958 L312.0,4.221639627510081 L313.0,4.090748587125121 L314.0,3.9507750618784545 L315.0,3.802029828000149 L316.0,3.644843137107056 L317.0,3.479563982961574 L318.0,3.3065593266182596 L319.0,3.126213281678524 L320.0,2.9389262614623677 L321.0,2.745114089990666 L322.0,2.5452070787518615 L323.0,2.339649071302869 L324.0,2.1288964578253706 L325.0,1.9134171618254618 L326.0,1.693689601226467 L327.0,1.470201626161519 L328.0,1.2434494358242871 L329.0,1.013936476782564 L330.0,0.7821723252011704 L331.0,0.5486715554552307 L332.0,0.3139525976465593 L333.0,0.07853658655911044 L334.0,-0.1570537953906464 L335.0,-0.392295478639215 L336.0,-0.6266661678215235 L337.0,-0.8596455013970355 L338.0,-1.0907162069827123 L339.0,-1.3193652498268498 L340.0,-1.5450849718747257 L341.0,-1.7673742188962691 L342.0,-1.9857394531738979 L343.0,-2.199695849279581 L344.0,-2.4087683705085765 L345.0,-2.612492823579755 L346.0,-2.8104168892606434 L347.0,-3.0021011266294204 L348.0,-3.187119948743431 L349.0,-3.3650625675488586 L350.0,-3.535533905932726 L351.0,-3.6981554748930456 L352.0,-3.85256621387894 L353.0,-3.9984232924354535 L354.0,-4.135402871372817 L355.0,-4.263200821770456 L356.0,-4.381533400219319 L357.0,-4.490137878803068 L358.0,-4.588773128419902 L359.0,-4.677220154149332 L360.0,-4.755282581475767 L361.0,-4.822787092288988 L362.0,-4.879583809693738 L363.0,-4.925546630773872 L364.0,-4.960573506572389 L365.0,-4.98458666866564 L366.0,-4.9975328018286564 L367.0,-4.999383162408303 L368.0,-4.990133642141359 L369.0,-4.969804777275899 L370.0,-4.93844170297569 L371.0,-4.896114053108828 L372.0,-4.842915805643156 L373.0,-4.778965073991653 L374.0,-4.704403844771125 L375.0,-4.619397662556441 L376.0,-4.524135262330101 L377.0,-4.418828150443473 L378.0,-4.303710135019719 L379.0,-4.179036806841355 L380.0,-4.045084971874734 L381.0,-3.902152036691649 L382.0,-3.750555348152302 L383.0,-3.5906314888159523 L384.0,-3.4227355296434565 L385.0,-3.247240241650923 L386.0,-3.064535268264892 L387.0,-2.8750262602163925 L388.0,-2.6791339748949876 L389.0,-2.477293342162032 L390.0,-2.2699524986977333 L391.0,-2.057571793025548 L392.0,-1.8406227634233998 L393.0,-1.6195870909907626 L394.0,-1.3949555301961505 L395.0,-1.167226819279537 L396.0,-0.9369065729286215 L397.0,-0.7045061596879174 L398.0,-0.47054156659256374 L399.0,-0.23553225354821122 L400.0,-3.673940397442059e-15 L400.0,9.999999999999996 L399.0,9.764467746451789 L398.0,9.529458433407436 L397.0,9.295493840312083 L396.0,9.06309342707138 L395.0,8.832773180720462 L394.0,8.60504446980385 L393.0,8.380412909009237 L392.0,8.1593772365766 L391.0,7.942428206974451 L390.0,7.730047501302266 L389.0,7.522706657837968 L388.0,7.320866025105012 L387.0,7.1249737397836075 L386.0,6.935464731735108 L385.0,6.752759758349077 L384.0,6.5772644703565435 L383.0,6.409368511184048 L382.0,6.249444651847698 L381.0,6.097847963308351 L380.0,5.954915028125266 L379.0,5.820963193158645 L378.0,5.696289864980281 L377.0,5.581171849556527 L376.0,5.475864737669899 L375.0,5.380602337443559 L374.0,5.295596155228875 L373.0,5.221034926008347 L372.0,5.157084194356844 L371.0,5.103885946891172 L370.0,5.06155829702431 L369.0,5.030195222724101 L368.0,5.009866357858641 L367.0,5.000616837591697 L366.0,5.0024671981713436 L365.0,5.01541333133436 L364.0,5.039426493427611 L363.0,5.074453369226128 L362.0,5.120416190306262 L361.0,5.177212907711012 L360.0,5.244717418524233 L359.0,5.322779845850668 L358.0,5.411226871580098 L357.0,5.509862121196932 L356.0,5.618466599780681 L355.0,5.736799178229544 L354.0,5.864597128627183 L353.0,6.0015767075645465 L352.0,6.14743378612106 L351.0,6.301844525106954 L350.0,6.464466094067274 L349.0,6.634937432451141 L348.0,6.812880051256569 L347.0,6.99789887337058 L346.0,7.189583110739356 L345.0,7.387507176420245 L344.0,7.591231629491423 L343.0,7.800304150720419 L342.0,8.014260546826103 L341.0,8.232625781103732 L340.0,8.454915028125274 L339.0,8.68063475017315 L338.0,8.909283793017288 L337.0,9.140354498602964 L336.0,9.373333832178476 L335.0,9.607704521360786 L334.0,9.842946204609353 L333.0,10.07853658655911 L332.0,10.313952597646558 L331.0,10.54867155545523 L330.0,10.78217232520117 L329.0,11.013936476782565 L328.0,11.243449435824287 L327.0,11.470201626161519 L326.0,11.693689601226467 L325.0,11.913417161825462 L324.0,12.12889645782537 L323.0,12.339649071302869 L322.0,12.545207078751861 L321.0,12.745114089990667 L320.0,12.938926261462367 L319.0,13.126213281678524 L318.0,13.30655932661826 L317.0,13.479563982961574 L316.0,13.644843137107056 L315.0,13.80202982800015 L314.0,13.950775061878455 L313.0,14.09074858712512 L312.0,14.221639627510081 L311.0,14.343157572190957 L310.0,14.45503262094184 L309.0,14.557016383177228 L308.0,14.648882429441258 L307.0,14.730426794137726 L306.0,14.801468428384712 L305.0,14.861849601988382 L304.0,14.911436253643444 L303.0,14.95011828858279 L302.0,14.9778098230154 L301.0,14.99444937480985 L300.0,15.0 L299.0,14.99444937480985 L298.0,14.9778098230154 L297.0,14.95011828858279 L296.0,14.911436253643444 L295.0,14.861849601988382 L294.0,14.801468428384716 L293.0,14.730426794137724 L292.0,14.648882429441256 L291.0,14.557016383177224 L290.0,14.455032620941836 L289.0,14.343157572190956 L288.0,14.221639627510077 L287.0,14.090748587125118 L286.0,13.950775061878451 L285.0,13.802029828000158 L284.0,13.644843137107063 L283.0,13.479563982961576 L282.0,13.306559326618256 L281.0,13.12621328167852 L280.0,12.938926261462363 L279.0,12.745114089990661 L278.0,12.545207078751856 L277.0,12.339649071302864 L276.0,12.128896457825366 L275.0,11.913417161825457 L274.0,11.693689601226462 L273.0,11.470201626161522 L272.0,11.243449435824282 L271.0,11.01393647678256 L270.0,10.782172325201156 L269.0,10.548671555455226 L268.0,10.313952597646562 L267.0,10.078536586559105 L266.0,9.842946204609365 L265.0,9.60770452136078 L264.0,9.37333383217848 L263.0,9.140354498602958 L262.0,8.909283793017282 L261.0,8.680634750173136 L260.0,8.45491502812526 L259.0,8.23262578110371 L258.0,8.014260546826097 L257.0,7.80030415072043 L256.0,7.591231629491427 L255.0,7.387507176420256 L254.0,7.189583110739344 L253.0,6.997898873370581 L252.0,6.812880051256551 L251.0,6.634937432451137 L250.0,6.464466094067258 L249.0,6.3018445251069455 L248.0,6.14743378612105 L247.0,6.001576707564543 L246.0,5.8645971286271905 L245.0,5.7367991782295364 L244.0,5.618466599780683 L243.0,5.509862121196921 L242.0,5.411226871580096 L241.0,5.322779845850664 L240.0,5.244717418524228 L239.0,5.177212907711008 L238.0,5.120416190306261 L237.0,5.07445336922613 L236.0,5.0394264934276105 L235.0,5.0154133313343605 L234.0,5.002467198171342 L233.0,5.000616837591697 L232.0,5.009866357858642 L231.0,5.030195222724101 L230.0,5.061558297024311 L229.0,5.103885946891173 L228.0,5.1570841943568455 L227.0,5.221034926008351 L226.0,5.295596155228873 L225.0,5.380602337443568 L224.0,5.475864737669902 L223.0,5.581171849556534 L222.0,5.69628986498028 L221.0,5.820963193158648 L220.0,5.954915028125264 L219.0,6.097847963308354 L218.0,6.249444651847708 L217.0,6.4093685111840575 L216.0,6.57726447035656 L215.0,6.7527597583490815 L214.0,6.93546473173512 L213.0,7.124973739783605 L212.0,7.320866025105017 L211.0,7.522706657837965 L210.0,7.730047501302272 L209.0,7.942428206974457 L208.0,8.159377236576606 L207.0,8.380412909009259 L206.0,8.605044469803854 L205.0,8.832773180720476 L204.0,9.063093427071376 L203.0,9.295493840312089 L202.0,9.529458433407433 L201.0,9.764467746451794 L200.0,10.000000000000002 L199.0,10.23553225354821 L198.0,10.470541566592571 L197.0,10.704506159687915 L196.0,10.936906572928628 L195.0,11.167226819279527 L194.0,11.39495553019615 L193.0,11.619587090990752 L192.0,11.840622763423397 L191.0,12.057571793025547 L190.0,12.269952498697732 L189.0,12.477293342162039 L188.0,12.679133974894986 L187.0,12.87502626021639 L186.0,13.064535268264883 L185.0,13.247240241650921 L184.0,13.422735529643449 L183.0,13.590631488815951 L182.0,13.7505553481523 L181.0,13.902152036691648 L180.0,14.045084971874738 L179.0,14.179036806841355 L178.0,14.303710135019717 L177.0,14.418828150443463 L176.0,14.5241352623301 L175.0,14.619397662556437 L174.0,14.704403844771132 L173.0,14.778965073991653 L172.0,14.842915805643155 L171.0,14.896114053108828 L170.0,14.93844170297569 L169.0,14.969804777275899 L168.0,14.990133642141359 L167.0,14.999383162408304 L166.0,14.997532801828658 L165.0,14.984586668665639 L164.0,14.960573506572388 L163.0,14.92554663077387 L162.0,14.879583809693736 L161.0,14.82278709228899 L160.0,14.755282581475768 L159.0,14.677220154149335 L158.0,14.588773128419906 L157.0,14.490137878803077 L156.0,14.381533400219315 L155.0,14.263200821770461 L154.0,14.135402871372808 L153.0,13.998423292435454 L152.0,13.852566213878944 L151.0,13.698155474893046 L150.0,13.535533905932738 L149.0,13.365062567548867 L148.0,13.187119948743451 L147.0,13.002101126629423 L146.0,12.810416889260653 L145.0,12.61249282357974 L144.0,12.408768370508579 L143.0,12.199695849279575 L142.0,11.985739453173908 L141.0,11.767374218896283 L140.0,11.545084971874736 L139.0,11.319365249826864 L138.0,11.090716206982714 L137.0,10.85964550139705 L136.0,10.626666167821526 L135.0,10.392295478639225 L134.0,10.15705379539064 L133.0,9.9214634134409 L132.0,9.686047402353434 L131.0,9.451328444544771 L130.0,9.217827674798844 L129.0,8.986063523217437 L128.0,8.756550564175727 L127.0,8.529798373838478 L126.0,8.306310398773544 L125.0,8.086582838174548 L124.0,7.871103542174636 L123.0,7.660350928697133 L122.0,7.454792921248144 L121.0,7.254885910009343 L120.0,7.06107373853763 L119.0,6.873786718321471 L118.0,6.693440673381739 L117.0,6.520436017038428 L116.0,6.355156862892942 L115.0,6.197970171999846 L114.0,6.049224938121547 L113.0,5.909251412874882 L112.0,5.778360372489925 L111.0,5.656842427809045 L110.0,5.54496737905816 L109.0,5.442983616822772 L108.0,5.351117570558742 L107.0,5.269573205862273 L106.0,5.198531571615285 L105.0,5.138150398011616 L104.0,5.088563746356557 L103.0,5.049881711417212 L102.0,5.0221901769846 L101.0,5.00555062519015 L100.0,5.0 L99.0,5.00555062519015 L98.0,5.0221901769846 L97.0,5.049881711417212 L96.0,5.088563746356558 L95.0,5.138150398011617 L94.0,5.198531571615285 L93.0,5.269573205862273 L92.0,5.351117570558745 L91.0,5.442983616822775 L90.0,5.544967379058161 L89.0,5.6568424278090434 L88.0,5.778360372489926 L87.0,5.9092514128748865 L86.0,6.049224938121548 L85.0,6.197970171999847 L84.0,6.355156862892942 L83.0,6.520436017038427 L82.0,6.693440673381743 L81.0,6.873786718321476 L80.0,7.061073738537635 L79.0,7.254885910009341 L78.0,7.454792921248146 L77.0,7.6603509286971345 L76.0,7.871103542174639 L75.0,8.086582838174552 L74.0,8.306310398773542 L73.0,8.529798373838481 L72.0,8.756550564175726 L71.0,8.986063523217435 L70.0,9.217827674798846 L69.0,9.451328444544773 L68.0,9.68604740235343 L67.0,9.921463413440899 L66.0,10.157053795390642 L65.0,10.392295478639225 L64.0,10.62666616782152 L63.0,10.859645501397047 L62.0,11.090716206982714 L61.0,11.319365249826864 L60.0,11.54508497187474 L59.0,11.767374218896286 L58.0,11.985739453173903 L57.0,12.199695849279577 L56.0,12.408768370508575 L55.0,12.612492823579744 L54.0,12.810416889260654 L53.0,13.00210112662942 L52.0,13.187119948743447 L51.0,13.365062567548867 L50.0,13.535533905932738 L49.0,13.69815547489305 L48.0,13.852566213878948 L47.0,13.998423292435453 L46.0,14.135402871372811 L45.0,14.263200821770461 L44.0,14.381533400219318 L43.0,14.490137878803079 L42.0,14.588773128419906 L41.0,14.677220154149337 L40.0,14.755282581475768 L39.0,14.82278709228899 L38.0,14.879583809693738 L37.0,14.92554663077387 L36.0,14.960573506572388 L35.0,14.984586668665639 L34.0,14.997532801828658 L33.0,14.999383162408304 L32.0,14.990133642141359 L31.0,14.969804777275899 L30.0,14.938441702975688 L29.0,14.896114053108828 L28.0,14.842915805643155 L27.0,14.77896507399165 L26.0,14.704403844771129 L25.0,14.619397662556434 L24.0,14.524135262330098 L23.0,14.418828150443467 L22.0,14.303710135019717 L21.0,14.179036806841351 L20.0,14.045084971874736 L19.0,13.902152036691648 L18.0,13.750555348152298 L17.0,13.590631488815944 L16.0,13.422735529643443 L15.0,13.247240241650918 L14.0,13.064535268264883 L13.0,12.875026260216393 L12.0,12.679133974894983 L11.0,12.477293342162037 L10.0,12.269952498697734 L9.0,12.057571793025545 L8.0,11.84062276342339 L7.0,11.619587090990747 L6.0,11.394955530196146 L5.0,11.167226819279527 L4.0,10.936906572928622 L3.0,10.704506159687913 L2.0,10.470541566592571 L1.0,10.235532253548213 L0.0,10.0" fill="#FFFFFF"  />
<!-- Path -->
<path d="M0.0,0.0 L1.0,0.23553225354821333 L2.0,0.4705415665925716 L3.0,0.7045061596879132 L4.0,0.9369065729286231 L5.0,1.167226819279527 L6.0,1.394955530196146 L7.0,1.619587090990747 L8.0,1.8406227634233898 L9.0,2.057571793025544 L10.0,2.2699524986977337 L11.0,2.4772933421620373 L12.0,2.6791339748949827 L13.0,2.875026260216393 L14.0,3.0645352682648825 L15.0,3.2472402416509176 L16.0,3.4227355296434436 L17.0,3.5906314888159447 L18.0,3.750555348152298 L19.0,3.9021520366916485 L20.0,4.045084971874737 L21.0,4.179036806841351 L22.0,4.303710135019718 L23.0,4.418828150443467 L24.0,4.524135262330097 L25.0,4.619397662556434 L26.0,4.704403844771128 L27.0,4.7789650739916505 L28.0,4.842915805643155 L29.0,4.896114053108828 L30.0,4.938441702975688 L31.0,4.969804777275899 L32.0,4.990133642141358 L33.0,4.999383162408303 L34.0,4.997532801828658 L35.0,4.9845866686656395 L36.0,4.960573506572389 L37.0,4.925546630773869 L38.0,4.879583809693737 L39.0,4.822787092288991 L40.0,4.755282581475768 L41.0,4.677220154149337 L42.0,4.588773128419906 L43.0,4.490137878803078 L44.0,4.381533400219318 L45.0,4.263200821770462 L46.0,4.13540287137281 L47.0,3.998423292435453 L48.0,3.8525662138789474 L49.0,3.6981554748930496 L50.0,3.5355339059327378 L51.0,3.3650625675488666 L52.0,3.1871199487434474 L53.0,3.00210112662942 L54.0,2.810416889260654 L55.0,2.6124928235797444 L56.0,2.408768370508576 L57.0,2.1996958492795766 L58.0,1.985739453173903 L59.0,1.7673742188962869 L60.0,1.5450849718747397 L61.0,1.319365249826864 L62.0,1.0907162069827139 L63.0,0.8596455013970479 L64.0,0.6266661678215204 L65.0,0.3922954786392253 L66.0,0.15705379539064118 L67.0,-0.07853658655910231 L68.0,-0.31395259764656896 L69.0,-0.5486715554552271 L70.0,-0.7821723252011537 L71.0,-1.0139364767825647 L72.0,-1.2434494358242751 L73.0,-1.4702016261615194 L74.0,-1.6936896012264575 L75.0,-1.9134171618254483 L76.0,-2.1288964578253613 L77.0,-2.339649071302866 L78.0,-2.5452070787518544 L79.0,-2.745114089990659 L80.0,-2.938926261462365 L81.0,-3.1262132816785244 L82.0,-3.306559326618257 L83.0,-3.479563982961573 L84.0,-3.644843137107058 L85.0,-3.802029828000153 L86.0,-3.950775061878452 L87.0,-4.0907485871251135 L88.0,-4.221639627510074 L89.0,-4.3431575721909566 L90.0,-4.455032620941839 L91.0,-4.557016383177225 L92.0,-4.648882429441255 L93.0,-4.730426794137727 L94.0,-4.801468428384715 L95.0,-4.861849601988383 L96.0,-4.911436253643442 L97.0,-4.950118288582788 L98.0,-4.9778098230154 L99.0,-4.99444937480985 L100.0,-5.0 L101.0,-4.99444937480985 L102.0,-4.9778098230154 L103.0,-4.950118288582788 L104.0,-4.911436253643443 L105.0,-4.861849601988384 L106.0,-4.801468428384715 L107.0,-4.730426794137727 L108.0,-4.648882429441258 L109.0,-4.557016383177228 L110.0,-4.45503262094184 L111.0,-4.343157572190955 L112.0,-4.221639627510075 L113.0,-4.090748587125118 L114.0,-3.950775061878453 L115.0,-3.802029828000154 L116.0,-3.644843137107058 L117.0,-3.4795639829615728 L118.0,-3.3065593266182614 L119.0,-3.1262132816785293 L120.0,-2.9389262614623703 L121.0,-2.7451140899906568 L122.0,-2.545207078751856 L123.0,-2.3396490713028677 L124.0,-2.128896457825365 L125.0,-1.913417161825452 L126.0,-1.693689601226457 L127.0,-1.4702016261615214 L128.0,-1.2434494358242725 L129.0,-1.0139364767825623 L130.0,-0.7821723252011556 L131.0,-0.5486715554552288 L132.0,-0.3139525976465663 L133.0,-0.07853658655909972 L134.0,0.15705379539063935 L135.0,0.3922954786392257 L136.0,0.6266661678215253 L137.0,0.8596455013970504 L138.0,1.090716206982714 L139.0,1.3193652498268647 L140.0,1.545084971874736 L141.0,1.767374218896283 L142.0,1.9857394531739074 L143.0,2.199695849279575 L144.0,2.4087683705085783 L145.0,2.6124928235797413 L146.0,2.8104168892606527 L147.0,3.002101126629422 L148.0,3.18711994874345 L149.0,3.3650625675488666 L150.0,3.535533905932737 L151.0,3.6981554748930465 L152.0,3.8525662138789434 L153.0,3.9984232924354544 L154.0,4.135402871372808 L155.0,4.263200821770462 L156.0,4.381533400219316 L157.0,4.490137878803077 L158.0,4.5887731284199065 L159.0,4.677220154149336 L160.0,4.755282581475767 L161.0,4.82278709228899 L162.0,4.879583809693736 L163.0,4.9255466307738685 L164.0,4.960573506572389 L165.0,4.9845866686656395 L166.0,4.997532801828658 L167.0,4.999383162408303 L168.0,4.990133642141358 L169.0,4.969804777275899 L170.0,4.938441702975689 L171.0,4.896114053108829 L172.0,4.842915805643155 L173.0,4.778965073991652 L174.0,4.704403844771131 L175.0,4.6193976625564375 L176.0,4.5241352623301 L177.0,4.418828150443464 L178.0,4.303710135019718 L179.0,4.179036806841355 L180.0,4.045084971874738 L181.0,3.902152036691648 L182.0,3.7505553481523006 L183.0,3.5906314888159514 L184.0,3.4227355296434485 L185.0,3.247240241650921 L186.0,3.064535268264883 L187.0,2.875026260216391 L188.0,2.6791339748949863 L189.0,2.477293342162038 L190.0,2.2699524986977315 L191.0,2.057571793025547 L192.0,1.840622763423398 L193.0,1.6195870909907526 L194.0,1.394955530196149 L195.0,1.1672268192795268 L196.0,0.9369065729286284 L197.0,0.7045061596879155 L198.0,0.47054156659257074 L199.0,0.23553225354820936 L200.0,1.8369701987210296e-15 L201.0,-0.2355322535482057 L202.0,-0.47054156659256713 L203.0,-0.704506159687912 L204.0,-0.9369065729286248 L205.0,-1.167226819279523 L206.0,-1.3949555301961452 L207.0,-1.6195870909907406 L208.0,-1.8406227634233945 L209.0,-2.0575717930255433 L210.0,-2.2699524986977284 L211.0,-2.477293342162035 L212.0,-2.6791339748949827 L213.0,-2.875026260216395 L214.0,-3.0645352682648803 L215.0,-3.2472402416509185 L216.0,-3.422735529643439 L217.0,-3.5906314888159425 L218.0,-3.750555348152292 L219.0,-3.902152036691646 L220.0,-4.045084971874736 L221.0,-4.179036806841352 L222.0,-4.30371013501972 L223.0,-4.418828150443466 L224.0,-4.524135262330098 L225.0,-4.619397662556432 L226.0,-4.704403844771127 L227.0,-4.778965073991649 L228.0,-4.8429158056431545 L229.0,-4.896114053108827 L230.0,-4.938441702975689 L231.0,-4.969804777275899 L232.0,-4.990133642141358 L233.0,-4.999383162408303 L234.0,-4.997532801828658 L235.0,-4.9845866686656395 L236.0,-4.9605735065723895 L237.0,-4.92554663077387 L238.0,-4.879583809693739 L239.0,-4.822787092288992 L240.0,-4.755282581475772 L241.0,-4.677220154149336 L242.0,-4.588773128419904 L243.0,-4.490137878803079 L244.0,-4.381533400219317 L245.0,-4.2632008217704636 L246.0,-4.1354028713728095 L247.0,-3.998423292435457 L248.0,-3.852566213878949 L249.0,-3.698155474893055 L250.0,-3.535533905932742 L251.0,-3.3650625675488626 L252.0,-3.1871199487434487 L253.0,-3.0021011266294186 L254.0,-2.810416889260656 L255.0,-2.6124928235797444 L256.0,-2.408768370508574 L257.0,-2.1996958492795704 L258.0,-1.9857394531739028 L259.0,-1.7673742188962906 L260.0,-1.5450849718747395 L261.0,-1.3193652498268638 L262.0,-1.0907162069827177 L263.0,-0.859645501397041 L264.0,-0.6266661678215201 L265.0,-0.3922954786392205 L266.0,-0.15705379539063413 L267.0,0.07853658655910492 L268.0,0.31395259764656264 L269.0,0.5486715554552253 L270.0,0.7821723252011563 L271.0,1.0139364767825587 L272.0,1.2434494358242818 L273.0,1.470201626161522 L274.0,1.6936896012264622 L275.0,1.9134171618254567 L276.0,2.1288964578253657 L277.0,2.339649071302864 L278.0,2.5452070787518566 L279.0,2.745114089990661 L280.0,2.9389262614623632 L281.0,3.1262132816785195 L282.0,3.306559326618255 L283.0,3.4795639829615768 L284.0,3.644843137107064 L285.0,3.8020298280001574 L286.0,3.950775061878451 L287.0,4.090748587125118 L288.0,4.221639627510077 L289.0,4.343157572190956 L290.0,4.455032620941836 L291.0,4.557016383177225 L292.0,4.648882429441256 L293.0,4.730426794137724 L294.0,4.801468428384717 L295.0,4.861849601988383 L296.0,4.911436253643444 L297.0,4.950118288582789 L298.0,4.9778098230154 L299.0,4.994449374809849 L300.0,5.0 L301.0,4.99444937480985 L302.0,4.9778098230154 L303.0,4.9501182885827895 L304.0,4.911436253643445 L305.0,4.861849601988382 L306.0,4.801468428384713 L307.0,4.730426794137726 L308.0,4.648882429441259 L309.0,4.557016383177227 L310.0,4.4550326209418385 L311.0,4.343157572190958 L312.0,4.221639627510081 L313.0,4.090748587125121 L314.0,3.9507750618784545 L315.0,3.802029828000149 L316.0,3.644843137107056 L317.0,3.479563982961574 L318.0,3.3065593266182596 L319.0,3.126213281678524 L320.0,2.9389262614623677 L321.0,2.745114089990666 L322.0,2.5452070787518615 L323.0,2.339649071302869 L324.0,2.1288964578253706 L325.0,1.9134171618254618 L326.0,1.693689601226467 L327.0,1.470201626161519 L328.0,1.2434494358242871 L329.0,1.013936476782564 L330.0,0.7821723252011704 L331.0,0.5486715554552307 L332.0,0.3139525976465593 L333.0,0.07853658655911044 L334.0,-0.1570537953906464 L335.0,-0.392295478639215 L336.0,-0.6266661678215235 L337.0,-0.8596455013970355 L338.0,-1.0907162069827123 L339.0,-1.3193652498268498 L340.0,-1.5450849718747257 L341.0,-1.7673742188962691 L342.0,-1.9857394531738979 L343.0,-2.199695849279581 L344.0,-2.4087683705085765 L345.0,-2.612492823579755 L346.0,-2.8104168892606434 L347.0,-3.0021011266294204 L348.0,-3.187119948743431 L349.0,-3.3650625675488586 L350.0,-3.535533905932726 L351.0,-3.6981554748930456 L352.0,-3.85256621387894 L353.0,-3.9984232924354535 L354.0,-4.135402871372817 L355.0,-4.263200821770456 L356.0,-4.381533400219319 L357.0,-4.490137878803068 L358.0,-4.588773128419902 L359.0,-4.677220154149332 L360.0,-4.755282581475767 L361.0,-4.822787092288988 L362.0,-4.879583809693738 L363.0,-4.925546630773872 L364.0,-4.960573506572389 L365.0,-4.98458666866564 L366.0,-4.9975328018286564 L367.0,-4.999383162408303 L368.0,-4.990133642141359 L369.0,-4.969804777275899 L370.0,-4.93844170297569 L371.0,-4.896114053108828 L372.0,-4.842915805643156 L373.0,-4.778965073991653 L374.0,-4.704403844771125 L375.0,-4.619397662556441 L376.0,-4.524135262330101 L377.0,-4.418828150443473 L378.0,-4.303710135019719 L379.0,-4.179036806841355 L380.0,-4.045084971874734 L381.0,-3.902152036691649 L382.0,-3.750555348152302 L383.0,-3.5906314888159523 L384.0,-3.4227355296434565 L385.0,-3.247240241650923 L386.0,-3.064535268264892 L387.0,-2.8750262602163925 L388.0,-2.6791339748949876 L389.0,-2.477293342162032 L390.0,-2.2699524986977333 L391.0,-2.057571793025548 L392.0,-1.8406227634233998 L393.0,-1.6195870909907626 L394.0,-1.3949555301961505 L395.0,-1.167226819279537 L396.0,-0.9369065729286215 L397.0,-0.7045061596879174 L398.0,-0.47054156659256374 L399.0,-0.23553225354821122 L400.0,-3.673940397442059e-15" stroke-width="5" stroke-linecap="round" stroke="#000000" fill="none"  />
<!-- Path -->
<path d="M400.0,9.999999999999996 L399.0,9.764467746451789 L398.0,9.529458433407436 L397.0,9.295493840312083 L396.0,9.06309342707138 L395.0,8.832773180720462 L394.0,8.60504446980385 L393.0,8.380412909009237 L392.0,8.1593772365766 L391.0,7.942428206974451 L390.0,7.730047501302266 L389.0,7.522706657837968 L388.0,7.320866025105012 L387.0,7.1249737397836075 L386.0,6.935464731735108 L385.0,6.752759758349077 L384.0,6.5772644703565435 L383.0,6.409368511184048 L382.0,6.249444651847698 L381.0,6.097847963308351 L380.0,5.954915028125266 L379.0,5.820963193158645 L378.0,5.696289864980281 L377.0,5.581171849556527 L376.0,5.475864737669899 L375.0,5.380602337443559 L374.0,5.295596155228875 L373.0,5.221034926008347 L372.0,5.157084194356844 L371.0,5.103885946891172 L370.0,5.06155829702431 L369.0,5.030195222724101 L368.0,5.009866357858641 L367.0,5.000616837591697 L366.0,5.0024671981713436 L365.0,5.01541333133436 L364.0,5.039426493427611 L363.0,5.074453369226128 L362.0,5.120416190306262 L361.0,5.177212907711012 L360.0,5.244717418524233 L359.0,5.322779845850668 L358.0,5.411226871580098 L357.0,5.509862121196932 L356.0,5.618466599780681 L355.0,5.736799178229544 L354.0,5.864597128627183 L353.0,6.0015767075645465 L352.0,6.14743378612106 L351.0,6.301844525106954 L350.0,6.464466094067274 L349.0,6.634937432451141 L348.0,6.812880051256569 L347.0,6.99789887337058 L346.0,7.189583110739356 L345.0,7.387507176420245 L344.0,7.591231629491423 L343.0,7.800304150720419 L342.0,8.014260546826103 L341.0,8.232625781103732 L340.0,8.454915028125274 L339.0,8.68063475017315 L338.0,8.909283793017288 L337.0,9.140354498602964 L336.0,9.373333832178476 L335.0,9.607704521360786 L334.0,9.842946204609353 L333.0,10.07853658655911 L332.0,10.313952597646558 L331.0,10.54867155545523 L330.0,10.78217232520117 L329.0,11.013936476782565 L328.0,11.243449435824287 L327.0,11.470201626161519 L326.0,11.693689601226467 L325.0,11.913417161825462 L324.0,12.12889645782537 L323.0,12.339649071302869 L322.0,12.545207078751861 L321.0,12.745114089990667 L320.0,12.938926261462367 L319.0,13.126213281678524 L318.0,13.30655932661826 L317.0,13.479563982961574 L316.0,13.644843137107056 L315.0,13.80202982800015 L314.0,13.950775061878455 L313.0,14.09074858712512 L312.0,14.221639627510081 L311.0,14.343157572190957 L310.0,14.45503262094184 L309.0,14.557016383177228 L308.0,14.648882429441258 L307.0,14.730426794137726 L306.0,14.801468428384712 L305.0,14.861849601988382 L304.0,14.911436253643444 L303.0,14.95011828858279 L302.0,14.9778098230154 L301.0,14.99444937480985 L300.0,15.0 L299.0,14.99444937480985 L298.0,14.9778098230154 L297.0,14.95011828858279 L296.0,14.911436253643444 L295.0,14.861849601988382 L294.0,14.801468428384716 L293.0,14.730426794137724 L292.0,14.648882429441256 L291.0,14.557016383177224 L290.0,14.455032620941836 L289.0,14.343157572190956 L288.0,14.221639627510077 L287.0,14.090748587125118 L286.0,13.950775061878451 L285.0,13.802029828000158 L284.0,13.644843137107063 L283.0,13.479563982961576 L282.0,13.306559326618256 L281.0,13.12621328167852 L280.0,12.938926261462363 L279.0,12.745114089990661 L278.0,12.545207078751856 L277.0,12.339649071302864 L276.0,12.128896457825366 L275.0,11.913417161825457 L274.0,11.693689601226462 L273.0,11.470201626161522 L272.0,11.243449435824282 L271.0,11.01393647678256 L270.0,10.782172325201156 L269.0,10.548671555455226 L268.0,10.313952597646562 L267.0,10.078536586559105 L266.0,9.842946204609365 L265.0,9.60770452136078 L264.0,9.37333383217848 L263.0,9.140354498602958 L262.0,8.909283793017282 L261.0,8.680634750173136 L260.0,8.45491502812526 L259.0,8.23262578110371 L258.0,8.014260546826097 L257.0,7.80030415072043 L256.0,7.591231629491427 L255.0,7.387507176420256 L254.0,7.189583110739344 L253.0,6.997898873370581 L252.0,6.812880051256551 L251.0,6.634937432451137 L250.0,6.464466094067258 L249.0,6.3018445251069455 L248.0,6.14743378612105 L247.0,6.001576707564543 L246.0,5.8645971286271905 L245.0,5.7367991782295364 L244.0,5.618466599780683 L243.0,5.509862121196921 L242.0,5.411226871580096 L241.0,5.322779845850664 L240.0,5.244717418524228 L239.0,5.177212907711008 L238.0,5.120416190306261 L237.0,5.07445336922613 L236.0,5.0394264934276105 L235.0,5.0154133313343605 L234.0,5.002467198171342 L233.0,5.000616837591697 L232.0,5.009866357858642 L231.0,5.030195222724101 L230.0,5.061558297024311 L229.0,5.103885946891173 L228.0,5.1570841943568455 L227.0,5.221034926008351 L226.0,5.295596155228873 L225.0,5.380602337443568 L224.0,5.475864737669902 L223.0,5.581171849556534 L222.0,5.69628986498028 L221.0,5.820963193158648 L220.0,5.954915028125264 L219.0,6.097847963308354 L218.0,6.249444651847708 L217.0,6.4093685111840575 L216.0,6.57726447035656 L215.0,6.7527597583490815 L214.0,6.93546473173512 L213.0,7.124973739783605 L212.0,7.320866025105017 L211.0,7.522706657837965 L210.0,7.730047501302272 L209.0,7.942428206974457 L208.0,8.159377236576606 L207.0,8.380412909009259 L206.0,8.605044469803854 L205.0,8.832773180720476 L204.0,9.063093427071376 L203.0,9.295493840312089 L202.0,9.529458433407433 L201.0,9.764467746451794 L200.0,10.000000000000002 L199.0,10.23553225354821 L198.0,10.470541566592571 L197.0,10.704506159687915 L196.0,10.936906572928628 L195.0,11.167226819279527 L194.0,11.39495553019615 L193.0,11.619587090990752 L192.0,11.840622763423397 L191.0,12.057571793025547 L190.0,12.269952498697732 L189.0,12.477293342162039 L188.0,12.679133974894986 L187.0,12.87502626021639 L186.0,13.064535268264883 L185.0,13.247240241650921 L184.0,13.422735529643449 L183.0,13.590631488815951 L182.0,13.7505553481523 L181.0,13.902152036691648 L180.0,14.045084971874738 L179.0,14.179036806841355 L178.0,14.303710135019717 L177.0,14.418828150443463 L176.0,14.5241352623301 L175.0,14.619397662556437 L174.0,14.704403844771132 L173.0,14.778965073991653 L172.0,14.842915805643155 L171.0,14.896114053108828 L170.0,14.93844170297569 L169.0,14.969804777275899 L168.0,14.990133642141359 L167.0,14.999383162408304 L166.0,14.997532801828658 L165.0,14.984586668665639 L164.0,14.960573506572388 L163.0,14.92554663077387 L162.0,14.879583809693736 L161.0,14.82278709228899 L160.0,14.755282581475768 L159.0,14.677220154149335 L158.0,14.588773128419906 L157.0,14.490137878803077 L156.0,14.381533400219315 L155.0,14.263200821770461 L154.0,14.135402871372808 L153.0,13.998423292435454 L152.0,13.852566213878944 L151.0,13.698155474893046 L150.0,13.535533905932738 L149.0,13.365062567548867 L148.0,13.187119948743451 L147.0,13.002101126629423 L146.0,12.810416889260653 L145.0,12.61249282357974 L144.0,12.408768370508579 L143.0,12.199695849279575 L142.0,11.985739453173908 L141.0,11.767374218896283 L140.0,11.545084971874736 L139.0,11.319365249826864 L138.0,11.090716206982714 L137.0,10.85964550139705 L136.0,10.626666167821526 L135.0,10.392295478639225 L134.0,10.15705379539064 L133.0,9.9214634134409 L132.0,9.686047402353434 L131.0,9.451328444544771 L130.0,9.217827674798844 L129.0,8.986063523217437 L128.0,8.756550564175727 L127.0,8.529798373838478 L126.0,8.306310398773544 L125.0,8.086582838174548 L124.0,7.871103542174636 L123.0,7.660350928697133 L122.0,7.454792921248144 L121.0,7.254885910009343 L120.0,7.06107373853763 L119.0,6.873786718321471 L118.0,6.693440673381739 L117.0,6.520436017038428 L116.0,6.355156862892942 L115.0,6.197970171999846 L114.0,6.049224938121547 L113.0,5.909251412874882 L112.0,5.778360372489925 L111.0,5.656842427809045 L110.0,5.54496737905816 L109.0,5.442983616822772 L108.0,5.351117570558742 L107.0,5.269573205862273 L106.0,5.198531571615285 L105.0,5.138150398011616 L104.0,5.088563746356557 L103.0,5.049881711417212 L102.0,5.0221901769846 L101.0,5.00555062519015 L100.0,5.0 L99.0,5.00555062519015 L98.0,5.0221901769846 L97.0,5.049881711417212 L96.0,5.088563746356558 L95.0,5.138150398011617 L94.0,5.198531571615285 L93.0,5.269573205862273 L92.0,5.351117570558745 L91.0,5.442983616822775 L90.0,5.544967379058161 L89.0,5.6568424278090434 L88.0,5.778360372489926 L87.0,5.9092514128748865 L86.0,6.049224938121548 L85.0,6.197970171999847 L84.0,6.355156862892942 L83.0,6.520436017038427 L82.0,6.693440673381743 L81.0,6.873786718321476 L80.0,7.061073738537635 L79.0,7.254885910009341 L78.0,7.454792921248146 L77.0,7.6603509286971345 L76.0,7.871103542174639 L75.0,8.086582838174552 L74.0,8.306310398773542 L73.0,8.529798373838481 L72.0,8.756550564175726 L71.0,8.986063523217435 L70.0,9.217827674798846 L69.0,9.451328444544773 L68.0,9.68604740235343 L67.0,9.921463413440899 L66.0,10.157053795390642 L65.0,10.392295478639225 L64.0,10.62666616782152 L63.0,10.859645501397047 L62.0,11.090716206982714 L61.0,11.319365249826864 L60.0,11.54508497187474 L59.0,11.767374218896286 L58.0,11.985739453173903 L57.0,12.199695849279577 L56.0,12.408768370508575 L55.0,12.612492823579744 L54.0,12.810416889260654 L53.0,13.00210112662942 L52.0,13.187119948743447 L51.0,13.365062567548867 L50.0,13.535533905932738 L49.0,13.69815547489305 L48.0,13.852566213878948 L47.0,13.998423292435453 L46.0,14.135402871372811 L45.0,14.263200821770461 L44.0,14.381533400219318 L43.0,14.490137878803079 L42.0,14.588773128419906 L41.0,14.677220154149337 L40.0,14.755282581475768 L39.0,14.82278709228899 L38.0,14.879583809693738 L37.0,14.92554663077387 L36.0,14.960573506572388 L35.0,14.984586668665639 L34.0,14.997532801828658 L33.0,14.999383162408304 L32.0,14.990133642141359 L31.0,14.969804777275899 L30.0,14.938441702975688 L29.0,14.896114053108828 L28.0,14.842915805643155 L27.0,14.77896507399165 L26.0,14.704403844771129 L25.0,14.619397662556434 L24.0,14.524135262330098 L23.0,14.418828150443467 L22.0,14.303710135019717 L21.0,14.179036806841351 L20.0,14.045084971874736 L19.0,13.902152036691648 L18.0,13.750555348152298 L17.0,13.590631488815944 L16.0,13.422735529643443 L15.0,13.247240241650918 L14.0,13.064535268264883 L13.0,12.875026260216393 L12.0,12.679133974894983 L11.0,12.477293342162037 L10.0,12.269952498697734 L9.0,12.057571793025545 L8.0,11.84062276342339 L7.0,11.619587090990747 L6.0,11.394955530196146 L5.0,11.167226819279527 L4.0,10.936906572928622 L3.0,10.704506159687913 L2.0,10.470541566592571 L1.0,10.235532253548213 L0.0,10.0" stroke-width="5" stroke-linecap="round" stroke="#000000" fill="none"  />
<!-- Footer -->
</svg>
