<!-- Header -->
<svg
    version="1.1"
    baseProfile="full"
    xmlns="http://www.w3.org/2000/svg"
    xmlns:xlink="http://www.w3.org/1999/xlink"
    xmlns:ev="http://www.w3.org/2001/xml-events"
    width="400.0"
    height="20.0"
    viewBox="-2.0 -9.5 404.0 24.0"
    preserveAspectRatio="none"
>
<!-- Body -->
<!-- Path -->
<path d="M0.0,0.0 L1.0,1.1732584878017316 L2.0,2.3176274578121054 L3.0,3.4049287480466006 L4.0,4.408389392193548 L5.0,5.303300858899106 L6.0,6.067627457812106 L7.0,6.682548931412758 L8.0,7.132923872213651 L9.0,7.407662554463533 L10.0,7.5 L11.0,7.407662554463533 L12.0,7.132923872213652 L13.0,6.682548931412759 L14.0,6.067627457812106 L15.0,5.303300858899109 L16.0,4.408389392193549 L17.0,3.4049287480465984 L18.0,2.3176274578121063 L19.0,1.1732584878017323 L20.0,9.18485099360515e-16 L21.0,-1.1732584878017305 L22.0,-2.3176274578121046 L23.0,-3.404928748046597 L24.0,-4.4083893921935475 L25.0,-5.303300858899106 L26.0,-6.067627457812105 L27.0,-6.682548931412758 L28.0,-7.132923872213651 L29.0,-7.407662554463532 L30.0,-7.5 L31.0,-7.407662554463533 L32.0,-7.132923872213652 L33.0,-6.682548931412756 L34.0,-6.067627457812103 L35.0,-5.3033008588991075 L36.0,-4.40838939219355 L37.0,-3.4049287480465966 L38.0,-2.317627457812107 L39.0,-1.1732584878017334 L40.0,-1.83697019872103e-15 L41.0,1.173258487801723 L42.0,2.3176274578121037 L43.0,3.404928748046593 L44.0,4.408389392193547 L45.0,5.303300858899105 L46.0,6.067627457812101 L47.0,6.682548931412761 L48.0,7.132923872213651 L49.0,7.407662554463532 L50.0,7.5 L51.0,7.407662554463532 L52.0,7.132923872213652 L53.0,6.682548931412756 L54.0,6.067627457812106 L55.0,5.303300858899113 L56.0,4.40838939219355 L57.0,3.4049287480466095 L58.0,2.3176274578121085 L59.0,1.1732584878017407 L60.0,1.6078131593583422e-14 L61.0,-1.1732584878017354 L62.0,-2.3176274578121028 L63.0,-3.404928748046604 L64.0,-4.408389392193546 L65.0,-5.303300858899109 L66.0,-6.067627457812112 L67.0,-6.682548931412761 L68.0,-7.132923872213655 L69.0,-7.407662554463533 L70.0,-7.5 L71.0,-7.407662554463532 L72.0,-7.132923872213653 L73.0,-6.6825489314127635 L74.0,-6.0676274578121 L75.0,-5.303300858899114 L76.0,-4.408389392193551 L77.0,-3.404928748046598 L78.0,-2.317627457812109 L79.0,-1.1732584878017287 L80.0,-3.67394039744206e-15 L81.0,1.1732584878017214 L82.0,2.3176274578120895 L83.0,3.4049287480466153 L84.0,4.408389392193545 L85.0,5.303300858899108 L86.0,6.067627457812096 L87.0,6.682548931412755 L88.0,7.1329238722136505 L89.0,7.407662554463533 L90.0,7.5 L91.0,7.407662554463535 L92.0,7.132923872213658 L93.0,6.682548931412764 L94.0,6.0676274578121 L95.0,5.303300858899115 L96.0,4.408389392193552 L97.0,3.404928748046599 L98.0,2.31762745781211 L99.0,1.1732584878017294 L100.0,4.592425496802574e-15 L101.0,-1.1732584878017203 L102.0,-2.317627457812114 L103.0,-3.404928748046591 L104.0,-4.408389392193544 L105.0,-5.3033008588991075 L106.0,-6.067627457812111 L107.0,-6.682548931412754 L108.0,-7.1329238722136505 L109.0,-7.4076625544635295 L110.0,-7.5 L111.0,-7.40766255446353 L112.0,-7.132923872213653 L113.0,-6.682548931412758 L114.0,-6.067627457812117 L115.0,-5.303300858899096 L116.0,-4.408389392193553 L117.0,-3.4049287480465997 L118.0,-2.317627457812123 L119.0,-1.1732584878017436 L120.0,-3.2156263187166845e-14 L121.0,1.1732584878017325 L122.0,2.317627457812113 L123.0,3.40492874804659 L124.0,4.408389392193543 L125.0,5.303300858899089 L126.0,6.06762745781211 L127.0,6.682548931412754 L128.0,7.13292387221365 L129.0,7.407662554463533 L130.0,7.5 L131.0,7.407662554463535 L132.0,7.132923872213645 L133.0,6.682548931412758 L134.0,6.067627457812102 L135.0,5.3033008588991155 L136.0,4.4083893921935315 L137.0,3.4049287480466006 L138.0,2.3176274578120992 L139.0,1.173258487801718 L140.0,6.429395695523604e-15 L141.0,-1.1732584878017054 L142.0,-2.317627457812112 L143.0,-3.404928748046613 L144.0,-4.408389392193543 L145.0,-5.303300858899107 L146.0,-6.067627457812094 L147.0,-6.682548931412765 L148.0,-7.1329238722136585 L149.0,-7.407662554463533 L150.0,-7.5 L151.0,-7.407662554463535 L152.0,-7.132923872213654 L153.0,-6.682548931412759 L154.0,-6.067627457812102 L155.0,-5.3033008588991155 L156.0,-4.408389392193555 L157.0,-3.404928748046625 L158.0,-2.3176274578121 L159.0,-1.1732584878017454 L160.0,-7.34788079488412e-15 L161.0,1.173258487801731 L162.0,2.317627457812086 L163.0,3.4049287480465646 L164.0,4.408389392193521 L165.0,5.303300858899087 L166.0,6.067627457812125 L167.0,6.682548931412764 L168.0,7.13292387221365 L169.0,7.407662554463532 L170.0,7.5 L171.0,7.407662554463535 L172.0,7.132923872213662 L173.0,6.6825489314127715 L174.0,6.067627457812119 L175.0,5.303300858899136 L176.0,4.4083893921935555 L177.0,3.4049287480466024 L178.0,2.317627457812101 L179.0,1.1732584878017198 L180.0,8.266365894244635e-15 L181.0,-1.1732584878017036 L182.0,-2.317627457812085 L183.0,-3.4049287480465877 L184.0,-4.40838939219352 L185.0,-5.303300858899105 L186.0,-6.067627457812092 L187.0,-6.682548931412764 L188.0,-7.132923872213658 L189.0,-7.407662554463532 L190.0,-7.5 L191.0,-7.407662554463536 L192.0,-7.132923872213655 L193.0,-6.6825489314127715 L194.0,-6.067627457812104 L195.0,-5.303300858899117 L196.0,-4.408389392193556 L197.0,-3.404928748046627 L198.0,-2.317627457812102 L199.0,-1.1732584878017471 L200.0,-9.184850993605149e-15 L201.0,1.173258487801729 L202.0,2.317627457812084 L203.0,3.4049287480466104 L204.0,4.408389392193563 L205.0,5.303300858899086 L206.0,6.067627457812092 L207.0,6.682548931412752 L208.0,7.132923872213649 L209.0,7.407662554463532 L210.0,7.5 L211.0,7.40766255446354 L212.0,7.132923872213646 L213.0,6.682548931412748 L214.0,6.067627457812119 L215.0,5.303300858899118 L216.0,4.408389392193557 L217.0,3.404928748046604 L218.0,2.3176274578121534 L219.0,1.1732584878017218 L220.0,3.674868868396942e-14 L221.0,-1.1732584878017545 L222.0,-2.3176274578121343 L223.0,-3.404928748046586 L224.0,-4.40838939219354 L225.0,-5.303300858899103 L226.0,-6.067627457812107 L227.0,-6.6825489314127395 L228.0,-7.132923872213641 L229.0,-7.407662554463529 L230.0,-7.5 L231.0,-7.407662554463528 L232.0,-7.132923872213655 L233.0,-6.682548931412761 L234.0,-6.0676274578121046 L235.0,-5.3033008588991 L236.0,-4.408389392193579 L237.0,-3.4049287480466286 L238.0,-2.317627457812129 L239.0,-1.173258487801749 L240.0,-6.431252637433369e-14 L241.0,1.1732584878017271 L242.0,2.317627457812108 L243.0,3.404928748046609 L244.0,4.408389392193561 L245.0,5.303300858899084 L246.0,6.067627457812091 L247.0,6.682548931412751 L248.0,7.132923872213648 L249.0,7.407662554463524 L250.0,7.5 L251.0,7.407662554463531 L252.0,7.132923872213647 L253.0,6.682548931412749 L254.0,6.06762745781212 L255.0,5.303300858899082 L256.0,4.408389392193557 L257.0,3.4049287480466055 L258.0,2.317627457812104 L259.0,1.1732584878017236 L260.0,-1.470504629931706e-14 L261.0,-1.1732584878016998 L262.0,-2.317627457812082 L263.0,-3.4049287480466317 L264.0,-4.408389392193582 L265.0,-5.303300858899103 L266.0,-6.067627457812106 L267.0,-6.682548931412763 L268.0,-7.132923872213657 L269.0,-7.407662554463537 L270.0,-7.5 L271.0,-7.407662554463536 L272.0,-7.132923872213639 L273.0,-6.682548931412738 L274.0,-6.067627457812105 L275.0,-5.303300858899101 L276.0,-4.408389392193537 L277.0,-3.404928748046583 L278.0,-2.3176274578120797 L279.0,-1.1732584878017507 L280.0,-1.2858791391047208e-14 L281.0,1.1732584878017254 L282.0,2.3176274578120557 L283.0,3.4049287480466073 L284.0,4.408389392193559 L285.0,5.303300858899121 L286.0,6.067627457812121 L287.0,6.682548931412774 L288.0,7.132923872213647 L289.0,7.407662554463531 L290.0,7.5 L291.0,7.40766255446354 L292.0,7.132923872213664 L293.0,6.682548931412774 L294.0,6.06762745781209 L295.0,5.303300858899083 L296.0,4.408389392193516 L297.0,3.4049287480466073 L298.0,2.317627457812106 L299.0,1.1732584878017254 L300.0,4.042262908141148e-14 L301.0,-1.1732584878016983 L302.0,-2.3176274578120797 L303.0,-3.404928748046583 L304.0,-4.408389392193537 L305.0,-5.303300858899139 L306.0,-6.067627457812105 L307.0,-6.682548931412762 L308.0,-7.132923872213656 L309.0,-7.407662554463528 L310.0,-7.5 L311.0,-7.407662554463537 L312.0,-7.132923872213657 L313.0,-6.682548931412763 L314.0,-6.067627457812137 L315.0,-5.303300858899103 L316.0,-4.408389392193539 L317.0,-3.404928748046584 L318.0,-2.317627457812132 L319.0,-1.1732584878017525 L320.0,-1.469576158976824e-14 L321.0,1.1732584878017236 L322.0,2.317627457812104 L323.0,3.404928748046558 L324.0,4.4083893921935156 L325.0,5.303300858899082 L326.0,6.0676274578120575 L327.0,6.682548931412749 L328.0,7.132923872213631 L329.0,7.407662554463531 L330.0,7.5 L331.0,7.407662554463532 L332.0,7.132923872213632 L333.0,6.682548931412775 L334.0,6.067627457812091 L335.0,5.303300858899159 L336.0,4.408389392193561 L337.0,3.4049287480466566 L338.0,2.317627457812108 L339.0,1.1732584878017798 L340.0,-1.1031105901875003e-14 L341.0,-1.1732584878016437 L342.0,-2.317627457812078 L343.0,-3.4049287480466286 L344.0,-4.4083893921934925 L345.0,-5.3033008588991 L346.0,-6.067627457812073 L347.0,-6.682548931412761 L348.0,-7.132923872213639 L349.0,-7.407662554463536 L350.0,-7.5 L351.0,-7.407662554463537 L352.0,-7.132923872213657 L353.0,-6.6825489314127875 L354.0,-6.067627457812107 L355.0,-5.303300858899142 L356.0,-4.40838939219354 L357.0,-3.4049287480466335 L358.0,-2.3176274578120832 L359.0,-1.173258487801807 L360.0,-1.653273178848927e-14 L361.0,1.1732584878017218 L362.0,2.3176274578120517 L363.0,3.404928748046604 L364.0,4.408389392193514 L365.0,5.303300858899117 L366.0,6.067627457812088 L367.0,6.682548931412772 L368.0,7.13292387221363 L369.0,7.407662554463531 L370.0,7.5 L371.0,7.407662554463541 L372.0,7.132923872213666 L373.0,6.682548931412776 L374.0,6.067627457812092 L375.0,5.3033008588991235 L376.0,4.408389392193519 L377.0,3.404928748046658 L378.0,2.3176274578121094 L379.0,1.173258487801729 L380.0,4.409656947885354e-14 L381.0,-1.1732584878016945 L382.0,-2.317627457812076 L383.0,-3.4049287480465793 L384.0,-4.408389392193534 L385.0,-5.303300858899137 L386.0,-6.067627457812072 L387.0,-6.68254893141276 L388.0,-7.132923872213655 L389.0,-7.407662554463527 L390.0,-7.5 L391.0,-7.407662554463537 L392.0,-7.132923872213658 L393.0,-6.682548931412764 L394.0,-6.06762745781214 L395.0,-5.303300858899142 L396.0,-4.408389392193542 L397.0,-3.4049287480465873 L398.0,-2.3176274578121356 L399.0,-1.1732584878017562 L400.0,-1.8369701987210297e-14 L400.0,4.999999999999981 L399.0,3.826741512198244 L398.0,2.6823725421878644 L397.0,1.5950712519534127 L396.0,0.5916106078064578 L395.0,-0.30330085889914216 L394.0,-1.06762745781214 L393.0,-1.6825489314127644 L392.0,-2.1329238722136576 L391.0,-2.4076625544635366 L390.0,-2.5 L389.0,-2.407662554463527 L388.0,-2.132923872213655 L387.0,-1.68254893141276 L386.0,-1.0676274578120717 L385.0,-0.3033008588991368 L384.0,0.5916106078064658 L383.0,1.5950712519534207 L382.0,2.682372542187924 L381.0,3.8267415121983053 L380.0,5.000000000000044 L379.0,6.1732584878017285 L378.0,7.31762745781211 L377.0,8.404928748046657 L376.0,9.40838939219352 L375.0,10.303300858899124 L374.0,11.067627457812092 L373.0,11.682548931412775 L372.0,12.132923872213667 L371.0,12.407662554463542 L370.0,12.5 L369.0,12.407662554463531 L368.0,12.132923872213631 L367.0,11.682548931412772 L366.0,11.067627457812087 L365.0,10.303300858899117 L364.0,9.408389392193513 L363.0,8.404928748046604 L362.0,7.317627457812051 L361.0,6.173258487801721 L360.0,4.999999999999983 L359.0,3.826741512198193 L358.0,2.6823725421879168 L357.0,1.5950712519533665 L356.0,0.5916106078064596 L355.0,-0.30330085889914216 L354.0,-1.0676274578121072 L353.0,-1.6825489314127875 L352.0,-2.1329238722136568 L351.0,-2.4076625544635366 L350.0,-2.5 L349.0,-2.4076625544635357 L348.0,-2.132923872213639 L347.0,-1.6825489314127609 L346.0,-1.0676274578120726 L345.0,-0.3033008588991004 L344.0,0.5916106078065075 L343.0,1.5950712519533714 L342.0,2.682372542187922 L341.0,3.8267415121983563 L340.0,4.999999999999989 L339.0,6.17325848780178 L338.0,7.317627457812108 L337.0,8.404928748046657 L336.0,9.40838939219356 L335.0,10.30330085889916 L334.0,11.06762745781209 L333.0,11.682548931412775 L332.0,12.132923872213631 L331.0,12.407662554463531 L330.0,12.5 L329.0,12.407662554463531 L328.0,12.132923872213631 L327.0,11.68254893141275 L326.0,11.067627457812058 L325.0,10.303300858899082 L324.0,9.408389392193516 L323.0,8.404928748046558 L322.0,7.3176274578121046 L321.0,6.173258487801723 L320.0,4.999999999999985 L319.0,3.8267415121982475 L318.0,2.682372542187868 L317.0,1.5950712519534158 L316.0,0.5916106078064614 L315.0,-0.3033008588991031 L314.0,-1.0676274578121374 L313.0,-1.6825489314127626 L312.0,-2.1329238722136568 L311.0,-2.4076625544635366 L310.0,-2.5 L309.0,-2.4076625544635277 L308.0,-2.132923872213656 L307.0,-1.6825489314127617 L306.0,-1.0676274578121054 L305.0,-0.3033008588991386 L304.0,0.5916106078064631 L303.0,1.5950712519534171 L302.0,2.6823725421879203 L301.0,3.8267415121983017 L300.0,5.000000000000041 L299.0,6.173258487801725 L298.0,7.317627457812106 L297.0,8.404928748046608 L296.0,9.408389392193516 L295.0,10.303300858899082 L294.0,11.06762745781209 L293.0,11.682548931412775 L292.0,12.132923872213663 L291.0,12.40766255446354 L290.0,12.5 L289.0,12.407662554463531 L288.0,12.132923872213647 L287.0,11.682548931412775 L286.0,11.067627457812122 L285.0,10.30330085889912 L284.0,9.408389392193559 L283.0,8.404928748046608 L282.0,7.317627457812056 L281.0,6.173258487801725 L280.0,4.999999999999988 L279.0,3.8267415121982493 L278.0,2.6823725421879203 L277.0,1.5950712519534171 L276.0,0.5916106078064631 L275.0,-0.3033008588991013 L274.0,-1.0676274578121054 L273.0,-1.6825489314127378 L272.0,-2.132923872213639 L271.0,-2.4076625544635357 L270.0,-2.5 L269.0,-2.4076625544635366 L268.0,-2.1329238722136568 L267.0,-1.6825489314127626 L266.0,-1.0676274578121063 L265.0,-0.3033008588991031 L264.0,0.5916106078064178 L263.0,1.5950712519533683 L262.0,2.682372542187918 L261.0,3.8267415121983 L260.0,4.999999999999985 L259.0,6.173258487801723 L258.0,7.3176274578121046 L257.0,8.404928748046606 L256.0,9.408389392193557 L255.0,10.303300858899082 L254.0,11.067627457812119 L253.0,11.68254893141275 L252.0,12.132923872213647 L251.0,12.407662554463531 L250.0,12.5 L249.0,12.407662554463524 L248.0,12.132923872213649 L247.0,11.68254893141275 L246.0,11.06762745781209 L245.0,10.303300858899085 L244.0,9.40838939219356 L243.0,8.40492874804661 L242.0,7.317627457812108 L241.0,6.173258487801727 L240.0,4.999999999999936 L239.0,3.826741512198251 L238.0,2.682372542187871 L237.0,1.5950712519533714 L236.0,0.5916106078064214 L235.0,-0.3033008588991004 L234.0,-1.0676274578121046 L233.0,-1.6825489314127609 L232.0,-2.132923872213655 L231.0,-2.4076625544635277 L230.0,-2.5 L229.0,-2.4076625544635286 L228.0,-2.1329238722136408 L227.0,-1.6825489314127395 L226.0,-1.0676274578121072 L225.0,-0.3033008588991031 L224.0,0.5916106078064596 L223.0,1.595071251953414 L222.0,2.6823725421878657 L221.0,3.8267415121982458 L220.0,5.000000000000036 L219.0,6.173258487801721 L218.0,7.317627457812153 L217.0,8.404928748046604 L216.0,9.408389392193557 L215.0,10.303300858899117 L214.0,11.067627457812119 L213.0,11.682548931412748 L212.0,12.132923872213645 L211.0,12.40766255446354 L210.0,12.5 L209.0,12.407662554463531 L208.0,12.132923872213649 L207.0,11.682548931412752 L206.0,11.067627457812092 L205.0,10.303300858899085 L204.0,9.408389392193563 L203.0,8.404928748046611 L202.0,7.317627457812084 L201.0,6.1732584878017285 L200.0,4.999999999999991 L199.0,3.826741512198253 L198.0,2.682372542187898 L197.0,1.5950712519533732 L196.0,0.5916106078064436 L195.0,-0.3033008588991173 L194.0,-1.0676274578121037 L193.0,-1.6825489314127715 L192.0,-2.132923872213655 L191.0,-2.4076625544635357 L190.0,-2.5 L189.0,-2.407662554463532 L188.0,-2.1329238722136576 L187.0,-1.6825489314127644 L186.0,-1.0676274578120921 L185.0,-0.30330085889910485 L184.0,0.59161060780648 L183.0,1.5950712519534123 L182.0,2.682372542187915 L181.0,3.8267415121982964 L180.0,5.000000000000008 L179.0,6.17325848780172 L178.0,7.317627457812101 L177.0,8.404928748046602 L176.0,9.408389392193556 L175.0,10.303300858899135 L174.0,11.067627457812119 L173.0,11.682548931412772 L172.0,12.132923872213663 L171.0,12.407662554463535 L170.0,12.5 L169.0,12.407662554463531 L168.0,12.132923872213649 L167.0,11.682548931412764 L166.0,11.067627457812126 L165.0,10.303300858899087 L164.0,9.40838939219352 L163.0,8.404928748046565 L162.0,7.317627457812086 L161.0,6.173258487801731 L160.0,4.999999999999993 L159.0,3.8267415121982546 L158.0,2.6823725421879 L157.0,1.595071251953375 L156.0,0.5916106078064454 L155.0,-0.3033008588991155 L154.0,-1.0676274578121019 L153.0,-1.682548931412759 L152.0,-2.132923872213654 L151.0,-2.407662554463535 L150.0,-2.5 L149.0,-2.407662554463533 L148.0,-2.1329238722136585 L147.0,-1.6825489314127653 L146.0,-1.067627457812094 L145.0,-0.30330085889910663 L144.0,0.5916106078064569 L143.0,1.595071251953387 L142.0,2.682372542187888 L141.0,3.8267415121982946 L140.0,5.000000000000006 L139.0,6.173258487801718 L138.0,7.317627457812099 L137.0,8.4049287480466 L136.0,9.40838939219353 L135.0,10.303300858899116 L134.0,11.067627457812101 L133.0,11.682548931412757 L132.0,12.132923872213645 L131.0,12.407662554463535 L130.0,12.5 L129.0,12.407662554463533 L128.0,12.132923872213649 L127.0,11.682548931412754 L126.0,11.06762745781211 L125.0,10.303300858899089 L124.0,9.408389392193543 L123.0,8.40492874804659 L122.0,7.317627457812113 L121.0,6.173258487801732 L120.0,4.999999999999968 L119.0,3.8267415121982564 L118.0,2.682372542187877 L117.0,1.5950712519534003 L116.0,0.5916106078064471 L115.0,-0.30330085889909597 L114.0,-1.067627457812117 L113.0,-1.6825489314127582 L112.0,-2.132923872213653 L111.0,-2.4076625544635304 L110.0,-2.5 L109.0,-2.4076625544635295 L108.0,-2.1329238722136505 L107.0,-1.6825489314127537 L106.0,-1.0676274578121108 L105.0,-0.3033008588991075 L104.0,0.591610607806456 L103.0,1.5950712519534092 L102.0,2.682372542187886 L101.0,3.8267415121982795 L100.0,5.000000000000004 L99.0,6.173258487801729 L98.0,7.31762745781211 L97.0,8.404928748046599 L96.0,9.408389392193552 L95.0,10.303300858899114 L94.0,11.067627457812101 L93.0,11.682548931412764 L92.0,12.132923872213658 L91.0,12.407662554463535 L90.0,12.5 L89.0,12.407662554463533 L88.0,12.13292387221365 L87.0,11.682548931412754 L86.0,11.067627457812096 L85.0,10.303300858899108 L84.0,9.408389392193545 L83.0,8.404928748046615 L82.0,7.3176274578120895 L81.0,6.173258487801721 L80.0,4.9999999999999964 L79.0,3.8267415121982715 L78.0,2.682372542187891 L77.0,1.595071251953402 L76.0,0.5916106078064489 L75.0,-0.30330085889911373 L74.0,-1.0676274578121001 L73.0,-1.6825489314127635 L72.0,-2.132923872213653 L71.0,-2.407662554463532 L70.0,-2.5 L69.0,-2.407662554463533 L68.0,-2.132923872213655 L67.0,-1.6825489314127609 L66.0,-1.0676274578121117 L65.0,-0.3033008588991093 L64.0,0.5916106078064542 L63.0,1.5950712519533958 L62.0,2.6823725421878972 L61.0,3.8267415121982644 L60.0,5.000000000000016 L59.0,6.173258487801741 L58.0,7.317627457812108 L57.0,8.40492874804661 L56.0,9.40838939219355 L55.0,10.303300858899114 L54.0,11.067627457812106 L53.0,11.682548931412757 L52.0,12.132923872213652 L51.0,12.407662554463531 L50.0,12.5 L49.0,12.407662554463531 L48.0,12.132923872213652 L47.0,11.68254893141276 L46.0,11.067627457812101 L45.0,10.303300858899105 L44.0,9.408389392193547 L43.0,8.404928748046594 L42.0,7.317627457812104 L41.0,6.173258487801723 L40.0,4.999999999999998 L39.0,3.8267415121982666 L38.0,2.682372542187893 L37.0,1.5950712519534034 L36.0,0.5916106078064498 L35.0,-0.3033008588991075 L34.0,-1.0676274578121028 L33.0,-1.6825489314127564 L32.0,-2.1329238722136523 L31.0,-2.407662554463533 L30.0,-2.5 L29.0,-2.407662554463532 L28.0,-2.1329238722136514 L27.0,-1.6825489314127582 L26.0,-1.0676274578121054 L25.0,-0.30330085889910574 L24.0,0.5916106078064525 L23.0,1.595071251953403 L22.0,2.6823725421878954 L21.0,3.8267415121982697 L20.0,5.000000000000001 L19.0,6.173258487801732 L18.0,7.317627457812106 L17.0,8.404928748046599 L16.0,9.408389392193548 L15.0,10.30330085889911 L14.0,11.067627457812106 L13.0,11.682548931412759 L12.0,12.132923872213652 L11.0,12.407662554463533 L10.0,12.5 L9.0,12.407662554463533 L8.0,12.132923872213652 L7.0,11.682548931412757 L6.0,11.067627457812106 L5.0,10.303300858899107 L4.0,9.408389392193548 L3.0,8.4049287480466 L2.0,7.317627457812105 L1.0,6.173258487801732 L0.0,5.0" fill="#FFFFFF"  />
<!-- Path -->
<path d="M0.0,0.0 L1.0,1.1732584878017316 L2.0,2.3176274578121054 L3.0,3.4049287480466006 L4.0,4.408389392193548 L5.0,5.303300858899106 L6.0,6.067627457812106 L7.0,6.682548931412758 L8.0,7.132923872213651 L9.0,7.407662554463533 L10.0,7.5 L11.0,7.407662554463533 L12.0,7.132923872213652 L13.0,6.682548931412759 L14.0,6.067627457812106 L15.0,5.303300858899109 L16.0,4.408389392193549 L17.0,3.4049287480465984 L18.0,2.3176274578121063 L19.0,1.1732584878017323 L20.0,9.18485099360515e-16 L21.0,-1.1732584878017305 L22.0,-2.3176274578121046 L23.0,-3.404928748046597 L24.0,-4.4083893921935475 L25.0,-5.303300858899106 L26.0,-6.067627457812105 L27.0,-6.682548931412758 L28.0,-7.132923872213651 L29.0,-7.407662554463532 L30.0,-7.5 L31.0,-7.407662554463533 L32.0,-7.132923872213652 L33.0,-6.682548931412756 L34.0,-6.067627457812103 L35.0,-5.3033008588991075 L36.0,-4.40838939219355 L37.0,-3.4049287480465966 L38.0,-2.317627457812107 L39.0,-1.1732584878017334 L40.0,-1.83697019872103e-15 L41.0,1.173258487801723 L42.0,2.3176274578121037 L43.0,3.404928748046593 L44.0,4.408389392193547 L45.0,5.303300858899105 L46.0,6.067627457812101 L47.0,6.682548931412761 L48.0,7.132923872213651 L49.0,7.407662554463532 L50.0,7.5 L51.0,7.407662554463532 L52.0,7.132923872213652 L53.0,6.682548931412756 L54.0,6.067627457812106 L55.0,5.303300858899113 L56.0,4.40838939219355 L57.0,3.4049287480466095 L58.0,2.3176274578121085 L59.0,1.1732584878017407 L60.0,1.6078131593583422e-14 L61.0,-1.1732584878017354 L62.0,-2.3176274578121028 L63.0,-3.404928748046604 L64.0,-4.408389392193546 L65.0,-5.303300858899109 L66.0,-6.067627457812112 L67.0,-6.682548931412761 L68.0,-7.132923872213655 L69.0,-7.407662554463533 L70.0,-7.5 L71.0,-7.407662554463532 L72.0,-7.132923872213653 L73.0,-6.6825489314127635 L74.0,-6.0676274578121 L75.0,-5.303300858899114 L76.0,-4.408389392193551 L77.0,-3.404928748046598 L78.0,-2.317627457812109 L79.0,-1.1732584878017287 L80.0,-3.67394039744206e-15 L81.0,1.1732584878017214 L82.0,2.3176274578120895 L83.0,3.4049287480466153 L84.0,4.408389392193545 L85.0,5.303300858899108 L86.0,6.067627457812096 L87.0,6.682548931412755 L88.0,7.1329238722136505 L89.0,7.407662554463533 L90.0,7.5 L91.0,7.407662554463535 L92.0,7.132923872213658 L93.0,6.682548931412764 L94.0,6.0676274578121 L95.0,5.303300858899115 L96.0,4.408389392193552 L97.0,3.404928748046599 L98.0,2.31762745781211 L99.0,1.1732584878017294 L100.0,4.592425496802574e-15 L101.0,-1.1732584878017203 L102.0,-2.317627457812114 L103.0,-3.404928748046591 L104.0,-4.408389392193544 L105.0,-5.3033008588991075 L106.0,-6.067627457812111 L107.0,-6.682548931412754 L108.0,-7.1329238722136505 L109.0,-7.4076625544635295 L110.0,-7.5 L111.0,-7.40766255446353 L112.0,-7.132923872213653 L113.0,-6.682548931412758 L114.0,-6.067627457812117 L115.0,-5.303300858899096 L116.0,-4.408389392193553 L117.0,-3.4049287480465997 L118.0,-2.317627457812123 L119.0,-1.1732584878017436 L120.0,-3.2156263187166845e-14 L121.0,1.1732584878017325 L122.0,2.317627457812113 L123.0,3.40492874804659 L124.0,4.408389392193543 L125.0,5.303300858899089 L126.0,6.06762745781211 L127.0,6.682548931412754 L128.0,7.13292387221365 L129.0,7.407662554463533 L130.0,7.5 L131.0,7.407662554463535 L132.0,7.132923872213645 L133.0,6.682548931412758 L134.0,6.067627457812102 L135.0,5.3033008588991155 L136.0,4.4083893921935315 L137.0,3.4049287480466006 L138.0,2.3176274578120992 L139.0,1.173258487801718 L140.0,6.429395695523604e-15 L141.0,-1.1732584878017054 L142.0,-2.317627457812112 L143.0,-3.404928748046613 L144.0,-4.408389392193543 L145.0,-5.303300858899107 L146.0,-6.067627457812094 L147.0,-6.682548931412765 L148.0,-7.1329238722136585 L149.0,-7.407662554463533 L150.0,-7.5 L151.0,-7.407662554463535 L152.0,-7.132923872213654 L153.0,-6.682548931412759 L154.0,-6.067627457812102 L155.0,-5.3033008588991155 L156.0,-4.408389392193555 L157.0,-3.404928748046625 L158.0,-2.3176274578121 L159.0,-1.1732584878017454 L160.0,-7.34788079488412e-15 L161.0,1.173258487801731 L162.0,2.317627457812086 L163.0,3.4049287480465646 L164.0,4.408389392193521 L165.0,5.303300858899087 L166.0,6.067627457812125 L167.0,6.682548931412764 L168.0,7.13292387221365 L169.0,7.407662554463532 L170.0,7.5 L171.0,7.407662554463535 L172.0,7.132923872213662 L173.0,6.6825489314127715 L174.0,6.067627457812119 L175.0,5.303300858899136 L176.0,4.4083893921935555 L177.0,3.4049287480466024 L178.0,2.317627457812101 L179.0,1.1732584878017198 L180.0,8.266365894244635e-15 L181.0,-1.1732584878017036 L182.0,-2.317627457812085 L183.0,-3.4049287480465877 L184.0,-4.40838939219352 L185.0,-5.303300858899105 L186.0,-6.067627457812092 L187.0,-6.682548931412764 L188.0,-7.132923872213658 L189.0,-7.407662554463532 L190.0,-7.5 L191.0,-7.407662554463536 L192.0,-7.132923872213655 L193.0,-6.6825489314127715 L194.0,-6.067627457812104 L195.0,-5.303300858899117 L196.0,-4.408389392193556 L197.0,-3.404928748046627 L198.0,-2.317627457812102 L199.0,-1.1732584878017471 L200.0,-9.184850993605149e-15 L201.0,1.173258487801729 L202.0,2.317627457812084 L203.0,3.4049287480466104 L204.0,4.408389392193563 L205.0,5.303300858899086 L206.0,6.067627457812092 L207.0,6.682548931412752 L208.0,7.132923872213649 L209.0,7.407662554463532 L210.0,7.5 L211.0,7.40766255446354 L212.0,7.132923872213646 L213.0,6.682548931412748 L214.0,6.067627457812119 L215.0,5.303300858899118 L216.0,4.408389392193557 L217.0,3.404928748046604 L218.0,2.3176274578121534 L219.0,1.1732584878017218 L220.0,3.674868868396942e-14 L221.0,-1.1732584878017545 L222.0,-2.3176274578121343 L223.0,-3.404928748046586 L224.0,-4.40838939219354 L225.0,-5.303300858899103 L226.0,-6.067627457812107 L227.0,-6.6825489314127395 L228.0,-7.132923872213641 L229.0,-7.407662554463529 L230.0,-7.5 L231.0,-7.407662554463528 L232.0,-7.132923872213655 L233.0,-6.682548931412761 L234.0,-6.0676274578121046 L235.0,-5.3033008588991 L236.0,-4.408389392193579 L237.0,-3.4049287480466286 L238.0,-2.317627457812129 L239.0,-1.173258487801749 L240.0,-6.431252637433369e-14 L241.0,1.1732584878017271 L242.0,2.317627457812108 L243.0,3.404928748046609 L244.0,4.408389392193561 L245.0,5.303300858899084 L246.0,6.067627457812091 L247.0,6.682548931412751 L248.0,7.132923872213648 L249.0,7.407662554463524 L250.0,7.5 L251.0,7.407662554463531 L252.0,7.132923872213647 L253.0,6.682548931412749 L254.0,6.06762745781212 L255.0,5.303300858899082 L256.0,4.408389392193557 L257.0,3.4049287480466055 L258.0,2.317627457812104 L259.0,1.1732584878017236 L260.0,-1.470504629931706e-14 L261.0,-1.1732584878016998 L262.0,-2.317627457812082 L263.0,-3.4049287480466317 L264.0,-4.408389392193582 L265.0,-5.303300858899103 L266.0,-6.067627457812106 L267.0,-6.682548931412763 L268.0,-7.132923872213657 L269.0,-7.407662554463537 L270.0,-7.5 L271.0,-7.407662554463536 L272.0,-7.132923872213639 L273.0,-6.682548931412738 L274.0,-6.067627457812105 L275.0,-5.303300858899101 L276.0,-4.408389392193537 L277.0,-3.404928748046583 L278.0,-2.3176274578120797 L279.0,-1.1732584878017507 L280.0,-1.2858791391047208e-14 L281.0,1.1732584878017254 L282.0,2.3176274578120557 L283.0,3.4049287480466073 L284.0,4.408389392193559 L285.0,5.303300858899121 L286.0,6.067627457812121 L287.0,6.682548931412774 L288.0,7.132923872213647 L289.0,7.407662554463531 L290.0,7.5 L291.0,7.40766255446354 L292.0,7.132923872213664 L293.0,6.682548931412774 L294.0,6.06762745781209 L295.0,5.303300858899083 L296.0,4.408389392193516 L297.0,3.4049287480466073 L298.0,2.317627457812106 L299.0,1.1732584878017254 L300.0,4.042262908141148e-14 L301.0,-1.1732584878016983 L302.0,-2.3176274578120797 L303.0,-3.404928748046583 L304.0,-4.408389392193537 L305.0,-5.303300858899139 L306.0,-6.067627457812105 L307.0,-6.682548931412762 L308.0,-7.132923872213656 L309.0,-7.407662554463528 L310.0,-7.5 L311.0,-7.407662554463537 L312.0,-7.132923872213657 L313.0,-6.682548931412763 L314.0,-6.067627457812137 L315.0,-5.303300858899103 L316.0,-4.408389392193539 L317.0,-3.404928748046584 L318.0,-2.317627457812132 L319.0,-1.1732584878017525 L320.0,-1.469576158976824e-14 L321.0,1.1732584878017236 L322.0,2.317627457812104 L323.0,3.404928748046558 L324.0,4.4083893921935156 L325.0,5.303300858899082 L326.0,6.0676274578120575 L327.0,6.682548931412749 L328.0,7.132923872213631 L329.0,7.407662554463531 L330.0,7.5 L331.0,7.407662554463532 L332.0,7.132923872213632 L333.0,6.682548931412775 L334.0,6.067627457812091 L335.0,5.303300858899159 L336.0,4.408389392193561 L337.0,3.4049287480466566 L338.0,2.317627457812108 L339.0,1.1732584878017798 L340.0,-1.1031105901875003e-14 L341.0,-1.1732584878016437 L342.0,-2.317627457812078 L343.0,-3.4049287480466286 L344.0,-4.4083893921934925 L345.0,-5.3033008588991 L346.0,-6.067627457812073 L347.0,-6.682548931412761 L348.0,-7.132923872213639 L349.0,-7.407662554463536 L350.0,-7.5 L351.0,-7.407662554463537 L352.0,-7.132923872213657 L353.0,-6.6825489314127875 L354.0,-6.067627457812107 L355.0,-5.303300858899142 L356.0,-4.40838939219354 L357.0,-3.4049287480466335 L358.0,-2.3176274578120832 L359.0,-1.173258487801807 L360.0,-1.653273178848927e-14 L361.0,1.1732584878017218 L362.0,2.3176274578120517 L363.0,3.404928748046604 L364.0,4.408389392193514 L365.0,5.303300858899117 L366.0,6.067627457812088 L367.0,6.682548931412772 L368.0,7.13292387221363 L369.0,7.407662554463531 L370.0,7.5 L371.0,7.407662554463541 L372.0,7.132923872213666 L373.0,6.682548931412776 L374.0,6.067627457812092 L375.0,5.3033008588991235 L376.0,4.408389392193519 L377.0,3.404928748046658 L378.0,2.3176274578121094 L379.0,1.173258487801729 L380.0,4.409656947885354e-14 L381.0,-1.1732584878016945 L382.0,-2.317627457812076 L383.0,-3.4049287480465793 L384.0,-4.408389392193534 L385.0,-5.303300858899137 L386.0,-6.067627457812072 L387.0,-6.68254893141276 L388.0,-7.132923872213655 L389.0,-7.407662554463527 L390.0,-7.5 L391.0,-7.407662554463537 L392.0,-7.132923872213658 L393.0,-6.682548931412764 L394.0,-6.06762745781214 L395.0,-5.303300858899142 L396.0,-4.408389392193542 L397.0,-3.4049287480465873 L398.0,-2.3176274578121356 L399.0,-1.1732584878017562 L400.0,-1.8369701987210297e-14" stroke-width="4" stroke-linecap="round" stroke="#000000" fill="none"  />
<!-- Path -->
<path d="M400.0,4.999999999999981 L399.0,3.826741512198244 L398.0,2.6823725421878644 L397.0,1.5950712519534127 L396.0,0.5916106078064578 L395.0,-0.30330085889914216 L394.0,-1.06762745781214 L393.0,-1.6825489314127644 L392.0,-2.1329238722136576 L391.0,-2.4076625544635366 L390.0,-2.5 L389.0,-2.407662554463527 L388.0,-2.132923872213655 L387.0,-1.68254893141276 L386.0,-1.0676274578120717 L385.0,-0.3033008588991368 L384.0,0.5916106078064658 L383.0,1.5950712519534207 L382.0,2.682372542187924 L381.0,3.8267415121983053 L380.0,5.000000000000044 L379.0,6.1732584878017285 L378.0,7.31762745781211 L377.0,8.404928748046657 L376.0,9.40838939219352 L375.0,10.303300858899124 L374.0,11.067627457812092 L373.0,11.682548931412775 L372.0,12.132923872213667 L371.0,12.407662554463542 L370.0,12.5 L369.0,12.407662554463531 L368.0,12.132923872213631 L367.0,11.682548931412772 L366.0,11.067627457812087 L365.0,10.303300858899117 L364.0,9.408389392193513 L363.0,8.404928748046604 L362.0,7.317627457812051 L361.0,6.173258487801721 L360.0,4.999999999999983 L359.0,3.826741512198193 L358.0,2.6823725421879168 L357.0,1.5950712519533665 L356.0,0.5916106078064596 L355.0,-0.30330085889914216 L354.0,-1.0676274578121072 L353.0,-1.6825489314127875 L352.0,-2.1329238722136568 L351.0,-2.4076625544635366 L350.0,-2.5 L349.0,-2.4076625544635357 L348.0,-2.132923872213639 L347.0,-1.6825489314127609 L346.0,-1.0676274578120726 L345.0,-0.3033008588991004 L344.0,0.5916106078065075 L343.0,1.5950712519533714 L342.0,2.682372542187922 L341.0,3.8267415121983563 L340.0,4.999999999999989 L339.0,6.17325848780178 L338.0,7.317627457812108 L337.0,8.404928748046657 L336.0,9.40838939219356 L335.0,10.30330085889916 L334.0,11.06762745781209 L333.0,11.682548931412775 L332.0,12.132923872213631 L331.0,12.407662554463531 L330.0,12.5 L329.0,12.407662554463531 L328.0,12.132923872213631 L327.0,11.68254893141275 L326.0,11.067627457812058 L325.0,10.303300858899082 L324.0,9.408389392193516 L323.0,8.404928748046558 L322.0,7.3176274578121046 L321.0,6.173258487801723 L320.0,4.999999999999985 L319.0,3.8267415121982475 L318.0,2.682372542187868 L317.0,1.5950712519534158 L316.0,0.5916106078064614 L315.0,-0.3033008588991031 L314.0,-1.0676274578121374 L313.0,-1.6825489314127626 L312.0,-2.1329238722136568 L311.0,-2.4076625544635366 L310.0,-2.5 L309.0,-2.4076625544635277 L308.0,-2.132923872213656 L307.0,-1.6825489314127617 L306.0,-1.0676274578121054 L305.0,-0.3033008588991386 L304.0,0.5916106078064631 L303.0,1.5950712519534171 L302.0,2.6823725421879203 L301.0,3.8267415121983017 L300.0,5.000000000000041 L299.0,6.173258487801725 L298.0,7.317627457812106 L297.0,8.404928748046608 L296.0,9.408389392193516 L295.0,10.303300858899082 L294.0,11.06762745781209 L293.0,11.682548931412775 L292.0,12.132923872213663 L291.0,12.40766255446354 L290.0,12.5 L289.0,12.407662554463531 L288.0,12.132923872213647 L287.0,11.682548931412775 L286.0,11.067627457812122 L285.0,10.30330085889912 L284.0,9.408389392193559 L283.0,8.404928748046608 L282.0,7.317627457812056 L281.0,6.173258487801725 L280.0,4.999999999999988 L279.0,3.8267415121982493 L278.0,2.6823725421879203 L277.0,1.5950712519534171 L276.0,0.5916106078064631 L275.0,-0.3033008588991013 L274.0,-1.0676274578121054 L273.0,-1.6825489314127378 L272.0,-2.132923872213639 L271.0,-2.4076625544635357 L270.0,-2.5 L269.0,-2.4076625544635366 L268.0,-2.1329238722136568 L267.0,-1.6825489314127626 L266.0,-1.0676274578121063 L265.0,-0.3033008588991031 L264.0,0.5916106078064178 L263.0,1.5950712519533683 L262.0,2.682372542187918 L261.0,3.8267415121983 L260.0,4.999999999999985 L259.0,6.173258487801723 L258.0,7.3176274578121046 L257.0,8.404928748046606 L256.0,9.408389392193557 L255.0,10.303300858899082 L254.0,11.067627457812119 L253.0,11.68254893141275 L252.0,12.132923872213647 L251.0,12.407662554463531 L250.0,12.5 L249.0,12.407662554463524 L248.0,12.132923872213649 L247.0,11.68254893141275 L246.0,11.06762745781209 L245.0,10.303300858899085 L244.0,9.40838939219356 L243.0,8.40492874804661 L242.0,7.317627457812108 L241.0,6.173258487801727 L240.0,4.999999999999936 L239.0,3.826741512198251 L238.0,2.682372542187871 L237.0,1.5950712519533714 L236.0,0.5916106078064214 L235.0,-0.3033008588991004 L234.0,-1.0676274578121046 L233.0,-1.6825489314127609 L232.0,-2.132923872213655 L231.0,-2.4076625544635277 L230.0,-2.5 L229.0,-2.4076625544635286 L228.0,-2.1329238722136408 L227.0,-1.6825489314127395 L226.0,-1.0676274578121072 L225.0,-0.3033008588991031 L224.0,0.5916106078064596 L223.0,1.595071251953414 L222.0,2.6823725421878657 L221.0,3.8267415121982458 L220.0,5.000000000000036 L219.0,6.173258487801721 L218.0,7.317627457812153 L217.0,8.404928748046604 L216.0,9.408389392193557 L215.0,10.303300858899117 L214.0,11.067627457812119 L213.0,11.682548931412748 L212.0,12.132923872213645 L211.0,12.40766255446354 L210.0,12.5 L209.0,12.407662554463531 L208.0,12.132923872213649 L207.0,11.682548931412752 L206.0,11.067627457812092 L205.0,10.303300858899085 L204.0,9.408389392193563 L203.0,8.404928748046611 L202.0,7.317627457812084 L201.0,6.1732584878017285 L200.0,4.999999999999991 L199.0,3.826741512198253 L198.0,2.682372542187898 L197.0,1.5950712519533732 L196.0,0.5916106078064436 L195.0,-0.3033008588991173 L194.0,-1.0676274578121037 L193.0,-1.6825489314127715 L192.0,-2.132923872213655 L191.0,-2.4076625544635357 L190.0,-2.5 L189.0,-2.407662554463532 L188.0,-2.1329238722136576 L187.0,-1.6825489314127644 L186.0,-1.0676274578120921 L185.0,-0.30330085889910485 L184.0,0.59161060780648 L183.0,1.5950712519534123 L182.0,2.682372542187915 L181.0,3.8267415121982964 L180.0,5.000000000000008 L179.0,6.17325848780172 L178.0,7.317627457812101 L177.0,8.404928748046602 L176.0,9.408389392193556 L175.0,10.303300858899135 L174.0,11.067627457812119 L173.0,11.682548931412772 L172.0,12.132923872213663 L171.0,12.407662554463535 L170.0,12.5 L169.0,12.407662554463531 L168.0,12.132923872213649 L167.0,11.682548931412764 L166.0,11.067627457812126 L165.0,10.303300858899087 L164.0,9.40838939219352 L163.0,8.404928748046565 L162.0,7.317627457812086 L161.0,6.173258487801731 L160.0,4.999999999999993 L159.0,3.8267415121982546 L158.0,2.6823725421879 L157.0,1.595071251953375 L156.0,0.5916106078064454 L155.0,-0.3033008588991155 L154.0,-1.0676274578121019 L153.0,-1.682548931412759 L152.0,-2.132923872213654 L151.0,-2.407662554463535 L150.0,-2.5 L149.0,-2.407662554463533 L148.0,-2.1329238722136585 L147.0,-1.6825489314127653 L146.0,-1.067627457812094 L145.0,-0.30330085889910663 L144.0,0.5916106078064569 L143.0,1.595071251953387 L142.0,2.682372542187888 L141.0,3.8267415121982946 L140.0,5.000000000000006 L139.0,6.173258487801718 L138.0,7.317627457812099 L137.0,8.4049287480466 L136.0,9.40838939219353 L135.0,10.303300858899116 L134.0,11.067627457812101 L133.0,11.682548931412757 L132.0,12.132923872213645 L131.0,12.407662554463535 L130.0,12.5 L129.0,12.407662554463533 L128.0,12.132923872213649 L127.0,11.682548931412754 L126.0,11.06762745781211 L125.0,10.303300858899089 L124.0,9.408389392193543 L123.0,8.40492874804659 L122.0,7.317627457812113 L121.0,6.173258487801732 L120.0,4.999999999999968 L119.0,3.8267415121982564 L118.0,2.682372542187877 L117.0,1.5950712519534003 L116.0,0.5916106078064471 L115.0,-0.30330085889909597 L114.0,-1.067627457812117 L113.0,-1.6825489314127582 L112.0,-2.132923872213653 L111.0,-2.4076625544635304 L110.0,-2.5 L109.0,-2.4076625544635295 L108.0,-2.1329238722136505 L107.0,-1.6825489314127537 L106.0,-1.0676274578121108 L105.0,-0.3033008588991075 L104.0,0.591610607806456 L103.0,1.5950712519534092 L102.0,2.682372542187886 L101.0,3.8267415121982795 L100.0,5.000000000000004 L99.0,6.173258487801729 L98.0,7.31762745781211 L97.0,8.404928748046599 L96.0,9.408389392193552 L95.0,10.303300858899114 L94.0,11.067627457812101 L93.0,11.682548931412764 L92.0,12.132923872213658 L91.0,12.407662554463535 L90.0,12.5 L89.0,12.407662554463533 L88.0,12.13292387221365 L87.0,11.682548931412754 L86.0,11.067627457812096 L85.0,10.303300858899108 L84.0,9.408389392193545 L83.0,8.404928748046615 L82.0,7.3176274578120895 L81.0,6.173258487801721 L80.0,4.9999999999999964 L79.0,3.8267415121982715 L78.0,2.682372542187891 L77.0,1.595071251953402 L76.0,0.5916106078064489 L75.0,-0.30330085889911373 L74.0,-1.0676274578121001 L73.0,-1.6825489314127635 L72.0,-2.132923872213653 L71.0,-2.407662554463532 L70.0,-2.5 L69.0,-2.407662554463533 L68.0,-2.132923872213655 L67.0,-1.6825489314127609 L66.0,-1.0676274578121117 L65.0,-0.3033008588991093 L64.0,0.5916106078064542 L63.0,1.5950712519533958 L62.0,2.6823725421878972 L61.0,3.8267415121982644 L60.0,5.000000000000016 L59.0,6.173258487801741 L58.0,7.317627457812108 L57.0,8.40492874804661 L56.0,9.40838939219355 L55.0,10.303300858899114 L54.0,11.067627457812106 L53.0,11.682548931412757 L52.0,12.132923872213652 L51.0,12.407662554463531 L50.0,12.5 L49.0,12.407662554463531 L48.0,12.132923872213652 L47.0,11.68254893141276 L46.0,11.067627457812101 L45.0,10.303300858899105 L44.0,9.408389392193547 L43.0,8.404928748046594 L42.0,7.317627457812104 L41.0,6.173258487801723 L40.0,4.999999999999998 L39.0,3.8267415121982666 L38.0,2.682372542187893 L37.0,1.5950712519534034 L36.0,0.5916106078064498 L35.0,-0.3033008588991075 L34.0,-1.0676274578121028 L33.0,-1.6825489314127564 L32.0,-2.1329238722136523 L31.0,-2.407662554463533 L30.0,-2.5 L29.0,-2.407662554463532 L28.0,-2.1329238722136514 L27.0,-1.6825489314127582 L26.0,-1.0676274578121054 L25.0,-0.30330085889910574 L24.0,0.5916106078064525 L23.0,1.595071251953403 L22.0,2.6823725421878954 L21.0,3.8267415121982697 L20.0,5.000000000000001 L19.0,6.173258487801732 L18.0,7.317627457812106 L17.0,8.404928748046599 L16.0,9.408389392193548 L15.0,10.30330085889911 L14.0,11.067627457812106 L13.0,11.682548931412759 L12.0,12.132923872213652 L11.0,12.407662554463533 L10.0,12.5 L9.0,12.407662554463533 L8.0,12.132923872213652 L7.0,11.682548931412757 L6.0,11.067627457812106 L5.0,10.303300858899107 L4.0,9.408389392193548 L3.0,8.4049287480466 L2.0,7.317627457812105 L1.0,6.173258487801732 L0.0,5.0" stroke-width="4" stroke-linecap="round" stroke="#000000" fill="none"  />
<!-- Footer -->
</svg>
