<!-- Header -->
<svg
    version="1.1"
    baseProfile="full"
    xmlns="http://www.w3.org/2000/svg"
    xmlns:xlink="http://www.w3.org/1999/xlink"
    xmlns:ev="http://www.w3.org/2001/xml-events"
    width="400.0"
    height="20.0"
    viewBox="-1.5 -6.5 403.0 23.0"
    preserveAspectRatio="none"
>
<!-- Body -->
<!-- Path -->
<path d="M0.0,0.0 L1.0,0.7821723252011543 L2.0,1.545084971874737 L3.0,2.2699524986977337 L4.0,2.938926261462366 L5.0,3.5355339059327373 L6.0,4.045084971874737 L7.0,4.455032620941839 L8.0,4.755282581475767 L9.0,4.938441702975689 L10.0,5.0 L11.0,4.938441702975689 L12.0,4.755282581475768 L13.0,4.455032620941839 L14.0,4.045084971874737 L15.0,3.5355339059327395 L16.0,2.9389262614623664 L17.0,2.2699524986977324 L18.0,1.5450849718747375 L19.0,0.7821723252011549 L20.0,6.123233995736766e-16 L21.0,-0.7821723252011537 L22.0,-1.5450849718747364 L23.0,-2.269952498697731 L24.0,-2.938926261462365 L25.0,-3.5355339059327373 L26.0,-4.045084971874736 L27.0,-4.455032620941839 L28.0,-4.755282581475767 L29.0,-4.938441702975688 L30.0,-5.0 L31.0,-4.938441702975689 L32.0,-4.755282581475768 L33.0,-4.455032620941838 L34.0,-4.045084971874735 L35.0,-3.5355339059327386 L36.0,-2.938926261462367 L37.0,-2.269952498697731 L38.0,-1.5450849718747381 L39.0,-0.7821723252011556 L40.0,-1.2246467991473533e-15 L41.0,0.7821723252011487 L42.0,1.545084971874736 L43.0,2.269952498697729 L44.0,2.9389262614623646 L45.0,3.535533905932737 L46.0,4.045084971874734 L47.0,4.45503262094184 L48.0,4.755282581475767 L49.0,4.938441702975688 L50.0,5.0 L51.0,4.938441702975688 L52.0,4.755282581475768 L53.0,4.455032620941838 L54.0,4.045084971874738 L55.0,3.5355339059327417 L56.0,2.938926261462367 L57.0,2.2699524986977395 L58.0,1.545084971874739 L59.0,0.7821723252011604 L60.0,1.0718754395722281e-14 L61.0,-0.7821723252011569 L62.0,-1.5450849718747353 L63.0,-2.2699524986977364 L64.0,-2.938926261462364 L65.0,-3.5355339059327395 L66.0,-4.045084971874741 L67.0,-4.45503262094184 L68.0,-4.75528258147577 L69.0,-4.938441702975689 L70.0,-5.0 L71.0,-4.938441702975688 L72.0,-4.755282581475769 L73.0,-4.455032620941842 L74.0,-4.045084971874734 L75.0,-3.535533905932742 L76.0,-2.9389262614623672 L77.0,-2.269952498697732 L78.0,-1.5450849718747395 L79.0,-0.7821723252011524 L80.0,-2.4492935982947065e-15 L81.0,0.7821723252011475 L82.0,1.5450849718747262 L83.0,2.2699524986977435 L84.0,2.9389262614623632 L85.0,3.535533905932739 L86.0,4.045084971874731 L87.0,4.455032620941836 L88.0,4.755282581475767 L89.0,4.938441702975689 L90.0,5.0 L91.0,4.93844170297569 L92.0,4.755282581475772 L93.0,4.455032620941843 L94.0,4.045084971874734 L95.0,3.535533905932743 L96.0,2.9389262614623677 L97.0,2.269952498697733 L98.0,1.54508497187474 L99.0,0.782172325201153 L100.0,3.061616997868383e-15 L101.0,-0.7821723252011469 L102.0,-1.5450849718747426 L103.0,-2.269952498697727 L104.0,-2.938926261462363 L105.0,-3.5355339059327386 L106.0,-4.045084971874741 L107.0,-4.455032620941836 L108.0,-4.755282581475767 L109.0,-4.938441702975686 L110.0,-5.0 L111.0,-4.9384417029756875 L112.0,-4.755282581475769 L113.0,-4.455032620941839 L114.0,-4.045084971874744 L115.0,-3.5355339059327306 L116.0,-2.9389262614623686 L117.0,-2.2699524986977333 L118.0,-1.5450849718747488 L119.0,-0.7821723252011624 L120.0,-2.1437508791444562e-14 L121.0,0.782172325201155 L122.0,1.545084971874742 L123.0,2.2699524986977266 L124.0,2.9389262614623624 L125.0,3.5355339059327258 L126.0,4.04508497187474 L127.0,4.455032620941836 L128.0,4.755282581475766 L129.0,4.938441702975689 L130.0,5.0 L131.0,4.93844170297569 L132.0,4.755282581475764 L133.0,4.455032620941839 L134.0,4.045084971874735 L135.0,3.535533905932744 L136.0,2.9389262614623544 L137.0,2.2699524986977337 L138.0,1.5450849718747328 L139.0,0.7821723252011453 L140.0,4.2862637970157365e-15 L141.0,-0.7821723252011369 L142.0,-1.5450849718747415 L143.0,-2.269952498697742 L144.0,-2.9389262614623624 L145.0,-3.5355339059327378 L146.0,-4.045084971874729 L147.0,-4.455032620941843 L148.0,-4.755282581475772 L149.0,-4.938441702975689 L150.0,-5.0 L151.0,-4.93844170297569 L152.0,-4.755282581475769 L153.0,-4.455032620941839 L154.0,-4.045084971874735 L155.0,-3.535533905932744 L156.0,-2.9389262614623695 L157.0,-2.26995249869775 L158.0,-1.5450849718747333 L159.0,-0.7821723252011635 L160.0,-4.898587196589413e-15 L161.0,0.7821723252011539 L162.0,1.545084971874724 L163.0,2.2699524986977098 L164.0,2.9389262614623473 L165.0,3.5355339059327244 L166.0,4.04508497187475 L167.0,4.455032620941843 L168.0,4.755282581475766 L169.0,4.938441702975688 L170.0,5.0 L171.0,4.93844170297569 L172.0,4.755282581475775 L173.0,4.455032620941848 L174.0,4.045084971874745 L175.0,3.5355339059327573 L176.0,2.9389262614623703 L177.0,2.2699524986977346 L178.0,1.545084971874734 L179.0,0.7821723252011465 L180.0,5.5109105961630896e-15 L181.0,-0.7821723252011358 L182.0,-1.5450849718747235 L183.0,-2.2699524986977253 L184.0,-2.938926261462347 L185.0,-3.535533905932737 L186.0,-4.045084971874728 L187.0,-4.455032620941843 L188.0,-4.755282581475772 L189.0,-4.938441702975688 L190.0,-5.0 L191.0,-4.93844170297569 L192.0,-4.75528258147577 L193.0,-4.455032620941848 L194.0,-4.0450849718747355 L195.0,-3.535533905932745 L196.0,-2.938926261462371 L197.0,-2.269952498697751 L198.0,-1.5450849718747346 L199.0,-0.7821723252011648 L200.0,-6.123233995736766e-15 L201.0,0.7821723252011527 L202.0,1.5450849718747228 L203.0,2.2699524986977404 L204.0,2.9389262614623752 L205.0,3.535533905932724 L206.0,4.045084971874728 L207.0,4.455032620941834 L208.0,4.755282581475766 L209.0,4.938441702975688 L210.0,5.0 L211.0,4.938441702975693 L212.0,4.755282581475765 L213.0,4.455032620941832 L214.0,4.045084971874746 L215.0,3.5355339059327457 L216.0,2.9389262614623712 L217.0,2.269952498697736 L218.0,1.5450849718747688 L219.0,0.7821723252011479 L220.0,2.4499125789312944e-14 L221.0,-0.7821723252011696 L222.0,-1.5450849718747561 L223.0,-2.269952498697724 L224.0,-2.93892626146236 L225.0,-3.5355339059327355 L226.0,-4.045084971874738 L227.0,-4.455032620941826 L228.0,-4.75528258147576 L229.0,-4.938441702975686 L230.0,-5.0 L231.0,-4.938441702975685 L232.0,-4.75528258147577 L233.0,-4.45503262094184 L234.0,-4.045084971874736 L235.0,-3.5355339059327333 L236.0,-2.9389262614623854 L237.0,-2.2699524986977524 L238.0,-1.5450849718747526 L239.0,-0.782172325201166 L240.0,-4.2875017582889124e-14 L241.0,0.7821723252011514 L242.0,1.5450849718747386 L243.0,2.269952498697739 L244.0,2.938926261462374 L245.0,3.5355339059327227 L246.0,4.0450849718747275 L247.0,4.455032620941834 L248.0,4.7552825814757655 L249.0,4.938441702975683 L250.0,5.0 L251.0,4.9384417029756875 L252.0,4.755282581475765 L253.0,4.455032620941833 L254.0,4.045084971874747 L255.0,3.5355339059327213 L256.0,2.9389262614623717 L257.0,2.2699524986977373 L258.0,1.5450849718747361 L259.0,0.7821723252011491 L260.0,-9.803364199544707e-15 L261.0,-0.7821723252011332 L262.0,-1.5450849718747213 L263.0,-2.2699524986977546 L264.0,-2.938926261462388 L265.0,-3.535533905932735 L266.0,-4.045084971874737 L267.0,-4.455032620941842 L268.0,-4.755282581475771 L269.0,-4.938441702975691 L270.0,-5.0 L271.0,-4.93844170297569 L272.0,-4.755282581475759 L273.0,-4.455032620941825 L274.0,-4.045084971874736 L275.0,-3.535533905932734 L276.0,-2.938926261462358 L277.0,-2.2699524986977218 L278.0,-1.5450849718747197 L279.0,-0.7821723252011671 L280.0,-8.572527594031473e-15 L281.0,0.7821723252011502 L282.0,1.5450849718747037 L283.0,2.269952498697738 L284.0,2.938926261462373 L285.0,3.5355339059327475 L286.0,4.045084971874748 L287.0,4.455032620941849 L288.0,4.755282581475765 L289.0,4.9384417029756875 L290.0,5.0 L291.0,4.938441702975693 L292.0,4.755282581475776 L293.0,4.455032620941849 L294.0,4.045084971874727 L295.0,3.5355339059327218 L296.0,2.938926261462344 L297.0,2.269952498697738 L298.0,1.5450849718747373 L299.0,0.7821723252011502 L300.0,2.6948419387607653e-14 L301.0,-0.7821723252011321 L302.0,-1.5450849718747197 L303.0,-2.2699524986977218 L304.0,-2.938926261462358 L305.0,-3.535533905932759 L306.0,-4.045084971874736 L307.0,-4.455032620941841 L308.0,-4.75528258147577 L309.0,-4.938441702975685 L310.0,-5.0 L311.0,-4.938441702975691 L312.0,-4.755282581475771 L313.0,-4.455032620941842 L314.0,-4.045084971874759 L315.0,-3.535533905932735 L316.0,-2.938926261462359 L317.0,-2.269952498697723 L318.0,-1.5450849718747548 L319.0,-0.7821723252011683 L320.0,-9.797174393178826e-15 L321.0,0.7821723252011491 L322.0,1.5450849718747361 L323.0,2.2699524986977053 L324.0,2.9389262614623437 L325.0,3.5355339059327213 L326.0,4.045084971874705 L327.0,4.455032620941833 L328.0,4.755282581475754 L329.0,4.9384417029756875 L330.0,5.0 L331.0,4.938441702975688 L332.0,4.755282581475754 L333.0,4.45503262094185 L334.0,4.0450849718747275 L335.0,3.535533905932773 L336.0,2.938926261462374 L337.0,2.269952498697771 L338.0,1.5450849718747386 L339.0,0.7821723252011865 L340.0,-7.354070601250003e-15 L341.0,-0.7821723252010958 L342.0,-1.5450849718747186 L343.0,-2.2699524986977524 L344.0,-2.9389262614623286 L345.0,-3.5355339059327333 L346.0,-4.045084971874715 L347.0,-4.45503262094184 L348.0,-4.755282581475759 L349.0,-4.93844170297569 L350.0,-5.0 L351.0,-4.938441702975691 L352.0,-4.755282581475771 L353.0,-4.455032620941858 L354.0,-4.045084971874738 L355.0,-3.5355339059327613 L356.0,-2.93892626146236 L357.0,-2.2699524986977555 L358.0,-1.5450849718747222 L359.0,-0.7821723252012047 L360.0,-1.1021821192326179e-14 L361.0,0.7821723252011479 L362.0,1.5450849718747013 L363.0,2.269952498697736 L364.0,2.9389262614623424 L365.0,3.535533905932745 L366.0,4.045084971874725 L367.0,4.455032620941848 L368.0,4.755282581475753 L369.0,4.9384417029756875 L370.0,5.0 L371.0,4.938441702975694 L372.0,4.755282581475777 L373.0,4.455032620941851 L374.0,4.045084971874728 L375.0,3.535533905932749 L376.0,2.9389262614623464 L377.0,2.269952498697772 L378.0,1.5450849718747397 L379.0,0.7821723252011527 L380.0,2.9397712985902356e-14 L381.0,-0.7821723252011297 L382.0,-1.5450849718747175 L383.0,-2.2699524986977195 L384.0,-2.938926261462356 L385.0,-3.5355339059327577 L386.0,-4.045084971874714 L387.0,-4.45503262094184 L388.0,-4.75528258147577 L389.0,-4.938441702975684 L390.0,-5.0 L391.0,-4.938441702975691 L392.0,-4.755282581475772 L393.0,-4.455032620941843 L394.0,-4.04508497187476 L395.0,-3.5355339059327617 L396.0,-2.9389262614623615 L397.0,-2.269952498697725 L398.0,-1.5450849718747572 L399.0,-0.7821723252011709 L400.0,-1.2246467991473532e-14 L400.0,9.999999999999988 L399.0,9.21782767479883 L398.0,8.454915028125242 L397.0,7.730047501302275 L396.0,7.0610737385376385 L395.0,6.464466094067238 L394.0,5.95491502812524 L393.0,5.544967379058157 L392.0,5.244717418524228 L391.0,5.061558297024309 L390.0,5.0 L389.0,5.061558297024316 L388.0,5.24471741852423 L387.0,5.54496737905816 L386.0,5.954915028125286 L385.0,6.464466094067243 L384.0,7.061073738537644 L383.0,7.7300475013022805 L382.0,8.454915028125283 L381.0,9.21782767479887 L380.0,10.00000000000003 L379.0,10.782172325201152 L378.0,11.54508497187474 L377.0,12.269952498697773 L376.0,12.938926261462345 L375.0,13.535533905932748 L374.0,14.04508497187473 L373.0,14.45503262094185 L372.0,14.755282581475777 L371.0,14.938441702975695 L370.0,15.0 L369.0,14.938441702975688 L368.0,14.755282581475754 L367.0,14.455032620941848 L366.0,14.045084971874726 L365.0,13.535533905932745 L364.0,12.938926261462342 L363.0,12.269952498697736 L362.0,11.5450849718747 L361.0,10.782172325201149 L360.0,9.99999999999999 L359.0,9.217827674798794 L358.0,8.454915028125278 L357.0,7.730047501302245 L356.0,7.06107373853764 L355.0,6.464466094067239 L354.0,5.954915028125262 L353.0,5.544967379058142 L352.0,5.244717418524229 L351.0,5.061558297024309 L350.0,5.0 L349.0,5.06155829702431 L348.0,5.244717418524241 L347.0,5.54496737905816 L346.0,5.954915028125285 L345.0,6.464466094067267 L344.0,7.061073738537671 L343.0,7.730047501302248 L342.0,8.454915028125281 L341.0,9.217827674798905 L340.0,9.999999999999993 L339.0,10.782172325201186 L338.0,11.545084971874738 L337.0,12.269952498697771 L336.0,12.938926261462374 L335.0,13.535533905932773 L334.0,14.045084971874727 L333.0,14.45503262094185 L332.0,14.755282581475754 L331.0,14.938441702975688 L330.0,15.0 L329.0,14.938441702975688 L328.0,14.755282581475754 L327.0,14.455032620941832 L326.0,14.045084971874704 L325.0,13.535533905932722 L324.0,12.938926261462344 L323.0,12.269952498697705 L322.0,11.545084971874736 L321.0,10.782172325201149 L320.0,9.99999999999999 L319.0,9.217827674798832 L318.0,8.454915028125246 L317.0,7.730047501302277 L316.0,7.061073738537641 L315.0,6.464466094067265 L314.0,5.954915028125241 L313.0,5.544967379058158 L312.0,5.244717418524229 L311.0,5.061558297024309 L310.0,5.0 L309.0,5.061558297024315 L308.0,5.24471741852423 L307.0,5.544967379058159 L306.0,5.954915028125264 L305.0,6.464466094067241 L304.0,7.061073738537642 L303.0,7.730047501302279 L302.0,8.45491502812528 L301.0,9.217827674798867 L300.0,10.000000000000027 L299.0,10.78217232520115 L298.0,11.545084971874736 L297.0,12.269952498697737 L296.0,12.938926261462344 L295.0,13.535533905932722 L294.0,14.045084971874726 L293.0,14.45503262094185 L292.0,14.755282581475775 L291.0,14.938441702975693 L290.0,15.0 L289.0,14.938441702975688 L288.0,14.755282581475765 L287.0,14.45503262094185 L286.0,14.045084971874747 L285.0,13.535533905932748 L284.0,12.938926261462374 L283.0,12.269952498697737 L282.0,11.545084971874704 L281.0,10.78217232520115 L280.0,9.999999999999991 L279.0,9.217827674798833 L278.0,8.45491502812528 L277.0,7.730047501302279 L276.0,7.061073738537642 L275.0,6.464466094067266 L274.0,5.954915028125264 L273.0,5.544967379058175 L272.0,5.244717418524241 L271.0,5.06155829702431 L270.0,5.0 L269.0,5.061558297024309 L268.0,5.244717418524229 L267.0,5.544967379058158 L266.0,5.954915028125263 L265.0,6.464466094067265 L264.0,7.061073738537612 L263.0,7.730047501302245 L262.0,8.454915028125278 L261.0,9.217827674798867 L260.0,9.99999999999999 L259.0,10.782172325201149 L258.0,11.545084971874736 L257.0,12.269952498697737 L256.0,12.938926261462372 L255.0,13.535533905932722 L254.0,14.045084971874747 L253.0,14.455032620941832 L252.0,14.755282581475765 L251.0,14.938441702975688 L250.0,15.0 L249.0,14.938441702975684 L248.0,14.755282581475765 L247.0,14.455032620941834 L246.0,14.045084971874727 L245.0,13.535533905932724 L244.0,12.938926261462374 L243.0,12.269952498697739 L242.0,11.545084971874738 L241.0,10.782172325201152 L240.0,9.999999999999957 L239.0,9.217827674798833 L238.0,8.454915028125248 L237.0,7.730047501302248 L236.0,7.0610737385376146 L235.0,6.464466094067267 L234.0,5.954915028125264 L233.0,5.54496737905816 L232.0,5.24471741852423 L231.0,5.061558297024315 L230.0,5.0 L229.0,5.061558297024314 L228.0,5.24471741852424 L227.0,5.544967379058174 L226.0,5.954915028125262 L225.0,6.464466094067264 L224.0,7.06107373853764 L223.0,7.730047501302276 L222.0,8.454915028125244 L221.0,9.21782767479883 L220.0,10.000000000000025 L219.0,10.782172325201149 L218.0,11.545084971874768 L217.0,12.269952498697736 L216.0,12.93892626146237 L215.0,13.535533905932745 L214.0,14.045084971874747 L213.0,14.455032620941832 L212.0,14.755282581475765 L211.0,14.938441702975693 L210.0,15.0 L209.0,14.938441702975688 L208.0,14.755282581475766 L207.0,14.455032620941834 L206.0,14.04508497187473 L205.0,13.535533905932724 L204.0,12.938926261462376 L203.0,12.26995249869774 L202.0,11.545084971874722 L201.0,10.782172325201152 L200.0,9.999999999999995 L199.0,9.217827674798835 L198.0,8.454915028125265 L197.0,7.7300475013022485 L196.0,7.06107373853763 L195.0,6.464466094067255 L194.0,5.9549150281252645 L193.0,5.544967379058152 L192.0,5.24471741852423 L191.0,5.06155829702431 L190.0,5.0 L189.0,5.061558297024312 L188.0,5.244717418524228 L187.0,5.544967379058157 L186.0,5.954915028125272 L185.0,6.464466094067263 L184.0,7.061073738537653 L183.0,7.730047501302275 L182.0,8.454915028125276 L181.0,9.217827674798864 L180.0,10.000000000000005 L179.0,10.782172325201147 L178.0,11.545084971874735 L177.0,12.269952498697734 L176.0,12.93892626146237 L175.0,13.535533905932757 L174.0,14.045084971874745 L173.0,14.455032620941848 L172.0,14.755282581475775 L171.0,14.938441702975691 L170.0,15.0 L169.0,14.938441702975688 L168.0,14.755282581475766 L167.0,14.455032620941843 L166.0,14.04508497187475 L165.0,13.535533905932724 L164.0,12.938926261462347 L163.0,12.269952498697709 L162.0,11.545084971874724 L161.0,10.782172325201154 L160.0,9.999999999999995 L159.0,9.217827674798837 L158.0,8.454915028125267 L157.0,7.73004750130225 L156.0,7.0610737385376305 L155.0,6.464466094067256 L154.0,5.954915028125265 L153.0,5.544967379058161 L152.0,5.244717418524231 L151.0,5.06155829702431 L150.0,5.0 L149.0,5.061558297024311 L148.0,5.244717418524228 L147.0,5.544967379058157 L146.0,5.954915028125271 L145.0,6.464466094067262 L144.0,7.061073738537638 L143.0,7.730047501302257 L142.0,8.454915028125258 L141.0,9.217827674798864 L140.0,10.000000000000004 L139.0,10.782172325201145 L138.0,11.545084971874733 L137.0,12.269952498697734 L136.0,12.938926261462354 L135.0,13.535533905932745 L134.0,14.045084971874735 L133.0,14.45503262094184 L132.0,14.755282581475765 L131.0,14.938441702975691 L130.0,15.0 L129.0,14.93844170297569 L128.0,14.755282581475766 L127.0,14.455032620941836 L126.0,14.04508497187474 L125.0,13.535533905932725 L124.0,12.938926261462363 L123.0,12.269952498697727 L122.0,11.545084971874742 L121.0,10.782172325201156 L120.0,9.999999999999979 L119.0,9.217827674798837 L118.0,8.454915028125251 L117.0,7.730047501302266 L116.0,7.061073738537631 L115.0,6.464466094067269 L114.0,5.954915028125256 L113.0,5.544967379058161 L112.0,5.244717418524231 L111.0,5.0615582970243125 L110.0,5.0 L109.0,5.061558297024314 L108.0,5.244717418524233 L107.0,5.544967379058164 L106.0,5.954915028125259 L105.0,6.464466094067261 L104.0,7.061073738537637 L103.0,7.730047501302273 L102.0,8.454915028125257 L101.0,9.217827674798853 L100.0,10.000000000000004 L99.0,10.782172325201152 L98.0,11.54508497187474 L97.0,12.269952498697734 L96.0,12.938926261462367 L95.0,13.535533905932743 L94.0,14.045084971874733 L93.0,14.455032620941843 L92.0,14.755282581475772 L91.0,14.938441702975691 L90.0,15.0 L89.0,14.93844170297569 L88.0,14.755282581475768 L87.0,14.455032620941836 L86.0,14.045084971874731 L85.0,13.53553390593274 L84.0,12.938926261462363 L83.0,12.269952498697744 L82.0,11.545084971874726 L81.0,10.782172325201147 L80.0,9.999999999999998 L79.0,9.217827674798848 L78.0,8.45491502812526 L77.0,7.730047501302268 L76.0,7.061073738537633 L75.0,6.464466094067258 L74.0,5.954915028125266 L73.0,5.544967379058158 L72.0,5.244717418524231 L71.0,5.061558297024312 L70.0,5.0 L69.0,5.061558297024311 L68.0,5.24471741852423 L67.0,5.54496737905816 L66.0,5.954915028125259 L65.0,6.4644660940672605 L64.0,7.061073738537636 L63.0,7.730047501302264 L62.0,8.454915028125265 L61.0,9.217827674798842 L60.0,10.00000000000001 L59.0,10.782172325201161 L58.0,11.54508497187474 L57.0,12.269952498697739 L56.0,12.938926261462367 L55.0,13.535533905932741 L54.0,14.045084971874738 L53.0,14.455032620941838 L52.0,14.755282581475768 L51.0,14.938441702975688 L50.0,15.0 L49.0,14.938441702975688 L48.0,14.755282581475768 L47.0,14.45503262094184 L46.0,14.045084971874733 L45.0,13.535533905932738 L44.0,12.938926261462365 L43.0,12.269952498697728 L42.0,11.545084971874736 L41.0,10.782172325201149 L40.0,9.999999999999998 L39.0,9.217827674798844 L38.0,8.454915028125262 L37.0,7.730047501302269 L36.0,7.061073738537633 L35.0,6.464466094067261 L34.0,5.954915028125265 L33.0,5.544967379058162 L32.0,5.244717418524232 L31.0,5.061558297024311 L30.0,5.0 L29.0,5.061558297024312 L28.0,5.244717418524233 L27.0,5.544967379058161 L26.0,5.954915028125264 L25.0,6.464466094067262 L24.0,7.061073738537635 L23.0,7.730047501302269 L22.0,8.454915028125264 L21.0,9.217827674798846 L20.0,10.0 L19.0,10.782172325201154 L18.0,11.545084971874738 L17.0,12.269952498697732 L16.0,12.938926261462367 L15.0,13.53553390593274 L14.0,14.045084971874736 L13.0,14.45503262094184 L12.0,14.755282581475768 L11.0,14.93844170297569 L10.0,15.0 L9.0,14.93844170297569 L8.0,14.755282581475768 L7.0,14.45503262094184 L6.0,14.045084971874736 L5.0,13.535533905932738 L4.0,12.938926261462367 L3.0,12.269952498697734 L2.0,11.545084971874736 L1.0,10.782172325201154 L0.0,10.0" fill="#FFFFFF"  />
<!-- Path -->
<path d="M0.0,0.0 L1.0,0.7821723252011543 L2.0,1.545084971874737 L3.0,2.2699524986977337 L4.0,2.938926261462366 L5.0,3.5355339059327373 L6.0,4.045084971874737 L7.0,4.455032620941839 L8.0,4.755282581475767 L9.0,4.938441702975689 L10.0,5.0 L11.0,4.938441702975689 L12.0,4.755282581475768 L13.0,4.455032620941839 L14.0,4.045084971874737 L15.0,3.5355339059327395 L16.0,2.9389262614623664 L17.0,2.2699524986977324 L18.0,1.5450849718747375 L19.0,0.7821723252011549 L20.0,6.123233995736766e-16 L21.0,-0.7821723252011537 L22.0,-1.5450849718747364 L23.0,-2.269952498697731 L24.0,-2.938926261462365 L25.0,-3.5355339059327373 L26.0,-4.045084971874736 L27.0,-4.455032620941839 L28.0,-4.755282581475767 L29.0,-4.938441702975688 L30.0,-5.0 L31.0,-4.938441702975689 L32.0,-4.755282581475768 L33.0,-4.455032620941838 L34.0,-4.045084971874735 L35.0,-3.5355339059327386 L36.0,-2.938926261462367 L37.0,-2.269952498697731 L38.0,-1.5450849718747381 L39.0,-0.7821723252011556 L40.0,-1.2246467991473533e-15 L41.0,0.7821723252011487 L42.0,1.545084971874736 L43.0,2.269952498697729 L44.0,2.9389262614623646 L45.0,3.535533905932737 L46.0,4.045084971874734 L47.0,4.45503262094184 L48.0,4.755282581475767 L49.0,4.938441702975688 L50.0,5.0 L51.0,4.938441702975688 L52.0,4.755282581475768 L53.0,4.455032620941838 L54.0,4.045084971874738 L55.0,3.5355339059327417 L56.0,2.938926261462367 L57.0,2.2699524986977395 L58.0,1.545084971874739 L59.0,0.7821723252011604 L60.0,1.0718754395722281e-14 L61.0,-0.7821723252011569 L62.0,-1.5450849718747353 L63.0,-2.2699524986977364 L64.0,-2.938926261462364 L65.0,-3.5355339059327395 L66.0,-4.045084971874741 L67.0,-4.45503262094184 L68.0,-4.75528258147577 L69.0,-4.938441702975689 L70.0,-5.0 L71.0,-4.938441702975688 L72.0,-4.755282581475769 L73.0,-4.455032620941842 L74.0,-4.045084971874734 L75.0,-3.535533905932742 L76.0,-2.9389262614623672 L77.0,-2.269952498697732 L78.0,-1.5450849718747395 L79.0,-0.7821723252011524 L80.0,-2.4492935982947065e-15 L81.0,0.7821723252011475 L82.0,1.5450849718747262 L83.0,2.2699524986977435 L84.0,2.9389262614623632 L85.0,3.535533905932739 L86.0,4.045084971874731 L87.0,4.455032620941836 L88.0,4.755282581475767 L89.0,4.938441702975689 L90.0,5.0 L91.0,4.93844170297569 L92.0,4.755282581475772 L93.0,4.455032620941843 L94.0,4.045084971874734 L95.0,3.535533905932743 L96.0,2.9389262614623677 L97.0,2.269952498697733 L98.0,1.54508497187474 L99.0,0.782172325201153 L100.0,3.061616997868383e-15 L101.0,-0.7821723252011469 L102.0,-1.5450849718747426 L103.0,-2.269952498697727 L104.0,-2.938926261462363 L105.0,-3.5355339059327386 L106.0,-4.045084971874741 L107.0,-4.455032620941836 L108.0,-4.755282581475767 L109.0,-4.938441702975686 L110.0,-5.0 L111.0,-4.9384417029756875 L112.0,-4.755282581475769 L113.0,-4.455032620941839 L114.0,-4.045084971874744 L115.0,-3.5355339059327306 L116.0,-2.9389262614623686 L117.0,-2.2699524986977333 L118.0,-1.5450849718747488 L119.0,-0.7821723252011624 L120.0,-2.1437508791444562e-14 L121.0,0.782172325201155 L122.0,1.545084971874742 L123.0,2.2699524986977266 L124.0,2.9389262614623624 L125.0,3.5355339059327258 L126.0,4.04508497187474 L127.0,4.455032620941836 L128.0,4.755282581475766 L129.0,4.938441702975689 L130.0,5.0 L131.0,4.93844170297569 L132.0,4.755282581475764 L133.0,4.455032620941839 L134.0,4.045084971874735 L135.0,3.535533905932744 L136.0,2.9389262614623544 L137.0,2.2699524986977337 L138.0,1.5450849718747328 L139.0,0.7821723252011453 L140.0,4.2862637970157365e-15 L141.0,-0.7821723252011369 L142.0,-1.5450849718747415 L143.0,-2.269952498697742 L144.0,-2.9389262614623624 L145.0,-3.5355339059327378 L146.0,-4.045084971874729 L147.0,-4.455032620941843 L148.0,-4.755282581475772 L149.0,-4.938441702975689 L150.0,-5.0 L151.0,-4.93844170297569 L152.0,-4.755282581475769 L153.0,-4.455032620941839 L154.0,-4.045084971874735 L155.0,-3.535533905932744 L156.0,-2.9389262614623695 L157.0,-2.26995249869775 L158.0,-1.5450849718747333 L159.0,-0.7821723252011635 L160.0,-4.898587196589413e-15 L161.0,0.7821723252011539 L162.0,1.545084971874724 L163.0,2.2699524986977098 L164.0,2.9389262614623473 L165.0,3.5355339059327244 L166.0,4.04508497187475 L167.0,4.455032620941843 L168.0,4.755282581475766 L169.0,4.938441702975688 L170.0,5.0 L171.0,4.93844170297569 L172.0,4.755282581475775 L173.0,4.455032620941848 L174.0,4.045084971874745 L175.0,3.5355339059327573 L176.0,2.9389262614623703 L177.0,2.2699524986977346 L178.0,1.545084971874734 L179.0,0.7821723252011465 L180.0,5.5109105961630896e-15 L181.0,-0.7821723252011358 L182.0,-1.5450849718747235 L183.0,-2.2699524986977253 L184.0,-2.938926261462347 L185.0,-3.535533905932737 L186.0,-4.045084971874728 L187.0,-4.455032620941843 L188.0,-4.755282581475772 L189.0,-4.938441702975688 L190.0,-5.0 L191.0,-4.93844170297569 L192.0,-4.75528258147577 L193.0,-4.455032620941848 L194.0,-4.0450849718747355 L195.0,-3.535533905932745 L196.0,-2.938926261462371 L197.0,-2.269952498697751 L198.0,-1.5450849718747346 L199.0,-0.7821723252011648 L200.0,-6.123233995736766e-15 L201.0,0.7821723252011527 L202.0,1.5450849718747228 L203.0,2.2699524986977404 L204.0,2.9389262614623752 L205.0,3.535533905932724 L206.0,4.045084971874728 L207.0,4.455032620941834 L208.0,4.755282581475766 L209.0,4.938441702975688 L210.0,5.0 L211.0,4.938441702975693 L212.0,4.755282581475765 L213.0,4.455032620941832 L214.0,4.045084971874746 L215.0,3.5355339059327457 L216.0,2.9389262614623712 L217.0,2.269952498697736 L218.0,1.5450849718747688 L219.0,0.7821723252011479 L220.0,2.4499125789312944e-14 L221.0,-0.7821723252011696 L222.0,-1.5450849718747561 L223.0,-2.269952498697724 L224.0,-2.93892626146236 L225.0,-3.5355339059327355 L226.0,-4.045084971874738 L227.0,-4.455032620941826 L228.0,-4.75528258147576 L229.0,-4.938441702975686 L230.0,-5.0 L231.0,-4.938441702975685 L232.0,-4.75528258147577 L233.0,-4.45503262094184 L234.0,-4.045084971874736 L235.0,-3.5355339059327333 L236.0,-2.9389262614623854 L237.0,-2.2699524986977524 L238.0,-1.5450849718747526 L239.0,-0.782172325201166 L240.0,-4.2875017582889124e-14 L241.0,0.7821723252011514 L242.0,1.5450849718747386 L243.0,2.269952498697739 L244.0,2.938926261462374 L245.0,3.5355339059327227 L246.0,4.0450849718747275 L247.0,4.455032620941834 L248.0,4.7552825814757655 L249.0,4.938441702975683 L250.0,5.0 L251.0,4.9384417029756875 L252.0,4.755282581475765 L253.0,4.455032620941833 L254.0,4.045084971874747 L255.0,3.5355339059327213 L256.0,2.9389262614623717 L257.0,2.2699524986977373 L258.0,1.5450849718747361 L259.0,0.7821723252011491 L260.0,-9.803364199544707e-15 L261.0,-0.7821723252011332 L262.0,-1.5450849718747213 L263.0,-2.2699524986977546 L264.0,-2.938926261462388 L265.0,-3.535533905932735 L266.0,-4.045084971874737 L267.0,-4.455032620941842 L268.0,-4.755282581475771 L269.0,-4.938441702975691 L270.0,-5.0 L271.0,-4.93844170297569 L272.0,-4.755282581475759 L273.0,-4.455032620941825 L274.0,-4.045084971874736 L275.0,-3.535533905932734 L276.0,-2.938926261462358 L277.0,-2.2699524986977218 L278.0,-1.5450849718747197 L279.0,-0.7821723252011671 L280.0,-8.572527594031473e-15 L281.0,0.7821723252011502 L282.0,1.5450849718747037 L283.0,2.269952498697738 L284.0,2.938926261462373 L285.0,3.5355339059327475 L286.0,4.045084971874748 L287.0,4.455032620941849 L288.0,4.755282581475765 L289.0,4.9384417029756875 L290.0,5.0 L291.0,4.938441702975693 L292.0,4.755282581475776 L293.0,4.455032620941849 L294.0,4.045084971874727 L295.0,3.5355339059327218 L296.0,2.938926261462344 L297.0,2.269952498697738 L298.0,1.5450849718747373 L299.0,0.7821723252011502 L300.0,2.6948419387607653e-14 L301.0,-0.7821723252011321 L302.0,-1.5450849718747197 L303.0,-2.2699524986977218 L304.0,-2.938926261462358 L305.0,-3.535533905932759 L306.0,-4.045084971874736 L307.0,-4.455032620941841 L308.0,-4.75528258147577 L309.0,-4.938441702975685 L310.0,-5.0 L311.0,-4.938441702975691 L312.0,-4.755282581475771 L313.0,-4.455032620941842 L314.0,-4.045084971874759 L315.0,-3.535533905932735 L316.0,-2.938926261462359 L317.0,-2.269952498697723 L318.0,-1.5450849718747548 L319.0,-0.7821723252011683 L320.0,-9.797174393178826e-15 L321.0,0.7821723252011491 L322.0,1.5450849718747361 L323.0,2.2699524986977053 L324.0,2.9389262614623437 L325.0,3.5355339059327213 L326.0,4.045084971874705 L327.0,4.455032620941833 L328.0,4.755282581475754 L329.0,4.9384417029756875 L330.0,5.0 L331.0,4.938441702975688 L332.0,4.755282581475754 L333.0,4.45503262094185 L334.0,4.0450849718747275 L335.0,3.535533905932773 L336.0,2.938926261462374 L337.0,2.269952498697771 L338.0,1.5450849718747386 L339.0,0.7821723252011865 L340.0,-7.354070601250003e-15 L341.0,-0.7821723252010958 L342.0,-1.5450849718747186 L343.0,-2.2699524986977524 L344.0,-2.9389262614623286 L345.0,-3.5355339059327333 L346.0,-4.045084971874715 L347.0,-4.45503262094184 L348.0,-4.755282581475759 L349.0,-4.93844170297569 L350.0,-5.0 L351.0,-4.938441702975691 L352.0,-4.755282581475771 L353.0,-4.455032620941858 L354.0,-4.045084971874738 L355.0,-3.5355339059327613 L356.0,-2.93892626146236 L357.0,-2.2699524986977555 L358.0,-1.5450849718747222 L359.0,-0.7821723252012047 L360.0,-1.1021821192326179e-14 L361.0,0.7821723252011479 L362.0,1.5450849718747013 L363.0,2.269952498697736 L364.0,2.9389262614623424 L365.0,3.535533905932745 L366.0,4.045084971874725 L367.0,4.455032620941848 L368.0,4.755282581475753 L369.0,4.9384417029756875 L370.0,5.0 L371.0,4.938441702975694 L372.0,4.755282581475777 L373.0,4.455032620941851 L374.0,4.045084971874728 L375.0,3.535533905932749 L376.0,2.9389262614623464 L377.0,2.269952498697772 L378.0,1.5450849718747397 L379.0,0.7821723252011527 L380.0,2.9397712985902356e-14 L381.0,-0.7821723252011297 L382.0,-1.5450849718747175 L383.0,-2.2699524986977195 L384.0,-2.938926261462356 L385.0,-3.5355339059327577 L386.0,-4.045084971874714 L387.0,-4.45503262094184 L388.0,-4.75528258147577 L389.0,-4.938441702975684 L390.0,-5.0 L391.0,-4.938441702975691 L392.0,-4.755282581475772 L393.0,-4.455032620941843 L394.0,-4.04508497187476 L395.0,-3.5355339059327617 L396.0,-2.9389262614623615 L397.0,-2.269952498697725 L398.0,-1.5450849718747572 L399.0,-0.7821723252011709 L400.0,-1.2246467991473532e-14" stroke-width="3" stroke-linecap="round" stroke="#000000" fill="none"  />
<!-- Path -->
<path d="M400.0,9.999999999999988 L399.0,9.21782767479883 L398.0,8.454915028125242 L397.0,7.730047501302275 L396.0,7.0610737385376385 L395.0,6.464466094067238 L394.0,5.95491502812524 L393.0,5.544967379058157 L392.0,5.244717418524228 L391.0,5.061558297024309 L390.0,5.0 L389.0,5.061558297024316 L388.0,5.24471741852423 L387.0,5.54496737905816 L386.0,5.954915028125286 L385.0,6.464466094067243 L384.0,7.061073738537644 L383.0,7.7300475013022805 L382.0,8.454915028125283 L381.0,9.21782767479887 L380.0,10.00000000000003 L379.0,10.782172325201152 L378.0,11.54508497187474 L377.0,12.269952498697773 L376.0,12.938926261462345 L375.0,13.535533905932748 L374.0,14.04508497187473 L373.0,14.45503262094185 L372.0,14.755282581475777 L371.0,14.938441702975695 L370.0,15.0 L369.0,14.938441702975688 L368.0,14.755282581475754 L367.0,14.455032620941848 L366.0,14.045084971874726 L365.0,13.535533905932745 L364.0,12.938926261462342 L363.0,12.269952498697736 L362.0,11.5450849718747 L361.0,10.782172325201149 L360.0,9.99999999999999 L359.0,9.217827674798794 L358.0,8.454915028125278 L357.0,7.730047501302245 L356.0,7.06107373853764 L355.0,6.464466094067239 L354.0,5.954915028125262 L353.0,5.544967379058142 L352.0,5.244717418524229 L351.0,5.061558297024309 L350.0,5.0 L349.0,5.06155829702431 L348.0,5.244717418524241 L347.0,5.54496737905816 L346.0,5.954915028125285 L345.0,6.464466094067267 L344.0,7.061073738537671 L343.0,7.730047501302248 L342.0,8.454915028125281 L341.0,9.217827674798905 L340.0,9.999999999999993 L339.0,10.782172325201186 L338.0,11.545084971874738 L337.0,12.269952498697771 L336.0,12.938926261462374 L335.0,13.535533905932773 L334.0,14.045084971874727 L333.0,14.45503262094185 L332.0,14.755282581475754 L331.0,14.938441702975688 L330.0,15.0 L329.0,14.938441702975688 L328.0,14.755282581475754 L327.0,14.455032620941832 L326.0,14.045084971874704 L325.0,13.535533905932722 L324.0,12.938926261462344 L323.0,12.269952498697705 L322.0,11.545084971874736 L321.0,10.782172325201149 L320.0,9.99999999999999 L319.0,9.217827674798832 L318.0,8.454915028125246 L317.0,7.730047501302277 L316.0,7.061073738537641 L315.0,6.464466094067265 L314.0,5.954915028125241 L313.0,5.544967379058158 L312.0,5.244717418524229 L311.0,5.061558297024309 L310.0,5.0 L309.0,5.061558297024315 L308.0,5.24471741852423 L307.0,5.544967379058159 L306.0,5.954915028125264 L305.0,6.464466094067241 L304.0,7.061073738537642 L303.0,7.730047501302279 L302.0,8.45491502812528 L301.0,9.217827674798867 L300.0,10.000000000000027 L299.0,10.78217232520115 L298.0,11.545084971874736 L297.0,12.269952498697737 L296.0,12.938926261462344 L295.0,13.535533905932722 L294.0,14.045084971874726 L293.0,14.45503262094185 L292.0,14.755282581475775 L291.0,14.938441702975693 L290.0,15.0 L289.0,14.938441702975688 L288.0,14.755282581475765 L287.0,14.45503262094185 L286.0,14.045084971874747 L285.0,13.535533905932748 L284.0,12.938926261462374 L283.0,12.269952498697737 L282.0,11.545084971874704 L281.0,10.78217232520115 L280.0,9.999999999999991 L279.0,9.217827674798833 L278.0,8.45491502812528 L277.0,7.730047501302279 L276.0,7.061073738537642 L275.0,6.464466094067266 L274.0,5.954915028125264 L273.0,5.544967379058175 L272.0,5.244717418524241 L271.0,5.06155829702431 L270.0,5.0 L269.0,5.061558297024309 L268.0,5.244717418524229 L267.0,5.544967379058158 L266.0,5.954915028125263 L265.0,6.464466094067265 L264.0,7.061073738537612 L263.0,7.730047501302245 L262.0,8.454915028125278 L261.0,9.217827674798867 L260.0,9.99999999999999 L259.0,10.782172325201149 L258.0,11.545084971874736 L257.0,12.269952498697737 L256.0,12.938926261462372 L255.0,13.535533905932722 L254.0,14.045084971874747 L253.0,14.455032620941832 L252.0,14.755282581475765 L251.0,14.938441702975688 L250.0,15.0 L249.0,14.938441702975684 L248.0,14.755282581475765 L247.0,14.455032620941834 L246.0,14.045084971874727 L245.0,13.535533905932724 L244.0,12.938926261462374 L243.0,12.269952498697739 L242.0,11.545084971874738 L241.0,10.782172325201152 L240.0,9.999999999999957 L239.0,9.217827674798833 L238.0,8.454915028125248 L237.0,7.730047501302248 L236.0,7.0610737385376146 L235.0,6.464466094067267 L234.0,5.954915028125264 L233.0,5.54496737905816 L232.0,5.24471741852423 L231.0,5.061558297024315 L230.0,5.0 L229.0,5.061558297024314 L228.0,5.24471741852424 L227.0,5.544967379058174 L226.0,5.954915028125262 L225.0,6.464466094067264 L224.0,7.06107373853764 L223.0,7.730047501302276 L222.0,8.454915028125244 L221.0,9.21782767479883 L220.0,10.000000000000025 L219.0,10.782172325201149 L218.0,11.545084971874768 L217.0,12.269952498697736 L216.0,12.93892626146237 L215.0,13.535533905932745 L214.0,14.045084971874747 L213.0,14.455032620941832 L212.0,14.755282581475765 L211.0,14.938441702975693 L210.0,15.0 L209.0,14.938441702975688 L208.0,14.755282581475766 L207.0,14.455032620941834 L206.0,14.04508497187473 L205.0,13.535533905932724 L204.0,12.938926261462376 L203.0,12.26995249869774 L202.0,11.545084971874722 L201.0,10.782172325201152 L200.0,9.999999999999995 L199.0,9.217827674798835 L198.0,8.454915028125265 L197.0,7.7300475013022485 L196.0,7.06107373853763 L195.0,6.464466094067255 L194.0,5.9549150281252645 L193.0,5.544967379058152 L192.0,5.24471741852423 L191.0,5.06155829702431 L190.0,5.0 L189.0,5.061558297024312 L188.0,5.244717418524228 L187.0,5.544967379058157 L186.0,5.954915028125272 L185.0,6.464466094067263 L184.0,7.061073738537653 L183.0,7.730047501302275 L182.0,8.454915028125276 L181.0,9.217827674798864 L180.0,10.000000000000005 L179.0,10.782172325201147 L178.0,11.545084971874735 L177.0,12.269952498697734 L176.0,12.93892626146237 L175.0,13.535533905932757 L174.0,14.045084971874745 L173.0,14.455032620941848 L172.0,14.755282581475775 L171.0,14.938441702975691 L170.0,15.0 L169.0,14.938441702975688 L168.0,14.755282581475766 L167.0,14.455032620941843 L166.0,14.04508497187475 L165.0,13.535533905932724 L164.0,12.938926261462347 L163.0,12.269952498697709 L162.0,11.545084971874724 L161.0,10.782172325201154 L160.0,9.999999999999995 L159.0,9.217827674798837 L158.0,8.454915028125267 L157.0,7.73004750130225 L156.0,7.0610737385376305 L155.0,6.464466094067256 L154.0,5.954915028125265 L153.0,5.544967379058161 L152.0,5.244717418524231 L151.0,5.06155829702431 L150.0,5.0 L149.0,5.061558297024311 L148.0,5.244717418524228 L147.0,5.544967379058157 L146.0,5.954915028125271 L145.0,6.464466094067262 L144.0,7.061073738537638 L143.0,7.730047501302257 L142.0,8.454915028125258 L141.0,9.217827674798864 L140.0,10.000000000000004 L139.0,10.782172325201145 L138.0,11.545084971874733 L137.0,12.269952498697734 L136.0,12.938926261462354 L135.0,13.535533905932745 L134.0,14.045084971874735 L133.0,14.45503262094184 L132.0,14.755282581475765 L131.0,14.938441702975691 L130.0,15.0 L129.0,14.93844170297569 L128.0,14.755282581475766 L127.0,14.455032620941836 L126.0,14.04508497187474 L125.0,13.535533905932725 L124.0,12.938926261462363 L123.0,12.269952498697727 L122.0,11.545084971874742 L121.0,10.782172325201156 L120.0,9.999999999999979 L119.0,9.217827674798837 L118.0,8.454915028125251 L117.0,7.730047501302266 L116.0,7.061073738537631 L115.0,6.464466094067269 L114.0,5.954915028125256 L113.0,5.544967379058161 L112.0,5.244717418524231 L111.0,5.0615582970243125 L110.0,5.0 L109.0,5.061558297024314 L108.0,5.244717418524233 L107.0,5.544967379058164 L106.0,5.954915028125259 L105.0,6.464466094067261 L104.0,7.061073738537637 L103.0,7.730047501302273 L102.0,8.454915028125257 L101.0,9.217827674798853 L100.0,10.000000000000004 L99.0,10.782172325201152 L98.0,11.54508497187474 L97.0,12.269952498697734 L96.0,12.938926261462367 L95.0,13.535533905932743 L94.0,14.045084971874733 L93.0,14.455032620941843 L92.0,14.755282581475772 L91.0,14.938441702975691 L90.0,15.0 L89.0,14.93844170297569 L88.0,14.755282581475768 L87.0,14.455032620941836 L86.0,14.045084971874731 L85.0,13.53553390593274 L84.0,12.938926261462363 L83.0,12.269952498697744 L82.0,11.545084971874726 L81.0,10.782172325201147 L80.0,9.999999999999998 L79.0,9.217827674798848 L78.0,8.45491502812526 L77.0,7.730047501302268 L76.0,7.061073738537633 L75.0,6.464466094067258 L74.0,5.954915028125266 L73.0,5.544967379058158 L72.0,5.244717418524231 L71.0,5.061558297024312 L70.0,5.0 L69.0,5.061558297024311 L68.0,5.24471741852423 L67.0,5.54496737905816 L66.0,5.954915028125259 L65.0,6.4644660940672605 L64.0,7.061073738537636 L63.0,7.730047501302264 L62.0,8.454915028125265 L61.0,9.217827674798842 L60.0,10.00000000000001 L59.0,10.782172325201161 L58.0,11.54508497187474 L57.0,12.269952498697739 L56.0,12.938926261462367 L55.0,13.535533905932741 L54.0,14.045084971874738 L53.0,14.455032620941838 L52.0,14.755282581475768 L51.0,14.938441702975688 L50.0,15.0 L49.0,14.938441702975688 L48.0,14.755282581475768 L47.0,14.45503262094184 L46.0,14.045084971874733 L45.0,13.535533905932738 L44.0,12.938926261462365 L43.0,12.269952498697728 L42.0,11.545084971874736 L41.0,10.782172325201149 L40.0,9.999999999999998 L39.0,9.217827674798844 L38.0,8.454915028125262 L37.0,7.730047501302269 L36.0,7.061073738537633 L35.0,6.464466094067261 L34.0,5.954915028125265 L33.0,5.544967379058162 L32.0,5.244717418524232 L31.0,5.061558297024311 L30.0,5.0 L29.0,5.061558297024312 L28.0,5.244717418524233 L27.0,5.544967379058161 L26.0,5.954915028125264 L25.0,6.464466094067262 L24.0,7.061073738537635 L23.0,7.730047501302269 L22.0,8.454915028125264 L21.0,9.217827674798846 L20.0,10.0 L19.0,10.782172325201154 L18.0,11.545084971874738 L17.0,12.269952498697732 L16.0,12.938926261462367 L15.0,13.53553390593274 L14.0,14.045084971874736 L13.0,14.45503262094184 L12.0,14.755282581475768 L11.0,14.93844170297569 L10.0,15.0 L9.0,14.93844170297569 L8.0,14.755282581475768 L7.0,14.45503262094184 L6.0,14.045084971874736 L5.0,13.535533905932738 L4.0,12.938926261462367 L3.0,12.269952498697734 L2.0,11.545084971874736 L1.0,10.782172325201154 L0.0,10.0" stroke-width="3" stroke-linecap="round" stroke="#000000" fill="none"  />
<!-- Footer -->
</svg>
