<!-- Header -->
<svg
    version="1.1"
    baseProfile="full"
    xmlns="http://www.w3.org/2000/svg"
    xmlns:xlink="http://www.w3.org/1999/xlink"
    xmlns:ev="http://www.w3.org/2001/xml-events"
    width="115.0"
    height="30.0"
    viewBox="-7.5 -12.5 115.0 30.0"
    preserveAspectRatio="none"
>
<!-- Body -->
<!-- Path -->
<path d="M0.0,0.0 L0.1,0.31395259764656686 L0.2,0.6266661678215213 L0.3,0.936906572928623 L0.4,1.243449435824274 L0.5,1.545084971874737 L0.6,1.8406227634233896 L0.7,2.128896457825363 L0.8,2.4087683705085765 L0.9,2.679133974894983 L1.0,2.938926261462366 L1.1,3.1871199487434487 L1.2,3.422735529643443 L1.3,3.644843137107058 L1.4,3.8525662138789456 L1.5,4.045084971874737 L1.6,4.221639627510076 L1.7,4.381533400219318 L1.8,4.524135262330098 L1.9,4.648882429441256 L2.0,4.755282581475767 L2.1,4.842915805643155 L2.2,4.911436253643443 L2.3,4.960573506572389 L2.4,4.990133642141358 L2.5,5.0 L2.6,4.990133642141358 L2.7,4.9605735065723895 L2.8,4.911436253643443 L2.9,4.842915805643156 L3.0,4.755282581475768 L3.1,4.648882429441257 L3.2,4.524135262330097 L3.3,4.381533400219317 L3.4,4.221639627510076 L3.5,4.045084971874737 L3.6,3.852566213878946 L3.7,3.644843137107057 L3.8,3.422735529643444 L3.9,3.187119948743449 L4.0,2.9389262614623664 L4.1,2.679133974894985 L4.2,2.408768370508576 L4.3,2.1288964578253626 L4.4,1.8406227634233887 L4.5,1.5450849718747375 L4.6,1.2434494358242763 L4.7,0.9369065729286229 L4.8,0.6266661678215226 L4.9,0.3139525976465657 L5.0,6.123233995736766e-16 L5.1,-0.3139525976465645 L5.2,-0.6266661678215214 L5.3,-0.9369065729286195 L5.4,-1.243449435824273 L5.5,-1.5450849718747364 L5.6,-1.8406227634233874 L5.7,-2.1288964578253635 L5.8,-2.408768370508575 L5.9,-2.6791339748949836 L6.0,-2.938926261462365 L6.1,-3.1871199487434465 L6.2,-3.422735529643442 L6.3,-3.6448431371070567 L6.4,-3.852566213878947 L6.5,-4.045084971874736 L6.6,-4.2216396275100765 L6.7,-4.381533400219318 L6.8,-4.5241352623300966 L6.9,-4.648882429441257 L7.0,-4.755282581475767 L7.1,-4.8429158056431545 L7.2,-4.911436253643443 L7.3,-4.960573506572389 L7.4,-4.990133642141358 L7.5,-5.0 L7.6,-4.990133642141358 L7.7,-4.9605735065723895 L7.8,-4.911436253643443 L7.9,-4.842915805643155 L8.0,-4.755282581475768 L8.1,-4.648882429441258 L8.2,-4.524135262330099 L8.3,-4.381533400219319 L8.4,-4.221639627510075 L8.5,-4.045084971874735 L8.6,-3.852566213878945 L8.7,-3.6448431371070606 L8.8,-3.4227355296434414 L8.9,-3.1871199487434483 L9.0,-2.938926261462367 L9.1,-2.6791339748949854 L9.2,-2.4087683705085805 L9.3,-2.128896457825361 L9.4,-1.8406227634233894 L9.5,-1.5450849718747381 L9.6,-1.2434494358242767 L9.7,-0.9369065729286279 L9.8,-0.626666167821519 L9.9,-0.3139525976465663 L10.0,-1.2246467991473533e-15 L10.1,0.3139525976465639 L10.2,0.6266661678215164 L10.3,0.9369065729286298 L10.4,1.2434494358242745 L10.5,1.545084971874736 L10.6,1.840622763423383 L10.7,2.128896457825359 L10.8,2.4087683705085743 L10.9,2.679133974894983 L11.0,2.9389262614623646 L11.1,3.187119948743446 L11.2,3.4227355296434396 L11.3,3.6448431371070593 L11.4,3.852566213878946 L11.5,4.045084971874734 L11.6,4.221639627510074 L11.7,4.381533400219316 L11.8,4.524135262330098 L11.9,4.648882429441257 L12.0,4.755282581475767 L12.1,4.8429158056431545 L12.2,4.911436253643442 L12.3,4.9605735065723895 L12.4,4.990133642141358 L12.5,5.0 L12.6,4.990133642141358 L12.7,4.9605735065723895 L12.8,4.911436253643443 L12.9,4.842915805643155 L13.0,4.755282581475768 L13.1,4.648882429441258 L13.2,4.5241352623300966 L13.3,4.381533400219321 L13.4,4.221639627510076 L13.5,4.045084971874738 L13.6,3.8525662138789487 L13.7,3.644843137107061 L13.8,3.422735529643442 L13.9,3.1871199487434487 L14.0,2.938926261462367 L14.1,2.6791339748949783 L14.2,2.408768370508581 L14.3,2.1288964578253617 L14.4,1.8406227634233898 L14.5,1.545084971874739 L14.6,1.2434494358242774 L14.7,0.9369065729286284 L14.8,0.6266661678215195 L14.9,0.3139525976465669 L15.0,1.0718754395722281e-14 L15.1,-0.31395259764656325 L15.2,-0.6266661678215159 L15.3,-0.9369065729286248 L15.4,-1.2434494358242738 L15.5,-1.5450849718747353 L15.6,-1.8406227634233863 L15.7,-2.128896457825358 L15.8,-2.408768370508578 L15.9,-2.6791339748949756 L16.0,-2.938926261462364 L16.1,-3.1871199487434527 L16.2,-3.422735529643439 L16.3,-3.644843137107059 L16.4,-3.8525662138789403 L16.5,-4.045084971874741 L16.6,-4.221639627510073 L16.7,-4.38153340021932 L16.8,-4.524135262330098 L16.9,-4.648882429441254 L17.0,-4.75528258147577 L17.1,-4.8429158056431545 L17.2,-4.911436253643444 L17.3,-4.9605735065723895 L17.4,-4.990133642141357 L17.5,-5.0 L17.6,-4.990133642141357 L17.7,-4.9605735065723895 L17.8,-4.911436253643443 L17.9,-4.842915805643156 L18.0,-4.755282581475769 L18.1,-4.648882429441255 L18.2,-4.5241352623301 L18.3,-4.381533400219313 L18.4,-4.22163962751008 L18.5,-4.045084971874734 L18.6,-3.852566213878943 L18.7,-3.6448431371070615 L18.8,-3.4227355296434423 L18.9,-3.187119948743456 L19.0,-2.9389262614623672 L19.1,-2.6791339748949787 L19.2,-2.4087683705085814 L19.3,-2.128896457825362 L19.4,-1.8406227634233985 L19.5,-1.5450849718747395 L19.6,-1.2434494358242694 L19.7,-0.9369065729286377 L19.8,-0.6266661678215201 L19.9,-0.3139525976465676 L20.0,-2.4492935982947065e-15 L20.1,0.31395259764656264 L20.2,0.6266661678215152 L20.3,0.9369065729286329 L20.4,1.2434494358242647 L20.5,1.5450849718747262 L20.6,1.8406227634234025 L20.7,2.1288964578253577 L20.8,2.408768370508577 L20.9,2.6791339748949823 L21.0,2.9389262614623632 L21.1,3.187119948743452 L21.2,3.4227355296434325 L21.3,3.644843137107064 L21.4,3.8525662138789403 L21.5,4.045084971874731 L21.6,4.221639627510073 L21.7,4.381533400219319 L21.8,4.524135262330098 L21.9,4.648882429441254 L22.0,4.755282581475767 L22.1,4.842915805643159 L22.2,4.911436253643442 L22.3,4.960573506572389 L22.4,4.990133642141357 L22.5,5.0 L22.6,4.990133642141358 L22.7,4.9605735065723895 L22.8,4.911436253643443 L22.9,4.842915805643156 L23.0,4.755282581475772 L23.1,4.648882429441259 L23.2,4.524135262330101 L23.3,4.381533400219322 L23.4,4.221639627510081 L23.5,4.045084971874734 L23.6,3.8525662138789434 L23.7,3.6448431371070624 L23.8,3.422735529643443 L23.9,3.1871199487434563 L24.0,2.9389262614623677 L24.1,2.679133974894987 L24.2,2.4087683705085823 L24.3,2.1288964578253626 L24.4,1.840622763423399 L24.5,1.54508497187474 L24.6,1.24344943582427 L24.7,0.9369065729286209 L24.8,0.6266661678215295 L24.9,0.31395259764656813 L25.0,3.061616997868383e-15 L25.1,-0.313952597646562 L25.2,-0.6266661678215146 L25.3,-0.9369065729286323 L25.4,-1.2434494358242727 L25.5,-1.5450849718747426 L25.6,-1.8406227634233936 L25.7,-2.1288964578253493 L25.8,-2.4087683705085765 L25.9,-2.679133974894967 L26.0,-2.938926261462363 L26.1,-3.187119948743459 L26.2,-3.4227355296434387 L26.3,-3.6448431371070518 L26.4,-3.8525662138789505 L26.5,-4.045084971874741 L26.6,-4.2216396275100685 L26.7,-4.38153340021931 L26.8,-4.524135262330098 L26.9,-4.648882429441256 L27.0,-4.755282581475767 L27.1,-4.8429158056431545 L27.2,-4.911436253643442 L27.3,-4.96057350657239 L27.4,-4.990133642141357 L27.5,-5.0 L27.6,-4.990133642141358 L27.7,-4.960573506572391 L27.8,-4.911436253643443 L27.9,-4.842915805643156 L28.0,-4.755282581475769 L28.1,-4.648882429441259 L28.2,-4.524135262330093 L28.3,-4.381533400219314 L28.4,-4.221639627510081 L28.5,-4.045084971874744 L28.6,-3.8525662138789443 L28.7,-3.6448431371070567 L28.8,-3.4227355296434436 L28.9,-3.18711994874345 L29.0,-2.9389262614623686 L29.1,-2.679133974894973 L29.2,-2.4087683705085827 L29.3,-2.1288964578253715 L29.4,-1.8406227634233998 L29.5,-1.5450849718747488 L29.6,-1.2434494358242705 L29.7,-0.9369065729286215 L29.8,-0.6266661678215213 L29.9,-0.3139525976465865 L30.0,-2.1437508791444562e-14 L30.1,0.3139525976465791 L30.2,0.6266661678215141 L30.3,0.9369065729286142 L30.4,1.2434494358242634 L30.5,1.545084971874742 L30.6,1.840622763423393 L30.7,2.128896457825365 L30.8,2.408768370508576 L30.9,2.6791339748949667 L31.0,2.9389262614623624 L31.1,3.1871199487434443 L31.2,3.422735529643438 L31.3,3.644843137107051 L31.4,3.852566213878939 L31.5,4.04508497187474 L31.6,4.221639627510077 L31.7,4.38153340021931 L31.8,4.52413526233009 L31.9,4.648882429441256 L32.0,4.755282581475766 L32.1,4.842915805643159 L32.2,4.911436253643445 L32.3,4.960573506572389 L32.4,4.990133642141357 L32.5,5.0 L32.6,4.990133642141358 L32.7,4.960573506572389 L32.8,4.911436253643447 L32.9,4.842915805643156 L33.0,4.755282581475764 L33.1,4.648882429441253 L33.2,4.524135262330101 L33.3,4.381533400219323 L33.4,4.221639627510072 L33.5,4.045084971874735 L33.6,3.8525662138789443 L33.7,3.644843137107057 L33.8,3.422735529643457 L33.9,3.1871199487434643 L34.0,2.9389262614623544 L34.1,2.679133974894988 L34.2,2.408768370508583 L34.3,2.128896457825388 L34.4,1.8406227634233838 L34.5,1.5450849718747328 L34.6,1.2434494358242711 L34.7,0.936906572928622 L34.8,0.6266661678215396 L34.9,0.31395259764656935 L35.0,4.2862637970157365e-15 L35.1,-0.3139525976465608 L35.2,-0.6266661678215311 L35.3,-0.9369065729286137 L35.4,-1.243449435824263 L35.5,-1.5450849718747415 L35.6,-1.8406227634233923 L35.7,-2.1288964578253804 L35.8,-2.4087683705085756 L35.9,-2.679133974894981 L36.0,-2.9389262614623624 L36.1,-3.1871199487434576 L36.2,-3.4227355296434503 L36.3,-3.644843137107051 L36.4,-3.8525662138789385 L36.5,-4.045084971874729 L36.6,-4.221639627510086 L36.7,-4.381533400219327 L36.8,-4.5241352623300894 L36.9,-4.648882429441256 L37.0,-4.755282581475772 L37.1,-4.842915805643159 L37.2,-4.911436253643445 L37.3,-4.960573506572388 L37.4,-4.990133642141357 L37.5,-5.0 L37.6,-4.990133642141358 L37.7,-4.960573506572389 L37.8,-4.911436253643447 L37.9,-4.842915805643161 L38.0,-4.755282581475769 L38.1,-4.648882429441253 L38.2,-4.524135262330093 L38.3,-4.381533400219332 L38.4,-4.221639627510082 L38.5,-4.045084971874735 L38.6,-3.8525662138789447 L38.7,-3.644843137107057 L38.8,-3.422735529643457 L38.9,-3.187119948743451 L39.0,-2.9389262614623695 L39.1,-2.679133974894989 L39.2,-2.408768370508568 L39.3,-2.1288964578253884 L39.4,-1.8406227634234174 L39.5,-1.5450849718747333 L39.6,-1.2434494358242718 L39.7,-0.9369065729286052 L39.8,-0.6266661678215225 L39.9,-0.31395259764657 L40.0,-4.898587196589413e-15 L40.1,0.3139525976465602 L40.2,0.6266661678215129 L40.3,0.9369065729285957 L40.4,1.2434494358242623 L40.5,1.545084971874724 L40.6,1.8406227634234082 L40.7,2.1288964578253795 L40.8,2.408768370508559 L40.9,2.6791339748949805 L41.0,2.9389262614623473 L41.1,3.187119948743443 L41.2,3.422735529643463 L41.3,3.6448431371070504 L41.4,3.8525662138789385 L41.5,4.04508497187475 L41.6,4.2216396275100765 L41.7,4.381533400219327 L41.8,4.5241352623300966 L41.9,4.648882429441249 L42.0,4.755282581475766 L42.1,4.842915805643149 L42.2,4.911436253643445 L42.3,4.960573506572388 L42.4,4.990133642141356 L42.5,5.0 L42.6,4.990133642141357 L42.7,4.9605735065723895 L42.8,4.911436253643447 L42.9,4.842915805643156 L43.0,4.755282581475775 L43.1,4.648882429441253 L43.2,4.524135262330101 L43.3,4.381533400219332 L43.4,4.221639627510073 L43.5,4.045084971874745 L43.6,3.852566213878945 L43.7,3.6448431371070455 L43.8,3.4227355296434574 L43.9,3.1871199487434647 L44.0,2.9389262614623703 L44.1,2.6791339748949894 L44.2,2.408768370508553 L44.3,2.1288964578253893 L44.4,1.8406227634234016 L44.5,1.545084971874734 L44.6,1.2434494358242896 L44.7,0.9369065729286232 L44.8,0.6266661678215407 L44.9,0.31395259764657063 L45.0,5.5109105961630896e-15 L45.1,-0.3139525976465419 L45.2,-0.62666616782153 L45.3,-0.9369065729286125 L45.4,-1.2434494358242616 L45.5,-1.5450849718747235 L45.6,-1.8406227634233914 L45.7,-2.128896457825347 L45.8,-2.4087683705085747 L45.9,-2.67913397489498 L46.0,-2.938926261462347 L46.1,-3.1871199487434563 L46.2,-3.4227355296434365 L46.3,-3.64484313710705 L46.4,-3.852566213878938 L46.5,-4.045084971874728 L46.6,-4.221639627510067 L46.7,-4.381533400219326 L46.8,-4.5241352623300894 L46.9,-4.648882429441249 L47.0,-4.755282581475772 L47.1,-4.842915805643154 L47.2,-4.911436253643445 L47.3,-4.960573506572388 L47.4,-4.990133642141357 L47.5,-5.0 L47.6,-4.990133642141358 L47.7,-4.9605735065723895 L47.8,-4.911436253643447 L47.9,-4.842915805643161 L48.0,-4.75528258147577 L48.1,-4.648882429441254 L48.2,-4.524135262330102 L48.3,-4.381533400219324 L48.4,-4.221639627510083 L48.5,-4.0450849718747355 L48.6,-3.8525662138789456 L48.7,-3.64484313710707 L48.8,-3.4227355296434583 L48.9,-3.187119948743452 L49.0,-2.938926261462371 L49.1,-2.67913397489499 L49.2,-2.408768370508569 L49.3,-2.1288964578253897 L49.4,-1.8406227634233854 L49.5,-1.5450849718747346 L49.6,-1.2434494358242902 L49.7,-0.9369065729286065 L49.8,-0.6266661678215237 L49.9,-0.31395259764657124 L50.0,-6.123233995736766e-15 L50.1,0.313952597646559 L50.2,0.6266661678215115 L50.3,0.9369065729286292 L50.4,1.2434494358242612 L50.5,1.5450849718747228 L50.6,1.8406227634234071 L50.7,2.1288964578253626 L50.8,2.4087683705085743 L50.9,2.679133974894979 L51.0,2.9389262614623752 L51.1,3.1871199487434425 L51.2,3.4227355296434494 L51.3,3.64484313710705 L51.4,3.8525662138789265 L51.5,4.045084971874728 L51.6,4.221639627510076 L51.7,4.381533400219326 L51.8,4.5241352623300815 L51.9,4.648882429441262 L52.0,4.755282581475766 L52.1,4.842915805643158 L52.2,4.911436253643448 L52.3,4.960573506572386 L52.4,4.990133642141357 L52.5,5.0 L52.6,4.990133642141359 L52.7,4.9605735065723895 L52.8,4.911436253643441 L52.9,4.842915805643157 L53.0,4.755282581475765 L53.1,4.64888242944126 L53.2,4.52413526233011 L53.3,4.381533400219324 L53.4,4.221639627510092 L53.5,4.045084971874746 L53.6,3.8525662138789456 L53.7,3.644843137107046 L53.8,3.422735529643446 L53.9,3.1871199487434385 L54.0,2.9389262614623712 L54.1,2.679133974895005 L54.2,2.4087683705085854 L54.3,2.12889645782539 L54.4,1.8406227634234027 L54.5,1.5450849718747688 L54.6,1.2434494358242563 L54.7,0.9369065729286246 L54.8,0.6266661678215419 L54.9,0.3139525976465718 L55.0,2.4499125789312944e-14 L55.1,-0.3139525976465584 L55.2,-0.6266661678215286 L55.3,-0.9369065729286112 L55.4,-1.2434494358242434 L55.5,-1.5450849718747561 L55.6,-1.84062276342339 L55.7,-2.128896457825378 L55.8,-2.4087683705085734 L55.9,-2.679133974894964 L56.0,-2.93892626146236 L56.1,-3.1871199487434554 L56.2,-3.422735529643436 L56.3,-3.644843137107037 L56.4,-3.8525662138789594 L56.5,-4.045084971874738 L56.6,-4.2216396275100845 L56.7,-4.381533400219317 L56.8,-4.524135262330089 L56.9,-4.648882429441255 L57.0,-4.75528258147576 L57.1,-4.842915805643154 L57.2,-4.911436253643445 L57.3,-4.960573506572383 L57.4,-4.990133642141358 L57.5,-5.0 L57.6,-4.990133642141358 L57.7,-4.960573506572391 L57.8,-4.911436253643444 L57.9,-4.842915805643162 L58.0,-4.75528258147577 L58.1,-4.648882429441267 L58.2,-4.524135262330088 L58.3,-4.381533400219316 L58.4,-4.221639627510083 L58.5,-4.045084971874736 L58.6,-3.8525662138789576 L58.7,-3.644843137107059 L58.8,-3.422735529643459 L58.9,-3.1871199487434527 L59.0,-2.9389262614623854 L59.1,-2.6791339748949605 L59.2,-2.4087683705085703 L59.3,-2.1288964578253746 L59.4,-1.8406227634233865 L59.5,-1.5450849718747526 L59.6,-1.243449435824274 L59.7,-0.9369065729286076 L59.8,-0.6266661678215601 L59.9,-0.31395259764659017 L60.0,-4.2875017582889124e-14 L60.1,0.31395259764657546 L60.2,0.6266661678215456 L60.3,0.9369065729285931 L60.4,1.24344943582426 L60.5,1.5450849718747386 L60.6,1.840622763423373 L60.7,2.1288964578253613 L60.8,2.4087683705085574 L60.9,2.679133974894948 L61.0,2.938926261462374 L61.1,3.1871199487434416 L61.2,3.422735529643448 L61.3,3.644843137107049 L61.4,3.852566213878948 L61.5,4.0450849718747275 L61.6,4.221639627510076 L61.7,4.3815334002193085 L61.8,4.524135262330081 L61.9,4.648882429441262 L62.0,4.7552825814757655 L62.1,4.842915805643157 L62.2,4.9114362536434415 L62.3,4.9605735065723895 L62.4,4.990133642141357 L62.5,5.0 L62.6,4.990133642141359 L62.7,4.960573506572385 L62.8,4.911436253643448 L62.9,4.842915805643157 L63.0,4.755282581475765 L63.1,4.648882429441261 L63.2,4.524135262330095 L63.3,4.381533400219324 L63.4,4.221639627510093 L63.5,4.045084971874747 L63.6,3.852566213878969 L63.7,3.6448431371070718 L63.8,3.4227355296434463 L63.9,3.187119948743467 L64.0,2.9389262614623717 L64.1,2.679133974894976 L64.2,2.408768370508555 L64.3,2.128896457825359 L64.4,1.8406227634233707 L64.5,1.5450849718747361 L64.6,1.2434494358242918 L64.7,0.9369065729286257 L64.8,0.6266661678215433 L64.9,0.313952597646573 L65.0,-9.803364199544707e-15 L65.1,-0.3139525976465217 L65.2,-0.6266661678215274 L65.3,-0.9369065729286101 L65.4,-1.2434494358242765 L65.5,-1.5450849718747213 L65.6,-1.840622763423356 L65.7,-2.128896457825345 L65.8,-2.4087683705085725 L65.9,-2.6791339748949925 L66.0,-2.938926261462388 L66.1,-3.187119948743455 L66.2,-3.422735529643461 L66.3,-3.6448431371070606 L66.4,-3.8525662138789363 L66.5,-4.045084971874737 L66.6,-4.221639627510065 L66.7,-4.3815334002193165 L66.8,-4.524135262330104 L66.9,-4.648882429441268 L67.0,-4.755282581475771 L67.1,-4.842915805643154 L67.2,-4.911436253643445 L67.3,-4.960573506572388 L67.4,-4.990133642141358 L67.5,-5.0 L67.6,-4.99013364214136 L67.7,-4.960573506572387 L67.8,-4.911436253643451 L67.9,-4.842915805643153 L68.0,-4.755282581475759 L68.1,-4.648882429441267 L68.2,-4.524135262330103 L68.3,-4.3815334002193325 L68.4,-4.221639627510084 L68.5,-4.045084971874736 L68.6,-3.8525662138789807 L68.7,-3.644843137107036 L68.8,-3.4227355296434343 L68.9,-3.1871199487434265 L69.0,-2.938926261462358 L69.1,-2.6791339748949916 L69.2,-2.408768370508571 L69.3,-2.128896457825376 L69.4,-1.8406227634233876 L69.5,-1.5450849718747197 L69.6,-1.2434494358243098 L69.7,-0.9369065729286088 L69.8,-0.6266661678215262 L69.9,-0.3139525976465559 L70.0,-8.572527594031473e-15 L70.1,0.3139525976465388 L70.2,0.6266661678215092 L70.3,0.936906572928592 L70.4,1.2434494358242931 L70.5,1.5450849718747037 L70.6,1.8406227634233718 L70.7,2.1288964578253924 L70.8,2.4087683705085565 L70.9,2.6791339748949774 L71.0,2.938926261462373 L71.1,3.187119948743413 L71.2,3.4227355296434476 L71.3,3.644843137107072 L71.4,3.85256621387897 L71.5,4.045084971874748 L71.6,4.221639627510074 L71.7,4.3815334002193245 L71.8,4.524135262330096 L71.9,4.648882429441262 L72.0,4.755282581475765 L72.1,4.842915805643148 L72.2,4.911436253643448 L72.3,4.960573506572385 L72.4,4.990133642141359 L72.5,5.0 L72.6,4.990133642141359 L72.7,4.9605735065723895 L72.8,4.911436253643448 L72.9,4.842915805643157 L73.0,4.755282581475776 L73.1,4.648882429441274 L73.2,4.524135262330081 L73.3,4.3815334002193245 L73.4,4.221639627510055 L73.5,4.045084971874727 L73.6,3.85256621387897 L73.7,3.6448431371070478 L73.8,3.4227355296434476 L73.9,3.1871199487434403 L74.0,2.938926261462344 L74.1,2.679133974895007 L74.2,2.4087683705085565 L74.3,2.1288964578253604 L74.4,1.8406227634233718 L74.5,1.5450849718747373 L74.6,1.2434494358242931 L74.7,0.9369065729286269 L74.8,0.6266661678215445 L74.9,0.3139525976465388 L75.0,2.6948419387607653e-14 L75.1,-0.3139525976465559 L75.2,-0.6266661678215262 L75.3,-0.9369065729286088 L75.4,-1.2434494358242754 L75.5,-1.5450849718747197 L75.6,-1.8406227634233545 L75.7,-2.128896457825376 L75.8,-2.40876837050854 L75.9,-2.679133974895022 L76.0,-2.938926261462358 L76.1,-3.1871199487433985 L76.2,-3.4227355296434596 L76.3,-3.644843137107036 L76.4,-3.8525662138789585 L76.5,-4.045084971874736 L76.6,-4.221639627510045 L76.7,-4.3815334002193325 L76.8,-4.524135262330088 L76.9,-4.648882429441267 L77.0,-4.75528258147577 L77.1,-4.842915805643153 L77.2,-4.911436253643444 L77.3,-4.960573506572387 L77.4,-4.990133642141358 L77.5,-5.0 L77.6,-4.99013364214136 L77.7,-4.960573506572392 L77.8,-4.911436253643445 L77.9,-4.842915805643154 L78.0,-4.755282581475771 L78.1,-4.648882429441268 L78.2,-4.524135262330104 L78.3,-4.381533400219333 L78.4,-4.221639627510065 L78.5,-4.045084971874759 L78.6,-3.8525662138789816 L78.7,-3.6448431371070362 L78.8,-3.4227355296434867 L78.9,-3.187119948743427 L79.0,-2.938926261462359 L79.1,-2.6791339748950227 L79.2,-2.4087683705085725 L79.3,-2.128896457825377 L79.4,-1.840622763423356 L79.5,-1.5450849718747548 L79.6,-1.2434494358242765 L79.7,-0.9369065729286101 L79.8,-0.6266661678215274 L79.9,-0.31395259764655714 L80.0,-9.797174393178826e-15 L80.1,0.3139525976465376 L80.2,0.626666167821508 L80.3,0.9369065729285908 L80.4,1.2434494358242574 L80.5,1.5450849718747361 L80.6,1.8406227634233376 L80.7,2.128896457825359 L80.8,2.408768370508555 L80.9,2.679133974895006 L81.0,2.9389262614623437 L81.1,3.187119948743412 L81.2,3.4227355296434725 L81.3,3.644843137107023 L81.4,3.852566213878969 L81.5,4.045084971874705 L81.6,4.221639627510055 L81.7,4.381533400219324 L81.8,4.524135262330095 L81.9,4.648882429441247 L82.0,4.755282581475754 L82.1,4.842915805643139 L82.2,4.911436253643441 L82.3,4.9605735065723895 L82.4,4.990133642141361 L82.5,5.0 L82.6,4.990133642141359 L82.7,4.9605735065723895 L82.8,4.911436253643448 L82.9,4.842915805643148 L83.0,4.755282581475754 L83.1,4.648882429441274 L83.2,4.5241352623300966 L83.3,4.381533400219342 L83.4,4.221639627510056 L83.5,4.0450849718747275 L83.6,3.852566213878948 L83.7,3.644843137107073 L83.8,3.4227355296434743 L83.9,3.1871199487434145 L84.0,2.938926261462374 L84.1,2.6791339748949783 L84.2,2.4087683705086196 L84.3,2.1288964578253937 L84.4,1.840622763423373 L84.5,1.5450849718747386 L84.6,1.2434494358242942 L84.7,0.936906572928663 L84.8,0.6266661678215808 L84.9,0.31395259764657546 L85.0,-7.354070601250003e-15 L85.1,-0.3139525976465193 L85.2,-0.6266661678215603 L85.3,-0.9369065729286076 L85.4,-1.243449435824274 L85.5,-1.5450849718747186 L85.6,-1.8406227634233536 L85.7,-2.128896457825407 L85.8,-2.4087683705085703 L85.9,-2.6791339748949907 L86.0,-2.9389262614623286 L86.1,-3.187119948743425 L86.2,-3.422735529643459 L86.3,-3.644843137107059 L86.4,-3.8525662138789354 L86.5,-4.045084971874715 L86.6,-4.2216396275100445 L86.7,-4.381533400219316 L86.8,-4.524135262330102 L86.9,-4.64888242944124 L87.0,-4.755282581475759 L87.1,-4.842915805643153 L87.2,-4.911436253643444 L87.3,-4.960573506572387 L87.4,-4.99013364214136 L87.5,-5.0 L87.6,-4.99013364214136 L87.7,-4.960573506572388 L87.8,-4.911436253643451 L87.9,-4.842915805643145 L88.0,-4.755282581475771 L88.1,-4.648882429441269 L88.2,-4.524135262330104 L88.3,-4.381533400219334 L88.4,-4.221639627510047 L88.5,-4.045084971874738 L88.6,-3.8525662138789825 L88.7,-3.6448431371070855 L88.8,-3.4227355296434614 L88.9,-3.1871199487434283 L89.0,-2.93892626146236 L89.1,-2.679133974894994 L89.2,-2.4087683705086045 L89.3,-2.12889645782541 L89.4,-1.84062276342339 L89.5,-1.5450849718747222 L89.6,-1.2434494358243122 L89.7,-0.9369065729286462 L89.8,-0.6266661678215286 L89.9,-0.31395259764655836 L90.0,-1.1021821192326179e-14 L90.1,0.3139525976465363 L90.2,0.6266661678214714 L90.3,0.9369065729285896 L90.4,1.2434494358242907 L90.5,1.5450849718747013 L90.6,1.8406227634233696 L90.7,2.12889645782539 L90.8,2.4087683705085543 L90.9,2.6791339748949747 L91.0,2.9389262614623424 L91.1,3.187119948743411 L91.2,3.422735529643446 L91.3,3.6448431371070704 L91.4,3.852566213878923 L91.5,4.045084971874725 L91.6,4.221639627510073 L91.7,4.381533400219324 L91.8,4.524135262330095 L91.9,4.6488824294412465 L92.0,4.755282581475753 L92.1,4.842915805643148 L92.2,4.911436253643448 L92.3,4.960573506572385 L92.4,4.990133642141357 L92.5,5.0 L92.6,4.99013364214136 L92.7,4.9605735065723895 L92.8,4.911436253643448 L92.9,4.84291580564314 L93.0,4.755282581475777 L93.1,4.648882429441275 L93.2,4.524135262330112 L93.3,4.381533400219326 L93.4,4.221639627510056 L93.5,4.045084971874728 L93.6,3.852566213878972 L93.7,3.644843137107074 L93.8,3.422735529643475 L93.9,3.1871199487434425 L94.0,2.9389262614623464 L94.1,2.6791339748950094 L94.2,2.40876837050859 L94.3,2.1288964578253626 L94.4,1.840622763423374 L94.5,1.5450849718747397 L94.6,1.2434494358242956 L94.7,0.9369065729286642 L94.8,0.6266661678215468 L94.9,0.31395259764654126 L95.0,2.9397712985902356e-14 L95.1,-0.3139525976465535 L95.2,-0.6266661678215237 L95.3,-0.9369065729286065 L95.4,-1.243449435824273 L95.5,-1.5450849718747175 L95.6,-1.8406227634233523 L95.7,-2.1288964578253737 L95.8,-2.408768370508538 L95.9,-2.6791339748949596 L96.0,-2.938926261462356 L96.1,-3.187119948743452 L96.2,-3.4227355296434583 L96.3,-3.644843137107034 L96.4,-3.852566213878934 L96.5,-4.045084971874714 L96.6,-4.221639627510063 L96.7,-4.381533400219332 L96.8,-4.524135262330087 L96.9,-4.648882429441254 L97.0,-4.75528258147577 L97.1,-4.842915805643152 L97.2,-4.911436253643443 L97.3,-4.960573506572387 L97.4,-4.990133642141355 L97.5,-5.0 L97.6,-4.990133642141361 L97.7,-4.960573506572392 L97.8,-4.911436253643445 L97.9,-4.842915805643154 L98.0,-4.755282581475772 L98.1,-4.648882429441269 L98.2,-4.5241352623301045 L98.3,-4.381533400219334 L98.4,-4.221639627510067 L98.5,-4.04508497187476 L98.6,-3.8525662138789833 L98.7,-3.6448431371070624 L98.8,-3.4227355296434365 L98.9,-3.187119948743429 L99.0,-2.9389262614623615 L99.1,-2.679133974895025 L99.2,-2.408768370508606 L99.3,-2.128896457825379 L99.4,-1.8406227634233583 L99.5,-1.5450849718747572 L99.6,-1.243449435824279 L99.7,-0.9369065729286125 L99.8,-0.62666616782153 L99.9,-0.3139525976465596 L100.0,-1.2246467991473532e-14 L100.0,4.999999999999988 L99.9,4.686047402353441 L99.8,4.37333383217847 L99.7,4.063093427071387 L99.6,3.756550564175721 L99.5,3.4549150281252428 L99.4,3.159377236576642 L99.3,2.871103542174621 L99.2,2.591231629491394 L99.1,2.320866025104975 L99.0,2.0610737385376385 L98.9,1.8128800512565708 L98.8,1.5772644703565635 L98.7,1.3551568628929376 L98.6,1.1474337861210167 L98.5,0.9549150281252397 L98.4,0.7783603724899333 L98.3,0.6184665997806658 L98.2,0.47586473766989545 L98.1,0.3511175705587313 L98.0,0.24471741852422824 L97.9,0.1570841943568464 L97.8,0.08856374635655495 L97.7,0.039426493427607845 L97.6,0.009866357858639319 L97.5,0.0 L97.4,0.009866357858644648 L97.3,0.039426493427613174 L97.2,0.08856374635655673 L97.1,0.15708419435684817 L97.0,0.24471741852423 L96.9,0.3511175705587464 L96.8,0.4758647376699132 L96.7,0.6184665997806684 L96.6,0.7783603724899368 L96.5,0.9549150281252858 L96.4,1.147433786121066 L96.3,1.355156862892966 L96.2,1.5772644703565417 L96.1,1.8128800512565482 L96.0,2.061073738537644 L95.9,2.3208660251050404 L95.8,2.591231629491462 L95.7,2.8711035421746263 L95.6,3.1593772365766477 L95.5,3.4549150281252823 L95.4,3.7565505641757273 L95.3,4.063093427071394 L95.2,4.373333832178476 L95.1,4.686047402353447 L95.0,5.000000000000029 L94.9,5.313952597646542 L94.8,5.626666167821547 L94.7,5.936906572928664 L94.6,6.243449435824296 L94.5,6.54508497187474 L94.4,6.840622763423374 L94.3,7.128896457825363 L94.2,7.408768370508589 L94.1,7.679133974895009 L94.0,7.938926261462346 L93.9,8.187119948743442 L93.8,8.422735529643475 L93.7,8.644843137107074 L93.6,8.852566213878973 L93.5,9.04508497187473 L93.4,9.221639627510056 L93.3,9.381533400219325 L93.2,9.524135262330113 L93.1,9.648882429441276 L93.0,9.755282581475777 L92.9,9.842915805643141 L92.8,9.911436253643448 L92.7,9.96057350657239 L92.6,9.990133642141359 L92.5,10.0 L92.4,9.990133642141357 L92.3,9.960573506572384 L92.2,9.911436253643448 L92.1,9.842915805643148 L92.0,9.755282581475754 L91.9,9.648882429441247 L91.8,9.524135262330095 L91.7,9.381533400219324 L91.6,9.221639627510072 L91.5,9.045084971874726 L91.4,8.852566213878923 L91.3,8.64484313710707 L91.2,8.422735529643447 L91.1,8.187119948743412 L91.0,7.938926261462342 L90.9,7.679133974894975 L90.8,7.408768370508554 L90.7,7.12889645782539 L90.6,6.84062276342337 L90.5,6.545084971874701 L90.4,6.2434494358242905 L90.3,5.9369065729285895 L90.2,5.6266661678214716 L90.1,5.313952597646536 L90.0,4.999999999999989 L89.9,4.6860474023534415 L89.8,4.373333832178472 L89.7,4.063093427071354 L89.6,3.756550564175688 L89.5,3.454915028125278 L89.4,3.15937723657661 L89.3,2.87110354217459 L89.2,2.5912316294913955 L89.1,2.320866025105006 L89.0,2.06107373853764 L88.9,1.8128800512565717 L88.8,1.5772644703565386 L88.7,1.3551568628929145 L88.6,1.1474337861210175 L88.5,0.9549150281252619 L88.4,0.7783603724899528 L88.3,0.6184665997806658 L88.2,0.47586473766989634 L88.1,0.3511175705587313 L88.0,0.24471741852422912 L87.9,0.15708419435685528 L87.8,0.08856374635654873 L87.7,0.039426493427612286 L87.6,0.009866357858640207 L87.5,0.0 L87.4,0.009866357858640207 L87.3,0.039426493427613174 L87.2,0.08856374635655584 L87.1,0.15708419435684728 L87.0,0.24471741852424067 L86.9,0.3511175705587597 L86.8,0.4758647376698981 L86.7,0.6184665997806844 L86.6,0.7783603724899555 L86.5,0.954915028125285 L86.4,1.1474337861210646 L86.3,1.3551568628929411 L86.2,1.5772644703565408 L86.1,1.8128800512565748 L86.0,2.0610737385376714 L85.9,2.3208660251050093 L85.8,2.5912316294914297 L85.7,2.871103542174593 L85.6,3.1593772365766464 L85.5,3.4549150281252814 L85.4,3.756550564175726 L85.3,4.063093427071393 L85.2,4.37333383217844 L85.1,4.686047402353481 L85.0,4.999999999999993 L84.9,5.313952597646575 L84.8,5.626666167821581 L84.7,5.936906572928663 L84.6,6.243449435824294 L84.5,6.545084971874738 L84.4,6.840622763423373 L84.3,7.128896457825394 L84.2,7.40876837050862 L84.1,7.679133974894978 L84.0,7.938926261462374 L83.9,8.187119948743415 L83.8,8.422735529643475 L83.7,8.644843137107074 L83.6,8.852566213878948 L83.5,9.045084971874727 L83.4,9.221639627510056 L83.3,9.381533400219343 L83.2,9.524135262330097 L83.1,9.648882429441274 L83.0,9.755282581475754 L82.9,9.842915805643148 L82.8,9.911436253643448 L82.7,9.96057350657239 L82.6,9.990133642141359 L82.5,10.0 L82.4,9.99013364214136 L82.3,9.96057350657239 L82.2,9.91143625364344 L82.1,9.84291580564314 L82.0,9.755282581475754 L81.9,9.648882429441247 L81.8,9.524135262330095 L81.7,9.381533400219324 L81.6,9.221639627510054 L81.5,9.045084971874704 L81.4,8.85256621387897 L81.3,8.644843137107022 L81.2,8.422735529643472 L81.1,8.187119948743412 L81.0,7.938926261462344 L80.9,7.679133974895006 L80.8,7.408768370508556 L80.7,7.128896457825359 L80.6,6.840622763423338 L80.5,6.545084971874736 L80.4,6.243449435824258 L80.3,5.93690657292859 L80.2,5.626666167821508 L80.1,5.313952597646537 L80.0,4.99999999999999 L79.9,4.686047402353443 L79.8,4.3733338321784725 L79.7,4.06309342707139 L79.6,3.7565505641757237 L79.5,3.454915028125245 L79.4,3.1593772365766437 L79.3,2.871103542174623 L79.2,2.5912316294914275 L79.1,2.3208660251049773 L79.0,2.061073738537641 L78.9,1.812880051256573 L78.8,1.5772644703565133 L78.7,1.3551568628929638 L78.6,1.1474337861210184 L78.5,0.9549150281252414 L78.4,0.7783603724899351 L78.3,0.6184665997806666 L78.2,0.47586473766989634 L78.1,0.35111757055873216 L78.0,0.24471741852422912 L77.9,0.1570841943568464 L77.8,0.08856374635655495 L77.7,0.039426493427607845 L77.6,0.009866357858640207 L77.5,0.0 L77.4,0.009866357858641983 L77.3,0.039426493427613174 L77.2,0.08856374635655584 L77.1,0.15708419435684728 L77.0,0.24471741852423 L76.9,0.35111757055873305 L76.8,0.47586473766991233 L76.7,0.6184665997806675 L76.6,0.7783603724899546 L76.5,0.9549150281252636 L76.4,1.1474337861210415 L76.3,1.3551568628929642 L76.2,1.5772644703565404 L76.1,1.8128800512566015 L76.0,2.061073738537642 L75.9,2.320866025104978 L75.8,2.59123162949146 L75.7,2.871103542174624 L75.6,3.1593772365766455 L75.5,3.4549150281252805 L75.4,3.7565505641757246 L75.3,4.063093427071391 L75.2,4.373333832178474 L75.1,4.686047402353444 L75.0,5.000000000000027 L74.9,5.313952597646539 L74.8,5.626666167821544 L74.7,5.936906572928627 L74.6,6.243449435824293 L74.5,6.545084971874737 L74.4,6.840622763423372 L74.3,7.128896457825361 L74.2,7.4087683705085565 L74.1,7.679133974895008 L74.0,7.938926261462344 L73.9,8.18711994874344 L73.8,8.422735529643447 L73.7,8.644843137107047 L73.6,8.85256621387897 L73.5,9.045084971874726 L73.4,9.221639627510054 L73.3,9.381533400219325 L73.2,9.52413526233008 L73.1,9.648882429441274 L73.0,9.755282581475775 L72.9,9.842915805643157 L72.8,9.911436253643448 L72.7,9.96057350657239 L72.6,9.990133642141359 L72.5,10.0 L72.4,9.990133642141359 L72.3,9.960573506572384 L72.2,9.911436253643448 L72.1,9.842915805643148 L72.0,9.755282581475765 L71.9,9.648882429441262 L71.8,9.524135262330095 L71.7,9.381533400219325 L71.6,9.221639627510074 L71.5,9.045084971874747 L71.4,8.85256621387897 L71.3,8.644843137107072 L71.2,8.422735529643447 L71.1,8.187119948743414 L71.0,7.938926261462373 L70.9,7.679133974894977 L70.8,7.4087683705085565 L70.7,7.128896457825393 L70.6,6.840622763423372 L70.5,6.5450849718747035 L70.4,6.243449435824293 L70.3,5.936906572928592 L70.2,5.626666167821509 L70.1,5.313952597646539 L70.0,4.999999999999991 L69.9,4.686047402353444 L69.8,4.373333832178474 L69.7,4.063093427071391 L69.6,3.75655056417569 L69.5,3.4549150281252805 L69.4,3.1593772365766126 L69.3,2.871103542174624 L69.2,2.591231629491429 L69.1,2.3208660251050084 L69.0,2.061073738537642 L68.9,1.8128800512565735 L68.8,1.5772644703565657 L68.7,1.3551568628929642 L68.6,1.1474337861210193 L68.5,0.9549150281252636 L68.4,0.7783603724899164 L68.3,0.6184665997806675 L68.2,0.47586473766989723 L68.1,0.35111757055873305 L68.0,0.24471741852424067 L67.9,0.15708419435684728 L67.8,0.08856374635654873 L67.7,0.039426493427613174 L67.6,0.009866357858640207 L67.5,0.0 L67.4,0.009866357858641983 L67.3,0.039426493427612286 L67.2,0.08856374635655495 L67.1,0.1570841943568464 L67.0,0.24471741852422912 L66.9,0.35111757055873216 L66.8,0.47586473766989634 L66.7,0.6184665997806835 L66.6,0.7783603724899351 L66.5,0.9549150281252627 L66.4,1.1474337861210637 L66.3,1.3551568628929394 L66.2,1.577264470356539 L66.1,1.812880051256545 L66.0,2.061073738537612 L65.9,2.3208660251050075 L65.8,2.5912316294914275 L65.7,2.871103542174655 L65.6,3.1593772365766437 L65.5,3.4549150281252787 L65.4,3.7565505641757237 L65.3,4.06309342707139 L65.2,4.3733338321784725 L65.1,4.686047402353478 L65.0,4.99999999999999 L64.9,5.313952597646573 L64.8,5.6266661678215435 L64.7,5.936906572928626 L64.6,6.243449435824292 L64.5,6.545084971874736 L64.4,6.8406227634233705 L64.3,7.128896457825359 L64.2,7.408768370508556 L64.1,7.679133974894976 L64.0,7.938926261462372 L63.9,8.187119948743467 L63.8,8.422735529643447 L63.7,8.644843137107072 L63.6,8.85256621387897 L63.5,9.045084971874747 L63.4,9.221639627510093 L63.3,9.381533400219324 L63.2,9.524135262330095 L63.1,9.648882429441262 L63.0,9.755282581475765 L62.9,9.842915805643157 L62.8,9.911436253643448 L62.7,9.960573506572384 L62.6,9.990133642141359 L62.5,10.0 L62.4,9.990133642141357 L62.3,9.96057350657239 L62.2,9.91143625364344 L62.1,9.842915805643157 L62.0,9.755282581475765 L61.9,9.648882429441262 L61.8,9.52413526233008 L61.7,9.381533400219308 L61.6,9.221639627510076 L61.5,9.045084971874727 L61.4,8.852566213878948 L61.3,8.644843137107049 L61.2,8.422735529643449 L61.1,8.187119948743442 L61.0,7.938926261462374 L60.9,7.679133974894948 L60.8,7.408768370508557 L60.7,7.128896457825361 L60.6,6.840622763423373 L60.5,6.545084971874738 L60.4,6.24344943582426 L60.3,5.936906572928593 L60.2,5.626666167821545 L60.1,5.313952597646575 L60.0,4.999999999999957 L59.9,4.6860474023534096 L59.8,4.37333383217844 L59.7,4.063093427071393 L59.6,3.756550564175726 L59.5,3.4549150281252476 L59.4,3.1593772365766135 L59.3,2.8711035421746254 L59.2,2.5912316294914297 L59.1,2.3208660251050395 L59.0,2.0610737385376146 L58.9,1.8128800512565473 L58.8,1.5772644703565408 L58.7,1.3551568628929411 L58.6,1.1474337861210424 L58.5,0.9549150281252636 L58.4,0.7783603724899173 L58.3,0.6184665997806844 L58.2,0.47586473766991233 L58.1,0.35111757055873305 L58.0,0.24471741852423 L57.9,0.1570841943568384 L57.8,0.08856374635655584 L57.7,0.03942649342760873 L57.6,0.009866357858641983 L57.5,0.0 L57.4,0.009866357858641983 L57.3,0.03942649342761673 L57.2,0.08856374635655495 L57.1,0.1570841943568464 L57.0,0.24471741852423978 L56.9,0.3511175705587446 L56.8,0.47586473766991144 L56.7,0.6184665997806826 L56.6,0.7783603724899155 L56.5,0.9549150281252619 L56.4,1.1474337861210406 L56.3,1.3551568628929629 L56.2,1.577264470356564 L56.1,1.8128800512565446 L56.0,2.06107373853764 L55.9,2.320866025105036 L55.8,2.5912316294914266 L55.7,2.871103542174622 L55.6,3.15937723657661 L55.5,3.454915028125244 L55.4,3.7565505641757566 L55.3,4.063093427071388 L55.2,4.373333832178472 L55.1,4.6860474023534415 L55.0,5.000000000000025 L54.9,5.313952597646572 L54.8,5.626666167821542 L54.7,5.936906572928624 L54.6,6.243449435824257 L54.5,6.545084971874768 L54.4,6.8406227634234025 L54.3,7.12889645782539 L54.2,7.408768370508586 L54.1,7.679133974895005 L54.0,7.938926261462371 L53.9,8.187119948743439 L53.8,8.422735529643447 L53.7,8.644843137107046 L53.6,8.852566213878946 L53.5,9.045084971874747 L53.4,9.221639627510092 L53.3,9.381533400219324 L53.2,9.524135262330109 L53.1,9.64888242944126 L53.0,9.755282581475765 L52.9,9.842915805643157 L52.8,9.91143625364344 L52.7,9.96057350657239 L52.6,9.990133642141359 L52.5,10.0 L52.4,9.990133642141357 L52.3,9.960573506572386 L52.2,9.911436253643448 L52.1,9.842915805643159 L52.0,9.755282581475766 L51.9,9.648882429441262 L51.8,9.52413526233008 L51.7,9.381533400219325 L51.6,9.221639627510076 L51.5,9.04508497187473 L51.4,8.852566213878927 L51.3,8.644843137107049 L51.2,8.42273552964345 L51.1,8.187119948743442 L51.0,7.938926261462376 L50.9,7.679133974894979 L50.8,7.408768370508574 L50.7,7.128896457825363 L50.6,6.840622763423407 L50.5,6.545084971874723 L50.4,6.243449435824261 L50.3,5.9369065729286294 L50.2,5.6266661678215115 L50.1,5.313952597646559 L50.0,4.999999999999994 L49.9,4.686047402353429 L49.8,4.373333832178476 L49.7,4.063093427071394 L49.6,3.7565505641757095 L49.5,3.4549150281252654 L49.4,3.1593772365766144 L49.3,2.8711035421746103 L49.2,2.591231629491431 L49.1,2.32086602510501 L49.0,2.061073738537629 L48.9,1.8128800512565482 L48.8,1.5772644703565417 L48.7,1.35515686289293 L48.6,1.1474337861210544 L48.5,0.9549150281252645 L48.4,0.7783603724899173 L48.3,0.6184665997806764 L48.2,0.4758647376698981 L48.1,0.3511175705587464 L48.0,0.24471741852423 L47.9,0.1570841943568393 L47.8,0.08856374635655317 L47.7,0.03942649342761051 L47.6,0.009866357858641983 L47.5,0.0 L47.4,0.009866357858642871 L47.3,0.039426493427612286 L47.2,0.08856374635655495 L47.1,0.1570841943568464 L47.0,0.24471741852422824 L46.9,0.3511175705587508 L46.8,0.47586473766991055 L46.7,0.6184665997806738 L46.6,0.7783603724899333 L46.5,0.9549150281252716 L46.4,1.147433786121062 L46.3,1.35515686289295 L46.2,1.5772644703565635 L46.1,1.8128800512565437 L46.0,2.061073738537653 L45.9,2.32086602510502 L45.8,2.5912316294914253 L45.7,2.871103542174653 L45.6,3.1593772365766086 L45.5,3.4549150281252765 L45.4,3.7565505641757384 L45.3,4.063093427071387 L45.2,4.37333383217847 L45.1,4.686047402353458 L45.0,5.000000000000005 L44.9,5.313952597646571 L44.8,5.626666167821541 L44.7,5.936906572928623 L44.6,6.24344943582429 L44.5,6.545084971874734 L44.4,6.840622763423402 L44.3,7.128896457825389 L44.2,7.408768370508553 L44.1,7.67913397489499 L44.0,7.93892626146237 L43.9,8.187119948743465 L43.8,8.422735529643457 L43.7,8.644843137107046 L43.6,8.852566213878944 L43.5,9.045084971874745 L43.4,9.221639627510072 L43.3,9.381533400219332 L43.2,9.524135262330102 L43.1,9.648882429441253 L43.0,9.755282581475775 L42.9,9.842915805643155 L42.8,9.911436253643448 L42.7,9.96057350657239 L42.6,9.990133642141357 L42.5,10.0 L42.4,9.990133642141355 L42.3,9.960573506572388 L42.2,9.911436253643444 L42.1,9.842915805643148 L42.0,9.755282581475766 L41.9,9.64888242944125 L41.8,9.524135262330097 L41.7,9.381533400219327 L41.6,9.221639627510076 L41.5,9.04508497187475 L41.4,8.852566213878939 L41.3,8.64484313710705 L41.2,8.422735529643463 L41.1,8.187119948743444 L41.0,7.938926261462347 L40.9,7.679133974894981 L40.8,7.408768370508559 L40.7,7.1288964578253795 L40.6,6.840622763423408 L40.5,6.545084971874724 L40.4,6.243449435824262 L40.3,5.936906572928596 L40.2,5.626666167821513 L40.1,5.31395259764656 L40.0,4.999999999999995 L39.9,4.68604740235343 L39.8,4.373333832178478 L39.7,4.0630934270713945 L39.6,3.756550564175728 L39.5,3.4549150281252667 L39.4,3.1593772365765824 L39.3,2.8711035421746116 L39.2,2.591231629491432 L39.1,2.320866025105011 L39.0,2.0610737385376305 L38.9,1.812880051256549 L38.8,1.577264470356543 L38.7,1.355156862892943 L38.6,1.1474337861210553 L38.5,0.9549150281252654 L38.4,0.7783603724899182 L38.3,0.6184665997806684 L38.2,0.475864737669907 L38.1,0.35111757055874726 L38.0,0.2447174185242309 L37.9,0.1570841943568393 L37.8,0.08856374635655317 L37.7,0.0394264934276114 L37.6,0.009866357858641983 L37.5,0.0 L37.4,0.009866357858642871 L37.3,0.039426493427612286 L37.2,0.08856374635655495 L37.1,0.15708419435684107 L37.0,0.24471741852422824 L36.9,0.3511175705587437 L36.8,0.47586473766991055 L36.7,0.6184665997806729 L36.6,0.7783603724899137 L36.5,0.9549150281252707 L36.4,1.1474337861210615 L36.3,1.3551568628929491 L36.2,1.5772644703565497 L36.1,1.8128800512565424 L36.0,2.0610737385376376 L35.9,2.320866025105019 L35.8,2.5912316294914244 L35.7,2.8711035421746196 L35.6,3.1593772365766077 L35.5,3.4549150281252583 L35.4,3.756550564175737 L35.3,4.0630934270713865 L35.2,4.373333832178469 L35.1,4.686047402353439 L35.0,5.000000000000004 L34.9,5.313952597646569 L34.8,5.62666616782154 L34.7,5.936906572928622 L34.6,6.243449435824271 L34.5,6.545084971874733 L34.4,6.840622763423384 L34.3,7.1288964578253875 L34.2,7.408768370508583 L34.1,7.679133974894988 L34.0,7.938926261462354 L33.9,8.187119948743465 L33.8,8.422735529643457 L33.7,8.644843137107056 L33.6,8.852566213878944 L33.5,9.045084971874735 L33.4,9.221639627510072 L33.3,9.381533400219322 L33.2,9.524135262330102 L33.1,9.648882429441253 L33.0,9.755282581475765 L32.9,9.842915805643155 L32.8,9.911436253643448 L32.7,9.960573506572388 L32.6,9.990133642141359 L32.5,10.0 L32.4,9.990133642141357 L32.3,9.960573506572388 L32.2,9.911436253643444 L32.1,9.842915805643159 L32.0,9.755282581475766 L31.9,9.648882429441256 L31.8,9.524135262330091 L31.7,9.381533400219311 L31.6,9.221639627510077 L31.5,9.04508497187474 L31.4,8.852566213878939 L31.3,8.64484313710705 L31.2,8.422735529643438 L31.1,8.187119948743444 L31.0,7.938926261462362 L30.9,7.679133974894967 L30.8,7.408768370508576 L30.7,7.128896457825364 L30.6,6.840622763423393 L30.5,6.545084971874742 L30.4,6.243449435824264 L30.3,5.936906572928614 L30.2,5.626666167821514 L30.1,5.313952597646579 L30.0,4.999999999999979 L29.9,4.686047402353413 L29.8,4.373333832178479 L29.7,4.0630934270713785 L29.6,3.7565505641757295 L29.5,3.454915028125251 L29.4,3.1593772365766 L29.3,2.8711035421746285 L29.2,2.5912316294914173 L29.1,2.320866025105027 L29.0,2.0610737385376314 L28.9,1.81288005125655 L28.8,1.5772644703565564 L28.7,1.3551568628929433 L28.6,1.1474337861210557 L28.5,0.9549150281252556 L28.4,0.7783603724899191 L28.3,0.6184665997806862 L28.2,0.475864737669907 L28.1,0.35111757055874104 L28.0,0.2447174185242309 L27.9,0.15708419435684373 L27.8,0.08856374635655673 L27.7,0.03942649342760873 L27.6,0.009866357858641983 L27.5,0.0 L27.4,0.009866357858642871 L27.3,0.03942649342760962 L27.2,0.08856374635655762 L27.1,0.1570841943568455 L27.0,0.24471741852423268 L26.9,0.3511175705587437 L26.8,0.47586473766990167 L26.7,0.6184665997806897 L26.6,0.7783603724899315 L26.5,0.9549150281252592 L26.4,1.1474337861210495 L26.3,1.3551568628929482 L26.2,1.5772644703565613 L26.1,1.812880051256541 L26.0,2.061073738537637 L25.9,2.320866025105033 L25.8,2.5912316294914235 L25.7,2.8711035421746507 L25.6,3.1593772365766064 L25.5,3.4549150281252574 L25.4,3.7565505641757273 L25.3,4.063093427071368 L25.2,4.373333832178485 L25.1,4.686047402353438 L25.0,5.000000000000003 L24.9,5.313952597646568 L24.8,5.626666167821529 L24.7,5.936906572928621 L24.6,6.24344943582427 L24.5,6.54508497187474 L24.4,6.840622763423399 L24.3,7.128896457825363 L24.2,7.408768370508582 L24.1,7.679133974894987 L24.0,7.938926261462368 L23.9,8.187119948743456 L23.8,8.422735529643443 L23.7,8.644843137107063 L23.6,8.852566213878944 L23.5,9.045084971874733 L23.4,9.221639627510081 L23.3,9.381533400219322 L23.2,9.524135262330102 L23.1,9.648882429441258 L23.0,9.755282581475772 L22.9,9.842915805643155 L22.8,9.911436253643444 L22.7,9.96057350657239 L22.6,9.990133642141359 L22.5,10.0 L22.4,9.990133642141357 L22.3,9.960573506572388 L22.2,9.911436253643442 L22.1,9.842915805643159 L22.0,9.755282581475768 L21.9,9.648882429441255 L21.8,9.524135262330098 L21.7,9.381533400219318 L21.6,9.221639627510072 L21.5,9.045084971874731 L21.4,8.85256621387894 L21.3,8.644843137107063 L21.2,8.422735529643433 L21.1,8.187119948743451 L21.0,7.938926261462363 L20.9,7.679133974894983 L20.8,7.408768370508577 L20.7,7.128896457825357 L20.6,6.8406227634234025 L20.5,6.545084971874726 L20.4,6.243449435824265 L20.3,5.936906572928633 L20.2,5.626666167821515 L20.1,5.313952597646563 L20.0,4.999999999999997 L19.9,4.686047402353433 L19.8,4.37333383217848 L19.7,4.063093427071363 L19.6,3.756550564175731 L19.5,3.4549150281252605 L19.4,3.1593772365766015 L19.3,2.871103542174638 L19.2,2.5912316294914186 L19.1,2.3208660251050213 L19.0,2.0610737385376328 L18.9,1.8128800512565442 L18.8,1.5772644703565577 L18.7,1.3551568628929385 L18.6,1.147433786121057 L18.5,0.9549150281252663 L18.4,0.77836037248992 L18.3,0.6184665997806871 L18.2,0.4758647376698999 L18.1,0.3511175705587446 L18.0,0.2447174185242309 L17.9,0.15708419435684373 L17.8,0.08856374635655673 L17.7,0.03942649342761051 L17.6,0.009866357858642871 L17.5,0.0 L17.4,0.009866357858642871 L17.3,0.03942649342761051 L17.2,0.08856374635655584 L17.1,0.1570841943568455 L17.0,0.24471741852423 L16.9,0.3511175705587464 L16.8,0.47586473766990167 L16.7,0.61846659978068 L16.6,0.7783603724899271 L16.5,0.9549150281252592 L16.4,1.1474337861210597 L16.3,1.3551568628929411 L16.2,1.5772644703565608 L16.1,1.8128800512565473 L16.0,2.061073738537636 L15.9,2.3208660251050244 L15.8,2.591231629491422 L15.7,2.871103542174642 L15.6,3.1593772365766135 L15.5,3.4549150281252645 L15.4,3.7565505641757264 L15.3,4.063093427071375 L15.2,4.373333832178484 L15.1,4.686047402353437 L15.0,5.000000000000011 L14.9,5.313952597646567 L14.8,5.6266661678215195 L14.7,5.936906572928629 L14.6,6.243449435824277 L14.5,6.545084971874739 L14.4,6.84062276342339 L14.3,7.128896457825362 L14.2,7.4087683705085805 L14.1,7.679133974894978 L14.0,7.938926261462367 L13.9,8.18711994874345 L13.8,8.422735529643441 L13.7,8.644843137107062 L13.6,8.852566213878948 L13.5,9.045084971874738 L13.4,9.221639627510076 L13.3,9.381533400219322 L13.2,9.524135262330097 L13.1,9.648882429441258 L13.0,9.755282581475768 L12.9,9.842915805643155 L12.8,9.911436253643444 L12.7,9.96057350657239 L12.6,9.990133642141359 L12.5,10.0 L12.4,9.990133642141359 L12.3,9.96057350657239 L12.2,9.911436253643442 L12.1,9.842915805643155 L12.0,9.755282581475768 L11.9,9.648882429441258 L11.8,9.524135262330098 L11.7,9.381533400219315 L11.6,9.221639627510074 L11.5,9.045084971874733 L11.4,8.852566213878946 L11.3,8.64484313710706 L11.2,8.42273552964344 L11.1,8.187119948743446 L11.0,7.938926261462365 L10.9,7.679133974894983 L10.8,7.408768370508574 L10.7,7.128896457825359 L10.6,6.840622763423383 L10.5,6.545084971874736 L10.4,6.2434494358242745 L10.3,5.9369065729286294 L10.2,5.626666167821517 L10.1,5.313952597646564 L10.0,4.999999999999999 L9.9,4.6860474023534335 L9.8,4.373333832178481 L9.7,4.063093427071372 L9.6,3.7565505641757233 L9.5,3.454915028125262 L9.4,3.159377236576611 L9.3,2.871103542174639 L9.2,2.5912316294914195 L9.1,2.3208660251050146 L9.0,2.061073738537633 L8.9,1.8128800512565517 L8.8,1.5772644703565586 L8.7,1.3551568628929394 L8.6,1.1474337861210548 L8.5,0.9549150281252654 L8.4,0.7783603724899253 L8.3,0.6184665997806809 L8.2,0.4758647376699008 L8.1,0.35111757055874193 L8.0,0.2447174185242318 L7.9,0.15708419435684462 L7.8,0.08856374635655673 L7.7,0.03942649342761051 L7.6,0.009866357858641983 L7.5,0.0 L7.4,0.009866357858641983 L7.3,0.0394264934276114 L7.2,0.08856374635655673 L7.1,0.1570841943568455 L7.0,0.24471741852423268 L6.9,0.3511175705587428 L6.8,0.47586473766990345 L6.7,0.6184665997806817 L6.6,0.7783603724899235 L6.5,0.9549150281252636 L6.4,1.147433786121053 L6.3,1.3551568628929433 L6.2,1.5772644703565581 L6.1,1.8128800512565535 L6.0,2.061073738537635 L5.9,2.3208660251050164 L5.8,2.591231629491425 L5.7,2.8711035421746365 L5.6,3.1593772365766126 L5.5,3.4549150281252636 L5.4,3.7565505641757273 L5.3,4.06309342707138 L5.2,4.373333832178479 L5.1,4.686047402353435 L5.0,5.000000000000001 L4.9,5.313952597646566 L4.8,5.626666167821522 L4.7,5.936906572928623 L4.6,6.243449435824276 L4.5,6.545084971874737 L4.4,6.840622763423388 L4.3,7.128896457825363 L4.2,7.408768370508576 L4.1,7.6791339748949845 L4.0,7.938926261462367 L3.9,8.18711994874345 L3.8,8.422735529643443 L3.7,8.644843137107056 L3.6,8.852566213878946 L3.5,9.045084971874736 L3.4,9.221639627510076 L3.3,9.381533400219318 L3.2,9.524135262330098 L3.1,9.648882429441258 L3.0,9.755282581475768 L2.9,9.842915805643155 L2.8,9.911436253643444 L2.7,9.96057350657239 L2.6,9.990133642141359 L2.5,10.0 L2.4,9.990133642141359 L2.3,9.960573506572388 L2.2,9.911436253643444 L2.1,9.842915805643155 L2.0,9.755282581475768 L1.9,9.648882429441256 L1.8,9.524135262330098 L1.7,9.381533400219318 L1.6,9.221639627510076 L1.5,9.045084971874736 L1.4,8.852566213878946 L1.3,8.644843137107058 L1.2,8.422735529643443 L1.1,8.18711994874345 L1.0,7.938926261462366 L0.9,7.679133974894983 L0.8,7.408768370508577 L0.7,7.128896457825363 L0.6,6.84062276342339 L0.5,6.545084971874737 L0.4,6.2434494358242745 L0.3,5.936906572928623 L0.2,5.626666167821521 L0.1,5.3139525976465665 L0.0,5.0" fill="#000000"  />
<!-- Footer -->
</svg>
