<!-- Header -->
<svg
    version="1.1"
    baseProfile="full"
    xmlns="http://www.w3.org/2000/svg"
    xmlns:xlink="http://www.w3.org/1999/xlink"
    xmlns:ev="http://www.w3.org/2001/xml-events"
    width="130.0"
    height="60.0"
    viewBox="-15.0 -20.0 130.0 60.0"
    preserveAspectRatio="none"
>
<!-- Body -->
<!-- Path -->
<path d="M0.0,0.0 L0.1,0.06283019941676304 L0.2,0.1256504772166874 L0.3,0.1884509133496727 L0.4,0.25122159089884777 L0.5,0.31395259764656686 L0.6,0.3766340276396636 L0.7,0.4392559827537158 L0.8,0.5018085742560745 L0.9,0.5642819243674084 L1.0,0.6266661678215213 L1.1,0.6889514534231904 L1.2,0.7511279456037854 L1.3,0.8131858259744179 L1.4,0.8751152948763802 L1.5,0.936906572928623 L1.6,0.9985499025720351 L1.7,1.0600355496102734 L1.8,1.1213538047469058 L1.9,1.1824949851186233 L2.0,1.243449435824274 L2.1,1.3042075314494848 L2.2,1.3647596775866262 L2.3,1.4250963123498803 L2.4,1.4852079078851745 L2.5,1.545084971874737 L2.6,1.6047180490360473 L2.7,1.6640977226149332 L2.8,1.7232146158725854 L2.9,1.7820593935662534 L3.0,1.8406227634233896 L3.1,1.8988954776090052 L3.2,1.9568683341860122 L3.3,2.014532178568313 L3.4,2.0718779049664207 L3.5,2.1288964578253635 L3.6,2.1855788332546644 L3.7,2.241916080450161 L3.8,2.297899303107439 L3.9,2.3535196608266626 L4.0,2.4087683705085765 L4.1,2.4636367077414576 L4.2,2.518116008178804 L4.3,2.572197668907532 L4.4,2.6258731498064787 L4.5,2.679133974894983 L4.6,2.731971733671345 L4.7,2.7843780824409397 L4.8,2.8363447456337827 L4.9,2.887863517111338 L5.0,2.938926261462366 L5.1,2.9895249152875936 L5.2,3.039651488473027 L5.3,3.089298065451671 L5.4,3.1384568064535023 L5.5,3.1871199487434483 L5.6,3.2352798078472214 L5.7,3.2829287787647825 L5.8,3.330059337171258 L5.9,3.3766640406051223 L6.0,3.422735529643443 L6.1,3.4682665290640244 L6.2,3.5132498489942456 L6.3,3.557678386046427 L6.4,3.601545124439535 L6.5,3.644843137107058 L6.6,3.6875655867908694 L6.7,3.7297057271209106 L6.8,3.771256903680519 L6.9,3.8122125550572394 L7.0,3.852566213878946 L7.1,3.8923115078351165 L7.2,3.9314421606830945 L7.3,3.9699519932391762 L7.4,4.007834924354382 L7.5,4.045084971874736 L7.6,4.081696253585919 L7.7,4.117662988142137 L7.8,4.1529794959790625 L7.9,4.1876402002107085 L8.0,4.221639627510076 L8.1,4.254972408973459 L8.2,4.287633280968261 L8.3,4.319617085964176 L8.4,4.350918773347629 L8.5,4.381533400219318 L8.6,4.4114561321747665 L8.7,4.440682244067722 L8.8,4.469207120756319 L8.9,4.497026257831855 L9.0,4.524135262330098 L9.1,4.550529853424978 L9.2,4.576205863104587 L9.3,4.601159236829352 L9.4,4.6253860341722906 L9.5,4.648882429441256 L9.6,4.67164471228306 L9.7,4.69366928826937 L9.8,4.714952679464322 L9.9,4.735491524973722 L10.0,4.755282581475767 L10.1,4.774322723733214 L10.2,4.792608945086879 L10.3,4.8101383579304295 L10.4,4.82690819416637 L10.5,4.842915805643155 L10.6,4.858158664573369 L10.7,4.872634363932885 L10.8,4.886340617840967 L10.9,4.899275261921234 L11.0,4.911436253643443 L11.1,4.922821672646027 L11.2,4.9334297210393405 L11.3,4.943258723689571 L11.4,4.952307128483256 L11.5,4.960573506572389 L11.6,4.968056552600042 L11.7,4.9747550849065005 L11.8,4.980668045715863 L11.9,4.98579450130307 L12.0,4.990133642141358 L12.1,4.993684783030087 L12.2,4.996447363202946 L12.3,4.9984209464165 L12.4,4.99960522101908 L12.5,5.0 L12.6,4.99960522101908 L12.7,4.9984209464165 L12.8,4.996447363202946 L12.9,4.993684783030087 L13.0,4.990133642141358 L13.1,4.98579450130307 L13.2,4.980668045715863 L13.3,4.9747550849065005 L13.4,4.968056552600042 L13.5,4.9605735065723895 L13.6,4.952307128483256 L13.7,4.943258723689571 L13.8,4.9334297210393405 L13.9,4.922821672646027 L14.0,4.911436253643443 L14.1,4.899275261921234 L14.2,4.886340617840967 L14.3,4.872634363932885 L14.4,4.85815866457337 L14.5,4.842915805643155 L14.6,4.82690819416637 L14.7,4.8101383579304295 L14.8,4.792608945086879 L14.9,4.774322723733214 L15.0,4.755282581475768 L15.1,4.735491524973722 L15.2,4.714952679464322 L15.3,4.69366928826937 L15.4,4.67164471228306 L15.5,4.648882429441257 L15.6,4.6253860341722906 L15.7,4.601159236829352 L15.8,4.576205863104588 L15.9,4.550529853424979 L16.0,4.524135262330097 L16.1,4.4970262578318545 L16.2,4.4692071207563195 L16.3,4.440682244067723 L16.4,4.411456132174767 L16.5,4.381533400219317 L16.6,4.350918773347629 L16.7,4.319617085964177 L16.8,4.287633280968261 L16.9,4.25497240897346 L17.0,4.221639627510075 L17.1,4.1876402002107085 L17.2,4.152979495979063 L17.3,4.117662988142136 L17.4,4.08169625358592 L17.5,4.045084971874737 L17.6,4.007834924354382 L17.7,3.9699519932391776 L17.8,3.931442160683094 L17.9,3.8923115078351174 L18.0,3.852566213878946 L18.1,3.812212555057239 L18.2,3.77125690368052 L18.3,3.7297057271209093 L18.4,3.6875655867908708 L18.5,3.644843137107057 L18.6,3.6015451244395336 L18.7,3.5576783860464274 L18.8,3.513249848994246 L18.9,3.468266529064026 L19.0,3.422735529643444 L19.1,3.3766640406051214 L19.2,3.3300593371712583 L19.3,3.282928778764782 L19.4,3.2352798078472227 L19.5,3.187119948743449 L19.6,3.138456806453501 L19.7,3.0892980654516733 L19.8,3.0396514884730266 L19.9,2.9895249152875953 L20.0,2.9389262614623664 L20.1,2.887863517111338 L20.2,2.8363447456337836 L20.3,2.784378082440939 L20.4,2.731971733671348 L20.5,2.679133974894985 L20.6,2.6258731498064765 L20.7,2.572197668907533 L20.8,2.5181160081788043 L20.9,2.463636707741458 L21.0,2.408768370508576 L21.1,2.353519660826662 L21.2,2.297899303107442 L21.3,2.2419160804501597 L21.4,2.185578833254666 L21.5,2.1288964578253644 L21.6,2.0718779049664215 L21.7,2.014532178568314 L21.8,1.9568683341860118 L21.9,1.898895477609007 L22.0,1.8406227634233907 L22.1,1.7820593935662519 L22.2,1.7232146158725872 L22.3,1.6640977226149347 L22.4,1.6047180490360486 L22.5,1.5450849718747375 L22.6,1.4852079078851745 L22.7,1.4250963123498823 L22.8,1.3647596775866253 L22.9,1.3042075314494852 L23.0,1.2434494358242763 L23.1,1.1824949851186253 L23.2,1.1213538047469072 L23.3,1.060035549610274 L23.4,0.9985499025720375 L23.5,0.9369065729286229 L23.6,0.8751152948763794 L23.7,0.8131858259744189 L23.8,0.7511279456037856 L23.9,0.6889514534231923 L24.0,0.6266661678215226 L24.1,0.5642819243674093 L24.2,0.501808574256075 L24.3,0.43925598275371575 L24.4,0.3766340276396652 L24.5,0.3139525976465679 L24.6,0.2512215908988461 L24.7,0.18845091334967268 L24.8,0.12565047721668907 L24.9,0.06283019941676418 L25.0,6.123233995736766e-16 L25.1,-0.06283019941676296 L25.2,-0.12565047721668562 L25.3,-0.18845091334967368 L25.4,-0.2512215908988471 L25.5,-0.31395259764656674 L25.6,-0.37663402763966397 L25.7,-0.4392559827537146 L25.8,-0.5018085742560736 L25.9,-0.564281924367406 L26.0,-0.6266661678215214 L26.1,-0.6889514534231911 L26.2,-0.7511279456037844 L26.3,-0.8131858259744176 L26.4,-0.8751152948763805 L26.5,-0.9369065729286239 L26.6,-0.9985499025720341 L26.7,-1.0600355496102707 L26.8,-1.121353804746906 L26.9,-1.182494985118622 L27.0,-1.243449435824273 L27.1,-1.304207531449484 L27.2,-1.3647596775866262 L27.3,-1.425096312349881 L27.4,-1.4852079078851712 L27.5,-1.5450849718747364 L27.6,-1.6047180490360473 L27.7,-1.6640977226149314 L27.8,-1.723214615872584 L27.9,-1.782059393566253 L28.0,-1.8406227634233896 L28.1,-1.898895477609006 L28.2,-1.956868334186013 L28.3,-2.014532178568315 L28.4,-2.071877904966418 L28.5,-2.1288964578253613 L28.6,-2.1855788332546653 L28.7,-2.24191608045016 L28.8,-2.297899303107439 L28.9,-2.353519660826663 L29.0,-2.408768370508577 L29.1,-2.463636707741459 L29.2,-2.5181160081788017 L29.3,-2.572197668907532 L29.4,-2.625873149806477 L29.5,-2.6791339748949823 L29.6,-2.731971733671345 L29.7,-2.7843780824409397 L29.8,-2.8363447456337827 L29.9,-2.8878635171113354 L30.0,-2.9389262614623632 L30.1,-2.989524915287596 L30.2,-3.0396514884730252 L30.3,-3.0892980654516706 L30.4,-3.138456806453502 L30.5,-3.1871199487434483 L30.6,-3.235279807847222 L30.7,-3.2829287787647807 L30.8,-3.330059337171259 L30.9,-3.37666404060512 L31.0,-3.422735529643442 L31.1,-3.4682665290640236 L31.2,-3.5132498489942456 L31.3,-3.557678386046426 L31.4,-3.601545124439533 L31.5,-3.644843137107058 L31.6,-3.6875655867908703 L31.7,-3.729705727120909 L31.8,-3.7712569036805177 L31.9,-3.8122125550572394 L32.0,-3.852566213878947 L32.1,-3.892311507835118 L32.2,-3.931442160683096 L32.3,-3.9699519932391754 L32.4,-4.007834924354382 L32.5,-4.045084971874736 L32.6,-4.081696253585919 L32.7,-4.117662988142137 L32.8,-4.152979495979061 L32.9,-4.187640200210709 L33.0,-4.2216396275100765 L33.1,-4.25497240897346 L33.2,-4.287633280968261 L33.3,-4.319617085964175 L33.4,-4.350918773347628 L33.5,-4.381533400219318 L33.6,-4.4114561321747665 L33.7,-4.440682244067723 L33.8,-4.469207120756318 L33.9,-4.4970262578318545 L34.0,-4.524135262330099 L34.1,-4.550529853424978 L34.2,-4.576205863104588 L34.3,-4.60115923682935 L34.4,-4.6253860341722906 L34.5,-4.648882429441257 L34.6,-4.671644712283061 L34.7,-4.693669288269371 L34.8,-4.7149526794643215 L34.9,-4.735491524973721 L35.0,-4.755282581475767 L35.1,-4.774322723733214 L35.2,-4.792608945086879 L35.3,-4.810138357930429 L35.4,-4.826908194166369 L35.5,-4.842915805643156 L35.6,-4.85815866457337 L35.7,-4.872634363932886 L35.8,-4.8863406178409665 L35.9,-4.899275261921234 L36.0,-4.911436253643443 L36.1,-4.922821672646027 L36.2,-4.9334297210393405 L36.3,-4.94325872368957 L36.4,-4.952307128483256 L36.5,-4.960573506572389 L36.6,-4.968056552600043 L36.7,-4.974755084906501 L36.8,-4.980668045715862 L36.9,-4.98579450130307 L37.0,-4.990133642141358 L37.1,-4.993684783030087 L37.2,-4.996447363202947 L37.3,-4.9984209464165 L37.4,-4.99960522101908 L37.5,-5.0 L37.6,-4.99960522101908 L37.7,-4.9984209464165 L37.8,-4.996447363202947 L37.9,-4.993684783030088 L38.0,-4.990133642141358 L38.1,-4.98579450130307 L38.2,-4.980668045715862 L38.3,-4.974755084906501 L38.4,-4.968056552600042 L38.5,-4.9605735065723895 L38.6,-4.952307128483256 L38.7,-4.94325872368957 L38.8,-4.9334297210393405 L38.9,-4.922821672646027 L39.0,-4.911436253643443 L39.1,-4.899275261921235 L39.2,-4.8863406178409665 L39.3,-4.872634363932887 L39.4,-4.85815866457337 L39.5,-4.842915805643155 L39.6,-4.826908194166369 L39.7,-4.810138357930429 L39.8,-4.792608945086879 L39.9,-4.774322723733215 L40.0,-4.755282581475768 L40.1,-4.735491524973722 L40.2,-4.714952679464322 L40.3,-4.693669288269372 L40.4,-4.6716447122830616 L40.5,-4.648882429441258 L40.6,-4.62538603417229 L40.7,-4.601159236829351 L40.8,-4.57620586310459 L40.9,-4.550529853424979 L41.0,-4.524135262330099 L41.1,-4.4970262578318545 L41.2,-4.469207120756317 L41.3,-4.440682244067724 L41.4,-4.411456132174767 L41.5,-4.3815334002193165 L41.6,-4.350918773347629 L41.7,-4.3196170859641745 L41.8,-4.287633280968262 L41.9,-4.254972408973462 L42.0,-4.221639627510075 L42.1,-4.18764020021071 L42.2,-4.1529794959790625 L42.3,-4.117662988142138 L42.4,-4.081696253585923 L42.5,-4.045084971874738 L42.6,-4.0078349243543805 L42.7,-3.969951993239177 L42.8,-3.9314421606830967 L42.9,-3.892311507835116 L43.0,-3.852566213878948 L43.1,-3.8122125550572377 L43.2,-3.77125690368052 L43.3,-3.7297057271209146 L43.4,-3.6875655867908703 L43.5,-3.6448431371070606 L43.6,-3.601545124439534 L43.7,-3.557678386046423 L43.8,-3.5132498489942483 L43.9,-3.468266529064027 L44.0,-3.422735529643445 L44.1,-3.3766640406051236 L44.2,-3.3300593371712557 L44.3,-3.282928778764786 L44.4,-3.235279807847225 L44.5,-3.1871199487434483 L44.6,-3.138456806453505 L44.7,-3.0892980654516706 L44.8,-3.0396514884730284 L44.9,-2.989524915287596 L45.0,-2.938926261462367 L45.1,-2.887863517111342 L45.2,-2.8363447456337827 L45.3,-2.784378082440943 L45.4,-2.7319717336713483 L45.5,-2.6791339748949854 L45.6,-2.625873149806477 L45.7,-2.572197668907534 L45.8,-2.518116008178805 L45.9,-2.4636367077414585 L46.0,-2.4087683705085805 L46.1,-2.3535196608266626 L46.2,-2.2978993031074424 L46.3,-2.241916080450164 L46.4,-2.185578833254667 L46.5,-2.128896457825365 L46.6,-2.071877904966422 L46.7,-2.0145321785683103 L46.8,-1.9568683341860167 L46.9,-1.8988954776090095 L47.0,-1.8406227634233894 L47.1,-1.7820593935662565 L47.2,-1.7232146158725836 L47.3,-1.6640977226149354 L47.4,-1.604718049036049 L47.5,-1.5450849718747381 L47.6,-1.4852079078851752 L47.7,-1.4250963123498808 L47.8,-1.36475967758663 L47.9,-1.304207531449488 L48.0,-1.2434494358242767 L48.1,-1.1824949851186215 L48.2,-1.1213538047469078 L48.3,-1.0600355496102745 L48.4,-0.9985499025720359 L48.5,-0.9369065729286234 L48.6,-0.8751152948763801 L48.7,-0.8131858259744217 L48.8,-0.7511279456037884 L48.9,-0.6889514534231929 L49.0,-0.6266661678215233 L49.1,-0.56428192436741 L49.2,-0.5018085742560711 L49.3,-0.4392559827537208 L49.4,-0.3766340276396636 L49.5,-0.3139525976465663 L49.6,-0.2512215908988511 L49.7,-0.18845091334967107 L49.8,-0.12565047721668968 L49.9,-0.06283019941676479 L50.0,-1.2246467991473533e-15 L50.1,0.06283019941676235 L50.2,0.12565047721668723 L50.3,0.18845091334967307 L50.4,0.2512215908988442 L50.5,0.3139525976465639 L50.6,0.3766340276396656 L50.7,0.43925598275371397 L50.8,0.5018085742560731 L50.9,0.5642819243674075 L51.0,0.6266661678215208 L51.1,0.6889514534231905 L51.2,0.751127945603786 L51.3,0.8131858259744149 L51.4,0.8751152948763775 L51.5,0.936906572928621 L51.6,0.9985499025720335 L51.7,1.0600355496102765 L51.8,1.121353804746901 L51.9,1.1824949851186233 L52.0,1.2434494358242745 L52.1,1.3042075314494856 L52.2,1.3647596775866278 L52.3,1.425096312349874 L52.4,1.485207907885173 L52.5,1.545084971874736 L52.6,1.6047180490360469 L52.7,1.6640977226149332 L52.8,1.7232146158725856 L52.9,1.78205939356625 L53.0,1.840622763423391 L53.1,1.898895477609003 L53.2,1.9568683341860102 L53.3,2.014532178568312 L53.4,2.0718779049664158 L53.5,2.1288964578253626 L53.6,2.185578833254665 L53.7,2.241916080450162 L53.8,2.297899303107436 L53.9,2.3535196608266644 L54.0,2.4087683705085743 L54.1,2.4636367077414563 L54.2,2.5181160081788034 L54.3,2.5721976689075277 L54.4,2.6258731498064787 L54.5,2.67913397489498 L54.6,2.731971733671346 L54.7,2.7843780824409414 L54.8,2.836344745633777 L54.9,2.8878635171113363 L55.0,2.9389262614623646 L55.1,2.9895249152875936 L55.2,3.039651488473027 L55.3,3.089298065451672 L55.4,3.1384568064534997 L55.5,3.18711994874345 L55.6,3.2352798078472196 L55.7,3.2829287787647843 L55.8,3.3300593371712575 L55.9,3.3766640406051183 L56.0,3.422735529643443 L56.1,3.4682665290640244 L56.2,3.5132498489942465 L56.3,3.5576783860464243 L56.4,3.601545124439536 L56.5,3.644843137107056 L56.6,3.687565586790871 L56.7,3.72970572712091 L56.8,3.7712569036805155 L56.9,3.8122125550572394 L57.0,3.8525662138789434 L57.1,3.892311507835118 L57.2,3.931442160683096 L57.3,3.9699519932391727 L57.4,4.007834924354381 L57.5,4.045084971874739 L57.6,4.081696253585919 L57.7,4.117662988142136 L57.8,4.152979495979063 L57.9,4.187640200210707 L58.0,4.221639627510076 L58.1,4.254972408973458 L58.2,4.2876332809682625 L58.3,4.319617085964175 L58.4,4.350918773347626 L58.5,4.381533400219318 L58.6,4.4114561321747665 L58.7,4.440682244067723 L58.8,4.469207120756317 L58.9,4.497026257831856 L59.0,4.5241352623300966 L59.1,4.55052985342498 L59.2,4.576205863104587 L59.3,4.60115923682935 L59.4,4.6253860341722906 L59.5,4.648882429441255 L59.6,4.671644712283061 L59.7,4.693669288269371 L59.8,4.71495267946432 L59.9,4.735491524973721 L60.0,4.755282581475766 L60.1,4.774322723733214 L60.2,4.792608945086881 L60.3,4.810138357930428 L60.4,4.826908194166368 L60.5,4.842915805643156 L60.6,4.858158664573368 L60.7,4.872634363932886 L60.8,4.8863406178409665 L60.9,4.899275261921233 L61.0,4.911436253643443 L61.1,4.922821672646026 L61.2,4.9334297210393405 L61.3,4.94325872368957 L61.4,4.952307128483256 L61.5,4.960573506572389 L61.6,4.968056552600043 L61.7,4.9747550849065005 L61.8,4.980668045715862 L61.9,4.98579450130307 L62.0,4.990133642141358 L62.1,4.993684783030087 L62.2,4.996447363202946 L62.3,4.9984209464165 L62.4,4.99960522101908 L62.5,5.0 L62.6,4.99960522101908 L62.7,4.9984209464165 L62.8,4.996447363202947 L62.9,4.993684783030088 L63.0,4.990133642141358 L63.1,4.98579450130307 L63.2,4.980668045715862 L63.3,4.9747550849065005 L63.4,4.968056552600043 L63.5,4.9605735065723895 L63.6,4.952307128483256 L63.7,4.943258723689571 L63.8,4.9334297210393405 L63.9,4.922821672646027 L64.0,4.911436253643443 L64.1,4.899275261921235 L64.2,4.8863406178409665 L64.3,4.872634363932886 L64.4,4.858158664573368 L64.5,4.842915805643155 L64.6,4.8269081941663705 L64.7,4.810138357930429 L64.8,4.79260894508688 L64.9,4.774322723733214 L65.0,4.755282581475768 L65.1,4.735491524973724 L65.2,4.714952679464322 L65.3,4.693669288269372 L65.4,4.67164471228306 L65.5,4.648882429441258 L65.6,4.625386034172293 L65.7,4.601159236829353 L65.8,4.576205863104587 L65.9,4.550529853424979 L66.0,4.5241352623300966 L66.1,4.497026257831855 L66.2,4.469207120756317 L66.3,4.440682244067722 L66.4,4.411456132174768 L66.5,4.3815334002193165 L66.6,4.350918773347629 L66.7,4.319617085964175 L66.8,4.287633280968262 L66.9,4.254972408973457 L67.0,4.221639627510076 L67.1,4.18764020021071 L67.2,4.1529794959790625 L67.3,4.117662988142138 L67.4,4.0816962535859185 L67.5,4.045084971874738 L67.6,4.007834924354386 L67.7,3.969951993239177 L67.8,3.9314421606830976 L67.9,3.8923115078351165 L68.0,3.852566213878943 L68.1,3.812212555057244 L68.2,3.7712569036805204 L68.3,3.729705727120915 L68.4,3.6875655867908703 L68.5,3.644843137107055 L68.6,3.6015451244395407 L68.7,3.5576783860464234 L68.8,3.5132498489942456 L68.9,3.468266529064021 L69.0,3.422735529643442 L69.1,3.3766640406051236 L69.2,3.330059337171256 L69.3,3.2829287787647834 L69.4,3.2352798078472182 L69.5,3.1871199487434487 L69.6,3.1384568064535054 L69.7,3.089298065451671 L69.8,3.0396514884730292 L69.9,2.9895249152875927 L70.0,2.938926261462367 L70.1,2.8878635171113425 L70.2,2.836344745633783 L70.3,2.7843780824409436 L70.4,2.731971733671345 L70.5,2.6791339748949863 L70.6,2.625873149806485 L70.7,2.5721976689075268 L70.8,2.5181160081788097 L70.9,2.463636707741459 L71.0,2.4087683705085734 L71.1,2.353519660826671 L71.2,2.2978993031074353 L71.3,2.2419160804501606 L71.4,2.1855788332546595 L71.5,2.1288964578253617 L71.6,2.0718779049664224 L71.7,2.014532178568311 L71.8,1.956868334186013 L71.9,1.898895477609002 L72.0,1.8406227634233898 L72.1,1.7820593935662572 L72.2,1.723214615872584 L72.3,1.6640977226149358 L72.4,1.6047180490360455 L72.5,1.545084971874739 L72.6,1.4852079078851799 L72.7,1.4250963123498814 L72.8,1.3647596775866306 L72.9,1.3042075314494843 L73.0,1.2434494358242774 L73.1,1.1824949851186308 L73.2,1.1213538047468998 L73.3,1.0600355496102796 L73.4,0.9985499025720278 L73.5,0.9369065729286197 L73.6,0.8751152948763894 L73.7,0.8131858259744135 L73.8,0.7511279456037846 L73.9,0.6889514534231846 L74.0,0.6266661678215195 L74.1,0.5642819243674106 L74.2,0.5018085742560716 L74.3,0.439255982753717 L74.4,0.3766340276396598 L74.5,0.3139525976465669 L74.6,0.25122159089885177 L74.7,0.18845091334967168 L74.8,0.1256504772166903 L74.9,0.06283019941676096 L75.0,1.8369701987210296e-15 L75.1,-0.0628301994167573 L75.2,-0.12565047721668662 L75.3,-0.18845091334966801 L75.4,-0.25122159089884805 L75.5,-0.31395259764656325 L75.6,-0.37663402763965614 L75.7,-0.43925598275372213 L75.8,-0.5018085742560681 L75.9,-0.5642819243674158 L76.0,-0.6266661678215159 L76.1,-0.6889514534231811 L76.2,-0.7511279456037898 L76.3,-0.8131858259744098 L76.4,-0.8751152948763857 L76.5,-0.9369065729286248 L76.6,-0.9985499025720241 L76.7,-1.060035549610276 L76.8,-1.1213538047469047 L76.9,-1.182494985118627 L77.0,-1.2434494358242738 L77.1,-1.3042075314494808 L77.2,-1.364759677586627 L77.3,-1.4250963123498779 L77.4,-1.4852079078851765 L77.5,-1.5450849718747353 L77.6,-1.604718049036042 L77.7,-1.6640977226149325 L77.8,-1.723214615872581 L77.9,-1.7820593935662536 L78.0,-1.8406227634233863 L78.1,-1.8988954776089986 L78.2,-1.9568683341860096 L78.3,-2.0145321785683072 L78.4,-2.0718779049664273 L78.5,-2.128896457825358 L78.6,-2.185578833254656 L78.7,-2.2419160804501654 L78.8,-2.2978993031074317 L78.9,-2.3535196608266675 L79.0,-2.408768370508578 L79.1,-2.4636367077414483 L79.2,-2.518116008178807 L79.3,-2.572197668907531 L79.4,-2.625873149806482 L79.5,-2.6791339748949827 L79.6,-2.731971733671342 L79.7,-2.784378082440941 L79.8,-2.83634474563378 L79.9,-2.88786351711134 L80.0,-2.938926261462364 L80.1,-2.9895249152875896 L80.2,-3.0396514884730266 L80.3,-3.0892980654516675 L80.4,-3.1384568064535023 L80.5,-3.1871199487434456 L80.6,-3.2352798078472156 L80.7,-3.2829287787647803 L80.8,-3.3300593371712535 L80.9,-3.376664040605127 L81.0,-3.422735529643439 L81.1,-3.4682665290640182 L81.2,-3.513249848994249 L81.3,-3.5576783860464207 L81.4,-3.601545124439538 L81.5,-3.6448431371070527 L81.6,-3.687565586790862 L81.7,-3.729705727120913 L81.8,-3.771256903680518 L81.9,-3.8122125550572363 L82.0,-3.8525662138789403 L82.1,-3.892311507835109 L82.2,-3.931442160683095 L82.3,-3.9699519932391745 L82.4,-4.007834924354389 L82.5,-4.045084971874731 L82.6,-4.081696253585917 L82.7,-4.117662988142136 L82.8,-4.152979495979061 L82.9,-4.187640200210713 L83.0,-4.221639627510078 L83.1,-4.2549724089734555 L83.2,-4.28763328096826 L83.3,-4.319617085964173 L83.4,-4.350918773347631 L83.5,-4.38153340021932 L83.6,-4.411456132174766 L83.7,-4.4406822440677205 L83.8,-4.469207120756315 L83.9,-4.497026257831857 L84.0,-4.524135262330098 L84.1,-4.550529853424977 L84.2,-4.576205863104585 L84.3,-4.601159236829347 L84.4,-4.625386034172292 L84.5,-4.648882429441256 L84.6,-4.671644712283058 L84.7,-4.693669288269367 L84.8,-4.714952679464318 L84.9,-4.735491524973722 L85.0,-4.755282581475767 L85.1,-4.7743227237332135 L85.2,-4.792608945086882 L85.3,-4.810138357930428 L85.4,-4.82690819416637 L85.5,-4.8429158056431545 L85.6,-4.858158664573367 L85.7,-4.872634363932887 L85.8,-4.886340617840968 L85.9,-4.899275261921233 L86.0,-4.911436253643442 L86.1,-4.922821672646025 L86.2,-4.933429721039341 L86.3,-4.943258723689571 L86.4,-4.952307128483255 L86.5,-4.960573506572389 L86.6,-4.968056552600041 L86.7,-4.9747550849065005 L86.8,-4.980668045715862 L86.9,-4.985794501303069 L87.0,-4.990133642141357 L87.1,-4.993684783030087 L87.2,-4.996447363202946 L87.3,-4.9984209464165 L87.4,-4.99960522101908 L87.5,-5.0 L87.6,-4.99960522101908 L87.7,-4.9984209464165 L87.8,-4.996447363202947 L87.9,-4.993684783030087 L88.0,-4.990133642141358 L88.1,-4.9857945013030704 L88.2,-4.980668045715863 L88.3,-4.974755084906501 L88.4,-4.968056552600041 L88.5,-4.960573506572389 L88.6,-4.952307128483257 L88.7,-4.943258723689571 L88.8,-4.933429721039342 L88.9,-4.922821672646026 L89.0,-4.911436253643443 L89.1,-4.899275261921235 L89.2,-4.886340617840968 L89.3,-4.872634363932888 L89.4,-4.858158664573368 L89.5,-4.842915805643156 L89.6,-4.8269081941663705 L89.7,-4.810138357930432 L89.8,-4.79260894508688 L89.9,-4.774322723733214 L90.0,-4.755282581475769 L90.1,-4.735491524973724 L90.2,-4.714952679464326 L90.3,-4.693669288269372 L90.4,-4.67164471228306 L90.5,-4.648882429441258 L90.6,-4.625386034172293 L90.7,-4.601159236829349 L90.8,-4.57620586310459 L90.9,-4.55052985342498 L91.0,-4.5241352623301 L91.1,-4.497026257831859 L91.2,-4.469207120756317 L91.3,-4.440682244067722 L91.4,-4.411456132174768 L91.5,-4.381533400219322 L91.6,-4.3509187733476296 L91.7,-4.319617085964175 L91.8,-4.2876332809682625 L91.9,-4.254972408973462 L92.0,-4.22163962751008 L92.1,-4.187640200210711 L92.2,-4.1529794959790625 L92.3,-4.117662988142139 L92.4,-4.081696253585924 L92.5,-4.045084971874738 L92.6,-4.007834924354387 L92.7,-3.9699519932391776 L92.8,-3.9314421606830976 L92.9,-3.8923115078351116 L93.0,-3.852566213878949 L93.1,-3.8122125550572443 L93.2,-3.771256903680521 L93.3,-3.729705727120915 L93.4,-3.6875655867908645 L93.5,-3.6448431371070553 L93.6,-3.601545124439541 L93.7,-3.55767838604643 L93.8,-3.513249848994252 L93.9,-3.4682665290640213 L94.0,-3.4227355296434423 L94.1,-3.376664040605124 L94.2,-3.330059337171263 L94.3,-3.2829287787647834 L94.4,-3.2352798078472187 L94.5,-3.1871199487434487 L94.6,-3.1384568064535054 L94.7,-3.089298065451678 L94.8,-3.0396514884730297 L94.9,-2.989524915287593 L95.0,-2.9389262614623672 L95.1,-2.8878635171113434 L95.2,-2.8363447456337836 L95.3,-2.784378082440944 L95.4,-2.7319717336713456 L95.5,-2.6791339748949867 L95.6,-2.6258731498064853 L95.7,-2.572197668907527 L95.8,-2.51811600817881 L95.9,-2.4636367077414594 L96.0,-2.4087683705085814 L96.1,-2.3535196608266635 L96.2,-2.2978993031074357 L96.3,-2.241916080450169 L96.4,-2.185578833254668 L96.5,-2.12889645782537 L96.6,-2.0718779049664233 L96.7,-2.0145321785683112 L96.8,-1.9568683341860136 L96.9,-1.8988954776090106 L97.0,-1.8406227634233905 L97.1,-1.7820593935662576 L97.2,-1.7232146158725847 L97.3,-1.6640977226149365 L97.4,-1.6047180490360544 L97.5,-1.5450849718747395 L97.6,-1.4852079078851808 L97.7,-1.4250963123498819 L97.8,-1.364759677586631 L97.9,-1.304207531449485 L98.0,-1.243449435824278 L98.1,-1.1824949851186313 L98.2,-1.121353804746909 L98.3,-1.06003554961028 L98.4,-0.9985499025720285 L98.5,-0.936906572928629 L98.6,-0.8751152948763901 L98.7,-0.8131858259744229 L98.8,-0.7511279456037852 L98.9,-0.6889514534231854 L99.0,-0.6266661678215201 L99.1,-0.5642819243674201 L99.2,-0.5018085742560812 L99.3,-0.4392559827537176 L99.4,-0.37663402763966036 L99.5,-0.3139525976465676 L99.6,-0.2512215908988524 L99.7,-0.1884509133496723 L99.8,-0.1256504772166909 L99.9,-0.06283019941676157 L100.0,-2.4492935982947065e-15 L100.0,19.999999999999996 L99.9,19.937169800583238 L99.8,19.87434952278331 L99.7,19.811549086650327 L99.6,19.74877840910115 L99.5,19.68604740235343 L99.4,19.62336597236034 L99.3,19.560744017246282 L99.2,19.49819142574392 L99.1,19.43571807563258 L99.0,19.37333383217848 L98.9,19.311048546576814 L98.8,19.248872054396216 L98.7,19.186814174025578 L98.6,19.12488470512361 L98.5,19.063093427071372 L98.4,19.00145009742797 L98.3,18.93996445038972 L98.2,18.87864619525309 L98.1,18.81750501488137 L98.0,18.756550564175722 L97.9,18.695792468550515 L97.8,18.63524032241337 L97.7,18.574903687650117 L97.6,18.51479209211482 L97.5,18.45491502812526 L97.4,18.395281950963945 L97.3,18.335902277385063 L97.2,18.276785384127415 L97.1,18.217940606433743 L97.0,18.15937723657661 L96.9,18.10110452239099 L96.8,18.043131665813988 L96.7,17.98546782143169 L96.6,17.928122095033576 L96.5,17.87110354217463 L96.4,17.814421166745333 L96.3,17.758083919549833 L96.2,17.702100696892565 L96.1,17.646480339173337 L96.0,17.591231629491418 L95.9,17.536363292258542 L95.8,17.48188399182119 L95.7,17.427802331092472 L95.6,17.374126850193516 L95.5,17.320866025105012 L95.4,17.268028266328656 L95.3,17.215621917559055 L95.2,17.163655254366216 L95.1,17.11213648288866 L95.0,17.061073738537633 L94.9,17.010475084712407 L94.8,16.96034851152697 L94.7,16.91070193454832 L94.6,16.861543193546495 L94.5,16.812880051256553 L94.4,16.76472019215278 L94.3,16.717071221235216 L94.2,16.669940662828736 L94.1,16.623335959394876 L94.0,16.577264470356557 L93.9,16.53173347093598 L93.8,16.486750151005747 L93.7,16.44232161395357 L93.6,16.39845487556046 L93.5,16.355156862892944 L93.4,16.312434413209136 L93.3,16.270294272879084 L93.2,16.22874309631948 L93.1,16.187787444942757 L93.0,16.147433786121052 L92.9,16.10768849216489 L92.8,16.068557839316902 L92.7,16.030048006760822 L92.6,15.992165075645612 L92.5,15.954915028125262 L92.4,15.918303746414075 L92.3,15.88233701185786 L92.2,15.847020504020938 L92.1,15.812359799789288 L92.0,15.77836037248992 L91.9,15.745027591026538 L91.8,15.712366719031738 L91.7,15.680382914035825 L91.6,15.64908122665237 L91.5,15.618466599780678 L91.4,15.588543867825232 L91.3,15.559317755932277 L91.2,15.530792879243684 L91.1,15.502973742168141 L91.0,15.4758647376699 L90.9,15.44947014657502 L90.8,15.42379413689541 L90.7,15.39884076317065 L90.6,15.374613965827706 L90.5,15.351117570558742 L90.4,15.32835528771694 L90.3,15.306330711730627 L90.2,15.285047320535675 L90.1,15.264508475026275 L90.0,15.244717418524232 L89.9,15.225677276266786 L89.8,15.20739105491312 L89.7,15.189861642069568 L89.6,15.173091805833629 L89.5,15.157084194356845 L89.4,15.141841335426632 L89.3,15.127365636067111 L89.2,15.113659382159032 L89.1,15.100724738078764 L89.0,15.088563746356556 L88.9,15.077178327353973 L88.8,15.066570278960658 L88.7,15.05674127631043 L88.6,15.047692871516743 L88.5,15.039426493427612 L88.4,15.031943447399959 L88.3,15.025244915093499 L88.2,15.019331954284137 L88.1,15.01420549869693 L88.0,15.009866357858641 L87.9,15.006315216969913 L87.8,15.003552636797053 L87.7,15.0015790535835 L87.6,15.000394778980919 L87.5,15.0 L87.4,15.000394778980919 L87.3,15.0015790535835 L87.2,15.003552636797053 L87.1,15.006315216969913 L87.0,15.009866357858643 L86.9,15.014205498696931 L86.8,15.019331954284137 L86.7,15.025244915093499 L86.6,15.031943447399959 L86.5,15.039426493427612 L86.4,15.047692871516745 L86.3,15.05674127631043 L86.2,15.066570278960658 L86.1,15.077178327353975 L86.0,15.088563746356558 L85.9,15.100724738078767 L85.8,15.113659382159032 L85.7,15.127365636067113 L85.6,15.141841335426633 L85.5,15.157084194356845 L85.4,15.17309180583363 L85.3,15.189861642069573 L85.2,15.207391054913117 L85.1,15.225677276266786 L85.0,15.244717418524232 L84.9,15.264508475026279 L84.8,15.285047320535682 L84.7,15.306330711730633 L84.6,15.328355287716942 L84.5,15.351117570558744 L84.4,15.374613965827708 L84.3,15.398840763170654 L84.2,15.423794136895415 L84.1,15.449470146575024 L84.0,15.475864737669902 L83.9,15.502973742168143 L83.8,15.530792879243684 L83.7,15.55931775593228 L83.6,15.588543867825233 L83.5,15.61846659978068 L83.4,15.649081226652369 L83.3,15.680382914035828 L83.2,15.71236671903174 L83.1,15.745027591026545 L83.0,15.77836037248992 L82.9,15.812359799789288 L82.8,15.84702050402094 L82.7,15.882337011857864 L82.6,15.918303746414082 L82.5,15.954915028125269 L82.4,15.99216507564561 L82.3,16.030048006760826 L82.2,16.068557839316906 L82.1,16.10768849216489 L82.0,16.14743378612106 L81.9,16.187787444942764 L81.8,16.228743096319484 L81.7,16.270294272879088 L81.6,16.31243441320914 L81.5,16.355156862892947 L81.4,16.39845487556046 L81.3,16.44232161395358 L81.2,16.48675015100575 L81.1,16.531733470935983 L81.0,16.57726447035656 L80.9,16.623335959394872 L80.8,16.669940662828747 L80.7,16.71707122123522 L80.6,16.764720192152783 L80.5,16.812880051256556 L80.4,16.8615431935465 L80.3,16.91070193454833 L80.2,16.960348511526973 L80.1,17.01047508471241 L80.0,17.061073738537637 L79.9,17.11213648288866 L79.8,17.16365525436622 L79.7,17.21562191755906 L79.6,17.268028266328656 L79.5,17.32086602510502 L79.4,17.37412685019352 L79.3,17.42780233109247 L79.2,17.481883991821192 L79.1,17.536363292258553 L79.0,17.59123162949142 L78.9,17.646480339173333 L78.8,17.70210069689257 L78.7,17.758083919549833 L78.6,17.814421166745344 L78.5,17.87110354217464 L78.4,17.928122095033572 L78.3,17.985467821431694 L78.2,18.04313166581399 L78.1,18.101104522391 L78.0,18.159377236576614 L77.9,18.217940606433746 L77.8,18.276785384127418 L77.7,18.335902277385067 L77.6,18.39528195096396 L77.5,18.454915028125264 L77.4,18.514792092114824 L77.3,18.57490368765012 L77.2,18.635240322413374 L77.1,18.69579246855052 L77.0,18.756550564175726 L76.9,18.817505014881373 L76.8,18.878646195253097 L76.7,18.939964450389724 L76.6,19.001450097427977 L76.5,19.063093427071376 L76.4,19.124884705123613 L76.3,19.18681417402559 L76.2,19.24887205439621 L76.1,19.31104854657682 L76.0,19.373333832178485 L75.9,19.435718075632586 L75.8,19.498191425743933 L75.7,19.56074401724628 L75.6,19.623365972360343 L75.5,19.686047402353438 L75.4,19.748778409101153 L75.3,19.81154908665033 L75.2,19.874349522783312 L75.1,19.93716980058324 L75.0,20.000000000000004 L74.9,20.062830199416762 L74.8,20.12565047721669 L74.7,20.188450913349673 L74.6,20.25122159089885 L74.5,20.313952597646566 L74.4,20.37663402763966 L74.3,20.439255982753718 L74.2,20.50180857425607 L74.1,20.56428192436741 L74.0,20.62666616782152 L73.9,20.688951453423186 L73.8,20.751127945603784 L73.7,20.813185825974415 L73.6,20.87511529487639 L73.5,20.93690657292862 L73.4,20.998549902572027 L73.3,21.06003554961028 L73.2,21.1213538047469 L73.1,21.18249498511863 L73.0,21.243449435824278 L72.9,21.304207531449485 L72.8,21.36475967758663 L72.7,21.425096312349883 L72.6,21.48520790788518 L72.5,21.54508497187474 L72.4,21.604718049036045 L72.3,21.664097722614937 L72.2,21.723214615872585 L72.1,21.782059393566257 L72.0,21.84062276342339 L71.9,21.898895477609003 L71.8,21.956868334186012 L71.7,22.01453217856831 L71.6,22.07187790496642 L71.5,22.128896457825363 L71.4,22.18557883325466 L71.3,22.24191608045016 L71.2,22.297899303107435 L71.1,22.35351966082667 L71.0,22.408768370508575 L70.9,22.463636707741458 L70.8,22.518116008178808 L70.7,22.572197668907528 L70.6,22.625873149806484 L70.5,22.679133974894988 L70.4,22.731971733671344 L70.3,22.784378082440945 L70.2,22.836344745633784 L70.1,22.88786351711134 L70.0,22.938926261462367 L69.9,22.989524915287593 L69.8,23.03965148847303 L69.7,23.089298065451672 L69.6,23.138456806453505 L69.5,23.187119948743447 L69.4,23.235279807847217 L69.3,23.282928778764784 L69.2,23.330059337171257 L69.1,23.376664040605124 L69.0,23.422735529643443 L68.9,23.46826652906402 L68.8,23.513249848994246 L68.7,23.557678386046423 L68.6,23.60154512443954 L68.5,23.644843137107056 L68.4,23.68756558679087 L68.3,23.729705727120916 L68.2,23.77125690368052 L68.1,23.812212555057243 L68.0,23.852566213878944 L67.9,23.892311507835117 L67.8,23.931442160683098 L67.7,23.969951993239178 L67.6,24.007834924354384 L67.5,24.045084971874736 L67.4,24.081696253585918 L67.3,24.117662988142136 L67.2,24.15297949597906 L67.1,24.18764020021071 L67.0,24.221639627510076 L66.9,24.254972408973458 L66.8,24.28763328096826 L66.7,24.319617085964175 L66.6,24.35091877334763 L66.5,24.38153340021932 L66.4,24.41145613217477 L66.3,24.440682244067723 L66.2,24.469207120756316 L66.1,24.497026257831855 L66.0,24.5241352623301 L65.9,24.55052985342498 L65.8,24.576205863104587 L65.7,24.601159236829353 L65.6,24.625386034172294 L65.5,24.648882429441258 L65.4,24.67164471228306 L65.3,24.693669288269373 L65.2,24.71495267946432 L65.1,24.735491524973725 L65.0,24.755282581475768 L64.9,24.774322723733214 L64.8,24.79260894508688 L64.7,24.810138357930427 L64.6,24.82690819416637 L64.5,24.842915805643155 L64.4,24.858158664573367 L64.3,24.872634363932885 L64.2,24.886340617840965 L64.1,24.899275261921236 L64.0,24.911436253643444 L63.9,24.922821672646027 L63.8,24.93342972103934 L63.7,24.94325872368957 L63.6,24.952307128483255 L63.5,24.960573506572388 L63.4,24.968056552600043 L63.3,24.9747550849065 L63.2,24.980668045715863 L63.1,24.98579450130307 L63.0,24.99013364214136 L62.9,24.993684783030087 L62.8,24.996447363202947 L62.7,24.998420946416502 L62.6,24.99960522101908 L62.5,25.0 L62.4,24.99960522101908 L62.3,24.998420946416502 L62.2,24.996447363202947 L62.1,24.993684783030087 L62.0,24.99013364214136 L61.9,24.98579450130307 L61.8,24.980668045715863 L61.7,24.9747550849065 L61.6,24.968056552600043 L61.5,24.960573506572388 L61.4,24.952307128483255 L61.3,24.94325872368957 L61.2,24.93342972103934 L61.1,24.922821672646027 L61.0,24.911436253643444 L60.9,24.899275261921233 L60.8,24.886340617840965 L60.7,24.872634363932885 L60.6,24.858158664573367 L60.5,24.842915805643155 L60.4,24.826908194166368 L60.3,24.810138357930427 L60.2,24.792608945086883 L60.1,24.774322723733214 L60.0,24.755282581475768 L59.9,24.73549152497372 L59.8,24.714952679464318 L59.7,24.69366928826937 L59.6,24.67164471228306 L59.5,24.648882429441255 L59.4,24.62538603417229 L59.3,24.60115923682935 L59.2,24.576205863104587 L59.1,24.55052985342498 L59.0,24.5241352623301 L58.9,24.497026257831855 L58.8,24.469207120756316 L58.7,24.440682244067723 L58.6,24.411456132174767 L58.5,24.38153340021932 L58.4,24.350918773347626 L58.3,24.319617085964175 L58.2,24.28763328096826 L58.1,24.254972408973458 L58.0,24.221639627510076 L57.9,24.18764020021071 L57.8,24.152979495979064 L57.7,24.117662988142136 L57.6,24.081696253585918 L57.5,24.04508497187474 L57.4,24.00783492435438 L57.3,23.96995199323917 L57.2,23.931442160683098 L57.1,23.892311507835117 L57.0,23.852566213878944 L56.9,23.81221255505724 L56.8,23.771256903680516 L56.7,23.72970572712091 L56.6,23.68756558679087 L56.5,23.644843137107056 L56.4,23.601545124439536 L56.3,23.557678386046426 L56.2,23.513249848994246 L56.1,23.468266529064024 L56.0,23.422735529643443 L55.9,23.376664040605117 L55.8,23.330059337171257 L55.7,23.282928778764784 L55.6,23.23527980784722 L55.5,23.18711994874345 L55.4,23.1384568064535 L55.3,23.089298065451672 L55.2,23.039651488473027 L55.1,22.989524915287593 L55.0,22.938926261462363 L54.9,22.887863517111334 L54.8,22.836344745633777 L54.7,22.78437808244094 L54.6,22.731971733671347 L54.5,22.67913397489498 L54.4,22.62587314980648 L54.3,22.572197668907528 L54.2,22.518116008178804 L54.1,22.463636707741458 L54.0,22.408768370508575 L53.9,22.353519660826663 L53.8,22.297899303107435 L53.7,22.24191608045016 L53.6,22.185578833254667 L53.5,22.128896457825363 L53.4,22.071877904966417 L53.3,22.014532178568313 L53.2,21.95686833418601 L53.1,21.898895477609003 L53.0,21.84062276342339 L52.9,21.78205939356625 L52.8,21.723214615872585 L52.7,21.664097722614933 L52.6,21.604718049036048 L52.5,21.545084971874736 L52.4,21.485207907885172 L52.3,21.425096312349876 L52.2,21.364759677586626 L52.1,21.304207531449485 L52.0,21.243449435824274 L51.9,21.182494985118623 L51.8,21.1213538047469 L51.7,21.060035549610276 L51.6,20.998549902572034 L51.5,20.93690657292862 L51.4,20.875115294876377 L51.3,20.813185825974415 L51.2,20.751127945603788 L51.1,20.68895145342319 L51.0,20.626666167821522 L50.9,20.564281924367407 L50.8,20.501808574256074 L50.7,20.439255982753714 L50.6,20.376634027639664 L50.5,20.313952597646566 L50.4,20.251221590898844 L50.3,20.188450913349673 L50.2,20.125650477216688 L50.1,20.062830199416762 L50.0,20.0 L49.9,19.937169800583234 L49.8,19.87434952278331 L49.7,19.811549086650327 L49.6,19.74877840910115 L49.5,19.686047402353434 L49.4,19.623365972360336 L49.3,19.56074401724628 L49.2,19.49819142574393 L49.1,19.43571807563259 L49.0,19.373333832178478 L48.9,19.311048546576806 L48.8,19.248872054396212 L48.7,19.186814174025578 L48.6,19.12488470512362 L48.5,19.063093427071376 L48.4,19.001450097427963 L48.3,18.939964450389727 L48.2,18.878646195253094 L48.1,18.817505014881377 L48.0,18.756550564175722 L47.9,18.69579246855051 L47.8,18.63524032241337 L47.7,18.57490368765012 L47.6,18.514792092114824 L47.5,18.454915028125264 L47.4,18.395281950963952 L47.3,18.335902277385063 L47.2,18.276785384127415 L47.1,18.217940606433743 L47.0,18.15937723657661 L46.9,18.10110452239099 L46.8,18.043131665813984 L46.7,17.98546782143169 L46.6,17.92812209503358 L46.5,17.871103542174634 L46.4,17.814421166745333 L46.3,17.758083919549836 L46.2,17.702100696892558 L46.1,17.646480339173337 L46.0,17.591231629491418 L45.9,17.536363292258542 L45.8,17.481883991821196 L45.7,17.427802331092465 L45.6,17.374126850193523 L45.5,17.320866025105015 L45.4,17.268028266328653 L45.3,17.215621917559055 L45.2,17.16365525436622 L45.1,17.11213648288866 L45.0,17.061073738537633 L44.9,17.010475084712404 L44.8,16.960348511526973 L44.7,16.910701934548328 L44.6,16.861543193546495 L44.5,16.812880051256553 L44.4,16.764720192152776 L44.3,16.717071221235216 L44.2,16.669940662828743 L44.1,16.623335959394876 L44.0,16.577264470356553 L43.9,16.531733470935972 L43.8,16.48675015100575 L43.7,16.442321613953577 L43.6,16.398454875560468 L43.5,16.35515686289294 L43.4,16.31243441320913 L43.3,16.270294272879084 L43.2,16.22874309631948 L43.1,16.187787444942764 L43.0,16.147433786121052 L42.9,16.107688492164883 L42.8,16.068557839316902 L42.7,16.030048006760822 L42.6,15.99216507564562 L42.5,15.954915028125262 L42.4,15.918303746414077 L42.3,15.882337011857862 L42.2,15.847020504020938 L42.1,15.81235979978929 L42.0,15.778360372489924 L41.9,15.745027591026538 L41.8,15.712366719031738 L41.7,15.680382914035825 L41.6,15.64908122665237 L41.5,15.618466599780684 L41.4,15.588543867825233 L41.3,15.559317755932277 L41.2,15.530792879243684 L41.1,15.502973742168145 L41.0,15.475864737669902 L40.9,15.44947014657502 L40.8,15.42379413689541 L40.7,15.39884076317065 L40.6,15.37461396582771 L40.5,15.351117570558742 L40.4,15.328355287716938 L40.3,15.306330711730627 L40.2,15.285047320535678 L40.1,15.264508475026279 L40.0,15.244717418524232 L39.9,15.225677276266785 L39.8,15.20739105491312 L39.7,15.189861642069571 L39.6,15.173091805833632 L39.5,15.157084194356845 L39.4,15.14184133542663 L39.3,15.127365636067113 L39.2,15.113659382159033 L39.1,15.100724738078764 L39.0,15.088563746356556 L38.9,15.077178327353973 L38.8,15.06657027896066 L38.7,15.05674127631043 L38.6,15.047692871516745 L38.5,15.03942649342761 L38.4,15.031943447399957 L38.3,15.025244915093499 L38.2,15.019331954284137 L38.1,15.014205498696931 L38.0,15.009866357858641 L37.9,15.006315216969913 L37.8,15.003552636797053 L37.7,15.0015790535835 L37.6,15.000394778980919 L37.5,15.0 L37.4,15.000394778980919 L37.3,15.0015790535835 L37.2,15.003552636797053 L37.1,15.006315216969913 L37.0,15.009866357858641 L36.9,15.014205498696931 L36.8,15.019331954284137 L36.7,15.025244915093499 L36.6,15.031943447399957 L36.5,15.039426493427612 L36.4,15.047692871516745 L36.3,15.05674127631043 L36.2,15.06657027896066 L36.1,15.077178327353973 L36.0,15.088563746356556 L35.9,15.100724738078766 L35.8,15.113659382159033 L35.7,15.127365636067115 L35.6,15.14184133542663 L35.5,15.157084194356845 L35.4,15.173091805833632 L35.3,15.189861642069571 L35.2,15.20739105491312 L35.1,15.225677276266786 L35.0,15.244717418524232 L34.9,15.264508475026279 L34.8,15.285047320535678 L34.7,15.306330711730629 L34.6,15.328355287716938 L34.5,15.351117570558742 L34.4,15.37461396582771 L34.3,15.39884076317065 L34.2,15.423794136895413 L34.1,15.449470146575022 L34.0,15.475864737669902 L33.9,15.502973742168145 L33.8,15.530792879243682 L33.7,15.559317755932277 L33.6,15.588543867825233 L33.5,15.618466599780682 L33.4,15.649081226652372 L33.3,15.680382914035825 L33.2,15.712366719031738 L33.1,15.74502759102654 L33.0,15.778360372489924 L32.9,15.812359799789292 L32.8,15.84702050402094 L32.7,15.882337011857864 L32.6,15.91830374641408 L32.5,15.954915028125264 L32.4,15.992165075645618 L32.3,16.030048006760826 L32.2,16.068557839316902 L32.1,16.107688492164883 L32.0,16.147433786121052 L31.9,16.18778744494276 L31.8,16.228743096319484 L31.7,16.27029427287909 L31.6,16.31243441320913 L31.5,16.35515686289294 L31.4,16.398454875560468 L31.3,16.442321613953574 L31.2,16.486750151005754 L31.1,16.531733470935976 L31.0,16.577264470356557 L30.9,16.62333595939488 L30.8,16.66994066282874 L30.7,16.71707122123522 L30.6,16.76472019215278 L30.5,16.812880051256553 L30.4,16.8615431935465 L30.3,16.910701934548328 L30.2,16.960348511526973 L30.1,17.010475084712404 L30.0,17.061073738537637 L29.9,17.112136482888666 L29.8,17.16365525436622 L29.7,17.215621917559062 L29.6,17.268028266328656 L29.5,17.32086602510502 L29.4,17.374126850193523 L29.3,17.42780233109247 L29.2,17.4818839918212 L29.1,17.536363292258542 L29.0,17.591231629491425 L28.9,17.646480339173337 L28.8,17.70210069689256 L28.7,17.75808391954984 L28.6,17.814421166745333 L28.5,17.871103542174637 L28.4,17.928122095033583 L28.3,17.985467821431683 L28.2,18.043131665813988 L28.1,18.101104522390994 L28.0,18.15937723657661 L27.9,18.217940606433746 L27.8,18.276785384127415 L27.7,18.335902277385067 L27.6,18.395281950963952 L27.5,18.454915028125264 L27.4,18.514792092114828 L27.3,18.57490368765012 L27.2,18.635240322413374 L27.1,18.695792468550515 L27.0,18.756550564175726 L26.9,18.817505014881377 L26.8,18.878646195253094 L26.7,18.93996445038973 L26.6,19.001450097427966 L26.5,19.063093427071376 L26.4,19.12488470512362 L26.3,19.18681417402558 L26.2,19.248872054396216 L26.1,19.31104854657681 L26.0,19.373333832178478 L25.9,19.435718075632593 L25.8,19.498191425743926 L25.7,19.560744017246286 L25.6,19.623365972360336 L25.5,19.686047402353434 L25.4,19.748778409101153 L25.3,19.811549086650327 L25.2,19.874349522783316 L25.1,19.937169800583238 L25.0,20.0 L24.9,20.062830199416766 L24.8,20.125650477216688 L24.7,20.188450913349673 L24.6,20.251221590898847 L24.5,20.31395259764657 L24.4,20.376634027639664 L24.3,20.439255982753714 L24.2,20.501808574256074 L24.1,20.56428192436741 L24.0,20.626666167821522 L23.9,20.688951453423194 L23.8,20.751127945603784 L23.7,20.81318582597442 L23.6,20.87511529487638 L23.5,20.936906572928624 L23.4,20.998549902572037 L23.3,21.060035549610273 L23.2,21.121353804746906 L23.1,21.182494985118627 L23.0,21.243449435824274 L22.9,21.304207531449485 L22.8,21.364759677586626 L22.7,21.425096312349883 L22.6,21.485207907885176 L22.5,21.545084971874736 L22.4,21.604718049036048 L22.3,21.664097722614933 L22.2,21.723214615872585 L22.1,21.78205939356625 L22.0,21.84062276342339 L21.9,21.898895477609006 L21.8,21.956868334186012 L21.7,22.014532178568313 L21.6,22.07187790496642 L21.5,22.128896457825363 L21.4,22.185578833254667 L21.3,22.24191608045016 L21.2,22.297899303107442 L21.1,22.353519660826663 L21.0,22.408768370508575 L20.9,22.463636707741458 L20.8,22.518116008178804 L20.7,22.572197668907535 L20.6,22.625873149806477 L20.5,22.679133974894985 L20.4,22.731971733671347 L20.3,22.784378082440938 L20.2,22.836344745633784 L20.1,22.887863517111338 L20.0,22.938926261462367 L19.9,22.989524915287596 L19.8,23.039651488473027 L19.7,23.089298065451672 L19.6,23.1384568064535 L19.5,23.18711994874345 L19.4,23.235279807847224 L19.3,23.28292877876478 L19.2,23.330059337171257 L19.1,23.37666404060512 L19.0,23.422735529643443 L18.9,23.468266529064024 L18.8,23.513249848994246 L18.7,23.557678386046426 L18.6,23.601545124439532 L18.5,23.644843137107056 L18.4,23.68756558679087 L18.3,23.72970572712091 L18.2,23.77125690368052 L18.1,23.81221255505724 L18.0,23.852566213878944 L17.9,23.892311507835117 L17.8,23.931442160683094 L17.7,23.969951993239178 L17.6,24.007834924354384 L17.5,24.045084971874736 L17.4,24.08169625358592 L17.3,24.117662988142136 L17.2,24.152979495979064 L17.1,24.18764020021071 L17.0,24.221639627510076 L16.9,24.254972408973458 L16.8,24.28763328096826 L16.7,24.319617085964175 L16.6,24.35091877334763 L16.5,24.38153340021932 L16.4,24.411456132174767 L16.3,24.440682244067723 L16.2,24.46920712075632 L16.1,24.497026257831855 L16.0,24.5241352623301 L15.9,24.55052985342498 L15.8,24.576205863104587 L15.7,24.601159236829353 L15.6,24.62538603417229 L15.5,24.648882429441258 L15.4,24.67164471228306 L15.3,24.69366928826937 L15.2,24.71495267946432 L15.1,24.73549152497372 L15.0,24.755282581475768 L14.9,24.774322723733214 L14.8,24.79260894508688 L14.7,24.81013835793043 L14.6,24.82690819416637 L14.5,24.842915805643155 L14.4,24.85815866457337 L14.3,24.872634363932885 L14.2,24.88634061784097 L14.1,24.899275261921233 L14.0,24.911436253643444 L13.9,24.922821672646027 L13.8,24.93342972103934 L13.7,24.94325872368957 L13.6,24.952307128483255 L13.5,24.960573506572388 L13.4,24.968056552600043 L13.3,24.9747550849065 L13.2,24.980668045715863 L13.1,24.98579450130307 L13.0,24.99013364214136 L12.9,24.993684783030087 L12.8,24.996447363202947 L12.7,24.998420946416502 L12.6,24.99960522101908 L12.5,25.0 L12.4,24.99960522101908 L12.3,24.998420946416502 L12.2,24.996447363202947 L12.1,24.993684783030087 L12.0,24.99013364214136 L11.9,24.98579450130307 L11.8,24.980668045715863 L11.7,24.9747550849065 L11.6,24.968056552600043 L11.5,24.960573506572388 L11.4,24.952307128483255 L11.3,24.94325872368957 L11.2,24.93342972103934 L11.1,24.922821672646027 L11.0,24.911436253643444 L10.9,24.899275261921233 L10.8,24.88634061784097 L10.7,24.872634363932885 L10.6,24.85815866457337 L10.5,24.842915805643155 L10.4,24.82690819416637 L10.3,24.81013835793043 L10.2,24.79260894508688 L10.1,24.774322723733214 L10.0,24.755282581475768 L9.9,24.73549152497372 L9.8,24.71495267946432 L9.7,24.69366928826937 L9.6,24.67164471228306 L9.5,24.648882429441258 L9.4,24.62538603417229 L9.3,24.601159236829353 L9.2,24.576205863104587 L9.1,24.550529853424976 L9.0,24.5241352623301 L8.9,24.497026257831855 L8.8,24.46920712075632 L8.7,24.440682244067723 L8.6,24.411456132174767 L8.5,24.38153340021932 L8.4,24.35091877334763 L8.3,24.319617085964175 L8.2,24.28763328096826 L8.1,24.254972408973458 L8.0,24.221639627510076 L7.9,24.18764020021071 L7.8,24.15297949597906 L7.7,24.117662988142136 L7.6,24.081696253585918 L7.5,24.045084971874736 L7.4,24.007834924354384 L7.3,23.969951993239178 L7.2,23.931442160683094 L7.1,23.892311507835117 L7.0,23.852566213878944 L6.9,23.81221255505724 L6.8,23.77125690368052 L6.7,23.729705727120912 L6.6,23.687565586790868 L6.5,23.64484313710706 L6.4,23.601545124439536 L6.3,23.557678386046426 L6.2,23.513249848994246 L6.1,23.468266529064024 L6.0,23.422735529643443 L5.9,23.37666404060512 L5.8,23.330059337171257 L5.7,23.282928778764784 L5.6,23.23527980784722 L5.5,23.187119948743447 L5.4,23.1384568064535 L5.3,23.089298065451672 L5.2,23.039651488473027 L5.1,22.989524915287593 L5.0,22.938926261462367 L4.9,22.887863517111338 L4.8,22.83634474563378 L4.7,22.784378082440938 L4.6,22.731971733671344 L4.5,22.679133974894985 L4.4,22.62587314980648 L4.3,22.57219766890753 L4.2,22.518116008178804 L4.1,22.463636707741458 L4.0,22.408768370508575 L3.9,22.353519660826663 L3.8,22.29789930310744 L3.7,22.24191608045016 L3.6,22.185578833254663 L3.5,22.128896457825363 L3.4,22.07187790496642 L3.3,22.014532178568313 L3.2,21.956868334186012 L3.1,21.898895477609006 L3.0,21.84062276342339 L2.9,21.782059393566254 L2.8,21.723214615872585 L2.7,21.664097722614933 L2.6,21.604718049036048 L2.5,21.545084971874736 L2.4,21.485207907885176 L2.3,21.42509631234988 L2.2,21.364759677586626 L2.1,21.304207531449485 L2.0,21.243449435824274 L1.9,21.182494985118623 L1.8,21.121353804746906 L1.7,21.060035549610273 L1.6,20.998549902572034 L1.5,20.936906572928624 L1.4,20.87511529487638 L1.3,20.81318582597442 L1.2,20.751127945603784 L1.1,20.68895145342319 L1.0,20.626666167821522 L0.9,20.564281924367407 L0.8,20.501808574256074 L0.7,20.439255982753714 L0.6,20.376634027639664 L0.5,20.313952597646566 L0.4,20.251221590898847 L0.3,20.188450913349673 L0.2,20.125650477216688 L0.1,20.062830199416762 L0.0,20.0" fill="#000000" stroke-width="0" stroke-linecap="round" stroke-linejoin="round" stroke="none"  />
<!-- Footer -->
</svg>
