<!-- Header -->
<svg
    version="1.1"
    baseProfile="full"
    xmlns="http://www.w3.org/2000/svg"
    xmlns:xlink="http://www.w3.org/1999/xlink"
    xmlns:ev="http://www.w3.org/2001/xml-events"
    width="114.99921044203816"
    height="29.998420884076324"
    viewBox="-7.499605221019081 -12.499210442038162 114.99921044203816 29.998420884076324"
    preserveAspectRatio="none"
>
<!-- Body -->
<!-- Path -->
<path d="M0.0,0.0 L0.1,0.1256504772166874 L0.2,0.25122159089884777 L0.3,0.3766340276396636 L0.4,0.5018085742560745 L0.5,0.6266661678215213 L0.6,0.7511279456037854 L0.7,0.8751152948763802 L0.8,0.9985499025720351 L0.9,1.1213538047469058 L1.0,1.243449435824274 L1.1,1.3647596775866262 L1.2,1.4852079078851745 L1.3,1.6047180490360473 L1.4,1.7232146158725854 L1.5,1.8406227634233896 L1.6,1.9568683341860122 L1.7,2.0718779049664207 L1.8,2.1855788332546644 L1.9,2.297899303107439 L2.0,2.4087683705085765 L2.1,2.518116008178804 L2.2,2.6258731498064787 L2.3,2.731971733671345 L2.4,2.8363447456337827 L2.5,2.938926261462366 L2.6,3.039651488473027 L2.7,3.1384568064535023 L2.8,3.2352798078472214 L2.9,3.330059337171258 L3.0,3.422735529643443 L3.1,3.5132498489942456 L3.2,3.601545124439535 L3.3,3.6875655867908694 L3.4,3.771256903680519 L3.5,3.852566213878946 L3.6,3.9314421606830945 L3.7,4.007834924354382 L3.8,4.081696253585919 L3.9,4.1529794959790625 L4.0,4.221639627510076 L4.1,4.287633280968261 L4.2,4.350918773347629 L4.3,4.4114561321747665 L4.4,4.469207120756319 L4.5,4.524135262330098 L4.6,4.576205863104587 L4.7,4.6253860341722906 L4.8,4.67164471228306 L4.9,4.714952679464322 L5.0,4.755282581475767 L5.1,4.792608945086879 L5.2,4.82690819416637 L5.3,4.858158664573369 L5.4,4.886340617840967 L5.5,4.911436253643443 L5.6,4.9334297210393405 L5.7,4.952307128483256 L5.8,4.968056552600042 L5.9,4.980668045715863 L6.0,4.990133642141358 L6.1,4.996447363202946 L6.2,4.99960522101908 L6.3,4.99960522101908 L6.4,4.996447363202946 L6.5,4.990133642141358 L6.6,4.980668045715863 L6.7,4.968056552600042 L6.8,4.952307128483256 L6.9,4.9334297210393405 L7.0,4.911436253643443 L7.1,4.886340617840967 L7.2,4.85815866457337 L7.3,4.82690819416637 L7.4,4.792608945086879 L7.5,4.755282581475768 L7.6,4.714952679464322 L7.7,4.67164471228306 L7.8,4.6253860341722906 L7.9,4.576205863104588 L8.0,4.524135262330097 L8.1,4.4692071207563195 L8.2,4.411456132174767 L8.3,4.350918773347629 L8.4,4.287633280968261 L8.5,4.221639627510075 L8.6,4.152979495979063 L8.7,4.08169625358592 L8.8,4.007834924354382 L8.9,3.931442160683094 L9.0,3.852566213878946 L9.1,3.77125690368052 L9.2,3.6875655867908708 L9.3,3.6015451244395336 L9.4,3.513249848994246 L9.5,3.422735529643444 L9.6,3.3300593371712583 L9.7,3.2352798078472227 L9.8,3.138456806453501 L9.9,3.0396514884730266 L10.0,2.9389262614623664 L10.1,2.8363447456337836 L10.2,2.731971733671348 L10.3,2.6258731498064765 L10.4,2.5181160081788043 L10.5,2.408768370508576 L10.6,2.297899303107442 L10.7,2.185578833254666 L10.8,2.0718779049664215 L10.9,1.9568683341860118 L11.0,1.8406227634233907 L11.1,1.7232146158725872 L11.2,1.6047180490360486 L11.3,1.4852079078851745 L11.4,1.3647596775866253 L11.5,1.2434494358242763 L11.6,1.1213538047469072 L11.7,0.9985499025720375 L11.8,0.8751152948763794 L11.9,0.7511279456037856 L12.0,0.6266661678215226 L12.1,0.501808574256075 L12.2,0.3766340276396652 L12.3,0.2512215908988461 L12.4,0.12565047721668907 L12.5,6.123233995736766e-16 L12.6,-0.12565047721668562 L12.7,-0.2512215908988471 L12.8,-0.37663402763966397 L12.9,-0.5018085742560736 L13.0,-0.6266661678215214 L13.1,-0.7511279456037844 L13.2,-0.8751152948763805 L13.3,-0.9985499025720341 L13.4,-1.121353804746906 L13.5,-1.243449435824273 L13.6,-1.3647596775866262 L13.7,-1.4852079078851712 L13.8,-1.6047180490360473 L13.9,-1.723214615872584 L14.0,-1.8406227634233896 L14.1,-1.956868334186013 L14.2,-2.071877904966418 L14.3,-2.1855788332546653 L14.4,-2.297899303107439 L14.5,-2.408768370508577 L14.6,-2.5181160081788017 L14.7,-2.625873149806477 L14.8,-2.731971733671345 L14.9,-2.8363447456337827 L15.0,-2.9389262614623632 L15.1,-3.0396514884730252 L15.2,-3.138456806453502 L15.3,-3.235279807847222 L15.4,-3.330059337171259 L15.5,-3.422735529643442 L15.6,-3.5132498489942456 L15.7,-3.601545124439533 L15.8,-3.6875655867908703 L15.9,-3.7712569036805177 L16.0,-3.852566213878947 L16.1,-3.931442160683096 L16.2,-4.007834924354382 L16.3,-4.081696253585919 L16.4,-4.152979495979061 L16.5,-4.2216396275100765 L16.6,-4.287633280968261 L16.7,-4.350918773347628 L16.8,-4.4114561321747665 L16.9,-4.469207120756318 L17.0,-4.524135262330099 L17.1,-4.576205863104588 L17.2,-4.6253860341722906 L17.3,-4.671644712283061 L17.4,-4.7149526794643215 L17.5,-4.755282581475767 L17.6,-4.792608945086879 L17.7,-4.826908194166369 L17.8,-4.85815866457337 L17.9,-4.8863406178409665 L18.0,-4.911436253643443 L18.1,-4.9334297210393405 L18.2,-4.952307128483256 L18.3,-4.968056552600043 L18.4,-4.980668045715862 L18.5,-4.990133642141358 L18.6,-4.996447363202947 L18.7,-4.99960522101908 L18.8,-4.99960522101908 L18.9,-4.996447363202947 L19.0,-4.990133642141358 L19.1,-4.980668045715862 L19.2,-4.968056552600042 L19.3,-4.952307128483256 L19.4,-4.9334297210393405 L19.5,-4.911436253643443 L19.6,-4.8863406178409665 L19.7,-4.85815866457337 L19.8,-4.826908194166369 L19.9,-4.792608945086879 L20.0,-4.755282581475768 L20.1,-4.714952679464322 L20.2,-4.6716447122830616 L20.3,-4.62538603417229 L20.4,-4.57620586310459 L20.5,-4.524135262330099 L20.6,-4.469207120756317 L20.7,-4.411456132174767 L20.8,-4.350918773347629 L20.9,-4.287633280968262 L21.0,-4.221639627510075 L21.1,-4.1529794959790625 L21.2,-4.081696253585923 L21.3,-4.0078349243543805 L21.4,-3.9314421606830967 L21.5,-3.852566213878948 L21.6,-3.77125690368052 L21.7,-3.6875655867908703 L21.8,-3.601545124439534 L21.9,-3.5132498489942483 L22.0,-3.422735529643445 L22.1,-3.3300593371712557 L22.2,-3.235279807847225 L22.3,-3.138456806453505 L22.4,-3.0396514884730284 L22.5,-2.938926261462367 L22.6,-2.8363447456337827 L22.7,-2.7319717336713483 L22.8,-2.625873149806477 L22.9,-2.518116008178805 L23.0,-2.4087683705085805 L23.1,-2.2978993031074424 L23.2,-2.185578833254667 L23.3,-2.071877904966422 L23.4,-1.9568683341860167 L23.5,-1.8406227634233894 L23.6,-1.7232146158725836 L23.7,-1.604718049036049 L23.8,-1.4852079078851752 L23.9,-1.36475967758663 L24.0,-1.2434494358242767 L24.1,-1.1213538047469078 L24.2,-0.9985499025720359 L24.3,-0.8751152948763801 L24.4,-0.7511279456037884 L24.5,-0.6266661678215233 L24.6,-0.5018085742560711 L24.7,-0.3766340276396636 L24.8,-0.2512215908988511 L24.9,-0.12565047721668968 L25.0,-1.2246467991473533e-15 L25.1,0.12565047721668723 L25.2,0.2512215908988442 L25.3,0.3766340276396656 L25.4,0.5018085742560731 L25.5,0.6266661678215208 L25.6,0.751127945603786 L25.7,0.8751152948763775 L25.8,0.9985499025720335 L25.9,1.121353804746901 L26.0,1.2434494358242745 L26.1,1.3647596775866278 L26.2,1.485207907885173 L26.3,1.6047180490360469 L26.4,1.7232146158725856 L26.5,1.840622763423391 L26.6,1.9568683341860102 L26.7,2.0718779049664158 L26.8,2.185578833254665 L26.9,2.297899303107436 L27.0,2.4087683705085743 L27.1,2.5181160081788034 L27.2,2.6258731498064787 L27.3,2.731971733671346 L27.4,2.836344745633777 L27.5,2.9389262614623646 L27.6,3.039651488473027 L27.7,3.1384568064534997 L27.8,3.2352798078472196 L27.9,3.3300593371712575 L28.0,3.422735529643443 L28.1,3.5132498489942465 L28.2,3.601545124439536 L28.3,3.687565586790871 L28.4,3.7712569036805155 L28.5,3.8525662138789434 L28.6,3.931442160683096 L28.7,4.007834924354381 L28.8,4.081696253585919 L28.9,4.152979495979063 L29.0,4.221639627510076 L29.1,4.2876332809682625 L29.2,4.350918773347626 L29.3,4.4114561321747665 L29.4,4.469207120756317 L29.5,4.5241352623300966 L29.6,4.576205863104587 L29.7,4.6253860341722906 L29.8,4.671644712283061 L29.9,4.71495267946432 L30.0,4.755282581475766 L30.1,4.792608945086881 L30.2,4.826908194166368 L30.3,4.858158664573368 L30.4,4.8863406178409665 L30.5,4.911436253643443 L30.6,4.9334297210393405 L30.7,4.952307128483256 L30.8,4.968056552600043 L30.9,4.980668045715862 L31.0,4.990133642141358 L31.1,4.996447363202946 L31.2,4.99960522101908 L31.3,4.99960522101908 L31.4,4.996447363202947 L31.5,4.990133642141358 L31.6,4.980668045715862 L31.7,4.968056552600043 L31.8,4.952307128483256 L31.9,4.9334297210393405 L32.0,4.911436253643443 L32.1,4.8863406178409665 L32.2,4.858158664573368 L32.3,4.8269081941663705 L32.4,4.79260894508688 L32.5,4.755282581475768 L32.6,4.714952679464322 L32.7,4.67164471228306 L32.8,4.625386034172293 L32.9,4.576205863104587 L33.0,4.5241352623300966 L33.1,4.469207120756317 L33.2,4.411456132174768 L33.3,4.350918773347629 L33.4,4.287633280968262 L33.5,4.221639627510076 L33.6,4.1529794959790625 L33.7,4.0816962535859185 L33.8,4.007834924354386 L33.9,3.9314421606830976 L34.0,3.852566213878943 L34.1,3.7712569036805204 L34.2,3.6875655867908703 L34.3,3.6015451244395407 L34.4,3.5132498489942456 L34.5,3.422735529643442 L34.6,3.330059337171256 L34.7,3.2352798078472182 L34.8,3.1384568064535054 L34.9,3.0396514884730292 L35.0,2.938926261462367 L35.1,2.836344745633783 L35.2,2.731971733671345 L35.3,2.625873149806485 L35.4,2.5181160081788097 L35.5,2.4087683705085734 L35.6,2.2978993031074353 L35.7,2.1855788332546595 L35.8,2.0718779049664224 L35.9,1.956868334186013 L36.0,1.8406227634233898 L36.1,1.723214615872584 L36.2,1.6047180490360455 L36.3,1.4852079078851799 L36.4,1.3647596775866306 L36.5,1.2434494358242774 L36.6,1.1213538047468998 L36.7,0.9985499025720278 L36.8,0.8751152948763894 L36.9,0.7511279456037846 L37.0,0.6266661678215195 L37.1,0.5018085742560716 L37.2,0.3766340276396598 L37.3,0.25122159089885177 L37.4,0.1256504772166903 L37.5,1.8369701987210296e-15 L37.6,-0.12565047721668662 L37.7,-0.25122159089884805 L37.8,-0.37663402763965614 L37.9,-0.5018085742560681 L38.0,-0.6266661678215159 L38.1,-0.7511279456037898 L38.2,-0.8751152948763857 L38.3,-0.9985499025720241 L38.4,-1.1213538047469047 L38.5,-1.2434494358242738 L38.6,-1.364759677586627 L38.7,-1.4852079078851765 L38.8,-1.604718049036042 L38.9,-1.723214615872581 L39.0,-1.8406227634233863 L39.1,-1.9568683341860096 L39.2,-2.0718779049664273 L39.3,-2.185578833254656 L39.4,-2.2978993031074317 L39.5,-2.408768370508578 L39.6,-2.518116008178807 L39.7,-2.625873149806482 L39.8,-2.731971733671342 L39.9,-2.83634474563378 L40.0,-2.938926261462364 L40.1,-3.0396514884730266 L40.2,-3.1384568064535023 L40.3,-3.2352798078472156 L40.4,-3.3300593371712535 L40.5,-3.422735529643439 L40.6,-3.513249848994249 L40.7,-3.601545124439538 L40.8,-3.687565586790862 L40.9,-3.771256903680518 L41.0,-3.8525662138789403 L41.1,-3.931442160683095 L41.2,-4.007834924354389 L41.3,-4.081696253585917 L41.4,-4.152979495979061 L41.5,-4.221639627510078 L41.6,-4.28763328096826 L41.7,-4.350918773347631 L41.8,-4.411456132174766 L41.9,-4.469207120756315 L42.0,-4.524135262330098 L42.1,-4.576205863104585 L42.2,-4.625386034172292 L42.3,-4.671644712283058 L42.4,-4.714952679464318 L42.5,-4.755282581475767 L42.6,-4.792608945086882 L42.7,-4.82690819416637 L42.8,-4.858158664573367 L42.9,-4.886340617840968 L43.0,-4.911436253643442 L43.1,-4.933429721039341 L43.2,-4.952307128483255 L43.3,-4.968056552600041 L43.4,-4.980668045715862 L43.5,-4.990133642141357 L43.6,-4.996447363202946 L43.7,-4.99960522101908 L43.8,-4.99960522101908 L43.9,-4.996447363202947 L44.0,-4.990133642141358 L44.1,-4.980668045715863 L44.2,-4.968056552600041 L44.3,-4.952307128483257 L44.4,-4.933429721039342 L44.5,-4.911436253643443 L44.6,-4.886340617840968 L44.7,-4.858158664573368 L44.8,-4.8269081941663705 L44.9,-4.79260894508688 L45.0,-4.755282581475769 L45.1,-4.714952679464326 L45.2,-4.67164471228306 L45.3,-4.625386034172293 L45.4,-4.57620586310459 L45.5,-4.5241352623301 L45.6,-4.469207120756317 L45.7,-4.411456132174768 L45.8,-4.3509187733476296 L45.9,-4.2876332809682625 L46.0,-4.22163962751008 L46.1,-4.1529794959790625 L46.2,-4.081696253585924 L46.3,-4.007834924354387 L46.4,-3.9314421606830976 L46.5,-3.852566213878949 L46.6,-3.771256903680521 L46.7,-3.6875655867908645 L46.8,-3.601545124439541 L46.9,-3.513249848994252 L47.0,-3.4227355296434423 L47.1,-3.330059337171263 L47.2,-3.2352798078472187 L47.3,-3.1384568064535054 L47.4,-3.0396514884730297 L47.5,-2.9389262614623672 L47.6,-2.8363447456337836 L47.7,-2.7319717336713456 L47.8,-2.6258731498064853 L47.9,-2.51811600817881 L48.0,-2.4087683705085814 L48.1,-2.2978993031074357 L48.2,-2.185578833254668 L48.3,-2.0718779049664233 L48.4,-1.9568683341860136 L48.5,-1.8406227634233905 L48.6,-1.7232146158725847 L48.7,-1.6047180490360544 L48.8,-1.4852079078851808 L48.9,-1.364759677586631 L49.0,-1.243449435824278 L49.1,-1.121353804746909 L49.2,-0.9985499025720285 L49.3,-0.8751152948763901 L49.4,-0.7511279456037852 L49.5,-0.6266661678215201 L49.6,-0.5018085742560812 L49.7,-0.37663402763966036 L49.8,-0.2512215908988524 L49.9,-0.1256504772166909 L50.0,-2.4492935982947065e-15 L50.1,0.125650477216686 L50.2,0.2512215908988475 L50.3,0.37663402763966436 L50.4,0.5018085742560674 L50.5,0.6266661678215152 L50.6,0.7511279456037891 L50.7,0.8751152948763764 L50.8,0.9985499025720324 L50.9,1.1213538047469043 L51.0,1.2434494358242734 L51.1,1.3647596775866264 L51.2,1.4852079078851759 L51.3,1.6047180490360413 L51.4,1.7232146158725803 L51.5,1.8406227634233856 L51.6,1.9568683341860091 L51.7,2.071877904966427 L51.8,2.1855788332546555 L51.9,2.2978993031074393 L52.0,2.408768370508577 L52.1,2.518116008178806 L52.2,2.6258731498064813 L52.3,2.731971733671334 L52.4,2.836344745633779 L52.5,2.9389262614623632 L52.6,3.0396514884730257 L52.7,3.138456806453502 L52.8,3.2352798078472222 L52.9,3.330059337171253 L53.0,3.4227355296434454 L53.1,3.513249848994242 L53.2,3.601545124439532 L53.3,3.6875655867908677 L53.4,3.771256903680512 L53.5,3.8525662138789456 L53.6,3.9314421606830945 L53.7,4.007834924354384 L53.8,4.081696253585916 L53.9,4.152979495979065 L54.0,4.221639627510073 L54.1,4.28763328096826 L54.2,4.350918773347628 L54.3,4.411456132174761 L54.4,4.469207120756319 L54.5,4.524135262330094 L54.6,4.5762058631045885 L54.7,4.625386034172291 L54.8,4.671644712283055 L54.9,4.714952679464321 L55.0,4.755282581475767 L55.1,4.792608945086879 L55.2,4.82690819416637 L55.3,4.85815866457337 L55.4,4.886340617840966 L55.5,4.911436253643444 L55.6,4.93342972103934 L55.7,4.952307128483256 L55.8,4.968056552600041 L55.9,4.980668045715861 L56.0,4.990133642141358 L56.1,4.996447363202946 L56.2,4.99960522101908 L56.3,4.99960522101908 L56.4,4.996447363202946 L56.5,4.990133642141358 L56.6,4.980668045715862 L56.7,4.968056552600043 L56.8,4.952307128483257 L56.9,4.9334297210393405 L57.0,4.911436253643445 L57.1,4.8863406178409665 L57.2,4.858158664573368 L57.3,4.826908194166373 L57.4,4.79260894508688 L57.5,4.755282581475766 L57.6,4.714952679464323 L57.7,4.671644712283061 L57.8,4.6253860341722906 L57.9,4.576205863104591 L58.0,4.5241352623300966 L58.1,4.469207120756321 L58.2,4.411456132174764 L58.3,4.35091877334763 L58.4,4.287633280968267 L58.5,4.221639627510076 L58.6,4.152979495979063 L58.7,4.081696253585919 L58.8,4.007834924354387 L58.9,3.9314421606830923 L59.0,3.852566213878949 L59.1,3.7712569036805155 L59.2,3.687565586790871 L59.3,3.601545124439542 L59.4,3.5132498489942465 L59.5,3.4227355296434494 L59.6,3.3300593371712566 L59.7,3.2352798078472196 L59.8,3.1384568064535134 L59.9,3.03965148847303 L60.0,2.9389262614623752 L60.1,2.8363447456337845 L60.2,2.731971733671339 L60.3,2.625873149806486 L60.4,2.5181160081788105 L60.5,2.4087683705085743 L60.6,2.297899303107444 L60.7,2.1855788332546604 L60.8,2.0718779049664238 L60.9,1.9568683341860225 L61.0,1.840622763423391 L61.1,1.7232146158725938 L61.2,1.6047180490360466 L61.3,1.4852079078851812 L61.4,1.364759677586632 L61.5,1.2434494358242785 L61.6,1.121353804746901 L61.7,0.9985499025720378 L61.8,0.8751152948763906 L61.9,0.7511279456037858 L62.0,0.6266661678215295 L62.1,0.5018085742560728 L62.2,0.37663402763966985 L62.3,0.25122159089885293 L62.4,0.1256504772166915 L62.5,1.1943401194869634e-14 L62.6,-0.1256504772166854 L62.7,-0.2512215908988557 L62.8,-0.37663402763965487 L62.9,-0.5018085742560667 L63.0,-0.6266661678215235 L63.1,-0.7511279456037798 L63.2,-0.8751152948763845 L63.3,-0.9985499025720317 L63.4,-1.121353804746895 L63.5,-1.2434494358242727 L63.6,-1.3647596775866175 L63.7,-1.4852079078851668 L63.8,-1.604718049036049 L63.9,-1.7232146158725796 L64.0,-1.8406227634233936 L64.1,-1.9568683341860085 L64.2,-2.0718779049664264 L64.3,-2.185578833254663 L64.4,-2.2978993031074464 L64.5,-2.4087683705085765 L64.6,-2.518116008178798 L64.7,-2.625873149806481 L64.8,-2.731971733671341 L64.9,-2.8363447456337862 L65.0,-2.938926261462363 L65.1,-3.039651488473018 L65.2,-3.138456806453502 L65.3,-3.235279807847215 L65.4,-3.330059337171259 L65.5,-3.4227355296434387 L65.6,-3.5132498489942354 L65.7,-3.6015451244395313 L65.8,-3.687565586790873 L65.9,-3.7712569036805177 L66.0,-3.8525662138789505 L66.1,-3.931442160683094 L66.2,-4.0078349243543885 L66.3,-4.081696253585921 L66.4,-4.15297949597906 L66.5,-4.221639627510077 L66.6,-4.28763328096826 L66.7,-4.350918773347631 L66.8,-4.411456132174766 L66.9,-4.469207120756323 L67.0,-4.524135262330098 L67.1,-4.576205863104585 L67.2,-4.625386034172291 L67.3,-4.671644712283058 L67.4,-4.714952679464323 L67.5,-4.755282581475767 L67.6,-4.792608945086877 L67.7,-4.826908194166369 L67.8,-4.858158664573367 L67.9,-4.886340617840967 L68.0,-4.911436253643445 L68.1,-4.933429721039338 L68.2,-4.952307128483255 L68.3,-4.968056552600041 L68.4,-4.980668045715862 L68.5,-4.990133642141358 L68.6,-4.996447363202946 L68.7,-4.99960522101908 L68.8,-4.99960522101908 L68.9,-4.996447363202946 L69.0,-4.990133642141358 L69.1,-4.980668045715863 L69.2,-4.968056552600041 L69.3,-4.952307128483256 L69.4,-4.933429721039339 L69.5,-4.911436253643443 L69.6,-4.886340617840969 L69.7,-4.858158664573369 L69.8,-4.826908194166371 L69.9,-4.792608945086878 L70.0,-4.755282581475769 L70.1,-4.714952679464326 L70.2,-4.671644712283061 L70.3,-4.625386034172293 L70.4,-4.576205863104588 L70.5,-4.524135262330101 L70.6,-4.469207120756326 L70.7,-4.41145613217476 L70.8,-4.350918773347635 L70.9,-4.2876332809682625 L71.0,-4.221639627510071 L71.1,-4.152979495979073 L71.2,-4.081696253585915 L71.3,-4.007834924354382 L71.4,-3.9314421606830874 L71.5,-3.8525662138789443 L71.6,-3.771256903680522 L71.7,-3.687565586790866 L71.8,-3.601545124439536 L71.9,-3.5132498489942403 L72.0,-3.4227355296434436 L72.1,-3.3300593371712637 L72.2,-3.23527980784722 L72.3,-3.1384568064535068 L72.4,-3.0396514884730235 L72.5,-2.9389262614623686 L72.6,-2.836344745633792 L72.7,-2.7319717336713465 L72.8,-2.6258731498064862 L72.9,-2.5181160081788034 L73.0,-2.4087683705085827 L73.1,-2.2978993031074526 L73.2,-2.185578833254653 L73.3,-2.071877904966432 L73.4,-1.9568683341859985 L73.5,-1.8406227634233832 L73.6,-1.7232146158726027 L73.7,-1.6047180490360389 L73.8,-1.4852079078851732 L73.9,-1.3647596775866153 L74.0,-1.2434494358242705 L74.1,-1.12135380474691 L74.2,-0.9985499025720296 L74.3,-0.8751152948763824 L74.4,-0.7511279456037777 L74.5,-0.6266661678215213 L74.6,-0.5018085742560823 L74.7,-0.3766340276396616 L74.8,-0.2512215908988536 L74.9,-0.12565047721668327 L75.0,-3.673940397442059e-15 L75.1,0.12565047721667588 L75.2,0.2512215908988462 L75.3,0.37663402763965426 L75.4,0.5018085742560751 L75.5,0.6266661678215141 L75.6,0.7511279456037703 L75.7,0.8751152948763927 L75.8,0.9985499025720224 L75.9,1.1213538047469203 L76.0,1.2434494358242634 L76.1,1.3647596775866084 L76.2,1.4852079078851832 L76.3,1.6047180490360318 L76.4,1.7232146158725958 L76.5,1.840622763423393 L76.6,1.9568683341859916 L76.7,2.0718779049664255 L76.8,2.1855788332546626 L76.9,2.297899303107446 L77.0,2.408768370508576 L77.1,2.518116008178797 L77.2,2.6258731498064805 L77.3,2.7319717336713407 L77.4,2.836344745633786 L77.5,2.9389262614623624 L77.6,3.0396514884730177 L77.7,3.138456806453501 L77.8,3.2352798078472143 L77.9,3.3300593371712583 L78.0,3.422735529643438 L78.1,3.5132498489942354 L78.2,3.601545124439531 L78.3,3.6875655867908606 L78.4,3.771256903680529 L78.5,3.852566213878939 L78.6,3.931442160683083 L78.7,4.0078349243543885 L78.8,4.0816962535859105 L78.9,4.15297949597907 L79.0,4.221639627510077 L79.1,4.28763328096825 L79.2,4.350918773347631 L79.3,4.411456132174766 L79.4,4.469207120756322 L79.5,4.524135262330097 L79.6,4.576205863104584 L79.7,4.6253860341722906 L79.8,4.671644712283058 L79.9,4.714952679464323 L80.0,4.755282581475766 L80.1,4.792608945086876 L80.2,4.826908194166369 L80.3,4.858158664573367 L80.4,4.886340617840967 L80.5,4.911436253643442 L80.6,4.933429721039338 L80.7,4.952307128483255 L80.8,4.96805655260004 L80.9,4.980668045715864 L81.0,4.990133642141357 L81.1,4.996447363202946 L81.2,4.99960522101908 L81.3,4.99960522101908 L81.4,4.996447363202946 L81.5,4.990133642141359 L81.6,4.9806680457158645 L81.7,4.968056552600041 L81.8,4.952307128483256 L81.9,4.933429721039342 L82.0,4.911436253643447 L82.1,4.886340617840973 L82.2,4.858158664573369 L82.3,4.826908194166371 L82.4,4.792608945086873 L82.5,4.755282581475775 L82.6,4.714952679464327 L82.7,4.6716447122830616 L82.8,4.625386034172294 L82.9,4.5762058631045806 L83.0,4.524135262330093 L83.1,4.469207120756326 L83.2,4.411456132174769 L83.3,4.350918773347635 L83.4,4.287633280968254 L83.5,4.221639627510072 L83.6,4.152979495979064 L83.7,4.081696253585926 L83.8,4.007834924354393 L83.9,3.931442160683088 L84.0,3.8525662138789443 L84.1,3.771256903680522 L84.2,3.687565586790878 L84.3,3.6015451244395487 L84.4,3.513249848994241 L84.5,3.4227355296434436 L84.6,3.3300593371712646 L84.7,3.235279807847234 L84.8,3.1384568064535214 L84.9,3.039651488473024 L85.0,2.938926261462369 L85.1,2.8363447456337925 L85.2,2.7319717336713323 L85.3,2.6258731498064867 L85.4,2.518116008178804 L85.5,2.408768370508583 L85.6,2.297899303107453 L85.7,2.1855788332546537 L85.8,2.0718779049664167 L85.9,1.9568683341860151 L86.0,1.8406227634234005 L86.1,1.7232146158726034 L86.2,1.6047180490360393 L86.3,1.4852079078851737 L86.4,1.364759677586633 L86.5,1.2434494358242885 L86.6,1.121353804746928 L86.7,0.9985499025720301 L86.8,0.8751152948763831 L86.9,0.7511279456037958 L87.0,0.6266661678215396 L87.1,0.5018085742560829 L87.2,0.37663402763966225 L87.3,0.2512215908988542 L87.4,0.12565047721666608 L87.5,2.204983219101824e-14 L87.6,-0.1256504772166753 L87.7,-0.25122159089884566 L87.8,-0.3766340276396537 L87.9,-0.501808574256092 L88.0,-0.6266661678215134 L88.1,-0.7511279456037698 L88.2,-0.8751152948763746 L88.3,-0.9985499025720218 L88.4,-1.1213538047469198 L88.5,-1.24344943582428 L88.6,-1.3647596775866078 L88.7,-1.4852079078851657 L88.8,-1.6047180490360313 L88.9,-1.7232146158725952 L89.0,-1.8406227634233923 L89.1,-1.9568683341860074 L89.2,-2.071877904966409 L89.3,-2.1855788332546457 L89.4,-2.2978993031074455 L89.5,-2.4087683705085756 L89.6,-2.5181160081787968 L89.7,-2.6258731498064645 L89.8,-2.7319717336713403 L89.9,-2.8363447456337854 L90.0,-2.9389262614623624 L90.1,-3.0396514884730177 L90.2,-3.138456806453487 L90.3,-3.235279807847214 L90.4,-3.330059337171258 L90.5,-3.4227355296434374 L90.6,-3.513249848994235 L90.7,-3.6015451244395424 L90.8,-3.68756558679086 L90.9,-3.7712569036805164 L91.0,-3.8525662138789385 L91.1,-3.9314421606830825 L91.2,-4.007834924354388 L91.3,-4.08169625358592 L91.4,-4.152979495979059 L91.5,-4.221639627510067 L91.6,-4.287633280968259 L91.7,-4.35091877334763 L91.8,-4.411456132174765 L91.9,-4.469207120756314 L92.0,-4.5241352623300894 L92.1,-4.576205863104584 L92.2,-4.6253860341722906 L92.3,-4.671644712283058 L92.4,-4.714952679464318 L92.5,-4.755282581475766 L92.6,-4.792608945086876 L92.7,-4.826908194166369 L92.8,-4.858158664573367 L92.9,-4.886340617840971 L93.0,-4.911436253643442 L93.1,-4.933429721039338 L93.2,-4.952307128483255 L93.3,-4.96805655260004 L93.4,-4.980668045715864 L93.5,-4.990133642141358 L93.6,-4.996447363202946 L93.7,-4.99960522101908 L93.8,-4.99960522101908 L93.9,-4.996447363202946 L94.0,-4.990133642141358 L94.1,-4.980668045715863 L94.2,-4.968056552600044 L94.3,-4.952307128483256 L94.4,-4.933429721039339 L94.5,-4.911436253643443 L94.6,-4.886340617840969 L94.7,-4.858158664573374 L94.8,-4.826908194166371 L94.9,-4.7926089450868785 L95.0,-4.755282581475769 L95.1,-4.714952679464327 L95.2,-4.6716447122830616 L95.3,-4.625386034172294 L95.4,-4.5762058631045885 L95.5,-4.524135262330101 L95.6,-4.469207120756326 L95.7,-4.411456132174761 L95.8,-4.350918773347635 L95.9,-4.287633280968263 L96.0,-4.221639627510082 L96.1,-4.152979495979064 L96.2,-4.081696253585915 L96.3,-4.007834924354393 L96.4,-3.931442160683099 L96.5,-3.8525662138789563 L96.6,-3.7712569036805226 L96.7,-3.6875655867908663 L96.8,-3.6015451244395367 L96.9,-3.5132498489942536 L97.0,-3.422735529643444 L97.1,-3.330059337171265 L97.2,-3.2352798078472214 L97.3,-3.138456806453508 L97.4,-3.0396514884730386 L97.5,-2.9389262614623695 L97.6,-2.8363447456337925 L97.7,-2.731971733671348 L97.8,-2.6258731498064876 L97.9,-2.5181160081788043 L98.0,-2.408768370508584 L98.1,-2.297899303107454 L98.2,-2.18557883325467 L98.3,-2.0718779049664335 L98.4,-1.9568683341859996 L98.5,-1.840622763423401 L98.6,-1.7232146158726038 L98.7,-1.6047180490360569 L98.8,-1.4852079078851743 L98.9,-1.3647596775866164 L99.0,-1.2434494358242718 L99.1,-1.1213538047469287 L99.2,-0.9985499025720481 L99.3,-0.8751152948763836 L99.4,-0.7511279456037788 L99.5,-0.6266661678215225 L99.6,-0.5018085742560836 L99.7,-0.37663402763966286 L99.8,-0.25122159089885476 L99.9,-0.12565047721668446 L100.0,-4.898587196589413e-15 L100.0,4.999999999999995 L99.9,4.874349522783316 L99.8,4.748778409101146 L99.7,4.623365972360337 L99.6,4.498191425743917 L99.5,4.373333832178478 L99.4,4.248872054396221 L99.3,4.124884705123616 L99.2,4.001450097427952 L99.1,3.8786461952530713 L99.0,3.756550564175728 L98.9,3.6352403224133836 L98.8,3.514792092114826 L98.7,3.395281950963943 L98.6,3.276785384127396 L98.5,3.1593772365765993 L98.4,3.043131665814 L98.3,2.9281220950335665 L98.2,2.81442116674533 L98.1,2.702100696892546 L98.0,2.591231629491416 L97.9,2.4818839918211957 L97.8,2.3741268501935124 L97.7,2.268028266328652 L97.6,2.1636552543662075 L97.5,2.0610737385376305 L97.4,1.9603485115269614 L97.3,1.861543193546492 L97.2,1.7647201921527786 L97.1,1.669940662828735 L97.0,1.577264470356556 L96.9,1.4867501510057464 L96.8,1.3984548755604633 L96.7,1.3124344132091337 L96.6,1.2287430963194774 L96.5,1.1474337861210437 L96.4,1.068557839316901 L96.3,0.9921650756456071 L96.2,0.9183037464140851 L96.1,0.8470205040209358 L96.0,0.7783603724899182 L95.9,0.7123667190317367 L95.8,0.6490812266523651 L95.7,0.5885438678252388 L95.6,0.5307928792436742 L95.5,0.475864737669899 L95.4,0.42379413689541146 L95.3,0.3746139658277059 L95.2,0.32835528771693845 L95.1,0.28504732053567317 L95.0,0.2447174185242309 L94.9,0.2073910549131215 L94.8,0.1730918058336286 L94.7,0.14184133542662636 L94.6,0.11365938215903082 L94.5,0.08856374635655673 L94.4,0.06657027896066126 L94.3,0.04769287151674373 L94.2,0.03194344739995625 L94.1,0.019331954284137254 L94.0,0.009866357858641983 L93.9,0.0035526367970541983 L93.8,0.00039477898091977437 L93.7,0.00039477898091977437 L93.6,0.0035526367970541983 L93.5,0.009866357858641983 L93.4,0.019331954284136366 L93.3,0.0319434473999598 L93.2,0.04769287151674462 L93.1,0.06657027896066214 L93.0,0.08856374635655762 L92.9,0.11365938215902904 L92.8,0.14184133542663258 L92.7,0.17309180583363126 L92.6,0.20739105491312415 L92.5,0.24471741852423357 L92.4,0.28504732053568205 L92.3,0.328355287716942 L92.2,0.37461396582770945 L92.1,0.4237941368954159 L92.0,0.47586473766991055 L91.9,0.5307928792436858 L91.8,0.5885438678252353 L91.7,0.6490812266523696 L91.6,0.7123667190317411 L91.5,0.7783603724899333 L91.4,0.8470205040209411 L91.3,0.9183037464140797 L91.2,0.9921650756456124 L91.1,1.0685578393169175 L91.0,1.1474337861210615 L90.9,1.2287430963194836 L90.8,1.31243441320914 L90.7,1.3984548755604576 L90.6,1.486750151005765 L90.5,1.5772644703565626 L90.4,1.669940662828742 L90.3,1.7647201921527862 L90.2,1.8615431935465132 L90.1,1.9603485115269823 L90.0,2.0610737385376376 L89.9,2.1636552543662146 L89.8,2.2680282663286597 L89.7,2.3741268501935355 L89.6,2.4818839918212032 L89.5,2.5912316294914244 L89.4,2.7021006968925545 L89.3,2.8144211667453543 L89.2,2.928122095033591 L89.1,3.0431316658139926 L89.0,3.1593772365766077 L88.9,3.276785384127405 L88.8,3.3952819509639687 L88.7,3.5147920921148343 L88.6,3.6352403224133925 L88.5,3.75655056417572 L88.4,3.87864619525308 L88.3,4.001450097427978 L88.2,4.124884705123625 L88.1,4.24887205439623 L88.0,4.373333832178487 L87.9,4.498191425743908 L87.8,4.623365972360347 L87.7,4.7487784091011545 L87.6,4.874349522783325 L87.5,5.000000000000022 L87.4,5.1256504772166664 L87.3,5.251221590898854 L87.2,5.376634027639662 L87.1,5.501808574256083 L87.0,5.62666616782154 L86.9,5.751127945603796 L86.8,5.875115294876383 L86.7,5.99854990257203 L86.6,6.121353804746928 L86.5,6.243449435824289 L86.4,6.364759677586633 L86.3,6.485207907885174 L86.2,6.604718049036039 L86.1,6.723214615872603 L86.0,6.840622763423401 L85.9,6.956868334186015 L85.8,7.071877904966417 L85.7,7.185578833254654 L85.6,7.297899303107453 L85.5,7.408768370508583 L85.4,7.518116008178804 L85.3,7.625873149806487 L85.2,7.731971733671332 L85.1,7.8363447456337925 L85.0,7.938926261462369 L84.9,8.039651488473023 L84.8,8.138456806453522 L84.7,8.235279807847235 L84.6,8.330059337171264 L84.5,8.422735529643443 L84.4,8.513249848994242 L84.3,8.601545124439548 L84.2,8.687565586790878 L84.1,8.771256903680522 L84.0,8.852566213878944 L83.9,8.931442160683087 L83.8,9.007834924354393 L83.7,9.081696253585925 L83.6,9.152979495979064 L83.5,9.221639627510072 L83.4,9.287633280968254 L83.3,9.350918773347635 L83.2,9.41145613217477 L83.1,9.469207120756327 L83.0,9.524135262330093 L82.9,9.57620586310458 L82.8,9.625386034172294 L82.7,9.671644712283062 L82.6,9.714952679464327 L82.5,9.755282581475775 L82.4,9.792608945086872 L82.3,9.826908194166371 L82.2,9.85815866457337 L82.1,9.886340617840972 L82.0,9.911436253643448 L81.9,9.933429721039342 L81.8,9.952307128483255 L81.7,9.968056552600041 L81.6,9.980668045715865 L81.5,9.990133642141359 L81.4,9.996447363202947 L81.3,9.999605221019081 L81.2,9.999605221019081 L81.1,9.996447363202947 L81.0,9.990133642141357 L80.9,9.980668045715863 L80.8,9.96805655260004 L80.7,9.952307128483255 L80.6,9.933429721039339 L80.5,9.911436253643442 L80.4,9.886340617840968 L80.3,9.858158664573367 L80.2,9.826908194166368 L80.1,9.792608945086876 L80.0,9.755282581475766 L79.9,9.714952679464323 L79.8,9.671644712283058 L79.7,9.62538603417229 L79.6,9.576205863104583 L79.5,9.524135262330098 L79.4,9.469207120756323 L79.3,9.411456132174767 L79.2,9.350918773347631 L79.1,9.287633280968251 L79.0,9.221639627510077 L78.9,9.15297949597907 L78.8,9.08169625358591 L78.7,9.007834924354388 L78.6,8.931442160683083 L78.5,8.852566213878939 L78.4,8.771256903680529 L78.3,8.68756558679086 L78.2,8.60154512443953 L78.1,8.513249848994235 L78.0,8.422735529643438 L77.9,8.330059337171258 L77.8,8.235279807847213 L77.7,8.138456806453501 L77.6,8.039651488473018 L77.5,7.938926261462362 L77.4,7.836344745633786 L77.3,7.73197173367134 L77.2,7.6258731498064805 L77.1,7.518116008178797 L77.0,7.408768370508576 L76.9,7.297899303107446 L76.8,7.185578833254663 L76.7,7.071877904966426 L76.6,6.956868334185992 L76.5,6.840622763423393 L76.4,6.723214615872596 L76.3,6.604718049036032 L76.2,6.485207907885183 L76.1,6.364759677586608 L76.0,6.243449435824264 L75.9,6.121353804746921 L75.8,5.998549902572022 L75.7,5.875115294876393 L75.6,5.75112794560377 L75.5,5.626666167821514 L75.4,5.501808574256075 L75.3,5.376634027639654 L75.2,5.251221590898846 L75.1,5.125650477216676 L75.0,4.9999999999999964 L74.9,4.874349522783317 L74.8,4.7487784091011465 L74.7,4.623365972360339 L74.6,4.498191425743918 L74.5,4.373333832178479 L74.4,4.248872054396222 L74.3,4.124884705123618 L74.2,4.001450097427971 L74.1,3.87864619525309 L74.0,3.7565505641757295 L73.9,3.6352403224133845 L73.8,3.514792092114827 L73.7,3.395281950963961 L73.6,3.2767853841273973 L73.5,3.159377236576617 L73.4,3.0431316658140015 L73.3,2.928122095033568 L73.2,2.814421166745347 L73.1,2.7021006968925474 L73.0,2.5912316294914173 L72.9,2.4818839918211966 L72.8,2.3741268501935138 L72.7,2.2680282663286535 L72.6,2.163655254366208 L72.5,2.0610737385376314 L72.4,1.9603485115269765 L72.3,1.8615431935464932 L72.2,1.76472019215278 L72.1,1.6699406628287363 L72.0,1.5772644703565564 L71.9,1.4867501510057597 L71.8,1.3984548755604642 L71.7,1.3124344132091341 L71.6,1.2287430963194779 L71.5,1.1474337861210557 L71.4,1.0685578393169126 L71.3,0.9921650756456177 L71.2,0.9183037464140851 L71.1,0.8470205040209269 L71.0,0.7783603724899288 L70.9,0.7123667190317375 L70.8,0.6490812266523651 L70.7,0.5885438678252397 L70.6,0.5307928792436742 L70.5,0.475864737669899 L70.4,0.42379413689541234 L70.3,0.3746139658277068 L70.2,0.32835528771693934 L70.1,0.28504732053567405 L70.0,0.2447174185242309 L69.9,0.20739105491312237 L69.8,0.1730918058336286 L69.7,0.1418413354266308 L69.6,0.11365938215903082 L69.5,0.08856374635655673 L69.4,0.06657027896066126 L69.3,0.04769287151674373 L69.2,0.03194344739995891 L69.1,0.019331954284137254 L69.0,0.009866357858641983 L68.9,0.0035526367970541983 L68.8,0.00039477898091977437 L68.7,0.00039477898091977437 L68.6,0.0035526367970541983 L68.5,0.009866357858641983 L68.4,0.019331954284138142 L68.3,0.03194344739995891 L68.2,0.04769287151674462 L68.1,0.06657027896066214 L68.0,0.08856374635655495 L67.9,0.1136593821590326 L67.8,0.14184133542663258 L67.7,0.17309180583363126 L67.6,0.20739105491312326 L67.5,0.24471741852423268 L67.4,0.2850473205356767 L67.3,0.328355287716942 L67.2,0.37461396582770856 L67.1,0.423794136895415 L67.0,0.47586473766990167 L66.9,0.5307928792436769 L66.8,0.5885438678252344 L66.7,0.6490812266523687 L66.6,0.7123667190317402 L66.5,0.7783603724899226 L66.4,0.8470205040209402 L66.3,0.9183037464140789 L66.2,0.9921650756456115 L66.1,1.068557839316906 L66.0,1.1474337861210495 L65.9,1.2287430963194823 L65.8,1.312434413209127 L65.7,1.3984548755604687 L65.6,1.4867501510057646 L65.5,1.5772644703565613 L65.4,1.6699406628287412 L65.3,1.7647201921527849 L65.2,1.861543193546498 L65.1,1.9603485115269819 L65.0,2.061073738537637 L64.9,2.1636552543662138 L64.8,2.268028266328659 L64.7,2.374126850193519 L64.6,2.481883991821202 L64.5,2.5912316294914235 L64.4,2.7021006968925536 L64.3,2.814421166745337 L64.2,2.9281220950335736 L64.1,3.0431316658139913 L64.0,3.1593772365766064 L63.9,3.2767853841274204 L63.8,3.395281950963951 L63.7,3.514792092114833 L63.6,3.6352403224133827 L63.5,3.7565505641757273 L63.4,3.878646195253105 L63.3,4.001450097427968 L63.2,4.124884705123615 L63.1,4.24887205439622 L63.0,4.373333832178476 L62.9,4.498191425743933 L62.8,4.623365972360345 L62.7,4.748778409101145 L62.6,4.874349522783315 L62.5,5.0000000000000115 L62.4,5.125650477216691 L62.3,5.251221590898853 L62.2,5.37663402763967 L62.1,5.5018085742560725 L62.0,5.626666167821529 L61.9,5.751127945603786 L61.8,5.875115294876391 L61.7,5.998549902572038 L61.6,6.121353804746901 L61.5,6.243449435824278 L61.4,6.3647596775866315 L61.3,6.485207907885181 L61.2,6.604718049036046 L61.1,6.723214615872594 L61.0,6.840622763423391 L60.9,6.956868334186023 L60.8,7.071877904966424 L60.7,7.18557883325466 L60.6,7.297899303107444 L60.5,7.408768370508574 L60.4,7.5181160081788105 L60.3,7.625873149806486 L60.2,7.7319717336713385 L60.1,7.8363447456337845 L60.0,7.938926261462376 L59.9,8.03965148847303 L59.8,8.138456806453513 L59.7,8.23527980784722 L59.6,8.330059337171257 L59.5,8.42273552964345 L59.4,8.513249848994246 L59.3,8.601545124439543 L59.2,8.687565586790871 L59.1,8.771256903680516 L59.0,8.85256621387895 L58.9,8.931442160683092 L58.8,9.007834924354388 L58.7,9.08169625358592 L58.6,9.152979495979064 L58.5,9.221639627510076 L58.4,9.287633280968267 L58.3,9.35091877334763 L58.2,9.411456132174763 L58.1,9.469207120756321 L58.0,9.524135262330097 L57.9,9.57620586310459 L57.8,9.62538603417229 L57.7,9.671644712283062 L57.6,9.714952679464323 L57.5,9.755282581475766 L57.4,9.79260894508688 L57.3,9.826908194166373 L57.2,9.858158664573368 L57.1,9.886340617840967 L57.0,9.911436253643444 L56.9,9.93342972103934 L56.8,9.952307128483257 L56.7,9.968056552600043 L56.6,9.980668045715863 L56.5,9.990133642141359 L56.4,9.996447363202947 L56.3,9.999605221019081 L56.2,9.999605221019081 L56.1,9.996447363202947 L56.0,9.990133642141359 L55.9,9.980668045715861 L55.8,9.968056552600041 L55.7,9.952307128483255 L55.6,9.933429721039339 L55.5,9.911436253643444 L55.4,9.886340617840965 L55.3,9.85815866457337 L55.2,9.82690819416637 L55.1,9.79260894508688 L55.0,9.755282581475768 L54.9,9.714952679464322 L54.8,9.671644712283054 L54.7,9.62538603417229 L54.6,9.576205863104589 L54.5,9.524135262330095 L54.4,9.46920712075632 L54.3,9.411456132174761 L54.2,9.350918773347628 L54.1,9.28763328096826 L54.0,9.221639627510072 L53.9,9.152979495979064 L53.8,9.081696253585916 L53.7,9.007834924354384 L53.6,8.931442160683094 L53.5,8.852566213878946 L53.4,8.771256903680513 L53.3,8.687565586790868 L53.2,8.601545124439532 L53.1,8.513249848994242 L53.0,8.422735529643445 L52.9,8.330059337171253 L52.8,8.235279807847222 L52.7,8.138456806453501 L52.6,8.039651488473027 L52.5,7.938926261462363 L52.4,7.836344745633779 L52.3,7.731971733671334 L52.2,7.625873149806481 L52.1,7.518116008178806 L52.0,7.408768370508577 L51.9,7.297899303107439 L51.8,7.185578833254656 L51.7,7.071877904966427 L51.6,6.956868334186009 L51.5,6.840622763423386 L51.4,6.72321461587258 L51.3,6.604718049036041 L51.2,6.485207907885176 L51.1,6.364759677586626 L51.0,6.243449435824274 L50.9,6.121353804746905 L50.8,5.998549902572032 L50.7,5.875115294876377 L50.6,5.751127945603789 L50.5,5.626666167821515 L50.4,5.501808574256067 L50.3,5.376634027639664 L50.2,5.251221590898847 L50.1,5.125650477216686 L50.0,4.999999999999997 L49.9,4.874349522783309 L49.8,4.748778409101147 L49.7,4.6233659723603395 L49.6,4.498191425743919 L49.5,4.37333383217848 L49.4,4.248872054396215 L49.3,4.12488470512361 L49.2,4.001450097427972 L49.1,3.878646195253091 L49.0,3.756550564175722 L48.9,3.635240322413369 L48.8,3.5147920921148192 L48.7,3.3952819509639456 L48.6,3.2767853841274155 L48.5,3.1593772365766095 L48.4,3.0431316658139864 L48.3,2.9281220950335767 L48.2,2.814421166745332 L48.1,2.7021006968925643 L48.0,2.5912316294914186 L47.9,2.48188399182119 L47.8,2.3741268501935147 L47.7,2.2680282663286544 L47.6,2.1636552543662164 L47.5,2.0610737385376328 L47.4,1.9603485115269703 L47.3,1.8615431935464946 L47.2,1.7647201921527813 L47.1,1.6699406628287372 L47.0,1.5772644703565577 L46.9,1.4867501510057481 L46.8,1.3984548755604589 L46.7,1.3124344132091355 L46.6,1.2287430963194792 L46.5,1.1474337861210508 L46.4,1.0685578393169024 L46.3,0.9921650756456133 L46.2,0.9183037464140762 L46.1,0.8470205040209375 L46.0,0.77836037248992 L45.9,0.7123667190317375 L45.8,0.6490812266523704 L45.7,0.5885438678252317 L45.6,0.5307928792436831 L45.5,0.4758647376698999 L45.4,0.4237941368954097 L45.3,0.3746139658277068 L45.2,0.3283552877169402 L45.1,0.28504732053567405 L45.0,0.2447174185242309 L44.9,0.2073910549131197 L44.8,0.1730918058336295 L44.7,0.1418413354266317 L44.6,0.11365938215903171 L44.5,0.08856374635655673 L44.4,0.0665702789606577 L44.3,0.04769287151674284 L44.2,0.03194344739995891 L44.1,0.019331954284137254 L44.0,0.009866357858641983 L43.9,0.00355263679705331 L43.8,0.00039477898091977437 L43.7,0.00039477898091977437 L43.6,0.0035526367970541983 L43.5,0.009866357858642871 L43.4,0.019331954284138142 L43.3,0.03194344739995891 L43.2,0.04769287151674462 L43.1,0.06657027896065859 L43.0,0.08856374635655762 L42.9,0.11365938215903171 L42.8,0.14184133542663258 L42.7,0.17309180583363037 L42.6,0.20739105491311793 L42.5,0.24471741852423268 L42.4,0.28504732053568205 L42.3,0.328355287716942 L42.2,0.3746139658277077 L42.1,0.423794136895415 L42.0,0.47586473766990167 L41.9,0.5307928792436849 L41.8,0.5885438678252344 L41.7,0.6490812266523687 L41.6,0.7123667190317402 L41.5,0.7783603724899217 L41.4,0.8470205040209393 L41.3,0.9183037464140833 L41.2,0.9921650756456106 L41.1,1.068557839316905 L41.0,1.1474337861210597 L40.9,1.2287430963194819 L40.8,1.3124344132091381 L40.7,1.398454875560462 L40.6,1.4867501510057508 L40.5,1.5772644703565608 L40.4,1.6699406628287465 L40.3,1.7647201921527844 L40.2,1.8615431935464977 L40.1,1.9603485115269734 L40.0,2.061073738537636 L39.9,2.16365525436622 L39.8,2.268028266328658 L39.7,2.374126850193518 L39.6,2.481883991821193 L39.5,2.591231629491422 L39.4,2.7021006968925683 L39.3,2.814421166745344 L39.2,2.9281220950335727 L39.1,3.0431316658139904 L39.0,3.1593772365766135 L38.9,3.276785384127419 L38.8,3.395281950963958 L38.7,3.5147920921148232 L38.6,3.635240322413373 L38.5,3.7565505641757264 L38.4,3.8786461952530953 L38.3,4.001450097427976 L38.2,4.124884705123614 L38.1,4.248872054396211 L38.0,4.373333832178484 L37.9,4.498191425743932 L37.8,4.623365972360344 L37.7,4.748778409101152 L37.6,4.874349522783313 L37.5,5.000000000000002 L37.4,5.12565047721669 L37.3,5.251221590898852 L37.2,5.37663402763966 L37.1,5.501808574256072 L37.0,5.6266661678215195 L36.9,5.751127945603785 L36.8,5.875115294876389 L36.7,5.9985499025720275 L36.6,6.121353804746899 L36.5,6.243449435824277 L36.4,6.364759677586631 L36.3,6.485207907885179 L36.2,6.6047180490360455 L36.1,6.723214615872584 L36.0,6.84062276342339 L35.9,6.956868334186013 L35.8,7.071877904966422 L35.7,7.1855788332546595 L35.6,7.297899303107435 L35.5,7.408768370508573 L35.4,7.51811600817881 L35.3,7.625873149806485 L35.2,7.731971733671346 L35.1,7.836344745633783 L35.0,7.938926261462367 L34.9,8.03965148847303 L34.8,8.138456806453505 L34.7,8.235279807847219 L34.6,8.330059337171257 L34.5,8.422735529643441 L34.4,8.513249848994246 L34.3,8.601545124439541 L34.2,8.687565586790871 L34.1,8.77125690368052 L34.0,8.852566213878942 L33.9,8.931442160683098 L33.8,9.007834924354386 L33.7,9.081696253585918 L33.6,9.152979495979062 L33.5,9.221639627510076 L33.4,9.287633280968262 L33.3,9.35091877334763 L33.2,9.411456132174768 L33.1,9.469207120756316 L33.0,9.524135262330097 L32.9,9.576205863104587 L32.8,9.625386034172294 L32.7,9.67164471228306 L32.6,9.714952679464322 L32.5,9.755282581475768 L32.4,9.79260894508688 L32.3,9.826908194166371 L32.2,9.858158664573368 L32.1,9.886340617840967 L32.0,9.911436253643444 L31.9,9.93342972103934 L31.8,9.952307128483255 L31.7,9.968056552600043 L31.6,9.980668045715863 L31.5,9.990133642141359 L31.4,9.996447363202947 L31.3,9.999605221019081 L31.2,9.999605221019081 L31.1,9.996447363202947 L31.0,9.990133642141359 L30.9,9.980668045715863 L30.8,9.968056552600043 L30.7,9.952307128483255 L30.6,9.93342972103934 L30.5,9.911436253643444 L30.4,9.886340617840967 L30.3,9.858158664573368 L30.2,9.826908194166368 L30.1,9.792608945086881 L30.0,9.755282581475766 L29.9,9.71495267946432 L29.8,9.671644712283062 L29.7,9.62538603417229 L29.6,9.576205863104587 L29.5,9.524135262330097 L29.4,9.469207120756316 L29.3,9.411456132174767 L29.2,9.350918773347626 L29.1,9.287633280968262 L29.0,9.221639627510076 L28.9,9.152979495979064 L28.8,9.08169625358592 L28.7,9.00783492435438 L28.6,8.931442160683096 L28.5,8.852566213878944 L28.4,8.771256903680516 L28.3,8.687565586790871 L28.2,8.601545124439536 L28.1,8.513249848994246 L28.0,8.422735529643443 L27.9,8.330059337171257 L27.8,8.23527980784722 L27.7,8.1384568064535 L27.6,8.039651488473027 L27.5,7.938926261462365 L27.4,7.836344745633777 L27.3,7.731971733671346 L27.2,7.625873149806479 L27.1,7.518116008178803 L27.0,7.408768370508574 L26.9,7.297899303107436 L26.8,7.185578833254665 L26.7,7.071877904966415 L26.6,6.9568683341860105 L26.5,6.840622763423391 L26.4,6.723214615872585 L26.3,6.604718049036046 L26.2,6.485207907885173 L26.1,6.364759677586628 L26.0,6.2434494358242745 L25.9,6.121353804746901 L25.8,5.998549902572034 L25.7,5.875115294876378 L25.6,5.751127945603786 L25.5,5.62666616782152 L25.4,5.501808574256073 L25.3,5.376634027639666 L25.2,5.251221590898844 L25.1,5.125650477216687 L25.0,4.999999999999999 L24.9,4.8743495227833105 L24.8,4.748778409101149 L24.7,4.623365972360336 L24.6,4.498191425743929 L24.5,4.373333832178477 L24.4,4.2488720543962115 L24.3,4.12488470512362 L24.2,4.0014500974279645 L24.1,3.878646195253092 L24.0,3.7565505641757233 L23.9,3.6352403224133703 L23.8,3.514792092114825 L23.7,3.395281950963951 L23.6,3.2767853841274164 L23.5,3.159377236576611 L23.4,3.0431316658139833 L23.3,2.928122095033578 L23.2,2.814421166745333 L23.1,2.7021006968925576 L23.0,2.5912316294914195 L22.9,2.481883991821195 L22.8,2.374126850193523 L22.7,2.2680282663286517 L22.6,2.1636552543662173 L22.5,2.061073738537633 L22.4,1.9603485115269716 L22.3,1.861543193546495 L22.2,1.764720192152775 L22.1,1.6699406628287443 L22.0,1.577264470356555 L21.9,1.4867501510057517 L21.8,1.398454875560466 L21.7,1.3124344132091297 L21.6,1.22874309631948 L21.5,1.1474337861210522 L21.4,1.0685578393169033 L21.3,0.9921650756456195 L21.2,0.9183037464140771 L21.1,0.8470205040209375 L21.0,0.7783603724899253 L20.9,0.7123667190317384 L20.8,0.6490812266523713 L20.7,0.5885438678252326 L20.6,0.5307928792436831 L20.5,0.4758647376699008 L20.4,0.4237941368954097 L20.3,0.37461396582771034 L20.2,0.32835528771693845 L20.1,0.2850473205356776 L20.0,0.2447174185242318 L19.9,0.2073910549131206 L19.8,0.17309180583363126 L19.7,0.1418413354266299 L19.6,0.11365938215903348 L19.5,0.08856374635655673 L19.4,0.06657027896065948 L19.3,0.04769287151674373 L19.2,0.031943447399958025 L19.1,0.019331954284138142 L19.0,0.009866357858641983 L18.9,0.00355263679705331 L18.8,0.00039477898091977437 L18.7,0.00039477898091977437 L18.6,0.00355263679705331 L18.5,0.009866357858641983 L18.4,0.019331954284138142 L18.3,0.03194344739995714 L18.2,0.04769287151674373 L18.1,0.06657027896065948 L18.0,0.08856374635655673 L17.9,0.11365938215903348 L17.8,0.1418413354266299 L17.7,0.17309180583363126 L17.6,0.2073910549131206 L17.5,0.24471741852423268 L17.4,0.2850473205356785 L17.3,0.32835528771693934 L17.2,0.37461396582770945 L17.1,0.42379413689541234 L17.0,0.4758647376699008 L16.9,0.5307928792436822 L16.8,0.5885438678252335 L16.7,0.6490812266523722 L16.6,0.7123667190317393 L16.5,0.7783603724899235 L16.4,0.8470205040209393 L16.3,0.9183037464140806 L16.2,0.9921650756456177 L16.1,1.0685578393169042 L16.0,1.147433786121053 L15.9,1.2287430963194823 L15.8,1.3124344132091297 L15.7,1.3984548755604669 L15.6,1.4867501510057544 L15.5,1.5772644703565581 L15.4,1.6699406628287412 L15.3,1.7647201921527782 L15.2,1.861543193546498 L15.1,1.9603485115269748 L15.0,2.0610737385376368 L14.9,2.1636552543662173 L14.8,2.268028266328655 L14.7,2.374126850193523 L14.6,2.4818839918211983 L14.5,2.591231629491423 L14.4,2.702100696892561 L14.3,2.8144211667453347 L14.2,2.928122095033582 L14.1,3.043131665813987 L14.0,3.1593772365766104 L13.9,3.276785384127416 L13.8,3.3952819509639527 L13.7,3.5147920921148286 L13.6,3.635240322413374 L13.5,3.7565505641757273 L13.4,3.878646195253094 L13.3,4.001450097427966 L13.2,4.12488470512362 L13.1,4.248872054396216 L13.0,4.373333832178479 L12.9,4.498191425743927 L12.8,4.623365972360336 L12.7,4.748778409101153 L12.6,4.874349522783314 L12.5,5.000000000000001 L12.4,5.125650477216689 L12.3,5.251221590898846 L12.2,5.376634027639665 L12.1,5.501808574256075 L12.0,5.626666167821522 L11.9,5.751127945603786 L11.8,5.875115294876379 L11.7,5.998549902572037 L11.6,6.121353804746907 L11.5,6.243449435824276 L11.4,6.364759677586625 L11.3,6.485207907885174 L11.2,6.604718049036048 L11.1,6.723214615872587 L11.0,6.840622763423391 L10.9,6.956868334186012 L10.8,7.0718779049664215 L10.7,7.185578833254667 L10.6,7.297899303107442 L10.5,7.408768370508576 L10.4,7.518116008178804 L10.3,7.625873149806477 L10.2,7.731971733671347 L10.1,7.836344745633784 L10.0,7.938926261462367 L9.9,8.039651488473027 L9.8,8.138456806453501 L9.7,8.235279807847222 L9.6,8.330059337171258 L9.5,8.422735529643443 L9.4,8.513249848994246 L9.3,8.601545124439534 L9.2,8.687565586790871 L9.1,8.77125690368052 L9.0,8.852566213878946 L8.9,8.931442160683094 L8.8,9.007834924354382 L8.7,9.081696253585921 L8.6,9.152979495979064 L8.5,9.221639627510076 L8.4,9.287633280968262 L8.3,9.35091877334763 L8.2,9.411456132174767 L8.1,9.46920712075632 L8.0,9.524135262330098 L7.9,9.576205863104587 L7.8,9.62538603417229 L7.7,9.67164471228306 L7.6,9.714952679464322 L7.5,9.755282581475768 L7.4,9.79260894508688 L7.3,9.82690819416637 L7.2,9.85815866457337 L7.1,9.886340617840968 L7.0,9.911436253643444 L6.9,9.93342972103934 L6.8,9.952307128483255 L6.7,9.968056552600043 L6.6,9.980668045715863 L6.5,9.990133642141359 L6.4,9.996447363202947 L6.3,9.999605221019081 L6.2,9.999605221019081 L6.1,9.996447363202947 L6.0,9.990133642141359 L5.9,9.980668045715863 L5.8,9.968056552600043 L5.7,9.952307128483255 L5.6,9.93342972103934 L5.5,9.911436253643444 L5.4,9.886340617840968 L5.3,9.85815866457337 L5.2,9.82690819416637 L5.1,9.79260894508688 L5.0,9.755282581475768 L4.9,9.714952679464322 L4.8,9.67164471228306 L4.7,9.62538603417229 L4.6,9.576205863104587 L4.5,9.524135262330098 L4.4,9.46920712075632 L4.3,9.411456132174767 L4.2,9.35091877334763 L4.1,9.287633280968262 L4.0,9.221639627510076 L3.9,9.152979495979062 L3.8,9.08169625358592 L3.7,9.007834924354382 L3.6,8.931442160683094 L3.5,8.852566213878946 L3.4,8.77125690368052 L3.3,8.68756558679087 L3.2,8.601545124439536 L3.1,8.513249848994246 L3.0,8.422735529643443 L2.9,8.330059337171258 L2.8,8.23527980784722 L2.7,8.138456806453503 L2.6,8.039651488473027 L2.5,7.938926261462366 L2.4,7.836344745633783 L2.3,7.731971733671346 L2.2,7.625873149806479 L2.1,7.518116008178804 L2.0,7.408768370508577 L1.9,7.297899303107439 L1.8,7.185578833254665 L1.7,7.071877904966421 L1.6,6.956868334186012 L1.5,6.84062276342339 L1.4,6.723214615872585 L1.3,6.604718049036047 L1.2,6.485207907885174 L1.1,6.364759677586626 L1.0,6.2434494358242745 L0.9,6.121353804746906 L0.8,5.9985499025720355 L0.7,5.87511529487638 L0.6,5.751127945603786 L0.5,5.626666167821521 L0.4,5.501808574256074 L0.3,5.376634027639664 L0.2,5.251221590898847 L0.1,5.125650477216688 L0.0,5.0" fill="#000000"  />
<!-- Footer -->
</svg>
