<!-- Header -->
<svg
    version="1.1"
    baseProfile="full"
    xmlns="http://www.w3.org/2000/svg"
    xmlns:xlink="http://www.w3.org/1999/xlink"
    xmlns:ev="http://www.w3.org/2001/xml-events"
    width="125.0"
    height="50.0"
    viewBox="-12.5 -17.5 125.0 50.0"
    preserveAspectRatio="none"
>
<!-- Body -->
<!-- Path -->
<path d="M0.0,0.0 L0.1,0.09424219857704087 L0.2,0.1884509133496727 L0.3,0.28259267241012265 L0.4,0.3766340276396636 L0.5,0.4705415665925716 L0.6,0.5642819243674084 L0.7,0.6578217954614125 L0.8,0.7511279456037854 L0.9,0.8441672235636694 L1.0,0.9369065729286231 L1.1,1.0293130438494067 L1.2,1.1213538047469058 L1.3,1.212996153977037 L1.4,1.3042075314494848 L1.5,1.394955530196146 L1.6,1.4852079078851745 L1.7,1.5749325982765239 L1.8,1.6640977226149332 L1.9,1.7526716009562948 L2.0,1.8406227634233898 L2.1,1.9279199613869826 L2.2,2.014532178568313 L2.3,2.100428642059031 L2.4,2.1855788332546644 L2.5,2.2699524986977337 L2.6,2.3535196608266626 L2.7,2.436250628626661 L2.8,2.518116008178804 L2.9,2.599086713103547 L3.0,2.6791339748949827 L3.1,2.758229353142151 L3.2,2.8363447456337827 L3.3,2.913452398342881 L3.4,2.989524915287594 L3.5,3.0645352682648825 L3.6,3.1384568064535023 L3.7,3.211263265882922 L3.8,3.282928778764782 L3.9,3.3534278826836 L4.0,3.4227355296434436 L4.1,3.490827094967363 L4.2,3.557678386046427 L4.3,3.623265650935233 L4.4,3.6875655867908694 L4.5,3.750555348152298 L4.6,3.812212555057238 L4.7,3.872515300993669 L4.8,3.9314421606830945 L4.9,3.9889721976928554 L5.0,4.045084971874737 L5.1,4.0997605466272615 L5.2,4.1529794959790625 L5.3,4.204722911490845 L5.4,4.254972408973459 L5.5,4.303710135019718 L5.6,4.350918773347629 L5.7,4.3965815509527815 L5.8,4.440682244067722 L5.9,4.483205183926179 L6.0,4.524135262330097 L6.1,4.563457937017514 L6.2,4.601159236829352 L6.3,4.637225766673306 L6.4,4.67164471228306 L6.5,4.704403844771128 L6.6,4.735491524973722 L6.7,4.764896707586094 L6.8,4.792608945086879 L6.9,4.818618391450048 L7.0,4.842915805643155 L7.1,4.865492554910633 L7.2,4.886340617840967 L7.3,4.90545258721667 L7.4,4.922821672646027 L7.5,4.938441702975688 L7.6,4.952307128483256 L7.7,4.964413022849069 L7.8,4.9747550849065005 L7.9,4.983329640170149 L8.0,4.990133642141358 L8.1,4.995164673390623 L8.2,4.9984209464165 L8.3,4.9999013042806855 L8.4,4.99960522101908 L8.5,4.997532801828658 L8.6,4.993684783030087 L8.7,4.9880625318061265 L8.8,4.980668045715863 L8.9,4.971503951984994 L9.0,4.960573506572389 L9.1,4.947880593013255 L9.2,4.9334297210393405 L9.3,4.917226024976648 L9.4,4.899275261921234 L9.5,4.879583809693737 L9.6,4.85815866457337 L9.7,4.835007438812175 L9.8,4.810138357930429 L9.9,4.783560257794152 L10.0,4.755282581475768 L10.1,4.725315375899025 L10.2,4.693669288269371 L10.3,4.660355562291054 L10.4,4.6253860341722906 L10.5,4.588773128419906 L10.6,4.55052985342498 L10.7,4.5106697968410145 L10.8,4.4692071207563195 L10.9,4.426156556662276 L11.0,4.381533400219318 L11.1,4.335353505822452 L11.2,4.287633280968261 L11.3,4.238389680425417 L11.4,4.187640200210708 L11.5,4.13540287137281 L11.6,4.08169625358592 L11.7,4.026539428555611 L11.8,3.9699519932391762 L11.9,3.9119540528829413 L12.0,3.8525662138789474 L12.1,3.791809576443609 L12.2,3.729705727120911 L12.3,3.6662767311127986 L12.4,3.6015451244395353 L12.5,3.5355339059327378 L12.6,3.468266529064026 L12.7,3.399766893612097 L12.8,3.3300593371712583 L12.9,3.259168626504395 L13.0,3.1871199487434474 L13.1,3.113938902440563 L13.2,3.0396514884730266 L13.3,2.9642841008052967 L13.4,2.887863517111338 L13.5,2.810416889260654 L13.6,2.731971733671346 L13.7,2.652555921533672 L13.8,2.572197668907533 L13.9,2.4909255266974544 L14.0,2.408768370508576 L14.1,2.3257553903872905 L14.2,2.241916080450163 L14.3,2.1572802284047943 L14.4,2.0718779049664215 L14.5,1.985739453173903 L14.6,1.898895477609007 L14.7,1.811376833522729 L14.8,1.7232146158725854 L14.9,1.6344401482747115 L15.0,1.5450849718747397 L15.1,1.455180834141361 L15.2,1.364759677586627 L15.3,1.2738536284169113 L15.4,1.182494985118623 L15.5,1.0907162069827139 L15.6,0.9985499025720352 L15.7,0.9060288181356884 L15.8,0.8131858259744167 L15.9,0.7200539127612631 L16.0,0.6266661678215204 L16.1,0.533055771376298 L16.2,0.43925598275371575 L16.3,0.3453001285720303 L16.4,0.25122159089885054 L16.5,0.15705379539064118 L16.6,0.06283019941676418 L16.7,-0.03141571982779441 L16.8,-0.12565047721668784 L16.9,-0.21984059158932354 L17.0,-0.31395259764656896 L17.1,-0.4079530578407884 L17.2,-0.5018085742560736 L17.3,-0.5954858004743508 L17.4,-0.6889514534231889 L17.5,-0.7821723252011537 L17.6,-0.8751152948763805 L17.7,-0.9677473402542979 L17.8,-1.060035549610275 L17.9,-1.151947133382951 L18.0,-1.2434494358242751 L18.1,-1.3345099466018775 L18.2,-1.4250963123498788 L18.3,-1.5151763481638711 L18.4,-1.6047180490360429 L18.5,-1.6936896012264575 L18.6,-1.782059393566255 L18.7,-1.8697960286890023 L18.8,-1.9568683341860107 L18.9,-2.0432453736817426 L19.0,-2.1288964578253613 L19.1,-2.2137911551945106 L19.2,-2.297899303107439 L19.3,-2.381191018339696 L19.4,-2.463636707741457 L19.5,-2.5452070787518544 L19.6,-2.625873149806481 L19.7,-2.7056062606343767 L19.8,-2.784378082440942 L19.9,-2.8621606279729535 L20.0,-2.938926261462365 L20.1,-3.0146477084451235 L20.2,-3.089298065451669 L20.3,-3.162850809565624 L20.4,-3.2352798078472182 L20.5,-3.306559326618257 L20.6,-3.3766640406051254 L20.7,-3.445569041936741 L20.8,-3.5132498489942456 L20.9,-3.5796824151091555 L21.0,-3.644843137107058 L21.1,-3.708708863693697 L21.2,-3.771256903680516 L21.3,-3.832465034046751 L21.4,-3.8923115078351156 L21.5,-3.950775061878452 L21.6,-4.007834924354382 L21.7,-4.063470822165468 L21.8,-4.117662988142137 L21.9,-4.170392168065855 L22.0,-4.221639627510074 L22.1,-4.271387158496475 L22.2,-4.319617085964174 L22.3,-4.3663122740496 L22.4,-4.4114561321747665 L22.5,-4.455032620941839 L22.6,-4.4970262578318545 L22.7,-4.537422122705584 L22.8,-4.576205863104589 L22.9,-4.6133636993505736 L23.0,-4.648882429441255 L23.1,-4.68274943374096 L23.2,-4.7149526794643215 L23.3,-4.745480724951474 L23.4,-4.7743227237332135 L23.5,-4.801468428384715 L23.6,-4.82690819416637 L23.7,-4.850632982450529 L23.8,-4.872634363932885 L23.9,-4.89290452162736 L24.0,-4.911436253643442 L24.1,-4.92822297574499 L24.2,-4.943258723689571 L24.3,-4.956538155347533 L24.4,-4.968056552600042 L24.5,-4.9778098230154 L24.6,-4.9857945013030704 L24.7,-4.992007750544875 L24.8,-4.996447363202946 L24.9,-4.999111761904045 L25.0,-5.0 L25.1,-4.999111761904045 L25.2,-4.996447363202947 L25.3,-4.992007750544875 L25.4,-4.98579450130307 L25.5,-4.9778098230154 L25.6,-4.968056552600042 L25.7,-4.956538155347533 L25.8,-4.943258723689571 L25.9,-4.9282229757449905 L26.0,-4.911436253643443 L26.1,-4.892904521627361 L26.2,-4.872634363932885 L26.3,-4.85063298245053 L26.4,-4.826908194166369 L26.5,-4.801468428384715 L26.6,-4.774322723733215 L26.7,-4.745480724951474 L26.8,-4.714952679464322 L26.9,-4.682749433740962 L27.0,-4.648882429441258 L27.1,-4.6133636993505736 L27.2,-4.5762058631045885 L27.3,-4.537422122705584 L27.4,-4.497026257831857 L27.5,-4.45503262094184 L27.6,-4.411456132174767 L27.7,-4.366312274049602 L27.8,-4.319617085964177 L27.9,-4.271387158496477 L28.0,-4.221639627510075 L28.1,-4.170392168065856 L28.2,-4.117662988142135 L28.3,-4.063470822165469 L28.4,-4.007834924354386 L28.5,-3.950775061878453 L28.6,-3.892311507835116 L28.7,-3.8324650340467494 L28.8,-3.77125690368052 L28.9,-3.708708863693695 L29.0,-3.644843137107058 L29.1,-3.5796824151091537 L29.2,-3.5132498489942483 L29.3,-3.4455690419367424 L29.4,-3.3766640406051236 L29.5,-3.3065593266182614 L29.6,-3.235279807847222 L29.7,-3.162850809565623 L29.8,-3.0892980654516706 L29.9,-3.0146477084451266 L30.0,-2.9389262614623703 L30.1,-2.862160627972953 L30.2,-2.784378082440943 L30.3,-2.7056062606343803 L30.4,-2.625873149806481 L30.5,-2.545207078751856 L30.6,-2.4636367077414585 L30.7,-2.3811910183396976 L30.8,-2.2978993031074384 L30.9,-2.213791155194512 L31.0,-2.128896457825365 L31.1,-2.0432453736817484 L31.2,-1.9568683341860125 L31.3,-1.8697960286890039 L31.4,-1.7820593935662565 L31.5,-1.693689601226457 L31.6,-1.6047180490360449 L31.7,-1.5151763481638727 L31.8,-1.425096312349885 L31.9,-1.334509946601875 L32.0,-1.2434494358242725 L32.1,-1.151947133382953 L32.2,-1.0600355496102702 L32.3,-0.9677473402543041 L32.4,-0.8751152948763801 L32.5,-0.7821723252011556 L32.6,-0.6889514534231929 L32.7,-0.5954858004743483 L32.8,-0.5018085742560798 L32.9,-0.4079530578407858 L33.0,-0.3139525976465663 L33.1,-0.21984059158932093 L33.2,-0.12565047721668968 L33.3,-0.03141571982779403 L33.4,0.06283019941676235 L33.5,0.15705379539063935 L33.6,0.25122159089884866 L33.7,0.34530012857203296 L33.8,0.43925598275371397 L33.9,0.5330557713762962 L34.0,0.6266661678215253 L34.1,0.7200539127612591 L34.2,0.8131858259744194 L34.3,0.9060288181356823 L34.4,0.9985499025720335 L34.5,1.090716206982714 L34.6,1.1824949851186277 L34.7,1.273853628416914 L34.8,1.3647596775866233 L34.9,1.455180834141355 L35.0,1.545084971874736 L35.1,1.634440148274714 L35.2,1.7232146158725856 L35.3,1.8113768335227232 L35.4,1.8988954776089992 L35.5,1.9857394531739074 L35.6,2.0718779049664238 L35.7,2.157280228404797 L35.8,2.241916080450158 L35.9,2.325755390387291 L36.0,2.4087683705085783 L36.1,2.490925526697455 L36.2,2.5721976689075317 L36.3,2.652555921533665 L36.4,2.731971733671342 L36.5,2.8104168892606527 L36.6,2.88786351711134 L36.7,2.9642841008053007 L36.8,3.0396514884730195 L36.9,3.1139389024405646 L37.0,3.18711994874345 L37.1,3.259168626504394 L37.2,3.3300593371712606 L37.3,3.399766893612094 L37.4,3.4682665290640244 L37.5,3.535533905932737 L37.6,3.6015451244395322 L37.7,3.6662767311128004 L37.8,3.729705727120907 L37.9,3.7918095764436077 L38.0,3.8525662138789434 L38.1,3.9119540528829426 L38.2,3.9699519932391802 L38.3,4.026539428555605 L38.4,4.081696253585919 L38.5,4.135402871372808 L38.6,4.1876402002107085 L38.7,4.238389680425418 L38.8,4.287633280968261 L38.9,4.335353505822448 L39.0,4.381533400219316 L39.1,4.426156556662275 L39.2,4.469207120756321 L39.3,4.510669796841012 L39.4,4.550529853424976 L39.5,4.5887731284199065 L39.6,4.625386034172292 L39.7,4.6603555622910555 L39.8,4.693669288269369 L39.9,4.725315375899023 L40.0,4.755282581475767 L40.1,4.783560257794153 L40.2,4.8101383579304295 L40.3,4.835007438812174 L40.4,4.858158664573368 L40.5,4.879583809693736 L40.6,4.899275261921235 L40.7,4.917226024976649 L40.8,4.933429721039339 L40.9,4.947880593013255 L41.0,4.960573506572389 L41.1,4.971503951984994 L41.2,4.980668045715863 L41.3,4.988062531806126 L41.4,4.993684783030087 L41.5,4.997532801828658 L41.6,4.99960522101908 L41.7,4.9999013042806855 L41.8,4.9984209464165 L41.9,4.995164673390624 L42.0,4.990133642141358 L42.1,4.98332964017015 L42.2,4.9747550849065005 L42.3,4.964413022849069 L42.4,4.952307128483257 L42.5,4.938441702975689 L42.6,4.922821672646026 L42.7,4.90545258721667 L42.8,4.886340617840968 L42.9,4.865492554910632 L43.0,4.842915805643155 L43.1,4.818618391450047 L43.2,4.79260894508688 L43.3,4.764896707586097 L43.4,4.735491524973724 L43.5,4.704403844771131 L43.6,4.67164471228306 L43.7,4.637225766673302 L43.8,4.601159236829353 L43.9,4.563457937017514 L44.0,4.5241352623301 L44.1,4.483205183926181 L44.2,4.440682244067722 L44.3,4.396581550952784 L44.4,4.350918773347633 L44.5,4.303710135019718 L44.6,4.254972408973462 L44.7,4.204722911490841 L44.8,4.1529794959790625 L44.9,4.099760546627264 L45.0,4.045084971874738 L45.1,3.9889721976928594 L45.2,3.9314421606830976 L45.3,3.8725153009936757 L45.4,3.812212555057244 L45.5,3.7505553481523006 L45.6,3.687565586790864 L45.7,3.623265650935232 L45.8,3.5576783860464296 L45.9,3.490827094967364 L46.0,3.4227355296434485 L46.1,3.3534278826836035 L46.2,3.2829287787647896 L46.3,3.211263265882927 L46.4,3.1384568064535054 L46.5,3.064535268264883 L46.6,2.9895249152875927 L46.7,2.9134523983428764 L46.8,2.8363447456337902 L46.9,2.7582293531421564 L47.0,2.6791339748949863 L47.1,2.5990867131035555 L47.2,2.5181160081788017 L47.3,2.4362506286266643 L47.4,2.353519660826663 L47.5,2.2699524986977315 L47.6,2.1855788332546675 L47.7,2.1004286420590317 L47.8,2.014532178568319 L47.9,1.9279199613869855 L48.0,1.840622763423398 L48.1,1.7526716009562924 L48.2,1.6640977226149358 L48.3,1.5749325982765239 L48.4,1.4852079078851714 L48.5,1.394955530196149 L48.6,1.3042075314494843 L48.7,1.2129961539770424 L48.8,1.1213538047469083 L48.9,1.029313043849415 L49.0,0.9369065729286284 L49.1,0.8441672235636717 L49.2,0.7511279456037758 L49.3,0.6578217954614176 L49.4,0.5642819243674106 L49.5,0.47054156659257074 L49.6,0.3766340276396686 L49.7,0.28259267241012465 L49.8,0.18845091334968056 L49.9,0.09424219857704573 L50.0,1.8369701987210296e-15 L50.1,-0.09424219857704205 L50.2,-0.18845091334967687 L50.3,-0.282592672410121 L50.4,-0.37663402763965614 L50.5,-0.47054156659256713 L50.6,-0.564281924367407 L50.7,-0.6578217954614052 L50.8,-0.751127945603781 L50.9,-0.8441672235636681 L51.0,-0.9369065729286248 L51.1,-1.0293130438494111 L51.2,-1.1213538047469047 L51.3,-1.2129961539770304 L51.4,-1.3042075314494808 L51.5,-1.3949555301961452 L51.6,-1.4852079078851679 L51.7,-1.5749325982765288 L51.8,-1.6640977226149238 L51.9,-1.752671600956297 L52.0,-1.8406227634233945 L52.1,-1.9279199613869822 L52.2,-2.0145321785683152 L52.3,-2.10042864205902 L52.4,-2.185578833254664 L52.5,-2.2699524986977284 L52.6,-2.35351966082666 L52.7,-2.436250628626661 L52.8,-2.518116008178807 L52.9,-2.5990867131035444 L53.0,-2.6791339748949827 L53.1,-2.758229353142146 L53.2,-2.83634474563378 L53.3,-2.91345239834288 L53.4,-2.9895249152875896 L53.5,-3.0645352682648803 L53.6,-3.1384568064535023 L53.7,-3.2112632658829243 L53.8,-3.2829287787647803 L53.9,-3.353427882683601 L54.0,-3.422735529643439 L54.1,-3.4908270949673614 L54.2,-3.5576783860464274 L54.3,-3.6232656509352297 L54.4,-3.687565586790868 L54.5,-3.750555348152292 L54.6,-3.8122125550572417 L54.7,-3.8725153009936735 L54.8,-3.9314421606830896 L54.9,-3.9889721976928523 L55.0,-4.045084971874736 L55.1,-4.099760546627262 L55.2,-4.152979495979061 L55.3,-4.204722911490845 L55.4,-4.2549724089734555 L55.5,-4.30371013501972 L55.6,-4.350918773347628 L55.7,-4.3965815509527815 L55.8,-4.4406822440677205 L55.9,-4.483205183926175 L56.0,-4.524135262330098 L56.1,-4.563457937017512 L56.2,-4.601159236829352 L56.3,-4.637225766673304 L56.4,-4.6716447122830616 L56.5,-4.704403844771127 L56.6,-4.735491524973722 L56.7,-4.764896707586093 L56.8,-4.792608945086877 L56.9,-4.818618391450049 L57.0,-4.8429158056431545 L57.1,-4.865492554910633 L57.2,-4.886340617840968 L57.3,-4.9054525872166685 L57.4,-4.922821672646027 L57.5,-4.938441702975689 L57.6,-4.952307128483255 L57.7,-4.964413022849069 L57.8,-4.9747550849065005 L57.9,-4.983329640170149 L58.0,-4.990133642141358 L58.1,-4.995164673390623 L58.2,-4.9984209464165 L58.3,-4.9999013042806855 L58.4,-4.99960522101908 L58.5,-4.997532801828658 L58.6,-4.993684783030087 L58.7,-4.988062531806126 L58.8,-4.980668045715863 L58.9,-4.971503951984994 L59.0,-4.9605735065723895 L59.1,-4.947880593013254 L59.2,-4.9334297210393405 L59.3,-4.9172260249766495 L59.4,-4.899275261921235 L59.5,-4.879583809693739 L59.6,-4.858158664573368 L59.7,-4.835007438812176 L59.8,-4.810138357930432 L59.9,-4.783560257794154 L60.0,-4.755282581475772 L60.1,-4.725315375899024 L60.2,-4.693669288269369 L60.3,-4.6603555622910555 L60.4,-4.625386034172293 L60.5,-4.588773128419904 L60.6,-4.55052985342498 L60.7,-4.510669796841014 L60.8,-4.469207120756321 L60.9,-4.426156556662281 L61.0,-4.381533400219317 L61.1,-4.335353505822452 L61.2,-4.2876332809682625 L61.3,-4.23838968042542 L61.4,-4.187640200210711 L61.5,-4.1354028713728095 L61.6,-4.0816962535859185 L61.7,-4.026539428555612 L61.8,-3.969951993239183 L61.9,-3.9119540528829395 L62.0,-3.852566213878949 L62.1,-3.79180957644361 L62.2,-3.729705727120915 L62.3,-3.666276731112803 L62.4,-3.6015451244395353 L62.5,-3.535533905932742 L62.6,-3.4682665290640275 L62.7,-3.39976689361209 L62.8,-3.330059337171263 L62.9,-3.2591686265043966 L63.0,-3.1871199487434487 L63.1,-3.1139389024405673 L63.2,-3.0396514884730226 L63.3,-2.9642841008052967 L63.4,-2.8878635171113434 L63.5,-2.810416889260656 L63.6,-2.7319717336713527 L63.7,-2.652555921533675 L63.8,-2.572197668907527 L63.9,-2.4909255266974544 L64.0,-2.408768370508574 L64.1,-2.3257553903872945 L64.2,-2.241916080450161 L64.3,-2.1572802284048 L64.4,-2.0718779049664153 L64.5,-1.9857394531739028 L64.6,-1.8988954776090106 L64.7,-1.8113768335227225 L64.8,-1.7232146158725847 L64.9,-1.634440148274709 L65.0,-1.5450849718747395 L65.1,-1.4551808341413672 L65.2,-1.364759677586631 L65.3,-1.2738536284169215 L65.4,-1.1824949851186226 L65.5,-1.0907162069827177 L65.6,-0.9985499025720458 L65.7,-0.9060288181356858 L65.8,-0.813185825974414 L65.9,-0.7200539127612626 L66.0,-0.6266661678215201 L66.1,-0.5330557713763042 L66.2,-0.43925598275370875 L66.3,-0.34530012857202774 L66.4,-0.2512215908988524 L66.5,-0.15705379539063413 L66.6,-0.06283019941676157 L66.7,0.031415719827799234 L66.8,0.125650477216686 L66.9,0.21984059158932615 L67.0,0.31395259764656264 L67.1,0.40795305784077773 L67.2,0.5018085742560762 L67.3,0.5954858004743446 L67.4,0.688951453423198 L67.5,0.7821723252011563 L67.6,0.8751152948763764 L67.7,0.9677473402543004 L67.8,1.0600355496102667 L67.9,1.1519471333829492 L68.0,1.2434494358242818 L68.1,1.3345099466018628 L68.2,1.4250963123498772 L68.3,1.5151763481638607 L68.4,1.6047180490360495 L68.5,1.6936896012264622 L68.6,1.7820593935662448 L68.7,1.8697960286890047 L68.8,1.9568683341860091 L68.9,2.0432453736817533 L69.0,2.1288964578253657 L69.1,2.213791155194505 L69.2,2.2978993031074473 L69.3,2.381191018339698 L69.4,2.463636707741463 L69.5,2.5452070787518566 L69.6,2.6258731498064734 L69.7,2.7056062606343767 L69.8,2.784378082440933 L69.9,2.8621606279729574 L70.0,2.9389262614623632 L70.1,3.014647708445117 L70.2,3.0892980654516746 L70.3,3.1628508095656205 L70.4,3.2352798078472222 L70.5,3.306559326618255 L70.6,3.376664040605114 L70.7,3.445569041936749 L70.8,3.513249848994236 L70.9,3.579682415109154 L71.0,3.644843137107064 L71.1,3.7087088636936865 L71.2,3.771256903680524 L71.3,3.83246503404675 L71.4,3.8923115078351196 L71.5,3.950775061878451 L71.6,4.007834924354378 L71.7,4.063470822165472 L71.8,4.117662988142136 L71.9,4.170392168065861 L72.0,4.221639627510077 L72.1,4.271387158496475 L72.2,4.319617085964177 L72.3,4.366312274049599 L72.4,4.411456132174766 L72.5,4.455032620941836 L72.6,4.497026257831849 L72.7,4.537422122705585 L72.8,4.576205863104585 L72.9,4.613363699350576 L73.0,4.648882429441256 L73.1,4.682749433740959 L73.2,4.714952679464324 L73.3,4.74548072495147 L73.4,4.774322723733218 L73.5,4.801468428384717 L73.6,4.826908194166364 L73.7,4.850632982450532 L73.8,4.872634363932887 L73.9,4.892904521627362 L74.0,4.911436253643444 L74.1,4.92822297574499 L74.2,4.94325872368957 L74.3,4.956538155347532 L74.4,4.968056552600043 L74.5,4.9778098230154 L74.6,4.985794501303069 L74.7,4.992007750544875 L74.8,4.996447363202946 L74.9,4.999111761904046 L75.0,5.0 L75.1,4.999111761904046 L75.2,4.996447363202947 L75.3,4.992007750544875 L75.4,4.98579450130307 L75.5,4.9778098230154 L75.6,4.968056552600043 L75.7,4.956538155347532 L75.8,4.943258723689571 L75.9,4.928222975744989 L76.0,4.911436253643445 L76.1,4.892904521627363 L76.2,4.8726343639328835 L76.3,4.850632982450533 L76.4,4.826908194166366 L76.5,4.801468428384713 L76.6,4.77432272373322 L76.7,4.745480724951472 L76.8,4.714952679464323 L76.9,4.682749433740962 L77.0,4.648882429441259 L77.1,4.613363699350578 L77.2,4.576205863104587 L77.3,4.537422122705586 L77.4,4.497026257831852 L77.5,4.4550326209418385 L77.6,4.411456132174768 L77.7,4.366312274049601 L77.8,4.319617085964181 L77.9,4.271387158496478 L78.0,4.221639627510081 L78.1,4.170392168065865 L78.2,4.11766298814214 L78.3,4.063470822165475 L78.4,4.007834924354377 L78.5,3.9507750618784545 L78.6,3.8923115078351236 L78.7,3.8324650340467477 L78.8,3.771256903680527 L78.9,3.7087088636936905 L79.0,3.644843137107056 L79.1,3.5796824151091706 L79.2,3.51324984899424 L79.3,3.4455690419367406 L79.4,3.376664040605118 L79.5,3.3065593266182596 L79.6,3.2352798078472262 L79.7,3.162850809565625 L79.8,3.089298065451679 L79.9,3.0146477084451213 L80.0,2.9389262614623677 L80.1,2.862160627972962 L80.2,2.7843780824409374 L80.3,2.7056062606343816 L80.4,2.6258731498064787 L80.5,2.5452070787518615 L80.6,2.463636707741468 L80.7,2.381191018339703 L80.8,2.297899303107452 L80.9,2.2137911551944938 L81.0,2.1288964578253706 L81.1,2.043245373681758 L81.2,1.956868334186006 L81.3,1.8697960286890098 L81.4,1.7820593935662499 L81.5,1.693689601226467 L81.6,1.6047180490360635 L81.7,1.515176348163866 L81.8,1.4250963123498825 L81.9,1.3345099466018853 L82.0,1.2434494358242871 L82.1,1.151947133382972 L82.2,1.060035549610272 L82.3,0.9677473402543059 L82.4,0.8751152948763643 L82.5,0.7821723252011704 L82.6,0.6889514534232035 L82.7,0.5954858004743501 L82.8,0.5018085742560817 L82.9,0.4079530578407743 L83.0,0.3139525976465593 L83.1,0.21984059158933167 L83.2,0.1256504772166915 L83.3,0.03141571982780474 L83.4,-0.06283019941677383 L83.5,-0.1570537953906464 L83.6,-0.2512215908988468 L83.7,-0.3453001285720222 L83.8,-0.43925598275370326 L83.9,-0.5330557713763076 L84.0,-0.6266661678215235 L84.1,-0.7200539127612572 L84.2,-0.8131858259744086 L84.3,-0.9060288181356717 L84.4,-0.9985499025720403 L84.5,-1.0907162069827123 L84.6,-1.1824949851186173 L84.7,-1.273853628416899 L84.8,-1.3647596775866089 L84.9,-1.4551808341413701 L85.0,-1.5450849718747257 L85.1,-1.6344401482747122 L85.2,-1.7232146158725965 L85.3,-1.8113768335227174 L85.4,-1.8988954776090057 L85.5,-1.9857394531738979 L85.6,-2.07187790496641 L85.7,-2.157280228404795 L85.8,-2.241916080450172 L85.9,-2.3257553903872816 L86.0,-2.4087683705085765 L86.1,-2.490925526697434 L86.2,-2.5721976689075374 L86.3,-2.6525559215336707 L86.4,-2.731971733671341 L86.5,-2.8104168892606434 L86.6,-2.8878635171113243 L86.7,-2.964284100805306 L86.8,-3.039651488473018 L86.9,-3.1139389024405633 L87.0,-3.187119948743431 L87.1,-3.2591686265043855 L87.2,-3.330059337171259 L87.3,-3.3997668936120924 L87.4,-3.468266529064042 L87.5,-3.535533905932726 L87.6,-3.6015451244395313 L87.7,-3.6662767311127933 L87.8,-3.7297057271209115 L87.9,-3.791809576443618 L88.0,-3.85256621387894 L88.1,-3.9119540528829306 L88.2,-3.969951993239174 L88.3,-4.026539428555604 L88.4,-4.081696253585921 L88.5,-4.135402871372817 L88.6,-4.187640200210703 L88.7,-4.238389680425417 L88.8,-4.28763328096825 L88.9,-4.335353505822454 L89.0,-4.381533400219319 L89.1,-4.426156556662274 L89.2,-4.469207120756314 L89.3,-4.510669796841007 L89.4,-4.550529853424984 L89.5,-4.588773128419902 L89.6,-4.625386034172291 L89.7,-4.660355562291047 L89.8,-4.693669288269367 L89.9,-4.725315375899025 L90.0,-4.755282581475767 L90.1,-4.78356025779415 L90.2,-4.810138357930425 L90.3,-4.835007438812174 L90.4,-4.858158664573367 L90.5,-4.879583809693738 L90.6,-4.899275261921231 L90.7,-4.91722602497665 L90.8,-4.933429721039338 L90.9,-4.947880593013255 L91.0,-4.960573506572389 L91.1,-4.971503951984993 L91.2,-4.980668045715864 L91.3,-4.988062531806126 L91.4,-4.993684783030088 L91.5,-4.9975328018286564 L91.6,-4.99960522101908 L91.7,-4.9999013042806855 L91.8,-4.9984209464165 L91.9,-4.995164673390624 L92.0,-4.990133642141359 L92.1,-4.983329640170149 L92.2,-4.974755084906501 L92.3,-4.964413022849068 L92.4,-4.952307128483259 L92.5,-4.93844170297569 L92.6,-4.922821672646029 L92.7,-4.905452587216671 L92.8,-4.886340617840969 L92.9,-4.865492554910632 L93.0,-4.842915805643156 L93.1,-4.818618391450051 L93.2,-4.792608945086878 L93.3,-4.7648967075861 L93.4,-4.7354915249737175 L93.5,-4.704403844771125 L93.6,-4.671644712283067 L93.7,-4.637225766673309 L93.8,-4.601159236829357 L93.9,-4.563457937017507 L94.0,-4.524135262330101 L94.1,-4.483205183926177 L94.2,-4.440682244067731 L94.3,-4.396581550952784 L94.4,-4.350918773347626 L94.5,-4.303710135019719 L94.6,-4.254972408973463 L94.7,-4.204722911490852 L94.8,-4.152979495979063 L94.9,-4.099760546627265 L95.0,-4.045084971874734 L95.1,-3.988972197692866 L95.2,-3.9314421606830985 L95.3,-3.872515300993677 L95.4,-3.8122125550572394 L95.5,-3.750555348152302 L95.6,-3.6875655867908774 L95.7,-3.6232656509352212 L95.8,-3.5576783860464314 L95.9,-3.490827094967359 L96.0,-3.4227355296434565 L96.1,-3.3534278826836044 L96.2,-3.2829287787647776 L96.3,-3.2112632658829354 L96.4,-3.1384568064535068 L96.5,-3.064535268264892 L96.6,-2.989524915287594 L96.7,-2.9134523983428853 L96.8,-2.836344745633777 L96.9,-2.7582293531421653 L97.0,-2.6791339748949876 L97.1,-2.5990867131035573 L97.2,-2.5181160081788034 L97.3,-2.436250628626666 L97.4,-2.3535196608266724 L97.5,-2.2699524986977333 L97.6,-2.1855788332546693 L97.7,-2.100428642059025 L97.8,-2.0145321785683286 L97.9,-1.927919961386987 L98.0,-1.8406227634233998 L98.1,-1.7526716009563106 L98.2,-1.6640977226149376 L98.3,-1.5749325982765339 L98.4,-1.4852079078851563 L98.5,-1.3949555301961505 L98.6,-1.3042075314494948 L98.7,-1.2129961539770528 L98.8,-1.12135380474691 L98.9,-1.0293130438493994 L99.0,-0.9369065729286215 L99.1,-0.844167223563691 L99.2,-0.7511279456037951 L99.3,-0.6578217954614107 L99.4,-0.5642819243674124 L99.5,-0.47054156659256374 L99.6,-0.3766340276396793 L99.7,-0.2825926724101264 L99.8,-0.1884509133496824 L99.9,-0.0942421985770387 L100.0,-3.673940397442059e-15 L100.0,14.999999999999996 L99.9,14.905757801422961 L99.8,14.811549086650318 L99.7,14.717407327589873 L99.6,14.62336597236032 L99.5,14.529458433407436 L99.4,14.435718075632588 L99.3,14.34217820453859 L99.2,14.248872054396205 L99.1,14.15583277643631 L99.0,14.06309342707138 L98.9,13.970686956150601 L98.8,13.87864619525309 L98.7,13.787003846022948 L98.6,13.695792468550506 L98.5,13.60504446980385 L98.4,13.514792092114844 L98.3,13.425067401723465 L98.2,13.335902277385063 L98.1,13.24732839904369 L98.0,13.1593772365766 L97.9,13.072080038613013 L97.8,12.985467821431671 L97.7,12.899571357940975 L97.6,12.81442116674533 L97.5,12.730047501302266 L97.4,12.646480339173328 L97.3,12.563749371373333 L97.2,12.481883991821196 L97.1,12.400913286896444 L97.0,12.320866025105012 L96.9,12.241770646857834 L96.8,12.163655254366223 L96.7,12.086547601657115 L96.6,12.010475084712406 L96.5,11.935464731735108 L96.4,11.861543193546494 L96.3,11.788736734117064 L96.2,11.717071221235223 L96.1,11.646572117316396 L96.0,11.577264470356543 L95.9,11.50917290503264 L95.8,11.442321613953569 L95.7,11.37673434906478 L95.6,11.312434413209122 L95.5,11.249444651847698 L95.4,11.18778744494276 L95.3,11.127484699006324 L95.2,11.068557839316902 L95.1,11.011027802307133 L95.0,10.954915028125267 L94.9,10.900239453372734 L94.8,10.847020504020936 L94.7,10.795277088509149 L94.6,10.745027591026538 L94.5,10.696289864980281 L94.4,10.649081226652374 L94.3,10.603418449047215 L94.2,10.55931775593227 L94.1,10.516794816073823 L94.0,10.475864737669898 L93.9,10.436542062982493 L93.8,10.398840763170643 L93.7,10.362774233326691 L93.6,10.328355287716933 L93.5,10.295596155228875 L93.4,10.264508475026282 L93.3,10.2351032924139 L93.2,10.207391054913122 L93.1,10.181381608549948 L93.0,10.157084194356845 L92.9,10.134507445089369 L92.8,10.113659382159032 L92.7,10.094547412783328 L92.6,10.07717832735397 L92.5,10.061558297024309 L92.4,10.047692871516741 L92.3,10.035586977150931 L92.2,10.025244915093499 L92.1,10.01667035982985 L92.0,10.009866357858641 L91.9,10.004835326609376 L91.8,10.0015790535835 L91.7,10.000098695719315 L91.6,10.000394778980919 L91.5,10.002467198171344 L91.4,10.006315216969913 L91.3,10.011937468193874 L91.2,10.019331954284137 L91.1,10.028496048015008 L91.0,10.039426493427612 L90.9,10.052119406986744 L90.8,10.066570278960661 L90.7,10.08277397502335 L90.6,10.10072473807877 L90.5,10.120416190306262 L90.4,10.141841335426633 L90.3,10.164992561187827 L90.2,10.189861642069575 L90.1,10.21643974220585 L90.0,10.244717418524232 L89.9,10.274684624100974 L89.8,10.306330711730633 L89.7,10.339644437708953 L89.6,10.37461396582771 L89.5,10.411226871580098 L89.4,10.449470146575017 L89.3,10.489330203158993 L89.2,10.530792879243686 L89.1,10.573843443337726 L89.0,10.618466599780682 L88.9,10.664646494177546 L88.8,10.712366719031749 L88.7,10.761610319574583 L88.6,10.812359799789297 L88.5,10.864597128627183 L88.4,10.918303746414079 L88.3,10.973460571444395 L88.2,11.030048006760826 L88.1,11.08804594711707 L88.0,11.14743378612106 L87.9,11.208190423556381 L87.8,11.270294272879088 L87.7,11.333723268887207 L87.6,11.398454875560468 L87.5,11.464466094067273 L87.4,11.531733470935958 L87.3,11.600233106387908 L87.2,11.669940662828742 L87.1,11.740831373495615 L87.0,11.812880051256569 L86.9,11.886061097559438 L86.8,11.960348511526982 L86.7,12.035715899194694 L86.6,12.112136482888676 L86.5,12.189583110739356 L86.4,12.26802826632866 L86.3,12.34744407846633 L86.2,12.427802331092462 L86.1,12.509074473302565 L86.0,12.591231629491423 L85.9,12.674244609612717 L85.8,12.758083919549827 L85.7,12.842719771595204 L85.6,12.92812209503359 L85.5,13.014260546826103 L85.4,13.101104522390994 L85.3,13.188623166477283 L85.2,13.276785384127404 L85.1,13.365559851725287 L85.0,13.454915028125274 L84.9,13.54481916585863 L84.8,13.635240322413392 L84.7,13.7261463715831 L84.6,13.817505014881382 L84.5,13.909283793017288 L84.4,14.00145009742796 L84.3,14.093971181864328 L84.2,14.186814174025592 L84.1,14.279946087238743 L84.0,14.373333832178476 L83.9,14.466944228623692 L83.8,14.560744017246297 L83.7,14.654699871427978 L83.6,14.748778409101153 L83.5,14.842946204609353 L83.4,14.937169800583225 L83.3,15.031415719827805 L83.2,15.125650477216691 L83.1,15.219840591589332 L83.0,15.313952597646558 L82.9,15.407953057840775 L82.8,15.501808574256081 L82.7,15.59548580047435 L82.6,15.688951453423204 L82.5,15.78217232520117 L82.4,15.875115294876364 L82.3,15.967747340254306 L82.2,16.060035549610273 L82.1,16.151947133382972 L82.0,16.24344943582429 L81.9,16.334509946601884 L81.8,16.425096312349883 L81.7,16.515176348163866 L81.6,16.604718049036062 L81.5,16.693689601226467 L81.4,16.78205939356625 L81.3,16.86979602868901 L81.2,16.956868334186005 L81.1,17.043245373681756 L81.0,17.12889645782537 L80.9,17.213791155194492 L80.8,17.297899303107453 L80.7,17.381191018339702 L80.6,17.46363670774147 L80.5,17.54520707875186 L80.4,17.62587314980648 L80.3,17.705606260634383 L80.2,17.784378082440938 L80.1,17.862160627972962 L80.0,17.938926261462367 L79.9,18.01464770844512 L79.8,18.08929806545168 L79.7,18.162850809565626 L79.6,18.235279807847228 L79.5,18.30655932661826 L79.4,18.376664040605117 L79.3,18.44556904193674 L79.2,18.51324984899424 L79.1,18.579682415109172 L79.0,18.644843137107056 L78.9,18.70870886369369 L78.8,18.771256903680527 L78.7,18.83246503404675 L78.6,18.892311507835124 L78.5,18.950775061878453 L78.4,19.007834924354377 L78.3,19.063470822165474 L78.2,19.11766298814214 L78.1,19.170392168065867 L78.0,19.22163962751008 L77.9,19.271387158496477 L77.8,19.319617085964182 L77.7,19.3663122740496 L77.6,19.41145613217477 L77.5,19.45503262094184 L77.4,19.497026257831852 L77.3,19.537422122705586 L77.2,19.576205863104587 L77.1,19.61336369935058 L77.0,19.648882429441258 L76.9,19.682749433740963 L76.8,19.714952679464325 L76.7,19.74548072495147 L76.6,19.77432272373322 L76.5,19.801468428384712 L76.4,19.826908194166364 L76.3,19.850632982450534 L76.2,19.87263436393288 L76.1,19.892904521627365 L76.0,19.911436253643444 L75.9,19.928222975744987 L75.8,19.94325872368957 L75.7,19.95653815534753 L75.6,19.968056552600043 L75.5,19.9778098230154 L75.4,19.98579450130307 L75.3,19.992007750544875 L75.2,19.996447363202947 L75.1,19.999111761904047 L75.0,20.0 L74.9,19.999111761904047 L74.8,19.996447363202947 L74.7,19.992007750544875 L74.6,19.98579450130307 L74.5,19.9778098230154 L74.4,19.968056552600043 L74.3,19.95653815534753 L74.2,19.94325872368957 L74.1,19.92822297574499 L74.0,19.911436253643444 L73.9,19.89290452162736 L73.8,19.87263436393289 L73.7,19.85063298245053 L73.6,19.826908194166364 L73.5,19.801468428384716 L73.4,19.774322723733217 L73.3,19.74548072495147 L73.2,19.714952679464325 L73.1,19.68274943374096 L73.0,19.648882429441258 L72.9,19.613363699350575 L72.8,19.576205863104583 L72.7,19.537422122705586 L72.6,19.49702625783185 L72.5,19.455032620941836 L72.4,19.411456132174767 L72.3,19.366312274049598 L72.2,19.319617085964175 L72.1,19.271387158496474 L72.0,19.22163962751008 L71.9,19.17039216806586 L71.8,19.117662988142136 L71.7,19.06347082216547 L71.6,19.007834924354377 L71.5,18.950775061878453 L71.4,18.89231150783512 L71.3,18.83246503404675 L71.2,18.771256903680523 L71.1,18.708708863693687 L71.0,18.644843137107063 L70.9,18.579682415109154 L70.8,18.513249848994235 L70.7,18.44556904193675 L70.6,18.376664040605114 L70.5,18.306559326618256 L70.4,18.23527980784722 L70.3,18.16285080956562 L70.2,18.089298065451676 L70.1,18.014647708445118 L70.0,17.938926261462363 L69.9,17.86216062797296 L69.8,17.784378082440934 L69.7,17.705606260634376 L69.6,17.625873149806473 L69.5,17.545207078751858 L69.4,17.463636707741465 L69.3,17.3811910183397 L69.2,17.297899303107446 L69.1,17.213791155194507 L69.0,17.128896457825366 L68.9,17.043245373681753 L68.8,16.95686833418601 L68.7,16.869796028689006 L68.6,16.782059393566243 L68.5,16.693689601226463 L68.4,16.604718049036048 L68.3,16.515176348163862 L68.2,16.425096312349876 L68.1,16.334509946601862 L68.0,16.24344943582428 L67.9,16.15194713338295 L67.8,16.060035549610266 L67.7,15.9677473402543 L67.6,15.875115294876377 L67.5,15.782172325201156 L67.4,15.688951453423197 L67.3,15.595485800474345 L67.2,15.501808574256076 L67.1,15.407953057840778 L67.0,15.313952597646562 L66.9,15.219840591589326 L66.8,15.125650477216686 L66.7,15.0314157198278 L66.6,14.937169800583238 L66.5,14.842946204609365 L66.4,14.748778409101147 L66.3,14.654699871427972 L66.2,14.560744017246291 L66.1,14.466944228623696 L66.0,14.37333383217848 L65.9,14.279946087238738 L65.8,14.186814174025585 L65.7,14.093971181864314 L65.6,14.001450097427954 L65.5,13.909283793017282 L65.4,13.817505014881377 L65.3,13.726146371583079 L65.2,13.635240322413368 L65.1,13.544819165858632 L65.0,13.45491502812526 L64.9,13.36555985172529 L64.8,13.276785384127415 L64.7,13.188623166477278 L64.6,13.10110452239099 L64.5,13.014260546826097 L64.4,12.928122095033585 L64.3,12.842719771595199 L64.2,12.75808391954984 L64.1,12.674244609612705 L64.0,12.591231629491427 L63.9,12.509074473302546 L63.8,12.427802331092472 L63.7,12.347444078466324 L63.6,12.268028266328647 L63.5,12.189583110739344 L63.4,12.112136482888657 L63.3,12.035715899194702 L63.2,11.960348511526977 L63.1,11.886061097559432 L63.0,11.81288005125655 L62.9,11.740831373495602 L62.8,11.669940662828736 L62.7,11.60023310638791 L62.6,11.531733470935972 L62.5,11.464466094067259 L62.4,11.398454875560464 L62.3,11.333723268887198 L62.2,11.270294272879084 L62.1,11.20819042355639 L62.0,11.14743378612105 L61.9,11.08804594711706 L61.8,11.030048006760817 L61.7,10.973460571444388 L61.6,10.918303746414082 L61.5,10.86459712862719 L61.4,10.812359799789288 L61.3,10.76161031957458 L61.2,10.712366719031738 L61.1,10.664646494177548 L61.0,10.618466599780682 L60.9,10.573843443337719 L60.8,10.530792879243679 L60.7,10.489330203158985 L60.6,10.44947014657502 L60.5,10.411226871580096 L60.4,10.374613965827706 L60.3,10.339644437708944 L60.2,10.30633071173063 L60.1,10.274684624100976 L60.0,10.244717418524228 L59.9,10.216439742205846 L59.8,10.189861642069568 L59.7,10.164992561187823 L59.6,10.141841335426632 L59.5,10.120416190306262 L59.4,10.100724738078764 L59.3,10.08277397502335 L59.2,10.06657027896066 L59.1,10.052119406986746 L59.0,10.03942649342761 L58.9,10.028496048015006 L58.8,10.019331954284137 L58.7,10.011937468193874 L58.6,10.006315216969913 L58.5,10.002467198171342 L58.4,10.000394778980919 L58.3,10.000098695719315 L58.2,10.0015790535835 L58.1,10.004835326609378 L58.0,10.009866357858641 L57.9,10.01667035982985 L57.8,10.025244915093499 L57.7,10.035586977150931 L57.6,10.047692871516745 L57.5,10.06155829702431 L57.4,10.077178327353973 L57.3,10.094547412783331 L57.2,10.113659382159032 L57.1,10.134507445089367 L57.0,10.157084194356845 L56.9,10.181381608549952 L56.8,10.207391054913124 L56.7,10.235103292413907 L56.6,10.264508475026279 L56.5,10.295596155228873 L56.4,10.328355287716938 L56.3,10.362774233326697 L56.2,10.398840763170648 L56.1,10.436542062982488 L56.0,10.475864737669902 L55.9,10.516794816073826 L55.8,10.55931775593228 L55.7,10.603418449047219 L55.6,10.649081226652372 L55.5,10.69628986498028 L55.4,10.745027591026545 L55.3,10.795277088509156 L55.2,10.84702050402094 L55.1,10.900239453372738 L55.0,10.954915028125264 L54.9,11.011027802307147 L54.8,11.06855783931691 L54.7,11.127484699006327 L54.6,11.187787444942758 L54.5,11.249444651847707 L54.4,11.312434413209132 L54.3,11.37673434906477 L54.2,11.442321613953572 L54.1,11.509172905032639 L54.0,11.57726447035656 L53.9,11.6465721173164 L53.8,11.71707122123522 L53.7,11.788736734117077 L53.6,11.861543193546497 L53.5,11.93546473173512 L53.4,12.01047508471241 L53.3,12.08654760165712 L53.2,12.163655254366219 L53.1,12.241770646857855 L53.0,12.320866025105017 L52.9,12.400913286896456 L52.8,12.481883991821192 L52.7,12.563749371373339 L52.6,12.64648033917334 L52.5,12.730047501302272 L52.4,12.814421166745337 L52.3,12.89957135794098 L52.2,12.985467821431685 L52.1,13.072080038613018 L52.0,13.159377236576606 L51.9,13.247328399043703 L51.8,13.335902277385076 L51.7,13.42506740172347 L51.6,13.514792092114831 L51.5,13.605044469803854 L51.4,13.695792468550518 L51.3,13.78700384602297 L51.2,13.878646195253095 L51.1,13.970686956150589 L51.0,14.063093427071376 L50.9,14.155832776436332 L50.8,14.24887205439622 L50.7,14.342178204538595 L50.6,14.435718075632593 L50.5,14.529458433407433 L50.4,14.623365972360343 L50.3,14.717407327589878 L50.2,14.811549086650324 L50.1,14.905757801422958 L50.0,15.000000000000002 L49.9,15.094242198577046 L49.8,15.18845091334968 L49.7,15.282592672410125 L49.6,15.37663402763967 L49.5,15.470541566592571 L49.4,15.56428192436741 L49.3,15.657821795461418 L49.2,15.751127945603775 L49.1,15.844167223563671 L49.0,15.936906572928628 L48.9,16.029313043849413 L48.8,16.12135380474691 L48.7,16.21299615397704 L48.6,16.304207531449485 L48.5,16.39495553019615 L48.4,16.485207907885172 L48.3,16.574932598276526 L48.2,16.664097722614937 L48.1,16.752671600956294 L48.0,16.840622763423397 L47.9,16.927919961386987 L47.8,17.01453217856832 L47.7,17.100428642059033 L47.6,17.185578833254667 L47.5,17.26995249869773 L47.4,17.353519660826663 L47.3,17.436250628626663 L47.2,17.5181160081788 L47.1,17.599086713103556 L47.0,17.679133974894988 L46.9,17.758229353142156 L46.8,17.83634474563379 L46.7,17.913452398342876 L46.6,17.989524915287593 L46.5,18.064535268264883 L46.4,18.138456806453505 L46.3,18.211263265882927 L46.2,18.28292877876479 L46.1,18.353427882683604 L46.0,18.422735529643447 L45.9,18.490827094967365 L45.8,18.55767838604643 L45.7,18.62326565093523 L45.6,18.687565586790864 L45.5,18.7505553481523 L45.4,18.812212555057243 L45.3,18.872515300993676 L45.2,18.931442160683098 L45.1,18.98897219769286 L45.0,19.045084971874736 L44.9,19.099760546627266 L44.8,19.15297949597906 L44.7,19.20472291149084 L44.6,19.25497240897346 L44.5,19.303710135019717 L44.4,19.350918773347633 L44.3,19.396581550952785 L44.2,19.440682244067723 L44.1,19.48320518392618 L44.0,19.5241352623301 L43.9,19.563457937017514 L43.8,19.601159236829353 L43.7,19.637225766673303 L43.6,19.67164471228306 L43.5,19.704403844771132 L43.4,19.735491524973725 L43.3,19.764896707586097 L43.2,19.79260894508688 L43.1,19.818618391450048 L43.0,19.842915805643155 L42.9,19.86549255491063 L42.8,19.88634061784097 L42.7,19.905452587216672 L42.6,19.922821672646027 L42.5,19.938441702975688 L42.4,19.952307128483255 L42.3,19.96441302284907 L42.2,19.9747550849065 L42.1,19.98332964017015 L42.0,19.99013364214136 L41.9,19.995164673390626 L41.8,19.998420946416502 L41.7,19.999901304280684 L41.6,19.99960522101908 L41.5,19.997532801828658 L41.4,19.993684783030087 L41.3,19.988062531806126 L41.2,19.980668045715863 L41.1,19.971503951984992 L41.0,19.960573506572388 L40.9,19.947880593013256 L40.8,19.93342972103934 L40.7,19.91722602497665 L40.6,19.899275261921236 L40.5,19.879583809693735 L40.4,19.858158664573367 L40.3,19.835007438812173 L40.2,19.81013835793043 L40.1,19.783560257794154 L40.0,19.755282581475768 L39.9,19.725315375899022 L39.8,19.69366928826937 L39.7,19.660355562291056 L39.6,19.625386034172294 L39.5,19.588773128419906 L39.4,19.550529853424976 L39.3,19.51066979684101 L39.2,19.469207120756323 L39.1,19.426156556662274 L39.0,19.381533400219315 L38.9,19.335353505822447 L38.8,19.28763328096826 L38.7,19.238389680425417 L38.6,19.18764020021071 L38.5,19.135402871372808 L38.4,19.081696253585918 L38.3,19.026539428555605 L38.2,18.96995199323918 L38.1,18.911954052882944 L38.0,18.852566213878944 L37.9,18.791809576443608 L37.8,18.72970572712091 L37.7,18.666276731112802 L37.6,18.601545124439532 L37.5,18.535533905932738 L37.4,18.468266529064024 L37.3,18.399766893612096 L37.2,18.33005933717126 L37.1,18.259168626504394 L37.0,18.18711994874345 L36.9,18.113938902440566 L36.8,18.03965148847302 L36.7,17.9642841008053 L36.6,17.88786351711134 L36.5,17.81041688926065 L36.4,17.731971733671344 L36.3,17.652555921533665 L36.2,17.57219766890753 L36.1,17.490925526697456 L36.0,17.40876837050858 L35.9,17.32575539038729 L35.8,17.241916080450157 L35.7,17.157280228404797 L35.6,17.071877904966424 L35.5,16.985739453173906 L35.4,16.898895477609 L35.3,16.811376833522722 L35.2,16.723214615872585 L35.1,16.634440148274713 L35.0,16.545084971874736 L34.9,16.455180834141355 L34.8,16.364759677586623 L34.7,16.273853628416916 L34.6,16.182494985118627 L34.5,16.090716206982712 L34.4,15.998549902572034 L34.3,15.906028818135683 L34.2,15.813185825974418 L34.1,15.720053912761259 L34.0,15.626666167821526 L33.9,15.533055771376297 L33.8,15.439255982753714 L33.7,15.345300128572033 L33.6,15.251221590898849 L33.5,15.15705379539064 L33.4,15.062830199416762 L33.3,14.968584280172205 L33.2,14.87434952278331 L33.1,14.780159408410679 L33.0,14.686047402353434 L32.9,14.592046942159214 L32.8,14.49819142574392 L32.7,14.404514199525652 L32.6,14.311048546576806 L32.5,14.217827674798844 L32.4,14.12488470512362 L32.3,14.032252659745696 L32.2,13.93996445038973 L32.1,13.848052866617047 L32.0,13.756550564175727 L31.9,13.665490053398125 L31.8,13.574903687650115 L31.7,13.484823651836127 L31.6,13.395281950963955 L31.5,13.306310398773544 L31.4,13.217940606433743 L31.3,13.130203971310996 L31.2,13.043131665813988 L31.1,12.95675462631825 L31.0,12.871103542174636 L30.9,12.786208844805488 L30.8,12.702100696892561 L30.7,12.618808981660303 L30.6,12.536363292258542 L30.5,12.454792921248144 L30.4,12.37412685019352 L30.3,12.29439373936562 L30.2,12.215621917559057 L30.1,12.137839372027047 L30.0,12.06107373853763 L29.9,11.985352291554873 L29.8,11.91070193454833 L29.7,11.837149190434378 L29.6,11.764720192152778 L29.5,11.693440673381739 L29.4,11.623335959394876 L29.3,11.554430958063257 L29.2,11.48675015100575 L29.1,11.420317584890846 L29.0,11.355156862892942 L28.9,11.291291136306306 L28.8,11.22874309631948 L28.7,11.167534965953251 L28.6,11.107688492164884 L28.5,11.049224938121547 L28.4,10.992165075645614 L28.3,10.936529177834531 L28.2,10.882337011857864 L28.1,10.829607831934144 L28.0,10.778360372489924 L27.9,10.728612841503523 L27.8,10.680382914035823 L27.7,10.633687725950399 L27.6,10.588543867825233 L27.5,10.54496737905816 L27.4,10.502973742168143 L27.3,10.462577877294416 L27.2,10.423794136895411 L27.1,10.386636300649426 L27.0,10.351117570558742 L26.9,10.317250566259037 L26.8,10.285047320535678 L26.7,10.254519275048526 L26.6,10.225677276266785 L26.5,10.198531571615284 L26.4,10.173091805833632 L26.3,10.14936701754947 L26.2,10.127365636067115 L26.1,10.107095478372639 L26.0,10.088563746356556 L25.9,10.07177702425501 L25.8,10.05674127631043 L25.7,10.043461844652466 L25.6,10.031943447399957 L25.5,10.0221901769846 L25.4,10.014205498696931 L25.3,10.007992249455125 L25.2,10.003552636797053 L25.1,10.000888238095955 L25.0,10.0 L24.9,10.000888238095955 L24.8,10.003552636797053 L24.7,10.007992249455125 L24.6,10.01420549869693 L24.5,10.0221901769846 L24.4,10.031943447399957 L24.3,10.043461844652466 L24.2,10.05674127631043 L24.1,10.07177702425501 L24.0,10.088563746356558 L23.9,10.10709547837264 L23.8,10.127365636067115 L23.7,10.149367017549471 L23.6,10.17309180583363 L23.5,10.198531571615284 L23.4,10.225677276266786 L23.3,10.254519275048526 L23.2,10.285047320535678 L23.1,10.317250566259041 L23.0,10.351117570558745 L22.9,10.386636300649426 L22.8,10.42379413689541 L22.7,10.462577877294416 L22.6,10.502973742168145 L22.5,10.54496737905816 L22.4,10.588543867825233 L22.3,10.6336877259504 L22.2,10.680382914035826 L22.1,10.728612841503525 L22.0,10.778360372489926 L21.9,10.829607831934144 L21.8,10.882337011857864 L21.7,10.936529177834533 L21.6,10.992165075645618 L21.5,11.049224938121547 L21.4,11.107688492164884 L21.3,11.167534965953248 L21.2,11.228743096319484 L21.1,11.291291136306302 L21.0,11.355156862892942 L20.9,11.420317584890844 L20.8,11.486750151005754 L20.7,11.554430958063259 L20.6,11.623335959394876 L20.5,11.693440673381744 L20.4,11.764720192152781 L20.3,11.837149190434376 L20.2,11.910701934548332 L20.1,11.985352291554877 L20.0,12.061073738537635 L19.9,12.137839372027047 L19.8,12.215621917559059 L19.7,12.294393739365624 L19.6,12.37412685019352 L19.5,12.454792921248146 L19.4,12.536363292258542 L19.3,12.618808981660305 L19.2,12.702100696892561 L19.1,12.78620884480549 L19.0,12.87110354217464 L18.9,12.956754626318258 L18.8,13.04313166581399 L18.7,13.130203971310998 L18.6,13.217940606433745 L18.5,13.306310398773542 L18.4,13.395281950963957 L18.3,13.484823651836129 L18.2,13.57490368765012 L18.1,13.665490053398123 L18.0,13.756550564175726 L17.9,13.84805286661705 L17.8,13.939964450389725 L17.7,14.032252659745701 L17.6,14.12488470512362 L17.5,14.217827674798846 L17.4,14.311048546576812 L17.3,14.40451419952565 L17.2,14.498191425743926 L17.1,14.592046942159211 L17.0,14.68604740235343 L16.9,14.780159408410677 L16.8,14.874349522783312 L16.7,14.968584280172205 L16.6,15.062830199416764 L16.5,15.157053795390642 L16.4,15.25122159089885 L16.3,15.345300128572031 L16.2,15.439255982753716 L16.1,15.533055771376297 L16.0,15.62666616782152 L15.9,15.720053912761262 L15.8,15.813185825974417 L15.7,15.906028818135688 L15.6,15.998549902572035 L15.5,16.090716206982712 L15.4,16.182494985118623 L15.3,16.273853628416912 L15.2,16.364759677586626 L15.1,16.455180834141363 L15.0,16.54508497187474 L14.9,16.634440148274713 L14.8,16.723214615872585 L14.7,16.81137683352273 L14.6,16.898895477609006 L14.5,16.985739453173903 L14.4,17.07187790496642 L14.3,17.157280228404794 L14.2,17.241916080450164 L14.1,17.32575539038729 L14.0,17.408768370508575 L13.9,17.490925526697453 L13.8,17.572197668907535 L13.7,17.652555921533672 L13.6,17.731971733671347 L13.5,17.810416889260654 L13.4,17.887863517111338 L13.3,17.964284100805298 L13.2,18.039651488473027 L13.1,18.113938902440562 L13.0,18.187119948743447 L12.9,18.259168626504394 L12.8,18.330059337171257 L12.7,18.399766893612096 L12.6,18.468266529064024 L12.5,18.535533905932738 L12.4,18.601545124439536 L12.3,18.6662767311128 L12.2,18.729705727120912 L12.1,18.791809576443608 L12.0,18.852566213878948 L11.9,18.91195405288294 L11.8,18.969951993239178 L11.7,19.026539428555612 L11.6,19.08169625358592 L11.5,19.13540287137281 L11.4,19.18764020021071 L11.3,19.238389680425417 L11.2,19.28763328096826 L11.1,19.335353505822454 L11.0,19.38153340021932 L10.9,19.426156556662278 L10.8,19.46920712075632 L10.7,19.510669796841015 L10.6,19.55052985342498 L10.5,19.588773128419906 L10.4,19.62538603417229 L10.3,19.660355562291052 L10.2,19.69366928826937 L10.1,19.725315375899026 L10.0,19.755282581475768 L9.9,19.78356025779415 L9.8,19.810138357930427 L9.7,19.835007438812177 L9.6,19.85815866457337 L9.5,19.879583809693738 L9.4,19.899275261921233 L9.3,19.91722602497665 L9.2,19.93342972103934 L9.1,19.947880593013256 L9.0,19.960573506572388 L8.9,19.971503951984992 L8.8,19.980668045715863 L8.7,19.988062531806126 L8.6,19.993684783030087 L8.5,19.997532801828658 L8.4,19.99960522101908 L8.3,19.999901304280684 L8.2,19.998420946416502 L8.1,19.995164673390622 L8.0,19.99013364214136 L7.9,19.983329640170147 L7.8,19.9747550849065 L7.7,19.96441302284907 L7.6,19.952307128483255 L7.5,19.938441702975688 L7.4,19.922821672646027 L7.3,19.905452587216672 L7.2,19.88634061784097 L7.1,19.86549255491063 L7.0,19.842915805643155 L6.9,19.818618391450048 L6.8,19.79260894508688 L6.7,19.764896707586093 L6.6,19.73549152497372 L6.5,19.70440384477113 L6.4,19.67164471228306 L6.3,19.637225766673307 L6.2,19.601159236829353 L6.1,19.563457937017514 L6.0,19.5241352623301 L5.9,19.48320518392618 L5.8,19.440682244067723 L5.7,19.39658155095278 L5.6,19.35091877334763 L5.5,19.303710135019717 L5.4,19.254972408973458 L5.3,19.204722911490844 L5.2,19.15297949597906 L5.1,19.099760546627262 L5.0,19.045084971874736 L4.9,18.988972197692856 L4.8,18.931442160683094 L4.7,18.87251530099367 L4.6,18.812212555057236 L4.5,18.750555348152297 L4.4,18.687565586790868 L4.3,18.62326565093523 L4.2,18.557678386046426 L4.1,18.490827094967365 L4.0,18.422735529643443 L3.9,18.3534278826836 L3.8,18.28292877876478 L3.7,18.211263265882923 L3.6,18.1384568064535 L3.5,18.064535268264883 L3.4,17.989524915287593 L3.3,17.91345239834288 L3.2,17.83634474563378 L3.1,17.758229353142152 L3.0,17.67913397489498 L2.9,17.599086713103546 L2.8,17.518116008178804 L2.7,17.43625062862666 L2.6,17.353519660826663 L2.5,17.269952498697734 L2.4,17.185578833254663 L2.3,17.10042864205903 L2.2,17.014532178568313 L2.1,16.927919961386984 L2.0,16.84062276342339 L1.9,16.752671600956294 L1.8,16.664097722614933 L1.7,16.574932598276526 L1.6,16.485207907885176 L1.5,16.394955530196146 L1.4,16.304207531449485 L1.3,16.212996153977038 L1.2,16.121353804746906 L1.1,16.029313043849406 L1.0,15.936906572928622 L0.9,15.84416722356367 L0.8,15.751127945603786 L0.7,15.657821795461413 L0.6,15.564281924367409 L0.5,15.470541566592571 L0.4,15.376634027639664 L0.3,15.282592672410123 L0.2,15.188450913349673 L0.1,15.09424219857704 L0.0,15.0" fill="#000000"  />
<!-- Footer -->
</svg>
