<!-- Header -->
<svg
    version="1.1"
    baseProfile="full"
    xmlns="http://www.w3.org/2000/svg"
    xmlns:xlink="http://www.w3.org/1999/xlink"
    xmlns:ev="http://www.w3.org/2001/xml-events"
    width="125.0"
    height="50.0"
    viewBox="-12.5 -17.5 125.0 50.0"
    preserveAspectRatio="none"
>
<!-- Body -->
<!-- Path -->
<path d="M0.0,0.0 L0.1,0.15705379539064146 L0.2,0.31395259764656686 L0.3,0.47054156659257157 L0.4,0.6266661678215213 L0.5,0.7821723252011543 L0.6,0.936906572928623 L0.7,1.0907162069827125 L0.8,1.243449435824274 L0.9,1.3949555301961465 L1.0,1.545084971874737 L1.1,1.693689601226457 L1.2,1.8406227634233896 L1.3,1.985739453173903 L1.4,2.128896457825363 L1.5,2.2699524986977337 L1.6,2.4087683705085765 L1.7,2.5452070787518566 L1.8,2.679133974894983 L1.9,2.8104168892606527 L2.0,2.938926261462366 L2.1,3.0645352682648825 L2.2,3.1871199487434487 L2.3,3.306559326618259 L2.4,3.422735529643443 L2.5,3.5355339059327373 L2.6,3.644843137107058 L2.7,3.7505553481522975 L2.8,3.8525662138789456 L2.9,3.9507750618784514 L3.0,4.045084971874737 L3.1,4.1354028713728095 L3.2,4.221639627510076 L3.3,4.303710135019719 L3.4,4.381533400219318 L3.5,4.455032620941839 L3.6,4.524135262330098 L3.7,4.588773128419906 L3.8,4.648882429441256 L3.9,4.704403844771127 L4.0,4.755282581475767 L4.1,4.801468428384715 L4.2,4.842915805643155 L4.3,4.879583809693737 L4.4,4.911436253643443 L4.5,4.938441702975689 L4.6,4.960573506572389 L4.7,4.9778098230154 L4.8,4.990133642141358 L4.9,4.997532801828658 L5.0,5.0 L5.1,4.997532801828658 L5.2,4.990133642141358 L5.3,4.9778098230154 L5.4,4.9605735065723895 L5.5,4.938441702975689 L5.6,4.911436253643443 L5.7,4.879583809693737 L5.8,4.842915805643156 L5.9,4.801468428384715 L6.0,4.755282581475768 L6.1,4.704403844771128 L6.2,4.648882429441257 L6.3,4.5887731284199065 L6.4,4.524135262330097 L6.5,4.455032620941839 L6.6,4.381533400219317 L6.7,4.303710135019719 L6.8,4.221639627510076 L6.9,4.135402871372809 L7.0,4.045084971874737 L7.1,3.9507750618784527 L7.2,3.852566213878946 L7.3,3.750555348152298 L7.4,3.644843137107057 L7.5,3.5355339059327395 L7.6,3.422735529643444 L7.7,3.306559326618259 L7.8,3.187119948743449 L7.9,3.0645352682648817 L8.0,2.9389262614623664 L8.1,2.810416889260654 L8.2,2.679133974894985 L8.3,2.545207078751857 L8.4,2.408768370508576 L8.5,2.2699524986977324 L8.6,2.1288964578253626 L8.7,1.9857394531739052 L8.8,1.8406227634233887 L8.9,1.6936896012264566 L9.0,1.5450849718747375 L9.1,1.3949555301961478 L9.2,1.2434494358242763 L9.3,1.0907162069827117 L9.4,0.9369065729286229 L9.5,0.7821723252011549 L9.6,0.6266661678215226 L9.7,0.47054156659257396 L9.8,0.3139525976465657 L9.9,0.15705379539064118 L10.0,6.123233995736766e-16 L10.1,-0.15705379539063996 L10.2,-0.3139525976465645 L10.3,-0.47054156659257496 L10.4,-0.6266661678215214 L10.5,-0.7821723252011537 L10.6,-0.9369065729286195 L10.7,-1.0907162069827103 L10.8,-1.243449435824273 L10.9,-1.3949555301961465 L11.0,-1.5450849718747364 L11.1,-1.6936896012264555 L11.2,-1.8406227634233874 L11.3,-1.9857394531739039 L11.4,-2.1288964578253635 L11.5,-2.269952498697731 L11.6,-2.408768370508575 L11.7,-2.5452070787518544 L11.8,-2.6791339748949836 L11.9,-2.8104168892606527 L12.0,-2.938926261462365 L12.1,-3.064535268264881 L12.2,-3.1871199487434465 L12.3,-3.3065593266182605 L12.4,-3.422735529643442 L12.5,-3.5355339059327373 L12.6,-3.6448431371070567 L12.7,-3.7505553481522975 L12.8,-3.852566213878947 L12.9,-3.950775061878452 L13.0,-4.045084971874736 L13.1,-4.135402871372808 L13.2,-4.2216396275100765 L13.3,-4.303710135019717 L13.4,-4.381533400219318 L13.5,-4.455032620941839 L13.6,-4.5241352623300966 L13.7,-4.588773128419905 L13.8,-4.648882429441257 L13.9,-4.704403844771127 L14.0,-4.755282581475767 L14.1,-4.801468428384716 L14.2,-4.8429158056431545 L14.3,-4.879583809693737 L14.4,-4.911436253643443 L14.5,-4.938441702975688 L14.6,-4.960573506572389 L14.7,-4.9778098230154 L14.8,-4.990133642141358 L14.9,-4.997532801828658 L15.0,-5.0 L15.1,-4.997532801828658 L15.2,-4.990133642141358 L15.3,-4.9778098230154 L15.4,-4.9605735065723895 L15.5,-4.938441702975689 L15.6,-4.911436253643443 L15.7,-4.879583809693738 L15.8,-4.842915805643155 L15.9,-4.801468428384716 L16.0,-4.755282581475768 L16.1,-4.704403844771127 L16.2,-4.648882429441258 L16.3,-4.588773128419906 L16.4,-4.524135262330099 L16.5,-4.455032620941838 L16.6,-4.381533400219319 L16.7,-4.303710135019717 L16.8,-4.221639627510075 L16.9,-4.135402871372811 L17.0,-4.045084971874735 L17.1,-3.950775061878453 L17.2,-3.852566213878945 L17.3,-3.7505553481522975 L17.4,-3.6448431371070606 L17.5,-3.5355339059327386 L17.6,-3.4227355296434414 L17.7,-3.3065593266182614 L17.8,-3.1871199487434483 L17.9,-3.0645352682648825 L18.0,-2.938926261462367 L18.1,-2.810416889260651 L18.2,-2.6791339748949854 L18.3,-2.545207078751852 L18.4,-2.4087683705085805 L18.5,-2.269952498697731 L18.6,-2.128896457825361 L18.7,-1.9857394531739059 L18.8,-1.8406227634233894 L18.9,-1.6936896012264613 L19.0,-1.5450849718747381 L19.1,-1.3949555301961438 L19.2,-1.2434494358242767 L19.3,-1.090716206982712 L19.4,-0.9369065729286279 L19.5,-0.7821723252011556 L19.6,-0.626666167821519 L19.7,-0.47054156659257895 L19.8,-0.3139525976465663 L19.9,-0.1570537953906418 L20.0,-1.2246467991473533e-15 L20.1,0.15705379539063935 L20.2,0.3139525976465639 L20.3,0.47054156659257657 L20.4,0.6266661678215164 L20.5,0.7821723252011487 L20.6,0.9369065729286298 L20.7,1.0907162069827097 L20.8,1.2434494358242745 L20.9,1.3949555301961458 L21.0,1.545084971874736 L21.1,1.693689601226459 L21.2,1.840622763423383 L21.3,1.9857394531739074 L21.4,2.128896457825359 L21.5,2.269952498697729 L21.6,2.4087683705085743 L21.7,2.545207078751858 L21.8,2.679133974894983 L21.9,2.810416889260649 L22.0,2.9389262614623646 L22.1,3.064535268264888 L22.2,3.187119948743446 L22.3,3.3065593266182565 L22.4,3.4227355296434396 L22.5,3.535533905932737 L22.6,3.6448431371070593 L22.7,3.7505553481522957 L22.8,3.852566213878946 L22.9,3.9507750618784514 L23.0,4.045084971874734 L23.1,4.135402871372808 L23.2,4.221639627510074 L23.3,4.303710135019716 L23.4,4.381533400219316 L23.5,4.45503262094184 L23.6,4.524135262330098 L23.7,4.588773128419905 L23.8,4.648882429441257 L23.9,4.704403844771125 L24.0,4.755282581475767 L24.1,4.801468428384715 L24.2,4.8429158056431545 L24.3,4.879583809693737 L24.4,4.911436253643442 L24.5,4.938441702975688 L24.6,4.9605735065723895 L24.7,4.9778098230154 L24.8,4.990133642141358 L24.9,4.997532801828658 L25.0,5.0 L25.1,4.997532801828658 L25.2,4.990133642141358 L25.3,4.9778098230153995 L25.4,4.9605735065723895 L25.5,4.938441702975688 L25.6,4.911436253643443 L25.7,4.879583809693739 L25.8,4.842915805643155 L25.9,4.801468428384718 L26.0,4.755282581475768 L26.1,4.704403844771125 L26.2,4.648882429441258 L26.3,4.588773128419907 L26.4,4.5241352623300966 L26.5,4.455032620941838 L26.6,4.381533400219321 L26.7,4.303710135019722 L26.8,4.221639627510076 L26.9,4.1354028713728095 L27.0,4.045084971874738 L27.1,3.950775061878453 L27.2,3.8525662138789487 L27.3,3.750555348152295 L27.4,3.644843137107061 L27.5,3.5355339059327417 L27.6,3.422735529643442 L27.7,3.3065593266182653 L27.8,3.1871199487434487 L27.9,3.064535268264883 L28.0,2.938926261462367 L28.1,2.8104168892606554 L28.2,2.6791339748949783 L28.3,2.5452070787518526 L28.4,2.408768370508581 L28.5,2.2699524986977395 L28.6,2.1288964578253617 L28.7,1.9857394531739023 L28.8,1.8406227634233898 L28.9,1.6936896012264577 L29.0,1.545084971874739 L29.1,1.3949555301961403 L29.2,1.2434494358242774 L29.3,1.0907162069827172 L29.4,0.9369065729286284 L29.5,0.7821723252011604 L29.6,0.6266661678215195 L29.7,0.47054156659257074 L29.8,0.3139525976465669 L29.9,0.15705379539065129 L30.0,1.0718754395722281e-14 L30.1,-0.1570537953906476 L30.2,-0.31395259764656325 L30.3,-0.47054156659256713 L30.4,-0.6266661678215159 L30.5,-0.7821723252011569 L30.6,-0.9369065729286248 L30.7,-1.0907162069827134 L30.8,-1.2434494358242738 L30.9,-1.3949555301961367 L31.0,-1.5450849718747353 L31.1,-1.6936896012264544 L31.2,-1.8406227634233863 L31.3,-1.985739453173899 L31.4,-2.128896457825358 L31.5,-2.2699524986977364 L31.6,-2.408768370508578 L31.7,-2.5452070787518495 L31.8,-2.6791339748949756 L31.9,-2.8104168892606523 L32.0,-2.938926261462364 L32.1,-3.0645352682648874 L32.2,-3.1871199487434527 L32.3,-3.306559326618256 L32.4,-3.422735529643439 L32.5,-3.5355339059327395 L32.6,-3.644843137107059 L32.7,-3.750555348152298 L32.8,-3.8525662138789403 L32.9,-3.950775061878451 L33.0,-4.045084971874741 L33.1,-4.135402871372812 L33.2,-4.221639627510073 L33.3,-4.303710135019716 L33.4,-4.38153340021932 L33.5,-4.45503262094184 L33.6,-4.524135262330098 L33.7,-4.588773128419906 L33.8,-4.648882429441254 L33.9,-4.704403844771124 L34.0,-4.75528258147577 L34.1,-4.801468428384715 L34.2,-4.8429158056431545 L34.3,-4.879583809693734 L34.4,-4.911436253643444 L34.5,-4.938441702975689 L34.6,-4.9605735065723895 L34.7,-4.9778098230154 L34.8,-4.990133642141357 L34.9,-4.997532801828658 L35.0,-5.0 L35.1,-4.997532801828658 L35.2,-4.990133642141357 L35.3,-4.9778098230154 L35.4,-4.9605735065723895 L35.5,-4.938441702975688 L35.6,-4.911436253643443 L35.7,-4.8795838096937345 L35.8,-4.842915805643156 L35.9,-4.801468428384716 L36.0,-4.755282581475769 L36.1,-4.704403844771125 L36.2,-4.648882429441255 L36.3,-4.588773128419907 L36.4,-4.5241352623301 L36.5,-4.455032620941842 L36.6,-4.381533400219313 L36.7,-4.303710135019713 L36.8,-4.22163962751008 L36.9,-4.1354028713728095 L37.0,-4.045084971874734 L37.1,-3.9507750618784483 L37.2,-3.852566213878943 L37.3,-3.7505553481523006 L37.4,-3.6448431371070615 L37.5,-3.535533905932742 L37.6,-3.4227355296434423 L37.7,-3.306559326618259 L37.8,-3.187119948743456 L37.9,-3.0645352682648905 L38.0,-2.9389262614623672 L38.1,-2.8104168892606483 L38.2,-2.6791339748949787 L38.3,-2.545207078751868 L38.4,-2.4087683705085814 L38.5,-2.269952498697732 L38.6,-2.128896457825362 L38.7,-1.9857394531739028 L38.8,-1.8406227634233985 L38.9,-1.6936896012264582 L39.0,-1.5450849718747395 L39.1,-1.3949555301961494 L39.2,-1.2434494358242694 L39.3,-1.0907162069827265 L39.4,-0.9369065729286377 L39.5,-0.7821723252011524 L39.6,-0.6266661678215201 L39.7,-0.4705415665925625 L39.8,-0.3139525976465676 L39.9,-0.15705379539064301 L40.0,-2.4492935982947065e-15 L40.1,0.15705379539063813 L40.2,0.31395259764656264 L40.3,0.47054156659255764 L40.4,0.6266661678215152 L40.5,0.7821723252011475 L40.6,0.9369065729286329 L40.7,1.0907162069827216 L40.8,1.2434494358242647 L40.9,1.3949555301961447 L41.0,1.5450849718747262 L41.1,1.6936896012264537 L41.2,1.8406227634234025 L41.3,1.9857394531738983 L41.4,2.1288964578253577 L41.5,2.2699524986977435 L41.6,2.408768370508577 L41.7,2.545207078751864 L41.8,2.6791339748949823 L41.9,2.810416889260644 L42.0,2.9389262614623632 L42.1,3.0645352682648728 L42.2,3.187119948743452 L42.3,3.306559326618255 L42.4,3.4227355296434325 L42.5,3.535533905932739 L42.6,3.644843137107064 L42.7,3.7505553481522975 L42.8,3.8525662138789403 L42.9,3.950775061878451 L43.0,4.045084971874731 L43.1,4.135402871372812 L43.2,4.221639627510073 L43.3,4.303710135019711 L43.4,4.381533400219319 L43.5,4.455032620941836 L43.6,4.524135262330098 L43.7,4.588773128419909 L43.8,4.648882429441254 L43.9,4.704403844771124 L44.0,4.755282581475767 L44.1,4.801468428384714 L44.2,4.842915805643159 L44.3,4.879583809693734 L44.4,4.911436253643442 L44.5,4.938441702975689 L44.6,4.960573506572389 L44.7,4.9778098230154 L44.8,4.990133642141357 L44.9,4.997532801828658 L45.0,5.0 L45.1,4.997532801828658 L45.2,4.990133642141358 L45.3,4.9778098230154 L45.4,4.9605735065723895 L45.5,4.93844170297569 L45.6,4.911436253643443 L45.7,4.879583809693739 L45.8,4.842915805643156 L45.9,4.801468428384716 L46.0,4.755282581475772 L46.1,4.704403844771125 L46.2,4.648882429441259 L46.3,4.588773128419908 L46.4,4.524135262330101 L46.5,4.455032620941843 L46.6,4.381533400219322 L46.7,4.303710135019713 L46.8,4.221639627510081 L46.9,4.135402871372815 L47.0,4.045084971874734 L47.1,3.9507750618784545 L47.2,3.8525662138789434 L47.3,3.750555348152301 L47.4,3.6448431371070624 L47.5,3.535533905932743 L47.6,3.422735529643443 L47.7,3.3065593266182596 L47.8,3.1871199487434563 L47.9,3.0645352682648914 L48.0,2.9389262614623677 L48.1,2.810416889260649 L48.2,2.679133974894987 L48.3,2.5452070787518615 L48.4,2.4087683705085823 L48.5,2.269952498697733 L48.6,2.1288964578253626 L48.7,1.9857394531739114 L48.8,1.840622763423399 L48.9,1.6936896012264588 L49.0,1.54508497187474 L49.1,1.39495553019615 L49.2,1.24344943582427 L49.3,1.090716206982727 L49.4,0.9369065729286209 L49.5,0.782172325201153 L49.6,0.6266661678215295 L49.7,0.4705415665925632 L49.8,0.31395259764656813 L49.9,0.15705379539064365 L50.0,3.061616997868383e-15 L50.1,-0.15705379539063752 L50.2,-0.313952597646562 L50.3,-0.47054156659257473 L50.4,-0.6266661678215146 L50.5,-0.7821723252011469 L50.6,-0.9369065729286323 L50.7,-1.0907162069827123 L50.8,-1.2434494358242727 L50.9,-1.3949555301961443 L51.0,-1.5450849718747426 L51.1,-1.6936896012264533 L51.2,-1.8406227634233936 L51.3,-1.9857394531738979 L51.4,-2.1288964578253493 L51.5,-2.269952498697727 L51.6,-2.4087683705085765 L51.7,-2.5452070787518637 L51.8,-2.679133974894967 L51.9,-2.8104168892606585 L52.0,-2.938926261462363 L52.1,-3.064535268264886 L52.2,-3.187119948743459 L52.3,-3.306559326618248 L52.4,-3.4227355296434387 L52.5,-3.5355339059327386 L52.6,-3.6448431371070518 L52.7,-3.7505553481522975 L52.8,-3.8525662138789505 L52.9,-3.9507750618784505 L53.0,-4.045084971874741 L53.1,-4.135402871372807 L53.2,-4.2216396275100685 L53.3,-4.303710135019715 L53.4,-4.38153340021931 L53.5,-4.455032620941836 L53.6,-4.524135262330098 L53.7,-4.588773128419909 L53.8,-4.648882429441256 L53.9,-4.70440384477113 L54.0,-4.755282581475767 L54.1,-4.8014684283847116 L54.2,-4.8429158056431545 L54.3,-4.879583809693734 L54.4,-4.911436253643442 L54.5,-4.938441702975686 L54.6,-4.96057350657239 L54.7,-4.9778098230154 L54.8,-4.990133642141357 L54.9,-4.997532801828657 L55.0,-5.0 L55.1,-4.997532801828658 L55.2,-4.990133642141358 L55.3,-4.9778098230154 L55.4,-4.960573506572391 L55.5,-4.9384417029756875 L55.6,-4.911436253643443 L55.7,-4.8795838096937345 L55.8,-4.842915805643156 L55.9,-4.801468428384719 L56.0,-4.755282581475769 L56.1,-4.704403844771125 L56.2,-4.648882429441259 L56.3,-4.588773128419912 L56.4,-4.524135262330093 L56.5,-4.455032620941839 L56.6,-4.381533400219314 L56.7,-4.303710135019719 L56.8,-4.221639627510081 L56.9,-4.135402871372811 L57.0,-4.045084971874744 L57.1,-3.9507750618784545 L57.2,-3.8525662138789443 L57.3,-3.7505553481523135 L57.4,-3.6448431371070567 L57.5,-3.5355339059327306 L57.6,-3.4227355296434436 L57.7,-3.3065593266182667 L57.8,-3.18711994874345 L57.9,-3.064535268264892 L58.0,-2.9389262614623686 L58.1,-2.8104168892606642 L58.2,-2.679133974894973 L58.3,-2.5452070787518544 L58.4,-2.4087683705085827 L58.5,-2.2699524986977333 L58.6,-2.1288964578253715 L58.7,-1.9857394531739039 L58.8,-1.8406227634233998 L58.9,-1.6936896012264593 L59.0,-1.5450849718747488 L59.1,-1.3949555301961336 L59.2,-1.2434494358242705 L59.3,-1.090716206982719 L59.4,-0.9369065729286215 L59.5,-0.7821723252011624 L59.6,-0.6266661678215213 L59.7,-0.47054156659256374 L59.8,-0.3139525976465865 L59.9,-0.15705379539065312 L60.0,-2.1437508791444562e-14 L60.1,0.1570537953906458 L60.2,0.3139525976465791 L60.3,0.4705415665925564 L60.4,0.6266661678215141 L60.5,0.782172325201155 L60.6,0.9369065729286142 L60.7,1.0907162069827117 L60.8,1.2434494358242634 L60.9,1.3949555301961265 L61.0,1.545084971874742 L61.1,1.6936896012264526 L61.2,1.840622763423393 L61.3,1.9857394531738972 L61.4,2.128896457825365 L61.5,2.2699524986977266 L61.6,2.408768370508576 L61.7,2.5452070787518477 L61.8,2.6791339748949667 L61.9,2.810416889260658 L62.0,2.9389262614623624 L62.1,3.0645352682648856 L62.2,3.1871199487434443 L62.3,3.3065593266182614 L62.4,3.422735529643438 L62.5,3.5355339059327258 L62.6,3.644843137107051 L62.7,3.7505553481523086 L62.8,3.852566213878939 L62.9,3.95077506187845 L63.0,4.04508497187474 L63.1,4.135402871372806 L63.2,4.221639627510077 L63.3,4.303710135019715 L63.4,4.38153340021931 L63.5,4.455032620941836 L63.6,4.52413526233009 L63.7,4.588773128419902 L63.8,4.648882429441256 L63.9,4.704403844771123 L64.0,4.755282581475766 L64.1,4.801468428384716 L64.2,4.842915805643159 L64.3,4.879583809693738 L64.4,4.911436253643445 L64.5,4.938441702975689 L64.6,4.960573506572389 L64.7,4.9778098230154 L64.8,4.990133642141357 L64.9,4.997532801828657 L65.0,5.0 L65.1,4.997532801828658 L65.2,4.990133642141358 L65.3,4.9778098230154 L65.4,4.960573506572389 L65.5,4.93844170297569 L65.6,4.911436253643447 L65.7,4.87958380969374 L65.8,4.842915805643156 L65.9,4.801468428384713 L66.0,4.755282581475764 L66.1,4.704403844771126 L66.2,4.648882429441253 L66.3,4.588773128419905 L66.4,4.524135262330101 L66.5,4.455032620941839 L66.6,4.381533400219323 L66.7,4.303710135019719 L66.8,4.221639627510072 L66.9,4.135402871372801 L67.0,4.045084971874735 L67.1,3.950775061878455 L67.2,3.8525662138789443 L67.3,3.7505553481523024 L67.4,3.644843137107057 L67.5,3.535533905932744 L67.6,3.422735529643457 L67.7,3.3065593266182534 L67.8,3.1871199487434643 L67.9,3.064535268264878 L68.0,2.9389262614623544 L68.1,2.8104168892606647 L68.2,2.679133974894988 L68.3,2.54520707875187 L68.4,2.408768370508583 L68.5,2.2699524986977337 L68.6,2.128896457825388 L68.7,1.9857394531738881 L68.8,1.8406227634233838 L68.9,1.6936896012264433 L69.0,1.5450849718747328 L69.1,1.3949555301961511 L69.2,1.2434494358242711 L69.3,1.0907162069827194 L69.4,0.936906572928622 L69.5,0.7821723252011453 L69.6,0.6266661678215396 L69.7,0.47054156659256435 L69.8,0.31395259764656935 L69.9,0.15705379539063596 L70.0,4.2862637970157365e-15 L70.1,-0.15705379539062742 L70.2,-0.3139525976465608 L70.3,-0.4705415665925558 L70.4,-0.6266661678215311 L70.5,-0.7821723252011369 L70.6,-0.9369065729286137 L70.7,-1.0907162069827285 L70.8,-1.243449435824263 L70.9,-1.394955530196143 L71.0,-1.5450849718747415 L71.1,-1.6936896012264353 L71.2,-1.8406227634233923 L71.3,-1.9857394531739128 L71.4,-2.1288964578253804 L71.5,-2.269952498697742 L71.6,-2.4087683705085756 L71.7,-2.545207078751863 L71.8,-2.679133974894981 L71.9,-2.810416889260657 L72.0,-2.9389262614623624 L72.1,-3.0645352682648714 L72.2,-3.1871199487434576 L72.3,-3.3065593266182476 L72.4,-3.4227355296434503 L72.5,-3.5355339059327378 L72.6,-3.644843137107051 L72.7,-3.750555348152296 L72.8,-3.8525662138789385 L72.9,-3.95077506187845 L73.0,-4.045084971874729 L73.1,-4.135402871372796 L73.2,-4.221639627510086 L73.3,-4.303710135019714 L73.4,-4.381533400219327 L73.5,-4.455032620941843 L73.6,-4.5241352623300894 L73.7,-4.588773128419908 L73.8,-4.648882429441256 L73.9,-4.704403844771129 L74.0,-4.755282581475772 L74.1,-4.8014684283847116 L74.2,-4.842915805643159 L74.3,-4.879583809693737 L74.4,-4.911436253643445 L74.5,-4.938441702975689 L74.6,-4.960573506572388 L74.7,-4.9778098230154 L74.8,-4.990133642141357 L74.9,-4.997532801828658 L75.0,-5.0 L75.1,-4.997532801828658 L75.2,-4.990133642141358 L75.3,-4.9778098230154 L75.4,-4.960573506572389 L75.5,-4.93844170297569 L75.6,-4.911436253643447 L75.7,-4.879583809693735 L75.8,-4.842915805643161 L75.9,-4.801468428384709 L76.0,-4.755282581475769 L76.1,-4.7044038447711385 L76.2,-4.648882429441253 L76.3,-4.588773128419913 L76.4,-4.524135262330093 L76.5,-4.455032620941839 L76.6,-4.381533400219332 L76.7,-4.303710135019711 L76.8,-4.221639627510082 L76.9,-4.1354028713728015 L77.0,-4.045084971874735 L77.1,-3.9507750618784554 L77.2,-3.8525662138789447 L77.3,-3.7505553481523024 L77.4,-3.644843137107057 L77.5,-3.535533905932744 L77.6,-3.422735529643457 L77.7,-3.3065593266182676 L77.8,-3.187119948743451 L77.9,-3.0645352682648785 L78.0,-2.9389262614623695 L78.1,-2.810416889260665 L78.2,-2.679133974894989 L78.3,-2.5452070787518704 L78.4,-2.408768370508568 L78.5,-2.26995249869775 L78.6,-2.1288964578253884 L78.7,-1.9857394531738888 L78.8,-1.8406227634234174 L78.9,-1.6936896012264437 L79.0,-1.5450849718747333 L79.1,-1.394955530196169 L79.2,-1.2434494358242718 L79.3,-1.09071620698272 L79.4,-0.9369065729286052 L79.5,-0.7821723252011635 L79.6,-0.6266661678215225 L79.7,-0.47054156659256496 L79.8,-0.31395259764657 L79.9,-0.1570537953906366 L80.0,-4.898587196589413e-15 L80.1,0.1570537953906268 L80.2,0.3139525976465602 L80.3,0.4705415665925552 L80.4,0.6266661678215129 L80.5,0.7821723252011539 L80.6,0.9369065729285957 L80.7,1.0907162069827105 L80.8,1.2434494358242623 L80.9,1.3949555301961594 L81.0,1.545084971874724 L81.1,1.6936896012264346 L81.2,1.8406227634234082 L81.3,1.98573945317388 L81.4,2.1288964578253795 L81.5,2.2699524986977098 L81.6,2.408768370508559 L81.7,2.5452070787518624 L81.8,2.6791339748949805 L81.9,2.8104168892606425 L82.0,2.9389262614623473 L82.1,3.064535268264857 L82.2,3.187119948743443 L82.3,3.3065593266182605 L82.4,3.422735529643463 L82.5,3.5355339059327244 L82.6,3.6448431371070504 L82.7,3.750555348152296 L82.8,3.8525662138789385 L82.9,3.9507750618784603 L83.0,4.04508497187475 L83.1,4.135402871372796 L83.2,4.2216396275100765 L83.3,4.3037101350197045 L83.4,4.381533400219327 L83.5,4.455032620941843 L83.6,4.5241352623300966 L83.7,4.588773128419901 L83.8,4.648882429441249 L83.9,4.704403844771135 L84.0,4.755282581475766 L84.1,4.801468428384716 L84.2,4.842915805643149 L84.3,4.879583809693734 L84.4,4.911436253643445 L84.5,4.938441702975688 L84.6,4.960573506572388 L84.7,4.977809823015399 L84.8,4.990133642141356 L84.9,4.997532801828657 L85.0,5.0 L85.1,4.997532801828658 L85.2,4.990133642141357 L85.3,4.9778098230154 L85.4,4.9605735065723895 L85.5,4.93844170297569 L85.6,4.911436253643447 L85.7,4.879583809693732 L85.8,4.842915805643156 L85.9,4.801468428384714 L86.0,4.755282581475775 L86.1,4.704403844771132 L86.2,4.648882429441253 L86.3,4.588773128419906 L86.4,4.524135262330101 L86.5,4.455032620941848 L86.6,4.381533400219332 L86.7,4.3037101350197196 L86.8,4.221639627510073 L86.9,4.135402871372822 L87.0,4.045084971874745 L87.1,3.950775061878456 L87.2,3.852566213878945 L87.3,3.750555348152303 L87.4,3.6448431371070455 L87.5,3.5355339059327573 L87.6,3.4227355296434574 L87.7,3.3065593266182547 L87.8,3.1871199487434647 L87.9,3.064535268264865 L88.0,2.9389262614623703 L88.1,2.8104168892606656 L88.2,2.6791339748949894 L88.3,2.5452070787518712 L88.4,2.408768370508553 L88.5,2.2699524986977346 L88.6,2.1288964578253893 L88.7,1.985739453173922 L88.8,1.8406227634234016 L88.9,1.6936896012264444 L89.0,1.545084971874734 L89.1,1.3949555301961525 L89.2,1.2434494358242896 L89.3,1.090716206982738 L89.4,0.9369065729286232 L89.5,0.7821723252011465 L89.6,0.6266661678215407 L89.7,0.4705415665925833 L89.8,0.31395259764657063 L89.9,0.15705379539063719 L90.0,5.5109105961630896e-15 L90.1,-0.1570537953906262 L90.2,-0.3139525976465419 L90.3,-0.47054156659255464 L90.4,-0.62666616782153 L90.5,-0.7821723252011358 L90.6,-0.9369065729286125 L90.7,-1.0907162069827272 L90.8,-1.2434494358242616 L90.9,-1.3949555301961416 L91.0,-1.5450849718747235 L91.1,-1.693689601226434 L91.2,-1.8406227634233914 L91.3,-1.9857394531739117 L91.4,-2.128896457825347 L91.5,-2.2699524986977253 L91.6,-2.4087683705085747 L91.7,-2.5452070787518615 L91.8,-2.67913397489498 L91.9,-2.810416889260642 L92.0,-2.938926261462347 L92.1,-3.06453526826487 L92.2,-3.1871199487434563 L92.3,-3.3065593266182463 L92.4,-3.4227355296434365 L92.5,-3.535533905932737 L92.6,-3.64484313710705 L92.7,-3.7505553481522957 L92.8,-3.852566213878938 L92.9,-3.950775061878471 L93.0,-4.045084971874728 L93.1,-4.135402871372795 L93.2,-4.221639627510067 L93.3,-4.303710135019713 L93.4,-4.381533400219326 L93.5,-4.455032620941843 L93.6,-4.5241352623300894 L93.7,-4.5887731284199 L93.8,-4.648882429441249 L93.9,-4.704403844771129 L94.0,-4.755282581475772 L94.1,-4.801468428384711 L94.2,-4.842915805643154 L94.3,-4.879583809693737 L94.4,-4.911436253643445 L94.5,-4.938441702975688 L94.6,-4.960573506572388 L94.7,-4.977809823015399 L94.8,-4.990133642141357 L94.9,-4.997532801828658 L95.0,-5.0 L95.1,-4.997532801828658 L95.2,-4.990133642141358 L95.3,-4.977809823015401 L95.4,-4.9605735065723895 L95.5,-4.93844170297569 L95.6,-4.911436253643447 L95.7,-4.879583809693735 L95.8,-4.842915805643161 L95.9,-4.8014684283847195 L96.0,-4.75528258147577 L96.1,-4.704403844771127 L96.2,-4.648882429441254 L96.3,-4.588773128419913 L96.4,-4.524135262330102 L96.5,-4.455032620941848 L96.6,-4.381533400219324 L96.7,-4.303710135019711 L96.8,-4.221639627510083 L96.9,-4.135402871372812 L97.0,-4.0450849718747355 L97.1,-3.950775061878456 L97.2,-3.8525662138789456 L97.3,-3.7505553481523037 L97.4,-3.64484313710707 L97.5,-3.535533905932745 L97.6,-3.4227355296434583 L97.7,-3.3065593266182685 L97.8,-3.187119948743452 L97.9,-3.06453526826488 L98.0,-2.938926261462371 L98.1,-2.810416889260666 L98.2,-2.67913397489499 L98.3,-2.5452070787518717 L98.4,-2.408768370508569 L98.5,-2.269952498697751 L98.6,-2.1288964578253897 L98.7,-1.985739453173906 L98.8,-1.8406227634233854 L98.9,-1.693689601226445 L99.0,-1.5450849718747346 L99.1,-1.39495553019617 L99.2,-1.2434494358242902 L99.3,-1.0907162069827212 L99.4,-0.9369065729286065 L99.5,-0.7821723252011648 L99.6,-0.6266661678215237 L99.7,-0.47054156659256613 L99.8,-0.31395259764657124 L99.9,-0.15705379539063782 L100.0,-6.123233995736766e-15 L100.0,14.999999999999995 L99.9,14.842946204609362 L99.8,14.686047402353429 L99.7,14.529458433407434 L99.6,14.373333832178476 L99.5,14.217827674798835 L99.4,14.063093427071394 L99.3,13.909283793017279 L99.2,13.75655056417571 L99.1,13.605044469803829 L99.0,13.454915028125265 L98.9,13.306310398773554 L98.8,13.159377236576615 L98.7,13.014260546826094 L98.6,12.87110354217461 L98.5,12.730047501302248 L98.4,12.591231629491432 L98.3,12.454792921248128 L98.2,12.32086602510501 L98.1,12.189583110739335 L98.0,12.06107373853763 L97.9,11.93546473173512 L97.8,11.812880051256549 L97.7,11.693440673381732 L97.6,11.577264470356543 L97.5,11.464466094067255 L97.4,11.35515686289293 L97.3,11.249444651847696 L97.2,11.147433786121054 L97.1,11.049224938121544 L97.0,10.954915028125264 L96.9,10.864597128627189 L96.8,10.778360372489917 L96.7,10.69628986498029 L96.6,10.618466599780676 L96.5,10.544967379058152 L96.4,10.475864737669898 L96.3,10.411226871580087 L96.2,10.351117570558745 L96.1,10.295596155228873 L96.0,10.24471741852423 L95.9,10.19853157161528 L95.8,10.15708419435684 L95.7,10.120416190306265 L95.6,10.088563746356552 L95.5,10.061558297024309 L95.4,10.03942649342761 L95.3,10.022190176984598 L95.2,10.009866357858641 L95.1,10.002467198171342 L95.0,10.0 L94.9,10.002467198171342 L94.8,10.009866357858643 L94.7,10.022190176984601 L94.6,10.039426493427612 L94.5,10.061558297024312 L94.4,10.088563746356556 L94.3,10.120416190306262 L94.2,10.157084194356846 L94.1,10.19853157161529 L94.0,10.244717418524228 L93.9,10.295596155228871 L93.8,10.35111757055875 L93.7,10.4112268715801 L93.6,10.47586473766991 L93.5,10.544967379058157 L93.4,10.618466599780675 L93.3,10.696289864980287 L93.2,10.778360372489933 L93.1,10.864597128627205 L93.0,10.95491502812527 L92.9,11.04922493812153 L92.8,11.147433786121063 L92.7,11.249444651847703 L92.6,11.355156862892951 L92.5,11.464466094067262 L92.4,11.577264470356564 L92.3,11.693440673381755 L92.2,11.812880051256544 L92.1,11.93546473173513 L92.0,12.061073738537653 L91.9,12.189583110739358 L91.8,12.320866025105019 L91.7,12.454792921248139 L91.6,12.591231629491425 L91.5,12.730047501302275 L91.4,12.871103542174653 L91.3,13.014260546826089 L91.2,13.159377236576608 L91.1,13.306310398773565 L91.0,13.454915028125276 L90.9,13.605044469803858 L90.8,13.756550564175738 L90.7,13.909283793017273 L90.6,14.063093427071388 L90.5,14.217827674798864 L90.4,14.37333383217847 L90.3,14.529458433407445 L90.2,14.686047402353458 L90.1,14.842946204609374 L90.0,15.000000000000005 L89.9,15.157053795390636 L89.8,15.313952597646571 L89.7,15.470541566592583 L89.6,15.62666616782154 L89.5,15.782172325201147 L89.4,15.936906572928624 L89.3,16.090716206982737 L89.2,16.24344943582429 L89.1,16.394955530196153 L89.0,16.545084971874733 L88.9,16.693689601226446 L88.8,16.8406227634234 L88.7,16.98573945317392 L88.6,17.12889645782539 L88.5,17.269952498697734 L88.4,17.408768370508554 L88.3,17.545207078751872 L88.2,17.679133974894988 L88.1,17.810416889260665 L88.0,17.93892626146237 L87.9,18.064535268264866 L87.8,18.187119948743465 L87.7,18.306559326618256 L87.6,18.422735529643457 L87.5,18.53553390593276 L87.4,18.644843137107046 L87.3,18.750555348152304 L87.2,18.852566213878944 L87.1,18.950775061878456 L87.0,19.045084971874743 L86.9,19.135402871372822 L86.8,19.221639627510072 L86.7,19.30371013501972 L86.6,19.381533400219332 L86.5,19.45503262094185 L86.4,19.524135262330102 L86.3,19.588773128419906 L86.2,19.64888242944125 L86.1,19.704403844771132 L86.0,19.755282581475775 L85.9,19.801468428384716 L85.8,19.842915805643155 L85.7,19.87958380969373 L85.6,19.911436253643448 L85.5,19.93844170297569 L85.4,19.960573506572388 L85.3,19.9778098230154 L85.2,19.99013364214136 L85.1,19.997532801828658 L85.0,20.0 L84.9,19.997532801828658 L84.8,19.990133642141355 L84.7,19.9778098230154 L84.6,19.960573506572388 L84.5,19.938441702975688 L84.4,19.911436253643444 L84.3,19.879583809693735 L84.2,19.84291580564315 L84.1,19.801468428384716 L84.0,19.755282581475768 L83.9,19.704403844771136 L83.8,19.64888242944125 L83.7,19.588773128419902 L83.6,19.5241352623301 L83.5,19.455032620941843 L83.4,19.381533400219325 L83.3,19.303710135019706 L83.2,19.221639627510076 L83.1,19.135402871372797 L83.0,19.04508497187475 L82.9,18.95077506187846 L82.8,18.852566213878937 L82.7,18.750555348152297 L82.6,18.64484313710705 L82.5,18.535533905932724 L82.4,18.422735529643465 L82.3,18.30655932661826 L82.2,18.187119948743444 L82.1,18.064535268264855 L82.0,17.93892626146235 L81.9,17.810416889260644 L81.8,17.67913397489498 L81.7,17.54520707875186 L81.6,17.40876837050856 L81.5,17.26995249869771 L81.4,17.12889645782538 L81.3,16.98573945317388 L81.2,16.840622763423408 L81.1,16.693689601226435 L81.0,16.545084971874722 L80.9,16.39495553019616 L80.8,16.243449435824264 L80.7,16.090716206982712 L80.6,15.936906572928596 L80.5,15.782172325201154 L80.4,15.626666167821513 L80.3,15.470541566592555 L80.2,15.31395259764656 L80.1,15.157053795390627 L80.0,14.999999999999995 L79.9,14.842946204609364 L79.8,14.68604740235343 L79.7,14.529458433407434 L79.6,14.373333832178478 L79.5,14.217827674798837 L79.4,14.063093427071395 L79.3,13.90928379301728 L79.2,13.756550564175729 L79.1,13.60504446980383 L79.0,13.454915028125267 L78.9,13.306310398773556 L78.8,13.159377236576583 L78.7,13.014260546826112 L78.6,12.871103542174612 L78.5,12.73004750130225 L78.4,12.591231629491432 L78.3,12.45479292124813 L78.2,12.320866025105012 L78.1,12.189583110739335 L78.0,12.06107373853763 L77.9,11.935464731735122 L77.8,11.812880051256549 L77.7,11.693440673381733 L77.6,11.577264470356543 L77.5,11.464466094067255 L77.4,11.355156862892944 L77.3,11.249444651847698 L77.2,11.147433786121056 L77.1,11.049224938121544 L77.0,10.954915028125265 L76.9,10.8645971286272 L76.8,10.778360372489917 L76.7,10.69628986498029 L76.6,10.618466599780668 L76.5,10.54496737905816 L76.4,10.475864737669907 L76.3,10.411226871580087 L76.2,10.351117570558747 L76.1,10.29559615522886 L76.0,10.244717418524232 L75.9,10.198531571615291 L75.8,10.15708419435684 L75.7,10.120416190306265 L75.6,10.088563746356552 L75.5,10.061558297024309 L75.4,10.039426493427612 L75.3,10.0221901769846 L75.2,10.009866357858641 L75.1,10.002467198171342 L75.0,10.0 L74.9,10.002467198171342 L74.8,10.009866357858643 L74.7,10.0221901769846 L74.6,10.039426493427612 L74.5,10.06155829702431 L74.4,10.088563746356556 L74.3,10.120416190306262 L74.2,10.157084194356841 L74.1,10.198531571615288 L74.0,10.244717418524228 L73.9,10.295596155228871 L73.8,10.351117570558744 L73.7,10.41122687158009 L73.6,10.47586473766991 L73.5,10.544967379058157 L73.4,10.618466599780673 L73.3,10.696289864980287 L73.2,10.778360372489914 L73.1,10.864597128627203 L73.0,10.95491502812527 L72.9,11.04922493812155 L72.8,11.147433786121061 L72.7,11.249444651847703 L72.6,11.35515686289295 L72.5,11.464466094067262 L72.4,11.57726447035655 L72.3,11.693440673381753 L72.2,11.812880051256542 L72.1,11.935464731735129 L72.0,12.061073738537637 L71.9,12.189583110739342 L71.8,12.320866025105019 L71.7,12.454792921248137 L71.6,12.591231629491425 L71.5,12.730047501302257 L71.4,12.87110354217462 L71.3,13.014260546826087 L71.2,13.159377236576608 L71.1,13.306310398773565 L71.0,13.454915028125258 L70.9,13.605044469803858 L70.8,13.756550564175736 L70.7,13.909283793017272 L70.6,14.063093427071387 L70.5,14.217827674798864 L70.4,14.373333832178469 L70.3,14.529458433407445 L70.2,14.68604740235344 L70.1,14.842946204609373 L70.0,15.000000000000004 L69.9,15.157053795390636 L69.8,15.31395259764657 L69.7,15.470541566592564 L69.6,15.62666616782154 L69.5,15.782172325201145 L69.4,15.936906572928622 L69.3,16.09071620698272 L69.2,16.24344943582427 L69.1,16.39495553019615 L69.0,16.545084971874733 L68.9,16.693689601226442 L68.8,16.840622763423383 L68.7,16.98573945317389 L68.6,17.128896457825388 L68.5,17.269952498697734 L68.4,17.408768370508582 L68.3,17.54520707875187 L68.2,17.679133974894988 L68.1,17.810416889260665 L68.0,17.938926261462356 L67.9,18.064535268264876 L67.8,18.187119948743465 L67.7,18.306559326618252 L67.6,18.422735529643457 L67.5,18.535533905932745 L67.4,18.644843137107056 L67.3,18.750555348152304 L67.2,18.852566213878944 L67.1,18.950775061878456 L67.0,19.045084971874736 L66.9,19.1354028713728 L66.8,19.221639627510072 L66.7,19.30371013501972 L66.6,19.381533400219322 L66.5,19.45503262094184 L66.4,19.524135262330102 L66.3,19.588773128419906 L66.2,19.64888242944125 L66.1,19.704403844771125 L66.0,19.755282581475765 L65.9,19.801468428384712 L65.8,19.842915805643155 L65.7,19.87958380969374 L65.6,19.911436253643448 L65.5,19.93844170297569 L65.4,19.960573506572388 L65.3,19.9778098230154 L65.2,19.99013364214136 L65.1,19.997532801828658 L65.0,20.0 L64.9,19.997532801828658 L64.8,19.99013364214136 L64.7,19.9778098230154 L64.6,19.960573506572388 L64.5,19.938441702975688 L64.4,19.911436253643444 L64.3,19.879583809693738 L64.2,19.84291580564316 L64.1,19.801468428384716 L64.0,19.755282581475768 L63.9,19.70440384477112 L63.8,19.648882429441258 L63.7,19.588773128419902 L63.6,19.52413526233009 L63.5,19.455032620941836 L63.4,19.38153340021931 L63.3,19.303710135019713 L63.2,19.22163962751008 L63.1,19.135402871372804 L63.0,19.04508497187474 L62.9,18.95077506187845 L62.8,18.852566213878937 L62.7,18.750555348152307 L62.6,18.644843137107053 L62.5,18.535533905932727 L62.4,18.42273552964344 L62.3,18.306559326618263 L62.2,18.187119948743444 L62.1,18.064535268264887 L62.0,17.938926261462363 L61.9,17.810416889260658 L61.8,17.679133974894967 L61.7,17.545207078751847 L61.6,17.408768370508575 L61.5,17.269952498697727 L61.4,17.128896457825366 L61.3,16.9857394531739 L61.2,16.840622763423394 L61.1,16.693689601226453 L61.0,16.545084971874743 L60.9,16.39495553019613 L60.8,16.243449435824264 L60.7,16.090716206982712 L60.6,15.936906572928613 L60.5,15.782172325201156 L60.4,15.626666167821513 L60.3,15.470541566592557 L60.2,15.31395259764658 L60.1,15.157053795390645 L60.0,14.999999999999979 L59.9,14.842946204609348 L59.8,14.686047402353413 L59.7,14.529458433407436 L59.6,14.373333832178478 L59.5,14.217827674798837 L59.4,14.06309342707138 L59.3,13.90928379301728 L59.2,13.756550564175729 L59.1,13.605044469803866 L59.0,13.454915028125251 L58.9,13.30631039877354 L58.8,13.1593772365766 L58.7,13.014260546826096 L58.6,12.871103542174628 L58.5,12.730047501302266 L58.4,12.591231629491418 L58.3,12.454792921248146 L58.2,12.320866025105026 L58.1,12.189583110739335 L58.0,12.061073738537631 L57.9,11.935464731735108 L57.8,11.812880051256549 L57.7,11.693440673381733 L57.6,11.577264470356557 L57.5,11.46446609406727 L57.4,11.355156862892944 L57.3,11.249444651847686 L57.2,11.147433786121056 L57.1,11.049224938121545 L57.0,10.954915028125257 L56.9,10.864597128627189 L56.8,10.778360372489919 L56.7,10.696289864980281 L56.6,10.618466599780685 L56.5,10.54496737905816 L56.4,10.475864737669907 L56.3,10.411226871580087 L56.2,10.351117570558742 L56.1,10.295596155228875 L56.0,10.244717418524232 L55.9,10.19853157161528 L55.8,10.157084194356845 L55.7,10.120416190306265 L55.6,10.088563746356556 L55.5,10.061558297024312 L55.4,10.039426493427609 L55.3,10.0221901769846 L55.2,10.009866357858641 L55.1,10.002467198171342 L55.0,10.0 L54.9,10.002467198171342 L54.8,10.009866357858643 L54.7,10.0221901769846 L54.6,10.039426493427609 L54.5,10.061558297024314 L54.4,10.088563746356558 L54.3,10.120416190306265 L54.2,10.157084194356845 L54.1,10.198531571615288 L54.0,10.244717418524232 L53.9,10.295596155228871 L53.8,10.351117570558744 L53.7,10.41122687158009 L53.6,10.475864737669902 L53.5,10.544967379058164 L53.4,10.618466599780689 L53.3,10.696289864980285 L53.2,10.778360372489932 L53.1,10.864597128627192 L53.0,10.95491502812526 L52.9,11.049224938121549 L52.8,11.147433786121049 L52.7,11.249444651847703 L52.6,11.355156862892947 L52.5,11.464466094067262 L52.4,11.57726447035656 L52.3,11.693440673381751 L52.2,11.812880051256542 L52.1,11.935464731735113 L52.0,12.061073738537637 L51.9,12.189583110739342 L51.8,12.320866025105033 L51.7,12.454792921248137 L51.6,12.591231629491423 L51.5,12.730047501302273 L51.4,12.871103542174652 L51.3,13.014260546826103 L51.2,13.159377236576606 L51.1,13.306310398773547 L51.0,13.454915028125257 L50.9,13.605044469803856 L50.8,13.756550564175727 L50.7,13.909283793017288 L50.6,14.063093427071367 L50.5,14.217827674798853 L50.4,14.373333832178485 L50.3,14.529458433407425 L50.2,14.686047402353438 L50.1,14.842946204609362 L50.0,15.000000000000004 L49.9,15.157053795390643 L49.8,15.313952597646567 L49.7,15.470541566592564 L49.6,15.62666616782153 L49.5,15.782172325201152 L49.4,15.93690657292862 L49.3,16.090716206982727 L49.2,16.24344943582427 L49.1,16.39495553019615 L49.0,16.54508497187474 L48.9,16.69368960122646 L48.8,16.840622763423397 L48.7,16.985739453173913 L48.6,17.128896457825363 L48.5,17.269952498697734 L48.4,17.408768370508582 L48.3,17.54520707875186 L48.2,17.679133974894988 L48.1,17.81041688926065 L48.0,17.938926261462367 L47.9,18.06453526826489 L47.8,18.187119948743458 L47.7,18.30655932661826 L47.6,18.422735529643443 L47.5,18.535533905932745 L47.4,18.644843137107063 L47.3,18.7505553481523 L47.2,18.852566213878944 L47.1,18.950775061878453 L47.0,19.045084971874733 L46.9,19.135402871372815 L46.8,19.22163962751008 L46.7,19.303710135019713 L46.6,19.381533400219322 L46.5,19.455032620941843 L46.4,19.524135262330102 L46.3,19.58877312841991 L46.2,19.648882429441258 L46.1,19.704403844771125 L46.0,19.75528258147577 L45.9,19.801468428384716 L45.8,19.842915805643155 L45.7,19.879583809693738 L45.6,19.911436253643444 L45.5,19.93844170297569 L45.4,19.960573506572388 L45.3,19.9778098230154 L45.2,19.99013364214136 L45.1,19.997532801828658 L45.0,20.0 L44.9,19.997532801828658 L44.8,19.99013364214136 L44.7,19.9778098230154 L44.6,19.960573506572388 L44.5,19.938441702975688 L44.4,19.911436253643444 L44.3,19.879583809693735 L44.2,19.84291580564316 L44.1,19.801468428384716 L44.0,19.755282581475768 L43.9,19.704403844771125 L43.8,19.648882429441255 L43.7,19.58877312841991 L43.6,19.5241352623301 L43.5,19.455032620941836 L43.4,19.38153340021932 L43.3,19.30371013501971 L43.2,19.221639627510072 L43.1,19.13540287137281 L43.0,19.04508497187473 L42.9,18.950775061878453 L42.8,18.85256621387894 L42.7,18.750555348152297 L42.6,18.644843137107063 L42.5,18.535533905932738 L42.4,18.422735529643433 L42.3,18.306559326618256 L42.2,18.18711994874345 L42.1,18.064535268264873 L42.0,17.938926261462363 L41.9,17.810416889260644 L41.8,17.67913397489498 L41.7,17.545207078751865 L41.6,17.408768370508575 L41.5,17.269952498697744 L41.4,17.12889645782536 L41.3,16.9857394531739 L41.2,16.840622763423404 L41.1,16.693689601226453 L41.0,16.545084971874726 L40.9,16.394955530196146 L40.8,16.243449435824264 L40.7,16.090716206982723 L40.6,15.936906572928633 L40.5,15.782172325201147 L40.4,15.626666167821515 L40.3,15.470541566592559 L40.2,15.313952597646562 L40.1,15.157053795390638 L40.0,14.999999999999998 L39.9,14.842946204609357 L39.8,14.686047402353433 L39.7,14.529458433407438 L39.6,14.37333383217848 L39.5,14.217827674798848 L39.4,14.063093427071362 L39.3,13.909283793017273 L39.2,13.75655056417573 L39.1,13.60504446980385 L39.0,13.45491502812526 L38.9,13.306310398773542 L38.8,13.159377236576601 L38.7,13.014260546826097 L38.6,12.871103542174637 L38.5,12.730047501302268 L38.4,12.591231629491418 L38.3,12.454792921248131 L38.2,12.32086602510502 L38.1,12.189583110739353 L38.0,12.061073738537633 L37.9,11.93546473173511 L37.8,11.812880051256544 L37.7,11.69344067338174 L37.6,11.577264470356557 L37.5,11.464466094067259 L37.4,11.355156862892938 L37.3,11.2494446518477 L37.2,11.147433786121058 L37.1,11.04922493812155 L37.0,10.954915028125267 L36.9,10.86459712862719 L36.8,10.77836037248992 L36.7,10.696289864980287 L36.6,10.618466599780687 L36.5,10.544967379058157 L36.4,10.4758647376699 L36.3,10.411226871580093 L36.2,10.351117570558745 L36.1,10.295596155228875 L36.0,10.244717418524232 L35.9,10.198531571615284 L35.8,10.157084194356845 L35.7,10.120416190306265 L35.6,10.088563746356556 L35.5,10.061558297024312 L35.4,10.03942649342761 L35.3,10.0221901769846 L35.2,10.009866357858643 L35.1,10.002467198171342 L35.0,10.0 L34.9,10.002467198171342 L34.8,10.009866357858643 L34.7,10.0221901769846 L34.6,10.03942649342761 L34.5,10.06155829702431 L34.4,10.088563746356556 L34.3,10.120416190306265 L34.2,10.157084194356845 L34.1,10.198531571615284 L34.0,10.24471741852423 L33.9,10.295596155228875 L33.8,10.351117570558745 L33.7,10.411226871580094 L33.6,10.475864737669902 L33.5,10.54496737905816 L33.4,10.61846659978068 L33.3,10.696289864980283 L33.2,10.778360372489928 L33.1,10.864597128627189 L33.0,10.95491502812526 L32.9,11.049224938121549 L32.8,11.14743378612106 L32.7,11.249444651847702 L32.6,11.35515686289294 L32.5,11.46446609406726 L32.4,11.57726447035656 L32.3,11.693440673381744 L32.2,11.812880051256547 L32.1,11.935464731735113 L32.0,12.061073738537637 L31.9,12.189583110739347 L31.8,12.320866025105024 L31.7,12.454792921248151 L31.6,12.591231629491421 L31.5,12.730047501302263 L31.4,12.871103542174641 L31.3,13.014260546826101 L31.2,13.159377236576614 L31.1,13.306310398773546 L31.0,13.454915028125265 L30.9,13.605044469803863 L30.8,13.756550564175726 L30.7,13.909283793017286 L30.6,14.063093427071376 L30.5,14.217827674798842 L30.4,14.373333832178485 L30.3,14.529458433407433 L30.2,14.686047402353436 L30.1,14.842946204609353 L30.0,15.00000000000001 L29.9,15.15705379539065 L29.8,15.313952597646567 L29.7,15.470541566592571 L29.6,15.626666167821519 L29.5,15.782172325201161 L29.4,15.936906572928628 L29.3,16.090716206982716 L29.2,16.243449435824278 L29.1,16.39495553019614 L29.0,16.54508497187474 L28.9,16.693689601226456 L28.8,16.84062276342339 L28.7,16.985739453173903 L28.6,17.128896457825363 L28.5,17.26995249869774 L28.4,17.408768370508582 L28.3,17.54520707875185 L28.2,17.679133974894977 L28.1,17.810416889260654 L28.0,17.938926261462367 L27.9,18.064535268264883 L27.8,18.187119948743447 L27.7,18.306559326618267 L27.6,18.422735529643443 L27.5,18.53553390593274 L27.4,18.64484313710706 L27.3,18.750555348152297 L27.2,18.852566213878948 L27.1,18.950775061878453 L27.0,19.045084971874736 L26.9,19.13540287137281 L26.8,19.221639627510076 L26.7,19.30371013501972 L26.6,19.381533400219322 L26.5,19.455032620941836 L26.4,19.5241352623301 L26.3,19.58877312841991 L26.2,19.648882429441258 L26.1,19.704403844771125 L26.0,19.755282581475768 L25.9,19.801468428384716 L25.8,19.842915805643155 L25.7,19.879583809693738 L25.6,19.911436253643444 L25.5,19.938441702975688 L25.4,19.960573506572388 L25.3,19.9778098230154 L25.2,19.99013364214136 L25.1,19.997532801828658 L25.0,20.0 L24.9,19.997532801828658 L24.8,19.99013364214136 L24.7,19.9778098230154 L24.6,19.960573506572388 L24.5,19.938441702975688 L24.4,19.911436253643444 L24.3,19.879583809693738 L24.2,19.842915805643155 L24.1,19.801468428384716 L24.0,19.755282581475768 L23.9,19.704403844771125 L23.8,19.648882429441258 L23.7,19.588773128419906 L23.6,19.5241352623301 L23.5,19.45503262094184 L23.4,19.381533400219315 L23.3,19.303710135019717 L23.2,19.221639627510072 L23.1,19.135402871372808 L23.0,19.045084971874733 L22.9,18.950775061878453 L22.8,18.852566213878944 L22.7,18.750555348152297 L22.6,18.64484313710706 L22.5,18.535533905932738 L22.4,18.42273552964344 L22.3,18.306559326618256 L22.2,18.187119948743447 L22.1,18.064535268264887 L22.0,17.938926261462363 L21.9,17.81041688926065 L21.8,17.679133974894985 L21.7,17.545207078751858 L21.6,17.408768370508575 L21.5,17.26995249869773 L21.4,17.12889645782536 L21.3,16.985739453173906 L21.2,16.840622763423383 L21.1,16.69368960122646 L21.0,16.545084971874736 L20.9,16.394955530196146 L20.8,16.243449435824274 L20.7,16.09071620698271 L20.6,15.93690657292863 L20.5,15.782172325201149 L20.4,15.626666167821517 L20.3,15.470541566592576 L20.2,15.313952597646564 L20.1,15.15705379539064 L20.0,14.999999999999998 L19.9,14.842946204609358 L19.8,14.686047402353434 L19.7,14.52945843340742 L19.6,14.373333832178481 L19.5,14.217827674798844 L19.4,14.063093427071372 L19.3,13.909283793017288 L19.2,13.756550564175724 L19.1,13.605044469803856 L19.0,13.454915028125262 L18.9,13.306310398773538 L18.8,13.15937723657661 L18.7,13.014260546826094 L18.6,12.87110354217464 L18.5,12.73004750130227 L18.4,12.59123162949142 L18.3,12.454792921248147 L18.2,12.320866025105015 L18.1,12.189583110739349 L18.0,12.061073738537633 L17.9,11.935464731735117 L17.8,11.812880051256553 L17.7,11.693440673381739 L17.6,11.577264470356559 L17.5,11.464466094067262 L17.4,11.35515686289294 L17.3,11.249444651847703 L17.2,11.147433786121056 L17.1,11.049224938121547 L17.0,10.954915028125265 L16.9,10.864597128627189 L16.8,10.778360372489924 L16.7,10.696289864980283 L16.6,10.618466599780682 L16.5,10.544967379058162 L16.4,10.475864737669902 L16.3,10.411226871580094 L16.2,10.351117570558742 L16.1,10.295596155228873 L16.0,10.244717418524232 L15.9,10.198531571615284 L15.8,10.157084194356845 L15.7,10.120416190306262 L15.6,10.088563746356556 L15.5,10.06155829702431 L15.4,10.03942649342761 L15.3,10.0221901769846 L15.2,10.009866357858641 L15.1,10.002467198171342 L15.0,10.0 L14.9,10.002467198171342 L14.8,10.009866357858641 L14.7,10.0221901769846 L14.6,10.039426493427612 L14.5,10.061558297024312 L14.4,10.088563746356556 L14.3,10.120416190306262 L14.2,10.157084194356845 L14.1,10.198531571615284 L14.0,10.244717418524232 L13.9,10.295596155228873 L13.8,10.351117570558742 L13.7,10.411226871580094 L13.6,10.475864737669903 L13.5,10.54496737905816 L13.4,10.618466599780682 L13.3,10.696289864980283 L13.2,10.778360372489924 L13.1,10.864597128627192 L13.0,10.954915028125264 L12.9,11.049224938121547 L12.8,11.147433786121052 L12.7,11.249444651847703 L12.6,11.355156862892944 L12.5,11.464466094067262 L12.4,11.577264470356559 L12.3,11.69344067338174 L12.2,11.812880051256553 L12.1,11.935464731735118 L12.0,12.061073738537635 L11.9,12.189583110739347 L11.8,12.320866025105015 L11.7,12.454792921248146 L11.6,12.591231629491425 L11.5,12.73004750130227 L11.4,12.871103542174637 L11.3,13.014260546826096 L11.2,13.159377236576614 L11.1,13.306310398773544 L11.0,13.454915028125264 L10.9,13.605044469803854 L10.8,13.756550564175727 L10.7,13.90928379301729 L10.6,14.063093427071381 L10.5,14.217827674798846 L10.4,14.373333832178478 L10.3,14.529458433407425 L10.2,14.686047402353436 L10.1,14.84294620460936 L10.0,15.0 L9.9,15.157053795390642 L9.8,15.313952597646566 L9.7,15.470541566592575 L9.6,15.626666167821522 L9.5,15.782172325201154 L9.4,15.936906572928622 L9.3,16.090716206982712 L9.2,16.243449435824274 L9.1,16.39495553019615 L9.0,16.545084971874736 L8.9,16.693689601226456 L8.8,16.84062276342339 L8.7,16.985739453173906 L8.6,17.128896457825363 L8.5,17.269952498697734 L8.4,17.408768370508575 L8.3,17.545207078751858 L8.2,17.679133974894985 L8.1,17.810416889260654 L8.0,17.938926261462367 L7.9,18.064535268264883 L7.8,18.18711994874345 L7.7,18.30655932661826 L7.6,18.422735529643443 L7.5,18.535533905932738 L7.4,18.644843137107056 L7.3,18.750555348152297 L7.2,18.852566213878944 L7.1,18.950775061878453 L7.0,19.045084971874736 L6.9,19.135402871372808 L6.8,19.221639627510076 L6.7,19.30371013501972 L6.6,19.38153340021932 L6.5,19.45503262094184 L6.4,19.5241352623301 L6.3,19.588773128419906 L6.2,19.648882429441258 L6.1,19.70440384477113 L6.0,19.755282581475768 L5.9,19.801468428384716 L5.8,19.842915805643155 L5.7,19.879583809693738 L5.6,19.911436253643444 L5.5,19.938441702975688 L5.4,19.960573506572388 L5.3,19.9778098230154 L5.2,19.99013364214136 L5.1,19.997532801828658 L5.0,20.0 L4.9,19.997532801828658 L4.8,19.99013364214136 L4.7,19.9778098230154 L4.6,19.960573506572388 L4.5,19.938441702975688 L4.4,19.911436253643444 L4.3,19.879583809693738 L4.2,19.842915805643155 L4.1,19.801468428384716 L4.0,19.755282581475768 L3.9,19.70440384477113 L3.8,19.648882429441258 L3.7,19.588773128419906 L3.6,19.5241352623301 L3.5,19.45503262094184 L3.4,19.38153340021932 L3.3,19.30371013501972 L3.2,19.221639627510076 L3.1,19.13540287137281 L3.0,19.045084971874736 L2.9,18.950775061878453 L2.8,18.852566213878944 L2.7,18.750555348152297 L2.6,18.64484313710706 L2.5,18.535533905932738 L2.4,18.422735529643443 L2.3,18.30655932661826 L2.2,18.187119948743447 L2.1,18.064535268264883 L2.0,17.938926261462367 L1.9,17.81041688926065 L1.8,17.679133974894985 L1.7,17.545207078751858 L1.6,17.408768370508575 L1.5,17.269952498697734 L1.4,17.128896457825363 L1.3,16.985739453173903 L1.2,16.84062276342339 L1.1,16.693689601226456 L1.0,16.545084971874736 L0.9,16.394955530196146 L0.8,16.243449435824274 L0.7,16.090716206982712 L0.6,15.936906572928622 L0.5,15.782172325201154 L0.4,15.626666167821522 L0.3,15.470541566592571 L0.2,15.313952597646567 L0.1,15.157053795390642 L0.0,15.0" fill="#000000" stroke-width="0" stroke-linecap="round" stroke-linejoin="round" stroke="none"  />
<!-- Footer -->
</svg>
