<!-- Header -->
<svg
    version="1.1"
    baseProfile="full"
    xmlns="http://www.w3.org/2000/svg"
    xmlns:xlink="http://www.w3.org/1999/xlink"
    xmlns:ev="http://www.w3.org/2001/xml-events"
    width="114.98026728428273"
    height="29.960534568565457"
    viewBox="-7.490133642141364 -12.480267284282728 114.98026728428273 29.960534568565457"
    preserveAspectRatio="none"
>
<!-- Body -->
<!-- Path -->
<path d="M0.0,0.0 L0.1,0.6266661678215213 L0.2,1.243449435824274 L0.3,1.8406227634233896 L0.4,2.4087683705085765 L0.5,2.938926261462366 L0.6,3.422735529643443 L0.7,3.8525662138789456 L0.8,4.221639627510076 L0.9,4.524135262330098 L1.0,4.755282581475767 L1.1,4.911436253643443 L1.2,4.990133642141358 L1.3,4.990133642141358 L1.4,4.911436253643443 L1.5,4.755282581475768 L1.6,4.524135262330097 L1.7,4.221639627510076 L1.8,3.852566213878946 L1.9,3.422735529643444 L2.0,2.9389262614623664 L2.1,2.408768370508576 L2.2,1.8406227634233887 L2.3,1.2434494358242763 L2.4,0.6266661678215226 L2.5,6.123233995736766e-16 L2.6,-0.6266661678215214 L2.7,-1.243449435824273 L2.8,-1.8406227634233874 L2.9,-2.408768370508575 L3.0,-2.938926261462365 L3.1,-3.422735529643442 L3.2,-3.852566213878947 L3.3,-4.2216396275100765 L3.4,-4.5241352623300966 L3.5,-4.755282581475767 L3.6,-4.911436253643443 L3.7,-4.990133642141358 L3.8,-4.990133642141358 L3.9,-4.911436253643443 L4.0,-4.755282581475768 L4.1,-4.524135262330099 L4.2,-4.221639627510075 L4.3,-3.852566213878945 L4.4,-3.4227355296434414 L4.5,-2.938926261462367 L4.6,-2.4087683705085805 L4.7,-1.8406227634233894 L4.8,-1.2434494358242767 L4.9,-0.626666167821519 L5.0,-1.2246467991473533e-15 L5.1,0.6266661678215164 L5.2,1.2434494358242745 L5.3,1.840622763423383 L5.4,2.4087683705085743 L5.5,2.9389262614623646 L5.6,3.4227355296434396 L5.7,3.852566213878946 L5.8,4.221639627510074 L5.9,4.524135262330098 L6.0,4.755282581475767 L6.1,4.911436253643442 L6.2,4.990133642141358 L6.3,4.990133642141358 L6.4,4.911436253643443 L6.5,4.755282581475768 L6.6,4.5241352623300966 L6.7,4.221639627510076 L6.8,3.8525662138789487 L6.9,3.422735529643442 L7.0,2.938926261462367 L7.1,2.408768370508581 L7.2,1.8406227634233898 L7.3,1.2434494358242774 L7.4,0.6266661678215195 L7.5,1.0718754395722281e-14 L7.6,-0.6266661678215159 L7.7,-1.2434494358242738 L7.8,-1.8406227634233863 L7.9,-2.408768370508578 L8.0,-2.938926261462364 L8.1,-3.422735529643439 L8.2,-3.8525662138789403 L8.3,-4.221639627510073 L8.4,-4.524135262330098 L8.5,-4.75528258147577 L8.6,-4.911436253643444 L8.7,-4.990133642141357 L8.8,-4.990133642141357 L8.9,-4.911436253643443 L9.0,-4.755282581475769 L9.1,-4.5241352623301 L9.2,-4.22163962751008 L9.3,-3.852566213878943 L9.4,-3.4227355296434423 L9.5,-2.9389262614623672 L9.6,-2.4087683705085814 L9.7,-1.8406227634233985 L9.8,-1.2434494358242694 L9.9,-0.6266661678215201 L10.0,-2.4492935982947065e-15 L10.1,0.6266661678215152 L10.2,1.2434494358242647 L10.3,1.8406227634234025 L10.4,2.408768370508577 L10.5,2.9389262614623632 L10.6,3.4227355296434325 L10.7,3.8525662138789403 L10.8,4.221639627510073 L10.9,4.524135262330098 L11.0,4.755282581475767 L11.1,4.911436253643442 L11.2,4.990133642141357 L11.3,4.990133642141358 L11.4,4.911436253643443 L11.5,4.755282581475772 L11.6,4.524135262330101 L11.7,4.221639627510081 L11.8,3.8525662138789434 L11.9,3.422735529643443 L12.0,2.9389262614623677 L12.1,2.4087683705085823 L12.2,1.840622763423399 L12.3,1.24344943582427 L12.4,0.6266661678215295 L12.5,3.061616997868383e-15 L12.6,-0.6266661678215146 L12.7,-1.2434494358242727 L12.8,-1.8406227634233936 L12.9,-2.4087683705085765 L13.0,-2.938926261462363 L13.1,-3.4227355296434387 L13.2,-3.8525662138789505 L13.3,-4.2216396275100685 L13.4,-4.524135262330098 L13.5,-4.755282581475767 L13.6,-4.911436253643442 L13.7,-4.990133642141357 L13.8,-4.990133642141358 L13.9,-4.911436253643443 L14.0,-4.755282581475769 L14.1,-4.524135262330093 L14.2,-4.221639627510081 L14.3,-3.8525662138789443 L14.4,-3.4227355296434436 L14.5,-2.9389262614623686 L14.6,-2.4087683705085827 L14.7,-1.8406227634233998 L14.8,-1.2434494358242705 L14.9,-0.6266661678215213 L15.0,-2.1437508791444562e-14 L15.1,0.6266661678215141 L15.2,1.2434494358242634 L15.3,1.840622763423393 L15.4,2.408768370508576 L15.5,2.9389262614623624 L15.6,3.422735529643438 L15.7,3.852566213878939 L15.8,4.221639627510077 L15.9,4.52413526233009 L16.0,4.755282581475766 L16.1,4.911436253643445 L16.2,4.990133642141357 L16.3,4.990133642141358 L16.4,4.911436253643447 L16.5,4.755282581475764 L16.6,4.524135262330101 L16.7,4.221639627510072 L16.8,3.8525662138789443 L16.9,3.422735529643457 L17.0,2.9389262614623544 L17.1,2.408768370508583 L17.2,1.8406227634233838 L17.3,1.2434494358242711 L17.4,0.6266661678215396 L17.5,4.2862637970157365e-15 L17.6,-0.6266661678215311 L17.7,-1.243449435824263 L17.8,-1.8406227634233923 L17.9,-2.4087683705085756 L18.0,-2.9389262614623624 L18.1,-3.4227355296434503 L18.2,-3.8525662138789385 L18.3,-4.221639627510086 L18.4,-4.5241352623300894 L18.5,-4.755282581475772 L18.6,-4.911436253643445 L18.7,-4.990133642141357 L18.8,-4.990133642141358 L18.9,-4.911436253643447 L19.0,-4.755282581475769 L19.1,-4.524135262330093 L19.2,-4.221639627510082 L19.3,-3.8525662138789447 L19.4,-3.422735529643457 L19.5,-2.9389262614623695 L19.6,-2.408768370508568 L19.7,-1.8406227634234174 L19.8,-1.2434494358242718 L19.9,-0.6266661678215225 L20.0,-4.898587196589413e-15 L20.1,0.6266661678215129 L20.2,1.2434494358242623 L20.3,1.8406227634234082 L20.4,2.408768370508559 L20.5,2.9389262614623473 L20.6,3.422735529643463 L20.7,3.8525662138789385 L20.8,4.2216396275100765 L20.9,4.5241352623300966 L21.0,4.755282581475766 L21.1,4.911436253643445 L21.2,4.990133642141356 L21.3,4.990133642141357 L21.4,4.911436253643447 L21.5,4.755282581475775 L21.6,4.524135262330101 L21.7,4.221639627510073 L21.8,3.852566213878945 L21.9,3.4227355296434574 L22.0,2.9389262614623703 L22.1,2.408768370508553 L22.2,1.8406227634234016 L22.3,1.2434494358242896 L22.4,0.6266661678215407 L22.5,5.5109105961630896e-15 L22.6,-0.62666616782153 L22.7,-1.2434494358242616 L22.8,-1.8406227634233914 L22.9,-2.4087683705085747 L23.0,-2.938926261462347 L23.1,-3.4227355296434365 L23.2,-3.852566213878938 L23.3,-4.221639627510067 L23.4,-4.5241352623300894 L23.5,-4.755282581475772 L23.6,-4.911436253643445 L23.7,-4.990133642141357 L23.8,-4.990133642141358 L23.9,-4.911436253643447 L24.0,-4.75528258147577 L24.1,-4.524135262330102 L24.2,-4.221639627510083 L24.3,-3.8525662138789456 L24.4,-3.4227355296434583 L24.5,-2.938926261462371 L24.6,-2.408768370508569 L24.7,-1.8406227634233854 L24.8,-1.2434494358242902 L24.9,-0.6266661678215237 L25.0,-6.123233995736766e-15 L25.1,0.6266661678215115 L25.2,1.2434494358242612 L25.3,1.8406227634234071 L25.4,2.4087683705085743 L25.5,2.9389262614623752 L25.6,3.4227355296434494 L25.7,3.8525662138789265 L25.8,4.221639627510076 L25.9,4.5241352623300815 L26.0,4.755282581475766 L26.1,4.911436253643448 L26.2,4.990133642141357 L26.3,4.990133642141359 L26.4,4.911436253643441 L26.5,4.755282581475765 L26.6,4.52413526233011 L26.7,4.221639627510092 L26.8,3.8525662138789456 L26.9,3.422735529643446 L27.0,2.9389262614623712 L27.1,2.4087683705085854 L27.2,1.8406227634234027 L27.3,1.2434494358242563 L27.4,0.6266661678215419 L27.5,2.4499125789312944e-14 L27.6,-0.6266661678215286 L27.7,-1.2434494358242434 L27.8,-1.84062276342339 L27.9,-2.4087683705085734 L28.0,-2.93892626146236 L28.1,-3.422735529643436 L28.2,-3.8525662138789594 L28.3,-4.2216396275100845 L28.4,-4.524135262330089 L28.5,-4.75528258147576 L28.6,-4.911436253643445 L28.7,-4.990133642141358 L28.8,-4.990133642141358 L28.9,-4.911436253643444 L29.0,-4.75528258147577 L29.1,-4.524135262330088 L29.2,-4.221639627510083 L29.3,-3.8525662138789576 L29.4,-3.422735529643459 L29.5,-2.9389262614623854 L29.6,-2.4087683705085703 L29.7,-1.8406227634233865 L29.8,-1.243449435824274 L29.9,-0.6266661678215601 L30.0,-4.2875017582889124e-14 L30.1,0.6266661678215456 L30.2,1.24344943582426 L30.3,1.840622763423373 L30.4,2.4087683705085574 L30.5,2.938926261462374 L30.6,3.422735529643448 L30.7,3.852566213878948 L30.8,4.221639627510076 L30.9,4.524135262330081 L31.0,4.7552825814757655 L31.1,4.9114362536434415 L31.2,4.990133642141357 L31.3,4.990133642141359 L31.4,4.911436253643448 L31.5,4.755282581475765 L31.6,4.524135262330095 L31.7,4.221639627510093 L31.8,3.852566213878969 L31.9,3.4227355296434463 L32.0,2.9389262614623717 L32.1,2.408768370508555 L32.2,1.8406227634233707 L32.3,1.2434494358242918 L32.4,0.6266661678215433 L32.5,-9.803364199544707e-15 L32.6,-0.6266661678215274 L32.7,-1.2434494358242765 L32.8,-1.840622763423356 L32.9,-2.4087683705085725 L33.0,-2.938926261462388 L33.1,-3.422735529643461 L33.2,-3.8525662138789363 L33.3,-4.221639627510065 L33.4,-4.524135262330104 L33.5,-4.755282581475771 L33.6,-4.911436253643445 L33.7,-4.990133642141358 L33.8,-4.99013364214136 L33.9,-4.911436253643451 L34.0,-4.755282581475759 L34.1,-4.524135262330103 L34.2,-4.221639627510084 L34.3,-3.8525662138789807 L34.4,-3.4227355296434343 L34.5,-2.938926261462358 L34.6,-2.408768370508571 L34.7,-1.8406227634233876 L34.8,-1.2434494358243098 L34.9,-0.6266661678215262 L35.0,-8.572527594031473e-15 L35.1,0.6266661678215092 L35.2,1.2434494358242931 L35.3,1.8406227634233718 L35.4,2.4087683705085565 L35.5,2.938926261462373 L35.6,3.4227355296434476 L35.7,3.85256621387897 L35.8,4.221639627510074 L35.9,4.524135262330096 L36.0,4.755282581475765 L36.1,4.911436253643448 L36.2,4.990133642141359 L36.3,4.990133642141359 L36.4,4.911436253643448 L36.5,4.755282581475776 L36.6,4.524135262330081 L36.7,4.221639627510055 L36.8,3.85256621387897 L36.9,3.4227355296434476 L37.0,2.938926261462344 L37.1,2.4087683705085565 L37.2,1.8406227634233718 L37.3,1.2434494358242931 L37.4,0.6266661678215445 L37.5,2.6948419387607653e-14 L37.6,-0.6266661678215262 L37.7,-1.2434494358242754 L37.8,-1.8406227634233545 L37.9,-2.40876837050854 L38.0,-2.938926261462358 L38.1,-3.4227355296434596 L38.2,-3.8525662138789585 L38.3,-4.221639627510045 L38.4,-4.524135262330088 L38.5,-4.75528258147577 L38.6,-4.911436253643444 L38.7,-4.990133642141358 L38.8,-4.99013364214136 L38.9,-4.911436253643445 L39.0,-4.755282581475771 L39.1,-4.524135262330104 L39.2,-4.221639627510065 L39.3,-3.8525662138789816 L39.4,-3.4227355296434867 L39.5,-2.938926261462359 L39.6,-2.4087683705085725 L39.7,-1.840622763423356 L39.8,-1.2434494358242765 L39.9,-0.6266661678215274 L40.0,-9.797174393178826e-15 L40.1,0.626666167821508 L40.2,1.2434494358242574 L40.3,1.8406227634233376 L40.4,2.408768370508555 L40.5,2.9389262614623437 L40.6,3.4227355296434725 L40.7,3.852566213878969 L40.8,4.221639627510055 L40.9,4.524135262330095 L41.0,4.755282581475754 L41.1,4.911436253643441 L41.2,4.990133642141361 L41.3,4.990133642141359 L41.4,4.911436253643448 L41.5,4.755282581475754 L41.6,4.5241352623300966 L41.7,4.221639627510056 L41.8,3.852566213878948 L41.9,3.4227355296434743 L42.0,2.938926261462374 L42.1,2.4087683705086196 L42.2,1.840622763423373 L42.3,1.2434494358242942 L42.4,0.6266661678215808 L42.5,-7.354070601250003e-15 L42.6,-0.6266661678215603 L42.7,-1.243449435824274 L42.8,-1.8406227634233536 L42.9,-2.4087683705085703 L43.0,-2.9389262614623286 L43.1,-3.422735529643459 L43.2,-3.8525662138789354 L43.3,-4.2216396275100445 L43.4,-4.524135262330102 L43.5,-4.755282581475759 L43.6,-4.911436253643444 L43.7,-4.99013364214136 L43.8,-4.99013364214136 L43.9,-4.911436253643451 L44.0,-4.755282581475771 L44.1,-4.524135262330104 L44.2,-4.221639627510047 L44.3,-3.8525662138789825 L44.4,-3.4227355296434614 L44.5,-2.93892626146236 L44.6,-2.4087683705086045 L44.7,-1.84062276342339 L44.8,-1.2434494358243122 L44.9,-0.6266661678215286 L45.0,-1.1021821192326179e-14 L45.1,0.6266661678214714 L45.2,1.2434494358242907 L45.3,1.8406227634233696 L45.4,2.4087683705085543 L45.5,2.9389262614623424 L45.6,3.422735529643446 L45.7,3.852566213878923 L45.8,4.221639627510073 L45.9,4.524135262330095 L46.0,4.755282581475753 L46.1,4.911436253643448 L46.2,4.990133642141357 L46.3,4.99013364214136 L46.4,4.911436253643448 L46.5,4.755282581475777 L46.6,4.524135262330112 L46.7,4.221639627510056 L46.8,3.852566213878972 L46.9,3.422735529643475 L47.0,2.9389262614623464 L47.1,2.40876837050859 L47.2,1.840622763423374 L47.3,1.2434494358242956 L47.4,0.6266661678215468 L47.5,2.9397712985902356e-14 L47.6,-0.6266661678215237 L47.7,-1.243449435824273 L47.8,-1.8406227634233523 L47.9,-2.408768370508538 L48.0,-2.938926261462356 L48.1,-3.4227355296434583 L48.2,-3.852566213878934 L48.3,-4.221639627510063 L48.4,-4.524135262330087 L48.5,-4.75528258147577 L48.6,-4.911436253643443 L48.7,-4.990133642141355 L48.8,-4.990133642141361 L48.9,-4.911436253643445 L49.0,-4.755282581475772 L49.1,-4.5241352623301045 L49.2,-4.221639627510067 L49.3,-3.8525662138789833 L49.4,-3.4227355296434365 L49.5,-2.9389262614623615 L49.6,-2.408768370508606 L49.7,-1.8406227634233583 L49.8,-1.243449435824279 L49.9,-0.62666616782153 L50.0,-1.2246467991473532e-14 L50.1,0.6266661678215055 L50.2,1.2434494358242552 L50.3,1.8406227634234016 L50.4,2.408768370508553 L50.5,2.938926261462341 L50.6,3.4227355296434703 L50.7,3.852566213878945 L50.8,4.221639627510073 L50.9,4.524135262330094 L51.0,4.755282581475775 L51.1,4.911436253643441 L51.2,4.990133642141359 L51.3,4.99013364214136 L51.4,4.911436253643455 L51.5,4.755282581475777 L51.6,4.5241352623300966 L51.7,4.221639627510058 L51.8,3.852566213878995 L51.9,3.422735529643424 L52.0,2.9389262614623757 L52.1,2.408768370508559 L52.2,1.840622763423342 L52.3,1.243449435824331 L52.4,0.626666167821548 L52.5,-4.904777002955297e-15 L52.6,-0.6266661678214873 L52.7,-1.2434494358242718 L52.8,-1.8406227634234174 L52.9,-2.408768370508568 L53.0,-2.938926261462384 L53.1,-3.4227355296434316 L53.2,-3.8525662138789105 L53.3,-4.221639627510062 L53.4,-4.524135262330071 L53.5,-4.755282581475758 L53.6,-4.911436253643443 L53.7,-4.99013364214136 L53.8,-4.990133642141358 L53.9,-4.911436253643439 L54.0,-4.755282581475772 L54.1,-4.52413526233012 L54.2,-4.221639627510086 L54.3,-3.8525662138789842 L54.4,-3.4227355296434636 L54.5,-2.9389262614624196 L54.6,-2.4087683705085445 L54.7,-1.8406227634233923 L54.8,-1.2434494358243144 L54.9,-0.6266661678215311 L55.0,-4.899825157862589e-14 L55.1,0.6266661678215044 L55.2,1.2434494358242885 L55.3,1.8406227634233674 L55.4,2.408768370508521 L55.5,2.938926261462398 L55.6,3.4227355296434436 L55.7,3.852566213878967 L55.8,4.221639627510072 L55.9,4.524135262330079 L56.0,4.755282581475764 L56.1,4.911436253643447 L56.2,4.990133642141357 L56.3,4.990133642141362 L56.4,4.911436253643435 L56.5,4.755282581475766 L56.6,4.524135262330082 L56.7,4.221639627510077 L56.8,3.8525662138789727 L56.9,3.4227355296434507 L57.0,2.938926261462406 L57.1,2.4087683705085916 L57.2,1.8406227634233763 L57.3,1.2434494358243666 L57.4,0.6266661678215141 L57.5,-3.920726699181296e-14 L57.6,-0.6266661678215213 L57.7,-1.2434494358242363 L57.8,-1.8406227634233832 L57.9,-2.4087683705085357 L58.0,-2.938926261462354 L58.1,-3.422735529643404 L58.2,-3.852566213878978 L58.3,-4.221639627510081 L58.4,-4.524135262330086 L58.5,-4.755282581475769 L58.6,-4.911436253643437 L58.7,-4.990133642141358 L58.8,-4.990133642141361 L58.9,-4.911436253643445 L59.0,-4.755282581475783 L59.1,-4.524135262330075 L59.2,-4.2216396275100685 L59.3,-3.8525662138789625 L59.4,-3.4227355296434387 L59.5,-2.9389262614623917 L59.6,-2.4087683705085765 L59.7,-1.8406227634233605 L59.8,-1.24344943582435 L59.9,-0.6266661678215675 L60.0,-8.575003516577825e-14 L60.1,0.6266661678215384 L60.2,1.2434494358243215 L60.3,1.840622763423333 L60.4,2.408768370508551 L60.5,2.9389262614623677 L60.6,3.422735529643417 L60.7,3.8525662138789434 L60.8,4.2216396275100525 L60.9,4.524135262330063 L61.0,4.755282581475774 L61.1,4.91143625364344 L61.2,4.990133642141359 L61.3,4.99013364214136 L61.4,4.911436253643442 L61.5,4.755282581475778 L61.6,4.524135262330098 L61.7,4.221639627510097 L61.8,3.8525662138789967 L61.9,3.422735529643426 L62.0,2.938926261462378 L62.1,2.408768370508562 L62.2,1.8406227634234107 L62.3,1.2434494358242647 L62.4,0.6266661678215504 L62.5,6.859879017134943e-14 L62.6,-0.6266661678214849 L62.7,-1.2434494358243382 L62.8,-1.8406227634233492 L62.9,-2.4087683705085663 L63.0,-2.938926261462382 L63.1,-3.422735529643429 L63.2,-3.8525662138789545 L63.3,-4.221639627510061 L63.4,-4.52413526233007 L63.5,-4.7552825814757576 L63.6,-4.91143625364343 L63.7,-4.990133642141355 L63.8,-4.990133642141358 L63.9,-4.911436253643452 L64.0,-4.755282581475773 L64.1,-4.52413526233009 L64.2,-4.22163962751005 L64.3,-3.8525662138789403 L64.4,-3.422735529643414 L64.5,-2.938926261462364 L64.6,-2.408768370508609 L64.7,-1.8406227634233945 L64.8,-1.2434494358243169 L64.9,-0.6266661678215335 L65.0,1.9606728399089415e-14 L65.1,0.6266661678214314 L65.2,1.243449435824286 L65.3,1.840622763423365 L65.4,2.408768370508581 L65.5,2.9389262614623384 L65.6,3.4227355296433903 L65.7,3.8525662138789203 L65.8,4.22163962751007 L65.9,4.524135262330107 L66.0,4.755282581475785 L66.1,4.911436253643446 L66.2,4.990133642141361 L66.3,4.990133642141357 L66.4,4.9114362536434495 L66.5,4.755282581475767 L66.6,4.524135262330113 L66.7,4.221639627510078 L66.8,3.8525662138789296 L66.9,3.422735529643401 L67.0,2.93892626146235 L67.1,2.408768370508594 L67.2,1.8406227634233787 L67.3,1.2434494358243002 L67.4,0.6266661678215164 L67.5,3.4296300182491775e-14 L67.6,-0.6266661678214485 L67.7,-1.2434494358243025 L67.8,-1.840622763423315 L67.9,-2.408768370508596 L68.0,-2.9389262614624094 L68.1,-3.4227355296434023 L68.2,-3.852566213878931 L68.3,-4.221639627510042 L68.4,-4.524135262330084 L68.5,-4.755282581475768 L68.6,-4.911436253643423 L68.7,-4.990133642141362 L68.8,-4.990133642141356 L68.9,-4.911436253643433 L69.0,-4.755282581475762 L69.1,-4.524135262330106 L69.2,-4.221639627510069 L69.3,-3.852566213878964 L69.4,-3.4227355296434405 L69.5,-2.938926261462336 L69.6,-2.408768370508641 L69.7,-1.8406227634233627 L69.8,-1.2434494358242836 L69.9,-0.6266661678214995 L70.0,-1.7145055188062946e-14 L70.1,0.6266661678214653 L70.2,1.2434494358242505 L70.3,1.8406227634233308 L70.4,2.408768370508611 L70.5,2.9389262614623086 L70.6,3.422735529643415 L70.7,3.8525662138789873 L70.8,4.221639627510051 L70.9,4.524135262330092 L71.0,4.7552825814757735 L71.1,4.911436253643426 L71.2,4.990133642141358 L71.3,4.990133642141355 L71.4,4.911436253643429 L71.5,4.755282581475757 L71.6,4.524135262330099 L71.7,4.22163962751006 L71.8,3.852566213878953 L71.9,3.4227355296434276 L72.0,2.93892626146238 L72.1,2.408768370508626 L72.2,1.840622763423347 L72.3,1.2434494358243358 L72.4,0.6266661678214824 L72.5,-6.189806365883577e-18 L72.6,-0.6266661678214824 L72.7,-1.243449435824267 L72.8,-1.840622763423347 L72.9,-2.4087683705085636 L73.0,-2.9389262614623224 L73.1,-3.4227355296433757 L73.2,-3.8525662138789984 L73.3,-4.22163962751006 L73.4,-4.524135262330129 L73.5,-4.755282581475779 L73.6,-4.911436253643429 L73.7,-4.99013364214136 L73.8,-4.990133642141358 L73.9,-4.91143625364344 L74.0,-4.755282581475751 L74.1,-4.524135262330122 L74.2,-4.221639627510051 L74.3,-3.8525662138789416 L74.4,-3.422735529643415 L74.5,-2.9389262614623664 L74.6,-2.408768370508611 L74.7,-1.8406227634233967 L74.8,-1.2434494358243193 L74.9,-0.6266661678214653 L75.0,-5.3896838775215307e-14 L75.1,0.6266661678214995 L75.2,1.2434494358242838 L75.3,1.8406227634233627 L75.4,2.4087683705085787 L75.5,2.938926261462336 L75.6,3.4227355296433886 L75.7,3.852566213878964 L75.8,4.221639627510031 L75.9,4.5241352623301365 L76.0,4.755282581475762 L76.1,4.911436253643419 L76.2,4.990133642141361 L76.3,4.990133642141362 L76.4,4.911436253643436 L76.5,4.755282581475768 L76.6,4.524135262330145 L76.7,4.221639627510042 L76.8,3.8525662138789762 L76.9,3.4227355296434023 L77.0,2.9389262614623526 L77.1,2.408768370508596 L77.2,1.840622763423381 L77.3,1.2434494358243025 L77.4,0.626666167821519 L77.5,3.674559378078648e-14 L77.6,-0.6266661678214459 L77.7,-1.2434494358242314 L77.8,-1.8406227634233787 L77.9,-2.408768370508594 L78.0,-2.93892626146235 L78.1,-3.422735529643401 L78.2,-3.8525662138789296 L78.3,-4.22163962751004 L78.4,-4.524135262330113 L78.5,-4.755282581475745 L78.6,-4.911436253643423 L78.7,-4.990133642141362 L78.8,-4.990133642141365 L78.9,-4.9114362536434335 L79.0,-4.755282581475763 L79.1,-4.524135262330137 L79.2,-4.22163962751007 L79.3,-3.852566213878965 L79.4,-3.4227355296433903 L79.5,-2.9389262614623957 L79.6,-2.408768370508581 L79.7,-1.840622763423365 L79.8,-1.243449435824286 L79.9,-0.6266661678215019 L80.0,-1.9594348786357652e-14 L80.1,0.626666167821463 L80.2,1.243449435824248 L80.3,1.8406227634233285 L80.4,2.4087683705085468 L80.5,2.938926261462364 L80.6,3.4227355296433615 L80.7,3.8525662138789403 L80.8,4.22163962751005 L80.9,4.524135262330121 L81.0,4.755282581475751 L81.1,4.9114362536434255 L81.2,4.9901336421413625 L81.3,4.990133642141364 L81.4,4.91143625364343 L81.5,4.755282581475802 L81.6,4.52413526233013 L81.7,4.221639627510061 L81.8,3.8525662138789545 L81.9,3.4227355296434814 L82.0,2.9389262614624396 L82.1,2.4087683705086906 L82.2,1.8406227634234151 L82.3,1.2434494358242694 L82.4,0.6266661678214143 L82.5,7.349737736793884e-14 L82.6,-0.6266661678214801 L82.7,-1.2434494358242647 L82.8,-1.8406227634233447 L82.9,-2.408768370508624 L83.0,-2.9389262614624356 L83.1,-3.4227355296433744 L83.2,-3.8525662138789514 L83.3,-4.2216396275100205 L83.4,-4.5241352623301285 L83.5,-4.755282581475778 L83.6,-4.911436253643442 L83.7,-4.990133642141355 L83.8,-4.990133642141363 L83.9,-4.911436253643426 L84.0,-4.755282581475774 L84.1,-4.524135262330093 L84.2,-4.221639627510128 L84.3,-3.852566213878989 L84.4,-3.422735529643417 L84.5,-2.9389262614623677 L84.6,-2.4087683705086134 L84.7,-1.840622763423465 L84.8,-1.2434494358243904 L84.9,-0.6266661678215384 L85.0,1.4708141202500006e-14 L85.1,0.6266661678214265 L85.2,1.24344943582435 L85.3,1.8406227634233605 L85.4,2.4087683705085765 L85.5,2.938926261462335 L85.6,3.4227355296433863 L85.7,3.8525662138790073 L85.8,4.2216396275100685 L85.9,4.524135262330105 L86.0,4.75528258147574 L86.1,4.911436253643432 L86.2,4.990133642141361 L86.3,4.990133642141358 L86.4,4.91143625364345 L86.5,4.755282581475791 L86.6,4.524135262330146 L86.7,4.221639627510081 L86.8,3.8525662138789323 L86.9,3.422735529643508 L87.0,2.9389262614624116 L87.1,2.4087683705085983 L87.2,1.8406227634233832 L87.3,1.243449435824305 L87.4,0.6266661678214508 L87.5,1.102491609550912e-13 L87.6,-0.6266661678214436 L87.7,-1.2434494358242978 L87.8,-1.84062276342331 L87.9,-2.408768370508654 L88.0,-2.938926261462348 L88.1,-3.422735529643399 L88.2,-3.852566213878928 L88.3,-4.221639627510039 L88.4,-4.524135262330143 L88.5,-4.755282581475766 L88.6,-4.911436253643422 L88.7,-4.990133642141353 L88.8,-4.990133642141361 L88.9,-4.9114362536434335 L89.0,-4.755282581475764 L89.1,-4.524135262330108 L89.2,-4.221639627510109 L89.3,-3.852566213879012 L89.4,-3.4227355296434436 L89.5,-2.93892626146234 L89.6,-2.4087683705086453 L89.7,-1.8406227634234336 L89.8,-1.2434494358242885 L89.9,-0.6266661678215044 L90.0,-2.2043642384652358e-14 L90.1,0.6266661678214605 L90.2,1.2434494358241768 L90.3,1.8406227634233263 L90.4,2.4087683705086067 L90.5,2.9389262614623046 L90.6,3.422735529643411 L90.7,3.8525662138789842 L90.8,4.221639627510048 L90.9,4.5241352623300894 L91.0,4.75528258147575 L91.1,4.9114362536434255 L91.2,4.990133642141358 L91.3,4.990133642141355 L91.4,4.911436253643457 L91.5,4.755282581475781 L91.6,4.524135262330101 L91.7,4.221639627510062 L91.8,3.8525662138789563 L91.9,3.422735529643483 L92.0,2.9389262614624414 L92.1,2.4087683705086302 L92.2,1.8406227634233514 L92.3,1.2434494358243406 L92.4,0.6266661678215578 L92.5,4.892397390223529e-15 L92.6,-0.6266661678214775 L92.7,-1.2434494358242623 L92.8,-1.840622763423342 L92.9,-2.408768370508684 L93.0,-2.9389262614623184 L93.1,-3.4227355296433726 L93.2,-3.8525662138789047 L93.3,-4.221639627510058 L93.4,-4.524135262330128 L93.5,-4.755282581475777 L93.6,-4.911436253643428 L93.7,-4.990133642141355 L93.8,-4.990133642141363 L93.9,-4.911436253643441 L94.0,-4.755282581475753 L94.1,-4.524135262330124 L94.2,-4.221639627510092 L94.3,-3.852566213878945 L94.4,-3.4227355296434188 L94.5,-2.9389262614623703 L94.6,-2.4087683705086156 L94.7,-1.8406227634234675 L94.8,-1.243449435824324 L94.9,-0.6266661678214702 L95.0,-5.879542597180471e-14 L95.1,0.6266661678214946 L95.2,1.243449435824279 L95.3,1.8406227634233583 L95.4,2.4087683705085747 L95.5,2.938926261462332 L95.6,3.4227355296433846 L95.7,3.8525662138789607 L95.8,4.2216396275100285 L95.9,4.524135262330074 L96.0,4.75528258147576 L96.1,4.911436253643445 L96.2,4.990133642141361 L96.3,4.9901336421413625 L96.4,4.91143625364345 L96.5,4.755282581475791 L96.6,4.524135262330117 L96.7,4.2216396275100445 L96.8,3.85256621387898 L96.9,3.4227355296434583 L97.0,2.938926261462356 L97.1,2.4087683705086005 L97.2,1.8406227634233854 L97.3,1.2434494358243073 L97.4,0.6266661678215943 L97.5,4.164418097737589e-14 L97.6,-0.6266661678214411 L97.7,-1.2434494358242267 L97.8,-1.840622763423374 L97.9,-2.40876837050859 L98.0,-2.9389262614623464 L98.1,-3.4227355296433974 L98.2,-3.8525662138789265 L98.3,-4.221639627510037 L98.4,-4.524135262330112 L98.5,-4.755282581475743 L98.6,-4.911436253643421 L98.7,-4.990133642141357 L98.8,-4.990133642141357 L98.9,-4.911436253643434 L99.0,-4.755282581475765 L99.1,-4.524135262330139 L99.2,-4.221639627510111 L99.3,-3.8525662138789682 L99.4,-3.4227355296433934 L99.5,-2.9389262614623997 L99.6,-2.4087683705085854 L99.7,-1.8406227634233696 L99.8,-1.2434494358242907 L99.9,-0.6266661678215067 L100.0,-2.4492935982947064e-14 L100.0,4.999999999999975 L99.9,4.373333832178493 L99.8,3.7565505641757095 L99.7,3.1593772365766304 L99.6,2.5912316294914146 L99.5,2.0610737385376003 L99.4,1.5772644703566066 L99.3,1.1474337861210318 L99.2,0.7783603724898889 L99.1,0.4758647376698608 L99.0,0.24471741852423534 L98.9,0.08856374635656561 L98.8,0.009866357858642871 L98.7,0.009866357858642871 L98.6,0.08856374635657893 L98.5,0.24471741852425666 L98.4,0.47586473766988835 L98.3,0.7783603724899626 L98.2,1.1474337861210735 L98.1,1.5772644703566026 L98.0,2.0610737385376536 L97.9,2.59123162949141 L97.8,3.159377236576626 L97.7,3.7565505641757735 L97.6,4.373333832178559 L97.5,5.000000000000042 L97.4,5.626666167821594 L97.3,6.243449435824307 L97.2,6.840622763423386 L97.1,7.4087683705086 L97.0,7.938926261462356 L96.9,8.422735529643457 L96.8,8.85256621387898 L96.7,9.221639627510044 L96.6,9.524135262330116 L96.5,9.755282581475791 L96.4,9.911436253643451 L96.3,9.990133642141362 L96.2,9.99013364214136 L96.1,9.911436253643444 L96.0,9.755282581475761 L95.9,9.524135262330073 L95.8,9.22163962751003 L95.7,8.85256621387896 L95.6,8.422735529643385 L95.5,7.938926261462332 L95.4,7.408768370508575 L95.3,6.840622763423358 L95.2,6.243449435824279 L95.1,5.626666167821495 L95.0,4.999999999999941 L94.9,4.373333832178529 L94.8,3.756550564175676 L94.7,3.1593772365765327 L94.6,2.5912316294913844 L94.5,2.0610737385376297 L94.4,1.5772644703565812 L94.3,1.1474337861210548 L94.2,0.7783603724899084 L94.1,0.4758647376698759 L94.0,0.2447174185242469 L93.9,0.08856374635655939 L93.8,0.009866357858636654 L93.7,0.009866357858644648 L93.6,0.08856374635657183 L93.5,0.2447174185242229 L93.4,0.47586473766987236 L93.3,0.7783603724899422 L93.2,1.1474337861210953 L93.1,1.5772644703566274 L93.0,2.0610737385376816 L92.9,2.591231629491316 L92.8,3.159377236576658 L92.7,3.756550564175738 L92.6,4.373333832178522 L92.5,5.000000000000005 L92.4,5.626666167821558 L92.3,6.24344943582434 L92.2,6.840622763423351 L92.1,7.40876837050863 L92.0,7.938926261462441 L91.9,8.422735529643482 L91.8,8.852566213878957 L91.7,9.221639627510061 L91.6,9.524135262330102 L91.5,9.75528258147578 L91.4,9.911436253643457 L91.3,9.990133642141355 L91.2,9.990133642141359 L91.1,9.911436253643426 L91.0,9.75528258147575 L90.9,9.52413526233009 L90.8,9.221639627510047 L90.7,8.852566213878983 L90.6,8.422735529643411 L90.5,7.938926261462305 L90.4,7.408768370508607 L90.3,6.840622763423326 L90.2,6.243449435824177 L90.1,5.62666616782146 L90.0,4.999999999999978 L89.9,4.373333832178496 L89.8,3.7565505641757113 L89.7,3.1593772365765664 L89.6,2.5912316294913547 L89.5,2.06107373853766 L89.4,1.5772644703565564 L89.3,1.1474337861209878 L89.2,0.7783603724898907 L89.1,0.4758647376698919 L89.0,0.24471741852423623 L88.9,0.0885637463565665 L88.8,0.009866357858639319 L88.7,0.009866357858647312 L88.6,0.08856374635657804 L88.5,0.24471741852423357 L88.4,0.47586473766985726 L88.3,0.7783603724899608 L88.2,1.1474337861210722 L88.1,1.5772644703566008 L88.0,2.061073738537652 L87.9,2.591231629491346 L87.8,3.15937723657669 L87.7,3.7565505641757024 L87.6,4.373333832178556 L87.5,5.00000000000011 L87.4,5.626666167821451 L87.3,6.243449435824305 L87.2,6.840622763423383 L87.1,7.408768370508598 L87.0,7.938926261462411 L86.9,8.422735529643507 L86.8,8.852566213878932 L86.7,9.221639627510081 L86.6,9.524135262330146 L86.5,9.755282581475791 L86.4,9.911436253643451 L86.3,9.990133642141359 L86.2,9.99013364214136 L86.1,9.911436253643432 L86.0,9.75528258147574 L85.9,9.524135262330105 L85.8,9.221639627510068 L85.7,8.852566213879008 L85.6,8.422735529643386 L85.5,7.938926261462335 L85.4,7.408768370508577 L85.3,6.840622763423361 L85.2,6.24344943582435 L85.1,5.626666167821426 L85.0,5.000000000000015 L84.9,4.373333832178462 L84.8,3.7565505641756096 L84.7,3.159377236576535 L84.6,2.5912316294913866 L84.5,2.0610737385376323 L84.4,1.577264470356583 L84.3,1.1474337861210109 L84.2,0.778360372489872 L84.1,0.475864737669907 L84.0,0.24471741852422557 L83.9,0.0885637463565736 L83.8,0.009866357858636654 L83.7,0.009866357858644648 L83.6,0.08856374635655762 L83.5,0.24471741852422202 L83.4,0.4758647376698715 L83.3,0.7783603724899795 L83.2,1.1474337861210486 L83.1,1.5772644703566256 L83.0,2.0610737385375644 L82.9,2.591231629491376 L82.8,3.1593772365766553 L82.7,3.7565505641757353 L82.6,4.37333383217852 L82.5,5.000000000000074 L82.4,5.626666167821414 L82.3,6.243449435824269 L82.2,6.840622763423415 L82.1,7.408768370508691 L82.0,7.93892626146244 L81.9,8.422735529643482 L81.8,8.852566213878955 L81.7,9.221639627510061 L81.6,9.52413526233013 L81.5,9.755282581475802 L81.4,9.91143625364343 L81.3,9.990133642141364 L81.2,9.990133642141362 L81.1,9.911436253643426 L81.0,9.75528258147575 L80.9,9.524135262330121 L80.8,9.22163962751005 L80.7,8.85256621387894 L80.6,8.422735529643361 L80.5,7.938926261462364 L80.4,7.408768370508547 L80.3,6.840622763423329 L80.2,6.243449435824248 L80.1,5.626666167821463 L80.0,4.9999999999999805 L79.9,4.373333832178498 L79.8,3.756550564175714 L79.7,3.159377236576635 L79.6,2.591231629491419 L79.5,2.0610737385376043 L79.4,1.5772644703566097 L79.3,1.1474337861210349 L79.2,0.7783603724899297 L79.1,0.4758647376698626 L79.0,0.24471741852423712 L78.9,0.0885637463565665 L78.8,0.009866357858634878 L78.7,0.00986635785863843 L78.6,0.08856374635657716 L78.5,0.24471741852425488 L78.4,0.4758647376698866 L78.3,0.7783603724899599 L78.2,1.1474337861210704 L78.1,1.577264470356599 L78.0,2.06107373853765 L77.9,2.591231629491406 L77.8,3.1593772365766215 L77.7,3.7565505641757686 L77.6,4.373333832178554 L77.5,5.000000000000036 L77.4,5.626666167821519 L77.3,6.243449435824303 L77.2,6.840622763423381 L77.1,7.4087683705085965 L77.0,7.938926261462353 L76.9,8.422735529643402 L76.8,8.852566213878976 L76.7,9.221639627510042 L76.6,9.524135262330145 L76.5,9.755282581475768 L76.4,9.911436253643437 L76.3,9.990133642141362 L76.2,9.99013364214136 L76.1,9.91143625364342 L76.0,9.755282581475761 L75.9,9.524135262330137 L75.8,9.221639627510031 L75.7,8.852566213878964 L75.6,8.422735529643388 L75.5,7.938926261462337 L75.4,7.408768370508579 L75.3,6.8406227634233625 L75.2,6.243449435824283 L75.1,5.626666167821499 L75.0,4.999999999999946 L74.9,4.373333832178535 L74.8,3.7565505641756807 L74.7,3.1593772365766033 L74.6,2.591231629491389 L74.5,2.0610737385376336 L74.4,1.5772644703565848 L74.3,1.1474337861210584 L74.2,0.7783603724899493 L74.1,0.4758647376698777 L74.0,0.24471741852424866 L73.9,0.08856374635656028 L73.8,0.009866357858641983 L73.7,0.009866357858640207 L73.6,0.08856374635657094 L73.5,0.24471741852422113 L73.4,0.4758647376698706 L73.3,0.7783603724899404 L73.2,1.1474337861210016 L73.1,1.5772644703566243 L73.0,2.0610737385376776 L72.9,2.5912316294914364 L72.8,3.159377236576653 L72.7,3.756550564175733 L72.6,4.373333832178518 L72.5,5.0 L72.4,5.626666167821482 L72.3,6.243449435824336 L72.2,6.840622763423347 L72.1,7.408768370508626 L72.0,7.93892626146238 L71.9,8.422735529643427 L71.8,8.852566213878953 L71.7,9.22163962751006 L71.6,9.524135262330098 L71.5,9.755282581475758 L71.4,9.91143625364343 L71.3,9.990133642141355 L71.2,9.990133642141359 L71.1,9.911436253643426 L71.0,9.755282581475774 L70.9,9.524135262330091 L70.8,9.22163962751005 L70.7,8.852566213878987 L70.6,8.422735529643415 L70.5,7.938926261462308 L70.4,7.408768370508611 L70.3,6.8406227634233305 L70.2,6.2434494358242505 L70.1,5.626666167821465 L70.0,4.999999999999983 L69.9,4.373333832178501 L69.8,3.7565505641757166 L69.7,3.1593772365766375 L69.6,2.591231629491359 L69.5,2.061073738537664 L69.4,1.5772644703565595 L69.3,1.1474337861210362 L69.2,0.7783603724899306 L69.1,0.4758647376698937 L69.0,0.244717418524238 L68.9,0.08856374635656739 L68.8,0.00986635785864376 L68.7,0.00986635785863843 L68.6,0.08856374635657716 L68.5,0.2447174185242318 L68.4,0.4758647376699159 L68.3,0.7783603724899582 L68.2,1.147433786121069 L68.1,1.5772644703565977 L68.0,2.0610737385375906 L67.9,2.591231629491404 L67.8,3.159377236576685 L67.7,3.7565505641756975 L67.6,4.3733338321785515 L67.5,5.000000000000035 L67.4,5.626666167821517 L67.3,6.2434494358243 L67.2,6.8406227634233785 L67.1,7.408768370508594 L67.0,7.93892626146235 L66.9,8.4227355296434 L66.8,8.85256621387893 L66.7,9.22163962751008 L66.6,9.524135262330113 L66.5,9.755282581475768 L66.4,9.91143625364345 L66.3,9.990133642141357 L66.2,9.99013364214136 L66.1,9.911436253643446 L66.0,9.755282581475786 L65.9,9.524135262330107 L65.8,9.22163962751007 L65.7,8.85256621387892 L65.6,8.42273552964339 L65.5,7.938926261462338 L65.4,7.4087683705085805 L65.3,6.840622763423365 L65.2,6.243449435824286 L65.1,5.626666167821432 L65.0,5.0000000000000195 L64.9,4.373333832178466 L64.8,3.756550564175683 L64.7,3.1593772365766055 L64.6,2.591231629491391 L64.5,2.061073738537636 L64.4,1.5772644703565861 L64.3,1.1474337861210597 L64.2,0.7783603724899502 L64.1,0.47586473766990967 L64.0,0.24471741852422735 L63.9,0.08856374635654785 L63.8,0.009866357858641983 L63.7,0.009866357858644648 L63.6,0.08856374635657005 L63.5,0.24471741852424245 L63.4,0.4758647376699301 L63.3,0.7783603724899386 L63.2,1.1474337861210455 L63.1,1.577264470356571 L63.0,2.061073738537618 L62.9,2.5912316294914337 L62.8,3.159377236576651 L62.7,3.7565505641756616 L62.6,4.373333832178515 L62.5,5.000000000000068 L62.4,5.626666167821551 L62.3,6.243449435824265 L62.2,6.8406227634234105 L62.1,7.408768370508562 L62.0,7.9389262614623775 L61.9,8.422735529643425 L61.8,8.852566213878998 L61.7,9.221639627510097 L61.6,9.524135262330098 L61.5,9.755282581475779 L61.4,9.911436253643442 L61.3,9.990133642141359 L61.2,9.990133642141359 L61.1,9.91143625364344 L61.0,9.755282581475775 L60.9,9.524135262330063 L60.8,9.221639627510053 L60.7,8.852566213878944 L60.6,8.422735529643417 L60.5,7.938926261462368 L60.4,7.408768370508551 L60.3,6.840622763423333 L60.2,6.2434494358243215 L60.1,5.626666167821538 L60.0,4.999999999999914 L59.9,4.3733338321784325 L59.8,3.75655056417565 L59.7,3.1593772365766393 L59.6,2.5912316294914235 L59.5,2.0610737385376083 L59.4,1.5772644703565613 L59.3,1.1474337861210375 L59.2,0.7783603724899315 L59.1,0.47586473766992476 L59.0,0.2447174185242167 L58.9,0.08856374635655495 L58.8,0.009866357858639319 L58.7,0.009866357858641983 L58.6,0.08856374635656294 L58.5,0.2447174185242309 L58.4,0.4758647376699141 L58.3,0.7783603724899191 L58.2,1.147433786121022 L58.1,1.577264470356596 L58.0,2.061073738537646 L57.9,2.5912316294914643 L57.8,3.159377236576617 L57.7,3.7565505641757637 L57.6,4.373333832178479 L57.5,4.999999999999961 L57.4,5.626666167821514 L57.3,6.243449435824367 L57.2,6.840622763423376 L57.1,7.408768370508591 L57.0,7.938926261462406 L56.9,8.42273552964345 L56.8,8.852566213878973 L56.7,9.221639627510077 L56.6,9.524135262330082 L56.5,9.755282581475766 L56.4,9.911436253643435 L56.3,9.990133642141362 L56.2,9.990133642141357 L56.1,9.911436253643448 L56.0,9.755282581475765 L55.9,9.524135262330079 L55.8,9.221639627510072 L55.7,8.852566213878967 L55.6,8.422735529643443 L55.5,7.938926261462398 L55.4,7.408768370508521 L55.3,6.840622763423367 L55.2,6.243449435824289 L55.1,5.626666167821504 L55.0,4.999999999999951 L54.9,4.373333832178469 L54.8,3.7565505641756856 L54.7,3.1593772365766077 L54.6,2.5912316294914555 L54.5,2.0610737385375804 L54.4,1.5772644703565364 L54.3,1.1474337861210158 L54.2,0.7783603724899137 L54.1,0.47586473766988036 L54.0,0.24471741852422824 L53.9,0.08856374635656117 L53.8,0.009866357858641983 L53.7,0.009866357858640207 L53.6,0.08856374635655673 L53.5,0.24471741852424156 L53.4,0.4758647376699292 L53.3,0.7783603724899377 L53.2,1.1474337861210895 L53.1,1.5772644703565684 L53.0,2.061073738537616 L52.9,2.591231629491432 L52.8,3.1593772365765824 L52.7,3.756550564175728 L52.6,4.3733338321785125 L52.5,4.999999999999995 L52.4,5.626666167821548 L52.3,6.243449435824331 L52.2,6.840622763423342 L52.1,7.408768370508559 L52.0,7.938926261462376 L51.9,8.422735529643424 L51.8,8.852566213878994 L51.7,9.221639627510058 L51.6,9.524135262330097 L51.5,9.755282581475777 L51.4,9.911436253643455 L51.3,9.990133642141359 L51.2,9.990133642141359 L51.1,9.91143625364344 L51.0,9.755282581475775 L50.9,9.524135262330095 L50.8,9.221639627510072 L50.7,8.852566213878944 L50.6,8.42273552964347 L50.5,7.938926261462341 L50.4,7.408768370508553 L50.3,6.840622763423402 L50.2,6.243449435824255 L50.1,5.626666167821505 L50.0,4.999999999999988 L49.9,4.37333383217847 L49.8,3.756550564175721 L49.7,3.159377236576642 L49.6,2.591231629491394 L49.5,2.0610737385376385 L49.4,1.5772644703565635 L49.3,1.1474337861210167 L49.2,0.7783603724899333 L49.1,0.47586473766989545 L49.0,0.24471741852422824 L48.9,0.08856374635655495 L48.8,0.009866357858639319 L48.7,0.009866357858644648 L48.6,0.08856374635655673 L48.5,0.24471741852423 L48.4,0.4758647376699132 L48.3,0.7783603724899368 L48.2,1.147433786121066 L48.1,1.5772644703565417 L48.0,2.061073738537644 L47.9,2.591231629491462 L47.8,3.1593772365766477 L47.7,3.7565505641757273 L47.6,4.373333832178476 L47.5,5.000000000000029 L47.4,5.626666167821547 L47.3,6.243449435824296 L47.2,6.840622763423374 L47.1,7.408768370508589 L47.0,7.938926261462346 L46.9,8.422735529643475 L46.8,8.852566213878973 L46.7,9.221639627510056 L46.6,9.524135262330113 L46.5,9.755282581475777 L46.4,9.911436253643448 L46.3,9.990133642141359 L46.2,9.990133642141357 L46.1,9.911436253643448 L46.0,9.755282581475754 L45.9,9.524135262330095 L45.8,9.221639627510072 L45.7,8.852566213878923 L45.6,8.422735529643447 L45.5,7.938926261462342 L45.4,7.408768370508554 L45.3,6.84062276342337 L45.2,6.2434494358242905 L45.1,5.6266661678214716 L45.0,4.999999999999989 L44.9,4.373333832178472 L44.8,3.756550564175688 L44.7,3.15937723657661 L44.6,2.5912316294913955 L44.5,2.06107373853764 L44.4,1.5772644703565386 L44.3,1.1474337861210175 L44.2,0.7783603724899528 L44.1,0.47586473766989634 L44.0,0.24471741852422912 L43.9,0.08856374635654873 L43.8,0.009866357858640207 L43.7,0.009866357858640207 L43.6,0.08856374635655584 L43.5,0.24471741852424067 L43.4,0.4758647376698981 L43.3,0.7783603724899555 L43.2,1.1474337861210646 L43.1,1.5772644703565408 L43.0,2.0610737385376714 L42.9,2.5912316294914297 L42.8,3.1593772365766464 L42.7,3.756550564175726 L42.6,4.37333383217844 L42.5,4.999999999999993 L42.4,5.626666167821581 L42.3,6.243449435824294 L42.2,6.840622763423373 L42.1,7.40876837050862 L42.0,7.938926261462374 L41.9,8.422735529643475 L41.8,8.852566213878948 L41.7,9.221639627510056 L41.6,9.524135262330097 L41.5,9.755282581475754 L41.4,9.911436253643448 L41.3,9.990133642141359 L41.2,9.99013364214136 L41.1,9.91143625364344 L41.0,9.755282581475754 L40.9,9.524135262330095 L40.8,9.221639627510054 L40.7,8.85256621387897 L40.6,8.422735529643472 L40.5,7.938926261462344 L40.4,7.408768370508556 L40.3,6.840622763423338 L40.2,6.243449435824258 L40.1,5.626666167821508 L40.0,4.99999999999999 L39.9,4.3733338321784725 L39.8,3.7565505641757237 L39.7,3.1593772365766437 L39.6,2.5912316294914275 L39.5,2.061073738537641 L39.4,1.5772644703565133 L39.3,1.1474337861210184 L39.2,0.7783603724899351 L39.1,0.47586473766989634 L39.0,0.24471741852422912 L38.9,0.08856374635655495 L38.8,0.009866357858640207 L38.7,0.009866357858641983 L38.6,0.08856374635655584 L38.5,0.24471741852423 L38.4,0.47586473766991233 L38.3,0.7783603724899546 L38.2,1.1474337861210415 L38.1,1.5772644703565404 L38.0,2.061073738537642 L37.9,2.59123162949146 L37.8,3.1593772365766455 L37.7,3.7565505641757246 L37.6,4.373333832178474 L37.5,5.000000000000027 L37.4,5.626666167821544 L37.3,6.243449435824293 L37.2,6.840622763423372 L37.1,7.4087683705085565 L37.0,7.938926261462344 L36.9,8.422735529643447 L36.8,8.85256621387897 L36.7,9.221639627510054 L36.6,9.52413526233008 L36.5,9.755282581475775 L36.4,9.911436253643448 L36.3,9.990133642141359 L36.2,9.990133642141359 L36.1,9.911436253643448 L36.0,9.755282581475765 L35.9,9.524135262330095 L35.8,9.221639627510074 L35.7,8.85256621387897 L35.6,8.422735529643447 L35.5,7.938926261462373 L35.4,7.4087683705085565 L35.3,6.840622763423372 L35.2,6.243449435824293 L35.1,5.626666167821509 L35.0,4.999999999999991 L34.9,4.373333832178474 L34.8,3.75655056417569 L34.7,3.1593772365766126 L34.6,2.591231629491429 L34.5,2.061073738537642 L34.4,1.5772644703565657 L34.3,1.1474337861210193 L34.2,0.7783603724899164 L34.1,0.47586473766989723 L34.0,0.24471741852424067 L33.9,0.08856374635654873 L33.8,0.009866357858640207 L33.7,0.009866357858641983 L33.6,0.08856374635655495 L33.5,0.24471741852422912 L33.4,0.47586473766989634 L33.3,0.7783603724899351 L33.2,1.1474337861210637 L33.1,1.577264470356539 L33.0,2.061073738537612 L32.9,2.5912316294914275 L32.8,3.1593772365766437 L32.7,3.7565505641757237 L32.6,4.3733338321784725 L32.5,4.99999999999999 L32.4,5.6266661678215435 L32.3,6.243449435824292 L32.2,6.8406227634233705 L32.1,7.408768370508556 L32.0,7.938926261462372 L31.9,8.422735529643447 L31.8,8.85256621387897 L31.7,9.221639627510093 L31.6,9.524135262330095 L31.5,9.755282581475765 L31.4,9.911436253643448 L31.3,9.990133642141359 L31.2,9.990133642141357 L31.1,9.91143625364344 L31.0,9.755282581475765 L30.9,9.52413526233008 L30.8,9.221639627510076 L30.7,8.852566213878948 L30.6,8.422735529643449 L30.5,7.938926261462374 L30.4,7.408768370508557 L30.3,6.840622763423373 L30.2,6.24344943582426 L30.1,5.626666167821545 L30.0,4.999999999999957 L29.9,4.37333383217844 L29.8,3.756550564175726 L29.7,3.1593772365766135 L29.6,2.5912316294914297 L29.5,2.0610737385376146 L29.4,1.5772644703565408 L29.3,1.1474337861210424 L29.2,0.7783603724899173 L29.1,0.47586473766991233 L29.0,0.24471741852423 L28.9,0.08856374635655584 L28.8,0.009866357858641983 L28.7,0.009866357858641983 L28.6,0.08856374635655495 L28.5,0.24471741852423978 L28.4,0.47586473766991144 L28.3,0.7783603724899155 L28.2,1.1474337861210406 L28.1,1.577264470356564 L28.0,2.06107373853764 L27.9,2.5912316294914266 L27.8,3.15937723657661 L27.7,3.7565505641757566 L27.6,4.373333832178472 L27.5,5.000000000000025 L27.4,5.626666167821542 L27.3,6.243449435824257 L27.2,6.8406227634234025 L27.1,7.408768370508586 L27.0,7.938926261462371 L26.9,8.422735529643447 L26.8,8.852566213878946 L26.7,9.221639627510092 L26.6,9.524135262330109 L26.5,9.755282581475765 L26.4,9.91143625364344 L26.3,9.990133642141359 L26.2,9.990133642141357 L26.1,9.911436253643448 L26.0,9.755282581475766 L25.9,9.52413526233008 L25.8,9.221639627510076 L25.7,8.852566213878927 L25.6,8.42273552964345 L25.5,7.938926261462376 L25.4,7.408768370508574 L25.3,6.840622763423407 L25.2,6.243449435824261 L25.1,5.6266661678215115 L25.0,4.999999999999994 L24.9,4.373333832178476 L24.8,3.7565505641757095 L24.7,3.1593772365766144 L24.6,2.591231629491431 L24.5,2.061073738537629 L24.4,1.5772644703565417 L24.3,1.1474337861210544 L24.2,0.7783603724899173 L24.1,0.4758647376698981 L24.0,0.24471741852423 L23.9,0.08856374635655317 L23.8,0.009866357858641983 L23.7,0.009866357858642871 L23.6,0.08856374635655495 L23.5,0.24471741852422824 L23.4,0.47586473766991055 L23.3,0.7783603724899333 L23.2,1.147433786121062 L23.1,1.5772644703565635 L23.0,2.061073738537653 L22.9,2.5912316294914253 L22.8,3.1593772365766086 L22.7,3.7565505641757384 L22.6,4.37333383217847 L22.5,5.000000000000005 L22.4,5.626666167821541 L22.3,6.24344943582429 L22.2,6.840622763423402 L22.1,7.408768370508553 L22.0,7.93892626146237 L21.9,8.422735529643457 L21.8,8.852566213878944 L21.7,9.221639627510072 L21.6,9.524135262330102 L21.5,9.755282581475775 L21.4,9.911436253643448 L21.3,9.990133642141357 L21.2,9.990133642141355 L21.1,9.911436253643444 L21.0,9.755282581475766 L20.9,9.524135262330097 L20.8,9.221639627510076 L20.7,8.852566213878939 L20.6,8.422735529643463 L20.5,7.938926261462347 L20.4,7.408768370508559 L20.3,6.840622763423408 L20.2,6.243449435824262 L20.1,5.626666167821513 L20.0,4.999999999999995 L19.9,4.373333832178478 L19.8,3.756550564175728 L19.7,3.1593772365765824 L19.6,2.591231629491432 L19.5,2.0610737385376305 L19.4,1.577264470356543 L19.3,1.1474337861210553 L19.2,0.7783603724899182 L19.1,0.475864737669907 L19.0,0.2447174185242309 L18.9,0.08856374635655317 L18.8,0.009866357858641983 L18.7,0.009866357858642871 L18.6,0.08856374635655495 L18.5,0.24471741852422824 L18.4,0.47586473766991055 L18.3,0.7783603724899137 L18.2,1.1474337861210615 L18.1,1.5772644703565497 L18.0,2.0610737385376376 L17.9,2.5912316294914244 L17.8,3.1593772365766077 L17.7,3.756550564175737 L17.6,4.373333832178469 L17.5,5.000000000000004 L17.4,5.62666616782154 L17.3,6.243449435824271 L17.2,6.840622763423384 L17.1,7.408768370508583 L17.0,7.938926261462354 L16.9,8.422735529643457 L16.8,8.852566213878944 L16.7,9.221639627510072 L16.6,9.524135262330102 L16.5,9.755282581475765 L16.4,9.911436253643448 L16.3,9.990133642141359 L16.2,9.990133642141357 L16.1,9.911436253643444 L16.0,9.755282581475766 L15.9,9.524135262330091 L15.8,9.221639627510077 L15.7,8.852566213878939 L15.6,8.422735529643438 L15.5,7.938926261462362 L15.4,7.408768370508576 L15.3,6.840622763423393 L15.2,6.243449435824264 L15.1,5.626666167821514 L15.0,4.999999999999979 L14.9,4.373333832178479 L14.8,3.7565505641757295 L14.7,3.1593772365766 L14.6,2.5912316294914173 L14.5,2.0610737385376314 L14.4,1.5772644703565564 L14.3,1.1474337861210557 L14.2,0.7783603724899191 L14.1,0.475864737669907 L14.0,0.2447174185242309 L13.9,0.08856374635655673 L13.8,0.009866357858641983 L13.7,0.009866357858642871 L13.6,0.08856374635655762 L13.5,0.24471741852423268 L13.4,0.47586473766990167 L13.3,0.7783603724899315 L13.2,1.1474337861210495 L13.1,1.5772644703565613 L13.0,2.061073738537637 L12.9,2.5912316294914235 L12.8,3.1593772365766064 L12.7,3.7565505641757273 L12.6,4.373333832178485 L12.5,5.000000000000003 L12.4,5.626666167821529 L12.3,6.24344943582427 L12.2,6.840622763423399 L12.1,7.408768370508582 L12.0,7.938926261462368 L11.9,8.422735529643443 L11.8,8.852566213878944 L11.7,9.221639627510081 L11.6,9.524135262330102 L11.5,9.755282581475772 L11.4,9.911436253643444 L11.3,9.990133642141359 L11.2,9.990133642141357 L11.1,9.911436253643442 L11.0,9.755282581475768 L10.9,9.524135262330098 L10.8,9.221639627510072 L10.7,8.85256621387894 L10.6,8.422735529643433 L10.5,7.938926261462363 L10.4,7.408768370508577 L10.3,6.8406227634234025 L10.2,6.243449435824265 L10.1,5.626666167821515 L10.0,4.999999999999997 L9.9,4.37333383217848 L9.8,3.756550564175731 L9.7,3.1593772365766015 L9.6,2.5912316294914186 L9.5,2.0610737385376328 L9.4,1.5772644703565577 L9.3,1.147433786121057 L9.2,0.77836037248992 L9.1,0.4758647376698999 L9.0,0.2447174185242309 L8.9,0.08856374635655673 L8.8,0.009866357858642871 L8.7,0.009866357858642871 L8.6,0.08856374635655584 L8.5,0.24471741852423 L8.4,0.47586473766990167 L8.3,0.7783603724899271 L8.2,1.1474337861210597 L8.1,1.5772644703565608 L8.0,2.061073738537636 L7.9,2.591231629491422 L7.8,3.1593772365766135 L7.7,3.7565505641757264 L7.6,4.373333832178484 L7.5,5.000000000000011 L7.4,5.6266661678215195 L7.3,6.243449435824277 L7.2,6.84062276342339 L7.1,7.4087683705085805 L7.0,7.938926261462367 L6.9,8.422735529643441 L6.8,8.852566213878948 L6.7,9.221639627510076 L6.6,9.524135262330097 L6.5,9.755282581475768 L6.4,9.911436253643444 L6.3,9.990133642141359 L6.2,9.990133642141359 L6.1,9.911436253643442 L6.0,9.755282581475768 L5.9,9.524135262330098 L5.8,9.221639627510074 L5.7,8.852566213878946 L5.6,8.42273552964344 L5.5,7.938926261462365 L5.4,7.408768370508574 L5.3,6.840622763423383 L5.2,6.2434494358242745 L5.1,5.626666167821517 L5.0,4.999999999999999 L4.9,4.373333832178481 L4.8,3.7565505641757233 L4.7,3.159377236576611 L4.6,2.5912316294914195 L4.5,2.061073738537633 L4.4,1.5772644703565586 L4.3,1.1474337861210548 L4.2,0.7783603724899253 L4.1,0.4758647376699008 L4.0,0.2447174185242318 L3.9,0.08856374635655673 L3.8,0.009866357858641983 L3.7,0.009866357858641983 L3.6,0.08856374635655673 L3.5,0.24471741852423268 L3.4,0.47586473766990345 L3.3,0.7783603724899235 L3.2,1.147433786121053 L3.1,1.5772644703565581 L3.0,2.061073738537635 L2.9,2.591231629491425 L2.8,3.1593772365766126 L2.7,3.7565505641757273 L2.6,4.373333832178479 L2.5,5.000000000000001 L2.4,5.626666167821522 L2.3,6.243449435824276 L2.2,6.840622763423388 L2.1,7.408768370508576 L2.0,7.938926261462367 L1.9,8.422735529643443 L1.8,8.852566213878946 L1.7,9.221639627510076 L1.6,9.524135262330098 L1.5,9.755282581475768 L1.4,9.911436253643444 L1.3,9.990133642141359 L1.2,9.990133642141359 L1.1,9.911436253643444 L1.0,9.755282581475768 L0.9,9.524135262330098 L0.8,9.221639627510076 L0.7,8.852566213878946 L0.6,8.422735529643443 L0.5,7.938926261462366 L0.4,7.408768370508577 L0.3,6.84062276342339 L0.2,6.2434494358242745 L0.1,5.626666167821521 L0.0,5.0" fill="#000000"  />
<!-- Footer -->
</svg>
