<!-- Header -->
<svg
    version="1.1"
    baseProfile="full"
    xmlns="http://www.w3.org/2000/svg"
    xmlns:xlink="http://www.w3.org/1999/xlink"
    xmlns:ev="http://www.w3.org/2001/xml-events"
    width="125.0"
    height="50.0"
    viewBox="-12.5 -17.5 125.0 50.0"
    preserveAspectRatio="none"
>
<!-- Body -->
<!-- Path -->
<path d="M0.0,0.0 L0.1,0.31395259764656686 L0.2,0.6266661678215213 L0.3,0.936906572928623 L0.4,1.243449435824274 L0.5,1.545084971874737 L0.6,1.8406227634233896 L0.7,2.128896457825363 L0.8,2.4087683705085765 L0.9,2.679133974894983 L1.0,2.938926261462366 L1.1,3.1871199487434487 L1.2,3.422735529643443 L1.3,3.644843137107058 L1.4,3.8525662138789456 L1.5,4.045084971874737 L1.6,4.221639627510076 L1.7,4.381533400219318 L1.8,4.524135262330098 L1.9,4.648882429441256 L2.0,4.755282581475767 L2.1,4.842915805643155 L2.2,4.911436253643443 L2.3,4.960573506572389 L2.4,4.990133642141358 L2.5,5.0 L2.6,4.990133642141358 L2.7,4.9605735065723895 L2.8,4.911436253643443 L2.9,4.842915805643156 L3.0,4.755282581475768 L3.1,4.648882429441257 L3.2,4.524135262330097 L3.3,4.381533400219317 L3.4,4.221639627510076 L3.5,4.045084971874737 L3.6,3.852566213878946 L3.7,3.644843137107057 L3.8,3.422735529643444 L3.9,3.187119948743449 L4.0,2.9389262614623664 L4.1,2.679133974894985 L4.2,2.408768370508576 L4.3,2.1288964578253626 L4.4,1.8406227634233887 L4.5,1.5450849718747375 L4.6,1.2434494358242763 L4.7,0.9369065729286229 L4.8,0.6266661678215226 L4.9,0.3139525976465657 L5.0,6.123233995736766e-16 L5.1,-0.3139525976465645 L5.2,-0.6266661678215214 L5.3,-0.9369065729286195 L5.4,-1.243449435824273 L5.5,-1.5450849718747364 L5.6,-1.8406227634233874 L5.7,-2.1288964578253635 L5.8,-2.408768370508575 L5.9,-2.6791339748949836 L6.0,-2.938926261462365 L6.1,-3.1871199487434465 L6.2,-3.422735529643442 L6.3,-3.6448431371070567 L6.4,-3.852566213878947 L6.5,-4.045084971874736 L6.6,-4.2216396275100765 L6.7,-4.381533400219318 L6.8,-4.5241352623300966 L6.9,-4.648882429441257 L7.0,-4.755282581475767 L7.1,-4.8429158056431545 L7.2,-4.911436253643443 L7.3,-4.960573506572389 L7.4,-4.990133642141358 L7.5,-5.0 L7.6,-4.990133642141358 L7.7,-4.9605735065723895 L7.8,-4.911436253643443 L7.9,-4.842915805643155 L8.0,-4.755282581475768 L8.1,-4.648882429441258 L8.2,-4.524135262330099 L8.3,-4.381533400219319 L8.4,-4.221639627510075 L8.5,-4.045084971874735 L8.6,-3.852566213878945 L8.7,-3.6448431371070606 L8.8,-3.4227355296434414 L8.9,-3.1871199487434483 L9.0,-2.938926261462367 L9.1,-2.6791339748949854 L9.2,-2.4087683705085805 L9.3,-2.128896457825361 L9.4,-1.8406227634233894 L9.5,-1.5450849718747381 L9.6,-1.2434494358242767 L9.7,-0.9369065729286279 L9.8,-0.626666167821519 L9.9,-0.3139525976465663 L10.0,-1.2246467991473533e-15 L10.1,0.3139525976465639 L10.2,0.6266661678215164 L10.3,0.9369065729286298 L10.4,1.2434494358242745 L10.5,1.545084971874736 L10.6,1.840622763423383 L10.7,2.128896457825359 L10.8,2.4087683705085743 L10.9,2.679133974894983 L11.0,2.9389262614623646 L11.1,3.187119948743446 L11.2,3.4227355296434396 L11.3,3.6448431371070593 L11.4,3.852566213878946 L11.5,4.045084971874734 L11.6,4.221639627510074 L11.7,4.381533400219316 L11.8,4.524135262330098 L11.9,4.648882429441257 L12.0,4.755282581475767 L12.1,4.8429158056431545 L12.2,4.911436253643442 L12.3,4.9605735065723895 L12.4,4.990133642141358 L12.5,5.0 L12.6,4.990133642141358 L12.7,4.9605735065723895 L12.8,4.911436253643443 L12.9,4.842915805643155 L13.0,4.755282581475768 L13.1,4.648882429441258 L13.2,4.5241352623300966 L13.3,4.381533400219321 L13.4,4.221639627510076 L13.5,4.045084971874738 L13.6,3.8525662138789487 L13.7,3.644843137107061 L13.8,3.422735529643442 L13.9,3.1871199487434487 L14.0,2.938926261462367 L14.1,2.6791339748949783 L14.2,2.408768370508581 L14.3,2.1288964578253617 L14.4,1.8406227634233898 L14.5,1.545084971874739 L14.6,1.2434494358242774 L14.7,0.9369065729286284 L14.8,0.6266661678215195 L14.9,0.3139525976465669 L15.0,1.0718754395722281e-14 L15.1,-0.31395259764656325 L15.2,-0.6266661678215159 L15.3,-0.9369065729286248 L15.4,-1.2434494358242738 L15.5,-1.5450849718747353 L15.6,-1.8406227634233863 L15.7,-2.128896457825358 L15.8,-2.408768370508578 L15.9,-2.6791339748949756 L16.0,-2.938926261462364 L16.1,-3.1871199487434527 L16.2,-3.422735529643439 L16.3,-3.644843137107059 L16.4,-3.8525662138789403 L16.5,-4.045084971874741 L16.6,-4.221639627510073 L16.7,-4.38153340021932 L16.8,-4.524135262330098 L16.9,-4.648882429441254 L17.0,-4.75528258147577 L17.1,-4.8429158056431545 L17.2,-4.911436253643444 L17.3,-4.9605735065723895 L17.4,-4.990133642141357 L17.5,-5.0 L17.6,-4.990133642141357 L17.7,-4.9605735065723895 L17.8,-4.911436253643443 L17.9,-4.842915805643156 L18.0,-4.755282581475769 L18.1,-4.648882429441255 L18.2,-4.5241352623301 L18.3,-4.381533400219313 L18.4,-4.22163962751008 L18.5,-4.045084971874734 L18.6,-3.852566213878943 L18.7,-3.6448431371070615 L18.8,-3.4227355296434423 L18.9,-3.187119948743456 L19.0,-2.9389262614623672 L19.1,-2.6791339748949787 L19.2,-2.4087683705085814 L19.3,-2.128896457825362 L19.4,-1.8406227634233985 L19.5,-1.5450849718747395 L19.6,-1.2434494358242694 L19.7,-0.9369065729286377 L19.8,-0.6266661678215201 L19.9,-0.3139525976465676 L20.0,-2.4492935982947065e-15 L20.1,0.31395259764656264 L20.2,0.6266661678215152 L20.3,0.9369065729286329 L20.4,1.2434494358242647 L20.5,1.5450849718747262 L20.6,1.8406227634234025 L20.7,2.1288964578253577 L20.8,2.408768370508577 L20.9,2.6791339748949823 L21.0,2.9389262614623632 L21.1,3.187119948743452 L21.2,3.4227355296434325 L21.3,3.644843137107064 L21.4,3.8525662138789403 L21.5,4.045084971874731 L21.6,4.221639627510073 L21.7,4.381533400219319 L21.8,4.524135262330098 L21.9,4.648882429441254 L22.0,4.755282581475767 L22.1,4.842915805643159 L22.2,4.911436253643442 L22.3,4.960573506572389 L22.4,4.990133642141357 L22.5,5.0 L22.6,4.990133642141358 L22.7,4.9605735065723895 L22.8,4.911436253643443 L22.9,4.842915805643156 L23.0,4.755282581475772 L23.1,4.648882429441259 L23.2,4.524135262330101 L23.3,4.381533400219322 L23.4,4.221639627510081 L23.5,4.045084971874734 L23.6,3.8525662138789434 L23.7,3.6448431371070624 L23.8,3.422735529643443 L23.9,3.1871199487434563 L24.0,2.9389262614623677 L24.1,2.679133974894987 L24.2,2.4087683705085823 L24.3,2.1288964578253626 L24.4,1.840622763423399 L24.5,1.54508497187474 L24.6,1.24344943582427 L24.7,0.9369065729286209 L24.8,0.6266661678215295 L24.9,0.31395259764656813 L25.0,3.061616997868383e-15 L25.1,-0.313952597646562 L25.2,-0.6266661678215146 L25.3,-0.9369065729286323 L25.4,-1.2434494358242727 L25.5,-1.5450849718747426 L25.6,-1.8406227634233936 L25.7,-2.1288964578253493 L25.8,-2.4087683705085765 L25.9,-2.679133974894967 L26.0,-2.938926261462363 L26.1,-3.187119948743459 L26.2,-3.4227355296434387 L26.3,-3.6448431371070518 L26.4,-3.8525662138789505 L26.5,-4.045084971874741 L26.6,-4.2216396275100685 L26.7,-4.38153340021931 L26.8,-4.524135262330098 L26.9,-4.648882429441256 L27.0,-4.755282581475767 L27.1,-4.8429158056431545 L27.2,-4.911436253643442 L27.3,-4.96057350657239 L27.4,-4.990133642141357 L27.5,-5.0 L27.6,-4.990133642141358 L27.7,-4.960573506572391 L27.8,-4.911436253643443 L27.9,-4.842915805643156 L28.0,-4.755282581475769 L28.1,-4.648882429441259 L28.2,-4.524135262330093 L28.3,-4.381533400219314 L28.4,-4.221639627510081 L28.5,-4.045084971874744 L28.6,-3.8525662138789443 L28.7,-3.6448431371070567 L28.8,-3.4227355296434436 L28.9,-3.18711994874345 L29.0,-2.9389262614623686 L29.1,-2.679133974894973 L29.2,-2.4087683705085827 L29.3,-2.1288964578253715 L29.4,-1.8406227634233998 L29.5,-1.5450849718747488 L29.6,-1.2434494358242705 L29.7,-0.9369065729286215 L29.8,-0.6266661678215213 L29.9,-0.3139525976465865 L30.0,-2.1437508791444562e-14 L30.1,0.3139525976465791 L30.2,0.6266661678215141 L30.3,0.9369065729286142 L30.4,1.2434494358242634 L30.5,1.545084971874742 L30.6,1.840622763423393 L30.7,2.128896457825365 L30.8,2.408768370508576 L30.9,2.6791339748949667 L31.0,2.9389262614623624 L31.1,3.1871199487434443 L31.2,3.422735529643438 L31.3,3.644843137107051 L31.4,3.852566213878939 L31.5,4.04508497187474 L31.6,4.221639627510077 L31.7,4.38153340021931 L31.8,4.52413526233009 L31.9,4.648882429441256 L32.0,4.755282581475766 L32.1,4.842915805643159 L32.2,4.911436253643445 L32.3,4.960573506572389 L32.4,4.990133642141357 L32.5,5.0 L32.6,4.990133642141358 L32.7,4.960573506572389 L32.8,4.911436253643447 L32.9,4.842915805643156 L33.0,4.755282581475764 L33.1,4.648882429441253 L33.2,4.524135262330101 L33.3,4.381533400219323 L33.4,4.221639627510072 L33.5,4.045084971874735 L33.6,3.8525662138789443 L33.7,3.644843137107057 L33.8,3.422735529643457 L33.9,3.1871199487434643 L34.0,2.9389262614623544 L34.1,2.679133974894988 L34.2,2.408768370508583 L34.3,2.128896457825388 L34.4,1.8406227634233838 L34.5,1.5450849718747328 L34.6,1.2434494358242711 L34.7,0.936906572928622 L34.8,0.6266661678215396 L34.9,0.31395259764656935 L35.0,4.2862637970157365e-15 L35.1,-0.3139525976465608 L35.2,-0.6266661678215311 L35.3,-0.9369065729286137 L35.4,-1.243449435824263 L35.5,-1.5450849718747415 L35.6,-1.8406227634233923 L35.7,-2.1288964578253804 L35.8,-2.4087683705085756 L35.9,-2.679133974894981 L36.0,-2.9389262614623624 L36.1,-3.1871199487434576 L36.2,-3.4227355296434503 L36.3,-3.644843137107051 L36.4,-3.8525662138789385 L36.5,-4.045084971874729 L36.6,-4.221639627510086 L36.7,-4.381533400219327 L36.8,-4.5241352623300894 L36.9,-4.648882429441256 L37.0,-4.755282581475772 L37.1,-4.842915805643159 L37.2,-4.911436253643445 L37.3,-4.960573506572388 L37.4,-4.990133642141357 L37.5,-5.0 L37.6,-4.990133642141358 L37.7,-4.960573506572389 L37.8,-4.911436253643447 L37.9,-4.842915805643161 L38.0,-4.755282581475769 L38.1,-4.648882429441253 L38.2,-4.524135262330093 L38.3,-4.381533400219332 L38.4,-4.221639627510082 L38.5,-4.045084971874735 L38.6,-3.8525662138789447 L38.7,-3.644843137107057 L38.8,-3.422735529643457 L38.9,-3.187119948743451 L39.0,-2.9389262614623695 L39.1,-2.679133974894989 L39.2,-2.408768370508568 L39.3,-2.1288964578253884 L39.4,-1.8406227634234174 L39.5,-1.5450849718747333 L39.6,-1.2434494358242718 L39.7,-0.9369065729286052 L39.8,-0.6266661678215225 L39.9,-0.31395259764657 L40.0,-4.898587196589413e-15 L40.1,0.3139525976465602 L40.2,0.6266661678215129 L40.3,0.9369065729285957 L40.4,1.2434494358242623 L40.5,1.545084971874724 L40.6,1.8406227634234082 L40.7,2.1288964578253795 L40.8,2.408768370508559 L40.9,2.6791339748949805 L41.0,2.9389262614623473 L41.1,3.187119948743443 L41.2,3.422735529643463 L41.3,3.6448431371070504 L41.4,3.8525662138789385 L41.5,4.04508497187475 L41.6,4.2216396275100765 L41.7,4.381533400219327 L41.8,4.5241352623300966 L41.9,4.648882429441249 L42.0,4.755282581475766 L42.1,4.842915805643149 L42.2,4.911436253643445 L42.3,4.960573506572388 L42.4,4.990133642141356 L42.5,5.0 L42.6,4.990133642141357 L42.7,4.9605735065723895 L42.8,4.911436253643447 L42.9,4.842915805643156 L43.0,4.755282581475775 L43.1,4.648882429441253 L43.2,4.524135262330101 L43.3,4.381533400219332 L43.4,4.221639627510073 L43.5,4.045084971874745 L43.6,3.852566213878945 L43.7,3.6448431371070455 L43.8,3.4227355296434574 L43.9,3.1871199487434647 L44.0,2.9389262614623703 L44.1,2.6791339748949894 L44.2,2.408768370508553 L44.3,2.1288964578253893 L44.4,1.8406227634234016 L44.5,1.545084971874734 L44.6,1.2434494358242896 L44.7,0.9369065729286232 L44.8,0.6266661678215407 L44.9,0.31395259764657063 L45.0,5.5109105961630896e-15 L45.1,-0.3139525976465419 L45.2,-0.62666616782153 L45.3,-0.9369065729286125 L45.4,-1.2434494358242616 L45.5,-1.5450849718747235 L45.6,-1.8406227634233914 L45.7,-2.128896457825347 L45.8,-2.4087683705085747 L45.9,-2.67913397489498 L46.0,-2.938926261462347 L46.1,-3.1871199487434563 L46.2,-3.4227355296434365 L46.3,-3.64484313710705 L46.4,-3.852566213878938 L46.5,-4.045084971874728 L46.6,-4.221639627510067 L46.7,-4.381533400219326 L46.8,-4.5241352623300894 L46.9,-4.648882429441249 L47.0,-4.755282581475772 L47.1,-4.842915805643154 L47.2,-4.911436253643445 L47.3,-4.960573506572388 L47.4,-4.990133642141357 L47.5,-5.0 L47.6,-4.990133642141358 L47.7,-4.9605735065723895 L47.8,-4.911436253643447 L47.9,-4.842915805643161 L48.0,-4.75528258147577 L48.1,-4.648882429441254 L48.2,-4.524135262330102 L48.3,-4.381533400219324 L48.4,-4.221639627510083 L48.5,-4.0450849718747355 L48.6,-3.8525662138789456 L48.7,-3.64484313710707 L48.8,-3.4227355296434583 L48.9,-3.187119948743452 L49.0,-2.938926261462371 L49.1,-2.67913397489499 L49.2,-2.408768370508569 L49.3,-2.1288964578253897 L49.4,-1.8406227634233854 L49.5,-1.5450849718747346 L49.6,-1.2434494358242902 L49.7,-0.9369065729286065 L49.8,-0.6266661678215237 L49.9,-0.31395259764657124 L50.0,-6.123233995736766e-15 L50.1,0.313952597646559 L50.2,0.6266661678215115 L50.3,0.9369065729286292 L50.4,1.2434494358242612 L50.5,1.5450849718747228 L50.6,1.8406227634234071 L50.7,2.1288964578253626 L50.8,2.4087683705085743 L50.9,2.679133974894979 L51.0,2.9389262614623752 L51.1,3.1871199487434425 L51.2,3.4227355296434494 L51.3,3.64484313710705 L51.4,3.8525662138789265 L51.5,4.045084971874728 L51.6,4.221639627510076 L51.7,4.381533400219326 L51.8,4.5241352623300815 L51.9,4.648882429441262 L52.0,4.755282581475766 L52.1,4.842915805643158 L52.2,4.911436253643448 L52.3,4.960573506572386 L52.4,4.990133642141357 L52.5,5.0 L52.6,4.990133642141359 L52.7,4.9605735065723895 L52.8,4.911436253643441 L52.9,4.842915805643157 L53.0,4.755282581475765 L53.1,4.64888242944126 L53.2,4.52413526233011 L53.3,4.381533400219324 L53.4,4.221639627510092 L53.5,4.045084971874746 L53.6,3.8525662138789456 L53.7,3.644843137107046 L53.8,3.422735529643446 L53.9,3.1871199487434385 L54.0,2.9389262614623712 L54.1,2.679133974895005 L54.2,2.4087683705085854 L54.3,2.12889645782539 L54.4,1.8406227634234027 L54.5,1.5450849718747688 L54.6,1.2434494358242563 L54.7,0.9369065729286246 L54.8,0.6266661678215419 L54.9,0.3139525976465718 L55.0,2.4499125789312944e-14 L55.1,-0.3139525976465584 L55.2,-0.6266661678215286 L55.3,-0.9369065729286112 L55.4,-1.2434494358242434 L55.5,-1.5450849718747561 L55.6,-1.84062276342339 L55.7,-2.128896457825378 L55.8,-2.4087683705085734 L55.9,-2.679133974894964 L56.0,-2.93892626146236 L56.1,-3.1871199487434554 L56.2,-3.422735529643436 L56.3,-3.644843137107037 L56.4,-3.8525662138789594 L56.5,-4.045084971874738 L56.6,-4.2216396275100845 L56.7,-4.381533400219317 L56.8,-4.524135262330089 L56.9,-4.648882429441255 L57.0,-4.75528258147576 L57.1,-4.842915805643154 L57.2,-4.911436253643445 L57.3,-4.960573506572383 L57.4,-4.990133642141358 L57.5,-5.0 L57.6,-4.990133642141358 L57.7,-4.960573506572391 L57.8,-4.911436253643444 L57.9,-4.842915805643162 L58.0,-4.75528258147577 L58.1,-4.648882429441267 L58.2,-4.524135262330088 L58.3,-4.381533400219316 L58.4,-4.221639627510083 L58.5,-4.045084971874736 L58.6,-3.8525662138789576 L58.7,-3.644843137107059 L58.8,-3.422735529643459 L58.9,-3.1871199487434527 L59.0,-2.9389262614623854 L59.1,-2.6791339748949605 L59.2,-2.4087683705085703 L59.3,-2.1288964578253746 L59.4,-1.8406227634233865 L59.5,-1.5450849718747526 L59.6,-1.243449435824274 L59.7,-0.9369065729286076 L59.8,-0.6266661678215601 L59.9,-0.31395259764659017 L60.0,-4.2875017582889124e-14 L60.1,0.31395259764657546 L60.2,0.6266661678215456 L60.3,0.9369065729285931 L60.4,1.24344943582426 L60.5,1.5450849718747386 L60.6,1.840622763423373 L60.7,2.1288964578253613 L60.8,2.4087683705085574 L60.9,2.679133974894948 L61.0,2.938926261462374 L61.1,3.1871199487434416 L61.2,3.422735529643448 L61.3,3.644843137107049 L61.4,3.852566213878948 L61.5,4.0450849718747275 L61.6,4.221639627510076 L61.7,4.3815334002193085 L61.8,4.524135262330081 L61.9,4.648882429441262 L62.0,4.7552825814757655 L62.1,4.842915805643157 L62.2,4.9114362536434415 L62.3,4.9605735065723895 L62.4,4.990133642141357 L62.5,5.0 L62.6,4.990133642141359 L62.7,4.960573506572385 L62.8,4.911436253643448 L62.9,4.842915805643157 L63.0,4.755282581475765 L63.1,4.648882429441261 L63.2,4.524135262330095 L63.3,4.381533400219324 L63.4,4.221639627510093 L63.5,4.045084971874747 L63.6,3.852566213878969 L63.7,3.6448431371070718 L63.8,3.4227355296434463 L63.9,3.187119948743467 L64.0,2.9389262614623717 L64.1,2.679133974894976 L64.2,2.408768370508555 L64.3,2.128896457825359 L64.4,1.8406227634233707 L64.5,1.5450849718747361 L64.6,1.2434494358242918 L64.7,0.9369065729286257 L64.8,0.6266661678215433 L64.9,0.313952597646573 L65.0,-9.803364199544707e-15 L65.1,-0.3139525976465217 L65.2,-0.6266661678215274 L65.3,-0.9369065729286101 L65.4,-1.2434494358242765 L65.5,-1.5450849718747213 L65.6,-1.840622763423356 L65.7,-2.128896457825345 L65.8,-2.4087683705085725 L65.9,-2.6791339748949925 L66.0,-2.938926261462388 L66.1,-3.187119948743455 L66.2,-3.422735529643461 L66.3,-3.6448431371070606 L66.4,-3.8525662138789363 L66.5,-4.045084971874737 L66.6,-4.221639627510065 L66.7,-4.3815334002193165 L66.8,-4.524135262330104 L66.9,-4.648882429441268 L67.0,-4.755282581475771 L67.1,-4.842915805643154 L67.2,-4.911436253643445 L67.3,-4.960573506572388 L67.4,-4.990133642141358 L67.5,-5.0 L67.6,-4.99013364214136 L67.7,-4.960573506572387 L67.8,-4.911436253643451 L67.9,-4.842915805643153 L68.0,-4.755282581475759 L68.1,-4.648882429441267 L68.2,-4.524135262330103 L68.3,-4.3815334002193325 L68.4,-4.221639627510084 L68.5,-4.045084971874736 L68.6,-3.8525662138789807 L68.7,-3.644843137107036 L68.8,-3.4227355296434343 L68.9,-3.1871199487434265 L69.0,-2.938926261462358 L69.1,-2.6791339748949916 L69.2,-2.408768370508571 L69.3,-2.128896457825376 L69.4,-1.8406227634233876 L69.5,-1.5450849718747197 L69.6,-1.2434494358243098 L69.7,-0.9369065729286088 L69.8,-0.6266661678215262 L69.9,-0.3139525976465559 L70.0,-8.572527594031473e-15 L70.1,0.3139525976465388 L70.2,0.6266661678215092 L70.3,0.936906572928592 L70.4,1.2434494358242931 L70.5,1.5450849718747037 L70.6,1.8406227634233718 L70.7,2.1288964578253924 L70.8,2.4087683705085565 L70.9,2.6791339748949774 L71.0,2.938926261462373 L71.1,3.187119948743413 L71.2,3.4227355296434476 L71.3,3.644843137107072 L71.4,3.85256621387897 L71.5,4.045084971874748 L71.6,4.221639627510074 L71.7,4.3815334002193245 L71.8,4.524135262330096 L71.9,4.648882429441262 L72.0,4.755282581475765 L72.1,4.842915805643148 L72.2,4.911436253643448 L72.3,4.960573506572385 L72.4,4.990133642141359 L72.5,5.0 L72.6,4.990133642141359 L72.7,4.9605735065723895 L72.8,4.911436253643448 L72.9,4.842915805643157 L73.0,4.755282581475776 L73.1,4.648882429441274 L73.2,4.524135262330081 L73.3,4.3815334002193245 L73.4,4.221639627510055 L73.5,4.045084971874727 L73.6,3.85256621387897 L73.7,3.6448431371070478 L73.8,3.4227355296434476 L73.9,3.1871199487434403 L74.0,2.938926261462344 L74.1,2.679133974895007 L74.2,2.4087683705085565 L74.3,2.1288964578253604 L74.4,1.8406227634233718 L74.5,1.5450849718747373 L74.6,1.2434494358242931 L74.7,0.9369065729286269 L74.8,0.6266661678215445 L74.9,0.3139525976465388 L75.0,2.6948419387607653e-14 L75.1,-0.3139525976465559 L75.2,-0.6266661678215262 L75.3,-0.9369065729286088 L75.4,-1.2434494358242754 L75.5,-1.5450849718747197 L75.6,-1.8406227634233545 L75.7,-2.128896457825376 L75.8,-2.40876837050854 L75.9,-2.679133974895022 L76.0,-2.938926261462358 L76.1,-3.1871199487433985 L76.2,-3.4227355296434596 L76.3,-3.644843137107036 L76.4,-3.8525662138789585 L76.5,-4.045084971874736 L76.6,-4.221639627510045 L76.7,-4.3815334002193325 L76.8,-4.524135262330088 L76.9,-4.648882429441267 L77.0,-4.75528258147577 L77.1,-4.842915805643153 L77.2,-4.911436253643444 L77.3,-4.960573506572387 L77.4,-4.990133642141358 L77.5,-5.0 L77.6,-4.99013364214136 L77.7,-4.960573506572392 L77.8,-4.911436253643445 L77.9,-4.842915805643154 L78.0,-4.755282581475771 L78.1,-4.648882429441268 L78.2,-4.524135262330104 L78.3,-4.381533400219333 L78.4,-4.221639627510065 L78.5,-4.045084971874759 L78.6,-3.8525662138789816 L78.7,-3.6448431371070362 L78.8,-3.4227355296434867 L78.9,-3.187119948743427 L79.0,-2.938926261462359 L79.1,-2.6791339748950227 L79.2,-2.4087683705085725 L79.3,-2.128896457825377 L79.4,-1.840622763423356 L79.5,-1.5450849718747548 L79.6,-1.2434494358242765 L79.7,-0.9369065729286101 L79.8,-0.6266661678215274 L79.9,-0.31395259764655714 L80.0,-9.797174393178826e-15 L80.1,0.3139525976465376 L80.2,0.626666167821508 L80.3,0.9369065729285908 L80.4,1.2434494358242574 L80.5,1.5450849718747361 L80.6,1.8406227634233376 L80.7,2.128896457825359 L80.8,2.408768370508555 L80.9,2.679133974895006 L81.0,2.9389262614623437 L81.1,3.187119948743412 L81.2,3.4227355296434725 L81.3,3.644843137107023 L81.4,3.852566213878969 L81.5,4.045084971874705 L81.6,4.221639627510055 L81.7,4.381533400219324 L81.8,4.524135262330095 L81.9,4.648882429441247 L82.0,4.755282581475754 L82.1,4.842915805643139 L82.2,4.911436253643441 L82.3,4.9605735065723895 L82.4,4.990133642141361 L82.5,5.0 L82.6,4.990133642141359 L82.7,4.9605735065723895 L82.8,4.911436253643448 L82.9,4.842915805643148 L83.0,4.755282581475754 L83.1,4.648882429441274 L83.2,4.5241352623300966 L83.3,4.381533400219342 L83.4,4.221639627510056 L83.5,4.0450849718747275 L83.6,3.852566213878948 L83.7,3.644843137107073 L83.8,3.4227355296434743 L83.9,3.1871199487434145 L84.0,2.938926261462374 L84.1,2.6791339748949783 L84.2,2.4087683705086196 L84.3,2.1288964578253937 L84.4,1.840622763423373 L84.5,1.5450849718747386 L84.6,1.2434494358242942 L84.7,0.936906572928663 L84.8,0.6266661678215808 L84.9,0.31395259764657546 L85.0,-7.354070601250003e-15 L85.1,-0.3139525976465193 L85.2,-0.6266661678215603 L85.3,-0.9369065729286076 L85.4,-1.243449435824274 L85.5,-1.5450849718747186 L85.6,-1.8406227634233536 L85.7,-2.128896457825407 L85.8,-2.4087683705085703 L85.9,-2.6791339748949907 L86.0,-2.9389262614623286 L86.1,-3.187119948743425 L86.2,-3.422735529643459 L86.3,-3.644843137107059 L86.4,-3.8525662138789354 L86.5,-4.045084971874715 L86.6,-4.2216396275100445 L86.7,-4.381533400219316 L86.8,-4.524135262330102 L86.9,-4.64888242944124 L87.0,-4.755282581475759 L87.1,-4.842915805643153 L87.2,-4.911436253643444 L87.3,-4.960573506572387 L87.4,-4.99013364214136 L87.5,-5.0 L87.6,-4.99013364214136 L87.7,-4.960573506572388 L87.8,-4.911436253643451 L87.9,-4.842915805643145 L88.0,-4.755282581475771 L88.1,-4.648882429441269 L88.2,-4.524135262330104 L88.3,-4.381533400219334 L88.4,-4.221639627510047 L88.5,-4.045084971874738 L88.6,-3.8525662138789825 L88.7,-3.6448431371070855 L88.8,-3.4227355296434614 L88.9,-3.1871199487434283 L89.0,-2.93892626146236 L89.1,-2.679133974894994 L89.2,-2.4087683705086045 L89.3,-2.12889645782541 L89.4,-1.84062276342339 L89.5,-1.5450849718747222 L89.6,-1.2434494358243122 L89.7,-0.9369065729286462 L89.8,-0.6266661678215286 L89.9,-0.31395259764655836 L90.0,-1.1021821192326179e-14 L90.1,0.3139525976465363 L90.2,0.6266661678214714 L90.3,0.9369065729285896 L90.4,1.2434494358242907 L90.5,1.5450849718747013 L90.6,1.8406227634233696 L90.7,2.12889645782539 L90.8,2.4087683705085543 L90.9,2.6791339748949747 L91.0,2.9389262614623424 L91.1,3.187119948743411 L91.2,3.422735529643446 L91.3,3.6448431371070704 L91.4,3.852566213878923 L91.5,4.045084971874725 L91.6,4.221639627510073 L91.7,4.381533400219324 L91.8,4.524135262330095 L91.9,4.6488824294412465 L92.0,4.755282581475753 L92.1,4.842915805643148 L92.2,4.911436253643448 L92.3,4.960573506572385 L92.4,4.990133642141357 L92.5,5.0 L92.6,4.99013364214136 L92.7,4.9605735065723895 L92.8,4.911436253643448 L92.9,4.84291580564314 L93.0,4.755282581475777 L93.1,4.648882429441275 L93.2,4.524135262330112 L93.3,4.381533400219326 L93.4,4.221639627510056 L93.5,4.045084971874728 L93.6,3.852566213878972 L93.7,3.644843137107074 L93.8,3.422735529643475 L93.9,3.1871199487434425 L94.0,2.9389262614623464 L94.1,2.6791339748950094 L94.2,2.40876837050859 L94.3,2.1288964578253626 L94.4,1.840622763423374 L94.5,1.5450849718747397 L94.6,1.2434494358242956 L94.7,0.9369065729286642 L94.8,0.6266661678215468 L94.9,0.31395259764654126 L95.0,2.9397712985902356e-14 L95.1,-0.3139525976465535 L95.2,-0.6266661678215237 L95.3,-0.9369065729286065 L95.4,-1.243449435824273 L95.5,-1.5450849718747175 L95.6,-1.8406227634233523 L95.7,-2.1288964578253737 L95.8,-2.408768370508538 L95.9,-2.6791339748949596 L96.0,-2.938926261462356 L96.1,-3.187119948743452 L96.2,-3.4227355296434583 L96.3,-3.644843137107034 L96.4,-3.852566213878934 L96.5,-4.045084971874714 L96.6,-4.221639627510063 L96.7,-4.381533400219332 L96.8,-4.524135262330087 L96.9,-4.648882429441254 L97.0,-4.75528258147577 L97.1,-4.842915805643152 L97.2,-4.911436253643443 L97.3,-4.960573506572387 L97.4,-4.990133642141355 L97.5,-5.0 L97.6,-4.990133642141361 L97.7,-4.960573506572392 L97.8,-4.911436253643445 L97.9,-4.842915805643154 L98.0,-4.755282581475772 L98.1,-4.648882429441269 L98.2,-4.5241352623301045 L98.3,-4.381533400219334 L98.4,-4.221639627510067 L98.5,-4.04508497187476 L98.6,-3.8525662138789833 L98.7,-3.6448431371070624 L98.8,-3.4227355296434365 L98.9,-3.187119948743429 L99.0,-2.9389262614623615 L99.1,-2.679133974895025 L99.2,-2.408768370508606 L99.3,-2.128896457825379 L99.4,-1.8406227634233583 L99.5,-1.5450849718747572 L99.6,-1.243449435824279 L99.7,-0.9369065729286125 L99.8,-0.62666616782153 L99.9,-0.3139525976465596 L100.0,-1.2246467991473532e-14 L100.0,14.999999999999988 L99.9,14.68604740235344 L99.8,14.37333383217847 L99.7,14.063093427071388 L99.6,13.756550564175722 L99.5,13.454915028125242 L99.4,13.159377236576642 L99.3,12.871103542174621 L99.2,12.591231629491395 L99.1,12.320866025104975 L99.0,12.061073738537639 L98.9,11.81288005125657 L98.8,11.577264470356564 L98.7,11.355156862892937 L98.6,11.147433786121017 L98.5,10.954915028125239 L98.4,10.778360372489933 L98.3,10.618466599780666 L98.2,10.475864737669895 L98.1,10.351117570558731 L98.0,10.244717418524228 L97.9,10.157084194356846 L97.8,10.088563746356556 L97.7,10.039426493427609 L97.6,10.00986635785864 L97.5,10.0 L97.4,10.009866357858645 L97.3,10.039426493427612 L97.2,10.088563746356556 L97.1,10.157084194356848 L97.0,10.24471741852423 L96.9,10.351117570558745 L96.8,10.475864737669912 L96.7,10.618466599780668 L96.6,10.778360372489937 L96.5,10.954915028125285 L96.4,11.147433786121066 L96.3,11.355156862892965 L96.2,11.577264470356543 L96.1,11.812880051256549 L96.0,12.061073738537644 L95.9,12.32086602510504 L95.8,12.591231629491462 L95.7,12.871103542174627 L95.6,13.159377236576647 L95.5,13.454915028125283 L95.4,13.756550564175727 L95.3,14.063093427071394 L95.2,14.373333832178476 L95.1,14.686047402353447 L95.0,15.00000000000003 L94.9,15.31395259764654 L94.8,15.626666167821547 L94.7,15.936906572928665 L94.6,16.243449435824296 L94.5,16.54508497187474 L94.4,16.840622763423376 L94.3,17.128896457825363 L94.2,17.40876837050859 L94.1,17.67913397489501 L94.0,17.938926261462345 L93.9,18.187119948743444 L93.8,18.422735529643475 L93.7,18.644843137107074 L93.6,18.852566213878973 L93.5,19.04508497187473 L93.4,19.221639627510058 L93.3,19.381533400219325 L93.2,19.524135262330113 L93.1,19.648882429441276 L93.0,19.755282581475775 L92.9,19.84291580564314 L92.8,19.911436253643448 L92.7,19.960573506572388 L92.6,19.99013364214136 L92.5,20.0 L92.4,19.99013364214136 L92.3,19.960573506572384 L92.2,19.911436253643448 L92.1,19.84291580564315 L92.0,19.755282581475754 L91.9,19.648882429441247 L91.8,19.524135262330095 L91.7,19.381533400219325 L91.6,19.221639627510072 L91.5,19.045084971874726 L91.4,18.852566213878923 L91.3,18.64484313710707 L91.2,18.422735529643447 L91.1,18.187119948743412 L91.0,17.938926261462342 L90.9,17.679133974894974 L90.8,17.408768370508554 L90.7,17.12889645782539 L90.6,16.84062276342337 L90.5,16.5450849718747 L90.4,16.243449435824292 L90.3,15.93690657292859 L90.2,15.62666616782147 L90.1,15.313952597646537 L90.0,14.99999999999999 L89.9,14.686047402353442 L89.8,14.37333383217847 L89.7,14.063093427071355 L89.6,13.756550564175688 L89.5,13.454915028125278 L89.4,13.15937723657661 L89.3,12.87110354217459 L89.2,12.591231629491396 L89.1,12.320866025105007 L89.0,12.06107373853764 L88.9,11.812880051256572 L88.8,11.577264470356539 L88.7,11.355156862892915 L88.6,11.147433786121017 L88.5,10.954915028125262 L88.4,10.778360372489953 L88.3,10.618466599780666 L88.2,10.475864737669896 L88.1,10.351117570558731 L88.0,10.244717418524228 L87.9,10.157084194356855 L87.8,10.088563746356549 L87.7,10.039426493427612 L87.6,10.009866357858641 L87.5,10.0 L87.4,10.009866357858641 L87.3,10.039426493427612 L87.2,10.088563746356556 L87.1,10.157084194356848 L87.0,10.24471741852424 L86.9,10.35111757055876 L86.8,10.475864737669898 L86.7,10.618466599780685 L86.6,10.778360372489956 L86.5,10.954915028125285 L86.4,11.147433786121065 L86.3,11.35515686289294 L86.2,11.57726447035654 L86.1,11.812880051256574 L86.0,12.061073738537672 L85.9,12.320866025105008 L85.8,12.59123162949143 L85.7,12.871103542174593 L85.6,13.159377236576645 L85.5,13.454915028125281 L85.4,13.756550564175726 L85.3,14.063093427071392 L85.2,14.37333383217844 L85.1,14.68604740235348 L85.0,14.999999999999993 L84.9,15.313952597646576 L84.8,15.62666616782158 L84.7,15.936906572928663 L84.6,16.243449435824296 L84.5,16.54508497187474 L84.4,16.840622763423372 L84.3,17.128896457825395 L84.2,17.408768370508618 L84.1,17.679133974894977 L84.0,17.938926261462374 L83.9,18.187119948743415 L83.8,18.422735529643475 L83.7,18.644843137107074 L83.6,18.852566213878948 L83.5,19.04508497187473 L83.4,19.221639627510058 L83.3,19.381533400219343 L83.2,19.5241352623301 L83.1,19.648882429441272 L83.0,19.755282581475754 L82.9,19.84291580564315 L82.8,19.911436253643448 L82.7,19.960573506572388 L82.6,19.99013364214136 L82.5,20.0 L82.4,19.99013364214136 L82.3,19.960573506572388 L82.2,19.91143625364344 L82.1,19.842915805643138 L82.0,19.755282581475754 L81.9,19.648882429441247 L81.8,19.524135262330095 L81.7,19.381533400219325 L81.6,19.221639627510054 L81.5,19.045084971874704 L81.4,18.85256621387897 L81.3,18.644843137107024 L81.2,18.42273552964347 L81.1,18.187119948743412 L81.0,17.938926261462342 L80.9,17.679133974895006 L80.8,17.408768370508554 L80.7,17.12889645782536 L80.6,16.840622763423337 L80.5,16.545084971874736 L80.4,16.243449435824257 L80.3,15.93690657292859 L80.2,15.626666167821508 L80.1,15.313952597646537 L80.0,14.99999999999999 L79.9,14.686047402353443 L79.8,14.373333832178472 L79.7,14.06309342707139 L79.6,13.756550564175724 L79.5,13.454915028125246 L79.4,13.159377236576644 L79.3,12.871103542174623 L79.2,12.591231629491428 L79.1,12.320866025104976 L79.0,12.06107373853764 L78.9,11.812880051256574 L78.8,11.577264470356514 L78.7,11.355156862892963 L78.6,11.147433786121018 L78.5,10.954915028125242 L78.4,10.778360372489935 L78.3,10.618466599780668 L78.2,10.475864737669896 L78.1,10.351117570558731 L78.0,10.244717418524228 L77.9,10.157084194356846 L77.8,10.088563746356556 L77.7,10.039426493427609 L77.6,10.009866357858641 L77.5,10.0 L77.4,10.009866357858641 L77.3,10.039426493427612 L77.2,10.088563746356556 L77.1,10.157084194356848 L77.0,10.24471741852423 L76.9,10.351117570558733 L76.8,10.475864737669912 L76.7,10.618466599780668 L76.6,10.778360372489955 L76.5,10.954915028125264 L76.4,11.147433786121042 L76.3,11.355156862892965 L76.2,11.57726447035654 L76.1,11.812880051256602 L76.0,12.061073738537642 L75.9,12.320866025104978 L75.8,12.59123162949146 L75.7,12.871103542174623 L75.6,13.159377236576645 L75.5,13.45491502812528 L75.4,13.756550564175726 L75.3,14.063093427071392 L75.2,14.373333832178474 L75.1,14.686047402353443 L75.0,15.000000000000027 L74.9,15.313952597646539 L74.8,15.626666167821545 L74.7,15.936906572928628 L74.6,16.243449435824292 L74.5,16.545084971874736 L74.4,16.840622763423372 L74.3,17.12889645782536 L74.2,17.408768370508557 L74.1,17.679133974895006 L74.0,17.938926261462345 L73.9,18.18711994874344 L73.8,18.422735529643447 L73.7,18.64484313710705 L73.6,18.85256621387897 L73.5,19.045084971874726 L73.4,19.221639627510054 L73.3,19.381533400219325 L73.2,19.52413526233008 L73.1,19.648882429441272 L73.0,19.755282581475775 L72.9,19.84291580564316 L72.8,19.911436253643448 L72.7,19.960573506572388 L72.6,19.99013364214136 L72.5,20.0 L72.4,19.99013364214136 L72.3,19.960573506572384 L72.2,19.911436253643448 L72.1,19.84291580564315 L72.0,19.755282581475765 L71.9,19.64888242944126 L71.8,19.524135262330095 L71.7,19.381533400219325 L71.6,19.221639627510072 L71.5,19.045084971874747 L71.4,18.85256621387897 L71.3,18.644843137107074 L71.2,18.422735529643447 L71.1,18.187119948743412 L71.0,17.938926261462374 L70.9,17.679133974894977 L70.8,17.408768370508557 L70.7,17.12889645782539 L70.6,16.840622763423372 L70.5,16.545084971874704 L70.4,16.243449435824292 L70.3,15.936906572928592 L70.2,15.62666616782151 L70.1,15.313952597646539 L70.0,14.999999999999991 L69.9,14.686047402353443 L69.8,14.373333832178474 L69.7,14.063093427071392 L69.6,13.75655056417569 L69.5,13.45491502812528 L69.4,13.159377236576612 L69.3,12.871103542174623 L69.2,12.591231629491428 L69.1,12.320866025105008 L69.0,12.061073738537642 L68.9,11.812880051256574 L68.8,11.577264470356566 L68.7,11.355156862892965 L68.6,11.14743378612102 L68.5,10.954915028125264 L68.4,10.778360372489917 L68.3,10.618466599780668 L68.2,10.475864737669898 L68.1,10.351117570558733 L68.0,10.24471741852424 L67.9,10.157084194356848 L67.8,10.088563746356549 L67.7,10.039426493427612 L67.6,10.009866357858641 L67.5,10.0 L67.4,10.009866357858641 L67.3,10.039426493427612 L67.2,10.088563746356556 L67.1,10.157084194356846 L67.0,10.244717418524228 L66.9,10.351117570558731 L66.8,10.475864737669896 L66.7,10.618466599780684 L66.6,10.778360372489935 L66.5,10.954915028125264 L66.4,11.147433786121063 L66.3,11.35515686289294 L66.2,11.577264470356539 L66.1,11.812880051256545 L66.0,12.061073738537612 L65.9,12.320866025105008 L65.8,12.591231629491428 L65.7,12.871103542174655 L65.6,13.159377236576644 L65.5,13.454915028125278 L65.4,13.756550564175724 L65.3,14.06309342707139 L65.2,14.373333832178472 L65.1,14.686047402353479 L65.0,14.99999999999999 L64.9,15.313952597646573 L64.8,15.626666167821543 L64.7,15.936906572928626 L64.6,16.243449435824292 L64.5,16.545084971874736 L64.4,16.840622763423372 L64.3,17.12889645782536 L64.2,17.408768370508554 L64.1,17.679133974894977 L64.0,17.93892626146237 L63.9,18.187119948743465 L63.8,18.422735529643447 L63.7,18.64484313710707 L63.6,18.85256621387897 L63.5,19.045084971874747 L63.4,19.221639627510093 L63.3,19.381533400219325 L63.2,19.524135262330095 L63.1,19.64888242944126 L63.0,19.755282581475765 L62.9,19.84291580564316 L62.8,19.911436253643448 L62.7,19.960573506572384 L62.6,19.99013364214136 L62.5,20.0 L62.4,19.99013364214136 L62.3,19.960573506572388 L62.2,19.91143625364344 L62.1,19.84291580564316 L62.0,19.755282581475765 L61.9,19.64888242944126 L61.8,19.52413526233008 L61.7,19.381533400219308 L61.6,19.221639627510076 L61.5,19.04508497187473 L61.4,18.852566213878948 L61.3,18.64484313710705 L61.2,18.422735529643447 L61.1,18.18711994874344 L61.0,17.938926261462374 L60.9,17.67913397489495 L60.8,17.408768370508557 L60.7,17.128896457825363 L60.6,16.840622763423372 L60.5,16.54508497187474 L60.4,16.24344943582426 L60.3,15.936906572928594 L60.2,15.626666167821545 L60.1,15.313952597646576 L60.0,14.999999999999957 L59.9,14.68604740235341 L59.8,14.37333383217844 L59.7,14.063093427071392 L59.6,13.756550564175726 L59.5,13.454915028125248 L59.4,13.159377236576614 L59.3,12.871103542174625 L59.2,12.59123162949143 L59.1,12.32086602510504 L59.0,12.061073738537615 L58.9,11.812880051256547 L58.8,11.57726447035654 L58.7,11.35515686289294 L58.6,11.147433786121042 L58.5,10.954915028125264 L58.4,10.778360372489917 L58.3,10.618466599780685 L58.2,10.475864737669912 L58.1,10.351117570558733 L58.0,10.24471741852423 L57.9,10.157084194356838 L57.8,10.088563746356556 L57.7,10.039426493427609 L57.6,10.009866357858641 L57.5,10.0 L57.4,10.009866357858641 L57.3,10.039426493427616 L57.2,10.088563746356556 L57.1,10.157084194356846 L57.0,10.244717418524239 L56.9,10.351117570558745 L56.8,10.475864737669912 L56.7,10.618466599780682 L56.6,10.778360372489916 L56.5,10.954915028125262 L56.4,11.147433786121042 L56.3,11.355156862892963 L56.2,11.577264470356564 L56.1,11.812880051256545 L56.0,12.06107373853764 L55.9,12.320866025105037 L55.8,12.591231629491427 L55.7,12.871103542174621 L55.6,13.15937723657661 L55.5,13.454915028125244 L55.4,13.756550564175758 L55.3,14.063093427071388 L55.2,14.37333383217847 L55.1,14.686047402353442 L55.0,15.000000000000025 L54.9,15.313952597646573 L54.8,15.626666167821542 L54.7,15.936906572928624 L54.6,16.243449435824257 L54.5,16.54508497187477 L54.4,16.840622763423404 L54.3,17.12889645782539 L54.2,17.408768370508586 L54.1,17.679133974895006 L54.0,17.93892626146237 L53.9,18.187119948743437 L53.8,18.422735529643447 L53.7,18.644843137107046 L53.6,18.852566213878944 L53.5,19.045084971874747 L53.4,19.221639627510093 L53.3,19.381533400219325 L53.2,19.52413526233011 L53.1,19.648882429441258 L53.0,19.755282581475765 L52.9,19.84291580564316 L52.8,19.91143625364344 L52.7,19.960573506572388 L52.6,19.99013364214136 L52.5,20.0 L52.4,19.99013364214136 L52.3,19.960573506572388 L52.2,19.911436253643448 L52.1,19.84291580564316 L52.0,19.755282581475768 L51.9,19.64888242944126 L51.8,19.52413526233008 L51.7,19.381533400219325 L51.6,19.221639627510076 L51.5,19.04508497187473 L51.4,18.852566213878927 L51.3,18.64484313710705 L51.2,18.42273552964345 L51.1,18.187119948743444 L51.0,17.938926261462374 L50.9,17.67913397489498 L50.8,17.408768370508575 L50.7,17.128896457825363 L50.6,16.840622763423408 L50.5,16.545084971874722 L50.4,16.24344943582426 L50.3,15.93690657292863 L50.2,15.626666167821512 L50.1,15.313952597646558 L50.0,14.999999999999995 L49.9,14.686047402353429 L49.8,14.373333832178476 L49.7,14.063093427071394 L49.6,13.75655056417571 L49.5,13.454915028125265 L49.4,13.159377236576615 L49.3,12.87110354217461 L49.2,12.591231629491432 L49.1,12.32086602510501 L49.0,12.06107373853763 L48.9,11.812880051256549 L48.8,11.577264470356543 L48.7,11.35515686289293 L48.6,11.147433786121054 L48.5,10.954915028125264 L48.4,10.778360372489917 L48.3,10.618466599780676 L48.2,10.475864737669898 L48.1,10.351117570558745 L48.0,10.24471741852423 L47.9,10.15708419435684 L47.8,10.088563746356552 L47.7,10.03942649342761 L47.6,10.009866357858641 L47.5,10.0 L47.4,10.009866357858643 L47.3,10.039426493427612 L47.2,10.088563746356556 L47.1,10.157084194356846 L47.0,10.244717418524228 L46.9,10.35111757055875 L46.8,10.47586473766991 L46.7,10.618466599780675 L46.6,10.778360372489933 L46.5,10.95491502812527 L46.4,11.147433786121063 L46.3,11.355156862892951 L46.2,11.577264470356564 L46.1,11.812880051256544 L46.0,12.061073738537653 L45.9,12.320866025105019 L45.8,12.591231629491425 L45.7,12.871103542174653 L45.6,13.159377236576608 L45.5,13.454915028125276 L45.4,13.756550564175738 L45.3,14.063093427071388 L45.2,14.37333383217847 L45.1,14.686047402353458 L45.0,15.000000000000005 L44.9,15.313952597646571 L44.8,15.62666616782154 L44.7,15.936906572928624 L44.6,16.24344943582429 L44.5,16.545084971874733 L44.4,16.8406227634234 L44.3,17.12889645782539 L44.2,17.408768370508554 L44.1,17.679133974894988 L44.0,17.93892626146237 L43.9,18.187119948743465 L43.8,18.422735529643457 L43.7,18.644843137107046 L43.6,18.852566213878944 L43.5,19.045084971874743 L43.4,19.221639627510072 L43.3,19.381533400219332 L43.2,19.524135262330102 L43.1,19.64888242944125 L43.0,19.755282581475775 L42.9,19.842915805643155 L42.8,19.911436253643448 L42.7,19.960573506572388 L42.6,19.99013364214136 L42.5,20.0 L42.4,19.990133642141355 L42.3,19.960573506572388 L42.2,19.911436253643444 L42.1,19.84291580564315 L42.0,19.755282581475768 L41.9,19.64888242944125 L41.8,19.5241352623301 L41.7,19.381533400219325 L41.6,19.221639627510076 L41.5,19.04508497187475 L41.4,18.852566213878937 L41.3,18.64484313710705 L41.2,18.422735529643465 L41.1,18.187119948743444 L41.0,17.93892626146235 L40.9,17.67913397489498 L40.8,17.40876837050856 L40.7,17.12889645782538 L40.6,16.840622763423408 L40.5,16.545084971874722 L40.4,16.243449435824264 L40.3,15.936906572928596 L40.2,15.626666167821513 L40.1,15.31395259764656 L40.0,14.999999999999995 L39.9,14.68604740235343 L39.8,14.373333832178478 L39.7,14.063093427071395 L39.6,13.756550564175729 L39.5,13.454915028125267 L39.4,13.159377236576583 L39.3,12.871103542174612 L39.2,12.591231629491432 L39.1,12.320866025105012 L39.0,12.06107373853763 L38.9,11.812880051256549 L38.8,11.577264470356543 L38.7,11.355156862892944 L38.6,11.147433786121056 L38.5,10.954915028125265 L38.4,10.778360372489917 L38.3,10.618466599780668 L38.2,10.475864737669907 L38.1,10.351117570558747 L38.0,10.244717418524232 L37.9,10.15708419435684 L37.8,10.088563746356552 L37.7,10.039426493427612 L37.6,10.009866357858641 L37.5,10.0 L37.4,10.009866357858643 L37.3,10.039426493427612 L37.2,10.088563746356556 L37.1,10.157084194356841 L37.0,10.244717418524228 L36.9,10.351117570558744 L36.8,10.47586473766991 L36.7,10.618466599780673 L36.6,10.778360372489914 L36.5,10.95491502812527 L36.4,11.147433786121061 L36.3,11.35515686289295 L36.2,11.57726447035655 L36.1,11.812880051256542 L36.0,12.061073738537637 L35.9,12.320866025105019 L35.8,12.591231629491425 L35.7,12.87110354217462 L35.6,13.159377236576608 L35.5,13.454915028125258 L35.4,13.756550564175736 L35.3,14.063093427071387 L35.2,14.373333832178469 L35.1,14.68604740235344 L35.0,15.000000000000004 L34.9,15.31395259764657 L34.8,15.62666616782154 L34.7,15.936906572928622 L34.6,16.24344943582427 L34.5,16.545084971874733 L34.4,16.840622763423383 L34.3,17.128896457825388 L34.2,17.408768370508582 L34.1,17.679133974894988 L34.0,17.938926261462356 L33.9,18.187119948743465 L33.8,18.422735529643457 L33.7,18.644843137107056 L33.6,18.852566213878944 L33.5,19.045084971874736 L33.4,19.221639627510072 L33.3,19.381533400219322 L33.2,19.524135262330102 L33.1,19.64888242944125 L33.0,19.755282581475765 L32.9,19.842915805643155 L32.8,19.911436253643448 L32.7,19.960573506572388 L32.6,19.99013364214136 L32.5,20.0 L32.4,19.99013364214136 L32.3,19.960573506572388 L32.2,19.911436253643444 L32.1,19.84291580564316 L32.0,19.755282581475768 L31.9,19.648882429441258 L31.8,19.52413526233009 L31.7,19.38153340021931 L31.6,19.22163962751008 L31.5,19.04508497187474 L31.4,18.852566213878937 L31.3,18.644843137107053 L31.2,18.42273552964344 L31.1,18.187119948743444 L31.0,17.938926261462363 L30.9,17.679133974894967 L30.8,17.408768370508575 L30.7,17.128896457825366 L30.6,16.840622763423394 L30.5,16.545084971874743 L30.4,16.243449435824264 L30.3,15.936906572928613 L30.2,15.626666167821513 L30.1,15.31395259764658 L30.0,14.999999999999979 L29.9,14.686047402353413 L29.8,14.373333832178478 L29.7,14.06309342707138 L29.6,13.756550564175729 L29.5,13.454915028125251 L29.4,13.1593772365766 L29.3,12.871103542174628 L29.2,12.591231629491418 L29.1,12.320866025105026 L29.0,12.061073738537631 L28.9,11.812880051256549 L28.8,11.577264470356557 L28.7,11.355156862892944 L28.6,11.147433786121056 L28.5,10.954915028125257 L28.4,10.778360372489919 L28.3,10.618466599780685 L28.2,10.475864737669907 L28.1,10.351117570558742 L28.0,10.244717418524232 L27.9,10.157084194356845 L27.8,10.088563746356556 L27.7,10.039426493427609 L27.6,10.009866357858641 L27.5,10.0 L27.4,10.009866357858643 L27.3,10.039426493427609 L27.2,10.088563746356558 L27.1,10.157084194356845 L27.0,10.244717418524232 L26.9,10.351117570558744 L26.8,10.475864737669902 L26.7,10.618466599780689 L26.6,10.778360372489932 L26.5,10.95491502812526 L26.4,11.147433786121049 L26.3,11.355156862892947 L26.2,11.57726447035656 L26.1,11.812880051256542 L26.0,12.061073738537637 L25.9,12.320866025105033 L25.8,12.591231629491423 L25.7,12.871103542174652 L25.6,13.159377236576606 L25.5,13.454915028125257 L25.4,13.756550564175727 L25.3,14.063093427071367 L25.2,14.373333832178485 L25.1,14.686047402353438 L25.0,15.000000000000004 L24.9,15.313952597646567 L24.8,15.62666616782153 L24.7,15.93690657292862 L24.6,16.24344943582427 L24.5,16.54508497187474 L24.4,16.840622763423397 L24.3,17.128896457825363 L24.2,17.408768370508582 L24.1,17.679133974894988 L24.0,17.938926261462367 L23.9,18.187119948743458 L23.8,18.422735529643443 L23.7,18.644843137107063 L23.6,18.852566213878944 L23.5,19.045084971874733 L23.4,19.22163962751008 L23.3,19.381533400219322 L23.2,19.524135262330102 L23.1,19.648882429441258 L23.0,19.75528258147577 L22.9,19.842915805643155 L22.8,19.911436253643444 L22.7,19.960573506572388 L22.6,19.99013364214136 L22.5,20.0 L22.4,19.99013364214136 L22.3,19.960573506572388 L22.2,19.911436253643444 L22.1,19.84291580564316 L22.0,19.755282581475768 L21.9,19.648882429441255 L21.8,19.5241352623301 L21.7,19.38153340021932 L21.6,19.221639627510072 L21.5,19.04508497187473 L21.4,18.85256621387894 L21.3,18.644843137107063 L21.2,18.422735529643433 L21.1,18.18711994874345 L21.0,17.938926261462363 L20.9,17.67913397489498 L20.8,17.408768370508575 L20.7,17.12889645782536 L20.6,16.840622763423404 L20.5,16.545084971874726 L20.4,16.243449435824264 L20.3,15.936906572928633 L20.2,15.626666167821515 L20.1,15.313952597646562 L20.0,14.999999999999998 L19.9,14.686047402353433 L19.8,14.37333383217848 L19.7,14.063093427071362 L19.6,13.75655056417573 L19.5,13.45491502812526 L19.4,13.159377236576601 L19.3,12.871103542174637 L19.2,12.591231629491418 L19.1,12.32086602510502 L19.0,12.061073738537633 L18.9,11.812880051256544 L18.8,11.577264470356557 L18.7,11.355156862892938 L18.6,11.147433786121058 L18.5,10.954915028125267 L18.4,10.77836037248992 L18.3,10.618466599780687 L18.2,10.4758647376699 L18.1,10.351117570558745 L18.0,10.244717418524232 L17.9,10.157084194356845 L17.8,10.088563746356556 L17.7,10.03942649342761 L17.6,10.009866357858643 L17.5,10.0 L17.4,10.009866357858643 L17.3,10.03942649342761 L17.2,10.088563746356556 L17.1,10.157084194356845 L17.0,10.24471741852423 L16.9,10.351117570558745 L16.8,10.475864737669902 L16.7,10.61846659978068 L16.6,10.778360372489928 L16.5,10.95491502812526 L16.4,11.14743378612106 L16.3,11.35515686289294 L16.2,11.57726447035656 L16.1,11.812880051256547 L16.0,12.061073738537637 L15.9,12.320866025105024 L15.8,12.591231629491421 L15.7,12.871103542174641 L15.6,13.159377236576614 L15.5,13.454915028125265 L15.4,13.756550564175726 L15.3,14.063093427071376 L15.2,14.373333832178485 L15.1,14.686047402353436 L15.0,15.00000000000001 L14.9,15.313952597646567 L14.8,15.626666167821519 L14.7,15.936906572928628 L14.6,16.243449435824278 L14.5,16.54508497187474 L14.4,16.84062276342339 L14.3,17.128896457825363 L14.2,17.408768370508582 L14.1,17.679133974894977 L14.0,17.938926261462367 L13.9,18.187119948743447 L13.8,18.422735529643443 L13.7,18.64484313710706 L13.6,18.852566213878948 L13.5,19.045084971874736 L13.4,19.221639627510076 L13.3,19.381533400219322 L13.2,19.5241352623301 L13.1,19.648882429441258 L13.0,19.755282581475768 L12.9,19.842915805643155 L12.8,19.911436253643444 L12.7,19.960573506572388 L12.6,19.99013364214136 L12.5,20.0 L12.4,19.99013364214136 L12.3,19.960573506572388 L12.2,19.911436253643444 L12.1,19.842915805643155 L12.0,19.755282581475768 L11.9,19.648882429441258 L11.8,19.5241352623301 L11.7,19.381533400219315 L11.6,19.221639627510072 L11.5,19.045084971874733 L11.4,18.852566213878944 L11.3,18.64484313710706 L11.2,18.42273552964344 L11.1,18.187119948743447 L11.0,17.938926261462363 L10.9,17.679133974894985 L10.8,17.408768370508575 L10.7,17.12889645782536 L10.6,16.840622763423383 L10.5,16.545084971874736 L10.4,16.243449435824274 L10.3,15.93690657292863 L10.2,15.626666167821517 L10.1,15.313952597646564 L10.0,14.999999999999998 L9.9,14.686047402353434 L9.8,14.373333832178481 L9.7,14.063093427071372 L9.6,13.756550564175724 L9.5,13.454915028125262 L9.4,13.15937723657661 L9.3,12.87110354217464 L9.2,12.59123162949142 L9.1,12.320866025105015 L9.0,12.061073738537633 L8.9,11.812880051256553 L8.8,11.577264470356559 L8.7,11.35515686289294 L8.6,11.147433786121056 L8.5,10.954915028125265 L8.4,10.778360372489924 L8.3,10.618466599780682 L8.2,10.475864737669902 L8.1,10.351117570558742 L8.0,10.244717418524232 L7.9,10.157084194356845 L7.8,10.088563746356556 L7.7,10.03942649342761 L7.6,10.009866357858641 L7.5,10.0 L7.4,10.009866357858641 L7.3,10.039426493427612 L7.2,10.088563746356556 L7.1,10.157084194356845 L7.0,10.244717418524232 L6.9,10.351117570558742 L6.8,10.475864737669903 L6.7,10.618466599780682 L6.6,10.778360372489924 L6.5,10.954915028125264 L6.4,11.147433786121052 L6.3,11.355156862892944 L6.2,11.577264470356559 L6.1,11.812880051256553 L6.0,12.061073738537635 L5.9,12.320866025105015 L5.8,12.591231629491425 L5.7,12.871103542174637 L5.6,13.159377236576614 L5.5,13.454915028125264 L5.4,13.756550564175727 L5.3,14.063093427071381 L5.2,14.373333832178478 L5.1,14.686047402353436 L5.0,15.0 L4.9,15.313952597646566 L4.8,15.626666167821522 L4.7,15.936906572928622 L4.6,16.243449435824274 L4.5,16.545084971874736 L4.4,16.84062276342339 L4.3,17.128896457825363 L4.2,17.408768370508575 L4.1,17.679133974894985 L4.0,17.938926261462367 L3.9,18.18711994874345 L3.8,18.422735529643443 L3.7,18.644843137107056 L3.6,18.852566213878944 L3.5,19.045084971874736 L3.4,19.221639627510076 L3.3,19.38153340021932 L3.2,19.5241352623301 L3.1,19.648882429441258 L3.0,19.755282581475768 L2.9,19.842915805643155 L2.8,19.911436253643444 L2.7,19.960573506572388 L2.6,19.99013364214136 L2.5,20.0 L2.4,19.99013364214136 L2.3,19.960573506572388 L2.2,19.911436253643444 L2.1,19.842915805643155 L2.0,19.755282581475768 L1.9,19.648882429441258 L1.8,19.5241352623301 L1.7,19.38153340021932 L1.6,19.221639627510076 L1.5,19.045084971874736 L1.4,18.852566213878944 L1.3,18.64484313710706 L1.2,18.422735529643443 L1.1,18.187119948743447 L1.0,17.938926261462367 L0.9,17.679133974894985 L0.8,17.408768370508575 L0.7,17.128896457825363 L0.6,16.84062276342339 L0.5,16.545084971874736 L0.4,16.243449435824274 L0.3,15.936906572928622 L0.2,15.626666167821522 L0.1,15.313952597646567 L0.0,15.0" fill="#000000"  />
<!-- Footer -->
</svg>
