<!-- Header -->
<svg
    version="1.1"
    baseProfile="full"
    xmlns="http://www.w3.org/2000/svg"
    xmlns:xlink="http://www.w3.org/1999/xlink"
    xmlns:ev="http://www.w3.org/2001/xml-events"
    width="400.0"
    height="20.0"
    viewBox="-0.5 -8.0 401.0 21.0"
    preserveAspectRatio="none"
>
<!-- Body -->
<!-- Path -->
<path d="M0.0,0.0 L1.0,0.35329838032231997 L2.0,0.7058123498888574 L3.0,1.05675923953187 L4.0,1.4053598593929346 L5.0,1.7508402289192904 L6.0,2.092433295294219 L7.0,2.4293806364861203 L8.0,2.7609341451350846 L9.0,3.0863576895383162 L10.0,3.4049287480466006 L11.0,3.7159400132430562 L12.0,4.018700962342474 L13.0,4.31253939032459 L14.0,4.596802902397323 L15.0,4.870860362476376 L16.0,5.134103294465166 L17.0,5.385947233223917 L18.0,5.625833022228447 L19.0,5.853228055037473 L20.0,6.067627457812106 L21.0,6.268555210262027 L22.0,6.455565202529576 L23.0,6.6282422256652005 L24.0,6.786202893495146 L25.0,6.929096493834651 L26.0,7.056605767156691 L27.0,7.168447610987476 L28.0,7.264373708464733 L29.0,7.344171079663243 L30.0,7.407662554463532 L31.0,7.454707165913848 L32.0,7.485200463212037 L33.0,7.4990747436124545 L34.0,7.496299202742987 L35.0,7.47688000299846 L36.0,7.440860259858583 L37.0,7.388319946160804 L38.0,7.319375714540605 L39.0,7.234180638433487 L40.0,7.132923872213652 L41.0,7.015830231224006 L42.0,6.883159692629858 L43.0,6.735206818204618 L44.0,6.572300100328977 L45.0,6.394801232655692 L46.0,6.203104307059215 L47.0,5.99763493865318 L48.0,5.778849320818421 L49.0,5.547233212339575 L50.0,5.303300858899107 L51.0,5.0475938513233 L52.0,4.780679923115171 L53.0,4.50315168994413 L54.0,4.215625333890981 L55.0,3.9187392353696167 L56.0,3.613152555762864 L57.0,3.299543773919365 L58.0,2.9786091797608547 L59.0,2.65106132834443 L60.0,2.3176274578121094 L61.0,1.979047874740296 L62.0,1.6360743104740707 L63.0,1.2894682520955718 L64.0,0.9399992517322807 L65.0,0.588443217958838 L66.0,0.23558069308596177 L67.0,-0.11780487983865348 L68.0,-0.4709288964698534 L69.0,-0.8230073331828406 L70.0,-1.1732584878017305 L71.0,-1.5209047151738473 L72.0,-1.8651741537364126 L73.0,-2.205302439242279 L74.0,-2.540534401839686 L75.0,-2.8701257427381726 L76.0,-3.193344686738042 L77.0,-3.5094736069542987 L78.0,-3.8178106181277816 L79.0,-4.117671134985988 L80.0,-4.4083893921935475 L81.0,-4.689319922517787 L82.0,-4.959838989927386 L83.0,-5.21934597444236 L84.0,-5.467264705660587 L85.0,-5.7030447420002295 L86.0,-5.926162592817678 L87.0,-6.136122880687671 L88.0,-6.332459441265111 L89.0,-6.514736358286434 L90.0,-6.682548931412758 L91.0,-6.835524574765838 L92.0,-6.9733236441618835 L93.0,-7.09564019120659 L94.0,-7.202202642577072 L95.0,-7.292774402982575 L96.0,-7.367154380465164 L97.0,-7.4251774328741815 L98.0,-7.4667147345231 L99.0,-7.491674062214775 L100.0,-7.5 L101.0,-7.491674062214775 L102.0,-7.4667147345231 L103.0,-7.4251774328741815 L104.0,-7.3671543804651645 L105.0,-7.292774402982576 L106.0,-7.202202642577073 L107.0,-7.0956401912065905 L108.0,-6.973323644161887 L109.0,-6.835524574765842 L110.0,-6.68254893141276 L111.0,-6.514736358286433 L112.0,-6.3324594412651125 L113.0,-6.136122880687676 L114.0,-5.92616259281768 L115.0,-5.703044742000231 L116.0,-5.467264705660587 L117.0,-5.219345974442359 L118.0,-4.959838989927392 L119.0,-4.689319922517794 L120.0,-4.4083893921935555 L121.0,-4.117671134985985 L122.0,-3.817810618127784 L123.0,-3.5094736069543013 L124.0,-3.1933446867380475 L125.0,-2.870125742738178 L126.0,-2.5405344018396856 L127.0,-2.205302439242282 L128.0,-1.8651741537364086 L129.0,-1.5209047151738435 L130.0,-1.1732584878017334 L131.0,-0.8230073331828432 L132.0,-0.4709288964698495 L133.0,-0.11780487983864957 L134.0,0.23558069308595903 L135.0,0.5884432179588386 L136.0,0.9399992517322879 L137.0,1.2894682520955756 L138.0,1.6360743104740711 L139.0,1.9790478747402969 L140.0,2.3176274578121037 L141.0,2.651061328344425 L142.0,2.9786091797608614 L143.0,3.2995437739193623 L144.0,3.613152555762867 L145.0,3.9187392353696118 L146.0,4.215625333890979 L147.0,4.503151689944134 L148.0,4.780679923115175 L149.0,5.0475938513233 L150.0,5.303300858899105 L151.0,5.54723321233957 L152.0,5.7788493208184155 L153.0,5.9976349386531815 L154.0,6.2031043070592125 L155.0,6.394801232655692 L156.0,6.572300100328974 L157.0,6.735206818204616 L158.0,6.883159692629859 L159.0,7.015830231224005 L160.0,7.132923872213651 L161.0,7.234180638433485 L162.0,7.319375714540604 L163.0,7.388319946160803 L164.0,7.4408602598585825 L165.0,7.476880002998459 L166.0,7.496299202742987 L167.0,7.4990747436124545 L168.0,7.485200463212037 L169.0,7.454707165913848 L170.0,7.407662554463534 L171.0,7.344171079663244 L172.0,7.264373708464733 L173.0,7.168447610987478 L174.0,7.056605767156697 L175.0,6.929096493834655 L176.0,6.78620289349515 L177.0,6.628242225665196 L178.0,6.455565202529576 L179.0,6.268555210262031 L180.0,6.067627457812106 L181.0,5.853228055037472 L182.0,5.625833022228451 L183.0,5.385947233223927 L184.0,5.134103294465173 L185.0,4.870860362476382 L186.0,4.596802902397324 L187.0,4.312539390324587 L188.0,4.018700962342479 L189.0,3.715940013243057 L190.0,3.404928748046597 L191.0,3.08635768953832 L192.0,2.760934145135097 L193.0,2.429380636486129 L194.0,2.0924332952942235 L195.0,1.75084022891929 L196.0,1.4053598593929426 L197.0,1.0567592395318732 L198.0,0.7058123498888561 L199.0,0.35329838032231403 L200.0,2.7554552980815444e-15 L201.0,-0.35329838032230854 L202.0,-0.7058123498888507 L203.0,-1.056759239531868 L204.0,-1.4053598593929373 L205.0,-1.7508402289192846 L206.0,-2.0924332952942177 L207.0,-2.429380636486111 L208.0,-2.7609341451350917 L209.0,-3.086357689538315 L210.0,-3.404928748046592 L211.0,-3.7159400132430522 L212.0,-4.018700962342474 L213.0,-4.312539390324592 L214.0,-4.596802902397321 L215.0,-4.870860362476377 L216.0,-5.134103294465159 L217.0,-5.385947233223914 L218.0,-5.625833022228439 L219.0,-5.8532280550374685 L220.0,-6.0676274578121046 L221.0,-6.268555210262027 L222.0,-6.455565202529581 L223.0,-6.6282422256652 L224.0,-6.7862028934951475 L225.0,-6.929096493834648 L226.0,-7.05660576715669 L227.0,-7.168447610987473 L228.0,-7.264373708464732 L229.0,-7.344171079663241 L230.0,-7.407662554463533 L231.0,-7.454707165913849 L232.0,-7.485200463212037 L233.0,-7.4990747436124545 L234.0,-7.496299202742987 L235.0,-7.47688000299846 L236.0,-7.440860259858585 L237.0,-7.388319946160805 L238.0,-7.319375714540608 L239.0,-7.234180638433488 L240.0,-7.132923872213658 L241.0,-7.015830231224005 L242.0,-6.883159692629856 L243.0,-6.7352068182046185 L244.0,-6.572300100328976 L245.0,-6.394801232655696 L246.0,-6.203104307059214 L247.0,-5.997634938653185 L248.0,-5.7788493208184235 L249.0,-5.547233212339583 L250.0,-5.303300858899114 L251.0,-5.047593851323294 L252.0,-4.780679923115173 L253.0,-4.5031516899441275 L254.0,-4.2156253338909835 L255.0,-3.9187392353696167 L256.0,-3.613152555762861 L257.0,-3.2995437739193556 L258.0,-2.9786091797608543 L259.0,-2.651061328344436 L260.0,-2.317627457812109 L261.0,-1.9790478747402958 L262.0,-1.6360743104740765 L263.0,-1.2894682520955614 L264.0,-0.93999925173228 L265.0,-0.5884432179588307 L266.0,-0.2355806930859512 L267.0,0.11780487983865738 L268.0,0.4709288964698439 L269.0,0.8230073331828378 L270.0,1.1732584878017345 L271.0,1.5209047151738382 L272.0,1.8651741537364228 L273.0,2.205302439242283 L274.0,2.540534401839693 L275.0,2.870125742738185 L276.0,3.193344686738049 L277.0,3.5094736069542964 L278.0,3.817810618127785 L279.0,4.117671134985992 L280.0,4.408389392193545 L281.0,4.689319922517779 L282.0,4.959838989927383 L283.0,5.219345974442365 L284.0,5.467264705660597 L285.0,5.703044742000236 L286.0,5.926162592817676 L287.0,6.136122880687677 L288.0,6.332459441265116 L289.0,6.5147363582864335 L290.0,6.682548931412755 L291.0,6.835524574765837 L292.0,6.973323644161885 L293.0,7.095640191206586 L294.0,7.202202642577076 L295.0,7.292774402982574 L296.0,7.367154380465166 L297.0,7.425177432874183 L298.0,7.4667147345231 L299.0,7.491674062214774 L300.0,7.5 L301.0,7.491674062214775 L302.0,7.466714734523101 L303.0,7.425177432874184 L304.0,7.367154380465167 L305.0,7.292774402982573 L306.0,7.20220264257707 L307.0,7.095640191206589 L308.0,6.973323644161889 L309.0,6.835524574765841 L310.0,6.682548931412757 L311.0,6.514736358286437 L312.0,6.332459441265121 L313.0,6.136122880687681 L314.0,5.926162592817682 L315.0,5.703044742000223 L316.0,5.467264705660584 L317.0,5.219345974442361 L318.0,4.959838989927389 L319.0,4.689319922517786 L320.0,4.408389392193552 L321.0,4.117671134985999 L322.0,3.817810618127792 L323.0,3.509473606954304 L324.0,3.1933446867380564 L325.0,2.870125742738193 L326.0,2.5405344018397007 L327.0,2.205302439242278 L328.0,1.8651741537364308 L329.0,1.5209047151738462 L330.0,1.1732584878017556 L331.0,0.823007333182846 L332.0,0.47092889646983893 L333.0,0.11780487983866565 L334.0,-0.23558069308596957 L335.0,-0.5884432179588225 L336.0,-0.9399992517322853 L337.0,-1.2894682520955534 L338.0,-1.6360743104740685 L339.0,-1.9790478747402749 L340.0,-2.3176274578120886 L341.0,-2.6510613283444036 L342.0,-2.9786091797608467 L343.0,-3.299543773919372 L344.0,-3.613152555762865 L345.0,-3.9187392353696326 L346.0,-4.215625333890965 L347.0,-4.503151689944131 L348.0,-4.780679923115146 L349.0,-5.047593851323288 L350.0,-5.303300858899089 L351.0,-5.5472332123395685 L352.0,-5.778849320818409 L353.0,-5.99763493865318 L354.0,-6.203104307059226 L355.0,-6.394801232655684 L356.0,-6.572300100328978 L357.0,-6.735206818204603 L358.0,-6.883159692629853 L359.0,-7.015830231223997 L360.0,-7.1329238722136505 L361.0,-7.234180638433482 L362.0,-7.319375714540606 L363.0,-7.3883199461608084 L364.0,-7.4408602598585825 L365.0,-7.476880002998461 L366.0,-7.496299202742986 L367.0,-7.4990747436124545 L368.0,-7.485200463212038 L369.0,-7.454707165913848 L370.0,-7.407662554463535 L371.0,-7.3441710796632425 L372.0,-7.264373708464734 L373.0,-7.168447610987479 L374.0,-7.056605767156689 L375.0,-6.9290964938346615 L376.0,-6.786202893495151 L377.0,-6.628242225665209 L378.0,-6.455565202529578 L379.0,-6.268555210262032 L380.0,-6.067627457812101 L381.0,-5.853228055037474 L382.0,-5.625833022228453 L383.0,-5.385947233223929 L384.0,-5.134103294465184 L385.0,-4.870860362476384 L386.0,-4.596802902397338 L387.0,-4.312539390324589 L388.0,-4.018700962342481 L389.0,-3.715940013243048 L390.0,-3.4049287480465997 L391.0,-3.0863576895383225 L392.0,-2.7609341451350997 L393.0,-2.429380636486144 L394.0,-2.0924332952942257 L395.0,-1.7508402289193057 L396.0,-1.4053598593929322 L397.0,-1.0567592395318761 L398.0,-0.7058123498888456 L399.0,-0.3532983803223168 L400.0,-5.510910596163089e-15 L400.0,4.999999999999995 L399.0,4.646701619677684 L398.0,4.294187650111154 L397.0,3.943240760468124 L396.0,3.594640140607068 L395.0,3.249159771080694 L394.0,2.9075667047057743 L393.0,2.570619363513856 L392.0,2.2390658548649003 L391.0,1.9136423104616775 L390.0,1.5950712519534003 L389.0,1.2840599867569522 L388.0,0.9812990376575188 L387.0,0.6874606096754112 L386.0,0.4031970976026624 L385.0,0.12913963752361557 L384.0,-0.13410329446518432 L383.0,-0.3859472332239289 L382.0,-0.6258330222284529 L381.0,-0.8532280550374738 L380.0,-1.067627457812101 L379.0,-1.2685552102620319 L378.0,-1.455565202529578 L377.0,-1.6282422256652094 L376.0,-1.786202893495151 L375.0,-1.9290964938346615 L374.0,-2.0566057671566886 L373.0,-2.168447610987479 L372.0,-2.264373708464734 L371.0,-2.3441710796632425 L370.0,-2.407662554463535 L369.0,-2.454707165913848 L368.0,-2.4852004632120384 L367.0,-2.4990747436124545 L366.0,-2.4962992027429856 L365.0,-2.4768800029984606 L364.0,-2.4408602598585825 L363.0,-2.3883199461608084 L362.0,-2.319375714540606 L361.0,-2.2341806384334824 L360.0,-2.1329238722136505 L359.0,-2.0158302312239966 L358.0,-1.883159692629853 L357.0,-1.7352068182046034 L356.0,-1.5723001003289783 L355.0,-1.3948012326556842 L354.0,-1.2031043070592258 L353.0,-0.9976349386531798 L352.0,-0.7788493208184093 L351.0,-0.5472332123395685 L350.0,-0.30330085889908887 L349.0,-0.047593851323288305 L348.0,0.21932007688485378 L347.0,0.49684831005586894 L346.0,0.7843746661090352 L345.0,1.0812607646303674 L344.0,1.386847444237135 L343.0,1.700456226080628 L342.0,2.0213908202391533 L341.0,2.3489386716555964 L340.0,2.6823725421879114 L339.0,3.020952125259725 L338.0,3.3639256895259315 L337.0,3.7105317479044464 L336.0,4.060000748267715 L335.0,4.411556782041178 L334.0,4.76441930691403 L333.0,5.1178048798386655 L332.0,5.470928896469839 L331.0,5.823007333182846 L330.0,6.173258487801755 L329.0,6.520904715173846 L328.0,6.865174153736431 L327.0,7.205302439242278 L326.0,7.5405344018397 L325.0,7.8701257427381925 L324.0,8.193344686738056 L323.0,8.509473606954304 L322.0,8.817810618127792 L321.0,9.117671134985999 L320.0,9.408389392193552 L319.0,9.689319922517786 L318.0,9.95983898992739 L317.0,10.219345974442362 L316.0,10.467264705660584 L315.0,10.703044742000223 L314.0,10.926162592817683 L313.0,11.136122880687681 L312.0,11.332459441265122 L311.0,11.514736358286438 L310.0,11.682548931412757 L309.0,11.835524574765842 L308.0,11.973323644161889 L307.0,12.095640191206588 L306.0,12.20220264257707 L305.0,12.292774402982573 L304.0,12.367154380465166 L303.0,12.425177432874184 L302.0,12.466714734523102 L301.0,12.491674062214775 L300.0,12.5 L299.0,12.491674062214773 L298.0,12.4667147345231 L297.0,12.425177432874182 L296.0,12.367154380465166 L295.0,12.292774402982573 L294.0,12.202202642577076 L293.0,12.095640191206586 L292.0,11.973323644161885 L291.0,11.835524574765838 L290.0,11.682548931412754 L289.0,11.514736358286434 L288.0,11.332459441265115 L287.0,11.136122880687676 L286.0,10.926162592817676 L285.0,10.703044742000236 L284.0,10.467264705660597 L283.0,10.219345974442366 L282.0,9.959838989927384 L281.0,9.689319922517779 L280.0,9.408389392193545 L279.0,9.117671134985992 L278.0,8.817810618127785 L277.0,8.509473606954296 L276.0,8.19334468673805 L275.0,7.870125742738185 L274.0,7.540534401839693 L273.0,7.205302439242283 L272.0,6.865174153736422 L271.0,6.520904715173838 L270.0,6.173258487801735 L269.0,5.823007333182838 L268.0,5.470928896469844 L267.0,5.1178048798386575 L266.0,4.764419306914049 L265.0,4.41155678204117 L264.0,4.06000074826772 L263.0,3.7105317479044384 L262.0,3.3639256895259235 L261.0,3.0209521252597042 L260.0,2.682372542187891 L259.0,2.348938671655564 L258.0,2.0213908202391457 L257.0,1.7004562260806444 L256.0,1.386847444237139 L255.0,1.0812607646303833 L254.0,0.7843746661090165 L253.0,0.4968483100558725 L252.0,0.21932007688482713 L251.0,-0.047593851323293634 L250.0,-0.30330085889911373 L249.0,-0.5472332123395827 L248.0,-0.7788493208184235 L247.0,-0.9976349386531851 L246.0,-1.2031043070592142 L245.0,-1.3948012326556958 L244.0,-1.5723001003289756 L243.0,-1.7352068182046185 L242.0,-1.8831596926298557 L241.0,-2.0158302312240046 L240.0,-2.1329238722136576 L239.0,-2.2341806384334877 L238.0,-2.319375714540608 L237.0,-2.388319946160805 L236.0,-2.440860259858585 L235.0,-2.4768800029984597 L234.0,-2.4962992027429873 L233.0,-2.4990747436124545 L232.0,-2.4852004632120366 L231.0,-2.454707165913849 L230.0,-2.407662554463533 L229.0,-2.3441710796632407 L228.0,-2.264373708464732 L227.0,-2.1684476109874726 L226.0,-2.0566057671566904 L225.0,-1.9290964938346482 L224.0,-1.7862028934951475 L223.0,-1.6282422256651996 L222.0,-1.4555652025295807 L221.0,-1.2685552102620274 L220.0,-1.0676274578121046 L219.0,-0.8532280550374685 L218.0,-0.6258330222284387 L217.0,-0.3859472332239138 L216.0,-0.13410329446515856 L215.0,0.12913963752362267 L214.0,0.4031970976026793 L213.0,0.6874606096754077 L212.0,0.9812990376575259 L211.0,1.2840599867569478 L210.0,1.5950712519534078 L209.0,1.913642310461685 L208.0,2.2390658548649083 L207.0,2.570619363513889 L206.0,2.9075667047057823 L205.0,3.2491597710807154 L204.0,3.594640140607063 L203.0,3.9432407604681323 L202.0,4.29418765011115 L201.0,4.646701619677692 L200.0,5.000000000000003 L199.0,5.353298380322314 L198.0,5.705812349888856 L197.0,6.056759239531873 L196.0,6.405359859392942 L195.0,6.75084022891929 L194.0,7.0924332952942235 L193.0,7.429380636486129 L192.0,7.7609341451350975 L191.0,8.08635768953832 L190.0,8.404928748046597 L189.0,8.715940013243056 L188.0,9.018700962342479 L187.0,9.312539390324588 L186.0,9.596802902397325 L185.0,9.870860362476382 L184.0,10.134103294465174 L183.0,10.385947233223927 L182.0,10.625833022228452 L181.0,10.853228055037473 L180.0,11.067627457812106 L179.0,11.268555210262031 L178.0,11.455565202529577 L177.0,11.628242225665197 L176.0,11.786202893495151 L175.0,11.929096493834656 L174.0,12.056605767156697 L173.0,12.168447610987478 L172.0,12.264373708464733 L171.0,12.344171079663244 L170.0,12.407662554463535 L169.0,12.454707165913849 L168.0,12.485200463212037 L167.0,12.499074743612454 L166.0,12.496299202742987 L165.0,12.47688000299846 L164.0,12.440860259858582 L163.0,12.388319946160802 L162.0,12.319375714540605 L161.0,12.234180638433486 L160.0,12.132923872213652 L159.0,12.015830231224005 L158.0,11.88315969262986 L157.0,11.735206818204617 L156.0,11.572300100328974 L155.0,11.394801232655691 L154.0,11.203104307059213 L153.0,10.997634938653182 L152.0,10.778849320818416 L151.0,10.54723321233957 L150.0,10.303300858899105 L149.0,10.047593851323299 L148.0,9.780679923115175 L147.0,9.503151689944133 L146.0,9.21562533389098 L145.0,8.918739235369612 L144.0,8.613152555762866 L143.0,8.299543773919362 L142.0,7.978609179760861 L141.0,7.651061328344425 L140.0,7.317627457812104 L139.0,6.979047874740297 L138.0,6.636074310474071 L137.0,6.289468252095576 L136.0,5.939999251732288 L135.0,5.588443217958838 L134.0,5.235580693085959 L133.0,4.8821951201613505 L132.0,4.529071103530151 L131.0,4.176992666817156 L130.0,3.8267415121982666 L129.0,3.4790952848261565 L128.0,3.1348258462635914 L127.0,2.794697560757718 L126.0,2.4594655981603144 L125.0,2.129874257261822 L124.0,1.8066553132619525 L123.0,1.4905263930456987 L122.0,1.1821893818722158 L121.0,0.8823288650140153 L120.0,0.5916106078064445 L119.0,0.31068007748220605 L118.0,0.04016101007260797 L117.0,-0.21934597444235937 L116.0,-0.467264705660587 L115.0,-0.7030447420002313 L114.0,-0.92616259281768 L113.0,-1.136122880687676 L112.0,-1.3324594412651125 L111.0,-1.5147363582864326 L110.0,-1.68254893141276 L109.0,-1.8355245747658424 L108.0,-1.973323644161887 L107.0,-2.0956401912065905 L106.0,-2.202202642577073 L105.0,-2.292774402982576 L104.0,-2.3671543804651645 L103.0,-2.4251774328741815 L102.0,-2.4667147345230998 L101.0,-2.4916740622147753 L100.0,-2.5 L99.0,-2.4916740622147753 L98.0,-2.4667147345230998 L97.0,-2.4251774328741815 L96.0,-2.3671543804651636 L95.0,-2.292774402982575 L94.0,-2.202202642577072 L93.0,-2.0956401912065896 L92.0,-1.9733236441618835 L91.0,-1.835524574765838 L90.0,-1.6825489314127582 L89.0,-1.5147363582864344 L88.0,-1.3324594412651107 L87.0,-1.1361228806876706 L86.0,-0.9261625928176782 L85.0,-0.7030447420002295 L84.0,-0.467264705660587 L83.0,-0.21934597444236026 L82.0,0.04016101007261419 L81.0,0.31068007748221316 L80.0,0.5916106078064525 L79.0,0.8823288650140118 L78.0,1.1821893818722184 L77.0,1.4905263930457013 L76.0,1.8066553132619578 L75.0,2.1298742572618274 L74.0,2.459465598160314 L73.0,2.794697560757721 L72.0,3.1348258462635874 L71.0,3.479095284826153 L70.0,3.8267415121982697 L69.0,4.176992666817159 L68.0,4.529071103530146 L67.0,4.882195120161347 L66.0,5.235580693085962 L65.0,5.588443217958838 L64.0,5.939999251732281 L63.0,6.289468252095572 L62.0,6.63607431047407 L61.0,6.979047874740296 L60.0,7.31762745781211 L59.0,7.65106132834443 L58.0,7.978609179760855 L57.0,8.299543773919364 L56.0,8.613152555762865 L55.0,8.918739235369618 L54.0,9.21562533389098 L53.0,9.50315168994413 L52.0,9.780679923115171 L51.0,10.047593851323299 L50.0,10.303300858899107 L49.0,10.547233212339574 L48.0,10.77884932081842 L47.0,10.99763493865318 L46.0,11.203104307059215 L45.0,11.394801232655691 L44.0,11.572300100328977 L43.0,11.735206818204617 L42.0,11.883159692629858 L41.0,12.015830231224006 L40.0,12.132923872213652 L39.0,12.234180638433486 L38.0,12.319375714540605 L37.0,12.388319946160804 L36.0,12.440860259858583 L35.0,12.47688000299846 L34.0,12.496299202742987 L33.0,12.499074743612454 L32.0,12.485200463212037 L31.0,12.454707165913849 L30.0,12.407662554463531 L29.0,12.344171079663244 L28.0,12.264373708464733 L27.0,12.168447610987476 L26.0,12.056605767156691 L25.0,11.92909649383465 L24.0,11.786202893495146 L23.0,11.6282422256652 L22.0,11.455565202529577 L21.0,11.268555210262027 L20.0,11.067627457812106 L19.0,10.853228055037473 L18.0,10.625833022228447 L17.0,10.385947233223916 L16.0,10.134103294465167 L15.0,9.870860362476376 L14.0,9.596802902397323 L13.0,9.31253939032459 L12.0,9.018700962342475 L11.0,8.715940013243056 L10.0,8.4049287480466 L9.0,8.086357689538316 L8.0,7.760934145135085 L7.0,7.429380636486121 L6.0,7.092433295294219 L5.0,6.750840228919291 L4.0,6.405359859392934 L3.0,6.0567592395318695 L2.0,5.705812349888857 L1.0,5.35329838032232 L0.0,5.0" fill="#FFFFFF"  />
<!-- Path -->
<path d="M0.0,0.0 L1.0,0.35329838032231997 L2.0,0.7058123498888574 L3.0,1.05675923953187 L4.0,1.4053598593929346 L5.0,1.7508402289192904 L6.0,2.092433295294219 L7.0,2.4293806364861203 L8.0,2.7609341451350846 L9.0,3.0863576895383162 L10.0,3.4049287480466006 L11.0,3.7159400132430562 L12.0,4.018700962342474 L13.0,4.31253939032459 L14.0,4.596802902397323 L15.0,4.870860362476376 L16.0,5.134103294465166 L17.0,5.385947233223917 L18.0,5.625833022228447 L19.0,5.853228055037473 L20.0,6.067627457812106 L21.0,6.268555210262027 L22.0,6.455565202529576 L23.0,6.6282422256652005 L24.0,6.786202893495146 L25.0,6.929096493834651 L26.0,7.056605767156691 L27.0,7.168447610987476 L28.0,7.264373708464733 L29.0,7.344171079663243 L30.0,7.407662554463532 L31.0,7.454707165913848 L32.0,7.485200463212037 L33.0,7.4990747436124545 L34.0,7.496299202742987 L35.0,7.47688000299846 L36.0,7.440860259858583 L37.0,7.388319946160804 L38.0,7.319375714540605 L39.0,7.234180638433487 L40.0,7.132923872213652 L41.0,7.015830231224006 L42.0,6.883159692629858 L43.0,6.735206818204618 L44.0,6.572300100328977 L45.0,6.394801232655692 L46.0,6.203104307059215 L47.0,5.99763493865318 L48.0,5.778849320818421 L49.0,5.547233212339575 L50.0,5.303300858899107 L51.0,5.0475938513233 L52.0,4.780679923115171 L53.0,4.50315168994413 L54.0,4.215625333890981 L55.0,3.9187392353696167 L56.0,3.613152555762864 L57.0,3.299543773919365 L58.0,2.9786091797608547 L59.0,2.65106132834443 L60.0,2.3176274578121094 L61.0,1.979047874740296 L62.0,1.6360743104740707 L63.0,1.2894682520955718 L64.0,0.9399992517322807 L65.0,0.588443217958838 L66.0,0.23558069308596177 L67.0,-0.11780487983865348 L68.0,-0.4709288964698534 L69.0,-0.8230073331828406 L70.0,-1.1732584878017305 L71.0,-1.5209047151738473 L72.0,-1.8651741537364126 L73.0,-2.205302439242279 L74.0,-2.540534401839686 L75.0,-2.8701257427381726 L76.0,-3.193344686738042 L77.0,-3.5094736069542987 L78.0,-3.8178106181277816 L79.0,-4.117671134985988 L80.0,-4.4083893921935475 L81.0,-4.689319922517787 L82.0,-4.959838989927386 L83.0,-5.21934597444236 L84.0,-5.467264705660587 L85.0,-5.7030447420002295 L86.0,-5.926162592817678 L87.0,-6.136122880687671 L88.0,-6.332459441265111 L89.0,-6.514736358286434 L90.0,-6.682548931412758 L91.0,-6.835524574765838 L92.0,-6.9733236441618835 L93.0,-7.09564019120659 L94.0,-7.202202642577072 L95.0,-7.292774402982575 L96.0,-7.367154380465164 L97.0,-7.4251774328741815 L98.0,-7.4667147345231 L99.0,-7.491674062214775 L100.0,-7.5 L101.0,-7.491674062214775 L102.0,-7.4667147345231 L103.0,-7.4251774328741815 L104.0,-7.3671543804651645 L105.0,-7.292774402982576 L106.0,-7.202202642577073 L107.0,-7.0956401912065905 L108.0,-6.973323644161887 L109.0,-6.835524574765842 L110.0,-6.68254893141276 L111.0,-6.514736358286433 L112.0,-6.3324594412651125 L113.0,-6.136122880687676 L114.0,-5.92616259281768 L115.0,-5.703044742000231 L116.0,-5.467264705660587 L117.0,-5.219345974442359 L118.0,-4.959838989927392 L119.0,-4.689319922517794 L120.0,-4.4083893921935555 L121.0,-4.117671134985985 L122.0,-3.817810618127784 L123.0,-3.5094736069543013 L124.0,-3.1933446867380475 L125.0,-2.870125742738178 L126.0,-2.5405344018396856 L127.0,-2.205302439242282 L128.0,-1.8651741537364086 L129.0,-1.5209047151738435 L130.0,-1.1732584878017334 L131.0,-0.8230073331828432 L132.0,-0.4709288964698495 L133.0,-0.11780487983864957 L134.0,0.23558069308595903 L135.0,0.5884432179588386 L136.0,0.9399992517322879 L137.0,1.2894682520955756 L138.0,1.6360743104740711 L139.0,1.9790478747402969 L140.0,2.3176274578121037 L141.0,2.651061328344425 L142.0,2.9786091797608614 L143.0,3.2995437739193623 L144.0,3.613152555762867 L145.0,3.9187392353696118 L146.0,4.215625333890979 L147.0,4.503151689944134 L148.0,4.780679923115175 L149.0,5.0475938513233 L150.0,5.303300858899105 L151.0,5.54723321233957 L152.0,5.7788493208184155 L153.0,5.9976349386531815 L154.0,6.2031043070592125 L155.0,6.394801232655692 L156.0,6.572300100328974 L157.0,6.735206818204616 L158.0,6.883159692629859 L159.0,7.015830231224005 L160.0,7.132923872213651 L161.0,7.234180638433485 L162.0,7.319375714540604 L163.0,7.388319946160803 L164.0,7.4408602598585825 L165.0,7.476880002998459 L166.0,7.496299202742987 L167.0,7.4990747436124545 L168.0,7.485200463212037 L169.0,7.454707165913848 L170.0,7.407662554463534 L171.0,7.344171079663244 L172.0,7.264373708464733 L173.0,7.168447610987478 L174.0,7.056605767156697 L175.0,6.929096493834655 L176.0,6.78620289349515 L177.0,6.628242225665196 L178.0,6.455565202529576 L179.0,6.268555210262031 L180.0,6.067627457812106 L181.0,5.853228055037472 L182.0,5.625833022228451 L183.0,5.385947233223927 L184.0,5.134103294465173 L185.0,4.870860362476382 L186.0,4.596802902397324 L187.0,4.312539390324587 L188.0,4.018700962342479 L189.0,3.715940013243057 L190.0,3.404928748046597 L191.0,3.08635768953832 L192.0,2.760934145135097 L193.0,2.429380636486129 L194.0,2.0924332952942235 L195.0,1.75084022891929 L196.0,1.4053598593929426 L197.0,1.0567592395318732 L198.0,0.7058123498888561 L199.0,0.35329838032231403 L200.0,2.7554552980815444e-15 L201.0,-0.35329838032230854 L202.0,-0.7058123498888507 L203.0,-1.056759239531868 L204.0,-1.4053598593929373 L205.0,-1.7508402289192846 L206.0,-2.0924332952942177 L207.0,-2.429380636486111 L208.0,-2.7609341451350917 L209.0,-3.086357689538315 L210.0,-3.404928748046592 L211.0,-3.7159400132430522 L212.0,-4.018700962342474 L213.0,-4.312539390324592 L214.0,-4.596802902397321 L215.0,-4.870860362476377 L216.0,-5.134103294465159 L217.0,-5.385947233223914 L218.0,-5.625833022228439 L219.0,-5.8532280550374685 L220.0,-6.0676274578121046 L221.0,-6.268555210262027 L222.0,-6.455565202529581 L223.0,-6.6282422256652 L224.0,-6.7862028934951475 L225.0,-6.929096493834648 L226.0,-7.05660576715669 L227.0,-7.168447610987473 L228.0,-7.264373708464732 L229.0,-7.344171079663241 L230.0,-7.407662554463533 L231.0,-7.454707165913849 L232.0,-7.485200463212037 L233.0,-7.4990747436124545 L234.0,-7.496299202742987 L235.0,-7.47688000299846 L236.0,-7.440860259858585 L237.0,-7.388319946160805 L238.0,-7.319375714540608 L239.0,-7.234180638433488 L240.0,-7.132923872213658 L241.0,-7.015830231224005 L242.0,-6.883159692629856 L243.0,-6.7352068182046185 L244.0,-6.572300100328976 L245.0,-6.394801232655696 L246.0,-6.203104307059214 L247.0,-5.997634938653185 L248.0,-5.7788493208184235 L249.0,-5.547233212339583 L250.0,-5.303300858899114 L251.0,-5.047593851323294 L252.0,-4.780679923115173 L253.0,-4.5031516899441275 L254.0,-4.2156253338909835 L255.0,-3.9187392353696167 L256.0,-3.613152555762861 L257.0,-3.2995437739193556 L258.0,-2.9786091797608543 L259.0,-2.651061328344436 L260.0,-2.317627457812109 L261.0,-1.9790478747402958 L262.0,-1.6360743104740765 L263.0,-1.2894682520955614 L264.0,-0.93999925173228 L265.0,-0.5884432179588307 L266.0,-0.2355806930859512 L267.0,0.11780487983865738 L268.0,0.4709288964698439 L269.0,0.8230073331828378 L270.0,1.1732584878017345 L271.0,1.5209047151738382 L272.0,1.8651741537364228 L273.0,2.205302439242283 L274.0,2.540534401839693 L275.0,2.870125742738185 L276.0,3.193344686738049 L277.0,3.5094736069542964 L278.0,3.817810618127785 L279.0,4.117671134985992 L280.0,4.408389392193545 L281.0,4.689319922517779 L282.0,4.959838989927383 L283.0,5.219345974442365 L284.0,5.467264705660597 L285.0,5.703044742000236 L286.0,5.926162592817676 L287.0,6.136122880687677 L288.0,6.332459441265116 L289.0,6.5147363582864335 L290.0,6.682548931412755 L291.0,6.835524574765837 L292.0,6.973323644161885 L293.0,7.095640191206586 L294.0,7.202202642577076 L295.0,7.292774402982574 L296.0,7.367154380465166 L297.0,7.425177432874183 L298.0,7.4667147345231 L299.0,7.491674062214774 L300.0,7.5 L301.0,7.491674062214775 L302.0,7.466714734523101 L303.0,7.425177432874184 L304.0,7.367154380465167 L305.0,7.292774402982573 L306.0,7.20220264257707 L307.0,7.095640191206589 L308.0,6.973323644161889 L309.0,6.835524574765841 L310.0,6.682548931412757 L311.0,6.514736358286437 L312.0,6.332459441265121 L313.0,6.136122880687681 L314.0,5.926162592817682 L315.0,5.703044742000223 L316.0,5.467264705660584 L317.0,5.219345974442361 L318.0,4.959838989927389 L319.0,4.689319922517786 L320.0,4.408389392193552 L321.0,4.117671134985999 L322.0,3.817810618127792 L323.0,3.509473606954304 L324.0,3.1933446867380564 L325.0,2.870125742738193 L326.0,2.5405344018397007 L327.0,2.205302439242278 L328.0,1.8651741537364308 L329.0,1.5209047151738462 L330.0,1.1732584878017556 L331.0,0.823007333182846 L332.0,0.47092889646983893 L333.0,0.11780487983866565 L334.0,-0.23558069308596957 L335.0,-0.5884432179588225 L336.0,-0.9399992517322853 L337.0,-1.2894682520955534 L338.0,-1.6360743104740685 L339.0,-1.9790478747402749 L340.0,-2.3176274578120886 L341.0,-2.6510613283444036 L342.0,-2.9786091797608467 L343.0,-3.299543773919372 L344.0,-3.613152555762865 L345.0,-3.9187392353696326 L346.0,-4.215625333890965 L347.0,-4.503151689944131 L348.0,-4.780679923115146 L349.0,-5.047593851323288 L350.0,-5.303300858899089 L351.0,-5.5472332123395685 L352.0,-5.778849320818409 L353.0,-5.99763493865318 L354.0,-6.203104307059226 L355.0,-6.394801232655684 L356.0,-6.572300100328978 L357.0,-6.735206818204603 L358.0,-6.883159692629853 L359.0,-7.015830231223997 L360.0,-7.1329238722136505 L361.0,-7.234180638433482 L362.0,-7.319375714540606 L363.0,-7.3883199461608084 L364.0,-7.4408602598585825 L365.0,-7.476880002998461 L366.0,-7.496299202742986 L367.0,-7.4990747436124545 L368.0,-7.485200463212038 L369.0,-7.454707165913848 L370.0,-7.407662554463535 L371.0,-7.3441710796632425 L372.0,-7.264373708464734 L373.0,-7.168447610987479 L374.0,-7.056605767156689 L375.0,-6.9290964938346615 L376.0,-6.786202893495151 L377.0,-6.628242225665209 L378.0,-6.455565202529578 L379.0,-6.268555210262032 L380.0,-6.067627457812101 L381.0,-5.853228055037474 L382.0,-5.625833022228453 L383.0,-5.385947233223929 L384.0,-5.134103294465184 L385.0,-4.870860362476384 L386.0,-4.596802902397338 L387.0,-4.312539390324589 L388.0,-4.018700962342481 L389.0,-3.715940013243048 L390.0,-3.4049287480465997 L391.0,-3.0863576895383225 L392.0,-2.7609341451350997 L393.0,-2.429380636486144 L394.0,-2.0924332952942257 L395.0,-1.7508402289193057 L396.0,-1.4053598593929322 L397.0,-1.0567592395318761 L398.0,-0.7058123498888456 L399.0,-0.3532983803223168 L400.0,-5.510910596163089e-15" stroke-width="1" stroke-linecap="round" stroke="#000000" fill="none"  />
<!-- Path -->
<path d="M400.0,4.999999999999995 L399.0,4.646701619677684 L398.0,4.294187650111154 L397.0,3.943240760468124 L396.0,3.594640140607068 L395.0,3.249159771080694 L394.0,2.9075667047057743 L393.0,2.570619363513856 L392.0,2.2390658548649003 L391.0,1.9136423104616775 L390.0,1.5950712519534003 L389.0,1.2840599867569522 L388.0,0.9812990376575188 L387.0,0.6874606096754112 L386.0,0.4031970976026624 L385.0,0.12913963752361557 L384.0,-0.13410329446518432 L383.0,-0.3859472332239289 L382.0,-0.6258330222284529 L381.0,-0.8532280550374738 L380.0,-1.067627457812101 L379.0,-1.2685552102620319 L378.0,-1.455565202529578 L377.0,-1.6282422256652094 L376.0,-1.786202893495151 L375.0,-1.9290964938346615 L374.0,-2.0566057671566886 L373.0,-2.168447610987479 L372.0,-2.264373708464734 L371.0,-2.3441710796632425 L370.0,-2.407662554463535 L369.0,-2.454707165913848 L368.0,-2.4852004632120384 L367.0,-2.4990747436124545 L366.0,-2.4962992027429856 L365.0,-2.4768800029984606 L364.0,-2.4408602598585825 L363.0,-2.3883199461608084 L362.0,-2.319375714540606 L361.0,-2.2341806384334824 L360.0,-2.1329238722136505 L359.0,-2.0158302312239966 L358.0,-1.883159692629853 L357.0,-1.7352068182046034 L356.0,-1.5723001003289783 L355.0,-1.3948012326556842 L354.0,-1.2031043070592258 L353.0,-0.9976349386531798 L352.0,-0.7788493208184093 L351.0,-0.5472332123395685 L350.0,-0.30330085889908887 L349.0,-0.047593851323288305 L348.0,0.21932007688485378 L347.0,0.49684831005586894 L346.0,0.7843746661090352 L345.0,1.0812607646303674 L344.0,1.386847444237135 L343.0,1.700456226080628 L342.0,2.0213908202391533 L341.0,2.3489386716555964 L340.0,2.6823725421879114 L339.0,3.020952125259725 L338.0,3.3639256895259315 L337.0,3.7105317479044464 L336.0,4.060000748267715 L335.0,4.411556782041178 L334.0,4.76441930691403 L333.0,5.1178048798386655 L332.0,5.470928896469839 L331.0,5.823007333182846 L330.0,6.173258487801755 L329.0,6.520904715173846 L328.0,6.865174153736431 L327.0,7.205302439242278 L326.0,7.5405344018397 L325.0,7.8701257427381925 L324.0,8.193344686738056 L323.0,8.509473606954304 L322.0,8.817810618127792 L321.0,9.117671134985999 L320.0,9.408389392193552 L319.0,9.689319922517786 L318.0,9.95983898992739 L317.0,10.219345974442362 L316.0,10.467264705660584 L315.0,10.703044742000223 L314.0,10.926162592817683 L313.0,11.136122880687681 L312.0,11.332459441265122 L311.0,11.514736358286438 L310.0,11.682548931412757 L309.0,11.835524574765842 L308.0,11.973323644161889 L307.0,12.095640191206588 L306.0,12.20220264257707 L305.0,12.292774402982573 L304.0,12.367154380465166 L303.0,12.425177432874184 L302.0,12.466714734523102 L301.0,12.491674062214775 L300.0,12.5 L299.0,12.491674062214773 L298.0,12.4667147345231 L297.0,12.425177432874182 L296.0,12.367154380465166 L295.0,12.292774402982573 L294.0,12.202202642577076 L293.0,12.095640191206586 L292.0,11.973323644161885 L291.0,11.835524574765838 L290.0,11.682548931412754 L289.0,11.514736358286434 L288.0,11.332459441265115 L287.0,11.136122880687676 L286.0,10.926162592817676 L285.0,10.703044742000236 L284.0,10.467264705660597 L283.0,10.219345974442366 L282.0,9.959838989927384 L281.0,9.689319922517779 L280.0,9.408389392193545 L279.0,9.117671134985992 L278.0,8.817810618127785 L277.0,8.509473606954296 L276.0,8.19334468673805 L275.0,7.870125742738185 L274.0,7.540534401839693 L273.0,7.205302439242283 L272.0,6.865174153736422 L271.0,6.520904715173838 L270.0,6.173258487801735 L269.0,5.823007333182838 L268.0,5.470928896469844 L267.0,5.1178048798386575 L266.0,4.764419306914049 L265.0,4.41155678204117 L264.0,4.06000074826772 L263.0,3.7105317479044384 L262.0,3.3639256895259235 L261.0,3.0209521252597042 L260.0,2.682372542187891 L259.0,2.348938671655564 L258.0,2.0213908202391457 L257.0,1.7004562260806444 L256.0,1.386847444237139 L255.0,1.0812607646303833 L254.0,0.7843746661090165 L253.0,0.4968483100558725 L252.0,0.21932007688482713 L251.0,-0.047593851323293634 L250.0,-0.30330085889911373 L249.0,-0.5472332123395827 L248.0,-0.7788493208184235 L247.0,-0.9976349386531851 L246.0,-1.2031043070592142 L245.0,-1.3948012326556958 L244.0,-1.5723001003289756 L243.0,-1.7352068182046185 L242.0,-1.8831596926298557 L241.0,-2.0158302312240046 L240.0,-2.1329238722136576 L239.0,-2.2341806384334877 L238.0,-2.319375714540608 L237.0,-2.388319946160805 L236.0,-2.440860259858585 L235.0,-2.4768800029984597 L234.0,-2.4962992027429873 L233.0,-2.4990747436124545 L232.0,-2.4852004632120366 L231.0,-2.454707165913849 L230.0,-2.407662554463533 L229.0,-2.3441710796632407 L228.0,-2.264373708464732 L227.0,-2.1684476109874726 L226.0,-2.0566057671566904 L225.0,-1.9290964938346482 L224.0,-1.7862028934951475 L223.0,-1.6282422256651996 L222.0,-1.4555652025295807 L221.0,-1.2685552102620274 L220.0,-1.0676274578121046 L219.0,-0.8532280550374685 L218.0,-0.6258330222284387 L217.0,-0.3859472332239138 L216.0,-0.13410329446515856 L215.0,0.12913963752362267 L214.0,0.4031970976026793 L213.0,0.6874606096754077 L212.0,0.9812990376575259 L211.0,1.2840599867569478 L210.0,1.5950712519534078 L209.0,1.913642310461685 L208.0,2.2390658548649083 L207.0,2.570619363513889 L206.0,2.9075667047057823 L205.0,3.2491597710807154 L204.0,3.594640140607063 L203.0,3.9432407604681323 L202.0,4.29418765011115 L201.0,4.646701619677692 L200.0,5.000000000000003 L199.0,5.353298380322314 L198.0,5.705812349888856 L197.0,6.056759239531873 L196.0,6.405359859392942 L195.0,6.75084022891929 L194.0,7.0924332952942235 L193.0,7.429380636486129 L192.0,7.7609341451350975 L191.0,8.08635768953832 L190.0,8.404928748046597 L189.0,8.715940013243056 L188.0,9.018700962342479 L187.0,9.312539390324588 L186.0,9.596802902397325 L185.0,9.870860362476382 L184.0,10.134103294465174 L183.0,10.385947233223927 L182.0,10.625833022228452 L181.0,10.853228055037473 L180.0,11.067627457812106 L179.0,11.268555210262031 L178.0,11.455565202529577 L177.0,11.628242225665197 L176.0,11.786202893495151 L175.0,11.929096493834656 L174.0,12.056605767156697 L173.0,12.168447610987478 L172.0,12.264373708464733 L171.0,12.344171079663244 L170.0,12.407662554463535 L169.0,12.454707165913849 L168.0,12.485200463212037 L167.0,12.499074743612454 L166.0,12.496299202742987 L165.0,12.47688000299846 L164.0,12.440860259858582 L163.0,12.388319946160802 L162.0,12.319375714540605 L161.0,12.234180638433486 L160.0,12.132923872213652 L159.0,12.015830231224005 L158.0,11.88315969262986 L157.0,11.735206818204617 L156.0,11.572300100328974 L155.0,11.394801232655691 L154.0,11.203104307059213 L153.0,10.997634938653182 L152.0,10.778849320818416 L151.0,10.54723321233957 L150.0,10.303300858899105 L149.0,10.047593851323299 L148.0,9.780679923115175 L147.0,9.503151689944133 L146.0,9.21562533389098 L145.0,8.918739235369612 L144.0,8.613152555762866 L143.0,8.299543773919362 L142.0,7.978609179760861 L141.0,7.651061328344425 L140.0,7.317627457812104 L139.0,6.979047874740297 L138.0,6.636074310474071 L137.0,6.289468252095576 L136.0,5.939999251732288 L135.0,5.588443217958838 L134.0,5.235580693085959 L133.0,4.8821951201613505 L132.0,4.529071103530151 L131.0,4.176992666817156 L130.0,3.8267415121982666 L129.0,3.4790952848261565 L128.0,3.1348258462635914 L127.0,2.794697560757718 L126.0,2.4594655981603144 L125.0,2.129874257261822 L124.0,1.8066553132619525 L123.0,1.4905263930456987 L122.0,1.1821893818722158 L121.0,0.8823288650140153 L120.0,0.5916106078064445 L119.0,0.31068007748220605 L118.0,0.04016101007260797 L117.0,-0.21934597444235937 L116.0,-0.467264705660587 L115.0,-0.7030447420002313 L114.0,-0.92616259281768 L113.0,-1.136122880687676 L112.0,-1.3324594412651125 L111.0,-1.5147363582864326 L110.0,-1.68254893141276 L109.0,-1.8355245747658424 L108.0,-1.973323644161887 L107.0,-2.0956401912065905 L106.0,-2.202202642577073 L105.0,-2.292774402982576 L104.0,-2.3671543804651645 L103.0,-2.4251774328741815 L102.0,-2.4667147345230998 L101.0,-2.4916740622147753 L100.0,-2.5 L99.0,-2.4916740622147753 L98.0,-2.4667147345230998 L97.0,-2.4251774328741815 L96.0,-2.3671543804651636 L95.0,-2.292774402982575 L94.0,-2.202202642577072 L93.0,-2.0956401912065896 L92.0,-1.9733236441618835 L91.0,-1.835524574765838 L90.0,-1.6825489314127582 L89.0,-1.5147363582864344 L88.0,-1.3324594412651107 L87.0,-1.1361228806876706 L86.0,-0.9261625928176782 L85.0,-0.7030447420002295 L84.0,-0.467264705660587 L83.0,-0.21934597444236026 L82.0,0.04016101007261419 L81.0,0.31068007748221316 L80.0,0.5916106078064525 L79.0,0.8823288650140118 L78.0,1.1821893818722184 L77.0,1.4905263930457013 L76.0,1.8066553132619578 L75.0,2.1298742572618274 L74.0,2.459465598160314 L73.0,2.794697560757721 L72.0,3.1348258462635874 L71.0,3.479095284826153 L70.0,3.8267415121982697 L69.0,4.176992666817159 L68.0,4.529071103530146 L67.0,4.882195120161347 L66.0,5.235580693085962 L65.0,5.588443217958838 L64.0,5.939999251732281 L63.0,6.289468252095572 L62.0,6.63607431047407 L61.0,6.979047874740296 L60.0,7.31762745781211 L59.0,7.65106132834443 L58.0,7.978609179760855 L57.0,8.299543773919364 L56.0,8.613152555762865 L55.0,8.918739235369618 L54.0,9.21562533389098 L53.0,9.50315168994413 L52.0,9.780679923115171 L51.0,10.047593851323299 L50.0,10.303300858899107 L49.0,10.547233212339574 L48.0,10.77884932081842 L47.0,10.99763493865318 L46.0,11.203104307059215 L45.0,11.394801232655691 L44.0,11.572300100328977 L43.0,11.735206818204617 L42.0,11.883159692629858 L41.0,12.015830231224006 L40.0,12.132923872213652 L39.0,12.234180638433486 L38.0,12.319375714540605 L37.0,12.388319946160804 L36.0,12.440860259858583 L35.0,12.47688000299846 L34.0,12.496299202742987 L33.0,12.499074743612454 L32.0,12.485200463212037 L31.0,12.454707165913849 L30.0,12.407662554463531 L29.0,12.344171079663244 L28.0,12.264373708464733 L27.0,12.168447610987476 L26.0,12.056605767156691 L25.0,11.92909649383465 L24.0,11.786202893495146 L23.0,11.6282422256652 L22.0,11.455565202529577 L21.0,11.268555210262027 L20.0,11.067627457812106 L19.0,10.853228055037473 L18.0,10.625833022228447 L17.0,10.385947233223916 L16.0,10.134103294465167 L15.0,9.870860362476376 L14.0,9.596802902397323 L13.0,9.31253939032459 L12.0,9.018700962342475 L11.0,8.715940013243056 L10.0,8.4049287480466 L9.0,8.086357689538316 L8.0,7.760934145135085 L7.0,7.429380636486121 L6.0,7.092433295294219 L5.0,6.750840228919291 L4.0,6.405359859392934 L3.0,6.0567592395318695 L2.0,5.705812349888857 L1.0,5.35329838032232 L0.0,5.0" stroke-width="1" stroke-linecap="round" stroke="#000000" fill="none"  />
<!-- Footer -->
</svg>
