<!-- Header -->
<svg
    version="1.1"
    baseProfile="full"
    xmlns="http://www.w3.org/2000/svg"
    xmlns:xlink="http://www.w3.org/1999/xlink"
    xmlns:ev="http://www.w3.org/2001/xml-events"
    width="400.0"
    height="20.0"
    viewBox="-2.5 -10.0 405.0 25.0"
    preserveAspectRatio="none"
>
<!-- Body -->
<!-- Path -->
<path d="M0.0,0.0 L1.0,0.4709288964698503 L2.0,0.9399992517322819 L3.0,1.4053598593929344 L4.0,1.865174153736411 L5.0,2.3176274578121054 L6.0,2.760934145135084 L7.0,3.193344686738045 L8.0,3.613152555762865 L9.0,4.018700962342475 L10.0,4.408389392193548 L11.0,4.780679923115172 L12.0,5.134103294465165 L13.0,5.467264705660587 L14.0,5.778849320818419 L15.0,6.067627457812105 L16.0,6.332459441265113 L17.0,6.572300100328977 L18.0,6.786202893495147 L19.0,6.973323644161885 L20.0,7.132923872213651 L21.0,7.264373708464733 L22.0,7.3671543804651645 L23.0,7.440860259858583 L24.0,7.485200463212037 L25.0,7.5 L26.0,7.485200463212037 L27.0,7.440860259858584 L28.0,7.367154380465165 L29.0,7.264373708464733 L30.0,7.132923872213652 L31.0,6.973323644161886 L32.0,6.786202893495146 L33.0,6.572300100328976 L34.0,6.3324594412651125 L35.0,6.067627457812106 L36.0,5.778849320818419 L37.0,5.467264705660586 L38.0,5.134103294465167 L39.0,4.780679923115174 L40.0,4.408389392193549 L41.0,4.018700962342478 L42.0,3.613152555762864 L43.0,3.1933446867380466 L44.0,2.760934145135086 L45.0,2.3176274578121063 L46.0,1.8651741537364144 L47.0,1.4053598593929344 L48.0,0.939999251732284 L49.0,0.47092889646985187 L50.0,9.18485099360515e-16 L51.0,-0.4709288964698501 L52.0,-0.9399992517322822 L53.0,-1.4053598593929357 L54.0,-1.8651741537364093 L55.0,-2.3176274578121046 L56.0,-2.760934145135084 L57.0,-3.193344686738042 L58.0,-3.6131525557628654 L59.0,-4.018700962342473 L60.0,-4.408389392193545 L61.0,-4.780679923115172 L62.0,-5.134103294465163 L63.0,-5.467264705660587 L64.0,-5.77884932081842 L65.0,-6.067627457812105 L66.0,-6.332459441265115 L67.0,-6.5723001003289765 L68.0,-6.786202893495148 L69.0,-6.973323644161886 L70.0,-7.132923872213651 L71.0,-7.264373708464734 L72.0,-7.367154380465165 L73.0,-7.440860259858583 L74.0,-7.485200463212037 L75.0,-7.5 L76.0,-7.485200463212037 L77.0,-7.440860259858584 L78.0,-7.367154380465165 L79.0,-7.264373708464733 L80.0,-7.132923872213652 L81.0,-6.973323644161887 L82.0,-6.786202893495149 L83.0,-6.572300100328976 L84.0,-6.3324594412651125 L85.0,-6.067627457812106 L86.0,-5.778849320818422 L87.0,-5.4672647056605905 L88.0,-5.1341032944651674 L89.0,-4.780679923115172 L90.0,-4.40838939219355 L91.0,-4.0187009623424785 L92.0,-3.6131525557628708 L93.0,-3.1933446867380475 L94.0,-2.760934145135084 L95.0,-2.317627457812107 L96.0,-1.865174153736415 L97.0,-1.405359859392935 L98.0,-0.9399992517322848 L99.0,-0.4709288964698495 L100.0,-1.83697019872103e-15 L101.0,0.4709288964698458 L102.0,0.9399992517322813 L103.0,1.4053598593929315 L104.0,1.8651741537364115 L105.0,2.3176274578121037 L106.0,2.7609341451350864 L107.0,3.193344686738044 L108.0,3.6131525557628614 L109.0,4.01870096234247 L110.0,4.408389392193547 L111.0,4.780679923115175 L112.0,5.134103294465165 L113.0,5.467264705660584 L114.0,5.7788493208184155 L115.0,6.067627457812108 L116.0,6.332459441265114 L117.0,6.5723001003289765 L118.0,6.786202893495145 L119.0,6.9733236441618835 L120.0,7.132923872213649 L121.0,7.264373708464734 L122.0,7.3671543804651645 L123.0,7.440860259858583 L124.0,7.485200463212037 L125.0,7.5 L126.0,7.485200463212037 L127.0,7.440860259858584 L128.0,7.3671543804651645 L129.0,7.264373708464733 L130.0,7.132923872213652 L131.0,6.973323644161888 L132.0,6.786202893495144 L133.0,6.572300100328976 L134.0,6.332459441265113 L135.0,6.067627457812106 L136.0,5.778849320818415 L137.0,5.4672647056605825 L138.0,5.134103294465163 L139.0,4.780679923115173 L140.0,4.40838939219355 L141.0,4.018700962342479 L142.0,3.61315255576286 L143.0,3.1933446867380426 L144.0,2.7609341451350846 L145.0,2.3176274578121085 L146.0,1.8651741537364162 L147.0,1.4053598593929295 L148.0,0.9399992517322793 L149.0,0.4709288964698504 L150.0,2.7554552980815444e-15 L151.0,-0.47092889646984487 L152.0,-0.9399992517322738 L153.0,-1.4053598593929373 L154.0,-1.8651741537364108 L155.0,-2.3176274578121028 L156.0,-2.7609341451350793 L157.0,-3.1933446867380373 L158.0,-3.6131525557628668 L159.0,-4.018700962342474 L160.0,-4.408389392193546 L161.0,-4.780679923115168 L162.0,-5.134103294465159 L163.0,-5.467264705660579 L164.0,-5.77884932081841 L165.0,-6.067627457812096 L166.0,-6.332459441265117 L167.0,-6.572300100328979 L168.0,-6.7862028934951475 L169.0,-6.973323644161885 L170.0,-7.1329238722136505 L171.0,-7.264373708464732 L172.0,-7.367154380465164 L173.0,-7.4408602598585825 L174.0,-7.485200463212036 L175.0,-7.5 L176.0,-7.485200463212037 L177.0,-7.440860259858583 L178.0,-7.3671543804651645 L179.0,-7.264373708464734 L180.0,-7.132923872213653 L181.0,-6.973323644161888 L182.0,-6.78620289349515 L183.0,-6.572300100328983 L184.0,-6.3324594412651205 L185.0,-6.067627457812107 L186.0,-5.7788493208184235 L187.0,-5.467264705660583 L188.0,-5.134103294465164 L189.0,-4.780679923115173 L190.0,-4.408389392193551 L191.0,-4.01870096234248 L192.0,-3.6131525557628725 L193.0,-3.1933446867380555 L194.0,-2.7609341451350855 L195.0,-2.317627457812109 L196.0,-1.865174153736417 L197.0,-1.4053598593929435 L198.0,-0.93999925173228 L199.0,-0.47092889646985137 L200.0,-3.67394039744206e-15 L201.0,0.4709288964698439 L202.0,0.9399992517322728 L203.0,1.4053598593929364 L204.0,1.86517415373641 L205.0,2.3176274578121023 L206.0,2.7609341451350784 L207.0,3.193344686738037 L208.0,3.613152555762866 L209.0,4.018700962342473 L210.0,4.408389392193545 L211.0,4.780679923115168 L212.0,5.134103294465168 L213.0,5.467264705660588 L214.0,5.778849320818418 L215.0,6.067627457812104 L216.0,6.33245944126511 L217.0,6.572300100328973 L218.0,6.786202893495141 L219.0,6.973323644161885 L220.0,7.1329238722136505 L221.0,7.264373708464735 L222.0,7.367154380465166 L223.0,7.440860259858584 L224.0,7.485200463212037 L225.0,7.5 L226.0,7.4852004632120375 L227.0,7.440860259858585 L228.0,7.367154380465167 L229.0,7.2643737084647375 L230.0,7.132923872213649 L231.0,6.9733236441618835 L232.0,6.786202893495145 L233.0,6.5723001003289765 L234.0,6.332459441265114 L235.0,6.067627457812108 L236.0,5.7788493208184235 L237.0,5.467264705660593 L238.0,5.134103294465174 L239.0,4.780679923115184 L240.0,4.408389392193563 L241.0,4.018700962342469 L242.0,3.6131525557628614 L243.0,3.193344686738044 L244.0,2.7609341451350864 L245.0,2.31762745781211 L246.0,1.865174153736418 L247.0,1.4053598593929446 L248.0,0.9399992517322943 L249.0,0.4709288964698655 L250.0,1.7915101792304453e-14 L251.0,-0.47092889646985636 L252.0,-0.9399992517322853 L253.0,-1.4053598593929353 L254.0,-1.8651741537364088 L255.0,-2.317627457812114 L256.0,-2.7609341451350904 L257.0,-3.193344686738048 L258.0,-3.613152555762865 L259.0,-4.018700962342472 L260.0,-4.408389392193544 L261.0,-4.7806799231151675 L262.0,-5.134103294465158 L263.0,-5.467264705660596 L264.0,-5.778849320818426 L265.0,-6.067627457812111 L266.0,-6.332459441265116 L267.0,-6.572300100328978 L268.0,-6.786202893495147 L269.0,-6.973323644161885 L270.0,-7.1329238722136505 L271.0,-7.264373708464731 L272.0,-7.367154380465168 L273.0,-7.440860259858586 L274.0,-7.4852004632120375 L275.0,-7.5 L276.0,-7.485200463212037 L277.0,-7.440860259858583 L278.0,-7.367154380465165 L279.0,-7.264373708464734 L280.0,-7.132923872213653 L281.0,-6.973323644161889 L282.0,-6.786202893495151 L283.0,-6.57230010032897 L284.0,-6.332459441265107 L285.0,-6.067627457812101 L286.0,-5.778849320818416 L287.0,-5.467264705660585 L288.0,-5.134103294465166 L289.0,-4.780679923115175 L290.0,-4.408389392193553 L291.0,-4.018700962342481 L292.0,-3.6131525557628743 L293.0,-3.193344686738057 L294.0,-2.760934145135075 L295.0,-2.317627457812098 L296.0,-1.8651741537364057 L297.0,-1.4053598593929322 L298.0,-0.9399992517322819 L299.0,-0.47092889646985314 L300.0,-5.510910596163089e-15 L301.0,0.4709288964698422 L302.0,0.9399992517322711 L303.0,1.4053598593929213 L304.0,1.865174153736395 L305.0,2.317627457812113 L306.0,2.7609341451350895 L307.0,3.193344686738047 L308.0,3.613152555762864 L309.0,4.018700962342472 L310.0,4.408389392193543 L311.0,4.780679923115167 L312.0,5.134103294465157 L313.0,5.467264705660576 L314.0,5.778849320818408 L315.0,6.06762745781211 L316.0,6.332459441265115 L317.0,6.572300100328977 L318.0,6.786202893495146 L319.0,6.973323644161884 L320.0,7.13292387221365 L321.0,7.264373708464731 L322.0,7.367154380465163 L323.0,7.4408602598585825 L324.0,7.485200463212036 L325.0,7.5 L326.0,7.485200463212038 L327.0,7.440860259858583 L328.0,7.367154380465171 L329.0,7.264373708464734 L330.0,7.132923872213662 L331.0,6.973323644161889 L332.0,6.78620289349514 L333.0,6.572300100328984 L334.0,6.332459441265108 L335.0,6.067627457812118 L336.0,5.778849320818416 L337.0,5.467264705660603 L338.0,5.134103294465166 L339.0,4.780679923115196 L340.0,4.408389392193554 L341.0,4.018700962342505 L342.0,3.6131525557628748 L343.0,3.1933446867380337 L344.0,2.7609341451351006 L345.0,2.3176274578120992 L346.0,1.8651741537364326 L347.0,1.405359859392933 L348.0,0.9399992517323095 L349.0,0.47092889646985403 L350.0,3.3074748286527365e-14 L351.0,-0.47092889646984126 L352.0,-0.9399992517322701 L353.0,-1.4053598593929206 L354.0,-1.8651741537364201 L355.0,-2.317627457812087 L356.0,-2.7609341451350886 L357.0,-3.193344686738022 L358.0,-3.6131525557628636 L359.0,-4.018700962342449 L360.0,-4.408389392193543 L361.0,-4.780679923115166 L362.0,-5.134103294465156 L363.0,-5.467264705660595 L364.0,-5.7788493208184075 L365.0,-6.067627457812109 L366.0,-6.332459441265101 L367.0,-6.572300100328977 L368.0,-6.786202893495134 L369.0,-6.973323644161884 L370.0,-7.13292387221365 L371.0,-7.264373708464731 L372.0,-7.367154380465163 L373.0,-7.440860259858582 L374.0,-7.4852004632120375 L375.0,-7.5 L376.0,-7.485200463212037 L377.0,-7.440860259858587 L378.0,-7.367154380465165 L379.0,-7.264373708464735 L380.0,-7.132923872213654 L381.0,-6.973323644161889 L382.0,-6.786202893495152 L383.0,-6.5723001003289845 L384.0,-6.332459441265122 L385.0,-6.067627457812102 L386.0,-5.778849320818434 L387.0,-5.467264705660586 L388.0,-5.134103294465167 L389.0,-4.780679923115176 L390.0,-4.408389392193555 L391.0,-4.018700962342483 L392.0,-3.6131525557628756 L393.0,-3.1933446867380586 L394.0,-2.7609341451351015 L395.0,-2.3176274578121254 L396.0,-1.8651741537364077 L397.0,-1.4053598593929342 L398.0,-0.9399992517322838 L399.0,-0.470928896469855 L400.0,-7.34788079488412e-15 L400.0,4.999999999999993 L399.0,4.529071103530145 L398.0,4.060000748267716 L397.0,3.5946401406070656 L396.0,3.1348258462635923 L395.0,2.6823725421878746 L394.0,2.2390658548648985 L393.0,1.8066553132619414 L392.0,1.3868474442371244 L391.0,0.981299037657517 L390.0,0.5916106078064454 L389.0,0.21932007688482358 L388.0,-0.13410329446516656 L387.0,-0.4672647056605861 L386.0,-0.7788493208184342 L385.0,-1.0676274578121019 L384.0,-1.3324594412651223 L383.0,-1.5723001003289845 L382.0,-1.786202893495152 L381.0,-1.9733236441618889 L380.0,-2.132923872213654 L379.0,-2.264373708464735 L378.0,-2.3671543804651654 L377.0,-2.440860259858587 L376.0,-2.4852004632120366 L375.0,-2.5 L374.0,-2.4852004632120375 L373.0,-2.4408602598585816 L372.0,-2.3671543804651627 L371.0,-2.2643737084647313 L370.0,-2.1329238722136497 L369.0,-1.9733236441618844 L368.0,-1.7862028934951342 L367.0,-1.5723001003289774 L366.0,-1.332459441265101 L365.0,-1.067627457812109 L364.0,-0.7788493208184075 L363.0,-0.46726470566059497 L362.0,-0.1341032944651559 L361.0,0.21932007688483424 L360.0,0.5916106078064569 L359.0,0.9812990376575508 L358.0,1.3868474442371364 L357.0,1.8066553132619778 L356.0,2.2390658548649114 L355.0,2.682372542187913 L354.0,3.13482584626358 L353.0,3.5946401406070794 L352.0,4.06000074826773 L351.0,4.529071103530159 L350.0,5.000000000000033 L349.0,5.470928896469854 L348.0,5.93999925173231 L347.0,6.405359859392933 L346.0,6.865174153736433 L345.0,7.317627457812099 L344.0,7.760934145135101 L343.0,8.193344686738033 L342.0,8.613152555762875 L341.0,9.018700962342505 L340.0,9.408389392193554 L339.0,9.780679923115196 L338.0,10.134103294465167 L337.0,10.467264705660604 L336.0,10.778849320818416 L335.0,11.067627457812119 L334.0,11.332459441265108 L333.0,11.572300100328984 L332.0,11.78620289349514 L331.0,11.973323644161889 L330.0,12.132923872213663 L329.0,12.264373708464735 L328.0,12.36715438046517 L327.0,12.440860259858583 L326.0,12.485200463212038 L325.0,12.5 L324.0,12.485200463212035 L323.0,12.440860259858582 L322.0,12.367154380465163 L321.0,12.264373708464731 L320.0,12.132923872213649 L319.0,11.973323644161884 L318.0,11.786202893495146 L317.0,11.572300100328977 L316.0,11.332459441265115 L315.0,11.06762745781211 L314.0,10.77884932081841 L313.0,10.467264705660575 L312.0,10.134103294465156 L311.0,9.780679923115166 L310.0,9.408389392193543 L309.0,9.018700962342471 L308.0,8.613152555762865 L307.0,8.193344686738047 L306.0,7.7609341451350895 L305.0,7.317627457812113 L304.0,6.865174153736395 L303.0,6.405359859392921 L302.0,5.939999251732271 L301.0,5.470928896469842 L300.0,4.999999999999995 L299.0,4.529071103530147 L298.0,4.0600007482677185 L297.0,3.594640140607068 L296.0,3.1348258462635945 L295.0,2.682372542187902 L294.0,2.239065854864925 L293.0,1.8066553132619432 L292.0,1.3868474442371257 L291.0,0.9812990376575188 L290.0,0.5916106078064471 L289.0,0.21932007688482535 L288.0,-0.13410329446516567 L287.0,-0.4672647056605852 L286.0,-0.7788493208184164 L285.0,-1.067627457812101 L284.0,-1.3324594412651072 L283.0,-1.5723001003289703 L282.0,-1.786202893495151 L281.0,-1.9733236441618889 L280.0,-2.132923872213653 L279.0,-2.264373708464734 L278.0,-2.3671543804651654 L277.0,-2.4408602598585833 L276.0,-2.4852004632120366 L275.0,-2.5 L274.0,-2.4852004632120375 L273.0,-2.440860259858586 L272.0,-2.367154380465168 L271.0,-2.2643737084647313 L270.0,-2.1329238722136505 L269.0,-1.9733236441618853 L268.0,-1.7862028934951466 L267.0,-1.5723001003289783 L266.0,-1.332459441265116 L265.0,-1.0676274578121108 L264.0,-0.7788493208184262 L263.0,-0.46726470566059586 L262.0,-0.13410329446515767 L261.0,0.21932007688483246 L260.0,0.591610607806456 L259.0,0.9812990376575277 L258.0,1.386847444237135 L257.0,1.806655313261952 L256.0,2.2390658548649096 L255.0,2.682372542187886 L254.0,3.134825846263591 L253.0,3.5946401406070647 L252.0,4.060000748267715 L251.0,4.529071103530144 L250.0,5.000000000000018 L249.0,5.470928896469865 L248.0,5.939999251732294 L247.0,6.405359859392945 L246.0,6.865174153736418 L245.0,7.31762745781211 L244.0,7.760934145135087 L243.0,8.193344686738044 L242.0,8.613152555762861 L241.0,9.018700962342468 L240.0,9.408389392193563 L239.0,9.780679923115184 L238.0,10.134103294465174 L237.0,10.467264705660593 L236.0,10.778849320818424 L235.0,11.067627457812108 L234.0,11.332459441265115 L233.0,11.572300100328977 L232.0,11.786202893495144 L231.0,11.973323644161884 L230.0,12.132923872213649 L229.0,12.264373708464738 L228.0,12.367154380465166 L227.0,12.440860259858585 L226.0,12.485200463212038 L225.0,12.5 L224.0,12.485200463212037 L223.0,12.440860259858585 L222.0,12.367154380465166 L221.0,12.264373708464735 L220.0,12.13292387221365 L219.0,11.973323644161885 L218.0,11.78620289349514 L217.0,11.572300100328974 L216.0,11.33245944126511 L215.0,11.067627457812105 L214.0,10.778849320818418 L213.0,10.467264705660588 L212.0,10.134103294465168 L211.0,9.78067992311517 L210.0,9.408389392193545 L209.0,9.018700962342473 L208.0,8.613152555762866 L207.0,8.193344686738037 L206.0,7.760934145135078 L205.0,7.317627457812103 L204.0,6.86517415373641 L203.0,6.405359859392936 L202.0,5.939999251732273 L201.0,5.470928896469844 L200.0,4.9999999999999964 L199.0,4.529071103530149 L198.0,4.06000074826772 L197.0,3.5946401406070567 L196.0,3.134825846263583 L195.0,2.682372542187891 L194.0,2.2390658548649145 L193.0,1.8066553132619445 L192.0,1.3868474442371275 L191.0,0.9812990376575197 L190.0,0.5916106078064489 L189.0,0.21932007688482713 L188.0,-0.1341032944651639 L187.0,-0.4672647056605834 L186.0,-0.7788493208184235 L185.0,-1.0676274578121072 L184.0,-1.3324594412651205 L183.0,-1.5723001003289827 L182.0,-1.7862028934951502 L181.0,-1.973323644161888 L180.0,-2.132923872213653 L179.0,-2.264373708464734 L178.0,-2.3671543804651645 L177.0,-2.4408602598585833 L176.0,-2.4852004632120366 L175.0,-2.5 L174.0,-2.4852004632120357 L173.0,-2.4408602598585825 L172.0,-2.3671543804651636 L171.0,-2.264373708464732 L170.0,-2.1329238722136505 L169.0,-1.9733236441618853 L168.0,-1.7862028934951475 L167.0,-1.5723001003289792 L166.0,-1.332459441265117 L165.0,-1.0676274578120957 L164.0,-0.7788493208184102 L163.0,-0.467264705660579 L162.0,-0.13410329446515856 L161.0,0.21932007688483157 L160.0,0.5916106078064542 L159.0,0.9812990376575259 L158.0,1.3868474442371332 L157.0,1.8066553132619627 L156.0,2.2390658548649207 L155.0,2.6823725421878972 L154.0,3.134825846263589 L153.0,3.594640140607063 L152.0,4.0600007482677265 L151.0,4.529071103530155 L150.0,5.000000000000003 L149.0,5.47092889646985 L148.0,5.93999925173228 L147.0,6.405359859392929 L146.0,6.865174153736416 L145.0,7.317627457812108 L144.0,7.760934145135085 L143.0,8.193344686738042 L142.0,8.61315255576286 L141.0,9.018700962342479 L140.0,9.40838939219355 L139.0,9.780679923115173 L138.0,10.134103294465163 L137.0,10.467264705660583 L136.0,10.778849320818415 L135.0,11.067627457812106 L134.0,11.332459441265113 L133.0,11.572300100328976 L132.0,11.786202893495144 L131.0,11.973323644161887 L130.0,12.132923872213652 L129.0,12.264373708464733 L128.0,12.367154380465164 L127.0,12.440860259858585 L126.0,12.485200463212037 L125.0,12.5 L124.0,12.485200463212037 L123.0,12.440860259858583 L122.0,12.367154380465164 L121.0,12.264373708464735 L120.0,12.132923872213649 L119.0,11.973323644161884 L118.0,11.786202893495144 L117.0,11.572300100328977 L116.0,11.332459441265115 L115.0,11.067627457812108 L114.0,10.778849320818416 L113.0,10.467264705660584 L112.0,10.134103294465165 L111.0,9.780679923115175 L110.0,9.408389392193547 L109.0,9.01870096234247 L108.0,8.613152555762861 L107.0,8.193344686738044 L106.0,7.760934145135087 L105.0,7.317627457812104 L104.0,6.865174153736412 L103.0,6.405359859392932 L102.0,5.9399992517322815 L101.0,5.470928896469846 L100.0,4.999999999999998 L99.0,4.529071103530151 L98.0,4.060000748267715 L97.0,3.5946401406070647 L96.0,3.1348258462635847 L95.0,2.682372542187893 L94.0,2.239065854864916 L93.0,1.8066553132619525 L92.0,1.3868474442371292 L91.0,0.9812990376575215 L90.0,0.5916106078064498 L89.0,0.21932007688482802 L88.0,-0.13410329446516744 L87.0,-0.46726470566059053 L86.0,-0.7788493208184217 L85.0,-1.0676274578121063 L84.0,-1.3324594412651125 L83.0,-1.5723001003289756 L82.0,-1.7862028934951493 L81.0,-1.973323644161887 L80.0,-2.1329238722136523 L79.0,-2.264373708464733 L78.0,-2.3671543804651654 L77.0,-2.4408602598585842 L76.0,-2.4852004632120366 L75.0,-2.5 L74.0,-2.4852004632120366 L73.0,-2.4408602598585833 L72.0,-2.3671543804651654 L71.0,-2.264373708464734 L70.0,-2.1329238722136514 L69.0,-1.9733236441618862 L68.0,-1.7862028934951484 L67.0,-1.5723001003289765 L66.0,-1.3324594412651152 L65.0,-1.0676274578121054 L64.0,-0.77884932081842 L63.0,-0.467264705660587 L62.0,-0.134103294465163 L61.0,0.21932007688482802 L60.0,0.5916106078064551 L59.0,0.9812990376575268 L58.0,1.3868474442371346 L57.0,1.8066553132619578 L56.0,2.239065854864916 L55.0,2.6823725421878954 L54.0,3.134825846263591 L53.0,3.5946401406070643 L52.0,4.060000748267718 L51.0,4.52907110353015 L50.0,5.000000000000001 L49.0,5.470928896469852 L48.0,5.939999251732284 L47.0,6.405359859392934 L46.0,6.865174153736414 L45.0,7.317627457812106 L44.0,7.760934145135086 L43.0,8.193344686738047 L42.0,8.613152555762865 L41.0,9.018700962342479 L40.0,9.408389392193548 L39.0,9.780679923115173 L38.0,10.134103294465167 L37.0,10.467264705660586 L36.0,10.77884932081842 L35.0,11.067627457812106 L34.0,11.332459441265112 L33.0,11.572300100328976 L32.0,11.786202893495146 L31.0,11.973323644161887 L30.0,12.132923872213652 L29.0,12.264373708464733 L28.0,12.367154380465166 L27.0,12.440860259858585 L26.0,12.485200463212037 L25.0,12.5 L24.0,12.485200463212037 L23.0,12.440860259858583 L22.0,12.367154380465164 L21.0,12.264373708464733 L20.0,12.132923872213652 L19.0,11.973323644161885 L18.0,11.786202893495147 L17.0,11.572300100328977 L16.0,11.332459441265113 L15.0,11.067627457812105 L14.0,10.77884932081842 L13.0,10.467264705660586 L12.0,10.134103294465165 L11.0,9.780679923115173 L10.0,9.408389392193548 L9.0,9.018700962342475 L8.0,8.613152555762865 L7.0,8.193344686738044 L6.0,7.760934145135084 L5.0,7.317627457812105 L4.0,6.865174153736411 L3.0,6.405359859392934 L2.0,5.9399992517322815 L1.0,5.47092889646985 L0.0,5.0" fill="#FFFFFF"  />
<!-- Path -->
<path d="M0.0,0.0 L1.0,0.4709288964698503 L2.0,0.9399992517322819 L3.0,1.4053598593929344 L4.0,1.865174153736411 L5.0,2.3176274578121054 L6.0,2.760934145135084 L7.0,3.193344686738045 L8.0,3.613152555762865 L9.0,4.018700962342475 L10.0,4.408389392193548 L11.0,4.780679923115172 L12.0,5.134103294465165 L13.0,5.467264705660587 L14.0,5.778849320818419 L15.0,6.067627457812105 L16.0,6.332459441265113 L17.0,6.572300100328977 L18.0,6.786202893495147 L19.0,6.973323644161885 L20.0,7.132923872213651 L21.0,7.264373708464733 L22.0,7.3671543804651645 L23.0,7.440860259858583 L24.0,7.485200463212037 L25.0,7.5 L26.0,7.485200463212037 L27.0,7.440860259858584 L28.0,7.367154380465165 L29.0,7.264373708464733 L30.0,7.132923872213652 L31.0,6.973323644161886 L32.0,6.786202893495146 L33.0,6.572300100328976 L34.0,6.3324594412651125 L35.0,6.067627457812106 L36.0,5.778849320818419 L37.0,5.467264705660586 L38.0,5.134103294465167 L39.0,4.780679923115174 L40.0,4.408389392193549 L41.0,4.018700962342478 L42.0,3.613152555762864 L43.0,3.1933446867380466 L44.0,2.760934145135086 L45.0,2.3176274578121063 L46.0,1.8651741537364144 L47.0,1.4053598593929344 L48.0,0.939999251732284 L49.0,0.47092889646985187 L50.0,9.18485099360515e-16 L51.0,-0.4709288964698501 L52.0,-0.9399992517322822 L53.0,-1.4053598593929357 L54.0,-1.8651741537364093 L55.0,-2.3176274578121046 L56.0,-2.760934145135084 L57.0,-3.193344686738042 L58.0,-3.6131525557628654 L59.0,-4.018700962342473 L60.0,-4.408389392193545 L61.0,-4.780679923115172 L62.0,-5.134103294465163 L63.0,-5.467264705660587 L64.0,-5.77884932081842 L65.0,-6.067627457812105 L66.0,-6.332459441265115 L67.0,-6.5723001003289765 L68.0,-6.786202893495148 L69.0,-6.973323644161886 L70.0,-7.132923872213651 L71.0,-7.264373708464734 L72.0,-7.367154380465165 L73.0,-7.440860259858583 L74.0,-7.485200463212037 L75.0,-7.5 L76.0,-7.485200463212037 L77.0,-7.440860259858584 L78.0,-7.367154380465165 L79.0,-7.264373708464733 L80.0,-7.132923872213652 L81.0,-6.973323644161887 L82.0,-6.786202893495149 L83.0,-6.572300100328976 L84.0,-6.3324594412651125 L85.0,-6.067627457812106 L86.0,-5.778849320818422 L87.0,-5.4672647056605905 L88.0,-5.1341032944651674 L89.0,-4.780679923115172 L90.0,-4.40838939219355 L91.0,-4.0187009623424785 L92.0,-3.6131525557628708 L93.0,-3.1933446867380475 L94.0,-2.760934145135084 L95.0,-2.317627457812107 L96.0,-1.865174153736415 L97.0,-1.405359859392935 L98.0,-0.9399992517322848 L99.0,-0.4709288964698495 L100.0,-1.83697019872103e-15 L101.0,0.4709288964698458 L102.0,0.9399992517322813 L103.0,1.4053598593929315 L104.0,1.8651741537364115 L105.0,2.3176274578121037 L106.0,2.7609341451350864 L107.0,3.193344686738044 L108.0,3.6131525557628614 L109.0,4.01870096234247 L110.0,4.408389392193547 L111.0,4.780679923115175 L112.0,5.134103294465165 L113.0,5.467264705660584 L114.0,5.7788493208184155 L115.0,6.067627457812108 L116.0,6.332459441265114 L117.0,6.5723001003289765 L118.0,6.786202893495145 L119.0,6.9733236441618835 L120.0,7.132923872213649 L121.0,7.264373708464734 L122.0,7.3671543804651645 L123.0,7.440860259858583 L124.0,7.485200463212037 L125.0,7.5 L126.0,7.485200463212037 L127.0,7.440860259858584 L128.0,7.3671543804651645 L129.0,7.264373708464733 L130.0,7.132923872213652 L131.0,6.973323644161888 L132.0,6.786202893495144 L133.0,6.572300100328976 L134.0,6.332459441265113 L135.0,6.067627457812106 L136.0,5.778849320818415 L137.0,5.4672647056605825 L138.0,5.134103294465163 L139.0,4.780679923115173 L140.0,4.40838939219355 L141.0,4.018700962342479 L142.0,3.61315255576286 L143.0,3.1933446867380426 L144.0,2.7609341451350846 L145.0,2.3176274578121085 L146.0,1.8651741537364162 L147.0,1.4053598593929295 L148.0,0.9399992517322793 L149.0,0.4709288964698504 L150.0,2.7554552980815444e-15 L151.0,-0.47092889646984487 L152.0,-0.9399992517322738 L153.0,-1.4053598593929373 L154.0,-1.8651741537364108 L155.0,-2.3176274578121028 L156.0,-2.7609341451350793 L157.0,-3.1933446867380373 L158.0,-3.6131525557628668 L159.0,-4.018700962342474 L160.0,-4.408389392193546 L161.0,-4.780679923115168 L162.0,-5.134103294465159 L163.0,-5.467264705660579 L164.0,-5.77884932081841 L165.0,-6.067627457812096 L166.0,-6.332459441265117 L167.0,-6.572300100328979 L168.0,-6.7862028934951475 L169.0,-6.973323644161885 L170.0,-7.1329238722136505 L171.0,-7.264373708464732 L172.0,-7.367154380465164 L173.0,-7.4408602598585825 L174.0,-7.485200463212036 L175.0,-7.5 L176.0,-7.485200463212037 L177.0,-7.440860259858583 L178.0,-7.3671543804651645 L179.0,-7.264373708464734 L180.0,-7.132923872213653 L181.0,-6.973323644161888 L182.0,-6.78620289349515 L183.0,-6.572300100328983 L184.0,-6.3324594412651205 L185.0,-6.067627457812107 L186.0,-5.7788493208184235 L187.0,-5.467264705660583 L188.0,-5.134103294465164 L189.0,-4.780679923115173 L190.0,-4.408389392193551 L191.0,-4.01870096234248 L192.0,-3.6131525557628725 L193.0,-3.1933446867380555 L194.0,-2.7609341451350855 L195.0,-2.317627457812109 L196.0,-1.865174153736417 L197.0,-1.4053598593929435 L198.0,-0.93999925173228 L199.0,-0.47092889646985137 L200.0,-3.67394039744206e-15 L201.0,0.4709288964698439 L202.0,0.9399992517322728 L203.0,1.4053598593929364 L204.0,1.86517415373641 L205.0,2.3176274578121023 L206.0,2.7609341451350784 L207.0,3.193344686738037 L208.0,3.613152555762866 L209.0,4.018700962342473 L210.0,4.408389392193545 L211.0,4.780679923115168 L212.0,5.134103294465168 L213.0,5.467264705660588 L214.0,5.778849320818418 L215.0,6.067627457812104 L216.0,6.33245944126511 L217.0,6.572300100328973 L218.0,6.786202893495141 L219.0,6.973323644161885 L220.0,7.1329238722136505 L221.0,7.264373708464735 L222.0,7.367154380465166 L223.0,7.440860259858584 L224.0,7.485200463212037 L225.0,7.5 L226.0,7.4852004632120375 L227.0,7.440860259858585 L228.0,7.367154380465167 L229.0,7.2643737084647375 L230.0,7.132923872213649 L231.0,6.9733236441618835 L232.0,6.786202893495145 L233.0,6.5723001003289765 L234.0,6.332459441265114 L235.0,6.067627457812108 L236.0,5.7788493208184235 L237.0,5.467264705660593 L238.0,5.134103294465174 L239.0,4.780679923115184 L240.0,4.408389392193563 L241.0,4.018700962342469 L242.0,3.6131525557628614 L243.0,3.193344686738044 L244.0,2.7609341451350864 L245.0,2.31762745781211 L246.0,1.865174153736418 L247.0,1.4053598593929446 L248.0,0.9399992517322943 L249.0,0.4709288964698655 L250.0,1.7915101792304453e-14 L251.0,-0.47092889646985636 L252.0,-0.9399992517322853 L253.0,-1.4053598593929353 L254.0,-1.8651741537364088 L255.0,-2.317627457812114 L256.0,-2.7609341451350904 L257.0,-3.193344686738048 L258.0,-3.613152555762865 L259.0,-4.018700962342472 L260.0,-4.408389392193544 L261.0,-4.7806799231151675 L262.0,-5.134103294465158 L263.0,-5.467264705660596 L264.0,-5.778849320818426 L265.0,-6.067627457812111 L266.0,-6.332459441265116 L267.0,-6.572300100328978 L268.0,-6.786202893495147 L269.0,-6.973323644161885 L270.0,-7.1329238722136505 L271.0,-7.264373708464731 L272.0,-7.367154380465168 L273.0,-7.440860259858586 L274.0,-7.4852004632120375 L275.0,-7.5 L276.0,-7.485200463212037 L277.0,-7.440860259858583 L278.0,-7.367154380465165 L279.0,-7.264373708464734 L280.0,-7.132923872213653 L281.0,-6.973323644161889 L282.0,-6.786202893495151 L283.0,-6.57230010032897 L284.0,-6.332459441265107 L285.0,-6.067627457812101 L286.0,-5.778849320818416 L287.0,-5.467264705660585 L288.0,-5.134103294465166 L289.0,-4.780679923115175 L290.0,-4.408389392193553 L291.0,-4.018700962342481 L292.0,-3.6131525557628743 L293.0,-3.193344686738057 L294.0,-2.760934145135075 L295.0,-2.317627457812098 L296.0,-1.8651741537364057 L297.0,-1.4053598593929322 L298.0,-0.9399992517322819 L299.0,-0.47092889646985314 L300.0,-5.510910596163089e-15 L301.0,0.4709288964698422 L302.0,0.9399992517322711 L303.0,1.4053598593929213 L304.0,1.865174153736395 L305.0,2.317627457812113 L306.0,2.7609341451350895 L307.0,3.193344686738047 L308.0,3.613152555762864 L309.0,4.018700962342472 L310.0,4.408389392193543 L311.0,4.780679923115167 L312.0,5.134103294465157 L313.0,5.467264705660576 L314.0,5.778849320818408 L315.0,6.06762745781211 L316.0,6.332459441265115 L317.0,6.572300100328977 L318.0,6.786202893495146 L319.0,6.973323644161884 L320.0,7.13292387221365 L321.0,7.264373708464731 L322.0,7.367154380465163 L323.0,7.4408602598585825 L324.0,7.485200463212036 L325.0,7.5 L326.0,7.485200463212038 L327.0,7.440860259858583 L328.0,7.367154380465171 L329.0,7.264373708464734 L330.0,7.132923872213662 L331.0,6.973323644161889 L332.0,6.78620289349514 L333.0,6.572300100328984 L334.0,6.332459441265108 L335.0,6.067627457812118 L336.0,5.778849320818416 L337.0,5.467264705660603 L338.0,5.134103294465166 L339.0,4.780679923115196 L340.0,4.408389392193554 L341.0,4.018700962342505 L342.0,3.6131525557628748 L343.0,3.1933446867380337 L344.0,2.7609341451351006 L345.0,2.3176274578120992 L346.0,1.8651741537364326 L347.0,1.405359859392933 L348.0,0.9399992517323095 L349.0,0.47092889646985403 L350.0,3.3074748286527365e-14 L351.0,-0.47092889646984126 L352.0,-0.9399992517322701 L353.0,-1.4053598593929206 L354.0,-1.8651741537364201 L355.0,-2.317627457812087 L356.0,-2.7609341451350886 L357.0,-3.193344686738022 L358.0,-3.6131525557628636 L359.0,-4.018700962342449 L360.0,-4.408389392193543 L361.0,-4.780679923115166 L362.0,-5.134103294465156 L363.0,-5.467264705660595 L364.0,-5.7788493208184075 L365.0,-6.067627457812109 L366.0,-6.332459441265101 L367.0,-6.572300100328977 L368.0,-6.786202893495134 L369.0,-6.973323644161884 L370.0,-7.13292387221365 L371.0,-7.264373708464731 L372.0,-7.367154380465163 L373.0,-7.440860259858582 L374.0,-7.4852004632120375 L375.0,-7.5 L376.0,-7.485200463212037 L377.0,-7.440860259858587 L378.0,-7.367154380465165 L379.0,-7.264373708464735 L380.0,-7.132923872213654 L381.0,-6.973323644161889 L382.0,-6.786202893495152 L383.0,-6.5723001003289845 L384.0,-6.332459441265122 L385.0,-6.067627457812102 L386.0,-5.778849320818434 L387.0,-5.467264705660586 L388.0,-5.134103294465167 L389.0,-4.780679923115176 L390.0,-4.408389392193555 L391.0,-4.018700962342483 L392.0,-3.6131525557628756 L393.0,-3.1933446867380586 L394.0,-2.7609341451351015 L395.0,-2.3176274578121254 L396.0,-1.8651741537364077 L397.0,-1.4053598593929342 L398.0,-0.9399992517322838 L399.0,-0.470928896469855 L400.0,-7.34788079488412e-15" stroke-width="5" stroke-linecap="round" stroke="#000000" fill="none"  />
<!-- Path -->
<path d="M400.0,4.999999999999993 L399.0,4.529071103530145 L398.0,4.060000748267716 L397.0,3.5946401406070656 L396.0,3.1348258462635923 L395.0,2.6823725421878746 L394.0,2.2390658548648985 L393.0,1.8066553132619414 L392.0,1.3868474442371244 L391.0,0.981299037657517 L390.0,0.5916106078064454 L389.0,0.21932007688482358 L388.0,-0.13410329446516656 L387.0,-0.4672647056605861 L386.0,-0.7788493208184342 L385.0,-1.0676274578121019 L384.0,-1.3324594412651223 L383.0,-1.5723001003289845 L382.0,-1.786202893495152 L381.0,-1.9733236441618889 L380.0,-2.132923872213654 L379.0,-2.264373708464735 L378.0,-2.3671543804651654 L377.0,-2.440860259858587 L376.0,-2.4852004632120366 L375.0,-2.5 L374.0,-2.4852004632120375 L373.0,-2.4408602598585816 L372.0,-2.3671543804651627 L371.0,-2.2643737084647313 L370.0,-2.1329238722136497 L369.0,-1.9733236441618844 L368.0,-1.7862028934951342 L367.0,-1.5723001003289774 L366.0,-1.332459441265101 L365.0,-1.067627457812109 L364.0,-0.7788493208184075 L363.0,-0.46726470566059497 L362.0,-0.1341032944651559 L361.0,0.21932007688483424 L360.0,0.5916106078064569 L359.0,0.9812990376575508 L358.0,1.3868474442371364 L357.0,1.8066553132619778 L356.0,2.2390658548649114 L355.0,2.682372542187913 L354.0,3.13482584626358 L353.0,3.5946401406070794 L352.0,4.06000074826773 L351.0,4.529071103530159 L350.0,5.000000000000033 L349.0,5.470928896469854 L348.0,5.93999925173231 L347.0,6.405359859392933 L346.0,6.865174153736433 L345.0,7.317627457812099 L344.0,7.760934145135101 L343.0,8.193344686738033 L342.0,8.613152555762875 L341.0,9.018700962342505 L340.0,9.408389392193554 L339.0,9.780679923115196 L338.0,10.134103294465167 L337.0,10.467264705660604 L336.0,10.778849320818416 L335.0,11.067627457812119 L334.0,11.332459441265108 L333.0,11.572300100328984 L332.0,11.78620289349514 L331.0,11.973323644161889 L330.0,12.132923872213663 L329.0,12.264373708464735 L328.0,12.36715438046517 L327.0,12.440860259858583 L326.0,12.485200463212038 L325.0,12.5 L324.0,12.485200463212035 L323.0,12.440860259858582 L322.0,12.367154380465163 L321.0,12.264373708464731 L320.0,12.132923872213649 L319.0,11.973323644161884 L318.0,11.786202893495146 L317.0,11.572300100328977 L316.0,11.332459441265115 L315.0,11.06762745781211 L314.0,10.77884932081841 L313.0,10.467264705660575 L312.0,10.134103294465156 L311.0,9.780679923115166 L310.0,9.408389392193543 L309.0,9.018700962342471 L308.0,8.613152555762865 L307.0,8.193344686738047 L306.0,7.7609341451350895 L305.0,7.317627457812113 L304.0,6.865174153736395 L303.0,6.405359859392921 L302.0,5.939999251732271 L301.0,5.470928896469842 L300.0,4.999999999999995 L299.0,4.529071103530147 L298.0,4.0600007482677185 L297.0,3.594640140607068 L296.0,3.1348258462635945 L295.0,2.682372542187902 L294.0,2.239065854864925 L293.0,1.8066553132619432 L292.0,1.3868474442371257 L291.0,0.9812990376575188 L290.0,0.5916106078064471 L289.0,0.21932007688482535 L288.0,-0.13410329446516567 L287.0,-0.4672647056605852 L286.0,-0.7788493208184164 L285.0,-1.067627457812101 L284.0,-1.3324594412651072 L283.0,-1.5723001003289703 L282.0,-1.786202893495151 L281.0,-1.9733236441618889 L280.0,-2.132923872213653 L279.0,-2.264373708464734 L278.0,-2.3671543804651654 L277.0,-2.4408602598585833 L276.0,-2.4852004632120366 L275.0,-2.5 L274.0,-2.4852004632120375 L273.0,-2.440860259858586 L272.0,-2.367154380465168 L271.0,-2.2643737084647313 L270.0,-2.1329238722136505 L269.0,-1.9733236441618853 L268.0,-1.7862028934951466 L267.0,-1.5723001003289783 L266.0,-1.332459441265116 L265.0,-1.0676274578121108 L264.0,-0.7788493208184262 L263.0,-0.46726470566059586 L262.0,-0.13410329446515767 L261.0,0.21932007688483246 L260.0,0.591610607806456 L259.0,0.9812990376575277 L258.0,1.386847444237135 L257.0,1.806655313261952 L256.0,2.2390658548649096 L255.0,2.682372542187886 L254.0,3.134825846263591 L253.0,3.5946401406070647 L252.0,4.060000748267715 L251.0,4.529071103530144 L250.0,5.000000000000018 L249.0,5.470928896469865 L248.0,5.939999251732294 L247.0,6.405359859392945 L246.0,6.865174153736418 L245.0,7.31762745781211 L244.0,7.760934145135087 L243.0,8.193344686738044 L242.0,8.613152555762861 L241.0,9.018700962342468 L240.0,9.408389392193563 L239.0,9.780679923115184 L238.0,10.134103294465174 L237.0,10.467264705660593 L236.0,10.778849320818424 L235.0,11.067627457812108 L234.0,11.332459441265115 L233.0,11.572300100328977 L232.0,11.786202893495144 L231.0,11.973323644161884 L230.0,12.132923872213649 L229.0,12.264373708464738 L228.0,12.367154380465166 L227.0,12.440860259858585 L226.0,12.485200463212038 L225.0,12.5 L224.0,12.485200463212037 L223.0,12.440860259858585 L222.0,12.367154380465166 L221.0,12.264373708464735 L220.0,12.13292387221365 L219.0,11.973323644161885 L218.0,11.78620289349514 L217.0,11.572300100328974 L216.0,11.33245944126511 L215.0,11.067627457812105 L214.0,10.778849320818418 L213.0,10.467264705660588 L212.0,10.134103294465168 L211.0,9.78067992311517 L210.0,9.408389392193545 L209.0,9.018700962342473 L208.0,8.613152555762866 L207.0,8.193344686738037 L206.0,7.760934145135078 L205.0,7.317627457812103 L204.0,6.86517415373641 L203.0,6.405359859392936 L202.0,5.939999251732273 L201.0,5.470928896469844 L200.0,4.9999999999999964 L199.0,4.529071103530149 L198.0,4.06000074826772 L197.0,3.5946401406070567 L196.0,3.134825846263583 L195.0,2.682372542187891 L194.0,2.2390658548649145 L193.0,1.8066553132619445 L192.0,1.3868474442371275 L191.0,0.9812990376575197 L190.0,0.5916106078064489 L189.0,0.21932007688482713 L188.0,-0.1341032944651639 L187.0,-0.4672647056605834 L186.0,-0.7788493208184235 L185.0,-1.0676274578121072 L184.0,-1.3324594412651205 L183.0,-1.5723001003289827 L182.0,-1.7862028934951502 L181.0,-1.973323644161888 L180.0,-2.132923872213653 L179.0,-2.264373708464734 L178.0,-2.3671543804651645 L177.0,-2.4408602598585833 L176.0,-2.4852004632120366 L175.0,-2.5 L174.0,-2.4852004632120357 L173.0,-2.4408602598585825 L172.0,-2.3671543804651636 L171.0,-2.264373708464732 L170.0,-2.1329238722136505 L169.0,-1.9733236441618853 L168.0,-1.7862028934951475 L167.0,-1.5723001003289792 L166.0,-1.332459441265117 L165.0,-1.0676274578120957 L164.0,-0.7788493208184102 L163.0,-0.467264705660579 L162.0,-0.13410329446515856 L161.0,0.21932007688483157 L160.0,0.5916106078064542 L159.0,0.9812990376575259 L158.0,1.3868474442371332 L157.0,1.8066553132619627 L156.0,2.2390658548649207 L155.0,2.6823725421878972 L154.0,3.134825846263589 L153.0,3.594640140607063 L152.0,4.0600007482677265 L151.0,4.529071103530155 L150.0,5.000000000000003 L149.0,5.47092889646985 L148.0,5.93999925173228 L147.0,6.405359859392929 L146.0,6.865174153736416 L145.0,7.317627457812108 L144.0,7.760934145135085 L143.0,8.193344686738042 L142.0,8.61315255576286 L141.0,9.018700962342479 L140.0,9.40838939219355 L139.0,9.780679923115173 L138.0,10.134103294465163 L137.0,10.467264705660583 L136.0,10.778849320818415 L135.0,11.067627457812106 L134.0,11.332459441265113 L133.0,11.572300100328976 L132.0,11.786202893495144 L131.0,11.973323644161887 L130.0,12.132923872213652 L129.0,12.264373708464733 L128.0,12.367154380465164 L127.0,12.440860259858585 L126.0,12.485200463212037 L125.0,12.5 L124.0,12.485200463212037 L123.0,12.440860259858583 L122.0,12.367154380465164 L121.0,12.264373708464735 L120.0,12.132923872213649 L119.0,11.973323644161884 L118.0,11.786202893495144 L117.0,11.572300100328977 L116.0,11.332459441265115 L115.0,11.067627457812108 L114.0,10.778849320818416 L113.0,10.467264705660584 L112.0,10.134103294465165 L111.0,9.780679923115175 L110.0,9.408389392193547 L109.0,9.01870096234247 L108.0,8.613152555762861 L107.0,8.193344686738044 L106.0,7.760934145135087 L105.0,7.317627457812104 L104.0,6.865174153736412 L103.0,6.405359859392932 L102.0,5.9399992517322815 L101.0,5.470928896469846 L100.0,4.999999999999998 L99.0,4.529071103530151 L98.0,4.060000748267715 L97.0,3.5946401406070647 L96.0,3.1348258462635847 L95.0,2.682372542187893 L94.0,2.239065854864916 L93.0,1.8066553132619525 L92.0,1.3868474442371292 L91.0,0.9812990376575215 L90.0,0.5916106078064498 L89.0,0.21932007688482802 L88.0,-0.13410329446516744 L87.0,-0.46726470566059053 L86.0,-0.7788493208184217 L85.0,-1.0676274578121063 L84.0,-1.3324594412651125 L83.0,-1.5723001003289756 L82.0,-1.7862028934951493 L81.0,-1.973323644161887 L80.0,-2.1329238722136523 L79.0,-2.264373708464733 L78.0,-2.3671543804651654 L77.0,-2.4408602598585842 L76.0,-2.4852004632120366 L75.0,-2.5 L74.0,-2.4852004632120366 L73.0,-2.4408602598585833 L72.0,-2.3671543804651654 L71.0,-2.264373708464734 L70.0,-2.1329238722136514 L69.0,-1.9733236441618862 L68.0,-1.7862028934951484 L67.0,-1.5723001003289765 L66.0,-1.3324594412651152 L65.0,-1.0676274578121054 L64.0,-0.77884932081842 L63.0,-0.467264705660587 L62.0,-0.134103294465163 L61.0,0.21932007688482802 L60.0,0.5916106078064551 L59.0,0.9812990376575268 L58.0,1.3868474442371346 L57.0,1.8066553132619578 L56.0,2.239065854864916 L55.0,2.6823725421878954 L54.0,3.134825846263591 L53.0,3.5946401406070643 L52.0,4.060000748267718 L51.0,4.52907110353015 L50.0,5.000000000000001 L49.0,5.470928896469852 L48.0,5.939999251732284 L47.0,6.405359859392934 L46.0,6.865174153736414 L45.0,7.317627457812106 L44.0,7.760934145135086 L43.0,8.193344686738047 L42.0,8.613152555762865 L41.0,9.018700962342479 L40.0,9.408389392193548 L39.0,9.780679923115173 L38.0,10.134103294465167 L37.0,10.467264705660586 L36.0,10.77884932081842 L35.0,11.067627457812106 L34.0,11.332459441265112 L33.0,11.572300100328976 L32.0,11.786202893495146 L31.0,11.973323644161887 L30.0,12.132923872213652 L29.0,12.264373708464733 L28.0,12.367154380465166 L27.0,12.440860259858585 L26.0,12.485200463212037 L25.0,12.5 L24.0,12.485200463212037 L23.0,12.440860259858583 L22.0,12.367154380465164 L21.0,12.264373708464733 L20.0,12.132923872213652 L19.0,11.973323644161885 L18.0,11.786202893495147 L17.0,11.572300100328977 L16.0,11.332459441265113 L15.0,11.067627457812105 L14.0,10.77884932081842 L13.0,10.467264705660586 L12.0,10.134103294465165 L11.0,9.780679923115173 L10.0,9.408389392193548 L9.0,9.018700962342475 L8.0,8.613152555762865 L7.0,8.193344686738044 L6.0,7.760934145135084 L5.0,7.317627457812105 L4.0,6.865174153736411 L3.0,6.405359859392934 L2.0,5.9399992517322815 L1.0,5.47092889646985 L0.0,5.0" stroke-width="5" stroke-linecap="round" stroke="#000000" fill="none"  />
<!-- Footer -->
</svg>
