<!-- Header -->
<svg
    version="1.1"
    baseProfile="full"
    xmlns="http://www.w3.org/2000/svg"
    xmlns:xlink="http://www.w3.org/1999/xlink"
    xmlns:ev="http://www.w3.org/2001/xml-events"
    width="400.0"
    height="20.0"
    viewBox="-0.5 -8.0 401.0 21.0"
    preserveAspectRatio="none"
>
<!-- Body -->
<!-- Path -->
<path d="M0.0,0.0 L1.0,0.588443217958837 L2.0,1.1732584878017316 L3.0,1.7508402289192904 L4.0,2.3176274578121054 L5.0,2.8701257427381734 L6.0,3.4049287480466006 L7.0,3.9187392353696158 L8.0,4.408389392193548 L9.0,4.870860362476377 L10.0,5.303300858899106 L11.0,5.703044742000232 L12.0,6.067627457812106 L13.0,6.394801232655691 L14.0,6.682548931412758 L15.0,6.92909649383465 L16.0,7.132923872213651 L17.0,7.292774402982575 L18.0,7.407662554463533 L19.0,7.47688000299846 L20.0,7.5 L21.0,7.47688000299846 L22.0,7.407662554463533 L23.0,7.292774402982575 L24.0,7.132923872213652 L25.0,6.929096493834651 L26.0,6.682548931412759 L27.0,6.394801232655692 L28.0,6.067627457812106 L29.0,5.703044742000232 L30.0,5.303300858899109 L31.0,4.870860362476378 L32.0,4.408389392193549 L33.0,3.9187392353696144 L34.0,3.4049287480465984 L35.0,2.8701257427381743 L36.0,2.3176274578121063 L37.0,1.7508402289192881 L38.0,1.1732584878017323 L39.0,0.588443217958838 L40.0,9.18485099360515e-16 L41.0,-0.5884432179588328 L42.0,-1.1732584878017305 L43.0,-1.7508402289192864 L44.0,-2.3176274578121046 L45.0,-2.8701257427381726 L46.0,-3.404928748046597 L47.0,-3.9187392353696184 L48.0,-4.4083893921935475 L49.0,-4.870860362476376 L50.0,-5.303300858899106 L51.0,-5.703044742000234 L52.0,-6.067627457812105 L53.0,-6.394801232655693 L54.0,-6.682548931412758 L55.0,-6.929096493834649 L56.0,-7.132923872213651 L57.0,-7.292774402982573 L58.0,-7.407662554463532 L59.0,-7.47688000299846 L60.0,-7.5 L61.0,-7.47688000299846 L62.0,-7.407662554463533 L63.0,-7.292774402982574 L64.0,-7.132923872213652 L65.0,-6.92909649383465 L66.0,-6.682548931412756 L67.0,-6.3948012326556904 L68.0,-6.067627457812103 L69.0,-5.703044742000231 L70.0,-5.3033008588991075 L71.0,-4.8708603624763755 L72.0,-4.40838939219355 L73.0,-3.918739235369621 L74.0,-3.4049287480465966 L75.0,-2.870125742738178 L76.0,-2.317627457812107 L77.0,-1.750840228919289 L78.0,-1.1732584878017334 L79.0,-0.5884432179588356 L80.0,-1.83697019872103e-15 L81.0,0.5884432179588319 L82.0,1.173258487801723 L83.0,1.7508402289192986 L84.0,2.3176274578121037 L85.0,2.870125742738175 L86.0,3.404928748046593 L87.0,3.9187392353696118 L88.0,4.408389392193547 L89.0,4.870860362476378 L90.0,5.303300858899105 L91.0,5.703044742000229 L92.0,6.067627457812101 L93.0,6.394801232655689 L94.0,6.682548931412761 L95.0,6.929096493834649 L96.0,7.132923872213651 L97.0,7.292774402982575 L98.0,7.407662554463532 L99.0,7.47688000299846 L100.0,7.5 L101.0,7.476880002998461 L102.0,7.407662554463532 L103.0,7.292774402982576 L104.0,7.132923872213652 L105.0,6.929096493834651 L106.0,6.682548931412756 L107.0,6.394801232655695 L108.0,6.067627457812106 L109.0,5.70304474200024 L110.0,5.303300858899113 L111.0,4.870860362476372 L112.0,4.40838939219355 L113.0,3.9187392353696158 L114.0,3.4049287480466095 L115.0,2.8701257427381663 L116.0,2.3176274578121085 L117.0,1.75084022891929 L118.0,1.1732584878017407 L119.0,0.5884432179588431 L120.0,1.6078131593583422e-14 L121.0,-0.5884432179588376 L122.0,-1.1732584878017354 L123.0,-1.7508402289192846 L124.0,-2.3176274578121028 L125.0,-2.8701257427381615 L126.0,-3.404928748046604 L127.0,-3.918739235369611 L128.0,-4.408389392193546 L129.0,-4.870860362476377 L130.0,-5.303300858899109 L131.0,-5.703044742000228 L132.0,-6.067627457812112 L133.0,-6.394801232655692 L134.0,-6.682548931412761 L135.0,-6.929096493834648 L136.0,-7.132923872213655 L137.0,-7.292774402982574 L138.0,-7.407662554463533 L139.0,-7.476880002998461 L140.0,-7.5 L141.0,-7.476880002998461 L142.0,-7.407662554463532 L143.0,-7.292774402982573 L144.0,-7.132923872213653 L145.0,-6.929096493834651 L146.0,-6.6825489314127635 L147.0,-6.394801232655688 L148.0,-6.0676274578121 L149.0,-5.703044742000232 L150.0,-5.303300858899114 L151.0,-4.870860362476383 L152.0,-4.408389392193551 L153.0,-3.9187392353696167 L154.0,-3.404928748046598 L155.0,-2.8701257427381797 L156.0,-2.317627457812109 L157.0,-1.7508402289193037 L158.0,-1.1732584878017287 L159.0,-0.588443217958844 L160.0,-3.67394039744206e-15 L161.0,0.5884432179588368 L162.0,1.1732584878017214 L163.0,1.7508402289192706 L164.0,2.3176274578120895 L165.0,2.8701257427381606 L166.0,3.4049287480466153 L167.0,3.918739235369622 L168.0,4.408389392193545 L169.0,4.870860362476376 L170.0,5.303300858899108 L171.0,5.703044742000227 L172.0,6.067627457812096 L173.0,6.394801232655684 L174.0,6.682548931412755 L175.0,6.929096493834643 L176.0,7.1329238722136505 L177.0,7.292774402982574 L178.0,7.407662554463533 L179.0,7.476880002998461 L180.0,7.5 L181.0,7.476880002998461 L182.0,7.407662554463535 L183.0,7.292774402982577 L184.0,7.132923872213658 L185.0,6.929096493834652 L186.0,6.682548931412764 L187.0,6.394801232655689 L188.0,6.0676274578121 L189.0,5.703044742000233 L190.0,5.303300858899115 L191.0,4.8708603624763835 L192.0,4.408389392193552 L193.0,3.9187392353696286 L194.0,3.404928748046599 L195.0,2.8701257427381806 L196.0,2.31762745781211 L197.0,1.7508402289193048 L198.0,1.1732584878017294 L199.0,0.588443217958845 L200.0,4.592425496802574e-15 L201.0,-0.5884432179588358 L202.0,-1.1732584878017203 L203.0,-1.750840228919296 L204.0,-2.317627457812114 L205.0,-2.8701257427381597 L206.0,-3.404928748046591 L207.0,-3.9187392353696096 L208.0,-4.408389392193544 L209.0,-4.870860362476376 L210.0,-5.3033008588991075 L211.0,-5.703044742000218 L212.0,-6.067627457812111 L213.0,-6.394801232655698 L214.0,-6.682548931412754 L215.0,-6.929096493834647 L216.0,-7.1329238722136505 L217.0,-7.292774402982574 L218.0,-7.4076625544635295 L219.0,-7.476880002998461 L220.0,-7.5 L221.0,-7.476880002998459 L222.0,-7.40766255446353 L223.0,-7.292774402982577 L224.0,-7.132923872213653 L225.0,-6.929096493834652 L226.0,-6.682548931412758 L227.0,-6.394801232655703 L228.0,-6.067627457812117 L229.0,-5.703044742000242 L230.0,-5.303300858899096 L231.0,-4.870860362476364 L232.0,-4.408389392193553 L233.0,-3.9187392353696184 L234.0,-3.4049287480465997 L235.0,-2.870125742738169 L236.0,-2.317627457812123 L237.0,-1.7508402289193057 L238.0,-1.1732584878017436 L239.0,-0.5884432179588459 L240.0,-3.2156263187166845e-14 L241.0,0.5884432179588349 L242.0,1.1732584878017325 L243.0,1.7508402289192948 L244.0,2.317627457812113 L245.0,2.870125742738159 L246.0,3.40492874804659 L247.0,3.9187392353696087 L248.0,4.408389392193543 L249.0,4.870860362476355 L250.0,5.303300858899089 L251.0,5.703044742000235 L252.0,6.06762745781211 L253.0,6.3948012326556976 L254.0,6.682548931412754 L255.0,6.929096493834657 L256.0,7.13292387221365 L257.0,7.292774402982574 L258.0,7.407662554463533 L259.0,7.47688000299846 L260.0,7.5 L261.0,7.4768800029984614 L262.0,7.407662554463535 L263.0,7.2927744029825705 L264.0,7.132923872213645 L265.0,6.929096493834652 L266.0,6.682548931412758 L267.0,6.39480123265569 L268.0,6.067627457812102 L269.0,5.703044742000225 L270.0,5.3033008588991155 L271.0,4.870860362476385 L272.0,4.4083893921935315 L273.0,3.9187392353695962 L274.0,3.4049287480466006 L275.0,2.87012574273817 L276.0,2.3176274578120992 L277.0,1.7508402289192806 L278.0,1.173258487801718 L279.0,0.5884432179588468 L280.0,6.429395695523604e-15 L281.0,-0.5884432179588339 L282.0,-1.1732584878017054 L283.0,-1.750840228919294 L284.0,-2.317627457812112 L285.0,-2.8701257427381823 L286.0,-3.404928748046613 L287.0,-3.918739235369631 L288.0,-4.408389392193543 L289.0,-4.870860362476375 L290.0,-5.303300858899107 L291.0,-5.703044742000217 L292.0,-6.067627457812094 L293.0,-6.394801232655683 L294.0,-6.682548931412765 L295.0,-6.929096493834657 L296.0,-7.1329238722136585 L297.0,-7.292774402982573 L298.0,-7.407662554463533 L299.0,-7.47688000299846 L300.0,-7.5 L301.0,-7.4768800029984614 L302.0,-7.407662554463535 L303.0,-7.292774402982577 L304.0,-7.132923872213654 L305.0,-6.929096493834642 L306.0,-6.682548931412759 L307.0,-6.3948012326556904 L308.0,-6.067627457812102 L309.0,-5.703044742000243 L310.0,-5.3033008588991155 L311.0,-4.870860362476385 L312.0,-4.408389392193555 L313.0,-3.91873923536962 L314.0,-3.404928748046625 L315.0,-2.870125742738171 L316.0,-2.3176274578121 L317.0,-1.7508402289192815 L318.0,-1.1732584878017454 L319.0,-0.5884432179588477 L320.0,-7.34788079488412e-15 L321.0,0.588443217958833 L322.0,1.173258487801731 L323.0,1.750840228919267 L324.0,2.317627457812086 L325.0,2.870125742738157 L326.0,3.4049287480465646 L327.0,3.9187392353696078 L328.0,4.408389392193521 L329.0,4.870860362476374 L330.0,5.303300858899087 L331.0,5.703044742000234 L332.0,6.067627457812125 L333.0,6.3948012326556825 L334.0,6.682548931412764 L335.0,6.929096493834637 L336.0,7.13292387221365 L337.0,7.292774402982568 L338.0,7.407662554463532 L339.0,7.476880002998458 L340.0,7.5 L341.0,7.476880002998463 L342.0,7.407662554463535 L343.0,7.2927744029825705 L344.0,7.132923872213662 L345.0,6.929096493834653 L346.0,6.6825489314127715 L347.0,6.3948012326556904 L348.0,6.067627457812119 L349.0,5.703044742000226 L350.0,5.303300858899136 L351.0,4.870860362476385 L352.0,4.4083893921935555 L353.0,3.9187392353696433 L354.0,3.4049287480466024 L355.0,2.870125742738196 L356.0,2.317627457812101 L357.0,1.7508402289193084 L358.0,1.1732584878017198 L359.0,0.5884432179588752 L360.0,8.266365894244635e-15 L361.0,-0.5884432179588321 L362.0,-1.1732584878017036 L363.0,-1.7508402289192921 L364.0,-2.317627457812085 L365.0,-2.870125742738181 L366.0,-3.4049287480465877 L367.0,-3.918739235369629 L368.0,-4.40838939219352 L369.0,-4.870860362476373 L370.0,-5.303300858899105 L371.0,-5.703044742000215 L372.0,-6.067627457812092 L373.0,-6.3948012326556825 L374.0,-6.682548931412764 L375.0,-6.929096493834646 L376.0,-7.132923872213658 L377.0,-7.292774402982567 L378.0,-7.407662554463532 L379.0,-7.47688000299846 L380.0,-7.5 L381.0,-7.4768800029984614 L382.0,-7.407662554463536 L383.0,-7.292774402982578 L384.0,-7.132923872213655 L385.0,-6.929096493834642 L386.0,-6.6825489314127715 L387.0,-6.394801232655691 L388.0,-6.067627457812104 L389.0,-5.703044742000245 L390.0,-5.303300858899117 L391.0,-4.870860362476386 L392.0,-4.408389392193556 L393.0,-3.918739235369621 L394.0,-3.404928748046627 L395.0,-2.870125742738197 L396.0,-2.317627457812102 L397.0,-1.7508402289192833 L398.0,-1.1732584878017471 L399.0,-0.5884432179588496 L400.0,-9.184850993605149e-15 L400.0,4.999999999999991 L399.0,4.41155678204115 L398.0,3.826741512198253 L397.0,3.2491597710807167 L396.0,2.682372542187898 L395.0,2.129874257261803 L394.0,1.5950712519533732 L393.0,1.081260764630379 L392.0,0.5916106078064436 L391.0,0.1291396375236138 L390.0,-0.3033008588991173 L389.0,-0.7030447420002446 L388.0,-1.0676274578121037 L387.0,-1.3948012326556913 L386.0,-1.6825489314127715 L385.0,-1.929096493834642 L384.0,-2.132923872213655 L383.0,-2.2927744029825776 L382.0,-2.4076625544635357 L381.0,-2.4768800029984614 L380.0,-2.5 L379.0,-2.4768800029984597 L378.0,-2.407662554463532 L377.0,-2.292774402982567 L376.0,-2.1329238722136576 L375.0,-1.9290964938346464 L374.0,-1.6825489314127644 L373.0,-1.3948012326556825 L372.0,-1.0676274578120921 L371.0,-0.7030447420002153 L370.0,-0.30330085889910485 L369.0,0.12913963752362712 L368.0,0.59161060780648 L367.0,1.081260764630371 L366.0,1.5950712519534123 L365.0,2.129874257261819 L364.0,2.682372542187915 L363.0,3.249159771080708 L362.0,3.8267415121982964 L361.0,4.411556782041168 L360.0,5.000000000000008 L359.0,5.588443217958876 L358.0,6.17325848780172 L357.0,6.750840228919309 L356.0,7.317627457812101 L355.0,7.870125742738196 L354.0,8.404928748046602 L353.0,8.918739235369642 L352.0,9.408389392193556 L351.0,9.870860362476385 L350.0,10.303300858899135 L349.0,10.703044742000227 L348.0,11.067627457812119 L347.0,11.394801232655691 L346.0,11.682548931412772 L345.0,11.929096493834653 L344.0,12.132923872213663 L343.0,12.29277440298257 L342.0,12.407662554463535 L341.0,12.476880002998463 L340.0,12.5 L339.0,12.476880002998458 L338.0,12.407662554463531 L337.0,12.292774402982568 L336.0,12.132923872213649 L335.0,11.929096493834637 L334.0,11.682548931412764 L333.0,11.394801232655682 L332.0,11.067627457812126 L331.0,10.703044742000234 L330.0,10.303300858899087 L329.0,9.870860362476375 L328.0,9.40838939219352 L327.0,8.918739235369607 L326.0,8.404928748046565 L325.0,7.870125742738157 L324.0,7.317627457812086 L323.0,6.750840228919267 L322.0,6.173258487801731 L321.0,5.588443217958833 L320.0,4.999999999999993 L319.0,4.411556782041153 L318.0,3.8267415121982546 L317.0,3.2491597710807185 L316.0,2.6823725421879 L315.0,2.129874257261829 L314.0,1.595071251953375 L313.0,1.0812607646303798 L312.0,0.5916106078064454 L311.0,0.12913963752361468 L310.0,-0.3033008588991155 L309.0,-0.7030447420002428 L308.0,-1.0676274578121019 L307.0,-1.3948012326556904 L306.0,-1.682548931412759 L305.0,-1.929096493834642 L304.0,-2.132923872213654 L303.0,-2.2927744029825767 L302.0,-2.407662554463535 L301.0,-2.4768800029984614 L300.0,-2.5 L299.0,-2.4768800029984597 L298.0,-2.407662554463533 L297.0,-2.292774402982573 L296.0,-2.1329238722136585 L295.0,-1.929096493834657 L294.0,-1.6825489314127653 L293.0,-1.3948012326556833 L292.0,-1.067627457812094 L291.0,-0.703044742000217 L290.0,-0.30330085889910663 L289.0,0.12913963752362534 L288.0,0.5916106078064569 L287.0,1.0812607646303691 L286.0,1.595071251953387 L285.0,2.1298742572618177 L284.0,2.682372542187888 L283.0,3.249159771080706 L282.0,3.8267415121982946 L281.0,4.411556782041166 L280.0,5.000000000000006 L279.0,5.588443217958847 L278.0,6.173258487801718 L277.0,6.75084022891928 L276.0,7.317627457812099 L275.0,7.8701257427381694 L274.0,8.4049287480466 L273.0,8.918739235369596 L272.0,9.40838939219353 L271.0,9.870860362476385 L270.0,10.303300858899116 L269.0,10.703044742000225 L268.0,11.067627457812101 L267.0,11.39480123265569 L266.0,11.682548931412757 L265.0,11.929096493834653 L264.0,12.132923872213645 L263.0,12.29277440298257 L262.0,12.407662554463535 L261.0,12.476880002998461 L260.0,12.5 L259.0,12.47688000299846 L258.0,12.407662554463533 L257.0,12.292774402982573 L256.0,12.132923872213649 L255.0,11.929096493834656 L254.0,11.682548931412754 L253.0,11.394801232655698 L252.0,11.06762745781211 L251.0,10.703044742000234 L250.0,10.303300858899089 L249.0,9.870860362476355 L248.0,9.408389392193543 L247.0,8.918739235369609 L246.0,8.40492874804659 L245.0,7.870125742738159 L244.0,7.317627457812113 L243.0,6.750840228919294 L242.0,6.173258487801732 L241.0,5.588443217958835 L240.0,4.999999999999968 L239.0,4.4115567820411545 L238.0,3.8267415121982564 L237.0,3.249159771080694 L236.0,2.682372542187877 L235.0,2.129874257261831 L234.0,1.5950712519534003 L233.0,1.0812607646303816 L232.0,0.5916106078064471 L231.0,0.129139637523636 L230.0,-0.30330085889909597 L229.0,-0.7030447420002419 L228.0,-1.067627457812117 L227.0,-1.3948012326557029 L226.0,-1.6825489314127582 L225.0,-1.9290964938346518 L224.0,-2.132923872213653 L223.0,-2.2927744029825767 L222.0,-2.4076625544635304 L221.0,-2.476880002998459 L220.0,-2.5 L219.0,-2.4768800029984606 L218.0,-2.4076625544635295 L217.0,-2.292774402982574 L216.0,-2.1329238722136505 L215.0,-1.9290964938346473 L214.0,-1.6825489314127537 L213.0,-1.3948012326556984 L212.0,-1.0676274578121108 L211.0,-0.7030447420002179 L210.0,-0.3033008588991075 L209.0,0.12913963752362356 L208.0,0.591610607806456 L207.0,1.0812607646303904 L206.0,1.5950712519534092 L205.0,2.1298742572618403 L204.0,2.682372542187886 L203.0,3.249159771080704 L202.0,3.8267415121982795 L201.0,4.411556782041164 L200.0,5.000000000000004 L199.0,5.5884432179588455 L198.0,6.173258487801729 L197.0,6.750840228919305 L196.0,7.31762745781211 L195.0,7.87012574273818 L194.0,8.404928748046599 L193.0,8.918739235369628 L192.0,9.408389392193552 L191.0,9.870860362476384 L190.0,10.303300858899114 L189.0,10.703044742000234 L188.0,11.067627457812101 L187.0,11.394801232655688 L186.0,11.682548931412764 L185.0,11.929096493834653 L184.0,12.132923872213658 L183.0,12.292774402982577 L182.0,12.407662554463535 L181.0,12.47688000299846 L180.0,12.5 L179.0,12.47688000299846 L178.0,12.407662554463533 L177.0,12.292774402982573 L176.0,12.13292387221365 L175.0,11.929096493834642 L174.0,11.682548931412754 L173.0,11.394801232655684 L172.0,11.067627457812096 L171.0,10.703044742000227 L170.0,10.303300858899108 L169.0,9.870860362476376 L168.0,9.408389392193545 L167.0,8.918739235369621 L166.0,8.404928748046615 L165.0,7.870125742738161 L164.0,7.3176274578120895 L163.0,6.75084022891927 L162.0,6.173258487801721 L161.0,5.588443217958837 L160.0,4.9999999999999964 L159.0,4.411556782041156 L158.0,3.8267415121982715 L157.0,3.2491597710806963 L156.0,2.682372542187891 L155.0,2.1298742572618203 L154.0,1.595071251953402 L153.0,1.0812607646303833 L152.0,0.5916106078064489 L151.0,0.12913963752361735 L150.0,-0.30330085889911373 L149.0,-0.7030447420002321 L148.0,-1.0676274578121001 L147.0,-1.3948012326556878 L146.0,-1.6825489314127635 L145.0,-1.9290964938346509 L144.0,-2.132923872213653 L143.0,-2.292774402982573 L142.0,-2.407662554463532 L141.0,-2.4768800029984606 L140.0,-2.5 L139.0,-2.4768800029984606 L138.0,-2.407662554463533 L137.0,-2.292774402982574 L136.0,-2.132923872213655 L135.0,-1.9290964938346482 L134.0,-1.6825489314127609 L133.0,-1.3948012326556922 L132.0,-1.0676274578121117 L131.0,-0.7030447420002277 L130.0,-0.3033008588991093 L129.0,0.12913963752362267 L128.0,0.5916106078064542 L127.0,1.0812607646303891 L126.0,1.5950712519533958 L125.0,2.1298742572618385 L124.0,2.6823725421878972 L123.0,3.2491597710807154 L122.0,3.8267415121982644 L121.0,4.4115567820411625 L120.0,5.000000000000016 L119.0,5.588443217958843 L118.0,6.173258487801741 L117.0,6.75084022891929 L116.0,7.317627457812108 L115.0,7.870125742738166 L114.0,8.40492874804661 L113.0,8.918739235369616 L112.0,9.40838939219355 L111.0,9.870860362476371 L110.0,10.303300858899114 L109.0,10.703044742000241 L108.0,11.067627457812106 L107.0,11.394801232655695 L106.0,11.682548931412757 L105.0,11.92909649383465 L104.0,12.132923872213652 L103.0,12.292774402982577 L102.0,12.407662554463531 L101.0,12.47688000299846 L100.0,12.5 L99.0,12.47688000299846 L98.0,12.407662554463531 L97.0,12.292774402982575 L96.0,12.132923872213652 L95.0,11.929096493834649 L94.0,11.68254893141276 L93.0,11.394801232655688 L92.0,11.067627457812101 L91.0,10.703044742000229 L90.0,10.303300858899105 L89.0,9.870860362476378 L88.0,9.408389392193547 L87.0,8.918739235369612 L86.0,8.404928748046594 L85.0,7.870125742738175 L84.0,7.317627457812104 L83.0,6.750840228919299 L82.0,6.173258487801723 L81.0,5.588443217958832 L80.0,4.999999999999998 L79.0,4.411556782041164 L78.0,3.8267415121982666 L77.0,3.249159771080711 L76.0,2.682372542187893 L75.0,2.129874257261822 L74.0,1.5950712519534034 L73.0,1.081260764630379 L72.0,0.5916106078064498 L71.0,0.12913963752362445 L70.0,-0.3033008588991075 L69.0,-0.7030447420002313 L68.0,-1.0676274578121028 L67.0,-1.3948012326556904 L66.0,-1.6825489314127564 L65.0,-1.92909649383465 L64.0,-2.1329238722136523 L63.0,-2.292774402982574 L62.0,-2.407662554463533 L61.0,-2.4768800029984597 L60.0,-2.5 L59.0,-2.4768800029984597 L58.0,-2.407662554463532 L57.0,-2.292774402982573 L56.0,-2.1329238722136514 L55.0,-1.929096493834649 L54.0,-1.6825489314127582 L53.0,-1.3948012326556931 L52.0,-1.0676274578121054 L51.0,-0.7030447420002339 L50.0,-0.30330085889910574 L49.0,0.12913963752362356 L48.0,0.5916106078064525 L47.0,1.0812607646303816 L46.0,1.595071251953403 L45.0,2.1298742572618274 L44.0,2.6823725421878954 L43.0,3.2491597710807136 L42.0,3.8267415121982697 L41.0,4.411556782041167 L40.0,5.000000000000001 L39.0,5.588443217958838 L38.0,6.173258487801732 L37.0,6.750840228919288 L36.0,7.317627457812106 L35.0,7.870125742738175 L34.0,8.404928748046599 L33.0,8.918739235369614 L32.0,9.408389392193548 L31.0,9.870860362476378 L30.0,10.30330085889911 L29.0,10.703044742000232 L28.0,11.067627457812106 L27.0,11.394801232655691 L26.0,11.682548931412759 L25.0,11.92909649383465 L24.0,12.132923872213652 L23.0,12.292774402982575 L22.0,12.407662554463533 L21.0,12.47688000299846 L20.0,12.5 L19.0,12.47688000299846 L18.0,12.407662554463533 L17.0,12.292774402982575 L16.0,12.132923872213652 L15.0,11.929096493834649 L14.0,11.682548931412757 L13.0,11.394801232655691 L12.0,11.067627457812106 L11.0,10.703044742000232 L10.0,10.303300858899107 L9.0,9.870860362476378 L8.0,9.408389392193548 L7.0,8.918739235369616 L6.0,8.4049287480466 L5.0,7.870125742738173 L4.0,7.317627457812105 L3.0,6.750840228919291 L2.0,6.173258487801732 L1.0,5.588443217958837 L0.0,5.0" fill="#FFFFFF"  />
<!-- Path -->
<path d="M0.0,0.0 L1.0,0.588443217958837 L2.0,1.1732584878017316 L3.0,1.7508402289192904 L4.0,2.3176274578121054 L5.0,2.8701257427381734 L6.0,3.4049287480466006 L7.0,3.9187392353696158 L8.0,4.408389392193548 L9.0,4.870860362476377 L10.0,5.303300858899106 L11.0,5.703044742000232 L12.0,6.067627457812106 L13.0,6.394801232655691 L14.0,6.682548931412758 L15.0,6.92909649383465 L16.0,7.132923872213651 L17.0,7.292774402982575 L18.0,7.407662554463533 L19.0,7.47688000299846 L20.0,7.5 L21.0,7.47688000299846 L22.0,7.407662554463533 L23.0,7.292774402982575 L24.0,7.132923872213652 L25.0,6.929096493834651 L26.0,6.682548931412759 L27.0,6.394801232655692 L28.0,6.067627457812106 L29.0,5.703044742000232 L30.0,5.303300858899109 L31.0,4.870860362476378 L32.0,4.408389392193549 L33.0,3.9187392353696144 L34.0,3.4049287480465984 L35.0,2.8701257427381743 L36.0,2.3176274578121063 L37.0,1.7508402289192881 L38.0,1.1732584878017323 L39.0,0.588443217958838 L40.0,9.18485099360515e-16 L41.0,-0.5884432179588328 L42.0,-1.1732584878017305 L43.0,-1.7508402289192864 L44.0,-2.3176274578121046 L45.0,-2.8701257427381726 L46.0,-3.404928748046597 L47.0,-3.9187392353696184 L48.0,-4.4083893921935475 L49.0,-4.870860362476376 L50.0,-5.303300858899106 L51.0,-5.703044742000234 L52.0,-6.067627457812105 L53.0,-6.394801232655693 L54.0,-6.682548931412758 L55.0,-6.929096493834649 L56.0,-7.132923872213651 L57.0,-7.292774402982573 L58.0,-7.407662554463532 L59.0,-7.47688000299846 L60.0,-7.5 L61.0,-7.47688000299846 L62.0,-7.407662554463533 L63.0,-7.292774402982574 L64.0,-7.132923872213652 L65.0,-6.92909649383465 L66.0,-6.682548931412756 L67.0,-6.3948012326556904 L68.0,-6.067627457812103 L69.0,-5.703044742000231 L70.0,-5.3033008588991075 L71.0,-4.8708603624763755 L72.0,-4.40838939219355 L73.0,-3.918739235369621 L74.0,-3.4049287480465966 L75.0,-2.870125742738178 L76.0,-2.317627457812107 L77.0,-1.750840228919289 L78.0,-1.1732584878017334 L79.0,-0.5884432179588356 L80.0,-1.83697019872103e-15 L81.0,0.5884432179588319 L82.0,1.173258487801723 L83.0,1.7508402289192986 L84.0,2.3176274578121037 L85.0,2.870125742738175 L86.0,3.404928748046593 L87.0,3.9187392353696118 L88.0,4.408389392193547 L89.0,4.870860362476378 L90.0,5.303300858899105 L91.0,5.703044742000229 L92.0,6.067627457812101 L93.0,6.394801232655689 L94.0,6.682548931412761 L95.0,6.929096493834649 L96.0,7.132923872213651 L97.0,7.292774402982575 L98.0,7.407662554463532 L99.0,7.47688000299846 L100.0,7.5 L101.0,7.476880002998461 L102.0,7.407662554463532 L103.0,7.292774402982576 L104.0,7.132923872213652 L105.0,6.929096493834651 L106.0,6.682548931412756 L107.0,6.394801232655695 L108.0,6.067627457812106 L109.0,5.70304474200024 L110.0,5.303300858899113 L111.0,4.870860362476372 L112.0,4.40838939219355 L113.0,3.9187392353696158 L114.0,3.4049287480466095 L115.0,2.8701257427381663 L116.0,2.3176274578121085 L117.0,1.75084022891929 L118.0,1.1732584878017407 L119.0,0.5884432179588431 L120.0,1.6078131593583422e-14 L121.0,-0.5884432179588376 L122.0,-1.1732584878017354 L123.0,-1.7508402289192846 L124.0,-2.3176274578121028 L125.0,-2.8701257427381615 L126.0,-3.404928748046604 L127.0,-3.918739235369611 L128.0,-4.408389392193546 L129.0,-4.870860362476377 L130.0,-5.303300858899109 L131.0,-5.703044742000228 L132.0,-6.067627457812112 L133.0,-6.394801232655692 L134.0,-6.682548931412761 L135.0,-6.929096493834648 L136.0,-7.132923872213655 L137.0,-7.292774402982574 L138.0,-7.407662554463533 L139.0,-7.476880002998461 L140.0,-7.5 L141.0,-7.476880002998461 L142.0,-7.407662554463532 L143.0,-7.292774402982573 L144.0,-7.132923872213653 L145.0,-6.929096493834651 L146.0,-6.6825489314127635 L147.0,-6.394801232655688 L148.0,-6.0676274578121 L149.0,-5.703044742000232 L150.0,-5.303300858899114 L151.0,-4.870860362476383 L152.0,-4.408389392193551 L153.0,-3.9187392353696167 L154.0,-3.404928748046598 L155.0,-2.8701257427381797 L156.0,-2.317627457812109 L157.0,-1.7508402289193037 L158.0,-1.1732584878017287 L159.0,-0.588443217958844 L160.0,-3.67394039744206e-15 L161.0,0.5884432179588368 L162.0,1.1732584878017214 L163.0,1.7508402289192706 L164.0,2.3176274578120895 L165.0,2.8701257427381606 L166.0,3.4049287480466153 L167.0,3.918739235369622 L168.0,4.408389392193545 L169.0,4.870860362476376 L170.0,5.303300858899108 L171.0,5.703044742000227 L172.0,6.067627457812096 L173.0,6.394801232655684 L174.0,6.682548931412755 L175.0,6.929096493834643 L176.0,7.1329238722136505 L177.0,7.292774402982574 L178.0,7.407662554463533 L179.0,7.476880002998461 L180.0,7.5 L181.0,7.476880002998461 L182.0,7.407662554463535 L183.0,7.292774402982577 L184.0,7.132923872213658 L185.0,6.929096493834652 L186.0,6.682548931412764 L187.0,6.394801232655689 L188.0,6.0676274578121 L189.0,5.703044742000233 L190.0,5.303300858899115 L191.0,4.8708603624763835 L192.0,4.408389392193552 L193.0,3.9187392353696286 L194.0,3.404928748046599 L195.0,2.8701257427381806 L196.0,2.31762745781211 L197.0,1.7508402289193048 L198.0,1.1732584878017294 L199.0,0.588443217958845 L200.0,4.592425496802574e-15 L201.0,-0.5884432179588358 L202.0,-1.1732584878017203 L203.0,-1.750840228919296 L204.0,-2.317627457812114 L205.0,-2.8701257427381597 L206.0,-3.404928748046591 L207.0,-3.9187392353696096 L208.0,-4.408389392193544 L209.0,-4.870860362476376 L210.0,-5.3033008588991075 L211.0,-5.703044742000218 L212.0,-6.067627457812111 L213.0,-6.394801232655698 L214.0,-6.682548931412754 L215.0,-6.929096493834647 L216.0,-7.1329238722136505 L217.0,-7.292774402982574 L218.0,-7.4076625544635295 L219.0,-7.476880002998461 L220.0,-7.5 L221.0,-7.476880002998459 L222.0,-7.40766255446353 L223.0,-7.292774402982577 L224.0,-7.132923872213653 L225.0,-6.929096493834652 L226.0,-6.682548931412758 L227.0,-6.394801232655703 L228.0,-6.067627457812117 L229.0,-5.703044742000242 L230.0,-5.303300858899096 L231.0,-4.870860362476364 L232.0,-4.408389392193553 L233.0,-3.9187392353696184 L234.0,-3.4049287480465997 L235.0,-2.870125742738169 L236.0,-2.317627457812123 L237.0,-1.7508402289193057 L238.0,-1.1732584878017436 L239.0,-0.5884432179588459 L240.0,-3.2156263187166845e-14 L241.0,0.5884432179588349 L242.0,1.1732584878017325 L243.0,1.7508402289192948 L244.0,2.317627457812113 L245.0,2.870125742738159 L246.0,3.40492874804659 L247.0,3.9187392353696087 L248.0,4.408389392193543 L249.0,4.870860362476355 L250.0,5.303300858899089 L251.0,5.703044742000235 L252.0,6.06762745781211 L253.0,6.3948012326556976 L254.0,6.682548931412754 L255.0,6.929096493834657 L256.0,7.13292387221365 L257.0,7.292774402982574 L258.0,7.407662554463533 L259.0,7.47688000299846 L260.0,7.5 L261.0,7.4768800029984614 L262.0,7.407662554463535 L263.0,7.2927744029825705 L264.0,7.132923872213645 L265.0,6.929096493834652 L266.0,6.682548931412758 L267.0,6.39480123265569 L268.0,6.067627457812102 L269.0,5.703044742000225 L270.0,5.3033008588991155 L271.0,4.870860362476385 L272.0,4.4083893921935315 L273.0,3.9187392353695962 L274.0,3.4049287480466006 L275.0,2.87012574273817 L276.0,2.3176274578120992 L277.0,1.7508402289192806 L278.0,1.173258487801718 L279.0,0.5884432179588468 L280.0,6.429395695523604e-15 L281.0,-0.5884432179588339 L282.0,-1.1732584878017054 L283.0,-1.750840228919294 L284.0,-2.317627457812112 L285.0,-2.8701257427381823 L286.0,-3.404928748046613 L287.0,-3.918739235369631 L288.0,-4.408389392193543 L289.0,-4.870860362476375 L290.0,-5.303300858899107 L291.0,-5.703044742000217 L292.0,-6.067627457812094 L293.0,-6.394801232655683 L294.0,-6.682548931412765 L295.0,-6.929096493834657 L296.0,-7.1329238722136585 L297.0,-7.292774402982573 L298.0,-7.407662554463533 L299.0,-7.47688000299846 L300.0,-7.5 L301.0,-7.4768800029984614 L302.0,-7.407662554463535 L303.0,-7.292774402982577 L304.0,-7.132923872213654 L305.0,-6.929096493834642 L306.0,-6.682548931412759 L307.0,-6.3948012326556904 L308.0,-6.067627457812102 L309.0,-5.703044742000243 L310.0,-5.3033008588991155 L311.0,-4.870860362476385 L312.0,-4.408389392193555 L313.0,-3.91873923536962 L314.0,-3.404928748046625 L315.0,-2.870125742738171 L316.0,-2.3176274578121 L317.0,-1.7508402289192815 L318.0,-1.1732584878017454 L319.0,-0.5884432179588477 L320.0,-7.34788079488412e-15 L321.0,0.588443217958833 L322.0,1.173258487801731 L323.0,1.750840228919267 L324.0,2.317627457812086 L325.0,2.870125742738157 L326.0,3.4049287480465646 L327.0,3.9187392353696078 L328.0,4.408389392193521 L329.0,4.870860362476374 L330.0,5.303300858899087 L331.0,5.703044742000234 L332.0,6.067627457812125 L333.0,6.3948012326556825 L334.0,6.682548931412764 L335.0,6.929096493834637 L336.0,7.13292387221365 L337.0,7.292774402982568 L338.0,7.407662554463532 L339.0,7.476880002998458 L340.0,7.5 L341.0,7.476880002998463 L342.0,7.407662554463535 L343.0,7.2927744029825705 L344.0,7.132923872213662 L345.0,6.929096493834653 L346.0,6.6825489314127715 L347.0,6.3948012326556904 L348.0,6.067627457812119 L349.0,5.703044742000226 L350.0,5.303300858899136 L351.0,4.870860362476385 L352.0,4.4083893921935555 L353.0,3.9187392353696433 L354.0,3.4049287480466024 L355.0,2.870125742738196 L356.0,2.317627457812101 L357.0,1.7508402289193084 L358.0,1.1732584878017198 L359.0,0.5884432179588752 L360.0,8.266365894244635e-15 L361.0,-0.5884432179588321 L362.0,-1.1732584878017036 L363.0,-1.7508402289192921 L364.0,-2.317627457812085 L365.0,-2.870125742738181 L366.0,-3.4049287480465877 L367.0,-3.918739235369629 L368.0,-4.40838939219352 L369.0,-4.870860362476373 L370.0,-5.303300858899105 L371.0,-5.703044742000215 L372.0,-6.067627457812092 L373.0,-6.3948012326556825 L374.0,-6.682548931412764 L375.0,-6.929096493834646 L376.0,-7.132923872213658 L377.0,-7.292774402982567 L378.0,-7.407662554463532 L379.0,-7.47688000299846 L380.0,-7.5 L381.0,-7.4768800029984614 L382.0,-7.407662554463536 L383.0,-7.292774402982578 L384.0,-7.132923872213655 L385.0,-6.929096493834642 L386.0,-6.6825489314127715 L387.0,-6.394801232655691 L388.0,-6.067627457812104 L389.0,-5.703044742000245 L390.0,-5.303300858899117 L391.0,-4.870860362476386 L392.0,-4.408389392193556 L393.0,-3.918739235369621 L394.0,-3.404928748046627 L395.0,-2.870125742738197 L396.0,-2.317627457812102 L397.0,-1.7508402289192833 L398.0,-1.1732584878017471 L399.0,-0.5884432179588496 L400.0,-9.184850993605149e-15" stroke-width="1" stroke-linecap="round" stroke="#000000" fill="none"  />
<!-- Path -->
<path d="M400.0,4.999999999999991 L399.0,4.41155678204115 L398.0,3.826741512198253 L397.0,3.2491597710807167 L396.0,2.682372542187898 L395.0,2.129874257261803 L394.0,1.5950712519533732 L393.0,1.081260764630379 L392.0,0.5916106078064436 L391.0,0.1291396375236138 L390.0,-0.3033008588991173 L389.0,-0.7030447420002446 L388.0,-1.0676274578121037 L387.0,-1.3948012326556913 L386.0,-1.6825489314127715 L385.0,-1.929096493834642 L384.0,-2.132923872213655 L383.0,-2.2927744029825776 L382.0,-2.4076625544635357 L381.0,-2.4768800029984614 L380.0,-2.5 L379.0,-2.4768800029984597 L378.0,-2.407662554463532 L377.0,-2.292774402982567 L376.0,-2.1329238722136576 L375.0,-1.9290964938346464 L374.0,-1.6825489314127644 L373.0,-1.3948012326556825 L372.0,-1.0676274578120921 L371.0,-0.7030447420002153 L370.0,-0.30330085889910485 L369.0,0.12913963752362712 L368.0,0.59161060780648 L367.0,1.081260764630371 L366.0,1.5950712519534123 L365.0,2.129874257261819 L364.0,2.682372542187915 L363.0,3.249159771080708 L362.0,3.8267415121982964 L361.0,4.411556782041168 L360.0,5.000000000000008 L359.0,5.588443217958876 L358.0,6.17325848780172 L357.0,6.750840228919309 L356.0,7.317627457812101 L355.0,7.870125742738196 L354.0,8.404928748046602 L353.0,8.918739235369642 L352.0,9.408389392193556 L351.0,9.870860362476385 L350.0,10.303300858899135 L349.0,10.703044742000227 L348.0,11.067627457812119 L347.0,11.394801232655691 L346.0,11.682548931412772 L345.0,11.929096493834653 L344.0,12.132923872213663 L343.0,12.29277440298257 L342.0,12.407662554463535 L341.0,12.476880002998463 L340.0,12.5 L339.0,12.476880002998458 L338.0,12.407662554463531 L337.0,12.292774402982568 L336.0,12.132923872213649 L335.0,11.929096493834637 L334.0,11.682548931412764 L333.0,11.394801232655682 L332.0,11.067627457812126 L331.0,10.703044742000234 L330.0,10.303300858899087 L329.0,9.870860362476375 L328.0,9.40838939219352 L327.0,8.918739235369607 L326.0,8.404928748046565 L325.0,7.870125742738157 L324.0,7.317627457812086 L323.0,6.750840228919267 L322.0,6.173258487801731 L321.0,5.588443217958833 L320.0,4.999999999999993 L319.0,4.411556782041153 L318.0,3.8267415121982546 L317.0,3.2491597710807185 L316.0,2.6823725421879 L315.0,2.129874257261829 L314.0,1.595071251953375 L313.0,1.0812607646303798 L312.0,0.5916106078064454 L311.0,0.12913963752361468 L310.0,-0.3033008588991155 L309.0,-0.7030447420002428 L308.0,-1.0676274578121019 L307.0,-1.3948012326556904 L306.0,-1.682548931412759 L305.0,-1.929096493834642 L304.0,-2.132923872213654 L303.0,-2.2927744029825767 L302.0,-2.407662554463535 L301.0,-2.4768800029984614 L300.0,-2.5 L299.0,-2.4768800029984597 L298.0,-2.407662554463533 L297.0,-2.292774402982573 L296.0,-2.1329238722136585 L295.0,-1.929096493834657 L294.0,-1.6825489314127653 L293.0,-1.3948012326556833 L292.0,-1.067627457812094 L291.0,-0.703044742000217 L290.0,-0.30330085889910663 L289.0,0.12913963752362534 L288.0,0.5916106078064569 L287.0,1.0812607646303691 L286.0,1.595071251953387 L285.0,2.1298742572618177 L284.0,2.682372542187888 L283.0,3.249159771080706 L282.0,3.8267415121982946 L281.0,4.411556782041166 L280.0,5.000000000000006 L279.0,5.588443217958847 L278.0,6.173258487801718 L277.0,6.75084022891928 L276.0,7.317627457812099 L275.0,7.8701257427381694 L274.0,8.4049287480466 L273.0,8.918739235369596 L272.0,9.40838939219353 L271.0,9.870860362476385 L270.0,10.303300858899116 L269.0,10.703044742000225 L268.0,11.067627457812101 L267.0,11.39480123265569 L266.0,11.682548931412757 L265.0,11.929096493834653 L264.0,12.132923872213645 L263.0,12.29277440298257 L262.0,12.407662554463535 L261.0,12.476880002998461 L260.0,12.5 L259.0,12.47688000299846 L258.0,12.407662554463533 L257.0,12.292774402982573 L256.0,12.132923872213649 L255.0,11.929096493834656 L254.0,11.682548931412754 L253.0,11.394801232655698 L252.0,11.06762745781211 L251.0,10.703044742000234 L250.0,10.303300858899089 L249.0,9.870860362476355 L248.0,9.408389392193543 L247.0,8.918739235369609 L246.0,8.40492874804659 L245.0,7.870125742738159 L244.0,7.317627457812113 L243.0,6.750840228919294 L242.0,6.173258487801732 L241.0,5.588443217958835 L240.0,4.999999999999968 L239.0,4.4115567820411545 L238.0,3.8267415121982564 L237.0,3.249159771080694 L236.0,2.682372542187877 L235.0,2.129874257261831 L234.0,1.5950712519534003 L233.0,1.0812607646303816 L232.0,0.5916106078064471 L231.0,0.129139637523636 L230.0,-0.30330085889909597 L229.0,-0.7030447420002419 L228.0,-1.067627457812117 L227.0,-1.3948012326557029 L226.0,-1.6825489314127582 L225.0,-1.9290964938346518 L224.0,-2.132923872213653 L223.0,-2.2927744029825767 L222.0,-2.4076625544635304 L221.0,-2.476880002998459 L220.0,-2.5 L219.0,-2.4768800029984606 L218.0,-2.4076625544635295 L217.0,-2.292774402982574 L216.0,-2.1329238722136505 L215.0,-1.9290964938346473 L214.0,-1.6825489314127537 L213.0,-1.3948012326556984 L212.0,-1.0676274578121108 L211.0,-0.7030447420002179 L210.0,-0.3033008588991075 L209.0,0.12913963752362356 L208.0,0.591610607806456 L207.0,1.0812607646303904 L206.0,1.5950712519534092 L205.0,2.1298742572618403 L204.0,2.682372542187886 L203.0,3.249159771080704 L202.0,3.8267415121982795 L201.0,4.411556782041164 L200.0,5.000000000000004 L199.0,5.5884432179588455 L198.0,6.173258487801729 L197.0,6.750840228919305 L196.0,7.31762745781211 L195.0,7.87012574273818 L194.0,8.404928748046599 L193.0,8.918739235369628 L192.0,9.408389392193552 L191.0,9.870860362476384 L190.0,10.303300858899114 L189.0,10.703044742000234 L188.0,11.067627457812101 L187.0,11.394801232655688 L186.0,11.682548931412764 L185.0,11.929096493834653 L184.0,12.132923872213658 L183.0,12.292774402982577 L182.0,12.407662554463535 L181.0,12.47688000299846 L180.0,12.5 L179.0,12.47688000299846 L178.0,12.407662554463533 L177.0,12.292774402982573 L176.0,12.13292387221365 L175.0,11.929096493834642 L174.0,11.682548931412754 L173.0,11.394801232655684 L172.0,11.067627457812096 L171.0,10.703044742000227 L170.0,10.303300858899108 L169.0,9.870860362476376 L168.0,9.408389392193545 L167.0,8.918739235369621 L166.0,8.404928748046615 L165.0,7.870125742738161 L164.0,7.3176274578120895 L163.0,6.75084022891927 L162.0,6.173258487801721 L161.0,5.588443217958837 L160.0,4.9999999999999964 L159.0,4.411556782041156 L158.0,3.8267415121982715 L157.0,3.2491597710806963 L156.0,2.682372542187891 L155.0,2.1298742572618203 L154.0,1.595071251953402 L153.0,1.0812607646303833 L152.0,0.5916106078064489 L151.0,0.12913963752361735 L150.0,-0.30330085889911373 L149.0,-0.7030447420002321 L148.0,-1.0676274578121001 L147.0,-1.3948012326556878 L146.0,-1.6825489314127635 L145.0,-1.9290964938346509 L144.0,-2.132923872213653 L143.0,-2.292774402982573 L142.0,-2.407662554463532 L141.0,-2.4768800029984606 L140.0,-2.5 L139.0,-2.4768800029984606 L138.0,-2.407662554463533 L137.0,-2.292774402982574 L136.0,-2.132923872213655 L135.0,-1.9290964938346482 L134.0,-1.6825489314127609 L133.0,-1.3948012326556922 L132.0,-1.0676274578121117 L131.0,-0.7030447420002277 L130.0,-0.3033008588991093 L129.0,0.12913963752362267 L128.0,0.5916106078064542 L127.0,1.0812607646303891 L126.0,1.5950712519533958 L125.0,2.1298742572618385 L124.0,2.6823725421878972 L123.0,3.2491597710807154 L122.0,3.8267415121982644 L121.0,4.4115567820411625 L120.0,5.000000000000016 L119.0,5.588443217958843 L118.0,6.173258487801741 L117.0,6.75084022891929 L116.0,7.317627457812108 L115.0,7.870125742738166 L114.0,8.40492874804661 L113.0,8.918739235369616 L112.0,9.40838939219355 L111.0,9.870860362476371 L110.0,10.303300858899114 L109.0,10.703044742000241 L108.0,11.067627457812106 L107.0,11.394801232655695 L106.0,11.682548931412757 L105.0,11.92909649383465 L104.0,12.132923872213652 L103.0,12.292774402982577 L102.0,12.407662554463531 L101.0,12.47688000299846 L100.0,12.5 L99.0,12.47688000299846 L98.0,12.407662554463531 L97.0,12.292774402982575 L96.0,12.132923872213652 L95.0,11.929096493834649 L94.0,11.68254893141276 L93.0,11.394801232655688 L92.0,11.067627457812101 L91.0,10.703044742000229 L90.0,10.303300858899105 L89.0,9.870860362476378 L88.0,9.408389392193547 L87.0,8.918739235369612 L86.0,8.404928748046594 L85.0,7.870125742738175 L84.0,7.317627457812104 L83.0,6.750840228919299 L82.0,6.173258487801723 L81.0,5.588443217958832 L80.0,4.999999999999998 L79.0,4.411556782041164 L78.0,3.8267415121982666 L77.0,3.249159771080711 L76.0,2.682372542187893 L75.0,2.129874257261822 L74.0,1.5950712519534034 L73.0,1.081260764630379 L72.0,0.5916106078064498 L71.0,0.12913963752362445 L70.0,-0.3033008588991075 L69.0,-0.7030447420002313 L68.0,-1.0676274578121028 L67.0,-1.3948012326556904 L66.0,-1.6825489314127564 L65.0,-1.92909649383465 L64.0,-2.1329238722136523 L63.0,-2.292774402982574 L62.0,-2.407662554463533 L61.0,-2.4768800029984597 L60.0,-2.5 L59.0,-2.4768800029984597 L58.0,-2.407662554463532 L57.0,-2.292774402982573 L56.0,-2.1329238722136514 L55.0,-1.929096493834649 L54.0,-1.6825489314127582 L53.0,-1.3948012326556931 L52.0,-1.0676274578121054 L51.0,-0.7030447420002339 L50.0,-0.30330085889910574 L49.0,0.12913963752362356 L48.0,0.5916106078064525 L47.0,1.0812607646303816 L46.0,1.595071251953403 L45.0,2.1298742572618274 L44.0,2.6823725421878954 L43.0,3.2491597710807136 L42.0,3.8267415121982697 L41.0,4.411556782041167 L40.0,5.000000000000001 L39.0,5.588443217958838 L38.0,6.173258487801732 L37.0,6.750840228919288 L36.0,7.317627457812106 L35.0,7.870125742738175 L34.0,8.404928748046599 L33.0,8.918739235369614 L32.0,9.408389392193548 L31.0,9.870860362476378 L30.0,10.30330085889911 L29.0,10.703044742000232 L28.0,11.067627457812106 L27.0,11.394801232655691 L26.0,11.682548931412759 L25.0,11.92909649383465 L24.0,12.132923872213652 L23.0,12.292774402982575 L22.0,12.407662554463533 L21.0,12.47688000299846 L20.0,12.5 L19.0,12.47688000299846 L18.0,12.407662554463533 L17.0,12.292774402982575 L16.0,12.132923872213652 L15.0,11.929096493834649 L14.0,11.682548931412757 L13.0,11.394801232655691 L12.0,11.067627457812106 L11.0,10.703044742000232 L10.0,10.303300858899107 L9.0,9.870860362476378 L8.0,9.408389392193548 L7.0,8.918739235369616 L6.0,8.4049287480466 L5.0,7.870125742738173 L4.0,7.317627457812105 L3.0,6.750840228919291 L2.0,6.173258487801732 L1.0,5.588443217958837 L0.0,5.0" stroke-width="1" stroke-linecap="round" stroke="#000000" fill="none"  />
<!-- Footer -->
</svg>
